%TF.GenerationSoftware,KiCad,Pcbnew,9.0.0*%
%TF.CreationDate,2025-06-24T17:18:03-04:00*%
%TF.ProjectId,BitaxeBonanza,42697461-7865-4426-9f6e-616e7a612e6b,1001x*%
%TF.SameCoordinates,Original*%
%TF.FileFunction,Soldermask,Bot*%
%TF.FilePolarity,Negative*%
%FSLAX46Y46*%
G04 Gerber Fmt 4.6, Leading zero omitted, Abs format (unit mm)*
G04 Created by KiCad (PCBNEW 9.0.0) date 2025-06-24 17:18:03*
%MOMM*%
%LPD*%
G01*
G04 APERTURE LIST*
G04 Aperture macros list*
%AMRoundRect*
0 Rectangle with rounded corners*
0 $1 Rounding radius*
0 $2 $3 $4 $5 $6 $7 $8 $9 X,Y pos of 4 corners*
0 Add a 4 corners polygon primitive as box body*
4,1,4,$2,$3,$4,$5,$6,$7,$8,$9,$2,$3,0*
0 Add four circle primitives for the rounded corners*
1,1,$1+$1,$2,$3*
1,1,$1+$1,$4,$5*
1,1,$1+$1,$6,$7*
1,1,$1+$1,$8,$9*
0 Add four rect primitives between the rounded corners*
20,1,$1+$1,$2,$3,$4,$5,0*
20,1,$1+$1,$4,$5,$6,$7,0*
20,1,$1+$1,$6,$7,$8,$9,0*
20,1,$1+$1,$8,$9,$2,$3,0*%
%AMFreePoly0*
4,1,9,3.862500,-0.866500,0.737500,-0.866500,0.737500,-0.450000,-0.737500,-0.450000,-0.737500,0.450000,0.737500,0.450000,0.737500,0.866500,3.862500,0.866500,3.862500,-0.866500,3.862500,-0.866500,$1*%
G04 Aperture macros list end*
%ADD10C,0.000000*%
%ADD11C,0.120000*%
%ADD12C,6.000000*%
%ADD13C,0.800000*%
%ADD14C,6.400000*%
%ADD15C,1.300000*%
%ADD16O,4.000000X1.574800*%
%ADD17C,1.500000*%
%ADD18C,1.700000*%
%ADD19O,1.700000X1.700000*%
%ADD20R,0.762000X0.355600*%
%ADD21RoundRect,0.140000X0.170000X-0.140000X0.170000X0.140000X-0.170000X0.140000X-0.170000X-0.140000X0*%
%ADD22RoundRect,0.140000X-0.170000X0.140000X-0.170000X-0.140000X0.170000X-0.140000X0.170000X0.140000X0*%
%ADD23RoundRect,0.135000X0.185000X-0.135000X0.185000X0.135000X-0.185000X0.135000X-0.185000X-0.135000X0*%
%ADD24RoundRect,0.250000X-0.325000X-0.650000X0.325000X-0.650000X0.325000X0.650000X-0.325000X0.650000X0*%
%ADD25RoundRect,0.150000X-0.512500X-0.150000X0.512500X-0.150000X0.512500X0.150000X-0.512500X0.150000X0*%
%ADD26C,0.990600*%
%ADD27C,0.787400*%
%ADD28RoundRect,0.140000X-0.140000X-0.170000X0.140000X-0.170000X0.140000X0.170000X-0.140000X0.170000X0*%
%ADD29C,1.000000*%
%ADD30RoundRect,0.250000X-0.650000X0.325000X-0.650000X-0.325000X0.650000X-0.325000X0.650000X0.325000X0*%
%ADD31RoundRect,0.225000X0.225000X0.250000X-0.225000X0.250000X-0.225000X-0.250000X0.225000X-0.250000X0*%
%ADD32R,1.300000X1.100000*%
%ADD33RoundRect,0.135000X-0.185000X0.135000X-0.185000X-0.135000X0.185000X-0.135000X0.185000X0.135000X0*%
%ADD34RoundRect,0.150000X0.150000X-0.512500X0.150000X0.512500X-0.150000X0.512500X-0.150000X-0.512500X0*%
%ADD35RoundRect,0.062500X0.337500X0.062500X-0.337500X0.062500X-0.337500X-0.062500X0.337500X-0.062500X0*%
%ADD36RoundRect,0.062500X0.062500X0.337500X-0.062500X0.337500X-0.062500X-0.337500X0.062500X-0.337500X0*%
%ADD37C,0.400000*%
%ADD38R,3.300000X5.300000*%
%ADD39R,0.599999X0.240000*%
%ADD40R,0.240000X0.599999*%
%ADD41C,0.499999*%
%ADD42R,2.000001X1.000000*%
%ADD43RoundRect,0.135000X-0.135000X-0.185000X0.135000X-0.185000X0.135000X0.185000X-0.135000X0.185000X0*%
%ADD44RoundRect,0.225000X-0.250000X0.225000X-0.250000X-0.225000X0.250000X-0.225000X0.250000X0.225000X0*%
%ADD45RoundRect,0.140000X0.140000X0.170000X-0.140000X0.170000X-0.140000X-0.170000X0.140000X-0.170000X0*%
%ADD46R,0.220000X0.599999*%
%ADD47R,1.270000X0.889000*%
%ADD48R,0.787400X1.447800*%
%ADD49C,3.000000*%
%ADD50C,2.000000*%
%ADD51RoundRect,0.250000X0.475000X-0.250000X0.475000X0.250000X-0.475000X0.250000X-0.475000X-0.250000X0*%
%ADD52RoundRect,0.381000X1.334000X-0.889000X1.334000X0.889000X-1.334000X0.889000X-1.334000X-0.889000X0*%
%ADD53RoundRect,0.135000X0.135000X0.185000X-0.135000X0.185000X-0.135000X-0.185000X0.135000X-0.185000X0*%
%ADD54R,0.300000X1.300000*%
%ADD55R,2.000000X1.600000*%
%ADD56C,0.650000*%
%ADD57RoundRect,0.150000X-0.150000X-0.425000X0.150000X-0.425000X0.150000X0.425000X-0.150000X0.425000X0*%
%ADD58RoundRect,0.075000X-0.075000X-0.500000X0.075000X-0.500000X0.075000X0.500000X-0.075000X0.500000X0*%
%ADD59O,1.000000X1.800000*%
%ADD60O,1.000000X2.100000*%
%ADD61RoundRect,0.250000X0.450000X-0.262500X0.450000X0.262500X-0.450000X0.262500X-0.450000X-0.262500X0*%
%ADD62RoundRect,0.225000X0.250000X-0.225000X0.250000X0.225000X-0.250000X0.225000X-0.250000X-0.225000X0*%
%ADD63RoundRect,0.250000X-1.025000X0.787500X-1.025000X-0.787500X1.025000X-0.787500X1.025000X0.787500X0*%
%ADD64R,0.900000X1.500000*%
%ADD65R,1.500000X0.900000*%
%ADD66R,0.900000X0.900000*%
%ADD67RoundRect,0.225000X0.425000X0.225000X-0.425000X0.225000X-0.425000X-0.225000X0.425000X-0.225000X0*%
%ADD68FreePoly0,180.000000*%
%ADD69RoundRect,0.085000X-0.727500X-0.085000X0.727500X-0.085000X0.727500X0.085000X-0.727500X0.085000X0*%
G04 APERTURE END LIST*
D10*
%TO.C,U1*%
G36*
X184385000Y-51881822D02*
G01*
X184385000Y-52088822D01*
X184502049Y-52369751D01*
X184783001Y-52486822D01*
X184870001Y-52486822D01*
X184920003Y-52536822D01*
X184920001Y-52856821D01*
X184870001Y-52906821D01*
X183860000Y-52906821D01*
X183810000Y-52856821D01*
X183760000Y-52806821D01*
X183460001Y-52806821D01*
X183410001Y-52756822D01*
X183410001Y-52606822D01*
X183460001Y-52556822D01*
X183760000Y-52556822D01*
X183810000Y-52506822D01*
X183810000Y-52356822D01*
X183760000Y-52306820D01*
X183460001Y-52306820D01*
X183410001Y-52256820D01*
X183410001Y-52106820D01*
X183460001Y-52056820D01*
X183760000Y-52056820D01*
X183810000Y-52006821D01*
X183810000Y-51881822D01*
X183860000Y-51831822D01*
X184335001Y-51831822D01*
X184385000Y-51881822D01*
G37*
G36*
X186710000Y-51881822D02*
G01*
X186710000Y-52006821D01*
X186760000Y-52056820D01*
X187059999Y-52056820D01*
X187109999Y-52106820D01*
X187109999Y-52256820D01*
X187059999Y-52306820D01*
X186760000Y-52306820D01*
X186710000Y-52356822D01*
X186710000Y-52506822D01*
X186760000Y-52556822D01*
X187059999Y-52556822D01*
X187109999Y-52606822D01*
X187109999Y-52756822D01*
X187059999Y-52806821D01*
X186760000Y-52806821D01*
X186710000Y-52856821D01*
X186660000Y-52906821D01*
X185649999Y-52906821D01*
X185599999Y-52856821D01*
X185599997Y-52536822D01*
X185649999Y-52486822D01*
X185736999Y-52486822D01*
X185987092Y-52382609D01*
X186030806Y-52338896D01*
X186135000Y-52088822D01*
X186135000Y-51881822D01*
X186184999Y-51831822D01*
X186660000Y-51831822D01*
X186710000Y-51881822D01*
G37*
G36*
X184810001Y-53306820D02*
G01*
X184810001Y-55406819D01*
X184760004Y-55456821D01*
X183860000Y-55456821D01*
X183810000Y-55406819D01*
X183810000Y-55271820D01*
X183760000Y-55221820D01*
X183459999Y-55221820D01*
X183410001Y-55171821D01*
X183410001Y-55021821D01*
X183460001Y-54971821D01*
X183760000Y-54971821D01*
X183810000Y-54921821D01*
X183810000Y-54771821D01*
X183760000Y-54721821D01*
X183460001Y-54721821D01*
X183410001Y-54671822D01*
X183410001Y-54521822D01*
X183460001Y-54471819D01*
X183760000Y-54471822D01*
X183810000Y-54421820D01*
X183810000Y-54271822D01*
X183760000Y-54221820D01*
X183460001Y-54221820D01*
X183410001Y-54171820D01*
X183410001Y-54021820D01*
X183460001Y-53971820D01*
X183760000Y-53971820D01*
X183810000Y-53921818D01*
X183810000Y-53771821D01*
X183760000Y-53721816D01*
X183460001Y-53721821D01*
X183410001Y-53671824D01*
X183409999Y-53521821D01*
X183460001Y-53471824D01*
X183760000Y-53471821D01*
X183810000Y-53421822D01*
X183810000Y-53306820D01*
X183860003Y-53256823D01*
X184759998Y-53256821D01*
X184810001Y-53306820D01*
G37*
G36*
X186660000Y-53256823D02*
G01*
X186710000Y-53306820D01*
X186710000Y-53421822D01*
X186760000Y-53471821D01*
X187059999Y-53471824D01*
X187110001Y-53521821D01*
X187109999Y-53671824D01*
X187059999Y-53721821D01*
X186760000Y-53721818D01*
X186710000Y-53771821D01*
X186710000Y-53921818D01*
X186760000Y-53971820D01*
X187059999Y-53971820D01*
X187109999Y-54021820D01*
X187109999Y-54171820D01*
X187059999Y-54221820D01*
X186760000Y-54221820D01*
X186710000Y-54271820D01*
X186710000Y-54421822D01*
X186760000Y-54471819D01*
X187059999Y-54471819D01*
X187109999Y-54521822D01*
X187109999Y-54671822D01*
X187059999Y-54721821D01*
X186760000Y-54721821D01*
X186710000Y-54771821D01*
X186710000Y-54921821D01*
X186760000Y-54971821D01*
X187059999Y-54971821D01*
X187109999Y-55021821D01*
X187109999Y-55171821D01*
X187059999Y-55221820D01*
X186760000Y-55221820D01*
X186710000Y-55271820D01*
X186710000Y-55406819D01*
X186660000Y-55456821D01*
X185759999Y-55456821D01*
X185709999Y-55406819D01*
X185709999Y-53306820D01*
X185760002Y-53256821D01*
X186660000Y-53256823D01*
G37*
D11*
%TO.C,U5*%
X98520000Y-65750000D02*
X98520000Y-47750000D01*
%TD*%
D12*
%TO.C,H16*%
X171000000Y-87000000D03*
X221000000Y-87000000D03*
X221000000Y-137000000D03*
X171000000Y-137000000D03*
%TD*%
%TO.C,H15*%
X106000000Y-87000000D03*
X156000000Y-87000000D03*
X156000000Y-137000000D03*
X106000000Y-137000000D03*
%TD*%
D13*
%TO.C,H4*%
X99600000Y-146500000D03*
X100302944Y-144802944D03*
X100302944Y-148197056D03*
X102000000Y-144100000D03*
D14*
X102000000Y-146500000D03*
D13*
X102000000Y-148900000D03*
X103697056Y-144802944D03*
X103697056Y-148197056D03*
X104400000Y-146500000D03*
%TD*%
D15*
%TO.C,J7*%
X160930000Y-50670000D03*
D16*
X157570000Y-55750000D03*
X157570000Y-53210000D03*
D17*
X156610000Y-50670000D03*
D16*
X157570000Y-50670000D03*
X157570000Y-48130000D03*
%TD*%
D13*
%TO.C,H2*%
X99600000Y-41500000D03*
X100302944Y-39802944D03*
X100302944Y-43197056D03*
X102000000Y-39100000D03*
D14*
X102000000Y-41500000D03*
D13*
X102000000Y-43900000D03*
X103697056Y-39802944D03*
X103697056Y-43197056D03*
X104400000Y-41500000D03*
%TD*%
%TO.C,H3*%
X222600000Y-146500000D03*
X223302944Y-144802944D03*
X223302944Y-148197056D03*
X225000000Y-144100000D03*
D14*
X225000000Y-146500000D03*
D13*
X225000000Y-148900000D03*
X226697056Y-144802944D03*
X226697056Y-148197056D03*
X227400000Y-146500000D03*
%TD*%
D15*
%TO.C,J8*%
X169900000Y-50670000D03*
D16*
X166540000Y-55750000D03*
X166540000Y-53210000D03*
D17*
X165580000Y-50670000D03*
D16*
X166540000Y-50670000D03*
X166540000Y-48130000D03*
%TD*%
D18*
%TO.C,J3*%
X148200000Y-40550000D03*
D19*
X147800000Y-43090000D03*
X148200000Y-45630000D03*
X147800000Y-48170000D03*
%TD*%
D13*
%TO.C,H13*%
X160800000Y-41500000D03*
X161502944Y-39802944D03*
X161502944Y-43197056D03*
X163200000Y-39100000D03*
D14*
X163200000Y-41500000D03*
D13*
X163200000Y-43900000D03*
X164897056Y-39802944D03*
X164897056Y-43197056D03*
X165600000Y-41500000D03*
%TD*%
%TO.C,H1*%
X222600000Y-41500000D03*
X223302944Y-39802944D03*
X223302944Y-43197056D03*
X225000000Y-39100000D03*
D14*
X225000000Y-41500000D03*
D13*
X225000000Y-43900000D03*
X226697056Y-39802944D03*
X226697056Y-43197056D03*
X227400000Y-41500000D03*
%TD*%
%TO.C,H14*%
X160800000Y-146500000D03*
X161502944Y-144802944D03*
X161502944Y-148197056D03*
X163200000Y-144100000D03*
D14*
X163200000Y-146500000D03*
D13*
X163200000Y-148900000D03*
X164897056Y-144802944D03*
X164897056Y-148197056D03*
X165600000Y-146500000D03*
%TD*%
D20*
%TO.C,D1*%
X134583900Y-105190000D03*
X132247100Y-105190000D03*
%TD*%
D21*
%TO.C,C6*%
X200574250Y-72574500D03*
X200574250Y-71614500D03*
%TD*%
D22*
%TO.C,C13*%
X182402568Y-74490434D03*
X182402568Y-75450434D03*
%TD*%
D23*
%TO.C,R8*%
X136560000Y-60760000D03*
X136560000Y-59740000D03*
%TD*%
D21*
%TO.C,C67*%
X150876750Y-47910000D03*
X150876750Y-46950000D03*
%TD*%
D24*
%TO.C,C108*%
X144135000Y-119409500D03*
X147085000Y-119409500D03*
%TD*%
D20*
%TO.C,D11*%
X195028400Y-106053000D03*
X192691600Y-106053000D03*
%TD*%
D24*
%TO.C,C191*%
X132805000Y-114773833D03*
X135755000Y-114773833D03*
%TD*%
D22*
%TO.C,C27*%
X212054250Y-77414500D03*
X212054250Y-78374500D03*
%TD*%
D25*
%TO.C,U9*%
X175802500Y-124072500D03*
X175802500Y-123122500D03*
X175802500Y-122172500D03*
X178077500Y-122172500D03*
X178077500Y-124072500D03*
%TD*%
D26*
%TO.C,J2*%
X114570000Y-42465000D03*
X109490000Y-43481000D03*
X109490000Y-41449000D03*
D27*
X113300000Y-43100000D03*
X113300000Y-41830000D03*
X112030000Y-43100000D03*
X112030000Y-41830000D03*
X110760000Y-43100000D03*
X110760000Y-41830000D03*
%TD*%
D24*
%TO.C,C74*%
X192390000Y-114623333D03*
X195340000Y-114623333D03*
%TD*%
D28*
%TO.C,C63*%
X135337500Y-123007500D03*
X136297500Y-123007500D03*
%TD*%
D29*
%TO.C,TP10*%
X221660000Y-78720000D03*
%TD*%
D30*
%TO.C,C38*%
X201754250Y-91419500D03*
X201754250Y-88469500D03*
%TD*%
%TO.C,C39*%
X180565750Y-91380500D03*
X180565750Y-88430500D03*
%TD*%
D31*
%TO.C,C45*%
X107425000Y-46150000D03*
X105875000Y-46150000D03*
%TD*%
D20*
%TO.C,D12*%
X195038400Y-103953000D03*
X192701600Y-103953000D03*
%TD*%
D30*
%TO.C,C42*%
X197154250Y-91419500D03*
X197154250Y-88469500D03*
%TD*%
D28*
%TO.C,C181*%
X181845400Y-121413000D03*
X182805400Y-121413000D03*
%TD*%
D32*
%TO.C,U6*%
X112050000Y-125060000D03*
X114350000Y-125060000D03*
X114350000Y-126960000D03*
X112050000Y-126960000D03*
%TD*%
D33*
%TO.C,R27*%
X104810000Y-73290000D03*
X104810000Y-74310000D03*
%TD*%
D34*
%TO.C,U11*%
X119692500Y-127007500D03*
X118742500Y-127007500D03*
X117792500Y-127007500D03*
X117792500Y-124732500D03*
X119692500Y-124732500D03*
%TD*%
D24*
%TO.C,C116*%
X132790000Y-117165583D03*
X135740000Y-117165583D03*
%TD*%
D35*
%TO.C,U4*%
X189050000Y-75099566D03*
X189050000Y-75599566D03*
X189050000Y-76099566D03*
X189050000Y-76599566D03*
X189050000Y-77099566D03*
X189050000Y-77599566D03*
X189050000Y-78099566D03*
X189050000Y-78599566D03*
X189050000Y-79099566D03*
X189050000Y-79599566D03*
X189050000Y-80099566D03*
X189050000Y-80599566D03*
D36*
X188300000Y-81349566D03*
X187800000Y-81349566D03*
X187300000Y-81349566D03*
X186800000Y-81349566D03*
X186300000Y-81349566D03*
X185800000Y-81349566D03*
X185300000Y-81349566D03*
X184800000Y-81349566D03*
D35*
X184050000Y-80599566D03*
X184050000Y-80099566D03*
X184050000Y-79599566D03*
X184050000Y-79099566D03*
X184050000Y-78599566D03*
X184050000Y-78099566D03*
X184050000Y-77599566D03*
X184050000Y-77099566D03*
X184050000Y-76599566D03*
X184050000Y-76099566D03*
X184050000Y-75599566D03*
X184050000Y-75099566D03*
D36*
X184800000Y-74349566D03*
X185300000Y-74349566D03*
X185800000Y-74349566D03*
X186300000Y-74349566D03*
X186800000Y-74349566D03*
X187300000Y-74349566D03*
X187800000Y-74349566D03*
X188300000Y-74349566D03*
D37*
X187830000Y-79249566D03*
X187830000Y-77849566D03*
X187830000Y-76449566D03*
X186550000Y-80249566D03*
X186550000Y-79249566D03*
X186550000Y-77849566D03*
D38*
X186550000Y-77849566D03*
D37*
X186550000Y-76449566D03*
X186550000Y-75449566D03*
X185270000Y-79249566D03*
X185270000Y-77849566D03*
X185270000Y-76449566D03*
%TD*%
D24*
%TO.C,C188*%
X114590000Y-114663833D03*
X117540000Y-114663833D03*
%TD*%
%TO.C,C109*%
X144135000Y-117001750D03*
X147085000Y-117001750D03*
%TD*%
%TO.C,C190*%
X144140000Y-114620000D03*
X147090000Y-114620000D03*
%TD*%
D22*
%TO.C,C182*%
X194514800Y-111850000D03*
X194514800Y-112810000D03*
%TD*%
D24*
%TO.C,C102*%
X114730000Y-104420000D03*
X117680000Y-104420000D03*
%TD*%
D39*
%TO.C,U7*%
X103670001Y-124150000D03*
D40*
X104070000Y-123250000D03*
X104569999Y-123250000D03*
X105070000Y-123250000D03*
X105570000Y-123250000D03*
X106070001Y-123250000D03*
X106570000Y-123250000D03*
D39*
X106969999Y-124150000D03*
X106969999Y-124650000D03*
D40*
X106570000Y-125550000D03*
X106070001Y-125550000D03*
X105570000Y-125550000D03*
X105070000Y-125550000D03*
X104569999Y-125550000D03*
X104070000Y-125550000D03*
D39*
X103670001Y-124650000D03*
D41*
X106070001Y-124400000D03*
D42*
X105320000Y-124400000D03*
D41*
X104569999Y-124400000D03*
%TD*%
D43*
%TO.C,R34*%
X127335900Y-103615000D03*
X128355900Y-103615000D03*
%TD*%
D17*
%TO.C,TP5*%
X146240000Y-62770000D03*
%TD*%
D21*
%TO.C,C183*%
X134827500Y-53261750D03*
X134827500Y-52301750D03*
%TD*%
D17*
%TO.C,TP7*%
X180885000Y-49256821D03*
%TD*%
D44*
%TO.C,C9*%
X203210000Y-82185000D03*
X203210000Y-83735000D03*
%TD*%
D28*
%TO.C,C46*%
X112120000Y-122810000D03*
X113080000Y-122810000D03*
%TD*%
D23*
%TO.C,R6*%
X125990000Y-62790000D03*
X125990000Y-61770000D03*
%TD*%
D30*
%TO.C,C36*%
X204054250Y-91419500D03*
X204054250Y-88469500D03*
%TD*%
D43*
%TO.C,R28*%
X107120000Y-126640000D03*
X108140000Y-126640000D03*
%TD*%
D45*
%TO.C,C31*%
X207594250Y-72794500D03*
X206634250Y-72794500D03*
%TD*%
D24*
%TO.C,C151*%
X179816287Y-107122375D03*
X182766287Y-107122375D03*
%TD*%
%TO.C,C101*%
X114730000Y-106821083D03*
X117680000Y-106821083D03*
%TD*%
D17*
%TO.C,TP3*%
X159460000Y-60930000D03*
%TD*%
D43*
%TO.C,R24*%
X183840000Y-72799566D03*
X184860000Y-72799566D03*
%TD*%
D28*
%TO.C,C53*%
X189400000Y-112856750D03*
X190360000Y-112856750D03*
%TD*%
D23*
%TO.C,R37*%
X133708000Y-111479600D03*
X133708000Y-110459600D03*
%TD*%
D45*
%TO.C,C51*%
X201410000Y-112670000D03*
X200450000Y-112670000D03*
%TD*%
D29*
%TO.C,TP11*%
X221670000Y-75580000D03*
%TD*%
D30*
%TO.C,C130*%
X139433833Y-98705000D03*
X139433833Y-101655000D03*
%TD*%
D24*
%TO.C,C186*%
X127420000Y-115260000D03*
X130370000Y-115260000D03*
%TD*%
%TO.C,C122*%
X144055000Y-109371750D03*
X147005000Y-109371750D03*
%TD*%
D46*
%TO.C,U1*%
X184760001Y-51781822D03*
X185260000Y-51781822D03*
X185759999Y-51781822D03*
%TD*%
D43*
%TO.C,R26*%
X206624250Y-71764500D03*
X207644250Y-71764500D03*
%TD*%
D30*
%TO.C,C129*%
X137028250Y-98705000D03*
X137028250Y-101655000D03*
%TD*%
D28*
%TO.C,C60*%
X118762500Y-128670000D03*
X119722500Y-128670000D03*
%TD*%
D34*
%TO.C,U8*%
X206602500Y-129837500D03*
X205652500Y-129837500D03*
X204702500Y-129837500D03*
X204702500Y-127562500D03*
X206602500Y-127562500D03*
%TD*%
D44*
%TO.C,C10*%
X182645000Y-82235000D03*
X182645000Y-83785000D03*
%TD*%
D43*
%TO.C,R17*%
X214294250Y-68194500D03*
X215314250Y-68194500D03*
%TD*%
D24*
%TO.C,C95*%
X114590000Y-117111917D03*
X117540000Y-117111917D03*
%TD*%
D47*
%TO.C,SW1*%
X101797000Y-77485500D03*
X101797000Y-73294500D03*
D48*
X99904700Y-78768200D03*
X99904700Y-72011800D03*
%TD*%
D30*
%TO.C,C41*%
X178265750Y-91380500D03*
X178265750Y-88430500D03*
%TD*%
D33*
%TO.C,R4*%
X136550000Y-57440000D03*
X136550000Y-58460000D03*
%TD*%
D17*
%TO.C,TP12*%
X225605750Y-102975500D03*
%TD*%
D30*
%TO.C,C37*%
X182865750Y-91380500D03*
X182865750Y-88430500D03*
%TD*%
D49*
%TO.C,J1*%
X205759823Y-51020000D03*
X200759823Y-51020000D03*
D50*
X208759823Y-41020000D03*
X197759823Y-41020000D03*
%TD*%
D24*
%TO.C,C73*%
X192390000Y-117035833D03*
X195340000Y-117035833D03*
%TD*%
D29*
%TO.C,TP16*%
X208150000Y-123610000D03*
%TD*%
D24*
%TO.C,C196*%
X179816287Y-104724875D03*
X182766287Y-104724875D03*
%TD*%
D51*
%TO.C,C26*%
X191980000Y-79690000D03*
X191980000Y-77790000D03*
%TD*%
D52*
%TO.C,L1*%
X213544250Y-91804500D03*
X213544250Y-86084500D03*
%TD*%
D22*
%TO.C,C62*%
X179664250Y-122975750D03*
X179664250Y-123935750D03*
%TD*%
D29*
%TO.C,FID6*%
X107002200Y-148005000D03*
%TD*%
D53*
%TO.C,R36*%
X134355100Y-100359000D03*
X133335100Y-100359000D03*
%TD*%
D17*
%TO.C,TP4*%
X164800000Y-60920000D03*
%TD*%
D43*
%TO.C,R5*%
X183175000Y-50131821D03*
X184195000Y-50131821D03*
%TD*%
D21*
%TO.C,C180*%
X132318000Y-110459600D03*
X132318000Y-109499600D03*
%TD*%
D44*
%TO.C,C12*%
X181170000Y-82235000D03*
X181170000Y-83785000D03*
%TD*%
D52*
%TO.C,L2*%
X192360750Y-91870500D03*
X192360750Y-86150500D03*
%TD*%
D54*
%TO.C,J4*%
X186650000Y-44680000D03*
X186150000Y-44680000D03*
X185650000Y-44680000D03*
X185150000Y-44680000D03*
X184650000Y-44680000D03*
X184150000Y-44680000D03*
X183650000Y-44680000D03*
X183150000Y-44680000D03*
D55*
X181450000Y-42000000D03*
X188350000Y-42000000D03*
%TD*%
D53*
%TO.C,R22*%
X130905000Y-45208250D03*
X129885000Y-45208250D03*
%TD*%
D24*
%TO.C,C195*%
X187520000Y-110435000D03*
X190470000Y-110435000D03*
%TD*%
D56*
%TO.C,J5*%
X119460000Y-44565000D03*
X125240000Y-44565000D03*
D57*
X119150000Y-45640000D03*
X119950000Y-45640000D03*
D58*
X121100000Y-45640000D03*
X122100000Y-45640000D03*
X122600000Y-45640000D03*
X123600000Y-45640000D03*
D57*
X125550000Y-45640000D03*
X124750000Y-45640000D03*
D58*
X124100000Y-45640000D03*
X123100000Y-45640000D03*
X121600000Y-45640000D03*
X120600000Y-45640000D03*
D59*
X118030000Y-40885000D03*
D60*
X118030000Y-45065000D03*
D59*
X126670000Y-40885000D03*
D60*
X126670000Y-45065000D03*
%TD*%
D45*
%TO.C,C56*%
X119160000Y-102458250D03*
X118200000Y-102458250D03*
%TD*%
D35*
%TO.C,U3*%
X209804250Y-74994500D03*
X209804250Y-75494500D03*
X209804250Y-75994500D03*
X209804250Y-76494500D03*
X209804250Y-76994500D03*
X209804250Y-77494500D03*
X209804250Y-77994500D03*
X209804250Y-78494500D03*
X209804250Y-78994500D03*
X209804250Y-79494500D03*
X209804250Y-79994500D03*
X209804250Y-80494500D03*
D36*
X209054250Y-81244500D03*
X208554250Y-81244500D03*
X208054250Y-81244500D03*
X207554250Y-81244500D03*
X207054250Y-81244500D03*
X206554250Y-81244500D03*
X206054250Y-81244500D03*
X205554250Y-81244500D03*
D35*
X204804250Y-80494500D03*
X204804250Y-79994500D03*
X204804250Y-79494500D03*
X204804250Y-78994500D03*
X204804250Y-78494500D03*
X204804250Y-77994500D03*
X204804250Y-77494500D03*
X204804250Y-76994500D03*
X204804250Y-76494500D03*
X204804250Y-75994500D03*
X204804250Y-75494500D03*
X204804250Y-74994500D03*
D36*
X205554250Y-74244500D03*
X206054250Y-74244500D03*
X206554250Y-74244500D03*
X207054250Y-74244500D03*
X207554250Y-74244500D03*
X208054250Y-74244500D03*
X208554250Y-74244500D03*
X209054250Y-74244500D03*
D37*
X208584250Y-79144500D03*
X208584250Y-77744500D03*
X208584250Y-76344500D03*
X207304250Y-80144500D03*
X207304250Y-79144500D03*
X207304250Y-77744500D03*
D38*
X207304250Y-77744500D03*
D37*
X207304250Y-76344500D03*
X207304250Y-75344500D03*
X206024250Y-79144500D03*
X206024250Y-77744500D03*
X206024250Y-76344500D03*
%TD*%
D53*
%TO.C,R39*%
X161224600Y-123427000D03*
X160204600Y-123427000D03*
%TD*%
D20*
%TO.C,D9*%
X194998400Y-109193000D03*
X192661600Y-109193000D03*
%TD*%
D23*
%TO.C,R7*%
X135370000Y-61460000D03*
X135370000Y-60440000D03*
%TD*%
D53*
%TO.C,R9*%
X200484250Y-74024500D03*
X199464250Y-74024500D03*
%TD*%
D33*
%TO.C,R30*%
X150866750Y-52720000D03*
X150866750Y-53740000D03*
%TD*%
D53*
%TO.C,R42*%
X164544600Y-128137000D03*
X163524600Y-128137000D03*
%TD*%
D22*
%TO.C,C58*%
X174247500Y-123122500D03*
X174247500Y-124082500D03*
%TD*%
D28*
%TO.C,C2*%
X165860000Y-77470000D03*
X166820000Y-77470000D03*
%TD*%
D24*
%TO.C,C150*%
X179816287Y-109534875D03*
X182766287Y-109534875D03*
%TD*%
D30*
%TO.C,C193*%
X141820000Y-98720000D03*
X141820000Y-101670000D03*
%TD*%
D43*
%TO.C,R46*%
X192945400Y-107623000D03*
X193965400Y-107623000D03*
%TD*%
%TO.C,R41*%
X166005400Y-126553000D03*
X167025400Y-126553000D03*
%TD*%
D29*
%TO.C,TP17*%
X211200000Y-123610000D03*
%TD*%
D45*
%TO.C,C50*%
X141430000Y-121455000D03*
X140470000Y-121455000D03*
%TD*%
D20*
%TO.C,D5*%
X164768400Y-123433000D03*
X162431600Y-123433000D03*
%TD*%
D17*
%TO.C,TP6*%
X140600000Y-62780000D03*
%TD*%
D61*
%TO.C,R21*%
X213884250Y-74617000D03*
X213884250Y-72792000D03*
%TD*%
D17*
%TO.C,TP13*%
X222320000Y-91870000D03*
%TD*%
D28*
%TO.C,C3*%
X165450000Y-70210000D03*
X166410000Y-70210000D03*
%TD*%
D34*
%TO.C,U10*%
X136382500Y-126987500D03*
X135432500Y-126987500D03*
X134482500Y-126987500D03*
X134482500Y-124712500D03*
X136382500Y-124712500D03*
%TD*%
D24*
%TO.C,C136*%
X179850000Y-117050000D03*
X182800000Y-117050000D03*
%TD*%
D23*
%TO.C,R25*%
X205194250Y-72794500D03*
X205194250Y-71774500D03*
%TD*%
D45*
%TO.C,C16*%
X203994250Y-71314500D03*
X203034250Y-71314500D03*
%TD*%
%TO.C,C49*%
X206530000Y-121635000D03*
X205570000Y-121635000D03*
%TD*%
D33*
%TO.C,R51*%
X144200000Y-50750000D03*
X144200000Y-51770000D03*
%TD*%
D24*
%TO.C,C158*%
X208050000Y-106972500D03*
X211000000Y-106972500D03*
%TD*%
D29*
%TO.C,FID5*%
X219002200Y-147005000D03*
%TD*%
D45*
%TO.C,C23*%
X214384250Y-71354500D03*
X213424250Y-71354500D03*
%TD*%
D33*
%TO.C,R10*%
X201654250Y-71584500D03*
X201654250Y-72604500D03*
%TD*%
D24*
%TO.C,C171*%
X208150000Y-119210000D03*
X211100000Y-119210000D03*
%TD*%
%TO.C,C194*%
X179850000Y-119450000D03*
X182800000Y-119450000D03*
%TD*%
D53*
%TO.C,R20*%
X130905000Y-43758250D03*
X129885000Y-43758250D03*
%TD*%
D24*
%TO.C,C185*%
X192380000Y-119440000D03*
X195330000Y-119440000D03*
%TD*%
%TO.C,C123*%
X144055000Y-106982833D03*
X147005000Y-106982833D03*
%TD*%
D23*
%TO.C,R52*%
X144230000Y-53530000D03*
X144230000Y-54550000D03*
%TD*%
D62*
%TO.C,C1*%
X188535000Y-52156821D03*
X188535000Y-50606821D03*
%TD*%
D20*
%TO.C,D10*%
X197558400Y-107633000D03*
X195221600Y-107633000D03*
%TD*%
D45*
%TO.C,C184*%
X148750000Y-53710000D03*
X149710000Y-53710000D03*
%TD*%
D61*
%TO.C,R23*%
X191950000Y-76017500D03*
X191950000Y-74192500D03*
%TD*%
D22*
%TO.C,C44*%
X103650000Y-73310000D03*
X103650000Y-74270000D03*
%TD*%
D28*
%TO.C,C61*%
X205462500Y-125972500D03*
X206422500Y-125972500D03*
%TD*%
D22*
%TO.C,C54*%
X184358250Y-103840000D03*
X184358250Y-104800000D03*
%TD*%
D63*
%TO.C,C7*%
X198279250Y-78457000D03*
X198279250Y-84682000D03*
%TD*%
D33*
%TO.C,R49*%
X195592400Y-111820000D03*
X195592400Y-112840000D03*
%TD*%
D29*
%TO.C,TP18*%
X214250000Y-123610000D03*
%TD*%
D45*
%TO.C,C55*%
X124820000Y-111303250D03*
X123860000Y-111303250D03*
%TD*%
D24*
%TO.C,C80*%
X127395000Y-120041167D03*
X130345000Y-120041167D03*
%TD*%
D28*
%TO.C,C59*%
X135502500Y-128587500D03*
X136462500Y-128587500D03*
%TD*%
D24*
%TO.C,C115*%
X132790000Y-119590000D03*
X135740000Y-119590000D03*
%TD*%
D23*
%TO.C,R38*%
X133698000Y-109229600D03*
X133698000Y-108209600D03*
%TD*%
D24*
%TO.C,C164*%
X199065000Y-110420000D03*
X202015000Y-110420000D03*
%TD*%
%TO.C,C187*%
X127365000Y-107638250D03*
X130315000Y-107638250D03*
%TD*%
%TO.C,C81*%
X127395000Y-117651750D03*
X130345000Y-117651750D03*
%TD*%
D62*
%TO.C,C66*%
X172940000Y-51590000D03*
X172940000Y-53140000D03*
%TD*%
D43*
%TO.C,R11*%
X216894250Y-69644500D03*
X217914250Y-69644500D03*
%TD*%
D24*
%TO.C,C179*%
X197160000Y-117012500D03*
X200110000Y-117012500D03*
%TD*%
%TO.C,C199*%
X208150000Y-114410000D03*
X211100000Y-114410000D03*
%TD*%
D45*
%TO.C,C52*%
X135790000Y-111540000D03*
X134830000Y-111540000D03*
%TD*%
D43*
%TO.C,R43*%
X180855400Y-122523000D03*
X181875400Y-122523000D03*
%TD*%
D20*
%TO.C,D2*%
X132023900Y-103600000D03*
X129687100Y-103600000D03*
%TD*%
D17*
%TO.C,TP1*%
X134745000Y-69341821D03*
%TD*%
D64*
%TO.C,U5*%
X106010000Y-48000000D03*
X107280000Y-48000000D03*
X108550000Y-48000000D03*
X109820000Y-48000000D03*
X111090000Y-48000000D03*
X112360000Y-48000000D03*
X113630000Y-48000000D03*
X114900000Y-48000000D03*
X116170000Y-48000000D03*
X117440000Y-48000000D03*
X118710000Y-48000000D03*
X119980000Y-48000000D03*
X121250000Y-48000000D03*
X122520000Y-48000000D03*
D65*
X123770000Y-49765000D03*
X123770000Y-51035000D03*
X123770000Y-52305000D03*
X123770000Y-53575000D03*
X123770000Y-54845000D03*
X123770000Y-56115000D03*
X123770000Y-57385000D03*
X123770000Y-58655000D03*
X123770000Y-59925000D03*
X123770000Y-61195000D03*
X123770000Y-62465000D03*
X123770000Y-63735000D03*
D64*
X122520000Y-65500000D03*
X121250000Y-65500000D03*
X119980000Y-65500000D03*
X118710000Y-65500000D03*
X117440000Y-65500000D03*
X116170000Y-65500000D03*
X114900000Y-65500000D03*
X113630000Y-65500000D03*
X112360000Y-65500000D03*
X111090000Y-65500000D03*
X109820000Y-65500000D03*
X108550000Y-65500000D03*
X107280000Y-65500000D03*
X106010000Y-65500000D03*
D66*
X115130000Y-53850000D03*
X113730000Y-53850000D03*
X112330000Y-53850000D03*
X115130000Y-55250000D03*
X113730000Y-55250000D03*
X112330000Y-55250000D03*
X115130000Y-56650000D03*
X113730000Y-56650000D03*
X112330000Y-56650000D03*
%TD*%
D44*
%TO.C,C11*%
X201735000Y-82185000D03*
X201735000Y-83735000D03*
%TD*%
D24*
%TO.C,C172*%
X208150000Y-116795833D03*
X211100000Y-116795833D03*
%TD*%
D22*
%TO.C,C28*%
X190430000Y-77999566D03*
X190430000Y-78959566D03*
%TD*%
D24*
%TO.C,C192*%
X144060000Y-104600000D03*
X147010000Y-104600000D03*
%TD*%
D20*
%TO.C,D4*%
X132013900Y-100350000D03*
X129677100Y-100350000D03*
%TD*%
D30*
%TO.C,C35*%
X185165750Y-91380500D03*
X185165750Y-88430500D03*
%TD*%
D29*
%TO.C,FID7*%
X219002200Y-40005000D03*
%TD*%
D53*
%TO.C,R14*%
X215329250Y-69644500D03*
X214309250Y-69644500D03*
%TD*%
D62*
%TO.C,C5*%
X180585000Y-54056821D03*
X180585000Y-52506821D03*
%TD*%
D45*
%TO.C,C29*%
X186930000Y-72849566D03*
X185970000Y-72849566D03*
%TD*%
D24*
%TO.C,C197*%
X208050000Y-104590000D03*
X211000000Y-104590000D03*
%TD*%
D17*
%TO.C,TP21*%
X138750000Y-125740000D03*
%TD*%
D24*
%TO.C,C198*%
X199050000Y-105600000D03*
X202000000Y-105600000D03*
%TD*%
D28*
%TO.C,C30*%
X205594250Y-70734500D03*
X206554250Y-70734500D03*
%TD*%
D17*
%TO.C,TP2*%
X130820000Y-65980000D03*
%TD*%
D20*
%TO.C,D8*%
X162268400Y-128143000D03*
X159931600Y-128143000D03*
%TD*%
D43*
%TO.C,R35*%
X130735900Y-101985000D03*
X131755900Y-101985000D03*
%TD*%
D23*
%TO.C,R48*%
X196375000Y-104194600D03*
X196375000Y-103174600D03*
%TD*%
D30*
%TO.C,C32*%
X208654250Y-91419500D03*
X208654250Y-88469500D03*
%TD*%
D23*
%TO.C,R29*%
X150856750Y-50030000D03*
X150856750Y-49010000D03*
%TD*%
D24*
%TO.C,C87*%
X127390000Y-112410000D03*
X130340000Y-112410000D03*
%TD*%
D30*
%TO.C,C40*%
X199454250Y-91419500D03*
X199454250Y-88469500D03*
%TD*%
D33*
%TO.C,R15*%
X127430000Y-60530000D03*
X127430000Y-61550000D03*
%TD*%
D63*
%TO.C,C8*%
X178025000Y-78787066D03*
X178025000Y-85012066D03*
%TD*%
D30*
%TO.C,C34*%
X206354250Y-91419500D03*
X206354250Y-88469500D03*
%TD*%
%TO.C,C43*%
X175953250Y-91380500D03*
X175953250Y-88430500D03*
%TD*%
D43*
%TO.C,R44*%
X182875400Y-122508300D03*
X183895400Y-122508300D03*
%TD*%
D28*
%TO.C,C57*%
X205662500Y-131342500D03*
X206622500Y-131342500D03*
%TD*%
D24*
%TO.C,C88*%
X127380000Y-110040000D03*
X130330000Y-110040000D03*
%TD*%
D22*
%TO.C,C18*%
X182410000Y-72530000D03*
X182410000Y-73490000D03*
%TD*%
D24*
%TO.C,C137*%
X179850000Y-114622500D03*
X182800000Y-114622500D03*
%TD*%
D43*
%TO.C,R19*%
X180390000Y-73440000D03*
X181410000Y-73440000D03*
%TD*%
D33*
%TO.C,R3*%
X135370000Y-57440000D03*
X135370000Y-58460000D03*
%TD*%
D43*
%TO.C,R1*%
X185900000Y-50081821D03*
X186920000Y-50081821D03*
%TD*%
D24*
%TO.C,C178*%
X197160000Y-119420000D03*
X200110000Y-119420000D03*
%TD*%
%TO.C,C143*%
X187510000Y-108055000D03*
X190460000Y-108055000D03*
%TD*%
D20*
%TO.C,D7*%
X164778400Y-126563000D03*
X162441600Y-126563000D03*
%TD*%
D43*
%TO.C,R18*%
X199464250Y-75224500D03*
X200484250Y-75224500D03*
%TD*%
D24*
%TO.C,C157*%
X208050000Y-109400000D03*
X211000000Y-109400000D03*
%TD*%
D23*
%TO.C,R50*%
X196670000Y-112840000D03*
X196670000Y-111820000D03*
%TD*%
D22*
%TO.C,C17*%
X201584250Y-74094500D03*
X201584250Y-75054500D03*
%TD*%
D29*
%TO.C,TP8*%
X216444250Y-72184500D03*
%TD*%
D33*
%TO.C,R2*%
X125990000Y-59210000D03*
X125990000Y-60230000D03*
%TD*%
D53*
%TO.C,R33*%
X130915100Y-105179000D03*
X129895100Y-105179000D03*
%TD*%
D23*
%TO.C,R47*%
X196370000Y-106130000D03*
X196370000Y-105110000D03*
%TD*%
D24*
%TO.C,C165*%
X199065000Y-108002500D03*
X202015000Y-108002500D03*
%TD*%
D51*
%TO.C,C25*%
X213579250Y-78369500D03*
X213579250Y-76469500D03*
%TD*%
D28*
%TO.C,C64*%
X118822500Y-123147500D03*
X119782500Y-123147500D03*
%TD*%
D24*
%TO.C,C189*%
X114720000Y-109231083D03*
X117670000Y-109231083D03*
%TD*%
D31*
%TO.C,C65*%
X152740000Y-53250000D03*
X154290000Y-53250000D03*
%TD*%
D29*
%TO.C,FID8*%
X107002200Y-40005000D03*
%TD*%
%TO.C,TP15*%
X205100000Y-123610000D03*
%TD*%
D22*
%TO.C,C24*%
X190420000Y-74649566D03*
X190420000Y-75609566D03*
%TD*%
D20*
%TO.C,D6*%
X162248400Y-125013000D03*
X159911600Y-125013000D03*
%TD*%
D24*
%TO.C,C200*%
X197160000Y-114630000D03*
X200110000Y-114630000D03*
%TD*%
D29*
%TO.C,TP14*%
X114400000Y-128810000D03*
%TD*%
D53*
%TO.C,R45*%
X192364600Y-112847000D03*
X191344600Y-112847000D03*
%TD*%
D21*
%TO.C,C47*%
X101700000Y-129170000D03*
X101700000Y-128210000D03*
%TD*%
D17*
%TO.C,TP22*%
X122290000Y-124820000D03*
%TD*%
D30*
%TO.C,C33*%
X187465750Y-91380500D03*
X187465750Y-88430500D03*
%TD*%
D24*
%TO.C,C144*%
X187510000Y-105682500D03*
X190460000Y-105682500D03*
%TD*%
D17*
%TO.C,TP20*%
X171640000Y-123310000D03*
%TD*%
D43*
%TO.C,R40*%
X157675400Y-124993000D03*
X158695400Y-124993000D03*
%TD*%
D24*
%TO.C,C94*%
X114590000Y-119560000D03*
X117540000Y-119560000D03*
%TD*%
D22*
%TO.C,C48*%
X104000000Y-129210000D03*
X104000000Y-130170000D03*
%TD*%
D67*
%TO.C,U2*%
X166790000Y-72307500D03*
D68*
X166702500Y-73807500D03*
D67*
X166790000Y-75307500D03*
%TD*%
D17*
%TO.C,TP19*%
X209310000Y-128310000D03*
%TD*%
D20*
%TO.C,D3*%
X129393900Y-101980000D03*
X127057100Y-101980000D03*
%TD*%
D29*
%TO.C,TP9*%
X218480000Y-75620000D03*
%TD*%
D47*
%TO.C,SW2*%
X225203000Y-73344500D03*
X225203000Y-77535500D03*
D48*
X227095300Y-72061800D03*
X227095300Y-78818200D03*
%TD*%
D62*
%TO.C,C4*%
X182135000Y-54056821D03*
X182135000Y-52506821D03*
%TD*%
D69*
%TO.C,U13*%
X136715000Y-54270000D03*
X136715000Y-53770000D03*
X136715000Y-53270000D03*
X136715000Y-52770000D03*
X136715000Y-52270000D03*
X140940000Y-52270000D03*
X140940000Y-52770000D03*
X140940000Y-53270000D03*
X140940000Y-53770000D03*
X140940000Y-54270000D03*
%TD*%
M02*
