%TF.GenerationSoftware,KiCad,Pcbnew,9.0.0*%
%TF.CreationDate,2025-06-24T17:18:03-04:00*%
%TF.ProjectId,BitaxeBonanza,42697461-7865-4426-9f6e-616e7a612e6b,1001x*%
%TF.SameCoordinates,Original*%
%TF.FileFunction,Copper,L3,Inr*%
%TF.FilePolarity,Positive*%
%FSLAX46Y46*%
G04 Gerber Fmt 4.6, Leading zero omitted, Abs format (unit mm)*
G04 Created by KiCad (PCBNEW 9.0.0) date 2025-06-24 17:18:03*
%MOMM*%
%LPD*%
G01*
G04 APERTURE LIST*
%TA.AperFunction,ComponentPad*%
%ADD10C,6.000000*%
%TD*%
%TA.AperFunction,ComponentPad*%
%ADD11C,0.800000*%
%TD*%
%TA.AperFunction,ComponentPad*%
%ADD12C,6.400000*%
%TD*%
%TA.AperFunction,ComponentPad*%
%ADD13O,4.000000X1.574800*%
%TD*%
%TA.AperFunction,ComponentPad*%
%ADD14C,1.500000*%
%TD*%
%TA.AperFunction,ComponentPad*%
%ADD15C,1.700000*%
%TD*%
%TA.AperFunction,ComponentPad*%
%ADD16O,1.700000X1.700000*%
%TD*%
%TA.AperFunction,ComponentPad*%
%ADD17C,0.400000*%
%TD*%
%TA.AperFunction,ComponentPad*%
%ADD18O,1.000000X1.800000*%
%TD*%
%TA.AperFunction,ComponentPad*%
%ADD19O,1.000000X2.100000*%
%TD*%
%TA.AperFunction,ViaPad*%
%ADD20C,0.500000*%
%TD*%
%TA.AperFunction,ViaPad*%
%ADD21C,0.600000*%
%TD*%
%TA.AperFunction,ViaPad*%
%ADD22C,0.800000*%
%TD*%
%TA.AperFunction,ViaPad*%
%ADD23C,0.700000*%
%TD*%
%TA.AperFunction,ViaPad*%
%ADD24C,1.000000*%
%TD*%
%TA.AperFunction,Conductor*%
%ADD25C,0.400000*%
%TD*%
%TA.AperFunction,Conductor*%
%ADD26C,0.300000*%
%TD*%
G04 APERTURE END LIST*
D10*
%TO.N,unconnected-(H16-Pad1)*%
%TO.C,H16*%
X171000000Y-87000000D03*
%TO.N,unconnected-(H16-Pad2)*%
X221000000Y-87000000D03*
%TO.N,unconnected-(H16-Pad3)*%
X221000000Y-137000000D03*
%TO.N,unconnected-(H16-Pad4)*%
X171000000Y-137000000D03*
%TD*%
%TO.N,unconnected-(H15-Pad1)*%
%TO.C,H15*%
X106000000Y-87000000D03*
%TO.N,unconnected-(H15-Pad2)*%
X156000000Y-87000000D03*
%TO.N,unconnected-(H15-Pad3)*%
X156000000Y-137000000D03*
%TO.N,unconnected-(H15-Pad4)*%
X106000000Y-137000000D03*
%TD*%
D11*
%TO.N,GND*%
%TO.C,H4*%
X99600000Y-146500000D03*
X100302944Y-144802944D03*
X100302944Y-148197056D03*
X102000000Y-144100000D03*
D12*
X102000000Y-146500000D03*
D11*
X102000000Y-148900000D03*
X103697056Y-144802944D03*
X103697056Y-148197056D03*
X104400000Y-146500000D03*
%TD*%
D13*
%TO.N,GND*%
%TO.C,J7*%
X157570000Y-55750000D03*
%TO.N,/12V*%
X157570000Y-53210000D03*
D14*
%TO.N,/fan/FAN1_TACH*%
X156610000Y-50670000D03*
D13*
X157570000Y-50670000D03*
%TO.N,/fan/FAN1_PWM*%
X157570000Y-48130000D03*
%TD*%
D11*
%TO.N,GND*%
%TO.C,H2*%
X99600000Y-41500000D03*
X100302944Y-39802944D03*
X100302944Y-43197056D03*
X102000000Y-39100000D03*
D12*
X102000000Y-41500000D03*
D11*
X102000000Y-43900000D03*
X103697056Y-39802944D03*
X103697056Y-43197056D03*
X104400000Y-41500000D03*
%TD*%
%TO.N,GND*%
%TO.C,H3*%
X222600000Y-146500000D03*
X223302944Y-144802944D03*
X223302944Y-148197056D03*
X225000000Y-144100000D03*
D12*
X225000000Y-146500000D03*
D11*
X225000000Y-148900000D03*
X226697056Y-144802944D03*
X226697056Y-148197056D03*
X227400000Y-146500000D03*
%TD*%
D13*
%TO.N,GND*%
%TO.C,J8*%
X166540000Y-55750000D03*
%TO.N,/12V*%
X166540000Y-53210000D03*
D14*
%TO.N,/fan/FAN2_TACH*%
X165580000Y-50670000D03*
D13*
X166540000Y-50670000D03*
%TO.N,/fan/FAN2_PWM*%
X166540000Y-48130000D03*
%TD*%
D15*
%TO.N,GND*%
%TO.C,J3*%
X148200000Y-40550000D03*
D16*
%TO.N,/3V3*%
X147800000Y-43090000D03*
%TO.N,/ESP32/SCL*%
X148200000Y-45630000D03*
%TO.N,/ESP32/SDA*%
X147800000Y-48170000D03*
%TD*%
D11*
%TO.N,GND*%
%TO.C,H13*%
X160800000Y-41500000D03*
X161502944Y-39802944D03*
X161502944Y-43197056D03*
X163200000Y-39100000D03*
D12*
X163200000Y-41500000D03*
D11*
X163200000Y-43900000D03*
X164897056Y-39802944D03*
X164897056Y-43197056D03*
X165600000Y-41500000D03*
%TD*%
%TO.N,GND*%
%TO.C,H1*%
X222600000Y-41500000D03*
X223302944Y-39802944D03*
X223302944Y-43197056D03*
X225000000Y-39100000D03*
D12*
X225000000Y-41500000D03*
D11*
X225000000Y-43900000D03*
X226697056Y-39802944D03*
X226697056Y-43197056D03*
X227400000Y-41500000D03*
%TD*%
%TO.N,GND*%
%TO.C,H14*%
X160800000Y-146500000D03*
X161502944Y-144802944D03*
X161502944Y-148197056D03*
X163200000Y-144100000D03*
D12*
X163200000Y-146500000D03*
D11*
X163200000Y-148900000D03*
X164897056Y-144802944D03*
X164897056Y-148197056D03*
X165600000Y-146500000D03*
%TD*%
D17*
%TO.N,GND*%
%TO.C,U4*%
X187830000Y-79249566D03*
X187830000Y-77849566D03*
X187830000Y-76449566D03*
X186550000Y-80249566D03*
X186550000Y-79249566D03*
X186550000Y-77849566D03*
X186550000Y-76449566D03*
X186550000Y-75449566D03*
X185270000Y-79249566D03*
X185270000Y-77849566D03*
X185270000Y-76449566D03*
%TD*%
D18*
%TO.N,GND*%
%TO.C,J5*%
X118030000Y-40885000D03*
D19*
X118030000Y-45065000D03*
D18*
X126670000Y-40885000D03*
D19*
X126670000Y-45065000D03*
%TD*%
D17*
%TO.N,GND*%
%TO.C,U3*%
X208584250Y-79144500D03*
X208584250Y-77744500D03*
X208584250Y-76344500D03*
X207304250Y-80144500D03*
X207304250Y-79144500D03*
X207304250Y-77744500D03*
X207304250Y-76344500D03*
X207304250Y-75344500D03*
X206024250Y-79144500D03*
X206024250Y-77744500D03*
X206024250Y-76344500D03*
%TD*%
D20*
%TO.N,GND*%
X130910000Y-45180000D03*
%TO.N,/ASIC/GND3*%
X200900000Y-108740000D03*
X200900000Y-107410000D03*
X200900000Y-104960000D03*
X200910000Y-106090000D03*
X188950000Y-106260000D03*
X188940000Y-108910000D03*
X188940000Y-107580000D03*
X188940000Y-104960000D03*
X189600000Y-105670000D03*
X189590000Y-106990000D03*
X189590000Y-108320000D03*
%TO.N,/ASIC/GND2*%
X184900000Y-108270000D03*
X184890000Y-105700000D03*
X184860000Y-106990000D03*
%TO.N,Net-(A6-REFCLKOUT1)*%
X187853599Y-112409558D03*
%TO.N,GND*%
X101810000Y-77490000D03*
%TO.N,/3V3*%
X135370000Y-61440000D03*
X136580000Y-60780000D03*
%TO.N,GND*%
X172920000Y-51600000D03*
%TO.N,/12V*%
X173070000Y-53210000D03*
%TO.N,GND*%
X152750000Y-53250000D03*
%TO.N,/5V*%
X146470000Y-69360000D03*
X150856750Y-53750000D03*
%TO.N,/3V3*%
X144230000Y-53530000D03*
X144200000Y-51760000D03*
X134835750Y-53270000D03*
%TO.N,/ESP32/SCL*%
X121347698Y-57678556D03*
%TO.N,/ESP32/SDA*%
X122000000Y-57690000D03*
%TO.N,/12V*%
X208394889Y-49451750D03*
X203900000Y-79410000D03*
X199294250Y-77544500D03*
X204764889Y-57626750D03*
X204744889Y-46584250D03*
X207474889Y-48696750D03*
X209314889Y-56570500D03*
X209294889Y-47640500D03*
X208364889Y-44471750D03*
X209304889Y-52620500D03*
X199294250Y-78144500D03*
X209304889Y-51564250D03*
X206584889Y-55514250D03*
X198654250Y-78744500D03*
X208384889Y-48696750D03*
X204744889Y-48696750D03*
X209294889Y-46584250D03*
X198654250Y-78144500D03*
X208404889Y-56570500D03*
X207474889Y-46584250D03*
X203900000Y-80610000D03*
X197424250Y-78144500D03*
X209304889Y-50508000D03*
X205634889Y-44471750D03*
X207494889Y-55514250D03*
X204764889Y-56570500D03*
X206584889Y-57626750D03*
X206564889Y-48696750D03*
X207494889Y-54458000D03*
X209304889Y-49451750D03*
X209294889Y-45528000D03*
X208384889Y-46584250D03*
X208404889Y-55514250D03*
X204744889Y-53401750D03*
X209314889Y-57626750D03*
X183120000Y-78810000D03*
X198654250Y-79344500D03*
X208394889Y-52620500D03*
X197424250Y-77544500D03*
X204724889Y-44471750D03*
X177140000Y-79059566D03*
X203900000Y-80010000D03*
X177750000Y-78449566D03*
X198054250Y-79344500D03*
X199294250Y-79344500D03*
X205654889Y-47640500D03*
X208404889Y-57626750D03*
X177750000Y-77849566D03*
X178942500Y-79059566D03*
X178942500Y-78459566D03*
X178350000Y-78449566D03*
X207474889Y-47640500D03*
X206564889Y-47640500D03*
X178942500Y-77859566D03*
X177750000Y-79049566D03*
X209294889Y-53401750D03*
X207494889Y-57626750D03*
X178350000Y-79649566D03*
X207494889Y-56570500D03*
X205674889Y-56570500D03*
X178350000Y-77849566D03*
X177140000Y-77859566D03*
X208394889Y-50508000D03*
X209294889Y-48696750D03*
X198654250Y-77544500D03*
X198054250Y-78744500D03*
X206584889Y-54458000D03*
X198054250Y-77544500D03*
X208404889Y-54458000D03*
X205654889Y-53401750D03*
X206584889Y-56570500D03*
X204744889Y-47640500D03*
X183120000Y-80610000D03*
X183120000Y-79410000D03*
X177140000Y-79659566D03*
X205654889Y-48696750D03*
X198054250Y-78144500D03*
X208384889Y-53401750D03*
X205674889Y-54458000D03*
X208384889Y-45528000D03*
X206564889Y-46584250D03*
X207454889Y-44471750D03*
X209274889Y-44471750D03*
X207474889Y-45528000D03*
X204764889Y-54458000D03*
X205654889Y-45528000D03*
X204764889Y-55514250D03*
X178942500Y-79659566D03*
X199294250Y-78744500D03*
X197424250Y-79344500D03*
X206564889Y-53401750D03*
X183120000Y-80010000D03*
X205674889Y-55514250D03*
X178350000Y-79049566D03*
X207474889Y-53401750D03*
X177750000Y-79649566D03*
X205654889Y-46584250D03*
X205674889Y-57626750D03*
X209314889Y-54458000D03*
X206544889Y-44471750D03*
X206564889Y-45528000D03*
X197424250Y-78744500D03*
X209314889Y-55514250D03*
X208384889Y-47640500D03*
X204744889Y-45528000D03*
X208394889Y-51564250D03*
X203900000Y-78810000D03*
X177140000Y-78459566D03*
%TO.N,/Power/AGND1*%
X213410000Y-69379200D03*
X210390000Y-69540000D03*
D21*
%TO.N,/Vcore*%
X202158500Y-90789000D03*
D20*
X205570000Y-106360000D03*
D21*
X199058500Y-90789000D03*
D20*
X205620000Y-118990000D03*
D21*
X185520000Y-91550000D03*
D20*
X206810000Y-109000000D03*
D21*
X187870000Y-90850000D03*
X208338500Y-90789000D03*
X192750000Y-91850000D03*
D20*
X206190000Y-117010000D03*
D21*
X212990000Y-91480000D03*
D20*
X213530000Y-107580000D03*
X213490000Y-104940000D03*
D21*
X199758500Y-90789000D03*
X214590000Y-90680000D03*
X213790000Y-93130000D03*
X180882500Y-91550000D03*
X182570000Y-90850000D03*
D20*
X213560000Y-119010000D03*
D21*
X212990000Y-92330000D03*
X182570000Y-91550000D03*
D20*
X205590000Y-107680000D03*
D21*
X214590000Y-92330000D03*
X204458500Y-90789000D03*
X208338500Y-91489000D03*
X191150000Y-91850000D03*
X191962500Y-91040000D03*
D20*
X212360000Y-119010000D03*
D21*
X191950000Y-91850000D03*
X208338500Y-90089000D03*
D20*
X195908500Y-90464000D03*
X212300000Y-115050000D03*
D21*
X178582500Y-90150000D03*
X184820000Y-90850000D03*
X213790000Y-90680000D03*
D20*
X212330000Y-107580000D03*
D21*
X185520000Y-90150000D03*
D20*
X212960000Y-108240000D03*
X212920000Y-105600000D03*
D21*
X213790000Y-91480000D03*
X212190000Y-93130000D03*
X175620000Y-90150000D03*
X108560000Y-65510000D03*
X187170000Y-91550000D03*
X205958500Y-90089000D03*
X199058500Y-91489000D03*
D20*
X212930000Y-115710000D03*
D21*
X212990000Y-93130000D03*
X212190000Y-92330000D03*
X180172500Y-91570000D03*
X197458500Y-91514000D03*
D20*
X205580000Y-116350000D03*
X212310000Y-106260000D03*
D21*
X180172500Y-90170000D03*
X202158500Y-90089000D03*
X178582500Y-91550000D03*
D20*
X213510000Y-106260000D03*
D21*
X197458500Y-90114000D03*
D20*
X212940000Y-106920000D03*
X206200000Y-107020000D03*
X212290000Y-104940000D03*
D21*
X197458500Y-90814000D03*
D20*
X206180000Y-105700000D03*
X206820000Y-118990000D03*
D21*
X196758500Y-90814000D03*
X185520000Y-90850000D03*
D20*
X206770000Y-106360000D03*
D21*
X180172500Y-90870000D03*
X175620000Y-90850000D03*
X184820000Y-91550000D03*
X184820000Y-90150000D03*
D20*
X206210000Y-118330000D03*
X212970000Y-118350000D03*
X206170000Y-115690000D03*
D21*
X176320000Y-90150000D03*
D20*
X206780000Y-116350000D03*
D21*
X204458500Y-91489000D03*
X183270000Y-90850000D03*
X203758500Y-90089000D03*
X192750000Y-93350000D03*
X191950000Y-92600000D03*
X180882500Y-90850000D03*
X203758500Y-91489000D03*
X201458500Y-90789000D03*
X177882500Y-91550000D03*
X182570000Y-90150000D03*
X204458500Y-90089000D03*
X180882500Y-90150000D03*
X193550000Y-91850000D03*
D20*
X225605750Y-102975500D03*
D21*
X196758500Y-91514000D03*
X199058500Y-90089000D03*
D20*
X213540000Y-117690000D03*
X205550000Y-105040000D03*
D21*
X177882500Y-90150000D03*
X212190000Y-91480000D03*
X183270000Y-90150000D03*
D20*
X206760000Y-115030000D03*
D21*
X193562500Y-91040000D03*
D20*
X205600000Y-117670000D03*
D21*
X178582500Y-90850000D03*
X201458500Y-91489000D03*
X213790000Y-92330000D03*
X205958500Y-91489000D03*
X209038500Y-91489000D03*
X187170000Y-90850000D03*
X183270000Y-91550000D03*
D20*
X206750000Y-105040000D03*
D21*
X192762500Y-91040000D03*
D20*
X125590000Y-64816906D03*
D21*
X193550000Y-92600000D03*
X209038500Y-90789000D03*
D20*
X213500000Y-115050000D03*
X205610000Y-109000000D03*
D21*
X191162500Y-91040000D03*
X191950000Y-93350000D03*
X187170000Y-90150000D03*
D20*
X205550000Y-73420000D03*
X212320000Y-116370000D03*
X213550000Y-108900000D03*
D21*
X196758500Y-90114000D03*
X214590000Y-93130000D03*
X209038500Y-90089000D03*
X199758500Y-90089000D03*
X202158500Y-91489000D03*
X203758500Y-90789000D03*
D20*
X212950000Y-117030000D03*
D21*
X212990000Y-90680000D03*
X199758500Y-91489000D03*
X206658500Y-90089000D03*
X176320000Y-90850000D03*
X205958500Y-90789000D03*
D20*
X206800000Y-117670000D03*
D21*
X187870000Y-90150000D03*
X175620000Y-91550000D03*
D20*
X212350000Y-108900000D03*
D21*
X206658500Y-90789000D03*
D20*
X206790000Y-107680000D03*
X212340000Y-117690000D03*
D21*
X212190000Y-90680000D03*
D20*
X206220000Y-108340000D03*
D21*
X176320000Y-91550000D03*
X206658500Y-91489000D03*
X201458500Y-90089000D03*
X191150000Y-93350000D03*
X192750000Y-92600000D03*
D20*
X205560000Y-115030000D03*
D21*
X191150000Y-92600000D03*
X187870000Y-91550000D03*
X177882500Y-90850000D03*
X193550000Y-93350000D03*
D20*
X213520000Y-116370000D03*
D21*
X214590000Y-91480000D03*
D20*
%TO.N,/Power/VSHARE*%
X185970000Y-72830000D03*
X206634250Y-72687600D03*
%TO.N,/Power/EN_UVLO*%
X181347600Y-74220000D03*
X200574250Y-72574500D03*
%TO.N,/5V*%
X175802500Y-124072500D03*
X150856750Y-49010000D03*
X166790000Y-71600000D03*
X166780000Y-70930000D03*
X206610000Y-129860000D03*
X166790000Y-72307500D03*
X136380000Y-126980000D03*
X166790000Y-70180000D03*
X119690000Y-126970000D03*
X134770000Y-69370000D03*
%TO.N,/ASIC/1V2*%
X113450000Y-123900000D03*
X119880000Y-120980000D03*
X108762550Y-123912550D03*
X107530000Y-123298200D03*
X102937527Y-124508008D03*
X119690000Y-124700000D03*
D22*
%TO.N,/3V3*%
X178650000Y-56010000D03*
D20*
X140620000Y-62770000D03*
D22*
X178650000Y-56910000D03*
X178670000Y-54260000D03*
X179550000Y-56010000D03*
X179550000Y-55160000D03*
X177780000Y-56940000D03*
X115040000Y-69870000D03*
D20*
X107805251Y-77095251D03*
D22*
X177790000Y-56000000D03*
D20*
X125990000Y-62790000D03*
D23*
X113330000Y-40800000D03*
D20*
X104047597Y-125500000D03*
X185960000Y-50881821D03*
D22*
X177780000Y-54230000D03*
X179570000Y-54260000D03*
X179550000Y-56910000D03*
D20*
X107425000Y-46150000D03*
D22*
X177760000Y-55130000D03*
X178650000Y-55160000D03*
D20*
%TO.N,/Power/PGOOD*%
X133327768Y-66427768D03*
X213951300Y-65918199D03*
%TO.N,/ASIC/GND1*%
X137480000Y-117050000D03*
X130350000Y-117645000D03*
X138130000Y-115080000D03*
X136900000Y-118940000D03*
X138680000Y-107070000D03*
X135000000Y-103160000D03*
X136870000Y-106370000D03*
X136240000Y-105690000D03*
X132775000Y-117158833D03*
X124480000Y-115660000D03*
X125050000Y-106350000D03*
X139330000Y-117730000D03*
X132785000Y-120103833D03*
X138650000Y-108250000D03*
X138670000Y-118300000D03*
X137450000Y-118300000D03*
X127320000Y-103620000D03*
X130340000Y-110035000D03*
X124420000Y-108320000D03*
X137520000Y-105690000D03*
X132775000Y-117723833D03*
X139350000Y-115110000D03*
X138070000Y-108940000D03*
X139290000Y-108970000D03*
X132805000Y-114203833D03*
X138730000Y-105690000D03*
X137500000Y-115690000D03*
X138700000Y-117050000D03*
X132805000Y-114768833D03*
X139350000Y-118970000D03*
X138090000Y-107670000D03*
X138100000Y-106370000D03*
X130360000Y-120025000D03*
X136860000Y-107670000D03*
X132805000Y-115333833D03*
X123810000Y-107650000D03*
X130380000Y-115820000D03*
X125060000Y-117680000D03*
X124480000Y-118270000D03*
X138110000Y-117700000D03*
X137430000Y-108250000D03*
X123830000Y-105030000D03*
X123840000Y-116380000D03*
X123840000Y-118990000D03*
X136880000Y-117700000D03*
X130350000Y-117080000D03*
X132785000Y-119538833D03*
X130360000Y-120590000D03*
X123820000Y-106350000D03*
X138720000Y-115690000D03*
X124470000Y-105690000D03*
X137460000Y-107070000D03*
X124420000Y-107000000D03*
X125060000Y-105030000D03*
X125040000Y-107650000D03*
X132785000Y-118973833D03*
X123830000Y-117680000D03*
X138130000Y-118940000D03*
X139340000Y-116430000D03*
X130370000Y-108210000D03*
X132775000Y-116593833D03*
X139310000Y-107700000D03*
X125080000Y-115060000D03*
X125040000Y-108970000D03*
X136890000Y-116400000D03*
X130360000Y-119460000D03*
X124470000Y-116960000D03*
X123810000Y-108970000D03*
X130380000Y-115255000D03*
X139320000Y-106400000D03*
X139330000Y-105080000D03*
X123850000Y-115060000D03*
X125070000Y-118990000D03*
X130370000Y-107645000D03*
X130350000Y-118210000D03*
X130340000Y-109470000D03*
X136900000Y-115080000D03*
X125070000Y-116380000D03*
X130340000Y-110600000D03*
X136840000Y-108940000D03*
X130370000Y-107080000D03*
X138120000Y-116400000D03*
X130380000Y-114690000D03*
%TO.N,/Power/BCX_DAT*%
X189074888Y-71804611D03*
X221670000Y-75580000D03*
X210504250Y-70744500D03*
%TO.N,/Power/BCX_CLK*%
X221670000Y-78710000D03*
X209734250Y-70744499D03*
X189050949Y-72528549D03*
%TO.N,/Power/SYNC*%
X187447889Y-73425489D03*
X218480000Y-75620000D03*
X209034352Y-70756567D03*
%TO.N,/ESP32/SDA*%
X134037500Y-54627651D03*
%TO.N,/ESP32/SCL*%
X133730886Y-54051789D03*
%TO.N,/ASIC/RX_1V2*%
X109618250Y-123056850D03*
%TO.N,/ASIC/CLKI*%
X119230000Y-120170000D03*
%TO.N,/ASIC/RST_1V2*%
X104970000Y-121990000D03*
%TO.N,/ASIC/TX_1V2*%
X105637964Y-122049379D03*
%TO.N,/ASIC/bypass1-1/out*%
X126330000Y-119330000D03*
%TO.N,/ASIC/RST_3V3*%
X115120000Y-68790000D03*
X104698999Y-126896596D03*
%TO.N,/ASIC/TX_3V3*%
X117700000Y-62100000D03*
X105260000Y-128150000D03*
%TO.N,Net-(U4-AVIN)*%
X181187744Y-74852515D03*
X182430000Y-73510000D03*
%TO.N,/ASIC/REFCLKOUT1*%
X124800000Y-120160000D03*
%TO.N,/ASIC/bypass2-1/out*%
X126380000Y-109340000D03*
%TO.N,/ASIC/TRIP_1V2*%
X107860000Y-122340000D03*
%TO.N,/ASIC/shifter2-3/TX_IN*%
X121067096Y-103873493D03*
%TO.N,/ASIC/shifter2-3/TRIP_IN*%
X120414902Y-103890000D03*
%TO.N,/ASIC/shifter2-3/RX_OUT*%
X122371776Y-103877471D03*
%TO.N,/ASIC/shifter2-3/RESET_OUT*%
X121719409Y-103884296D03*
%TO.N,/ASIC/bypass2-2/in*%
X121980000Y-102630000D03*
%TO.N,/ASIC/REFCLKIN1*%
X135940000Y-110160000D03*
%TO.N,/ASIC/bypass3-1/out*%
X142990000Y-109340000D03*
%TO.N,/ASIC/shifter2-3/TX_OUT*%
X138399499Y-103877118D03*
%TO.N,/ASIC/shifter2-3/TRIP_OUT*%
X139051887Y-103881589D03*
%TO.N,/ASIC/shifter2-3/RESET_IN*%
X137747140Y-103884654D03*
%TO.N,/ASIC/bypass3-2/in*%
X140860000Y-103190000D03*
%TO.N,/ASIC/shifter2-3/RX_IN*%
X137094902Y-103870000D03*
%TO.N,/ASIC/REFCLKOUT2*%
X141450000Y-110130000D03*
X181400000Y-123500000D03*
X144230000Y-122460000D03*
%TO.N,/ASIC/shifter4-5/TX_IN*%
X138419505Y-120152360D03*
%TO.N,/ASIC/bypass4-2/in*%
X140865000Y-113880000D03*
%TO.N,/ASIC/shifter4-5/RX_OUT*%
X137114902Y-120160000D03*
%TO.N,/ASIC/shifter4-5/RESET_OUT*%
X137767140Y-120145346D03*
%TO.N,/ASIC/shifter4-5/TRIP_IN*%
X139071901Y-120149458D03*
%TO.N,/ASIC/bypass4-1/out*%
X143024500Y-119330000D03*
%TO.N,/ASIC/shifter4-5/TRIP_OUT*%
X185469902Y-120150000D03*
%TO.N,/ASIC/shifter4-5/RX_IN*%
X187426962Y-120139808D03*
%TO.N,/ASIC/shifter4-5/TX_OUT*%
X186122169Y-120136691D03*
%TO.N,/ASIC/bypass5-1/out*%
X191180000Y-119350000D03*
D21*
%TO.N,/Power/SW1*%
X212410000Y-85210000D03*
X212410000Y-83810000D03*
X212410000Y-86810000D03*
X214760000Y-84510000D03*
X212410000Y-81510000D03*
X214010000Y-83810000D03*
X212410000Y-86010000D03*
X214010000Y-86810000D03*
X214010000Y-85210000D03*
X210790000Y-82048000D03*
X210790000Y-80384000D03*
X213210000Y-86810000D03*
X213210000Y-84510000D03*
X214010000Y-82310000D03*
X214010000Y-83110000D03*
X214760000Y-82310000D03*
X214010000Y-81510000D03*
X213504250Y-79784500D03*
X214760000Y-83810000D03*
X213210000Y-82310000D03*
X210790000Y-79552000D03*
X212410000Y-84510000D03*
X210790000Y-81216000D03*
X210790000Y-82880000D03*
X214029250Y-78919500D03*
X214760000Y-83110000D03*
X213210000Y-81510000D03*
X214010000Y-84510000D03*
X214760000Y-86010000D03*
X214760000Y-85210000D03*
X213229250Y-78919500D03*
X213210000Y-83810000D03*
X214010000Y-86010000D03*
X213210000Y-85210000D03*
X212410000Y-83110000D03*
X213210000Y-83110000D03*
X213210000Y-86010000D03*
X210790000Y-78720000D03*
X212410000Y-82310000D03*
X214760000Y-81510000D03*
X214760000Y-86810000D03*
D20*
%TO.N,/ASIC/shifter4-5/RESET_IN*%
X186774560Y-120140561D03*
%TO.N,/ASIC/REFCLKOUT3*%
X189830000Y-120662400D03*
%TO.N,/ASIC/REFCLKIN2*%
X184280000Y-120150000D03*
%TO.N,/ASIC/bypass5-2/in*%
X189230000Y-113880000D03*
%TO.N,/ASIC/bypass6-1/out*%
X191410000Y-109370000D03*
D21*
%TO.N,/Power/SW2*%
X191135750Y-85220500D03*
X192735750Y-83820500D03*
X191630000Y-79270000D03*
X189990000Y-81360000D03*
X189990000Y-82210000D03*
X192735750Y-86020500D03*
X192330000Y-79270000D03*
X191935750Y-82320500D03*
X191935750Y-83120500D03*
X192735750Y-85220500D03*
X191935750Y-83820500D03*
X193485750Y-86020500D03*
X192735750Y-82320500D03*
X192735750Y-84520500D03*
X191135750Y-86820500D03*
X193485750Y-82320500D03*
X193485750Y-81520500D03*
X193485750Y-83120500D03*
X192735750Y-81520500D03*
X193485750Y-83820500D03*
X193485750Y-84520500D03*
X191580000Y-80000000D03*
X191135750Y-82320500D03*
X189990000Y-80535000D03*
X191935750Y-85220500D03*
X192330000Y-80000000D03*
X189990000Y-79710000D03*
X189990000Y-83010000D03*
X193485750Y-85220500D03*
X192735750Y-86820500D03*
X191135750Y-86020500D03*
X191935750Y-81520500D03*
X191935750Y-84520500D03*
X192735750Y-83120500D03*
X191135750Y-83120500D03*
X191135750Y-83820500D03*
X191935750Y-86020500D03*
X191935750Y-86820500D03*
X189990000Y-78885000D03*
X193485750Y-86820500D03*
X191135750Y-81520500D03*
X191135750Y-84520500D03*
D20*
%TO.N,/ASIC/shifter6-7/TRIP_IN*%
X185489902Y-103880000D03*
%TO.N,/ASIC/bypass1-2/in*%
X124189500Y-113880000D03*
%TO.N,Net-(A2-REFCLKOUT1)*%
X124790000Y-110190000D03*
%TO.N,Net-(A2-REFCLKOUT2)*%
X119170000Y-102450000D03*
%TO.N,/ASIC/shifter6-7/RX_OUT*%
X187450000Y-103270000D03*
%TO.N,/ASIC/shifter6-7/TX_IN*%
X186141904Y-103857127D03*
%TO.N,/ASIC/shifter6-7/RESET_OUT*%
X186728930Y-103572470D03*
%TO.N,/ASIC/bypass6-2/in*%
X184350000Y-102780000D03*
%TO.N,/ASIC/bypass7-1/out*%
X208050500Y-109330000D03*
%TO.N,/ASIC/REFCLKIN3*%
X200970000Y-110345000D03*
%TO.N,/ASIC/shifter6-7/TRIP_OUT*%
X204105098Y-103869367D03*
%TO.N,/ASIC/shifter6-7/TX_OUT*%
X203445211Y-103852411D03*
%TO.N,/ASIC/shifter6-7/RESET_IN*%
X202810000Y-103561400D03*
%TO.N,/ASIC/bypass7-2/in*%
X205910000Y-103870000D03*
%TO.N,/ASIC/shifter6-7/RX_IN*%
X202159067Y-103241400D03*
%TO.N,/ASIC/bypass8-2/in*%
X205900000Y-113880000D03*
%TO.N,/ASIC/bypass8-1/out*%
X208080000Y-119340000D03*
%TO.N,/Power/SCL_VR*%
X166941032Y-64108336D03*
X217124260Y-64177704D03*
%TO.N,/Power/ALRT_VR*%
X217730000Y-64420000D03*
X132825368Y-65230000D03*
%TO.N,/Power/SDA_VR*%
X166910000Y-64760000D03*
X215672296Y-64877204D03*
%TO.N,GND*%
X114720000Y-109900000D03*
X122580000Y-107660000D03*
X201048810Y-44433058D03*
X114620000Y-114070000D03*
X201978810Y-53363058D03*
X201030000Y-42423750D03*
X202910000Y-84210000D03*
X199754250Y-88069500D03*
X157248179Y-74753179D03*
X180268250Y-86850500D03*
X178972500Y-84709566D03*
X105875000Y-46150000D03*
X206054250Y-87469500D03*
X122590000Y-108980000D03*
X187765750Y-86830500D03*
X197418810Y-50495558D03*
X197410000Y-43480000D03*
X201978810Y-48658058D03*
X122040000Y-115690000D03*
D22*
X187710000Y-47881821D03*
D20*
X187165750Y-88030500D03*
X120280000Y-116400000D03*
X148760000Y-53713250D03*
X178972500Y-85909566D03*
X199248810Y-48658058D03*
X178972500Y-85309566D03*
X182970000Y-84810000D03*
X200138810Y-45489308D03*
X182565750Y-86830500D03*
X120260000Y-119020000D03*
X121420000Y-117690000D03*
X204354250Y-88069500D03*
X157248179Y-72753179D03*
X200158810Y-54419308D03*
X114600000Y-114660000D03*
X156248179Y-72753179D03*
X158248179Y-72753179D03*
X158248179Y-71753179D03*
X121430000Y-119010000D03*
X197418810Y-51551808D03*
X180845000Y-84835000D03*
X199228810Y-44433058D03*
X120190000Y-109010000D03*
X203754250Y-88069500D03*
D23*
X115140000Y-53850000D03*
D20*
X199154250Y-86869500D03*
X121360000Y-109000000D03*
X197428810Y-53363058D03*
X208934250Y-87469500D03*
X114690000Y-107450000D03*
X156248179Y-70753179D03*
D22*
X182135000Y-52506821D03*
D20*
X184915750Y-88030500D03*
D23*
X112330000Y-56650000D03*
D20*
X199230000Y-43480000D03*
X118180000Y-102450000D03*
X183165750Y-87430500D03*
X178578250Y-87430500D03*
X182970000Y-84260000D03*
X197408810Y-47601808D03*
X197408810Y-44433058D03*
X182565750Y-87430500D03*
X204354250Y-86869500D03*
X204354250Y-87469500D03*
X158248179Y-74753179D03*
X198318810Y-47601808D03*
X120200000Y-105070000D03*
X159248179Y-73753179D03*
X114600000Y-115290000D03*
X184915750Y-87430500D03*
X178350000Y-85899566D03*
X202054250Y-87469500D03*
X118601906Y-123138094D03*
X102931721Y-123661891D03*
X185515750Y-88030500D03*
X197954250Y-84394500D03*
X159248179Y-70753179D03*
X197454250Y-87494500D03*
X103650000Y-74270000D03*
X197954250Y-83794500D03*
X177750000Y-84699566D03*
X114740000Y-108680000D03*
X199210000Y-42423750D03*
X208334250Y-87469500D03*
X121450000Y-116390000D03*
X187165750Y-86830500D03*
X175615750Y-87430500D03*
X114580000Y-117710000D03*
X177750000Y-85899566D03*
X185515750Y-86830500D03*
X122040000Y-108310000D03*
X201068810Y-54419308D03*
X158248179Y-70753179D03*
X200140000Y-43480000D03*
X178350000Y-84699566D03*
X201068810Y-48658058D03*
X182565750Y-88030500D03*
X199154250Y-88069500D03*
X122670000Y-115050000D03*
X198328810Y-51551808D03*
X180268250Y-87450500D03*
X222320000Y-91870000D03*
X178350000Y-84099566D03*
X158248179Y-75753179D03*
X202010000Y-84260000D03*
X114690000Y-106820000D03*
D23*
X115140000Y-56650000D03*
D20*
X114730000Y-103810000D03*
X114610000Y-119530000D03*
X183165750Y-86830500D03*
X159248179Y-74753179D03*
X157248179Y-76753179D03*
X197454250Y-86894500D03*
D23*
X113740000Y-55250000D03*
D20*
X156248179Y-71753179D03*
X150880000Y-46950000D03*
X197408810Y-45489308D03*
X200574250Y-71614500D03*
X177750000Y-84099566D03*
X180878250Y-87430500D03*
X182370000Y-84810000D03*
D23*
X113740000Y-53850000D03*
D20*
X176215750Y-88030500D03*
X114710000Y-105030000D03*
X121350000Y-107680000D03*
X201960000Y-43480000D03*
X197954250Y-85594500D03*
X207635250Y-71764500D03*
X159248179Y-72753179D03*
X202054250Y-88069500D03*
X114720000Y-109270000D03*
X156248179Y-73753179D03*
X156248179Y-75753179D03*
X197954250Y-84994500D03*
X120820000Y-106950000D03*
X181445000Y-84835000D03*
D23*
X112030000Y-40800000D03*
D20*
X114610000Y-120160000D03*
X120850000Y-105650000D03*
X198318810Y-45489308D03*
X178578250Y-86830500D03*
X201068810Y-53363058D03*
X114630000Y-118940000D03*
X122010000Y-116990000D03*
D24*
X106000000Y-67400000D03*
D20*
X199228810Y-46545558D03*
X185515750Y-87430500D03*
X197418810Y-49439308D03*
X197454250Y-88094500D03*
X182370000Y-84260000D03*
X121380000Y-106380000D03*
X122030000Y-106990000D03*
X199248810Y-54419308D03*
X201048810Y-46545558D03*
X158248179Y-73753179D03*
X199248810Y-53363058D03*
X120270000Y-115080000D03*
X201454250Y-87469500D03*
X114600000Y-116490000D03*
X120250000Y-117700000D03*
D22*
X180620000Y-52530000D03*
X185010000Y-47881821D03*
D20*
X203510000Y-84210000D03*
X182412568Y-74490434D03*
X114710000Y-104400000D03*
X198554250Y-84994500D03*
X203510000Y-84760000D03*
D23*
X113740000Y-56650000D03*
D20*
X206054250Y-88069500D03*
X134827500Y-52301750D03*
X181445000Y-84285000D03*
X176215750Y-87430500D03*
X206654250Y-87469500D03*
X118742500Y-127007500D03*
X180845000Y-84285000D03*
X225203000Y-77535500D03*
X157248179Y-75753179D03*
X114350000Y-125060000D03*
X177120000Y-84099566D03*
X199754250Y-86869500D03*
X203754250Y-87469500D03*
X202054250Y-86869500D03*
X200158810Y-53363058D03*
X200138810Y-46545558D03*
X121440000Y-115070000D03*
X201050000Y-43480000D03*
X200120000Y-42423750D03*
X176215750Y-86830500D03*
X197428810Y-48658058D03*
X157248179Y-70753179D03*
X202010000Y-84810000D03*
X104070000Y-122460000D03*
X177120000Y-85899566D03*
X187765750Y-88030500D03*
X206654250Y-86869500D03*
X199228810Y-47601808D03*
X156248179Y-74753179D03*
X178972500Y-84109566D03*
X201958810Y-45489308D03*
D22*
X188535000Y-50606821D03*
D20*
X198554250Y-85594500D03*
X199228810Y-45489308D03*
X201410000Y-84260000D03*
X177120000Y-85299566D03*
X114710000Y-106230000D03*
X177120000Y-84699566D03*
X198554250Y-83794500D03*
X120880000Y-115660000D03*
X122020000Y-118310000D03*
D23*
X115140000Y-55250000D03*
D20*
X197408810Y-46545558D03*
X198320000Y-43480000D03*
X208934250Y-88069500D03*
X197428810Y-54419308D03*
X196854250Y-86894500D03*
X201978810Y-54419308D03*
X202910000Y-84760000D03*
X200158810Y-48658058D03*
X178350000Y-85299566D03*
X120860000Y-118280000D03*
D23*
X112330000Y-53850000D03*
D20*
X196854250Y-87494500D03*
X180878250Y-88030500D03*
X177978250Y-87430500D03*
X198338810Y-53363058D03*
X122680000Y-116370000D03*
X206654250Y-88069500D03*
X177978250Y-88030500D03*
X201584250Y-74113500D03*
X197418810Y-52608058D03*
X158248179Y-76753179D03*
X122650000Y-117670000D03*
X201958810Y-47601808D03*
X177750000Y-85299566D03*
X180268250Y-88050500D03*
X157248179Y-71753179D03*
X159248179Y-76753179D03*
X187165750Y-87430500D03*
X198318810Y-44433058D03*
X201958810Y-46545558D03*
X159248179Y-71753179D03*
X206054250Y-86869500D03*
X120850000Y-116960000D03*
X201940000Y-42423750D03*
X198328810Y-50495558D03*
X156248179Y-76753179D03*
X120210000Y-106390000D03*
X198338810Y-54419308D03*
X214854250Y-73274500D03*
X120180000Y-107690000D03*
X175615750Y-86830500D03*
D22*
X182210000Y-47856821D03*
D20*
X120830000Y-108270000D03*
X208334250Y-86869500D03*
X198554250Y-84394500D03*
X101690000Y-128210000D03*
X107120000Y-126640000D03*
X103990000Y-130170000D03*
X114580000Y-117080000D03*
X199754250Y-87469500D03*
X201048810Y-45489308D03*
X201410000Y-84810000D03*
X187765750Y-87430500D03*
X122610000Y-106360000D03*
X208934250Y-86869500D03*
X184915750Y-86830500D03*
X146240000Y-62770000D03*
X198328810Y-52608058D03*
X175615750Y-88030500D03*
X177978250Y-86830500D03*
X208334250Y-88069500D03*
X203754250Y-86869500D03*
X201454250Y-86869500D03*
D23*
X112330000Y-55250000D03*
D20*
X201958810Y-44433058D03*
X196854250Y-88094500D03*
X122660000Y-118990000D03*
X199154250Y-87469500D03*
D22*
X182385000Y-50131821D03*
D20*
X183165750Y-88030500D03*
X157248179Y-73753179D03*
X191980000Y-73893316D03*
X201048810Y-47601808D03*
X198328810Y-49439308D03*
X178578250Y-88030500D03*
X198338810Y-48658058D03*
X200138810Y-47601808D03*
X180878250Y-86830500D03*
X201454250Y-88069500D03*
X200138810Y-44433058D03*
X159248179Y-75753179D03*
X198318810Y-46545558D03*
X130905000Y-43758250D03*
%TO.N,/Power/BP1v5_2*%
X183849000Y-72799566D03*
X190440000Y-74649566D03*
%TO.N,/ASIC/GND2*%
X140530000Y-108990000D03*
X186420000Y-105020000D03*
X185290000Y-119010000D03*
X179820000Y-109090000D03*
X185840000Y-106960000D03*
X185310000Y-115060000D03*
X186430000Y-107650000D03*
X186520000Y-117700000D03*
X186510000Y-115070000D03*
X185420000Y-108960000D03*
X141750000Y-116370000D03*
X179820000Y-109980000D03*
X179820000Y-115060000D03*
X185320000Y-117690000D03*
X179840000Y-106650000D03*
X186480000Y-116390000D03*
X147100000Y-117510000D03*
X187720000Y-115010000D03*
X185870000Y-105670000D03*
X140590000Y-117670000D03*
X141750000Y-105050000D03*
X141220000Y-118300000D03*
X186400000Y-108970000D03*
X141250000Y-116980000D03*
X190380000Y-112810098D03*
X141730000Y-109000000D03*
X141180000Y-107000000D03*
X140560000Y-107670000D03*
X147000000Y-104060000D03*
X179840000Y-107540000D03*
X185440000Y-105010000D03*
X141760000Y-107680000D03*
X179820000Y-104230000D03*
X141150000Y-108320000D03*
X179870000Y-119880000D03*
X140560000Y-118990000D03*
X185880000Y-108240000D03*
X140550000Y-116360000D03*
X147010000Y-105060000D03*
X179820000Y-114170000D03*
X179850000Y-116600000D03*
X183880000Y-122480000D03*
X140520000Y-106360000D03*
X141210000Y-115670000D03*
X147090000Y-116510000D03*
X147010000Y-107490000D03*
X147000000Y-106490000D03*
X185450000Y-107640000D03*
X141790000Y-117680000D03*
X185280000Y-116380000D03*
X140550000Y-105040000D03*
X146980000Y-109890000D03*
X186490000Y-119020000D03*
X187700000Y-118960000D03*
X147100000Y-115080000D03*
X187690000Y-116330000D03*
X147090000Y-114080000D03*
X147060000Y-118910000D03*
X146970000Y-108890000D03*
X185460000Y-106330000D03*
X141780000Y-115050000D03*
X184360000Y-104790000D03*
X141140000Y-105690000D03*
X141720000Y-106370000D03*
X157680000Y-124990000D03*
X179850000Y-117490000D03*
X147070000Y-119910000D03*
X179870000Y-118990000D03*
X140580000Y-115040000D03*
X186390000Y-106340000D03*
X141760000Y-119000000D03*
X187730000Y-117640000D03*
X179820000Y-105120000D03*
%TO.N,/ESP32/EN*%
X101800000Y-73290000D03*
D21*
X110700000Y-49984314D03*
D23*
X113300000Y-44200000D03*
D21*
%TO.N,/ESP32/P_TX*%
X109820000Y-65500000D03*
D23*
X112030000Y-44250000D03*
D20*
%TO.N,/ESP32/IO0*%
X225160000Y-73290000D03*
D23*
X110780000Y-40800000D03*
D20*
X111400000Y-61450000D03*
X123460000Y-67800000D03*
%TO.N,/ESP32/P_RX*%
X111230000Y-45800000D03*
X109950000Y-63200000D03*
%TO.N,/ASIC/RX_3V3*%
X118710000Y-62090000D03*
X105930000Y-127530000D03*
%TO.N,Net-(J4-Pin_5)*%
X184700000Y-43080159D03*
X116150000Y-63100000D03*
%TO.N,Net-(J4-Pin_8)*%
X112360000Y-63060000D03*
X179344719Y-44644719D03*
%TO.N,Net-(J4-Pin_7)*%
X180130000Y-44110000D03*
X113650000Y-63050000D03*
%TO.N,Net-(J4-Pin_6)*%
X184140000Y-42580000D03*
X114900000Y-63050000D03*
%TO.N,/ASIC/1V2-1*%
X136300000Y-123000000D03*
X132750000Y-122060000D03*
%TO.N,Net-(A3-REFCLKOUT2)*%
X135925000Y-103391400D03*
X136000000Y-121240000D03*
%TO.N,Net-(A4-REFCLKOUT1)*%
X141490000Y-120110000D03*
%TO.N,Net-(A4-REFCLKOUT2)*%
X135890000Y-111540000D03*
%TO.N,Net-(U3-MSEL1)*%
X203030000Y-72870000D03*
X216104250Y-69644500D03*
%TO.N,/ASIC/GND3*%
X197170000Y-118920000D03*
X203180000Y-115040000D03*
X203210000Y-106320000D03*
X201970000Y-117650000D03*
X200140000Y-106110000D03*
X199070000Y-109900000D03*
X197160000Y-116500000D03*
X201970000Y-115030000D03*
X203200000Y-107640000D03*
X203200000Y-108970000D03*
X188900000Y-115050000D03*
X190120000Y-116360000D03*
X195350000Y-115130000D03*
X204390000Y-118990000D03*
X199070000Y-110910000D03*
X195350000Y-114120000D03*
X203180000Y-118990000D03*
X188900000Y-119000000D03*
X203790000Y-105720000D03*
X200210000Y-113080000D03*
X203180000Y-117660000D03*
X200130000Y-104980000D03*
X192960000Y-107630000D03*
X199040000Y-106070000D03*
X200130000Y-107430000D03*
X195340000Y-117510000D03*
X204390000Y-117660000D03*
X190110000Y-115060000D03*
X201970000Y-118980000D03*
X201980000Y-116330000D03*
X189490000Y-116990000D03*
X199050000Y-108490000D03*
X189500000Y-115670000D03*
X204990000Y-120130000D03*
X195340000Y-118950000D03*
X197160000Y-117510000D03*
X189490000Y-118320000D03*
X203800000Y-107020000D03*
X203790000Y-108340000D03*
X190640000Y-108320000D03*
X204380000Y-106320000D03*
X204370000Y-107640000D03*
X195340000Y-119960000D03*
X190110000Y-117680000D03*
X188910000Y-116350000D03*
X199050000Y-107480000D03*
X190640000Y-106990000D03*
X190130000Y-104990000D03*
X199040000Y-105060000D03*
X190110000Y-119010000D03*
X197170000Y-114130000D03*
X200130000Y-108760000D03*
X197170000Y-119930000D03*
X190650000Y-105670000D03*
X204370000Y-108970000D03*
X190130000Y-107610000D03*
X204390000Y-115040000D03*
X190130000Y-108940000D03*
X197170000Y-115140000D03*
X204400000Y-116340000D03*
X188900000Y-117670000D03*
X190140000Y-106290000D03*
X203190000Y-116340000D03*
X195340000Y-116500000D03*
%TO.N,Net-(U3-VSEL)*%
X202388049Y-72061449D03*
X216104250Y-68194500D03*
%TO.N,/ASIC/1V2-2*%
X168750000Y-124820000D03*
X164540000Y-128130000D03*
X184920000Y-121310000D03*
X167040000Y-126540000D03*
%TO.N,Net-(U3-ADRSEL)*%
X216454250Y-70984500D03*
X203690000Y-72140000D03*
%TO.N,Net-(A6-REFCLKOUT2)*%
X184320000Y-103870000D03*
%TO.N,/ASIC/1V2-3*%
X201580000Y-120130000D03*
X192750000Y-121800000D03*
%TO.N,Net-(A7-REFCLKOUT2)*%
X200930000Y-120850000D03*
X206390000Y-102750000D03*
%TO.N,Net-(A8-REFCLKOUT2)*%
X201010000Y-113210000D03*
%TO.N,Net-(A8-TRIP_IN)*%
X204320000Y-121220000D03*
%TO.N,Net-(A8-TX_IN)*%
X203651955Y-121184146D03*
%TO.N,Net-(A8-RESET_OUT)*%
X203000000Y-121160000D03*
%TO.N,Net-(A8-RX_OUT)*%
X202310000Y-121190000D03*
%TO.N,Net-(A8-REFCLKOUT1)*%
X206520000Y-120130000D03*
%TO.N,/ASIC/TRIP_3V3*%
X102772400Y-120550000D03*
X119550000Y-62070000D03*
%TD*%
D25*
%TO.N,/Vcore*%
X125590000Y-64816906D02*
X109253094Y-64816906D01*
X109253094Y-64816906D02*
X108560000Y-65510000D01*
D26*
%TO.N,/5V*%
X146470000Y-69360000D02*
X146470000Y-69310000D01*
X150856750Y-64923250D02*
X150856750Y-53750000D01*
X146470000Y-69310000D02*
X150856750Y-64923250D01*
X150856750Y-49010000D02*
X150856750Y-53750000D01*
%TD*%
%TA.AperFunction,Conductor*%
%TO.N,/12V*%
G36*
X172764486Y-51975443D02*
G01*
X172866957Y-52002900D01*
X172866959Y-52002900D01*
X172973041Y-52002900D01*
X172973043Y-52002900D01*
X173075514Y-51975443D01*
X173119583Y-51950000D01*
X175400000Y-51950000D01*
X175400000Y-54480000D01*
X175330000Y-54550000D01*
X154984000Y-54550000D01*
X154916961Y-54530315D01*
X154871206Y-54477511D01*
X154860000Y-54426000D01*
X154860000Y-52074000D01*
X154879685Y-52006961D01*
X154932489Y-51961206D01*
X154984000Y-51950000D01*
X171710000Y-51950000D01*
X172720417Y-51950000D01*
X172764486Y-51975443D01*
G37*
%TD.AperFunction*%
%TD*%
%TA.AperFunction,Conductor*%
%TO.N,/12V*%
G36*
X219073039Y-38020185D02*
G01*
X219118794Y-38072989D01*
X219130000Y-38124500D01*
X219130000Y-75282058D01*
X219110315Y-75349097D01*
X219057511Y-75394852D01*
X218988353Y-75404796D01*
X218924797Y-75375771D01*
X218898613Y-75344059D01*
X218880500Y-75312686D01*
X218787314Y-75219500D01*
X218683965Y-75159831D01*
X218673187Y-75153608D01*
X218609539Y-75136554D01*
X218545892Y-75119500D01*
X218414108Y-75119500D01*
X218286812Y-75153608D01*
X218172686Y-75219500D01*
X218172683Y-75219502D01*
X218079502Y-75312683D01*
X218079500Y-75312686D01*
X218013608Y-75426812D01*
X217979500Y-75554108D01*
X217979500Y-75685891D01*
X218013608Y-75813187D01*
X218033550Y-75847726D01*
X218079500Y-75927314D01*
X218172686Y-76020500D01*
X218286814Y-76086392D01*
X218414108Y-76120500D01*
X218414110Y-76120500D01*
X218545890Y-76120500D01*
X218545892Y-76120500D01*
X218673186Y-76086392D01*
X218787314Y-76020500D01*
X218880500Y-75927314D01*
X218898613Y-75895940D01*
X218949180Y-75847726D01*
X219017787Y-75834502D01*
X219082651Y-75860470D01*
X219123180Y-75917384D01*
X219130000Y-75957941D01*
X219130000Y-79413788D01*
X219110315Y-79480827D01*
X219057511Y-79526582D01*
X218988353Y-79536526D01*
X218924797Y-79507501D01*
X218917471Y-79500613D01*
X217655882Y-78214268D01*
X217655866Y-78214252D01*
X217630798Y-78191387D01*
X217630784Y-78191375D01*
X217630779Y-78191371D01*
X217609434Y-78173974D01*
X217609406Y-78173951D01*
X217605123Y-78170556D01*
X217602910Y-78168802D01*
X217502904Y-78117777D01*
X217435892Y-78097999D01*
X217435890Y-78097998D01*
X217435888Y-78097998D01*
X217435884Y-78097997D01*
X217349843Y-78085504D01*
X217349837Y-78085503D01*
X209604685Y-78074775D01*
X209529590Y-78074671D01*
X209529589Y-78074671D01*
X209529583Y-78074671D01*
X209529582Y-78074671D01*
X209464424Y-78081610D01*
X209412738Y-78092818D01*
X209367895Y-78105663D01*
X209298027Y-78105200D01*
X209239500Y-78067036D01*
X209210898Y-78003289D01*
X209209750Y-77986457D01*
X209209750Y-75069497D01*
X209209749Y-75069495D01*
X209190302Y-74971728D01*
X209190301Y-74971727D01*
X209190301Y-74971724D01*
X209175161Y-74949066D01*
X209134916Y-74888834D01*
X209134915Y-74888833D01*
X209052028Y-74833450D01*
X209052021Y-74833447D01*
X208954253Y-74814000D01*
X208954250Y-74814000D01*
X205653984Y-74814000D01*
X205556231Y-74833550D01*
X205556228Y-74833551D01*
X205473398Y-74889020D01*
X205473396Y-74889022D01*
X205418096Y-74971970D01*
X205418096Y-74971971D01*
X205398750Y-75069759D01*
X205398750Y-75069761D01*
X205404357Y-80464141D01*
X205384742Y-80531201D01*
X205376168Y-80542986D01*
X205135007Y-80836521D01*
X205077240Y-80875825D01*
X205039196Y-80881805D01*
X196549500Y-80881805D01*
X196482461Y-80862120D01*
X196436706Y-80809316D01*
X196425500Y-80757805D01*
X196425500Y-80393430D01*
X196425499Y-80393405D01*
X196423813Y-80361382D01*
X196423811Y-80361358D01*
X196423810Y-80361335D01*
X196421074Y-80335431D01*
X196420325Y-80328991D01*
X196385941Y-80222115D01*
X196352686Y-80160667D01*
X196300837Y-80090861D01*
X194514403Y-78291001D01*
X194489711Y-78268696D01*
X194489706Y-78268692D01*
X194489695Y-78268682D01*
X194489693Y-78268680D01*
X194468741Y-78251732D01*
X194462756Y-78247013D01*
X194362678Y-78196126D01*
X194295647Y-78176443D01*
X194295641Y-78176442D01*
X194209569Y-78164066D01*
X188786340Y-78164066D01*
X188722268Y-78170860D01*
X188722264Y-78170860D01*
X188722262Y-78170861D01*
X188671425Y-78181765D01*
X188671411Y-78181768D01*
X188671410Y-78181769D01*
X188634000Y-78192323D01*
X188633998Y-78192323D01*
X188626579Y-78194417D01*
X188625721Y-78191376D01*
X188570676Y-78197611D01*
X188508021Y-78166691D01*
X188472028Y-78106805D01*
X188468000Y-78075458D01*
X188468000Y-75204563D01*
X188467999Y-75204561D01*
X188448552Y-75106794D01*
X188448551Y-75106793D01*
X188448551Y-75106790D01*
X188393166Y-75023900D01*
X188343829Y-74990934D01*
X188310278Y-74968516D01*
X188310271Y-74968513D01*
X188212503Y-74949066D01*
X188212500Y-74949066D01*
X184912500Y-74949066D01*
X184911676Y-74949067D01*
X184813964Y-74968831D01*
X184813962Y-74968831D01*
X184813962Y-74968832D01*
X184731251Y-75024483D01*
X184676134Y-75107551D01*
X184657001Y-75205387D01*
X184657000Y-75205397D01*
X184674113Y-80510810D01*
X184654645Y-80577913D01*
X184651796Y-80582180D01*
X184479684Y-80828775D01*
X184425174Y-80872482D01*
X184378002Y-80881805D01*
X177690716Y-80881805D01*
X177623677Y-80862120D01*
X177603035Y-80845486D01*
X171746319Y-74988770D01*
X171731615Y-74961842D01*
X171715023Y-74936024D01*
X171714131Y-74929823D01*
X171712834Y-74927447D01*
X171710000Y-74901089D01*
X171710000Y-74786623D01*
X180687244Y-74786623D01*
X180687244Y-74918407D01*
X180697553Y-74956880D01*
X180721352Y-75045702D01*
X180735092Y-75069500D01*
X180787244Y-75159829D01*
X180880430Y-75253015D01*
X180994558Y-75318907D01*
X181121852Y-75353015D01*
X181121854Y-75353015D01*
X181253634Y-75353015D01*
X181253636Y-75353015D01*
X181380930Y-75318907D01*
X181495058Y-75253015D01*
X181588244Y-75159829D01*
X181654136Y-75045701D01*
X181688244Y-74918407D01*
X181688244Y-74786623D01*
X181664623Y-74698467D01*
X181664908Y-74686469D01*
X181660714Y-74675223D01*
X181665724Y-74652188D01*
X181666286Y-74628621D01*
X181673385Y-74616973D01*
X181675566Y-74606950D01*
X181696714Y-74578699D01*
X181719420Y-74555993D01*
X181780741Y-74522510D01*
X181850433Y-74527494D01*
X181906366Y-74569366D01*
X181926873Y-74611580D01*
X181946176Y-74683620D01*
X182012068Y-74797748D01*
X182105254Y-74890934D01*
X182219382Y-74956826D01*
X182346676Y-74990934D01*
X182346678Y-74990934D01*
X182478458Y-74990934D01*
X182478460Y-74990934D01*
X182605754Y-74956826D01*
X182719882Y-74890934D01*
X182813068Y-74797748D01*
X182878960Y-74683620D01*
X182905740Y-74583674D01*
X189939500Y-74583674D01*
X189939500Y-74715457D01*
X189973608Y-74842753D01*
X190000321Y-74889020D01*
X190039500Y-74956880D01*
X190132686Y-75050066D01*
X190246814Y-75115958D01*
X190374108Y-75150066D01*
X190374110Y-75150066D01*
X190505890Y-75150066D01*
X190505892Y-75150066D01*
X190633186Y-75115958D01*
X190747314Y-75050066D01*
X190840500Y-74956880D01*
X190906392Y-74842752D01*
X190940500Y-74715458D01*
X190940500Y-74583674D01*
X190906392Y-74456380D01*
X190840500Y-74342252D01*
X190747314Y-74249066D01*
X190690250Y-74216120D01*
X190633187Y-74183174D01*
X190553006Y-74161690D01*
X190505892Y-74149066D01*
X190374108Y-74149066D01*
X190246812Y-74183174D01*
X190132686Y-74249066D01*
X190132683Y-74249068D01*
X190039502Y-74342249D01*
X190039500Y-74342252D01*
X189973608Y-74456378D01*
X189939500Y-74583674D01*
X182905740Y-74583674D01*
X182913068Y-74556326D01*
X182913068Y-74424542D01*
X182878960Y-74297248D01*
X182813068Y-74183120D01*
X182725903Y-74095955D01*
X182692418Y-74034632D01*
X182697402Y-73964940D01*
X182732623Y-73917303D01*
X182731567Y-73916247D01*
X182761423Y-73886391D01*
X182830500Y-73817314D01*
X182896392Y-73703186D01*
X182930500Y-73575892D01*
X182930500Y-73444108D01*
X182907856Y-73359597D01*
X186947389Y-73359597D01*
X186947389Y-73491380D01*
X186981497Y-73618676D01*
X186997913Y-73647108D01*
X187047389Y-73732803D01*
X187140575Y-73825989D01*
X187254703Y-73891881D01*
X187381997Y-73925989D01*
X187381999Y-73925989D01*
X187513779Y-73925989D01*
X187513781Y-73925989D01*
X187641075Y-73891881D01*
X187752718Y-73827424D01*
X191479500Y-73827424D01*
X191479500Y-73959208D01*
X191486249Y-73984395D01*
X191513608Y-74086503D01*
X191520737Y-74098850D01*
X191579500Y-74200630D01*
X191672686Y-74293816D01*
X191786814Y-74359708D01*
X191914108Y-74393816D01*
X191914110Y-74393816D01*
X192045890Y-74393816D01*
X192045892Y-74393816D01*
X192173186Y-74359708D01*
X192287314Y-74293816D01*
X192380500Y-74200630D01*
X192446392Y-74086502D01*
X192456814Y-74047608D01*
X201083750Y-74047608D01*
X201083750Y-74179392D01*
X201089441Y-74200630D01*
X201117858Y-74306687D01*
X201138390Y-74342249D01*
X201183750Y-74420814D01*
X201276936Y-74514000D01*
X201391064Y-74579892D01*
X201518358Y-74614000D01*
X201518360Y-74614000D01*
X201650140Y-74614000D01*
X201650142Y-74614000D01*
X201777436Y-74579892D01*
X201891564Y-74514000D01*
X201984750Y-74420814D01*
X202050642Y-74306686D01*
X202084750Y-74179392D01*
X202084750Y-74047608D01*
X202050642Y-73920314D01*
X201984750Y-73806186D01*
X201891564Y-73713000D01*
X201825741Y-73674997D01*
X201777437Y-73647108D01*
X201671325Y-73618676D01*
X201650142Y-73613000D01*
X201518358Y-73613000D01*
X201391062Y-73647108D01*
X201276936Y-73713000D01*
X201276933Y-73713002D01*
X201183752Y-73806183D01*
X201183750Y-73806186D01*
X201117858Y-73920312D01*
X201094527Y-74007388D01*
X201083750Y-74047608D01*
X192456814Y-74047608D01*
X192480500Y-73959208D01*
X192480500Y-73827424D01*
X192446392Y-73700130D01*
X192380500Y-73586002D01*
X192287314Y-73492816D01*
X192202953Y-73444110D01*
X192173187Y-73426924D01*
X192109539Y-73409870D01*
X192045892Y-73392816D01*
X191914108Y-73392816D01*
X191786812Y-73426924D01*
X191672686Y-73492816D01*
X191672683Y-73492818D01*
X191579502Y-73585999D01*
X191579500Y-73586002D01*
X191513608Y-73700128D01*
X191479500Y-73827424D01*
X187752718Y-73827424D01*
X187755203Y-73825989D01*
X187848389Y-73732803D01*
X187914281Y-73618675D01*
X187948389Y-73491381D01*
X187948389Y-73359597D01*
X187914281Y-73232303D01*
X187913239Y-73230499D01*
X187900601Y-73208608D01*
X187848389Y-73118175D01*
X187755203Y-73024989D01*
X187668620Y-72975000D01*
X187641076Y-72959097D01*
X187528933Y-72929049D01*
X187513781Y-72924989D01*
X187381997Y-72924989D01*
X187254701Y-72959097D01*
X187140575Y-73024989D01*
X187140572Y-73024991D01*
X187047391Y-73118172D01*
X187047389Y-73118175D01*
X186981497Y-73232301D01*
X186947389Y-73359597D01*
X182907856Y-73359597D01*
X182896392Y-73316814D01*
X182830500Y-73202686D01*
X182737314Y-73109500D01*
X182657096Y-73063186D01*
X182623187Y-73043608D01*
X182533220Y-73019502D01*
X182495892Y-73009500D01*
X182364108Y-73009500D01*
X182236812Y-73043608D01*
X182122686Y-73109500D01*
X182122683Y-73109502D01*
X182029502Y-73202683D01*
X182029500Y-73202686D01*
X181963608Y-73316812D01*
X181934104Y-73426924D01*
X181929500Y-73444108D01*
X181929500Y-73575892D01*
X181932208Y-73585999D01*
X181963608Y-73703187D01*
X181992719Y-73753608D01*
X182029500Y-73817314D01*
X182029502Y-73817316D01*
X182116664Y-73904478D01*
X182121263Y-73912900D01*
X182128897Y-73918720D01*
X182137737Y-73943071D01*
X182150149Y-73965801D01*
X182149464Y-73975372D01*
X182152740Y-73984395D01*
X182147012Y-74009656D01*
X182145165Y-74035493D01*
X182139001Y-74044992D01*
X182137291Y-74052536D01*
X182124483Y-74067366D01*
X182115894Y-74080604D01*
X182108030Y-74088330D01*
X182105254Y-74089934D01*
X182040382Y-74154805D01*
X182039979Y-74155202D01*
X182009624Y-74171433D01*
X181979425Y-74187923D01*
X181978862Y-74187882D01*
X181978365Y-74188149D01*
X181944034Y-74185391D01*
X181909734Y-74182938D01*
X181909282Y-74182600D01*
X181908720Y-74182555D01*
X181881350Y-74161690D01*
X181853800Y-74141067D01*
X181853507Y-74140465D01*
X181853154Y-74140196D01*
X181852494Y-74138379D01*
X181833294Y-74098853D01*
X181813992Y-74026814D01*
X181748100Y-73912686D01*
X181654914Y-73819500D01*
X181577838Y-73775000D01*
X181540787Y-73753608D01*
X181463136Y-73732802D01*
X181413492Y-73719500D01*
X181281708Y-73719500D01*
X181154412Y-73753608D01*
X181040286Y-73819500D01*
X181040283Y-73819502D01*
X180947102Y-73912683D01*
X180947100Y-73912686D01*
X180881208Y-74026812D01*
X180850828Y-74140196D01*
X180847100Y-74154108D01*
X180847100Y-74285892D01*
X180866879Y-74359708D01*
X180870720Y-74374043D01*
X180869057Y-74443893D01*
X180838628Y-74493816D01*
X180787244Y-74545201D01*
X180721352Y-74659327D01*
X180706312Y-74715458D01*
X180687244Y-74786623D01*
X171710000Y-74786623D01*
X171710000Y-72733674D01*
X183348500Y-72733674D01*
X183348500Y-72865458D01*
X183356655Y-72895892D01*
X183382608Y-72992753D01*
X183403564Y-73029049D01*
X183448500Y-73106880D01*
X183541686Y-73200066D01*
X183655814Y-73265958D01*
X183783108Y-73300066D01*
X183783110Y-73300066D01*
X183914890Y-73300066D01*
X183914892Y-73300066D01*
X184042186Y-73265958D01*
X184156314Y-73200066D01*
X184249500Y-73106880D01*
X184315392Y-72992752D01*
X184349500Y-72865458D01*
X184349500Y-72764108D01*
X185469500Y-72764108D01*
X185469500Y-72895892D01*
X185478384Y-72929046D01*
X185503608Y-73023187D01*
X185533522Y-73074999D01*
X185569500Y-73137314D01*
X185662686Y-73230500D01*
X185731968Y-73270500D01*
X185776810Y-73296390D01*
X185776814Y-73296392D01*
X185904108Y-73330500D01*
X185904110Y-73330500D01*
X186035890Y-73330500D01*
X186035892Y-73330500D01*
X186163186Y-73296392D01*
X186277314Y-73230500D01*
X186370500Y-73137314D01*
X186436392Y-73023186D01*
X186470500Y-72895892D01*
X186470500Y-72764108D01*
X186436392Y-72636814D01*
X186435020Y-72634438D01*
X186393594Y-72562686D01*
X186370500Y-72522686D01*
X186310471Y-72462657D01*
X188550449Y-72462657D01*
X188550449Y-72594441D01*
X188553648Y-72606380D01*
X188584557Y-72721736D01*
X188587448Y-72726743D01*
X188650449Y-72835863D01*
X188743635Y-72929049D01*
X188842470Y-72986112D01*
X188857719Y-72994916D01*
X188857763Y-72994941D01*
X188985057Y-73029049D01*
X188985059Y-73029049D01*
X189116839Y-73029049D01*
X189116841Y-73029049D01*
X189244135Y-72994941D01*
X189358263Y-72929049D01*
X189451449Y-72835863D01*
X189517341Y-72721735D01*
X189551449Y-72594441D01*
X189551449Y-72462657D01*
X189517341Y-72335363D01*
X189499210Y-72303960D01*
X189467141Y-72248414D01*
X189450668Y-72180514D01*
X189471863Y-72119274D01*
X189471324Y-72118963D01*
X189472938Y-72116165D01*
X189473520Y-72114487D01*
X189475291Y-72112090D01*
X189475383Y-72111929D01*
X189475388Y-72111925D01*
X189541280Y-71997797D01*
X189575388Y-71870503D01*
X189575388Y-71738719D01*
X189541280Y-71611425D01*
X189541279Y-71611423D01*
X189541279Y-71611422D01*
X189536116Y-71602480D01*
X189518121Y-71571312D01*
X189505013Y-71548608D01*
X200073750Y-71548608D01*
X200073750Y-71680392D01*
X200089379Y-71738719D01*
X200107858Y-71807687D01*
X200140804Y-71864750D01*
X200173750Y-71921814D01*
X200173752Y-71921816D01*
X200258755Y-72006819D01*
X200292240Y-72068142D01*
X200287256Y-72137834D01*
X200258755Y-72182181D01*
X200173752Y-72267183D01*
X200173750Y-72267186D01*
X200107858Y-72381312D01*
X200073750Y-72508608D01*
X200073750Y-72640391D01*
X200107858Y-72767687D01*
X200128886Y-72804108D01*
X200173750Y-72881814D01*
X200266936Y-72975000D01*
X200381064Y-73040892D01*
X200508358Y-73075000D01*
X200508360Y-73075000D01*
X200640140Y-73075000D01*
X200640142Y-73075000D01*
X200767436Y-73040892D01*
X200881564Y-72975000D01*
X200974750Y-72881814D01*
X201040642Y-72767686D01*
X201074750Y-72640392D01*
X201074750Y-72508608D01*
X201040642Y-72381314D01*
X201040048Y-72380286D01*
X201014110Y-72335360D01*
X200974750Y-72267186D01*
X200889745Y-72182181D01*
X200886040Y-72175397D01*
X200879757Y-72170898D01*
X200869531Y-72145162D01*
X200856260Y-72120858D01*
X200856811Y-72113149D01*
X200853957Y-72105966D01*
X200859268Y-72078786D01*
X200861244Y-72051166D01*
X200866213Y-72043250D01*
X200867358Y-72037394D01*
X200885113Y-72013143D01*
X200887905Y-72008698D01*
X200888804Y-72007759D01*
X200901006Y-71995557D01*
X201887549Y-71995557D01*
X201887549Y-72127341D01*
X201901270Y-72178549D01*
X201921657Y-72254636D01*
X201940402Y-72287102D01*
X201987549Y-72368763D01*
X202080735Y-72461949D01*
X202194863Y-72527841D01*
X202322157Y-72561949D01*
X202322159Y-72561949D01*
X202432786Y-72561949D01*
X202499825Y-72581634D01*
X202545580Y-72634438D01*
X202555524Y-72703596D01*
X202552561Y-72718042D01*
X202529500Y-72804108D01*
X202529500Y-72935891D01*
X202563608Y-73063187D01*
X202580875Y-73093093D01*
X202629500Y-73177314D01*
X202722686Y-73270500D01*
X202836814Y-73336392D01*
X202964108Y-73370500D01*
X202964110Y-73370500D01*
X203095890Y-73370500D01*
X203095892Y-73370500D01*
X203157068Y-73354108D01*
X205049500Y-73354108D01*
X205049500Y-73485892D01*
X205051356Y-73492818D01*
X205083608Y-73613187D01*
X205103193Y-73647108D01*
X205149500Y-73727314D01*
X205242686Y-73820500D01*
X205356814Y-73886392D01*
X205484108Y-73920500D01*
X205484110Y-73920500D01*
X205615890Y-73920500D01*
X205615892Y-73920500D01*
X205743186Y-73886392D01*
X205857314Y-73820500D01*
X205950500Y-73727314D01*
X206016392Y-73613186D01*
X206050500Y-73485892D01*
X206050500Y-73354108D01*
X206016392Y-73226814D01*
X206005881Y-73208608D01*
X214353750Y-73208608D01*
X214353750Y-73340392D01*
X214361817Y-73370499D01*
X214387858Y-73467687D01*
X214401538Y-73491381D01*
X214453750Y-73581814D01*
X214546936Y-73675000D01*
X214661064Y-73740892D01*
X214788358Y-73775000D01*
X214788360Y-73775000D01*
X214920140Y-73775000D01*
X214920142Y-73775000D01*
X215047436Y-73740892D01*
X215161564Y-73675000D01*
X215254750Y-73581814D01*
X215320642Y-73467686D01*
X215354750Y-73340392D01*
X215354750Y-73208608D01*
X215320642Y-73081314D01*
X215254750Y-72967186D01*
X215161564Y-72874000D01*
X215104500Y-72841054D01*
X215047437Y-72808108D01*
X214983789Y-72791054D01*
X214920142Y-72774000D01*
X214788358Y-72774000D01*
X214661062Y-72808108D01*
X214546936Y-72874000D01*
X214546933Y-72874002D01*
X214453752Y-72967183D01*
X214453750Y-72967186D01*
X214387858Y-73081312D01*
X214359245Y-73188099D01*
X214353750Y-73208608D01*
X206005881Y-73208608D01*
X205950500Y-73112686D01*
X205857314Y-73019500D01*
X205780238Y-72975000D01*
X205743187Y-72953608D01*
X205677061Y-72935890D01*
X205615892Y-72919500D01*
X205484108Y-72919500D01*
X205356812Y-72953608D01*
X205242686Y-73019500D01*
X205242683Y-73019502D01*
X205149502Y-73112683D01*
X205149500Y-73112686D01*
X205083608Y-73226812D01*
X205063980Y-73300066D01*
X205049500Y-73354108D01*
X203157068Y-73354108D01*
X203223186Y-73336392D01*
X203337314Y-73270500D01*
X203430500Y-73177314D01*
X203496392Y-73063186D01*
X203530500Y-72935892D01*
X203530500Y-72804108D01*
X203528486Y-72796591D01*
X203530149Y-72726743D01*
X203569312Y-72668881D01*
X203633540Y-72641377D01*
X203648261Y-72640500D01*
X203755890Y-72640500D01*
X203755892Y-72640500D01*
X203826025Y-72621708D01*
X206133750Y-72621708D01*
X206133750Y-72753491D01*
X206167858Y-72880787D01*
X206193379Y-72924989D01*
X206233750Y-72994914D01*
X206326936Y-73088100D01*
X206441064Y-73153992D01*
X206568358Y-73188100D01*
X206568360Y-73188100D01*
X206700140Y-73188100D01*
X206700142Y-73188100D01*
X206827436Y-73153992D01*
X206941564Y-73088100D01*
X207034750Y-72994914D01*
X207100642Y-72880786D01*
X207134750Y-72753492D01*
X207134750Y-72621708D01*
X207100642Y-72494414D01*
X207034750Y-72380286D01*
X206941564Y-72287100D01*
X206874558Y-72248414D01*
X206827437Y-72221208D01*
X206763789Y-72204154D01*
X206700142Y-72187100D01*
X206568358Y-72187100D01*
X206441062Y-72221208D01*
X206326936Y-72287100D01*
X206326933Y-72287102D01*
X206233752Y-72380283D01*
X206233750Y-72380286D01*
X206167858Y-72494412D01*
X206133750Y-72621708D01*
X203826025Y-72621708D01*
X203883186Y-72606392D01*
X203997314Y-72540500D01*
X204090500Y-72447314D01*
X204156392Y-72333186D01*
X204190500Y-72205892D01*
X204190500Y-72074108D01*
X204156392Y-71946814D01*
X204090500Y-71832686D01*
X203997314Y-71739500D01*
X203926487Y-71698608D01*
X207134750Y-71698608D01*
X207134750Y-71830392D01*
X207145497Y-71870501D01*
X207168858Y-71957687D01*
X207190723Y-71995557D01*
X207234750Y-72071814D01*
X207327936Y-72165000D01*
X207442064Y-72230892D01*
X207569358Y-72265000D01*
X207569360Y-72265000D01*
X207701140Y-72265000D01*
X207701142Y-72265000D01*
X207828436Y-72230892D01*
X207942564Y-72165000D01*
X208035750Y-72071814D01*
X208101642Y-71957686D01*
X208135750Y-71830392D01*
X208135750Y-71698608D01*
X208101642Y-71571314D01*
X208035750Y-71457186D01*
X207942564Y-71364000D01*
X207844160Y-71307186D01*
X207828437Y-71298108D01*
X207764789Y-71281054D01*
X207701142Y-71264000D01*
X207569358Y-71264000D01*
X207442062Y-71298108D01*
X207327936Y-71364000D01*
X207327933Y-71364002D01*
X207234752Y-71457183D01*
X207234750Y-71457186D01*
X207168858Y-71571312D01*
X207144840Y-71660951D01*
X207134750Y-71698608D01*
X203926487Y-71698608D01*
X203883187Y-71673608D01*
X203819539Y-71656554D01*
X203755892Y-71639500D01*
X203624108Y-71639500D01*
X203496812Y-71673608D01*
X203382686Y-71739500D01*
X203382683Y-71739502D01*
X203289502Y-71832683D01*
X203289500Y-71832686D01*
X203223608Y-71946812D01*
X203189500Y-72074108D01*
X203189500Y-72205891D01*
X203191514Y-72213407D01*
X203190918Y-72238401D01*
X203194477Y-72263147D01*
X203190101Y-72272727D01*
X203189851Y-72283257D01*
X203175838Y-72303960D01*
X203165452Y-72326703D01*
X203156590Y-72332397D01*
X203150688Y-72341119D01*
X203127707Y-72350960D01*
X203106674Y-72364477D01*
X203090818Y-72366756D01*
X203086460Y-72368623D01*
X203071739Y-72369500D01*
X202985263Y-72369500D01*
X202918224Y-72349815D01*
X202872469Y-72297011D01*
X202862525Y-72227853D01*
X202865488Y-72213407D01*
X202867107Y-72207361D01*
X202888549Y-72127341D01*
X202888549Y-71995557D01*
X202854441Y-71868263D01*
X202788549Y-71754135D01*
X202695363Y-71660949D01*
X202638299Y-71628003D01*
X202581236Y-71595057D01*
X202492624Y-71571314D01*
X202453941Y-71560949D01*
X202322157Y-71560949D01*
X202194861Y-71595057D01*
X202080735Y-71660949D01*
X202080732Y-71660951D01*
X201987551Y-71754132D01*
X201987549Y-71754135D01*
X201921657Y-71868261D01*
X201897696Y-71957686D01*
X201887549Y-71995557D01*
X200901006Y-71995557D01*
X200974750Y-71921814D01*
X201040642Y-71807686D01*
X201074750Y-71680392D01*
X201074750Y-71548608D01*
X201040642Y-71421314D01*
X200974750Y-71307186D01*
X200881564Y-71214000D01*
X200818668Y-71177687D01*
X200767437Y-71148108D01*
X200703789Y-71131054D01*
X200640142Y-71114000D01*
X200508358Y-71114000D01*
X200381062Y-71148108D01*
X200266936Y-71214000D01*
X200266933Y-71214002D01*
X200173752Y-71307183D01*
X200173750Y-71307186D01*
X200107858Y-71421312D01*
X200073750Y-71548608D01*
X189505013Y-71548608D01*
X189475388Y-71497297D01*
X189382202Y-71404111D01*
X189325138Y-71371165D01*
X189268075Y-71338219D01*
X189204427Y-71321165D01*
X189140780Y-71304111D01*
X189008996Y-71304111D01*
X188881700Y-71338219D01*
X188767574Y-71404111D01*
X188767571Y-71404113D01*
X188674390Y-71497294D01*
X188674388Y-71497297D01*
X188608496Y-71611423D01*
X188574388Y-71738719D01*
X188574388Y-71870502D01*
X188608496Y-71997798D01*
X188617356Y-72013143D01*
X188658695Y-72084744D01*
X188675168Y-72152643D01*
X188653972Y-72213885D01*
X188654512Y-72214197D01*
X188652894Y-72216998D01*
X188652316Y-72218670D01*
X188650550Y-72221058D01*
X188584558Y-72335359D01*
X188584558Y-72335360D01*
X188584557Y-72335362D01*
X188584557Y-72335363D01*
X188550449Y-72462657D01*
X186310471Y-72462657D01*
X186277314Y-72429500D01*
X186193854Y-72381314D01*
X186163187Y-72363608D01*
X186057773Y-72335363D01*
X186035892Y-72329500D01*
X185904108Y-72329500D01*
X185776812Y-72363608D01*
X185662686Y-72429500D01*
X185662683Y-72429502D01*
X185569502Y-72522683D01*
X185569500Y-72522686D01*
X185503608Y-72636812D01*
X185469500Y-72764108D01*
X184349500Y-72764108D01*
X184349500Y-72733674D01*
X184315392Y-72606380D01*
X184249500Y-72492252D01*
X184156314Y-72399066D01*
X184094899Y-72363608D01*
X184042187Y-72333174D01*
X183978539Y-72316120D01*
X183914892Y-72299066D01*
X183783108Y-72299066D01*
X183655812Y-72333174D01*
X183541686Y-72399066D01*
X183541683Y-72399068D01*
X183448502Y-72492249D01*
X183448500Y-72492252D01*
X183382608Y-72606378D01*
X183351699Y-72721735D01*
X183348500Y-72733674D01*
X171710000Y-72733674D01*
X171710000Y-70690675D01*
X208533852Y-70690675D01*
X208533852Y-70822458D01*
X208567960Y-70949754D01*
X208600906Y-71006817D01*
X208633852Y-71063881D01*
X208727038Y-71157067D01*
X208841166Y-71222959D01*
X208968460Y-71257067D01*
X208968462Y-71257067D01*
X209100242Y-71257067D01*
X209100244Y-71257067D01*
X209227538Y-71222959D01*
X209332754Y-71162212D01*
X209400651Y-71145740D01*
X209456749Y-71162212D01*
X209541064Y-71210891D01*
X209668358Y-71244999D01*
X209668360Y-71244999D01*
X209800140Y-71244999D01*
X209800142Y-71244999D01*
X209927436Y-71210891D01*
X210041564Y-71144999D01*
X210041569Y-71144993D01*
X210043758Y-71143315D01*
X210045943Y-71142470D01*
X210048602Y-71140935D01*
X210048841Y-71141349D01*
X210108926Y-71118117D01*
X210177371Y-71132152D01*
X210194737Y-71143312D01*
X210196931Y-71144995D01*
X210196936Y-71145000D01*
X210295771Y-71202063D01*
X210311060Y-71210890D01*
X210311064Y-71210892D01*
X210438358Y-71245000D01*
X210438360Y-71245000D01*
X210570140Y-71245000D01*
X210570142Y-71245000D01*
X210697436Y-71210892D01*
X210811564Y-71145000D01*
X210904750Y-71051814D01*
X210970642Y-70937686D01*
X210975754Y-70918608D01*
X215953750Y-70918608D01*
X215953750Y-71050392D01*
X215957365Y-71063883D01*
X215987858Y-71177687D01*
X216008824Y-71214000D01*
X216053750Y-71291814D01*
X216146936Y-71385000D01*
X216261064Y-71450892D01*
X216388358Y-71485000D01*
X216388360Y-71485000D01*
X216520140Y-71485000D01*
X216520142Y-71485000D01*
X216647436Y-71450892D01*
X216761564Y-71385000D01*
X216854750Y-71291814D01*
X216920642Y-71177686D01*
X216954750Y-71050392D01*
X216954750Y-70918608D01*
X216920642Y-70791314D01*
X216854750Y-70677186D01*
X216761564Y-70584000D01*
X216704500Y-70551054D01*
X216647437Y-70518108D01*
X216583789Y-70501054D01*
X216520142Y-70484000D01*
X216388358Y-70484000D01*
X216261062Y-70518108D01*
X216146936Y-70584000D01*
X216146933Y-70584002D01*
X216053752Y-70677183D01*
X216053750Y-70677186D01*
X215987858Y-70791312D01*
X215964527Y-70878387D01*
X215953750Y-70918608D01*
X210975754Y-70918608D01*
X211004750Y-70810392D01*
X211004750Y-70678608D01*
X210970642Y-70551314D01*
X210904750Y-70437186D01*
X210811564Y-70344000D01*
X210697436Y-70278108D01*
X210580284Y-70246717D01*
X210520625Y-70210353D01*
X210490096Y-70147506D01*
X210498391Y-70078130D01*
X210542876Y-70024252D01*
X210580286Y-70007168D01*
X210583186Y-70006392D01*
X210697314Y-69940500D01*
X210790500Y-69847314D01*
X210856392Y-69733186D01*
X210890500Y-69605892D01*
X210890500Y-69474108D01*
X210856392Y-69346814D01*
X210837047Y-69313308D01*
X212909500Y-69313308D01*
X212909500Y-69445091D01*
X212943608Y-69572387D01*
X212962952Y-69605891D01*
X213009500Y-69686514D01*
X213102686Y-69779700D01*
X213216814Y-69845592D01*
X213344108Y-69879700D01*
X213344110Y-69879700D01*
X213475890Y-69879700D01*
X213475892Y-69879700D01*
X213603186Y-69845592D01*
X213717314Y-69779700D01*
X213810500Y-69686514D01*
X213872800Y-69578608D01*
X215603750Y-69578608D01*
X215603750Y-69710391D01*
X215637858Y-69837687D01*
X215662114Y-69879699D01*
X215703750Y-69951814D01*
X215796936Y-70045000D01*
X215911064Y-70110892D01*
X216038358Y-70145000D01*
X216038360Y-70145000D01*
X216170140Y-70145000D01*
X216170142Y-70145000D01*
X216297436Y-70110892D01*
X216411564Y-70045000D01*
X216504750Y-69951814D01*
X216570642Y-69837686D01*
X216604750Y-69710392D01*
X216604750Y-69578608D01*
X216570642Y-69451314D01*
X216504750Y-69337186D01*
X216411564Y-69244000D01*
X216311130Y-69186014D01*
X216297437Y-69178108D01*
X216233789Y-69161054D01*
X216170142Y-69144000D01*
X216038358Y-69144000D01*
X215911062Y-69178108D01*
X215796936Y-69244000D01*
X215796933Y-69244002D01*
X215703752Y-69337183D01*
X215703750Y-69337186D01*
X215637858Y-69451312D01*
X215603750Y-69578608D01*
X213872800Y-69578608D01*
X213876392Y-69572386D01*
X213910500Y-69445092D01*
X213910500Y-69313308D01*
X213876392Y-69186014D01*
X213871827Y-69178108D01*
X213849537Y-69139500D01*
X213810500Y-69071886D01*
X213717314Y-68978700D01*
X213660250Y-68945754D01*
X213603187Y-68912808D01*
X213539539Y-68895754D01*
X213475892Y-68878700D01*
X213344108Y-68878700D01*
X213216812Y-68912808D01*
X213102686Y-68978700D01*
X213102683Y-68978702D01*
X213009502Y-69071883D01*
X213009500Y-69071886D01*
X212943608Y-69186012D01*
X212909500Y-69313308D01*
X210837047Y-69313308D01*
X210790500Y-69232686D01*
X210697314Y-69139500D01*
X210640250Y-69106554D01*
X210583187Y-69073608D01*
X210519539Y-69056554D01*
X210455892Y-69039500D01*
X210324108Y-69039500D01*
X210196812Y-69073608D01*
X210082686Y-69139500D01*
X210082683Y-69139502D01*
X209989502Y-69232683D01*
X209989500Y-69232686D01*
X209923608Y-69346812D01*
X209889500Y-69474108D01*
X209889500Y-69605891D01*
X209923608Y-69733187D01*
X209950461Y-69779697D01*
X209989500Y-69847314D01*
X210082686Y-69940500D01*
X210181521Y-69997563D01*
X210196810Y-70006390D01*
X210196814Y-70006392D01*
X210313964Y-70037782D01*
X210373624Y-70074146D01*
X210404153Y-70136992D01*
X210395859Y-70206368D01*
X210351373Y-70260246D01*
X210341789Y-70266118D01*
X210328558Y-70273420D01*
X210311064Y-70278108D01*
X210196936Y-70344000D01*
X210192323Y-70348612D01*
X210179169Y-70355873D01*
X210153794Y-70361513D01*
X210129551Y-70370882D01*
X210120242Y-70368971D01*
X210110964Y-70371034D01*
X210086569Y-70362060D01*
X210061108Y-70356835D01*
X210046047Y-70347155D01*
X210045390Y-70346913D01*
X210045124Y-70346561D01*
X210043764Y-70345687D01*
X210041567Y-70344001D01*
X209927437Y-70278107D01*
X209845181Y-70256067D01*
X209800142Y-70243999D01*
X209668358Y-70243999D01*
X209541064Y-70278107D01*
X209541063Y-70278107D01*
X209541061Y-70278108D01*
X209541060Y-70278108D01*
X209435849Y-70338852D01*
X209367949Y-70355325D01*
X209311849Y-70338852D01*
X209273822Y-70316897D01*
X209227539Y-70290175D01*
X209115840Y-70260246D01*
X209100244Y-70256067D01*
X208968460Y-70256067D01*
X208841164Y-70290175D01*
X208727038Y-70356067D01*
X208727035Y-70356069D01*
X208633854Y-70449250D01*
X208633852Y-70449253D01*
X208567960Y-70563379D01*
X208533852Y-70690675D01*
X171710000Y-70690675D01*
X171710000Y-68128608D01*
X215603750Y-68128608D01*
X215603750Y-68260391D01*
X215637858Y-68387687D01*
X215670804Y-68444750D01*
X215703750Y-68501814D01*
X215796936Y-68595000D01*
X215911064Y-68660892D01*
X216038358Y-68695000D01*
X216038360Y-68695000D01*
X216170140Y-68695000D01*
X216170142Y-68695000D01*
X216297436Y-68660892D01*
X216411564Y-68595000D01*
X216504750Y-68501814D01*
X216570642Y-68387686D01*
X216604750Y-68260392D01*
X216604750Y-68128608D01*
X216570642Y-68001314D01*
X216504750Y-67887186D01*
X216411564Y-67794000D01*
X216354500Y-67761054D01*
X216297437Y-67728108D01*
X216233789Y-67711054D01*
X216170142Y-67694000D01*
X216038358Y-67694000D01*
X215911062Y-67728108D01*
X215796936Y-67794000D01*
X215796933Y-67794002D01*
X215703752Y-67887183D01*
X215703750Y-67887186D01*
X215637858Y-68001312D01*
X215603750Y-68128608D01*
X171710000Y-68128608D01*
X171710000Y-65852307D01*
X213450800Y-65852307D01*
X213450800Y-65984090D01*
X213484908Y-66111386D01*
X213517854Y-66168449D01*
X213550800Y-66225513D01*
X213643986Y-66318699D01*
X213758114Y-66384591D01*
X213885408Y-66418699D01*
X213885410Y-66418699D01*
X214017190Y-66418699D01*
X214017192Y-66418699D01*
X214144486Y-66384591D01*
X214258614Y-66318699D01*
X214351800Y-66225513D01*
X214417692Y-66111385D01*
X214451800Y-65984091D01*
X214451800Y-65852307D01*
X214417692Y-65725013D01*
X214351800Y-65610885D01*
X214258614Y-65517699D01*
X214201550Y-65484753D01*
X214144487Y-65451807D01*
X214080839Y-65434753D01*
X214017192Y-65417699D01*
X213885408Y-65417699D01*
X213758112Y-65451807D01*
X213643986Y-65517699D01*
X213643983Y-65517701D01*
X213550802Y-65610882D01*
X213550800Y-65610885D01*
X213484908Y-65725011D01*
X213450800Y-65852307D01*
X171710000Y-65852307D01*
X171710000Y-64811312D01*
X215171796Y-64811312D01*
X215171796Y-64943095D01*
X215205904Y-65070391D01*
X215238850Y-65127454D01*
X215271796Y-65184518D01*
X215364982Y-65277704D01*
X215479110Y-65343596D01*
X215606404Y-65377704D01*
X215606406Y-65377704D01*
X215738186Y-65377704D01*
X215738188Y-65377704D01*
X215865482Y-65343596D01*
X215979610Y-65277704D01*
X216072796Y-65184518D01*
X216138688Y-65070390D01*
X216172796Y-64943096D01*
X216172796Y-64811312D01*
X216138688Y-64684018D01*
X216072796Y-64569890D01*
X215979610Y-64476704D01*
X215922546Y-64443758D01*
X215865483Y-64410812D01*
X215801835Y-64393758D01*
X215738188Y-64376704D01*
X215606404Y-64376704D01*
X215479108Y-64410812D01*
X215364982Y-64476704D01*
X215364979Y-64476706D01*
X215271798Y-64569887D01*
X215271796Y-64569890D01*
X215205904Y-64684016D01*
X215171796Y-64811312D01*
X171710000Y-64811312D01*
X171710000Y-64111812D01*
X216623760Y-64111812D01*
X216623760Y-64243595D01*
X216657868Y-64370891D01*
X216680917Y-64410812D01*
X216723760Y-64485018D01*
X216816946Y-64578204D01*
X216931074Y-64644096D01*
X217058368Y-64678204D01*
X217058370Y-64678204D01*
X217190149Y-64678204D01*
X217190152Y-64678204D01*
X217194443Y-64677054D01*
X217198205Y-64677143D01*
X217198209Y-64677143D01*
X217264290Y-64678713D01*
X217322155Y-64717872D01*
X217324917Y-64721340D01*
X217329497Y-64727309D01*
X217329500Y-64727314D01*
X217422686Y-64820500D01*
X217536814Y-64886392D01*
X217664108Y-64920500D01*
X217664110Y-64920500D01*
X217795890Y-64920500D01*
X217795892Y-64920500D01*
X217923186Y-64886392D01*
X218037314Y-64820500D01*
X218130500Y-64727314D01*
X218196392Y-64613186D01*
X218230500Y-64485892D01*
X218230500Y-64354108D01*
X218196392Y-64226814D01*
X218130500Y-64112686D01*
X218037314Y-64019500D01*
X217976720Y-63984516D01*
X217923187Y-63953608D01*
X217859539Y-63936554D01*
X217795892Y-63919500D01*
X217664108Y-63919500D01*
X217664106Y-63919500D01*
X217659804Y-63920653D01*
X217589955Y-63918986D01*
X217532094Y-63879820D01*
X217529341Y-63876361D01*
X217524762Y-63870393D01*
X217524760Y-63870390D01*
X217431574Y-63777204D01*
X217374510Y-63744258D01*
X217317447Y-63711312D01*
X217253799Y-63694258D01*
X217190152Y-63677204D01*
X217058368Y-63677204D01*
X216931072Y-63711312D01*
X216816946Y-63777204D01*
X216816943Y-63777206D01*
X216723762Y-63870387D01*
X216723760Y-63870390D01*
X216657868Y-63984516D01*
X216623760Y-64111812D01*
X171710000Y-64111812D01*
X171710000Y-55194071D01*
X177109499Y-55194071D01*
X177134497Y-55319738D01*
X177134499Y-55319744D01*
X177183533Y-55438124D01*
X177183537Y-55438131D01*
X177237277Y-55518559D01*
X177258154Y-55585236D01*
X177239669Y-55652616D01*
X177237277Y-55656338D01*
X177213540Y-55691863D01*
X177213533Y-55691875D01*
X177164499Y-55810255D01*
X177164497Y-55810261D01*
X177139500Y-55935928D01*
X177139500Y-55935931D01*
X177139500Y-56064069D01*
X177139500Y-56064071D01*
X177139499Y-56064071D01*
X177164497Y-56189738D01*
X177164499Y-56189744D01*
X177213533Y-56308124D01*
X177213538Y-56308132D01*
X177270663Y-56393625D01*
X177291541Y-56460302D01*
X177273057Y-56527682D01*
X177270663Y-56531406D01*
X177203541Y-56631861D01*
X177203533Y-56631875D01*
X177154499Y-56750255D01*
X177154497Y-56750261D01*
X177129500Y-56875928D01*
X177129500Y-56875931D01*
X177129500Y-57004069D01*
X177129500Y-57004071D01*
X177129499Y-57004071D01*
X177154497Y-57129738D01*
X177154499Y-57129744D01*
X177203533Y-57248124D01*
X177203538Y-57248133D01*
X177274723Y-57354668D01*
X177274726Y-57354672D01*
X177365327Y-57445273D01*
X177365331Y-57445276D01*
X177471866Y-57516461D01*
X177471872Y-57516464D01*
X177471873Y-57516465D01*
X177590256Y-57565501D01*
X177590260Y-57565501D01*
X177590261Y-57565502D01*
X177715928Y-57590500D01*
X177715931Y-57590500D01*
X177844071Y-57590500D01*
X177928615Y-57573682D01*
X177969744Y-57565501D01*
X178088127Y-57516465D01*
X178168558Y-57462723D01*
X178235235Y-57441845D01*
X178302616Y-57460329D01*
X178306340Y-57462723D01*
X178341866Y-57486461D01*
X178341872Y-57486464D01*
X178341873Y-57486465D01*
X178460256Y-57535501D01*
X178460260Y-57535501D01*
X178460261Y-57535502D01*
X178585928Y-57560500D01*
X178585931Y-57560500D01*
X178714071Y-57560500D01*
X178798615Y-57543682D01*
X178839744Y-57535501D01*
X178958127Y-57486465D01*
X179031109Y-57437699D01*
X179097786Y-57416822D01*
X179165166Y-57435306D01*
X179168889Y-57437698D01*
X179241873Y-57486465D01*
X179360256Y-57535501D01*
X179360260Y-57535501D01*
X179360261Y-57535502D01*
X179485928Y-57560500D01*
X179485931Y-57560500D01*
X179614071Y-57560500D01*
X179698615Y-57543682D01*
X179739744Y-57535501D01*
X179858127Y-57486465D01*
X179964669Y-57415276D01*
X180055276Y-57324669D01*
X180126465Y-57218127D01*
X180175501Y-57099744D01*
X180194532Y-57004071D01*
X180200500Y-56974071D01*
X180200500Y-56845928D01*
X180175502Y-56720261D01*
X180175501Y-56720260D01*
X180175501Y-56720256D01*
X180126465Y-56601873D01*
X180077699Y-56528890D01*
X180056822Y-56462214D01*
X180075306Y-56394834D01*
X180077700Y-56391109D01*
X180126465Y-56318127D01*
X180175501Y-56199744D01*
X180200500Y-56074069D01*
X180200500Y-55945931D01*
X180200500Y-55945928D01*
X180175502Y-55820261D01*
X180175501Y-55820260D01*
X180175501Y-55820256D01*
X180126465Y-55701873D01*
X180126464Y-55701872D01*
X180126461Y-55701866D01*
X180094405Y-55653891D01*
X180073527Y-55587213D01*
X180092011Y-55519833D01*
X180094405Y-55516109D01*
X180126461Y-55468133D01*
X180126461Y-55468132D01*
X180126465Y-55468127D01*
X180175501Y-55349744D01*
X180200500Y-55224069D01*
X180200500Y-55095931D01*
X180200500Y-55095928D01*
X180175502Y-54970261D01*
X180175501Y-54970260D01*
X180175501Y-54970256D01*
X180126465Y-54851873D01*
X180087700Y-54793857D01*
X180066822Y-54727180D01*
X180085306Y-54659800D01*
X180087700Y-54656075D01*
X180127746Y-54596142D01*
X180146465Y-54568127D01*
X180195501Y-54449744D01*
X180214662Y-54353418D01*
X180220500Y-54324071D01*
X180220500Y-54195928D01*
X180195502Y-54070261D01*
X180195501Y-54070260D01*
X180195501Y-54070256D01*
X180146465Y-53951873D01*
X180146464Y-53951872D01*
X180146461Y-53951866D01*
X180075276Y-53845331D01*
X180075273Y-53845327D01*
X179984672Y-53754726D01*
X179984668Y-53754723D01*
X179878133Y-53683538D01*
X179878124Y-53683533D01*
X179759744Y-53634499D01*
X179759738Y-53634497D01*
X179634071Y-53609500D01*
X179634069Y-53609500D01*
X179505931Y-53609500D01*
X179505929Y-53609500D01*
X179380261Y-53634497D01*
X179380255Y-53634499D01*
X179261875Y-53683533D01*
X179261861Y-53683541D01*
X179188890Y-53732299D01*
X179122213Y-53753177D01*
X179054833Y-53734692D01*
X179051110Y-53732299D01*
X178978138Y-53683541D01*
X178978124Y-53683533D01*
X178859744Y-53634499D01*
X178859738Y-53634497D01*
X178734071Y-53609500D01*
X178734069Y-53609500D01*
X178605931Y-53609500D01*
X178605929Y-53609500D01*
X178480261Y-53634497D01*
X178480255Y-53634499D01*
X178361875Y-53683533D01*
X178361868Y-53683537D01*
X178316339Y-53713959D01*
X178249661Y-53734836D01*
X178182281Y-53716351D01*
X178178559Y-53713958D01*
X178088138Y-53653541D01*
X178088124Y-53653533D01*
X177969744Y-53604499D01*
X177969738Y-53604497D01*
X177844071Y-53579500D01*
X177844069Y-53579500D01*
X177715931Y-53579500D01*
X177715929Y-53579500D01*
X177590261Y-53604497D01*
X177590255Y-53604499D01*
X177471875Y-53653533D01*
X177471866Y-53653538D01*
X177365331Y-53724723D01*
X177365327Y-53724726D01*
X177274726Y-53815327D01*
X177274723Y-53815331D01*
X177203538Y-53921866D01*
X177203533Y-53921875D01*
X177154499Y-54040255D01*
X177154497Y-54040261D01*
X177129500Y-54165928D01*
X177129500Y-54165931D01*
X177129500Y-54294069D01*
X177129500Y-54294071D01*
X177129499Y-54294071D01*
X177154497Y-54419738D01*
X177154499Y-54419744D01*
X177203533Y-54538124D01*
X177203538Y-54538133D01*
X177242299Y-54596142D01*
X177263177Y-54662819D01*
X177244693Y-54730200D01*
X177242300Y-54733923D01*
X177183537Y-54821868D01*
X177183533Y-54821875D01*
X177134499Y-54940255D01*
X177134497Y-54940261D01*
X177109500Y-55065928D01*
X177109500Y-55065931D01*
X177109500Y-55194069D01*
X177109500Y-55194071D01*
X177109499Y-55194071D01*
X171710000Y-55194071D01*
X171710000Y-54550000D01*
X175330000Y-54550000D01*
X175400000Y-54480000D01*
X175400000Y-52594071D01*
X179969499Y-52594071D01*
X179994497Y-52719738D01*
X179994499Y-52719744D01*
X180043533Y-52838124D01*
X180043538Y-52838133D01*
X180114723Y-52944668D01*
X180114726Y-52944672D01*
X180205327Y-53035273D01*
X180205331Y-53035276D01*
X180311866Y-53106461D01*
X180311872Y-53106464D01*
X180311873Y-53106465D01*
X180430256Y-53155501D01*
X180430260Y-53155501D01*
X180430261Y-53155502D01*
X180555928Y-53180500D01*
X180555931Y-53180500D01*
X180684071Y-53180500D01*
X180800594Y-53157321D01*
X180809744Y-53155501D01*
X180928127Y-53106465D01*
X181034669Y-53035276D01*
X181125276Y-52944669D01*
X181196465Y-52838127D01*
X181245501Y-52719744D01*
X181258188Y-52655965D01*
X181290573Y-52594054D01*
X181351289Y-52559480D01*
X181421058Y-52563219D01*
X181477730Y-52604086D01*
X181501422Y-52655963D01*
X181509497Y-52696560D01*
X181509499Y-52696565D01*
X181558533Y-52814945D01*
X181558538Y-52814954D01*
X181629723Y-52921489D01*
X181629726Y-52921493D01*
X181720327Y-53012094D01*
X181720331Y-53012097D01*
X181826866Y-53083282D01*
X181826872Y-53083285D01*
X181826873Y-53083286D01*
X181945256Y-53132322D01*
X181945260Y-53132322D01*
X181945261Y-53132323D01*
X182070928Y-53157321D01*
X182070931Y-53157321D01*
X182199071Y-53157321D01*
X182283615Y-53140503D01*
X182324744Y-53132322D01*
X182443127Y-53083286D01*
X182549669Y-53012097D01*
X182640276Y-52921490D01*
X182711465Y-52814948D01*
X182760501Y-52696565D01*
X182780889Y-52594071D01*
X182785500Y-52570892D01*
X182785500Y-52442749D01*
X182760502Y-52317082D01*
X182760501Y-52317081D01*
X182760501Y-52317077D01*
X182721063Y-52221866D01*
X182711466Y-52198696D01*
X182711461Y-52198687D01*
X182640276Y-52092152D01*
X182640273Y-52092148D01*
X182549672Y-52001547D01*
X182549668Y-52001544D01*
X182443133Y-51930359D01*
X182443124Y-51930354D01*
X182324744Y-51881320D01*
X182324738Y-51881318D01*
X182199071Y-51856321D01*
X182199069Y-51856321D01*
X182070931Y-51856321D01*
X182070929Y-51856321D01*
X181945261Y-51881318D01*
X181945255Y-51881320D01*
X181826875Y-51930354D01*
X181826866Y-51930359D01*
X181720331Y-52001544D01*
X181720327Y-52001547D01*
X181629726Y-52092148D01*
X181629723Y-52092152D01*
X181558538Y-52198687D01*
X181558533Y-52198696D01*
X181509499Y-52317076D01*
X181509497Y-52317081D01*
X181496811Y-52380857D01*
X181464425Y-52442768D01*
X181403708Y-52477341D01*
X181333939Y-52473600D01*
X181277268Y-52432733D01*
X181253577Y-52380855D01*
X181245502Y-52340263D01*
X181245502Y-52340261D01*
X181245501Y-52340256D01*
X181196465Y-52221873D01*
X181196464Y-52221872D01*
X181196461Y-52221866D01*
X181125276Y-52115331D01*
X181125273Y-52115327D01*
X181034672Y-52024726D01*
X181034668Y-52024723D01*
X180928133Y-51953538D01*
X180928124Y-51953533D01*
X180809744Y-51904499D01*
X180809738Y-51904497D01*
X180684071Y-51879500D01*
X180684069Y-51879500D01*
X180555931Y-51879500D01*
X180555929Y-51879500D01*
X180430261Y-51904497D01*
X180430255Y-51904499D01*
X180311875Y-51953533D01*
X180311866Y-51953538D01*
X180205331Y-52024723D01*
X180205327Y-52024726D01*
X180114726Y-52115327D01*
X180114723Y-52115331D01*
X180043538Y-52221866D01*
X180043533Y-52221875D01*
X179994499Y-52340255D01*
X179994497Y-52340261D01*
X179969500Y-52465928D01*
X179969500Y-52465931D01*
X179969500Y-52594069D01*
X179969500Y-52594071D01*
X179969499Y-52594071D01*
X175400000Y-52594071D01*
X175400000Y-51950000D01*
X173277814Y-51950000D01*
X173320500Y-51907314D01*
X173386392Y-51793186D01*
X173420500Y-51665892D01*
X173420500Y-51534108D01*
X173386392Y-51406814D01*
X173320500Y-51292686D01*
X173227314Y-51199500D01*
X173143847Y-51151310D01*
X173113187Y-51133608D01*
X173032894Y-51112094D01*
X172985892Y-51099500D01*
X172854108Y-51099500D01*
X172726812Y-51133608D01*
X172612686Y-51199500D01*
X172612683Y-51199502D01*
X172519502Y-51292683D01*
X172519500Y-51292686D01*
X172453608Y-51406812D01*
X172419500Y-51534108D01*
X172419500Y-51665891D01*
X172453608Y-51793187D01*
X172486554Y-51850250D01*
X172519500Y-51907314D01*
X172562186Y-51950000D01*
X171710000Y-51950000D01*
X171710000Y-50815929D01*
X185459500Y-50815929D01*
X185459500Y-50947713D01*
X185472454Y-50996058D01*
X185493608Y-51075008D01*
X185515020Y-51112094D01*
X185559500Y-51189135D01*
X185652686Y-51282321D01*
X185766814Y-51348213D01*
X185894108Y-51382321D01*
X185894110Y-51382321D01*
X186025890Y-51382321D01*
X186025892Y-51382321D01*
X186153186Y-51348213D01*
X186267314Y-51282321D01*
X186360500Y-51189135D01*
X186426392Y-51075007D01*
X186460500Y-50947713D01*
X186460500Y-50815929D01*
X186426392Y-50688635D01*
X186416148Y-50670892D01*
X187884499Y-50670892D01*
X187909497Y-50796559D01*
X187909499Y-50796565D01*
X187958533Y-50914945D01*
X187958538Y-50914954D01*
X188029723Y-51021489D01*
X188029726Y-51021493D01*
X188120327Y-51112094D01*
X188120331Y-51112097D01*
X188226866Y-51183282D01*
X188226875Y-51183287D01*
X188253692Y-51194395D01*
X188345256Y-51232322D01*
X188345260Y-51232322D01*
X188345261Y-51232323D01*
X188470928Y-51257321D01*
X188470931Y-51257321D01*
X188599071Y-51257321D01*
X188683615Y-51240503D01*
X188724744Y-51232322D01*
X188843127Y-51183286D01*
X188949669Y-51112097D01*
X189040276Y-51021490D01*
X189111465Y-50914948D01*
X189160501Y-50796565D01*
X189178775Y-50704698D01*
X189185500Y-50670892D01*
X189185500Y-50542749D01*
X189160502Y-50417082D01*
X189160501Y-50417081D01*
X189160501Y-50417077D01*
X189120936Y-50321559D01*
X189111466Y-50298696D01*
X189111461Y-50298687D01*
X189040276Y-50192152D01*
X189040273Y-50192148D01*
X188949672Y-50101547D01*
X188949668Y-50101544D01*
X188843133Y-50030359D01*
X188843124Y-50030354D01*
X188724744Y-49981320D01*
X188724738Y-49981318D01*
X188599071Y-49956321D01*
X188599069Y-49956321D01*
X188470931Y-49956321D01*
X188470929Y-49956321D01*
X188345261Y-49981318D01*
X188345255Y-49981320D01*
X188226875Y-50030354D01*
X188226866Y-50030359D01*
X188120331Y-50101544D01*
X188120327Y-50101547D01*
X188029726Y-50192148D01*
X188029723Y-50192152D01*
X187958538Y-50298687D01*
X187958533Y-50298696D01*
X187909499Y-50417076D01*
X187909497Y-50417082D01*
X187884500Y-50542749D01*
X187884500Y-50542752D01*
X187884500Y-50670890D01*
X187884500Y-50670892D01*
X187884499Y-50670892D01*
X186416148Y-50670892D01*
X186396636Y-50637097D01*
X186374446Y-50598662D01*
X186374445Y-50598661D01*
X186360500Y-50574507D01*
X186267314Y-50481321D01*
X186210250Y-50448375D01*
X186153187Y-50415429D01*
X186089539Y-50398375D01*
X186025892Y-50381321D01*
X185894108Y-50381321D01*
X185766812Y-50415429D01*
X185652686Y-50481321D01*
X185652683Y-50481323D01*
X185559502Y-50574504D01*
X185559500Y-50574507D01*
X185493608Y-50688633D01*
X185462999Y-50802871D01*
X185459500Y-50815929D01*
X171710000Y-50815929D01*
X171710000Y-50195892D01*
X181734499Y-50195892D01*
X181759497Y-50321559D01*
X181759499Y-50321565D01*
X181808533Y-50439945D01*
X181808538Y-50439954D01*
X181879723Y-50546489D01*
X181879726Y-50546493D01*
X181970327Y-50637094D01*
X181970331Y-50637097D01*
X182076866Y-50708282D01*
X182076872Y-50708285D01*
X182076873Y-50708286D01*
X182195256Y-50757322D01*
X182195260Y-50757322D01*
X182195261Y-50757323D01*
X182320928Y-50782321D01*
X182320931Y-50782321D01*
X182449071Y-50782321D01*
X182533615Y-50765503D01*
X182574744Y-50757322D01*
X182693127Y-50708286D01*
X182695399Y-50706767D01*
X182698496Y-50704699D01*
X182698496Y-50704698D01*
X182799669Y-50637097D01*
X182890276Y-50546490D01*
X182961465Y-50439948D01*
X183010501Y-50321565D01*
X183035500Y-50195890D01*
X183035500Y-50067752D01*
X183035500Y-50067749D01*
X183010502Y-49942082D01*
X183010501Y-49942081D01*
X183010501Y-49942077D01*
X182961465Y-49823694D01*
X182961464Y-49823693D01*
X182961461Y-49823687D01*
X182890276Y-49717152D01*
X182890273Y-49717148D01*
X182799672Y-49626547D01*
X182799668Y-49626544D01*
X182693133Y-49555359D01*
X182693124Y-49555354D01*
X182574744Y-49506320D01*
X182574738Y-49506318D01*
X182449071Y-49481321D01*
X182449069Y-49481321D01*
X182320931Y-49481321D01*
X182320929Y-49481321D01*
X182195261Y-49506318D01*
X182195255Y-49506320D01*
X182076875Y-49555354D01*
X182076866Y-49555359D01*
X181970331Y-49626544D01*
X181970327Y-49626547D01*
X181879726Y-49717148D01*
X181879723Y-49717152D01*
X181808538Y-49823687D01*
X181808533Y-49823696D01*
X181759499Y-49942076D01*
X181759497Y-49942082D01*
X181734500Y-50067749D01*
X181734500Y-50067752D01*
X181734500Y-50195890D01*
X181734500Y-50195892D01*
X181734499Y-50195892D01*
X171710000Y-50195892D01*
X171710000Y-47920892D01*
X181559499Y-47920892D01*
X181584497Y-48046559D01*
X181584499Y-48046565D01*
X181633533Y-48164945D01*
X181633538Y-48164954D01*
X181704723Y-48271489D01*
X181704726Y-48271493D01*
X181795327Y-48362094D01*
X181795331Y-48362097D01*
X181901866Y-48433282D01*
X181901872Y-48433285D01*
X181901873Y-48433286D01*
X182020256Y-48482322D01*
X182020260Y-48482322D01*
X182020261Y-48482323D01*
X182145928Y-48507321D01*
X182145931Y-48507321D01*
X182274071Y-48507321D01*
X182358615Y-48490503D01*
X182399744Y-48482322D01*
X182518127Y-48433286D01*
X182624669Y-48362097D01*
X182715276Y-48271490D01*
X182786465Y-48164948D01*
X182835501Y-48046565D01*
X182855527Y-47945892D01*
X184359499Y-47945892D01*
X184384497Y-48071559D01*
X184384499Y-48071565D01*
X184433533Y-48189945D01*
X184433538Y-48189954D01*
X184504723Y-48296489D01*
X184504726Y-48296493D01*
X184595327Y-48387094D01*
X184595331Y-48387097D01*
X184701866Y-48458282D01*
X184701872Y-48458285D01*
X184701873Y-48458286D01*
X184820256Y-48507322D01*
X184820260Y-48507322D01*
X184820261Y-48507323D01*
X184945928Y-48532321D01*
X184945931Y-48532321D01*
X185074071Y-48532321D01*
X185158615Y-48515503D01*
X185199744Y-48507322D01*
X185318127Y-48458286D01*
X185424669Y-48387097D01*
X185515276Y-48296490D01*
X185586465Y-48189948D01*
X185635501Y-48071565D01*
X185649277Y-48002309D01*
X185660500Y-47945892D01*
X187059499Y-47945892D01*
X187084497Y-48071559D01*
X187084499Y-48071565D01*
X187133533Y-48189945D01*
X187133538Y-48189954D01*
X187204723Y-48296489D01*
X187204726Y-48296493D01*
X187295327Y-48387094D01*
X187295331Y-48387097D01*
X187401866Y-48458282D01*
X187401872Y-48458285D01*
X187401873Y-48458286D01*
X187520256Y-48507322D01*
X187520260Y-48507322D01*
X187520261Y-48507323D01*
X187645928Y-48532321D01*
X187645931Y-48532321D01*
X187774071Y-48532321D01*
X187858615Y-48515503D01*
X187899744Y-48507322D01*
X188018127Y-48458286D01*
X188124669Y-48387097D01*
X188215276Y-48296490D01*
X188286465Y-48189948D01*
X188335501Y-48071565D01*
X188349277Y-48002309D01*
X188360500Y-47945892D01*
X188360500Y-47817749D01*
X188335502Y-47692082D01*
X188335501Y-47692081D01*
X188335501Y-47692077D01*
X188286465Y-47573694D01*
X188286464Y-47573693D01*
X188286461Y-47573687D01*
X188215276Y-47467152D01*
X188215273Y-47467148D01*
X188124672Y-47376547D01*
X188124668Y-47376544D01*
X188018133Y-47305359D01*
X188018124Y-47305354D01*
X187899744Y-47256320D01*
X187899738Y-47256318D01*
X187774071Y-47231321D01*
X187774069Y-47231321D01*
X187645931Y-47231321D01*
X187645929Y-47231321D01*
X187520261Y-47256318D01*
X187520255Y-47256320D01*
X187401875Y-47305354D01*
X187401866Y-47305359D01*
X187295331Y-47376544D01*
X187295327Y-47376547D01*
X187204726Y-47467148D01*
X187204723Y-47467152D01*
X187133538Y-47573687D01*
X187133533Y-47573696D01*
X187084499Y-47692076D01*
X187084497Y-47692082D01*
X187059500Y-47817749D01*
X187059500Y-47817752D01*
X187059500Y-47945890D01*
X187059500Y-47945892D01*
X187059499Y-47945892D01*
X185660500Y-47945892D01*
X185660500Y-47817749D01*
X185635502Y-47692082D01*
X185635501Y-47692081D01*
X185635501Y-47692077D01*
X185586465Y-47573694D01*
X185586464Y-47573693D01*
X185586461Y-47573687D01*
X185515276Y-47467152D01*
X185515273Y-47467148D01*
X185424672Y-47376547D01*
X185424668Y-47376544D01*
X185318133Y-47305359D01*
X185318124Y-47305354D01*
X185199744Y-47256320D01*
X185199738Y-47256318D01*
X185074071Y-47231321D01*
X185074069Y-47231321D01*
X184945931Y-47231321D01*
X184945929Y-47231321D01*
X184820261Y-47256318D01*
X184820255Y-47256320D01*
X184701875Y-47305354D01*
X184701866Y-47305359D01*
X184595331Y-47376544D01*
X184595327Y-47376547D01*
X184504726Y-47467148D01*
X184504723Y-47467152D01*
X184433538Y-47573687D01*
X184433533Y-47573696D01*
X184384499Y-47692076D01*
X184384497Y-47692082D01*
X184359500Y-47817749D01*
X184359500Y-47817752D01*
X184359500Y-47945890D01*
X184359500Y-47945892D01*
X184359499Y-47945892D01*
X182855527Y-47945892D01*
X182860500Y-47920890D01*
X182860500Y-47792752D01*
X182860500Y-47792749D01*
X182835502Y-47667082D01*
X182835501Y-47667081D01*
X182835501Y-47667077D01*
X182786465Y-47548694D01*
X182786464Y-47548693D01*
X182786461Y-47548687D01*
X182715276Y-47442152D01*
X182715273Y-47442148D01*
X182624672Y-47351547D01*
X182624668Y-47351544D01*
X182518133Y-47280359D01*
X182518124Y-47280354D01*
X182399744Y-47231320D01*
X182399738Y-47231318D01*
X182274071Y-47206321D01*
X182274069Y-47206321D01*
X182145931Y-47206321D01*
X182145929Y-47206321D01*
X182020261Y-47231318D01*
X182020255Y-47231320D01*
X181901875Y-47280354D01*
X181901866Y-47280359D01*
X181795331Y-47351544D01*
X181795327Y-47351547D01*
X181704726Y-47442148D01*
X181704723Y-47442152D01*
X181633538Y-47548687D01*
X181633533Y-47548696D01*
X181584499Y-47667076D01*
X181584497Y-47667082D01*
X181559500Y-47792749D01*
X181559500Y-47792752D01*
X181559500Y-47920890D01*
X181559500Y-47920892D01*
X181559499Y-47920892D01*
X171710000Y-47920892D01*
X171710000Y-44578827D01*
X178844219Y-44578827D01*
X178844219Y-44710611D01*
X178852194Y-44740374D01*
X178878327Y-44837906D01*
X178911273Y-44894969D01*
X178944219Y-44952033D01*
X179037405Y-45045219D01*
X179151533Y-45111111D01*
X179278827Y-45145219D01*
X179278829Y-45145219D01*
X179410609Y-45145219D01*
X179410611Y-45145219D01*
X179537905Y-45111111D01*
X179652033Y-45045219D01*
X179745219Y-44952033D01*
X179811111Y-44837905D01*
X179845219Y-44710611D01*
X179845219Y-44710602D01*
X179846280Y-44702551D01*
X179848339Y-44702822D01*
X179864904Y-44646409D01*
X179917708Y-44600654D01*
X179986866Y-44590710D01*
X180001292Y-44593668D01*
X180064108Y-44610500D01*
X180064111Y-44610500D01*
X180195890Y-44610500D01*
X180195892Y-44610500D01*
X180323186Y-44576392D01*
X180437314Y-44510500D01*
X180530500Y-44417314D01*
X180559453Y-44367166D01*
X196908310Y-44367166D01*
X196908310Y-44498949D01*
X196942418Y-44626245D01*
X196954060Y-44646409D01*
X197008310Y-44740372D01*
X197101496Y-44833558D01*
X197101499Y-44833559D01*
X197101502Y-44833562D01*
X197136549Y-44853797D01*
X197184764Y-44904364D01*
X197197986Y-44972972D01*
X197172018Y-45037836D01*
X197136549Y-45068569D01*
X197101502Y-45088803D01*
X197101493Y-45088810D01*
X197008312Y-45181991D01*
X197008310Y-45181994D01*
X196942418Y-45296120D01*
X196908310Y-45423416D01*
X196908310Y-45555199D01*
X196942418Y-45682495D01*
X196975364Y-45739558D01*
X197008310Y-45796622D01*
X197101496Y-45889808D01*
X197101499Y-45889809D01*
X197101502Y-45889812D01*
X197136549Y-45910047D01*
X197184764Y-45960614D01*
X197197986Y-46029222D01*
X197172018Y-46094086D01*
X197136549Y-46124819D01*
X197101502Y-46145053D01*
X197101493Y-46145060D01*
X197008312Y-46238241D01*
X197008310Y-46238244D01*
X196942418Y-46352370D01*
X196908310Y-46479666D01*
X196908310Y-46611449D01*
X196942418Y-46738745D01*
X196975364Y-46795808D01*
X197008310Y-46852872D01*
X197101496Y-46946058D01*
X197101499Y-46946059D01*
X197101502Y-46946062D01*
X197136549Y-46966297D01*
X197184764Y-47016864D01*
X197197986Y-47085472D01*
X197172018Y-47150336D01*
X197136549Y-47181069D01*
X197101502Y-47201303D01*
X197101493Y-47201310D01*
X197008312Y-47294491D01*
X197008310Y-47294494D01*
X196942418Y-47408620D01*
X196926736Y-47467148D01*
X196908310Y-47535916D01*
X196908310Y-47667700D01*
X196914842Y-47692077D01*
X196942418Y-47794995D01*
X196955557Y-47817752D01*
X197008310Y-47909122D01*
X197101496Y-48002308D01*
X197126547Y-48016771D01*
X197146548Y-48028319D01*
X197194764Y-48078886D01*
X197207986Y-48147493D01*
X197182018Y-48212358D01*
X197146551Y-48243091D01*
X197121502Y-48257553D01*
X197121493Y-48257560D01*
X197028312Y-48350741D01*
X197028310Y-48350744D01*
X196962418Y-48464870D01*
X196928310Y-48592166D01*
X196928310Y-48723949D01*
X196962418Y-48851245D01*
X196996593Y-48910436D01*
X197028310Y-48965372D01*
X197028311Y-48965373D01*
X197028314Y-48965378D01*
X197030114Y-48967724D01*
X197031016Y-48970058D01*
X197032374Y-48972410D01*
X197032007Y-48972621D01*
X197055306Y-49032894D01*
X197041264Y-49101339D01*
X197019423Y-49130881D01*
X197018312Y-49131991D01*
X197018310Y-49131994D01*
X196952418Y-49246120D01*
X196918310Y-49373416D01*
X196918310Y-49505199D01*
X196952418Y-49632495D01*
X196985364Y-49689558D01*
X197018310Y-49746622D01*
X197111496Y-49839808D01*
X197111499Y-49839809D01*
X197111502Y-49839812D01*
X197146549Y-49860047D01*
X197194764Y-49910614D01*
X197207986Y-49979222D01*
X197182018Y-50044086D01*
X197146549Y-50074819D01*
X197111502Y-50095053D01*
X197111493Y-50095060D01*
X197018312Y-50188241D01*
X197018310Y-50188244D01*
X196952418Y-50302370D01*
X196947275Y-50321565D01*
X196918310Y-50429666D01*
X196918310Y-50561450D01*
X196927984Y-50597555D01*
X196952418Y-50688745D01*
X196985364Y-50745808D01*
X197018310Y-50802872D01*
X197111496Y-50896058D01*
X197111499Y-50896059D01*
X197111502Y-50896062D01*
X197146549Y-50916297D01*
X197194764Y-50966864D01*
X197207986Y-51035472D01*
X197182018Y-51100336D01*
X197146549Y-51131069D01*
X197111502Y-51151303D01*
X197111493Y-51151310D01*
X197018312Y-51244491D01*
X197018310Y-51244494D01*
X196952418Y-51358620D01*
X196918310Y-51485916D01*
X196918310Y-51617699D01*
X196952418Y-51744995D01*
X196980242Y-51793186D01*
X197018310Y-51859122D01*
X197111496Y-51952308D01*
X197111499Y-51952309D01*
X197111502Y-51952312D01*
X197146549Y-51972547D01*
X197194764Y-52023114D01*
X197207986Y-52091722D01*
X197182018Y-52156586D01*
X197146549Y-52187319D01*
X197111502Y-52207553D01*
X197111493Y-52207560D01*
X197018312Y-52300741D01*
X197018310Y-52300744D01*
X196952418Y-52414870D01*
X196918310Y-52542166D01*
X196918310Y-52673949D01*
X196952418Y-52801245D01*
X197018310Y-52915372D01*
X197019823Y-52917343D01*
X197020582Y-52919306D01*
X197022374Y-52922410D01*
X197021890Y-52922689D01*
X197045019Y-52982512D01*
X197030982Y-53050957D01*
X197028836Y-53054832D01*
X196962419Y-53169868D01*
X196962419Y-53169869D01*
X196928310Y-53297166D01*
X196928310Y-53428949D01*
X196962418Y-53556245D01*
X196975845Y-53579500D01*
X197028310Y-53670372D01*
X197121496Y-53763558D01*
X197121499Y-53763559D01*
X197121502Y-53763562D01*
X197156549Y-53783797D01*
X197204764Y-53834364D01*
X197217986Y-53902972D01*
X197192018Y-53967836D01*
X197156549Y-53998569D01*
X197121502Y-54018803D01*
X197121493Y-54018810D01*
X197028312Y-54111991D01*
X197028310Y-54111994D01*
X196962418Y-54226120D01*
X196928310Y-54353416D01*
X196928310Y-54485199D01*
X196962418Y-54612495D01*
X196989730Y-54659800D01*
X197028310Y-54726622D01*
X197121496Y-54819808D01*
X197235624Y-54885700D01*
X197362918Y-54919808D01*
X197362920Y-54919808D01*
X197494700Y-54919808D01*
X197494702Y-54919808D01*
X197621996Y-54885700D01*
X197736124Y-54819808D01*
X197796129Y-54759803D01*
X197857452Y-54726318D01*
X197927144Y-54731302D01*
X197971491Y-54759803D01*
X198031496Y-54819808D01*
X198145624Y-54885700D01*
X198272918Y-54919808D01*
X198272920Y-54919808D01*
X198404700Y-54919808D01*
X198404702Y-54919808D01*
X198531996Y-54885700D01*
X198646124Y-54819808D01*
X198706129Y-54759803D01*
X198767452Y-54726318D01*
X198837144Y-54731302D01*
X198881491Y-54759803D01*
X198941496Y-54819808D01*
X199055624Y-54885700D01*
X199182918Y-54919808D01*
X199182920Y-54919808D01*
X199314700Y-54919808D01*
X199314702Y-54919808D01*
X199441996Y-54885700D01*
X199556124Y-54819808D01*
X199616129Y-54759803D01*
X199677452Y-54726318D01*
X199747144Y-54731302D01*
X199791491Y-54759803D01*
X199851496Y-54819808D01*
X199965624Y-54885700D01*
X200092918Y-54919808D01*
X200092920Y-54919808D01*
X200224700Y-54919808D01*
X200224702Y-54919808D01*
X200351996Y-54885700D01*
X200466124Y-54819808D01*
X200526129Y-54759803D01*
X200587452Y-54726318D01*
X200657144Y-54731302D01*
X200701491Y-54759803D01*
X200761496Y-54819808D01*
X200875624Y-54885700D01*
X201002918Y-54919808D01*
X201002920Y-54919808D01*
X201134700Y-54919808D01*
X201134702Y-54919808D01*
X201261996Y-54885700D01*
X201376124Y-54819808D01*
X201436129Y-54759803D01*
X201497452Y-54726318D01*
X201567144Y-54731302D01*
X201611491Y-54759803D01*
X201671496Y-54819808D01*
X201785624Y-54885700D01*
X201912918Y-54919808D01*
X201912920Y-54919808D01*
X202044700Y-54919808D01*
X202044702Y-54919808D01*
X202171996Y-54885700D01*
X202286124Y-54819808D01*
X202379310Y-54726622D01*
X202445202Y-54612494D01*
X202479310Y-54485200D01*
X202479310Y-54353416D01*
X202445202Y-54226122D01*
X202379310Y-54111994D01*
X202286124Y-54018808D01*
X202251071Y-53998570D01*
X202202855Y-53948003D01*
X202189633Y-53879396D01*
X202215601Y-53814531D01*
X202251071Y-53783796D01*
X202253307Y-53782504D01*
X202286124Y-53763558D01*
X202379310Y-53670372D01*
X202445202Y-53556244D01*
X202479310Y-53428950D01*
X202479310Y-53297166D01*
X202445202Y-53169872D01*
X202379310Y-53055744D01*
X202286124Y-52962558D01*
X202214998Y-52921493D01*
X202171997Y-52896666D01*
X202108349Y-52879612D01*
X202044702Y-52862558D01*
X201912918Y-52862558D01*
X201785622Y-52896666D01*
X201671496Y-52962558D01*
X201671493Y-52962560D01*
X201611491Y-53022563D01*
X201550168Y-53056048D01*
X201480476Y-53051064D01*
X201436129Y-53022563D01*
X201376126Y-52962560D01*
X201376124Y-52962558D01*
X201304998Y-52921493D01*
X201261997Y-52896666D01*
X201198349Y-52879612D01*
X201134702Y-52862558D01*
X201002918Y-52862558D01*
X200875622Y-52896666D01*
X200761496Y-52962558D01*
X200761493Y-52962560D01*
X200701491Y-53022563D01*
X200640168Y-53056048D01*
X200570476Y-53051064D01*
X200526129Y-53022563D01*
X200466126Y-52962560D01*
X200466124Y-52962558D01*
X200394998Y-52921493D01*
X200351997Y-52896666D01*
X200288349Y-52879612D01*
X200224702Y-52862558D01*
X200092918Y-52862558D01*
X199965622Y-52896666D01*
X199851496Y-52962558D01*
X199851493Y-52962560D01*
X199791491Y-53022563D01*
X199730168Y-53056048D01*
X199660476Y-53051064D01*
X199616129Y-53022563D01*
X199556126Y-52962560D01*
X199556124Y-52962558D01*
X199484998Y-52921493D01*
X199441997Y-52896666D01*
X199378349Y-52879612D01*
X199314702Y-52862558D01*
X199182918Y-52862558D01*
X199055624Y-52896666D01*
X199055623Y-52896666D01*
X199055621Y-52896667D01*
X199055620Y-52896667D01*
X198976549Y-52942319D01*
X198908648Y-52958792D01*
X198842622Y-52935939D01*
X198799431Y-52881018D01*
X198792790Y-52811464D01*
X198794774Y-52802839D01*
X198795201Y-52801245D01*
X198795202Y-52801244D01*
X198829310Y-52673950D01*
X198829310Y-52542166D01*
X198795202Y-52414872D01*
X198729310Y-52300744D01*
X198636124Y-52207558D01*
X198601071Y-52187320D01*
X198552855Y-52136753D01*
X198539633Y-52068146D01*
X198565601Y-52003281D01*
X198601071Y-51972546D01*
X198603307Y-51971254D01*
X198636124Y-51952308D01*
X198729310Y-51859122D01*
X198795202Y-51744994D01*
X198829310Y-51617700D01*
X198829310Y-51485916D01*
X198795202Y-51358622D01*
X198729310Y-51244494D01*
X198636124Y-51151308D01*
X198601071Y-51131070D01*
X198552855Y-51080503D01*
X198539633Y-51011896D01*
X198565601Y-50947031D01*
X198578962Y-50933389D01*
X199659323Y-50933389D01*
X199659323Y-51106611D01*
X199660192Y-51112097D01*
X199681161Y-51244494D01*
X199686421Y-51277701D01*
X199739950Y-51442445D01*
X199818591Y-51596788D01*
X199920409Y-51736928D01*
X200042895Y-51859414D01*
X200183035Y-51961232D01*
X200337378Y-52039873D01*
X200502122Y-52093402D01*
X200673212Y-52120500D01*
X200673213Y-52120500D01*
X200846433Y-52120500D01*
X200846434Y-52120500D01*
X201017524Y-52093402D01*
X201182268Y-52039873D01*
X201336611Y-51961232D01*
X201476751Y-51859414D01*
X201599237Y-51736928D01*
X201701055Y-51596788D01*
X201779696Y-51442445D01*
X201833225Y-51277701D01*
X201860323Y-51106611D01*
X201860323Y-50933389D01*
X201833225Y-50762299D01*
X201779696Y-50597555D01*
X201701055Y-50443212D01*
X201599237Y-50303072D01*
X201476751Y-50180586D01*
X201336611Y-50078768D01*
X201182268Y-50000127D01*
X201017524Y-49946598D01*
X201017522Y-49946597D01*
X201017521Y-49946597D01*
X200886094Y-49925781D01*
X200846434Y-49919500D01*
X200673212Y-49919500D01*
X200633551Y-49925781D01*
X200502125Y-49946597D01*
X200337375Y-50000128D01*
X200183034Y-50078768D01*
X200151685Y-50101545D01*
X200042895Y-50180586D01*
X200042893Y-50180588D01*
X200042892Y-50180588D01*
X199920411Y-50303069D01*
X199920411Y-50303070D01*
X199920409Y-50303072D01*
X199906973Y-50321565D01*
X199818591Y-50443211D01*
X199739951Y-50597552D01*
X199686420Y-50762302D01*
X199674664Y-50836528D01*
X199659323Y-50933389D01*
X198578962Y-50933389D01*
X198584405Y-50927831D01*
X198592265Y-50921379D01*
X198636124Y-50896058D01*
X198729310Y-50802872D01*
X198795202Y-50688744D01*
X198829310Y-50561450D01*
X198829310Y-50429666D01*
X198795202Y-50302372D01*
X198793074Y-50298687D01*
X198783810Y-50282640D01*
X198729310Y-50188244D01*
X198636124Y-50095058D01*
X198601071Y-50074820D01*
X198552855Y-50024253D01*
X198539633Y-49955646D01*
X198565601Y-49890781D01*
X198601071Y-49860046D01*
X198603307Y-49858754D01*
X198636124Y-49839808D01*
X198729310Y-49746622D01*
X198795202Y-49632494D01*
X198829310Y-49505200D01*
X198829310Y-49373416D01*
X198795202Y-49246122D01*
X198791009Y-49238859D01*
X198774534Y-49170960D01*
X198797384Y-49104932D01*
X198852304Y-49061740D01*
X198921857Y-49055096D01*
X198960395Y-49069469D01*
X199055624Y-49124450D01*
X199182918Y-49158558D01*
X199182920Y-49158558D01*
X199314700Y-49158558D01*
X199314702Y-49158558D01*
X199441996Y-49124450D01*
X199556124Y-49058558D01*
X199616129Y-48998553D01*
X199677452Y-48965068D01*
X199747144Y-48970052D01*
X199791491Y-48998553D01*
X199851496Y-49058558D01*
X199925595Y-49101339D01*
X199965620Y-49124448D01*
X199965624Y-49124450D01*
X200092918Y-49158558D01*
X200092920Y-49158558D01*
X200224700Y-49158558D01*
X200224702Y-49158558D01*
X200351996Y-49124450D01*
X200466124Y-49058558D01*
X200526129Y-48998553D01*
X200587452Y-48965068D01*
X200657144Y-48970052D01*
X200701491Y-48998553D01*
X200761496Y-49058558D01*
X200835595Y-49101339D01*
X200875620Y-49124448D01*
X200875624Y-49124450D01*
X201002918Y-49158558D01*
X201002920Y-49158558D01*
X201134700Y-49158558D01*
X201134702Y-49158558D01*
X201261996Y-49124450D01*
X201376124Y-49058558D01*
X201436129Y-48998553D01*
X201497452Y-48965068D01*
X201567144Y-48970052D01*
X201611491Y-48998553D01*
X201671496Y-49058558D01*
X201745595Y-49101339D01*
X201785620Y-49124448D01*
X201785624Y-49124450D01*
X201912918Y-49158558D01*
X201912920Y-49158558D01*
X202044700Y-49158558D01*
X202044702Y-49158558D01*
X202171996Y-49124450D01*
X202286124Y-49058558D01*
X202379310Y-48965372D01*
X202445202Y-48851244D01*
X202479310Y-48723950D01*
X202479310Y-48592166D01*
X202445202Y-48464872D01*
X202379310Y-48350744D01*
X202286124Y-48257558D01*
X202241069Y-48231545D01*
X202192855Y-48180978D01*
X202179633Y-48112371D01*
X202205601Y-48047506D01*
X202241069Y-48016773D01*
X202266124Y-48002308D01*
X202359310Y-47909122D01*
X202425202Y-47794994D01*
X202459310Y-47667700D01*
X202459310Y-47535916D01*
X202425202Y-47408622D01*
X202359310Y-47294494D01*
X202266124Y-47201308D01*
X202231071Y-47181070D01*
X202182855Y-47130503D01*
X202169633Y-47061896D01*
X202195601Y-46997031D01*
X202231071Y-46966296D01*
X202233307Y-46965004D01*
X202266124Y-46946058D01*
X202359310Y-46852872D01*
X202425202Y-46738744D01*
X202459310Y-46611450D01*
X202459310Y-46479666D01*
X202425202Y-46352372D01*
X202359310Y-46238244D01*
X202266124Y-46145058D01*
X202231071Y-46124820D01*
X202182855Y-46074253D01*
X202169633Y-46005646D01*
X202195601Y-45940781D01*
X202231071Y-45910046D01*
X202233307Y-45908754D01*
X202266124Y-45889808D01*
X202359310Y-45796622D01*
X202425202Y-45682494D01*
X202459310Y-45555200D01*
X202459310Y-45423416D01*
X202425202Y-45296122D01*
X202359310Y-45181994D01*
X202266124Y-45088808D01*
X202231071Y-45068570D01*
X202182855Y-45018003D01*
X202169633Y-44949396D01*
X202195601Y-44884531D01*
X202231071Y-44853796D01*
X202233307Y-44852504D01*
X202266124Y-44833558D01*
X202359310Y-44740372D01*
X202425202Y-44626244D01*
X202459310Y-44498950D01*
X202459310Y-44367166D01*
X202425202Y-44239872D01*
X202359310Y-44125744D01*
X202278371Y-44044805D01*
X202244886Y-43983482D01*
X202249870Y-43913790D01*
X202278371Y-43869443D01*
X202279561Y-43868253D01*
X202360500Y-43787314D01*
X202426392Y-43673186D01*
X202460500Y-43545892D01*
X202460500Y-43414108D01*
X202426392Y-43286814D01*
X202360500Y-43172686D01*
X202267314Y-43079500D01*
X202222259Y-43053487D01*
X202174045Y-43002920D01*
X202160823Y-42934313D01*
X202186791Y-42869448D01*
X202222259Y-42838715D01*
X202247314Y-42824250D01*
X202340500Y-42731064D01*
X202406392Y-42616936D01*
X202440500Y-42489642D01*
X202440500Y-42357858D01*
X202406392Y-42230564D01*
X202340500Y-42116436D01*
X202247314Y-42023250D01*
X202190250Y-41990304D01*
X202133187Y-41957358D01*
X202069539Y-41940304D01*
X202005892Y-41923250D01*
X201874108Y-41923250D01*
X201746812Y-41957358D01*
X201632686Y-42023250D01*
X201632683Y-42023252D01*
X201572681Y-42083255D01*
X201511358Y-42116740D01*
X201441666Y-42111756D01*
X201397319Y-42083255D01*
X201337316Y-42023252D01*
X201337314Y-42023250D01*
X201280250Y-41990304D01*
X201223187Y-41957358D01*
X201159539Y-41940304D01*
X201095892Y-41923250D01*
X200964108Y-41923250D01*
X200836812Y-41957358D01*
X200722686Y-42023250D01*
X200722683Y-42023252D01*
X200662681Y-42083255D01*
X200601358Y-42116740D01*
X200531666Y-42111756D01*
X200487319Y-42083255D01*
X200427316Y-42023252D01*
X200427314Y-42023250D01*
X200370250Y-41990304D01*
X200313187Y-41957358D01*
X200249539Y-41940304D01*
X200185892Y-41923250D01*
X200054108Y-41923250D01*
X199926812Y-41957358D01*
X199812686Y-42023250D01*
X199812683Y-42023252D01*
X199752681Y-42083255D01*
X199691358Y-42116740D01*
X199621666Y-42111756D01*
X199577319Y-42083255D01*
X199517316Y-42023252D01*
X199517314Y-42023250D01*
X199460250Y-41990304D01*
X199403187Y-41957358D01*
X199339539Y-41940304D01*
X199275892Y-41923250D01*
X199144108Y-41923250D01*
X199016812Y-41957358D01*
X198902686Y-42023250D01*
X198902683Y-42023252D01*
X198809502Y-42116433D01*
X198809500Y-42116436D01*
X198743608Y-42230562D01*
X198709500Y-42357858D01*
X198709500Y-42489641D01*
X198743608Y-42616937D01*
X198760325Y-42645891D01*
X198809500Y-42731064D01*
X198902686Y-42824250D01*
X198927737Y-42838713D01*
X198947738Y-42850261D01*
X198995954Y-42900828D01*
X199009176Y-42969435D01*
X198983208Y-43034300D01*
X198966071Y-43052108D01*
X198957489Y-43059406D01*
X198922686Y-43079500D01*
X198859137Y-43143048D01*
X198855333Y-43146284D01*
X198827801Y-43158550D01*
X198801358Y-43172990D01*
X198796218Y-43172622D01*
X198791511Y-43174720D01*
X198761724Y-43170155D01*
X198731666Y-43168006D01*
X198726647Y-43164780D01*
X198722448Y-43164137D01*
X198713889Y-43156581D01*
X198687319Y-43139505D01*
X198627316Y-43079502D01*
X198627314Y-43079500D01*
X198549026Y-43034300D01*
X198513187Y-43013608D01*
X198449539Y-42996554D01*
X198385892Y-42979500D01*
X198254108Y-42979500D01*
X198126812Y-43013608D01*
X198012686Y-43079500D01*
X198012683Y-43079502D01*
X197952681Y-43139505D01*
X197891358Y-43172990D01*
X197821666Y-43168006D01*
X197777319Y-43139505D01*
X197717316Y-43079502D01*
X197717314Y-43079500D01*
X197639026Y-43034300D01*
X197603187Y-43013608D01*
X197539539Y-42996554D01*
X197475892Y-42979500D01*
X197344108Y-42979500D01*
X197216812Y-43013608D01*
X197102686Y-43079500D01*
X197102683Y-43079502D01*
X197009502Y-43172683D01*
X197009500Y-43172686D01*
X196943608Y-43286812D01*
X196916637Y-43387472D01*
X196909500Y-43414108D01*
X196909500Y-43545892D01*
X196918816Y-43580659D01*
X196943608Y-43673187D01*
X196964574Y-43709500D01*
X197009500Y-43787314D01*
X197009502Y-43787316D01*
X197090439Y-43868253D01*
X197123924Y-43929576D01*
X197118940Y-43999268D01*
X197090439Y-44043615D01*
X197008312Y-44125741D01*
X197008310Y-44125744D01*
X196942418Y-44239870D01*
X196908310Y-44367166D01*
X180559453Y-44367166D01*
X180596392Y-44303186D01*
X180630500Y-44175892D01*
X180630500Y-44044108D01*
X180596392Y-43916814D01*
X180530500Y-43802686D01*
X180437314Y-43709500D01*
X180374418Y-43673187D01*
X180323187Y-43643608D01*
X180259539Y-43626554D01*
X180195892Y-43609500D01*
X180064108Y-43609500D01*
X179936812Y-43643608D01*
X179822686Y-43709500D01*
X179822683Y-43709502D01*
X179729502Y-43802683D01*
X179729500Y-43802686D01*
X179663608Y-43916812D01*
X179629500Y-44044108D01*
X179628439Y-44052168D01*
X179626379Y-44051896D01*
X179609815Y-44108309D01*
X179557011Y-44154064D01*
X179487853Y-44164008D01*
X179473407Y-44161045D01*
X179447353Y-44154064D01*
X179410611Y-44144219D01*
X179278827Y-44144219D01*
X179151531Y-44178327D01*
X179037405Y-44244219D01*
X179037402Y-44244221D01*
X178944221Y-44337402D01*
X178944219Y-44337405D01*
X178878327Y-44451531D01*
X178862528Y-44510497D01*
X178844219Y-44578827D01*
X171710000Y-44578827D01*
X171710000Y-42514108D01*
X183639500Y-42514108D01*
X183639500Y-42645891D01*
X183673608Y-42773187D01*
X183703088Y-42824247D01*
X183739500Y-42887314D01*
X183832686Y-42980500D01*
X183946814Y-43046392D01*
X184074108Y-43080500D01*
X184086787Y-43080500D01*
X184153826Y-43100185D01*
X184199581Y-43152989D01*
X184206560Y-43172403D01*
X184233608Y-43273345D01*
X184299500Y-43387473D01*
X184392686Y-43480659D01*
X184491521Y-43537722D01*
X184505672Y-43545892D01*
X184506814Y-43546551D01*
X184634108Y-43580659D01*
X184634110Y-43580659D01*
X184765890Y-43580659D01*
X184765892Y-43580659D01*
X184893186Y-43546551D01*
X185007314Y-43480659D01*
X185100500Y-43387473D01*
X185166392Y-43273345D01*
X185200500Y-43146051D01*
X185200500Y-43014267D01*
X185166392Y-42886973D01*
X185100500Y-42772845D01*
X185007314Y-42679659D01*
X184898677Y-42616937D01*
X184893187Y-42613767D01*
X184829539Y-42596713D01*
X184765892Y-42579659D01*
X184765891Y-42579659D01*
X184753213Y-42579659D01*
X184686174Y-42559974D01*
X184640419Y-42507170D01*
X184633438Y-42487753D01*
X184606392Y-42386814D01*
X184540500Y-42272686D01*
X184447314Y-42179500D01*
X184390250Y-42146554D01*
X184333187Y-42113608D01*
X184269539Y-42096554D01*
X184205892Y-42079500D01*
X184074108Y-42079500D01*
X183946812Y-42113608D01*
X183832686Y-42179500D01*
X183832683Y-42179502D01*
X183739502Y-42272683D01*
X183739500Y-42272686D01*
X183673608Y-42386812D01*
X183639500Y-42514108D01*
X171710000Y-42514108D01*
X171710000Y-41093920D01*
X197009322Y-41093920D01*
X197038163Y-41238907D01*
X197038166Y-41238917D01*
X197094735Y-41375488D01*
X197094742Y-41375501D01*
X197176871Y-41498415D01*
X197176874Y-41498419D01*
X197281403Y-41602948D01*
X197281407Y-41602951D01*
X197404321Y-41685080D01*
X197404334Y-41685087D01*
X197540905Y-41741656D01*
X197540910Y-41741658D01*
X197540914Y-41741658D01*
X197540915Y-41741659D01*
X197685902Y-41770500D01*
X197685905Y-41770500D01*
X197833743Y-41770500D01*
X197931285Y-41751096D01*
X197978736Y-41741658D01*
X198115318Y-41685084D01*
X198238239Y-41602951D01*
X198342774Y-41498416D01*
X198424907Y-41375495D01*
X198481481Y-41238913D01*
X198510323Y-41093920D01*
X208009322Y-41093920D01*
X208038163Y-41238907D01*
X208038166Y-41238917D01*
X208094735Y-41375488D01*
X208094742Y-41375501D01*
X208176871Y-41498415D01*
X208176874Y-41498419D01*
X208281403Y-41602948D01*
X208281407Y-41602951D01*
X208404321Y-41685080D01*
X208404334Y-41685087D01*
X208540905Y-41741656D01*
X208540910Y-41741658D01*
X208540914Y-41741658D01*
X208540915Y-41741659D01*
X208685902Y-41770500D01*
X208685905Y-41770500D01*
X208833743Y-41770500D01*
X208931285Y-41751096D01*
X208978736Y-41741658D01*
X209115318Y-41685084D01*
X209238239Y-41602951D01*
X209342774Y-41498416D01*
X209424907Y-41375495D01*
X209481481Y-41238913D01*
X209510323Y-41093918D01*
X209510323Y-40946082D01*
X209510323Y-40946079D01*
X209481482Y-40801092D01*
X209481481Y-40801091D01*
X209481481Y-40801087D01*
X209481479Y-40801082D01*
X209424910Y-40664511D01*
X209424903Y-40664498D01*
X209342774Y-40541584D01*
X209342771Y-40541580D01*
X209238242Y-40437051D01*
X209238238Y-40437048D01*
X209115324Y-40354919D01*
X209115311Y-40354912D01*
X208978740Y-40298343D01*
X208978730Y-40298340D01*
X208833743Y-40269500D01*
X208833741Y-40269500D01*
X208685905Y-40269500D01*
X208685903Y-40269500D01*
X208540915Y-40298340D01*
X208540905Y-40298343D01*
X208404334Y-40354912D01*
X208404321Y-40354919D01*
X208281407Y-40437048D01*
X208281403Y-40437051D01*
X208176874Y-40541580D01*
X208176871Y-40541584D01*
X208094742Y-40664498D01*
X208094735Y-40664511D01*
X208038166Y-40801082D01*
X208038163Y-40801092D01*
X208009323Y-40946079D01*
X208009323Y-40946082D01*
X208009323Y-41093918D01*
X208009323Y-41093920D01*
X208009322Y-41093920D01*
X198510323Y-41093920D01*
X198510323Y-41093918D01*
X198510323Y-40946082D01*
X198510323Y-40946079D01*
X198481482Y-40801092D01*
X198481481Y-40801091D01*
X198481481Y-40801087D01*
X198481479Y-40801082D01*
X198424910Y-40664511D01*
X198424903Y-40664498D01*
X198342774Y-40541584D01*
X198342771Y-40541580D01*
X198238242Y-40437051D01*
X198238238Y-40437048D01*
X198115324Y-40354919D01*
X198115311Y-40354912D01*
X197978740Y-40298343D01*
X197978730Y-40298340D01*
X197833743Y-40269500D01*
X197833741Y-40269500D01*
X197685905Y-40269500D01*
X197685903Y-40269500D01*
X197540915Y-40298340D01*
X197540905Y-40298343D01*
X197404334Y-40354912D01*
X197404321Y-40354919D01*
X197281407Y-40437048D01*
X197281403Y-40437051D01*
X197176874Y-40541580D01*
X197176871Y-40541584D01*
X197094742Y-40664498D01*
X197094735Y-40664511D01*
X197038166Y-40801082D01*
X197038163Y-40801092D01*
X197009323Y-40946079D01*
X197009323Y-40946082D01*
X197009323Y-41093918D01*
X197009323Y-41093920D01*
X197009322Y-41093920D01*
X171710000Y-41093920D01*
X171710000Y-38124500D01*
X171729685Y-38057461D01*
X171782489Y-38011706D01*
X171834000Y-38000500D01*
X219006000Y-38000500D01*
X219073039Y-38020185D01*
G37*
%TD.AperFunction*%
%TD*%
%TA.AperFunction,Conductor*%
%TO.N,GND*%
G36*
X171390785Y-75008717D02*
G01*
X171457817Y-75028414D01*
X171495418Y-75069914D01*
X171496789Y-75069033D01*
X171509297Y-75088497D01*
X171513467Y-75095480D01*
X171514144Y-75096703D01*
X171514148Y-75096721D01*
X171514458Y-75097290D01*
X171514489Y-75097330D01*
X171522073Y-75111219D01*
X171565648Y-75169430D01*
X171565660Y-75169444D01*
X174504094Y-78107877D01*
X177422369Y-81026152D01*
X177442719Y-81044431D01*
X177442725Y-81044436D01*
X177442733Y-81044443D01*
X177463354Y-81061060D01*
X177463356Y-81061061D01*
X177463361Y-81061065D01*
X177551692Y-81107270D01*
X177618731Y-81126955D01*
X177618735Y-81126955D01*
X177618737Y-81126956D01*
X177627543Y-81128222D01*
X177690716Y-81137305D01*
X177690717Y-81137305D01*
X184378007Y-81137305D01*
X184409668Y-81134206D01*
X184427540Y-81132457D01*
X184474712Y-81123134D01*
X184496556Y-81117808D01*
X184585004Y-81071817D01*
X184639514Y-81028110D01*
X184689199Y-80975007D01*
X184861311Y-80728412D01*
X184864285Y-80724055D01*
X184867134Y-80719788D01*
X184900027Y-80649103D01*
X184919495Y-80582000D01*
X184929612Y-80509986D01*
X184912900Y-75328965D01*
X184912901Y-75328960D01*
X184930000Y-80630000D01*
X183220000Y-83080000D01*
X174027750Y-83084992D01*
X173837500Y-83279566D01*
X173837500Y-84945885D01*
X173815019Y-84912240D01*
X173596828Y-84646373D01*
X173596827Y-84646372D01*
X173596823Y-84646367D01*
X173353632Y-84403176D01*
X173087765Y-84184985D01*
X173087764Y-84184984D01*
X173087760Y-84184981D01*
X172801787Y-83993900D01*
X172801782Y-83993897D01*
X172801775Y-83993893D01*
X172498469Y-83831772D01*
X172498464Y-83831770D01*
X172180706Y-83700150D01*
X171851572Y-83600308D01*
X171514248Y-83533210D01*
X171514249Y-83533210D01*
X171256456Y-83507821D01*
X171171969Y-83499500D01*
X170828031Y-83499500D01*
X170749966Y-83507188D01*
X170485750Y-83533210D01*
X170148427Y-83600308D01*
X169819293Y-83700150D01*
X169501535Y-83831770D01*
X169501530Y-83831772D01*
X169198224Y-83993893D01*
X169198206Y-83993904D01*
X168912248Y-84184975D01*
X168912234Y-84184985D01*
X168646367Y-84403176D01*
X168403176Y-84646367D01*
X168184985Y-84912234D01*
X168184975Y-84912248D01*
X167993904Y-85198206D01*
X167993893Y-85198224D01*
X167831772Y-85501530D01*
X167831770Y-85501535D01*
X167700150Y-85819293D01*
X167600308Y-86148427D01*
X167533210Y-86485750D01*
X167499500Y-86828034D01*
X167499500Y-87171965D01*
X167533210Y-87514249D01*
X167600308Y-87851572D01*
X167700150Y-88180706D01*
X167831770Y-88498464D01*
X167831772Y-88498469D01*
X167993893Y-88801775D01*
X167993904Y-88801793D01*
X168184975Y-89087751D01*
X168184985Y-89087765D01*
X168403176Y-89353632D01*
X168646367Y-89596823D01*
X168646372Y-89596827D01*
X168646373Y-89596828D01*
X168912240Y-89815019D01*
X169198213Y-90006100D01*
X169198222Y-90006105D01*
X169198224Y-90006106D01*
X169501530Y-90168227D01*
X169501532Y-90168227D01*
X169501538Y-90168231D01*
X169819295Y-90299850D01*
X170148422Y-90399690D01*
X170485750Y-90466789D01*
X170828031Y-90500500D01*
X170828034Y-90500500D01*
X171171966Y-90500500D01*
X171171969Y-90500500D01*
X171514250Y-90466789D01*
X171851578Y-90399690D01*
X172146763Y-90310145D01*
X172216628Y-90309523D01*
X172275741Y-90346771D01*
X172305332Y-90410065D01*
X172306757Y-90429088D01*
X172281083Y-101751160D01*
X172261246Y-101818155D01*
X172208339Y-101863790D01*
X172157037Y-101874879D01*
X118670803Y-101854926D01*
X118678292Y-104715722D01*
X122935402Y-104707853D01*
X123002478Y-104727414D01*
X123048330Y-104780133D01*
X123059631Y-104832115D01*
X123050096Y-109342109D01*
X123030269Y-109409107D01*
X122977369Y-109454750D01*
X122926554Y-109465846D01*
X118640395Y-109481691D01*
X118640395Y-109481692D01*
X118631043Y-114719338D01*
X122971997Y-114735238D01*
X123038963Y-114755168D01*
X123084524Y-114808139D01*
X123095541Y-114859758D01*
X123076571Y-119374795D01*
X123056605Y-119441751D01*
X123003609Y-119487284D01*
X122952636Y-119498274D01*
X118610813Y-119500515D01*
X118610812Y-119500516D01*
X118610798Y-121409374D01*
X118591113Y-121476413D01*
X118538309Y-121522168D01*
X118487330Y-121533372D01*
X105054645Y-121591049D01*
X105038046Y-121591120D01*
X105023043Y-121587100D01*
X104916957Y-121587100D01*
X104899737Y-121591714D01*
X104883679Y-121591783D01*
X98625032Y-121618657D01*
X98557909Y-121599260D01*
X98511928Y-121546653D01*
X98500500Y-121494658D01*
X98500500Y-120496957D01*
X102369500Y-120496957D01*
X102369500Y-120603042D01*
X102396957Y-120705513D01*
X102396957Y-120705514D01*
X102449750Y-120796957D01*
X102449999Y-120797387D01*
X102525013Y-120872401D01*
X102616886Y-120925443D01*
X102719357Y-120952900D01*
X102719359Y-120952900D01*
X102825441Y-120952900D01*
X102825443Y-120952900D01*
X102927914Y-120925443D01*
X103019787Y-120872401D01*
X103094801Y-120797387D01*
X103147843Y-120705514D01*
X103175300Y-120603043D01*
X103175300Y-120496957D01*
X103147843Y-120394486D01*
X103094801Y-120302613D01*
X103019787Y-120227599D01*
X103019786Y-120227598D01*
X102927914Y-120174557D01*
X102884943Y-120163043D01*
X102825443Y-120147100D01*
X102719357Y-120147100D01*
X102616886Y-120174557D01*
X102616885Y-120174557D01*
X102525013Y-120227598D01*
X102449998Y-120302613D01*
X102396957Y-120394485D01*
X102396957Y-120394486D01*
X102369500Y-120496957D01*
X98500500Y-120496957D01*
X98500500Y-86828034D01*
X102499500Y-86828034D01*
X102499500Y-87171965D01*
X102533210Y-87514249D01*
X102600308Y-87851572D01*
X102700150Y-88180706D01*
X102831770Y-88498464D01*
X102831772Y-88498469D01*
X102993893Y-88801775D01*
X102993904Y-88801793D01*
X103184975Y-89087751D01*
X103184985Y-89087765D01*
X103403176Y-89353632D01*
X103646367Y-89596823D01*
X103646372Y-89596827D01*
X103646373Y-89596828D01*
X103912240Y-89815019D01*
X104198213Y-90006100D01*
X104198222Y-90006105D01*
X104198224Y-90006106D01*
X104501530Y-90168227D01*
X104501532Y-90168227D01*
X104501538Y-90168231D01*
X104819295Y-90299850D01*
X105148422Y-90399690D01*
X105485750Y-90466789D01*
X105828031Y-90500500D01*
X105828034Y-90500500D01*
X106171966Y-90500500D01*
X106171969Y-90500500D01*
X106514250Y-90466789D01*
X106851578Y-90399690D01*
X107180705Y-90299850D01*
X107498462Y-90168231D01*
X107801787Y-90006100D01*
X108087760Y-89815019D01*
X108353627Y-89596828D01*
X108596828Y-89353627D01*
X108815019Y-89087760D01*
X109006100Y-88801787D01*
X109168231Y-88498462D01*
X109299850Y-88180705D01*
X109399690Y-87851578D01*
X109466789Y-87514250D01*
X109500500Y-87171969D01*
X109500500Y-86828034D01*
X152499500Y-86828034D01*
X152499500Y-87171965D01*
X152533210Y-87514249D01*
X152600308Y-87851572D01*
X152700150Y-88180706D01*
X152831770Y-88498464D01*
X152831772Y-88498469D01*
X152993893Y-88801775D01*
X152993904Y-88801793D01*
X153184975Y-89087751D01*
X153184985Y-89087765D01*
X153403176Y-89353632D01*
X153646367Y-89596823D01*
X153646372Y-89596827D01*
X153646373Y-89596828D01*
X153912240Y-89815019D01*
X154198213Y-90006100D01*
X154198222Y-90006105D01*
X154198224Y-90006106D01*
X154501530Y-90168227D01*
X154501532Y-90168227D01*
X154501538Y-90168231D01*
X154819295Y-90299850D01*
X155148422Y-90399690D01*
X155485750Y-90466789D01*
X155828031Y-90500500D01*
X155828034Y-90500500D01*
X156171966Y-90500500D01*
X156171969Y-90500500D01*
X156514250Y-90466789D01*
X156851578Y-90399690D01*
X157180705Y-90299850D01*
X157498462Y-90168231D01*
X157801787Y-90006100D01*
X158087760Y-89815019D01*
X158353627Y-89596828D01*
X158596828Y-89353627D01*
X158815019Y-89087760D01*
X159006100Y-88801787D01*
X159168231Y-88498462D01*
X159299850Y-88180705D01*
X159399690Y-87851578D01*
X159466789Y-87514250D01*
X159500500Y-87171969D01*
X159500500Y-86828031D01*
X159466789Y-86485750D01*
X159399690Y-86148422D01*
X159299850Y-85819295D01*
X159168231Y-85501538D01*
X159006100Y-85198213D01*
X158815019Y-84912240D01*
X158596828Y-84646373D01*
X158596827Y-84646372D01*
X158596823Y-84646367D01*
X158353632Y-84403176D01*
X158087765Y-84184985D01*
X158087764Y-84184984D01*
X158087760Y-84184981D01*
X157801787Y-83993900D01*
X157801782Y-83993897D01*
X157801775Y-83993893D01*
X157498469Y-83831772D01*
X157498464Y-83831770D01*
X157180706Y-83700150D01*
X156851572Y-83600308D01*
X156514248Y-83533210D01*
X156514249Y-83533210D01*
X156256456Y-83507821D01*
X156171969Y-83499500D01*
X155828031Y-83499500D01*
X155749966Y-83507188D01*
X155485750Y-83533210D01*
X155148427Y-83600308D01*
X154819293Y-83700150D01*
X154501535Y-83831770D01*
X154501530Y-83831772D01*
X154198224Y-83993893D01*
X154198206Y-83993904D01*
X153912248Y-84184975D01*
X153912234Y-84184985D01*
X153646367Y-84403176D01*
X153403176Y-84646367D01*
X153184985Y-84912234D01*
X153184975Y-84912248D01*
X152993904Y-85198206D01*
X152993893Y-85198224D01*
X152831772Y-85501530D01*
X152831770Y-85501535D01*
X152700150Y-85819293D01*
X152600308Y-86148427D01*
X152533210Y-86485750D01*
X152499500Y-86828034D01*
X109500500Y-86828034D01*
X109500500Y-86828031D01*
X109466789Y-86485750D01*
X109399690Y-86148422D01*
X109299850Y-85819295D01*
X109168231Y-85501538D01*
X109006100Y-85198213D01*
X108815019Y-84912240D01*
X108596828Y-84646373D01*
X108596827Y-84646372D01*
X108596823Y-84646367D01*
X108353632Y-84403176D01*
X108087765Y-84184985D01*
X108087764Y-84184984D01*
X108087760Y-84184981D01*
X107801787Y-83993900D01*
X107801782Y-83993897D01*
X107801775Y-83993893D01*
X107498469Y-83831772D01*
X107498464Y-83831770D01*
X107180706Y-83700150D01*
X106851572Y-83600308D01*
X106514248Y-83533210D01*
X106514249Y-83533210D01*
X106256456Y-83507821D01*
X106171969Y-83499500D01*
X105828031Y-83499500D01*
X105749966Y-83507188D01*
X105485750Y-83533210D01*
X105148427Y-83600308D01*
X104819293Y-83700150D01*
X104501535Y-83831770D01*
X104501530Y-83831772D01*
X104198224Y-83993893D01*
X104198206Y-83993904D01*
X103912248Y-84184975D01*
X103912234Y-84184985D01*
X103646367Y-84403176D01*
X103403176Y-84646367D01*
X103184985Y-84912234D01*
X103184975Y-84912248D01*
X102993904Y-85198206D01*
X102993893Y-85198224D01*
X102831772Y-85501530D01*
X102831770Y-85501535D01*
X102700150Y-85819293D01*
X102600308Y-86148427D01*
X102533210Y-86485750D01*
X102499500Y-86828034D01*
X98500500Y-86828034D01*
X98500500Y-77042208D01*
X107402351Y-77042208D01*
X107402351Y-77148294D01*
X107429808Y-77250765D01*
X107482850Y-77342638D01*
X107557864Y-77417652D01*
X107649737Y-77470694D01*
X107752208Y-77498151D01*
X107752210Y-77498151D01*
X107858292Y-77498151D01*
X107858294Y-77498151D01*
X107960765Y-77470694D01*
X108052638Y-77417652D01*
X108127652Y-77342638D01*
X108180694Y-77250765D01*
X108208151Y-77148294D01*
X108208151Y-77042208D01*
X108180694Y-76939737D01*
X108127652Y-76847864D01*
X108052638Y-76772850D01*
X108052637Y-76772849D01*
X107960765Y-76719808D01*
X107858294Y-76692351D01*
X107752208Y-76692351D01*
X107649737Y-76719808D01*
X107649736Y-76719808D01*
X107557864Y-76772849D01*
X107482849Y-76847864D01*
X107429808Y-76939736D01*
X107429808Y-76939737D01*
X107402351Y-77042208D01*
X98500500Y-77042208D01*
X98500500Y-75117599D01*
X98520185Y-75050560D01*
X98572989Y-75004805D01*
X98624522Y-74993599D01*
X171390785Y-75008717D01*
G37*
%TD.AperFunction*%
%TA.AperFunction,Conductor*%
G36*
X174469124Y-88642616D02*
G01*
X174294153Y-88642803D01*
X174227093Y-88623190D01*
X174181282Y-88570435D01*
X174171264Y-88501287D01*
X174179457Y-88471358D01*
X174202572Y-88415553D01*
X174469124Y-88642616D01*
G37*
%TD.AperFunction*%
%TA.AperFunction,Conductor*%
G36*
X188679927Y-88334785D02*
G01*
X188711649Y-88397043D01*
X188736304Y-88432017D01*
X188758841Y-88498152D01*
X188742046Y-88565973D01*
X188691250Y-88613947D01*
X188635088Y-88627462D01*
X188446643Y-88627662D01*
X188652500Y-88408941D01*
X188652500Y-88241667D01*
X188679927Y-88334785D01*
G37*
%TD.AperFunction*%
%TA.AperFunction,Conductor*%
G36*
X205660000Y-80600000D02*
G01*
X203680000Y-83010000D01*
X196474250Y-83044500D01*
X196474250Y-88594500D01*
X196404250Y-88594500D01*
X196428874Y-88619124D01*
X196276643Y-88619286D01*
X195743486Y-88619856D01*
X195676426Y-88600243D01*
X195630615Y-88547488D01*
X195620597Y-88478340D01*
X195649554Y-88414753D01*
X195652997Y-88410937D01*
X196308760Y-87714195D01*
X196327051Y-87692877D01*
X196341070Y-87674930D01*
X196342553Y-87673016D01*
X196393439Y-87572940D01*
X196413124Y-87505901D01*
X196425500Y-87419829D01*
X196425500Y-81261305D01*
X196445185Y-81194266D01*
X196497989Y-81148511D01*
X196549500Y-81137305D01*
X205039204Y-81137305D01*
X205060355Y-81135652D01*
X205078870Y-81134206D01*
X205116914Y-81128226D01*
X205129187Y-81125988D01*
X205220966Y-81087067D01*
X205278733Y-81047763D01*
X205332424Y-80998714D01*
X205573585Y-80705179D01*
X205582774Y-80693299D01*
X205591348Y-80681514D01*
X205629967Y-80602929D01*
X205649582Y-80535869D01*
X205659857Y-80463875D01*
X205658840Y-79485773D01*
X205654379Y-75193629D01*
X205654379Y-75193628D01*
X205660000Y-80600000D01*
G37*
%TD.AperFunction*%
%TA.AperFunction,Conductor*%
G36*
X209973176Y-88481229D02*
G01*
X209953243Y-88548195D01*
X209900269Y-88593753D01*
X209849310Y-88604768D01*
X196474250Y-88619075D01*
X196474250Y-88594500D01*
X209617248Y-88594500D01*
X209974228Y-88197854D01*
X209973176Y-88481229D01*
G37*
%TD.AperFunction*%
%TA.AperFunction,Conductor*%
G36*
X208954841Y-78003826D02*
G01*
X208955990Y-78020675D01*
X208955992Y-78020683D01*
X208977785Y-78107877D01*
X208977787Y-78107880D01*
X209006391Y-78171633D01*
X209006395Y-78171640D01*
X209028664Y-78211357D01*
X209028667Y-78211362D01*
X209087198Y-78268594D01*
X209121369Y-78329538D01*
X209119484Y-78392186D01*
X209111877Y-78418092D01*
X209111876Y-78418099D01*
X209103748Y-78474631D01*
X209099500Y-78504173D01*
X209099500Y-80494120D01*
X209101712Y-80530806D01*
X209101712Y-80530813D01*
X209105294Y-80560408D01*
X209106830Y-80571408D01*
X209106831Y-80571415D01*
X209134458Y-80649103D01*
X209144447Y-80677194D01*
X209179554Y-80737602D01*
X209233501Y-80805800D01*
X209945814Y-81481107D01*
X209980920Y-81541515D01*
X209984500Y-81571094D01*
X209984500Y-85433476D01*
X209984250Y-85500761D01*
X209984250Y-81649284D01*
X208954250Y-80664066D01*
X208954250Y-77986459D01*
X208954841Y-78003826D01*
G37*
%TD.AperFunction*%
%TA.AperFunction,Conductor*%
G36*
X188213942Y-78098001D02*
G01*
X188214584Y-78108025D01*
X188218609Y-78139353D01*
X188219338Y-78144595D01*
X188219338Y-78144598D01*
X188219338Y-78144600D01*
X188219339Y-78144601D01*
X188253038Y-78238424D01*
X188253040Y-78238427D01*
X188289027Y-78298305D01*
X188289031Y-78298310D01*
X188315878Y-78335100D01*
X188328384Y-78344702D01*
X188333258Y-78348444D01*
X188374444Y-78404884D01*
X188378579Y-78474631D01*
X188376517Y-78482417D01*
X188369720Y-78505079D01*
X188356847Y-78591078D01*
X188356847Y-78591079D01*
X188345320Y-80582000D01*
X188344797Y-80672249D01*
X188345020Y-80677193D01*
X188346191Y-80703229D01*
X188346380Y-80705191D01*
X188348593Y-80728234D01*
X188348612Y-80728411D01*
X188349151Y-80733555D01*
X188382122Y-80840881D01*
X188401342Y-80877543D01*
X188414561Y-80902758D01*
X188465484Y-80973242D01*
X188609654Y-81122383D01*
X188642095Y-81184263D01*
X188644500Y-81208565D01*
X188644500Y-81239699D01*
X188212500Y-80778900D01*
X188212500Y-78075458D01*
X188213942Y-78098001D01*
G37*
%TD.AperFunction*%
%TD*%
%TA.AperFunction,Conductor*%
%TO.N,/Power/SW2*%
G36*
X194276608Y-78489251D02*
G01*
X194297575Y-78506212D01*
X194383565Y-78592848D01*
X196084009Y-80306072D01*
X196117264Y-80367520D01*
X196120000Y-80393424D01*
X196120000Y-87419829D01*
X196100315Y-87486868D01*
X196086296Y-87504815D01*
X195045594Y-88610552D01*
X194985314Y-88645878D01*
X194955298Y-88649566D01*
X189406785Y-88649566D01*
X189339746Y-88629881D01*
X189316635Y-88610707D01*
X188983850Y-88258347D01*
X188952130Y-88196093D01*
X188950000Y-88173206D01*
X188950000Y-81034911D01*
X188685135Y-80760913D01*
X188652694Y-80699031D01*
X188650292Y-80674018D01*
X188662342Y-78592847D01*
X188682414Y-78525924D01*
X188735482Y-78480475D01*
X188786340Y-78469566D01*
X194209569Y-78469566D01*
X194276608Y-78489251D01*
G37*
%TD.AperFunction*%
%TD*%
%TA.AperFunction,Conductor*%
%TO.N,/Power/SW1*%
G36*
X217349414Y-78391004D02*
G01*
X217416426Y-78410782D01*
X217437771Y-78428179D01*
X218503657Y-79514982D01*
X219564530Y-80596673D01*
X219597417Y-80658317D01*
X219600000Y-80683497D01*
X219600000Y-83708130D01*
X219580315Y-83775169D01*
X219527511Y-83820924D01*
X219523454Y-83822691D01*
X219501537Y-83831769D01*
X219501529Y-83831773D01*
X219198224Y-83993893D01*
X219198206Y-83993904D01*
X218912248Y-84184975D01*
X218912234Y-84184985D01*
X218646367Y-84403176D01*
X218403176Y-84646367D01*
X218184985Y-84912234D01*
X218184975Y-84912248D01*
X217993904Y-85198206D01*
X217993893Y-85198224D01*
X217831772Y-85501530D01*
X217831770Y-85501535D01*
X217700150Y-85819293D01*
X217600308Y-86148427D01*
X217533210Y-86485750D01*
X217499500Y-86828034D01*
X217499500Y-87171965D01*
X217533210Y-87514249D01*
X217600308Y-87851572D01*
X217700150Y-88180706D01*
X217823520Y-88478547D01*
X217830989Y-88548017D01*
X217799714Y-88610496D01*
X217739625Y-88646148D01*
X217708959Y-88650000D01*
X210696561Y-88650000D01*
X210629522Y-88630315D01*
X210594976Y-88597109D01*
X210312415Y-88193450D01*
X210290097Y-88127241D01*
X210290000Y-88122341D01*
X210290000Y-81386444D01*
X209443687Y-80584097D01*
X209408580Y-80523689D01*
X209405000Y-80494110D01*
X209405000Y-78504171D01*
X209424685Y-78437132D01*
X209477489Y-78391377D01*
X209529167Y-78380171D01*
X217349414Y-78391004D01*
G37*
%TD.AperFunction*%
%TD*%
%TA.AperFunction,Conductor*%
%TO.N,/Vcore*%
G36*
X228499500Y-121461066D02*
G01*
X228479815Y-121528105D01*
X228427011Y-121573860D01*
X228375500Y-121585066D01*
X209144677Y-121585066D01*
X209134998Y-121584688D01*
X209078249Y-121580244D01*
X209078249Y-121570000D01*
X209078244Y-102798229D01*
X208419646Y-102798045D01*
X208419647Y-102798045D01*
X208419645Y-102798044D01*
X208419646Y-102798044D01*
X206914862Y-102797625D01*
X206847828Y-102777922D01*
X206802088Y-102725105D01*
X206796182Y-102704490D01*
X206795003Y-102704807D01*
X206792900Y-102696957D01*
X206765443Y-102594486D01*
X206712401Y-102502613D01*
X206637387Y-102427599D01*
X206637386Y-102427598D01*
X206545514Y-102374557D01*
X206443043Y-102347100D01*
X206336957Y-102347100D01*
X206234486Y-102374557D01*
X206234485Y-102374557D01*
X206142613Y-102427598D01*
X206067598Y-102502613D01*
X206014557Y-102594485D01*
X206014557Y-102594486D01*
X205987410Y-102695802D01*
X205984997Y-102704807D01*
X205981724Y-102703930D01*
X205959731Y-102753510D01*
X205901368Y-102791922D01*
X205865105Y-102797332D01*
X200683618Y-102795888D01*
X200616584Y-102776185D01*
X200591905Y-102755305D01*
X200587325Y-102750267D01*
X200587322Y-102750265D01*
X200559427Y-102733262D01*
X200517534Y-102707726D01*
X200450495Y-102688041D01*
X200450492Y-102688040D01*
X200406010Y-102681645D01*
X200406008Y-102681645D01*
X191700586Y-102681645D01*
X191673738Y-102684465D01*
X191667770Y-102685092D01*
X191667763Y-102685094D01*
X191617362Y-102695801D01*
X191547941Y-102729919D01*
X191547939Y-102729920D01*
X191538181Y-102738211D01*
X191508050Y-102763809D01*
X191444217Y-102792213D01*
X191427731Y-102793309D01*
X184865302Y-102791480D01*
X184798268Y-102771777D01*
X184752528Y-102718960D01*
X184745562Y-102699573D01*
X184725443Y-102624486D01*
X184672401Y-102532613D01*
X184597387Y-102457599D01*
X184597386Y-102457598D01*
X184505514Y-102404557D01*
X184403043Y-102377100D01*
X184296957Y-102377100D01*
X184194486Y-102404557D01*
X184194485Y-102404557D01*
X184102613Y-102457598D01*
X184027598Y-102532613D01*
X183974557Y-102624485D01*
X183974555Y-102624490D01*
X183960804Y-102675809D01*
X183924439Y-102735469D01*
X183861591Y-102765997D01*
X183792216Y-102757702D01*
X183776333Y-102749498D01*
X183740436Y-102727543D01*
X183740428Y-102727540D01*
X183673437Y-102707760D01*
X183673421Y-102707756D01*
X183628949Y-102701294D01*
X174019529Y-102686979D01*
X173952519Y-102667194D01*
X173906843Y-102614322D01*
X173895716Y-102562457D01*
X173930000Y-94493923D01*
X173941375Y-91816957D01*
X221917100Y-91816957D01*
X221917100Y-91923043D01*
X221944557Y-92025514D01*
X221997599Y-92117387D01*
X222072613Y-92192401D01*
X222164486Y-92245443D01*
X222266957Y-92272900D01*
X222266959Y-92272900D01*
X222373041Y-92272900D01*
X222373043Y-92272900D01*
X222475514Y-92245443D01*
X222567387Y-92192401D01*
X222642401Y-92117387D01*
X222695443Y-92025514D01*
X222722900Y-91923043D01*
X222722900Y-91816957D01*
X222695443Y-91714486D01*
X222642401Y-91622613D01*
X222567387Y-91547599D01*
X222567386Y-91547598D01*
X222475514Y-91494557D01*
X222373043Y-91467100D01*
X222266957Y-91467100D01*
X222164486Y-91494557D01*
X222164485Y-91494557D01*
X222072613Y-91547598D01*
X221997598Y-91622613D01*
X221944557Y-91714485D01*
X221944557Y-91714486D01*
X221917100Y-91816957D01*
X173941375Y-91816957D01*
X173950005Y-89785846D01*
X218843560Y-89758655D01*
X218912240Y-89815019D01*
X219198213Y-90006100D01*
X219198222Y-90006105D01*
X219198224Y-90006106D01*
X219501530Y-90168227D01*
X219501532Y-90168227D01*
X219501538Y-90168231D01*
X219819295Y-90299850D01*
X220148422Y-90399690D01*
X220485750Y-90466789D01*
X220828031Y-90500500D01*
X220828034Y-90500500D01*
X221171966Y-90500500D01*
X221171969Y-90500500D01*
X221514250Y-90466789D01*
X221851578Y-90399690D01*
X222180705Y-90299850D01*
X222498462Y-90168231D01*
X222801787Y-90006100D01*
X223087760Y-89815019D01*
X223159625Y-89756040D01*
X228499500Y-89752807D01*
X228499500Y-121461066D01*
G37*
%TD.AperFunction*%
%TD*%
%TA.AperFunction,Conductor*%
%TO.N,GND*%
G36*
X188212500Y-80778900D02*
G01*
X188644500Y-81239699D01*
X188644500Y-88173206D01*
X188644848Y-88180705D01*
X188645814Y-88201526D01*
X188647950Y-88224469D01*
X188648206Y-88227087D01*
X188648206Y-88227089D01*
X188652500Y-88241667D01*
X188652500Y-88408941D01*
X188446642Y-88627663D01*
X188446641Y-88627664D01*
X188434514Y-88640550D01*
X188374234Y-88675878D01*
X188344216Y-88679566D01*
X174558155Y-88679566D01*
X174491116Y-88659881D01*
X174477744Y-88649959D01*
X174469124Y-88642616D01*
X174202572Y-88415554D01*
X174299850Y-88180705D01*
X174399690Y-87851578D01*
X174466789Y-87514250D01*
X174500500Y-87171969D01*
X174500500Y-86828031D01*
X174466789Y-86485750D01*
X174399690Y-86148422D01*
X174299850Y-85819295D01*
X174168231Y-85501538D01*
X174006100Y-85198213D01*
X173837500Y-84945885D01*
X173837500Y-83279566D01*
X174027750Y-83084992D01*
X183220000Y-83080000D01*
X184930000Y-80630000D01*
X184912500Y-75204566D01*
X188212500Y-75204566D01*
X188212500Y-80778900D01*
G37*
%TD.AperFunction*%
%TD*%
%TA.AperFunction,Conductor*%
%TO.N,/ASIC/GND2*%
G36*
X183730000Y-112840000D02*
G01*
X183727181Y-113092236D01*
X183727181Y-113092238D01*
X183709999Y-114629999D01*
X183710000Y-114629999D01*
X183710000Y-114630000D01*
X187973620Y-114630643D01*
X188040656Y-114650338D01*
X188086403Y-114703149D01*
X188097601Y-114754905D01*
X188088124Y-119237114D01*
X188068297Y-119304112D01*
X188015397Y-119349755D01*
X187964099Y-119360852D01*
X183730000Y-119360000D01*
X183720542Y-121516246D01*
X183700563Y-121583198D01*
X183647559Y-121628721D01*
X183596236Y-121639702D01*
X143538775Y-121540443D01*
X143471784Y-121520592D01*
X143426160Y-121467675D01*
X143415082Y-121416443D01*
X143415082Y-119445339D01*
X143419307Y-119413246D01*
X143427400Y-119383043D01*
X143427400Y-119276957D01*
X143399943Y-119174486D01*
X143346901Y-119082613D01*
X143271887Y-119007599D01*
X143271886Y-119007598D01*
X143180014Y-118954557D01*
X143077543Y-118927100D01*
X142971457Y-118927100D01*
X142868986Y-118954557D01*
X142868985Y-118954557D01*
X142777113Y-119007598D01*
X142702098Y-119082613D01*
X142649057Y-119174485D01*
X142621569Y-119277072D01*
X142585203Y-119336733D01*
X142522356Y-119367261D01*
X142501817Y-119368978D01*
X140253304Y-119369404D01*
X140186261Y-119349732D01*
X140140496Y-119296937D01*
X140129282Y-119245927D01*
X140110339Y-114755185D01*
X140129741Y-114688063D01*
X140182351Y-114642086D01*
X140234338Y-114630662D01*
X143395082Y-114630662D01*
X143430000Y-112780000D01*
X183730000Y-112840000D01*
G37*
%TD.AperFunction*%
%TD*%
%TA.AperFunction,Conductor*%
%TO.N,/ASIC/GND2*%
G36*
X183628711Y-102859194D02*
G01*
X183695720Y-102878979D01*
X183741396Y-102931851D01*
X183752525Y-102983375D01*
X183750090Y-104649999D01*
X183750090Y-104650000D01*
X187988519Y-104650000D01*
X188055558Y-104669685D01*
X188101313Y-104722489D01*
X188112519Y-104774262D01*
X188103042Y-109256753D01*
X188083215Y-109323751D01*
X188030315Y-109369394D01*
X187979320Y-109380491D01*
X183740000Y-109389999D01*
X183740000Y-113048583D01*
X183739644Y-113057975D01*
X183735438Y-113113334D01*
X183726946Y-113113315D01*
X183726945Y-113113315D01*
X143430000Y-113022820D01*
X143430000Y-109388145D01*
X143430000Y-109388143D01*
X143429226Y-109387370D01*
X143395736Y-109326050D01*
X143392900Y-109299682D01*
X143392900Y-109286959D01*
X143392900Y-109286957D01*
X143365443Y-109184486D01*
X143312401Y-109092613D01*
X143237387Y-109017599D01*
X143237386Y-109017598D01*
X143145514Y-108964557D01*
X143043043Y-108937100D01*
X142936957Y-108937100D01*
X142834486Y-108964557D01*
X142834485Y-108964557D01*
X142742613Y-109017598D01*
X142667598Y-109092613D01*
X142614557Y-109184485D01*
X142614557Y-109184486D01*
X142592913Y-109265265D01*
X142584997Y-109294807D01*
X142581989Y-109294001D01*
X142559650Y-109344446D01*
X142501311Y-109382894D01*
X142465032Y-109388327D01*
X140268222Y-109388742D01*
X140201179Y-109369070D01*
X140155414Y-109316275D01*
X140144200Y-109265265D01*
X140125257Y-104774523D01*
X140144659Y-104707401D01*
X140197269Y-104661424D01*
X140249256Y-104650000D01*
X143410000Y-104650000D01*
X143442619Y-102921180D01*
X143463565Y-102854524D01*
X143517223Y-102809773D01*
X143566779Y-102799519D01*
X183628711Y-102859194D01*
G37*
%TD.AperFunction*%
%TD*%
%TA.AperFunction,Conductor*%
%TO.N,/ASIC/GND1*%
G36*
X135409954Y-112888294D02*
G01*
X135410109Y-112894486D01*
X135410090Y-114677964D01*
X135410091Y-114677964D01*
X135410091Y-114677965D01*
X139620283Y-114686664D01*
X139687281Y-114706487D01*
X139732927Y-114759386D01*
X139744025Y-114810141D01*
X139762982Y-119302851D01*
X139743580Y-119369973D01*
X139690970Y-119415950D01*
X139638250Y-119427372D01*
X135439231Y-119402561D01*
X135439230Y-119402562D01*
X135421271Y-121431881D01*
X135400994Y-121498744D01*
X135347787Y-121544030D01*
X135297414Y-121554784D01*
X126470975Y-121564603D01*
X126403914Y-121544993D01*
X126358100Y-121492240D01*
X126346855Y-121438484D01*
X126346968Y-121431881D01*
X126374380Y-119828251D01*
X126395208Y-119761561D01*
X126448786Y-119716716D01*
X126466264Y-119710600D01*
X126485514Y-119705443D01*
X126577387Y-119652401D01*
X126652401Y-119577387D01*
X126705443Y-119485514D01*
X126732900Y-119383043D01*
X126732900Y-119276957D01*
X126705443Y-119174486D01*
X126652401Y-119082613D01*
X126577387Y-119007599D01*
X126577386Y-119007598D01*
X126485514Y-118954557D01*
X126383043Y-118927100D01*
X126276957Y-118927100D01*
X126174486Y-118954557D01*
X126174485Y-118954557D01*
X126082613Y-119007598D01*
X126007598Y-119082613D01*
X125954557Y-119174485D01*
X125954557Y-119174486D01*
X125937687Y-119237448D01*
X125925378Y-119283385D01*
X125889013Y-119343045D01*
X125826166Y-119373574D01*
X125806031Y-119375290D01*
X123604541Y-119382887D01*
X123537434Y-119363434D01*
X123491497Y-119310788D01*
X123480113Y-119258888D01*
X123480113Y-114777573D01*
X123499798Y-114710534D01*
X123552602Y-114664779D01*
X123604365Y-114653573D01*
X126371097Y-114659290D01*
X126388356Y-112886053D01*
X126389988Y-112880687D01*
X126390806Y-112832862D01*
X135399620Y-112832862D01*
X135407183Y-112832862D01*
X135409954Y-112888294D01*
G37*
%TD.AperFunction*%
%TD*%
%TA.AperFunction,Conductor*%
%TO.N,/Vcore*%
G36*
X218414701Y-89416468D02*
G01*
X218481729Y-89436177D01*
X218502326Y-89452781D01*
X218646373Y-89596828D01*
X218912240Y-89815019D01*
X219198213Y-90006100D01*
X219198222Y-90006105D01*
X219198224Y-90006106D01*
X219501530Y-90168227D01*
X219501532Y-90168227D01*
X219501538Y-90168231D01*
X219819295Y-90299850D01*
X220148422Y-90399690D01*
X220485750Y-90466789D01*
X220828031Y-90500500D01*
X220828034Y-90500500D01*
X221171966Y-90500500D01*
X221171969Y-90500500D01*
X221514250Y-90466789D01*
X221851578Y-90399690D01*
X222180705Y-90299850D01*
X222498462Y-90168231D01*
X222801787Y-90006100D01*
X223087760Y-89815019D01*
X223353627Y-89596828D01*
X223495721Y-89454733D01*
X223557040Y-89421251D01*
X223583434Y-89418418D01*
X228375550Y-89420226D01*
X228442579Y-89439935D01*
X228488314Y-89492756D01*
X228499500Y-89544225D01*
X228499500Y-121461066D01*
X228479815Y-121528105D01*
X228431466Y-121570000D01*
X208611315Y-121570000D01*
X208544276Y-121550315D01*
X208498521Y-121497511D01*
X208487335Y-121448243D01*
X208452541Y-119524978D01*
X208456745Y-119490654D01*
X208482900Y-119393043D01*
X208482900Y-119286957D01*
X208455443Y-119184486D01*
X208402401Y-119092613D01*
X208327387Y-119017599D01*
X208327386Y-119017598D01*
X208235514Y-118964557D01*
X208133043Y-118937100D01*
X208026957Y-118937100D01*
X207924486Y-118964557D01*
X207924485Y-118964557D01*
X207832613Y-119017598D01*
X207757598Y-119092613D01*
X207704557Y-119184485D01*
X207704557Y-119184486D01*
X207678117Y-119283164D01*
X207677153Y-119286761D01*
X207640788Y-119346421D01*
X207577941Y-119376950D01*
X207557100Y-119378667D01*
X205288635Y-119373587D01*
X205221640Y-119353752D01*
X205176004Y-119300846D01*
X205164913Y-119249327D01*
X205174396Y-114773737D01*
X205194223Y-114706740D01*
X205247124Y-114661097D01*
X205298396Y-114650000D01*
X208453152Y-114650000D01*
X208453153Y-114650000D01*
X208443922Y-109434951D01*
X208448147Y-109402646D01*
X208453400Y-109383043D01*
X208453400Y-109276957D01*
X208425943Y-109174486D01*
X208372901Y-109082613D01*
X208297887Y-109007599D01*
X208297886Y-109007598D01*
X208206014Y-108954557D01*
X208103543Y-108927100D01*
X207997457Y-108927100D01*
X207894986Y-108954557D01*
X207894985Y-108954557D01*
X207803113Y-109007598D01*
X207728098Y-109082613D01*
X207675057Y-109174485D01*
X207675057Y-109174486D01*
X207650555Y-109265931D01*
X207645497Y-109284807D01*
X207642402Y-109283977D01*
X207620174Y-109334141D01*
X207561825Y-109372575D01*
X207526230Y-109377997D01*
X205292073Y-109390206D01*
X205224927Y-109370888D01*
X205178884Y-109318335D01*
X205167396Y-109265692D01*
X205186271Y-104764137D01*
X205206237Y-104697184D01*
X205259232Y-104651651D01*
X205310611Y-104640660D01*
X208409408Y-104649197D01*
X208424996Y-101831147D01*
X173930000Y-101841732D01*
X173930000Y-91816957D01*
X221917100Y-91816957D01*
X221917100Y-91923043D01*
X221944557Y-92025514D01*
X221997599Y-92117387D01*
X222072613Y-92192401D01*
X222164486Y-92245443D01*
X222266957Y-92272900D01*
X222266959Y-92272900D01*
X222373041Y-92272900D01*
X222373043Y-92272900D01*
X222475514Y-92245443D01*
X222567387Y-92192401D01*
X222642401Y-92117387D01*
X222695443Y-92025514D01*
X222722900Y-91923043D01*
X222722900Y-91816957D01*
X222695443Y-91714486D01*
X222642401Y-91622613D01*
X222567387Y-91547599D01*
X222567386Y-91547598D01*
X222475514Y-91494557D01*
X222373043Y-91467100D01*
X222266957Y-91467100D01*
X222164486Y-91494557D01*
X222164485Y-91494557D01*
X222072613Y-91547598D01*
X221997598Y-91622613D01*
X221944557Y-91714485D01*
X221944557Y-91714486D01*
X221917100Y-91816957D01*
X173930000Y-91816957D01*
X173930000Y-89523733D01*
X173949685Y-89456694D01*
X174002489Y-89410939D01*
X174054043Y-89399733D01*
X218414701Y-89416468D01*
G37*
%TD.AperFunction*%
%TD*%
%TA.AperFunction,Conductor*%
%TO.N,/ASIC/GND3*%
G36*
X200519409Y-112929223D02*
G01*
X200520008Y-112941396D01*
X200519990Y-114633963D01*
X200519991Y-114633963D01*
X200519991Y-114633964D01*
X204620081Y-114642434D01*
X204687079Y-114662257D01*
X204732725Y-114715156D01*
X204743823Y-114765911D01*
X204762700Y-119239317D01*
X204743298Y-119306439D01*
X204690688Y-119352416D01*
X204638592Y-119363840D01*
X200520000Y-119360218D01*
X200516403Y-121485805D01*
X200496605Y-121552811D01*
X200443724Y-121598476D01*
X200392541Y-121609595D01*
X193181660Y-121617616D01*
X193114599Y-121598006D01*
X193077394Y-121559030D01*
X193077351Y-121559064D01*
X193077042Y-121558661D01*
X193074134Y-121555615D01*
X193072401Y-121552613D01*
X192997386Y-121477598D01*
X192905514Y-121424557D01*
X192875232Y-121416443D01*
X192803043Y-121397100D01*
X192696957Y-121397100D01*
X192594486Y-121424557D01*
X192594485Y-121424557D01*
X192502613Y-121477598D01*
X192427601Y-121552610D01*
X192427594Y-121552619D01*
X192425308Y-121556580D01*
X192374740Y-121604794D01*
X192318061Y-121618577D01*
X191597476Y-121619379D01*
X191530415Y-121599769D01*
X191484601Y-121547016D01*
X191473356Y-121493260D01*
X191505318Y-119623467D01*
X191521911Y-119563593D01*
X191555443Y-119505514D01*
X191582900Y-119403043D01*
X191582900Y-119296957D01*
X191555443Y-119194486D01*
X191502401Y-119102613D01*
X191427387Y-119027599D01*
X191427386Y-119027598D01*
X191335514Y-118974557D01*
X191233043Y-118947100D01*
X191126957Y-118947100D01*
X191024486Y-118974557D01*
X191024485Y-118974557D01*
X190932613Y-119027598D01*
X190857598Y-119102613D01*
X190804557Y-119194485D01*
X190804555Y-119194490D01*
X190786855Y-119260547D01*
X190750490Y-119320207D01*
X190687643Y-119350735D01*
X190667509Y-119352451D01*
X188604428Y-119359570D01*
X188537321Y-119340117D01*
X188491384Y-119287471D01*
X188480000Y-119235571D01*
X188480000Y-114754256D01*
X188499685Y-114687217D01*
X188552489Y-114641462D01*
X188604252Y-114630256D01*
X191520008Y-114636281D01*
X191537204Y-112869545D01*
X200499382Y-112869545D01*
X200513522Y-112869545D01*
X200519409Y-112929223D01*
G37*
%TD.AperFunction*%
%TD*%
%TA.AperFunction,Conductor*%
%TO.N,/ASIC/GND1*%
G36*
X135373046Y-102849685D02*
G01*
X135418801Y-102902489D01*
X135430007Y-102954001D01*
X135429988Y-104675268D01*
X135429989Y-104675268D01*
X135429989Y-104675269D01*
X139560169Y-104683802D01*
X139627167Y-104703625D01*
X139672813Y-104756524D01*
X139683911Y-104807279D01*
X139702868Y-109299989D01*
X139683466Y-109367111D01*
X139630856Y-109413088D01*
X139578136Y-109424510D01*
X135430000Y-109399999D01*
X135429999Y-109400000D01*
X135399460Y-112850797D01*
X135399461Y-112850798D01*
X135398731Y-112933290D01*
X126388918Y-112943312D01*
X126442076Y-109833510D01*
X126462904Y-109766819D01*
X126516482Y-109721974D01*
X126533961Y-109715859D01*
X126535514Y-109715443D01*
X126627387Y-109662401D01*
X126702401Y-109587387D01*
X126755443Y-109495514D01*
X126782900Y-109393043D01*
X126782900Y-109286957D01*
X126755443Y-109184486D01*
X126702401Y-109092613D01*
X126627387Y-109017599D01*
X126627386Y-109017598D01*
X126535514Y-108964557D01*
X126433043Y-108937100D01*
X126326957Y-108937100D01*
X126224486Y-108964557D01*
X126224485Y-108964557D01*
X126132613Y-109017598D01*
X126057598Y-109092613D01*
X126004557Y-109184485D01*
X125978929Y-109280131D01*
X125942563Y-109339791D01*
X125879716Y-109370320D01*
X125859582Y-109372036D01*
X123544427Y-109380025D01*
X123477320Y-109360572D01*
X123431383Y-109307926D01*
X123419999Y-109256026D01*
X123419999Y-104774711D01*
X123439684Y-104707672D01*
X123492488Y-104661917D01*
X123544251Y-104650711D01*
X126460007Y-104656736D01*
X126460007Y-104656735D01*
X126476592Y-102952793D01*
X126496928Y-102885948D01*
X126550175Y-102840710D01*
X126600586Y-102830000D01*
X135306007Y-102830000D01*
X135373046Y-102849685D01*
G37*
%TD.AperFunction*%
%TD*%
%TA.AperFunction,Conductor*%
%TO.N,/ASIC/GND3*%
G36*
X200473047Y-102859230D02*
G01*
X200518802Y-102912034D01*
X200530008Y-102963546D01*
X200529990Y-104624772D01*
X200529991Y-104624772D01*
X200529991Y-104624773D01*
X204659916Y-104633305D01*
X204726914Y-104653128D01*
X204772560Y-104706027D01*
X204783658Y-104756782D01*
X204802696Y-109268470D01*
X204783294Y-109335592D01*
X204730684Y-109381569D01*
X204677964Y-109392991D01*
X200530364Y-109368483D01*
X200530363Y-109368484D01*
X200502178Y-112553555D01*
X200498569Y-112961439D01*
X191536211Y-112971408D01*
X191536210Y-112971408D01*
X191536211Y-112971407D01*
X191526226Y-112961335D01*
X191493005Y-112899869D01*
X191490302Y-112871919D01*
X191542329Y-109828308D01*
X191563157Y-109761617D01*
X191604308Y-109723045D01*
X191657387Y-109692401D01*
X191732401Y-109617387D01*
X191785443Y-109525514D01*
X191812900Y-109423043D01*
X191812900Y-109316957D01*
X191785443Y-109214486D01*
X191732401Y-109122613D01*
X191657387Y-109047599D01*
X191657386Y-109047598D01*
X191565514Y-108994557D01*
X191463043Y-108967100D01*
X191356957Y-108967100D01*
X191254486Y-108994557D01*
X191254485Y-108994557D01*
X191162613Y-109047598D01*
X191087598Y-109122613D01*
X191048946Y-109189563D01*
X191034557Y-109214486D01*
X191020092Y-109268470D01*
X191014350Y-109289900D01*
X190977984Y-109349560D01*
X190915137Y-109380088D01*
X190895003Y-109381804D01*
X188644428Y-109389570D01*
X188577321Y-109370117D01*
X188531384Y-109317471D01*
X188520000Y-109265571D01*
X188520000Y-104784256D01*
X188539685Y-104717217D01*
X188592489Y-104671462D01*
X188644252Y-104660256D01*
X191560008Y-104666281D01*
X191560008Y-104666280D01*
X191576592Y-102962338D01*
X191596928Y-102895493D01*
X191650175Y-102850255D01*
X191700586Y-102839545D01*
X200406008Y-102839545D01*
X200473047Y-102859230D01*
G37*
%TD.AperFunction*%
%TD*%
%TA.AperFunction,Conductor*%
%TO.N,GND*%
G36*
X196474250Y-88619075D02*
G01*
X196453574Y-88619098D01*
X196453572Y-88619098D01*
X196428874Y-88619124D01*
X196404250Y-88594500D01*
X196474250Y-88594500D01*
X196474250Y-88619075D01*
G37*
%TD.AperFunction*%
%TA.AperFunction,Conductor*%
G36*
X208954250Y-80664066D02*
G01*
X209984250Y-81649284D01*
X209984250Y-85500916D01*
X209984250Y-88148790D01*
X209975935Y-88193433D01*
X209974229Y-88197853D01*
X209974228Y-88197854D01*
X209617248Y-88594500D01*
X196474250Y-88594500D01*
X196474250Y-83044500D01*
X203680000Y-83010000D01*
X205660000Y-80600000D01*
X205654250Y-75069500D01*
X208954250Y-75069500D01*
X208954250Y-80664066D01*
G37*
%TD.AperFunction*%
%TD*%
M02*
