%TF.GenerationSoftware,KiCad,Pcbnew,9.0.0*%
%TF.CreationDate,2025-06-24T17:18:03-04:00*%
%TF.ProjectId,BitaxeBonanza,42697461-7865-4426-9f6e-616e7a612e6b,1001x*%
%TF.SameCoordinates,Original*%
%TF.FileFunction,Soldermask,Top*%
%TF.FilePolarity,Negative*%
%FSLAX46Y46*%
G04 Gerber Fmt 4.6, Leading zero omitted, Abs format (unit mm)*
G04 Created by KiCad (PCBNEW 9.0.0) date 2025-06-24 17:18:03*
%MOMM*%
%LPD*%
G01*
G04 APERTURE LIST*
%ADD10C,0.000000*%
%ADD11C,6.000000*%
%ADD12R,0.705000X0.305000*%
%ADD13R,0.305000X0.935000*%
%ADD14R,0.805000X0.805000*%
%ADD15C,2.000000*%
%ADD16C,0.800000*%
%ADD17C,6.400000*%
%ADD18C,1.300000*%
%ADD19O,4.000000X1.574800*%
%ADD20C,1.500000*%
%ADD21C,1.700000*%
%ADD22O,1.700000X1.700000*%
%ADD23C,0.990600*%
%ADD24C,0.400000*%
%ADD25C,0.499999*%
%ADD26C,3.000000*%
%ADD27C,0.650000*%
%ADD28O,1.000000X1.800000*%
%ADD29O,1.000000X2.100000*%
G04 APERTURE END LIST*
D10*
%TO.C,G\u002A\u002A\u002A*%
G36*
X157295872Y-59679191D02*
G01*
X157686421Y-60069740D01*
X157301292Y-60455290D01*
X157197711Y-60558587D01*
X157103846Y-60651434D01*
X157023679Y-60729953D01*
X156961192Y-60790268D01*
X156920367Y-60828501D01*
X156905323Y-60840841D01*
X156888293Y-60826699D01*
X156845885Y-60786859D01*
X156782083Y-60725197D01*
X156700869Y-60645592D01*
X156606225Y-60551920D01*
X156509354Y-60455290D01*
X156124226Y-60069740D01*
X156514775Y-59679191D01*
X156905323Y-59288642D01*
X157295872Y-59679191D01*
G37*
G36*
X160488976Y-60741444D02*
G01*
X160489245Y-61527608D01*
X160914879Y-61533240D01*
X161340513Y-61538872D01*
X161067327Y-61877470D01*
X160794141Y-62216067D01*
X160641693Y-62216067D01*
X160489245Y-62216067D01*
X160489361Y-63742359D01*
X160489704Y-64084124D01*
X160490677Y-64385593D01*
X160492277Y-64646583D01*
X160494502Y-64866905D01*
X160497349Y-65046374D01*
X160500816Y-65184805D01*
X160504899Y-65282011D01*
X160509597Y-65337806D01*
X160511584Y-65348263D01*
X160549102Y-65428954D01*
X160612444Y-65513287D01*
X160689633Y-65587358D01*
X160754832Y-65630671D01*
X160825527Y-65666939D01*
X160722071Y-65731251D01*
X160616308Y-65819469D01*
X160559139Y-65896750D01*
X160499663Y-65997937D01*
X160493878Y-67381304D01*
X160492781Y-67655920D01*
X160492000Y-67891892D01*
X160491602Y-68092251D01*
X160491654Y-68260025D01*
X160492222Y-68398244D01*
X160493372Y-68509937D01*
X160495171Y-68598133D01*
X160497686Y-68665863D01*
X160500982Y-68716155D01*
X160505127Y-68752039D01*
X160510186Y-68776544D01*
X160516227Y-68792700D01*
X160523316Y-68803536D01*
X160525133Y-68805630D01*
X160604629Y-68867661D01*
X160707716Y-68911731D01*
X160817848Y-68931097D01*
X160833863Y-68931454D01*
X160913050Y-68926253D01*
X160980546Y-68906819D01*
X161050634Y-68867410D01*
X161119556Y-68816551D01*
X161170372Y-68780243D01*
X161195082Y-68770556D01*
X161196414Y-68784024D01*
X161177096Y-68817181D01*
X161139857Y-68866560D01*
X161087424Y-68928696D01*
X161022526Y-69000122D01*
X160947891Y-69077371D01*
X160866246Y-69156978D01*
X160812400Y-69206816D01*
X160660073Y-69351272D01*
X160515439Y-69500847D01*
X160382941Y-69650128D01*
X160267024Y-69793702D01*
X160172132Y-69926154D01*
X160102710Y-70042073D01*
X160072614Y-70107910D01*
X160038210Y-70198545D01*
X159607370Y-69797538D01*
X159176529Y-69396531D01*
X159176020Y-67759745D01*
X159175656Y-67450449D01*
X159174782Y-67166162D01*
X159173422Y-66908870D01*
X159171599Y-66680562D01*
X159169339Y-66483224D01*
X159166666Y-66318844D01*
X159163603Y-66189408D01*
X159160176Y-66096905D01*
X159156409Y-66043321D01*
X159154872Y-66033485D01*
X159107623Y-65910266D01*
X159030235Y-65802653D01*
X158932415Y-65723326D01*
X158841306Y-65669932D01*
X158899525Y-65639877D01*
X159000668Y-65567893D01*
X159088213Y-65467864D01*
X159121136Y-65414508D01*
X159129561Y-65398341D01*
X159136874Y-65381282D01*
X159143165Y-65360400D01*
X159148526Y-65332762D01*
X159153048Y-65295434D01*
X159156820Y-65245484D01*
X159159935Y-65179980D01*
X159162482Y-65095988D01*
X159164554Y-64990576D01*
X159166239Y-64860811D01*
X159167631Y-64703760D01*
X159168818Y-64516491D01*
X159169892Y-64296071D01*
X159170944Y-64039567D01*
X159171954Y-63773614D01*
X159177797Y-62216067D01*
X158854194Y-62216067D01*
X158743396Y-62215090D01*
X158648937Y-62212393D01*
X158577894Y-62208329D01*
X158537346Y-62203248D01*
X158530590Y-62199981D01*
X158540518Y-62177559D01*
X158568080Y-62125205D01*
X158609939Y-62049000D01*
X158662761Y-61955026D01*
X158716283Y-61861383D01*
X158901976Y-61538872D01*
X159138227Y-61526200D01*
X159251067Y-61517422D01*
X159353511Y-61504470D01*
X159433343Y-61489077D01*
X159463644Y-61480027D01*
X159634315Y-61394116D01*
X159796208Y-61268537D01*
X159948384Y-61104547D01*
X160089903Y-60903409D01*
X160219826Y-60666382D01*
X160337212Y-60394727D01*
X160397038Y-60228195D01*
X160488708Y-59955279D01*
X160488976Y-60741444D01*
G37*
G36*
X156496393Y-61521228D02*
G01*
X156538396Y-61554759D01*
X156599802Y-61606617D01*
X156674847Y-61672002D01*
X156700697Y-61694906D01*
X156898304Y-61860389D01*
X157088427Y-61999272D01*
X157266087Y-62108122D01*
X157384569Y-62166439D01*
X157460528Y-62196406D01*
X157528435Y-62214306D01*
X157604580Y-62223103D01*
X157705257Y-62225764D01*
X157710661Y-62225787D01*
X157800390Y-62226913D01*
X157855257Y-62230368D01*
X157882061Y-62237474D01*
X157887604Y-62249552D01*
X157883732Y-62259396D01*
X157851145Y-62306221D01*
X157798988Y-62367292D01*
X157738052Y-62431367D01*
X157679126Y-62487206D01*
X157632997Y-62523566D01*
X157626571Y-62527344D01*
X157572099Y-62556497D01*
X157572557Y-63912574D01*
X157572702Y-64184578D01*
X157572999Y-64418073D01*
X157573533Y-64616226D01*
X157574390Y-64782200D01*
X157575656Y-64919160D01*
X157577418Y-65030272D01*
X157579761Y-65118701D01*
X157582771Y-65187612D01*
X157586535Y-65240169D01*
X157591138Y-65279539D01*
X157596666Y-65308885D01*
X157603206Y-65331373D01*
X157610844Y-65350168D01*
X157611686Y-65351998D01*
X157672580Y-65446473D01*
X157759349Y-65534440D01*
X157853395Y-65598775D01*
X157889759Y-65621288D01*
X157888262Y-65631456D01*
X157878082Y-65632460D01*
X157837548Y-65649140D01*
X157782999Y-65691715D01*
X157722944Y-65751021D01*
X157665894Y-65817892D01*
X157620359Y-65883164D01*
X157594924Y-65937406D01*
X157589556Y-65978026D01*
X157584919Y-66058738D01*
X157581007Y-66179770D01*
X157577818Y-66341350D01*
X157575348Y-66543703D01*
X157573593Y-66787058D01*
X157572550Y-67071641D01*
X157572216Y-67374474D01*
X157572099Y-68730173D01*
X157633399Y-68788902D01*
X157714459Y-68842791D01*
X157817646Y-68878158D01*
X157925753Y-68890245D01*
X157981568Y-68885156D01*
X158038179Y-68873145D01*
X158082330Y-68857117D01*
X158127874Y-68830072D01*
X158188668Y-68785007D01*
X158205310Y-68772100D01*
X158255364Y-68735916D01*
X158275914Y-68728092D01*
X158267446Y-68748053D01*
X158230448Y-68795223D01*
X158165404Y-68869026D01*
X158072803Y-68968886D01*
X157953128Y-69094228D01*
X157806868Y-69244475D01*
X157802949Y-69248470D01*
X157625877Y-69432036D01*
X157478781Y-69591541D01*
X157359587Y-69729559D01*
X157266219Y-69848666D01*
X157196603Y-69951437D01*
X157148666Y-70040446D01*
X157131904Y-70081351D01*
X157112032Y-70128544D01*
X157096274Y-70152893D01*
X157093877Y-70153836D01*
X157076391Y-70139771D01*
X157032735Y-70100579D01*
X156966864Y-70039930D01*
X156882733Y-69961493D01*
X156784295Y-69868938D01*
X156675506Y-69765934D01*
X156661609Y-69752728D01*
X156240783Y-69352654D01*
X156239665Y-67669417D01*
X156239348Y-67355334D01*
X156238813Y-67080380D01*
X156238017Y-66842012D01*
X156236915Y-66637686D01*
X156235466Y-66464858D01*
X156233626Y-66320985D01*
X156231351Y-66203524D01*
X156228599Y-66109929D01*
X156225326Y-66037659D01*
X156221489Y-65984168D01*
X156217044Y-65946914D01*
X156211950Y-65923353D01*
X156209899Y-65917615D01*
X156151329Y-65818646D01*
X156068128Y-65730387D01*
X155974506Y-65667712D01*
X155968502Y-65664924D01*
X155883934Y-65626790D01*
X155962266Y-65590913D01*
X156027822Y-65551654D01*
X156093136Y-65498805D01*
X156107261Y-65484772D01*
X156134679Y-65455835D01*
X156157989Y-65429071D01*
X156177523Y-65401011D01*
X156193616Y-65368185D01*
X156206600Y-65327123D01*
X156216808Y-65274355D01*
X156224575Y-65206412D01*
X156230233Y-65119823D01*
X156234115Y-65011120D01*
X156236555Y-64876832D01*
X156237886Y-64713489D01*
X156238441Y-64517622D01*
X156238554Y-64285760D01*
X156238547Y-64117771D01*
X156238547Y-62975971D01*
X156131810Y-62938062D01*
X156015220Y-62887924D01*
X155906097Y-62825237D01*
X155816737Y-62757758D01*
X155771987Y-62711135D01*
X155721732Y-62646921D01*
X156097598Y-62082478D01*
X156188458Y-61946090D01*
X156271778Y-61821131D01*
X156344791Y-61711741D01*
X156404729Y-61622062D01*
X156448827Y-61556235D01*
X156474316Y-61518401D01*
X156479558Y-61510822D01*
X156496393Y-61521228D01*
G37*
G36*
X174961410Y-61567779D02*
G01*
X174985777Y-61580025D01*
X175044785Y-61605208D01*
X175134053Y-61641648D01*
X175249197Y-61687662D01*
X175385835Y-61741569D01*
X175539584Y-61801686D01*
X175706060Y-61866333D01*
X175880882Y-61933827D01*
X176059667Y-62002487D01*
X176238031Y-62070630D01*
X176411591Y-62136576D01*
X176575966Y-62198642D01*
X176726772Y-62255146D01*
X176859626Y-62304407D01*
X176970146Y-62344744D01*
X177053948Y-62374473D01*
X177106650Y-62391914D01*
X177116241Y-62394628D01*
X177203595Y-62411553D01*
X177279696Y-62416574D01*
X177310660Y-62413558D01*
X177417571Y-62371967D01*
X177511198Y-62299077D01*
X177574284Y-62212561D01*
X177620900Y-62122301D01*
X177609073Y-62235641D01*
X177574556Y-62386095D01*
X177506892Y-62520508D01*
X177410949Y-62632638D01*
X177291597Y-62716242D01*
X177206770Y-62751395D01*
X177096135Y-62786270D01*
X177096135Y-63069764D01*
X177096826Y-63187714D01*
X177099647Y-63273036D01*
X177105726Y-63334765D01*
X177116186Y-63381933D01*
X177132155Y-63423574D01*
X177143018Y-63446061D01*
X177186675Y-63512836D01*
X177240772Y-63570563D01*
X177260702Y-63585915D01*
X177331502Y-63632966D01*
X177259870Y-63632966D01*
X177172664Y-63641939D01*
X177063081Y-63666257D01*
X176945706Y-63702014D01*
X176835125Y-63745308D01*
X176827823Y-63748608D01*
X176719062Y-63804552D01*
X176609825Y-63874315D01*
X176496726Y-63961029D01*
X176376381Y-64067822D01*
X176245406Y-64197826D01*
X176100416Y-64354170D01*
X175938026Y-64539984D01*
X175817135Y-64683329D01*
X175720480Y-64798485D01*
X175623800Y-64912295D01*
X175533303Y-65017551D01*
X175455198Y-65107043D01*
X175395696Y-65173562D01*
X175383478Y-65186806D01*
X175183492Y-65379879D01*
X174976489Y-65538486D01*
X174765812Y-65660458D01*
X174554803Y-65743623D01*
X174504448Y-65757576D01*
X174356103Y-65795247D01*
X174350738Y-67097234D01*
X174349762Y-67373836D01*
X174349310Y-67611364D01*
X174349422Y-67812416D01*
X174350139Y-67979587D01*
X174351503Y-68115477D01*
X174353553Y-68222681D01*
X174356332Y-68303796D01*
X174359880Y-68361420D01*
X174364237Y-68398149D01*
X174369446Y-68416582D01*
X174371575Y-68419267D01*
X174397379Y-68431679D01*
X174456512Y-68456347D01*
X174543459Y-68491175D01*
X174652708Y-68534073D01*
X174778746Y-68582945D01*
X174916060Y-68635699D01*
X175059136Y-68690241D01*
X175202462Y-68744478D01*
X175340524Y-68796318D01*
X175467809Y-68843666D01*
X175578805Y-68884430D01*
X175667999Y-68916515D01*
X175729876Y-68937830D01*
X175758924Y-68946279D01*
X175759723Y-68946337D01*
X175768889Y-68938019D01*
X175775451Y-68910125D01*
X175779611Y-68858244D01*
X175781575Y-68777967D01*
X175781546Y-68664882D01*
X175779729Y-68514579D01*
X175779720Y-68513975D01*
X175776549Y-68352305D01*
X175771686Y-68226452D01*
X175763639Y-68130563D01*
X175750918Y-68058782D01*
X175732033Y-68005254D01*
X175705493Y-67964123D01*
X175669809Y-67929536D01*
X175623489Y-67895637D01*
X175622081Y-67894679D01*
X175544542Y-67841990D01*
X175638766Y-67841990D01*
X175800090Y-67823887D01*
X175968884Y-67772486D01*
X176134768Y-67692141D01*
X176287362Y-67587211D01*
X176327602Y-67552845D01*
X176380215Y-67500190D01*
X176450409Y-67422229D01*
X176531088Y-67327242D01*
X176615160Y-67223508D01*
X176668859Y-67154537D01*
X176748344Y-67052752D01*
X176826013Y-66957126D01*
X176895685Y-66874996D01*
X176951180Y-66813695D01*
X176978985Y-66786491D01*
X177074968Y-66716919D01*
X177189898Y-66654707D01*
X177307625Y-66607494D01*
X177408687Y-66583315D01*
X177456981Y-66578784D01*
X177476189Y-66580360D01*
X177471197Y-66583944D01*
X177381465Y-66634924D01*
X177294842Y-66709440D01*
X177229153Y-66792042D01*
X177227025Y-66795617D01*
X177199216Y-66845740D01*
X177176169Y-66895494D01*
X177157352Y-66949400D01*
X177142236Y-67011978D01*
X177130291Y-67087750D01*
X177120988Y-67181235D01*
X177113796Y-67296956D01*
X177108187Y-67439431D01*
X177103630Y-67613183D01*
X177099595Y-67822732D01*
X177098408Y-67893221D01*
X177085717Y-68663320D01*
X176925717Y-68688034D01*
X176657715Y-68750029D01*
X176397412Y-68850495D01*
X176150163Y-68986294D01*
X175921325Y-69154290D01*
X175716254Y-69351345D01*
X175638622Y-69441868D01*
X175584382Y-69514865D01*
X175523157Y-69606772D01*
X175459112Y-69710184D01*
X175396408Y-69817696D01*
X175339211Y-69921903D01*
X175291684Y-70015401D01*
X175257989Y-70090784D01*
X175242292Y-70140648D01*
X175241665Y-70147849D01*
X175226590Y-70171789D01*
X175193050Y-70172429D01*
X175167694Y-70157531D01*
X175144607Y-70146462D01*
X175086954Y-70122345D01*
X174999143Y-70086879D01*
X174885586Y-70041763D01*
X174750692Y-69988697D01*
X174598872Y-69929380D01*
X174434535Y-69865510D01*
X174262092Y-69798787D01*
X174085953Y-69730910D01*
X173910528Y-69663579D01*
X173740227Y-69598491D01*
X173579459Y-69537347D01*
X173432636Y-69481846D01*
X173304168Y-69433686D01*
X173198463Y-69394567D01*
X173119933Y-69366189D01*
X173072988Y-69350249D01*
X173070261Y-69349423D01*
X172953672Y-69327778D01*
X172840821Y-69325767D01*
X172737452Y-69346540D01*
X172653777Y-69395706D01*
X172582136Y-69478659D01*
X172551046Y-69529767D01*
X172510436Y-69602695D01*
X172523170Y-69498511D01*
X172560338Y-69345721D01*
X172629679Y-69209404D01*
X172726269Y-69095425D01*
X172845187Y-69009651D01*
X172975668Y-68959316D01*
X173032969Y-68945544D01*
X173032765Y-67502995D01*
X173032562Y-66060447D01*
X172983651Y-65955412D01*
X172907818Y-65836730D01*
X172806598Y-65749855D01*
X172743989Y-65717774D01*
X172678677Y-65690721D01*
X172787355Y-65625543D01*
X172900245Y-65534977D01*
X172959292Y-65457836D01*
X173022550Y-65355307D01*
X173028274Y-64213688D01*
X173028417Y-64185140D01*
X174345684Y-64185140D01*
X174345974Y-64480619D01*
X174346830Y-64745040D01*
X174348233Y-64977024D01*
X174350164Y-65175195D01*
X174352604Y-65338175D01*
X174355532Y-65464586D01*
X174358930Y-65553051D01*
X174362778Y-65602193D01*
X174365750Y-65612457D01*
X174394935Y-65605307D01*
X174449099Y-65586869D01*
X174495979Y-65569125D01*
X174650974Y-65493007D01*
X174815821Y-65384999D01*
X174983484Y-65251311D01*
X175146925Y-65098150D01*
X175299108Y-64931724D01*
X175432994Y-64758242D01*
X175460005Y-64718680D01*
X175568197Y-64544948D01*
X175650689Y-64383600D01*
X175710411Y-64224539D01*
X175750298Y-64057668D01*
X175773280Y-63872890D01*
X175782292Y-63660108D01*
X175782693Y-63607653D01*
X175782432Y-63491772D01*
X175780424Y-63410731D01*
X175775864Y-63357708D01*
X175767950Y-63325882D01*
X175755876Y-63308428D01*
X175746710Y-63302234D01*
X175719711Y-63290473D01*
X175660128Y-63266135D01*
X175573332Y-63231323D01*
X175464694Y-63188140D01*
X175339583Y-63138688D01*
X175203372Y-63085069D01*
X175061429Y-63029386D01*
X174919126Y-62973742D01*
X174781834Y-62920239D01*
X174654923Y-62870979D01*
X174543763Y-62828064D01*
X174453725Y-62793599D01*
X174390179Y-62769684D01*
X174358497Y-62758422D01*
X174356063Y-62757822D01*
X174354320Y-62778097D01*
X174352669Y-62836675D01*
X174351134Y-62930185D01*
X174349740Y-63055257D01*
X174348511Y-63208520D01*
X174347473Y-63386604D01*
X174346648Y-63586138D01*
X174346063Y-63803751D01*
X174345741Y-64036074D01*
X174345684Y-64185140D01*
X173028417Y-64185140D01*
X173033998Y-63072069D01*
X173111621Y-63060172D01*
X173417418Y-62994274D01*
X173699719Y-62893965D01*
X173958393Y-62759341D01*
X174193313Y-62590498D01*
X174404347Y-62387530D01*
X174591367Y-62150535D01*
X174754244Y-61879606D01*
X174780032Y-61829160D01*
X174819644Y-61746720D01*
X174852792Y-61672159D01*
X174874111Y-61617757D01*
X174877934Y-61605165D01*
X174901194Y-61559415D01*
X174935529Y-61551528D01*
X174961410Y-61567779D01*
G37*
G36*
X164033698Y-61564335D02*
G01*
X164064755Y-61579115D01*
X164105694Y-61597059D01*
X164180858Y-61627751D01*
X164285521Y-61669390D01*
X164414957Y-61720173D01*
X164564437Y-61778298D01*
X164729237Y-61841963D01*
X164904628Y-61909364D01*
X165085885Y-61978700D01*
X165268279Y-62048168D01*
X165447086Y-62115966D01*
X165617577Y-62180292D01*
X165775026Y-62239342D01*
X165914706Y-62291315D01*
X166031891Y-62334409D01*
X166121853Y-62366820D01*
X166179867Y-62386746D01*
X166194460Y-62391207D01*
X166288797Y-62411151D01*
X166366808Y-62416375D01*
X166392409Y-62413513D01*
X166499087Y-62371994D01*
X166592607Y-62299208D01*
X166655826Y-62212561D01*
X166702442Y-62122301D01*
X166690615Y-62235641D01*
X166656099Y-62386095D01*
X166588434Y-62520508D01*
X166492491Y-62632638D01*
X166373139Y-62716242D01*
X166288312Y-62751395D01*
X166177678Y-62786270D01*
X166177678Y-64025043D01*
X166177976Y-64316346D01*
X166178893Y-64567687D01*
X166180459Y-64780773D01*
X166182706Y-64957312D01*
X166185665Y-65099011D01*
X166189367Y-65207578D01*
X166193844Y-65284719D01*
X166199126Y-65332142D01*
X166201860Y-65344529D01*
X166245219Y-65435817D01*
X166314576Y-65525822D01*
X166397062Y-65599809D01*
X166454191Y-65633496D01*
X166535080Y-65669712D01*
X166437853Y-65716778D01*
X166338865Y-65785451D01*
X166256944Y-65882002D01*
X166203022Y-65993090D01*
X166198299Y-66009156D01*
X166193800Y-66047703D01*
X166189988Y-66126412D01*
X166186879Y-66243776D01*
X166184491Y-66398289D01*
X166182840Y-66588444D01*
X166181942Y-66812734D01*
X166181814Y-67069654D01*
X166182473Y-67357696D01*
X166182733Y-67427164D01*
X166188096Y-68767447D01*
X166286202Y-68828099D01*
X166386940Y-68875032D01*
X166495720Y-68900795D01*
X166596000Y-68901983D01*
X166621655Y-68897115D01*
X166665696Y-68878648D01*
X166728014Y-68843797D01*
X166780624Y-68809853D01*
X166834745Y-68774856D01*
X166864572Y-68761343D01*
X166869304Y-68770325D01*
X166848140Y-68802811D01*
X166800280Y-68859813D01*
X166724923Y-68942341D01*
X166621268Y-69051405D01*
X166488516Y-69188017D01*
X166449665Y-69227634D01*
X166339400Y-69341021D01*
X166233398Y-69452104D01*
X166136909Y-69555222D01*
X166055185Y-69644712D01*
X165993476Y-69714912D01*
X165962087Y-69753331D01*
X165899414Y-69841333D01*
X165840815Y-69933607D01*
X165791325Y-70021146D01*
X165755979Y-70094945D01*
X165739812Y-70145996D01*
X165739333Y-70151776D01*
X165725322Y-70146240D01*
X165685874Y-70113597D01*
X165624253Y-70056955D01*
X165543725Y-69979421D01*
X165447553Y-69884102D01*
X165339004Y-69774104D01*
X165295062Y-69728972D01*
X164851563Y-69271820D01*
X164732177Y-69416421D01*
X164600052Y-69593181D01*
X164484129Y-69781175D01*
X164392785Y-69966363D01*
X164369482Y-70024414D01*
X164338467Y-70104620D01*
X164316806Y-70151356D01*
X164300064Y-70170477D01*
X164283809Y-70167840D01*
X164269995Y-70155833D01*
X164246284Y-70143846D01*
X164187964Y-70118895D01*
X164099437Y-70082673D01*
X163985104Y-70036874D01*
X163849367Y-69983193D01*
X163696627Y-69923324D01*
X163531286Y-69858961D01*
X163357745Y-69791799D01*
X163180406Y-69723530D01*
X163003671Y-69655850D01*
X162831940Y-69590452D01*
X162669616Y-69529031D01*
X162521099Y-69473281D01*
X162390792Y-69424896D01*
X162283096Y-69385570D01*
X162202412Y-69356997D01*
X162153142Y-69340871D01*
X162151239Y-69340325D01*
X162069916Y-69319868D01*
X161995480Y-69305517D01*
X161947412Y-69300562D01*
X161837159Y-69320573D01*
X161738696Y-69378746D01*
X161656095Y-69472287D01*
X161628215Y-69519348D01*
X161606256Y-69557509D01*
X161596672Y-69560543D01*
X161594427Y-69537171D01*
X161600000Y-69494787D01*
X161615380Y-69427897D01*
X161635592Y-69356505D01*
X161700407Y-69210838D01*
X161795636Y-69093226D01*
X161919992Y-69005089D01*
X161979072Y-68977812D01*
X162104093Y-68927613D01*
X162104093Y-68067041D01*
X162104093Y-67221383D01*
X163450938Y-67221383D01*
X163451890Y-67408476D01*
X163453030Y-67580235D01*
X163458482Y-68410612D01*
X164146094Y-68677074D01*
X164305964Y-68738899D01*
X164453544Y-68795727D01*
X164584332Y-68845843D01*
X164693825Y-68887532D01*
X164777521Y-68919080D01*
X164830918Y-68938771D01*
X164849335Y-68944936D01*
X164851724Y-68924828D01*
X164854002Y-68866105D01*
X164856141Y-68771825D01*
X164858113Y-68645049D01*
X164859891Y-68488834D01*
X164861447Y-68306239D01*
X164862754Y-68100323D01*
X164863783Y-67874144D01*
X164864507Y-67630762D01*
X164864899Y-67373235D01*
X164864962Y-67216887D01*
X164864962Y-65487437D01*
X164755569Y-65487684D01*
X164582200Y-65507956D01*
X164405744Y-65565645D01*
X164230839Y-65657217D01*
X164062126Y-65779139D01*
X163904242Y-65927878D01*
X163761827Y-66099899D01*
X163639520Y-66291669D01*
X163599660Y-66368209D01*
X163563043Y-66442977D01*
X163532822Y-66507162D01*
X163508411Y-66565610D01*
X163489223Y-66623171D01*
X163474672Y-66684692D01*
X163464171Y-66755021D01*
X163457134Y-66839007D01*
X163452973Y-66941497D01*
X163451104Y-67067340D01*
X163450938Y-67221383D01*
X162104093Y-67221383D01*
X162104093Y-67206469D01*
X162038154Y-67067287D01*
X161990761Y-66980458D01*
X161933378Y-66893718D01*
X161885790Y-66834345D01*
X161799365Y-66740584D01*
X161899637Y-66728060D01*
X162090897Y-66699283D01*
X162265596Y-66661362D01*
X162429459Y-66611423D01*
X162588211Y-66546591D01*
X162747579Y-66463993D01*
X162913286Y-66360755D01*
X163091058Y-66234002D01*
X163286622Y-66080861D01*
X163437645Y-65956021D01*
X163632991Y-65794672D01*
X163803694Y-65660647D01*
X163954250Y-65551480D01*
X164089156Y-65464704D01*
X164212908Y-65397853D01*
X164330003Y-65348459D01*
X164444938Y-65314056D01*
X164562208Y-65292177D01*
X164667013Y-65281588D01*
X164854544Y-65268651D01*
X164859959Y-64295376D01*
X164861142Y-64068200D01*
X164861866Y-63879126D01*
X164862017Y-63724581D01*
X164861483Y-63600994D01*
X164860152Y-63504794D01*
X164857910Y-63432410D01*
X164854647Y-63380271D01*
X164850248Y-63344805D01*
X164844603Y-63322441D01*
X164837597Y-63309608D01*
X164829120Y-63302735D01*
X164828703Y-63302509D01*
X164800013Y-63289860D01*
X164738927Y-63264749D01*
X164650828Y-63229283D01*
X164541100Y-63185568D01*
X164415125Y-63135710D01*
X164278287Y-63081817D01*
X164135969Y-63025995D01*
X163993554Y-62970350D01*
X163856426Y-62916988D01*
X163729967Y-62868017D01*
X163619561Y-62825544D01*
X163530591Y-62791673D01*
X163468439Y-62768513D01*
X163438491Y-62758169D01*
X163436783Y-62757822D01*
X163433666Y-62777883D01*
X163431385Y-62834977D01*
X163429963Y-62924473D01*
X163429421Y-63041738D01*
X163429780Y-63182141D01*
X163431062Y-63341049D01*
X163433278Y-63513155D01*
X163437211Y-63740026D01*
X163441832Y-63929703D01*
X163447604Y-64086666D01*
X163454992Y-64215395D01*
X163464462Y-64320368D01*
X163476479Y-64406066D01*
X163491508Y-64476967D01*
X163510014Y-64537551D01*
X163532462Y-64592297D01*
X163548788Y-64625712D01*
X163627555Y-64737057D01*
X163735686Y-64829059D01*
X163771033Y-64850531D01*
X163833543Y-64885353D01*
X163739778Y-64872866D01*
X163630520Y-64849575D01*
X163526198Y-64807564D01*
X163422273Y-64743388D01*
X163314207Y-64653604D01*
X163197460Y-64534765D01*
X163067493Y-64383427D01*
X163023982Y-64329590D01*
X162881746Y-64157195D01*
X162755078Y-64017171D01*
X162639007Y-63905628D01*
X162528557Y-63818680D01*
X162418754Y-63752438D01*
X162304626Y-63703013D01*
X162181199Y-63666518D01*
X162173374Y-63664651D01*
X162089045Y-63647788D01*
X162007548Y-63636378D01*
X161960363Y-63633274D01*
X161879144Y-63632966D01*
X161949628Y-63585467D01*
X162033372Y-63508900D01*
X162086679Y-63410449D01*
X162111635Y-63285518D01*
X162114168Y-63222384D01*
X162114511Y-63072262D01*
X162192649Y-63059874D01*
X162348632Y-63029755D01*
X162511410Y-62989085D01*
X162663648Y-62942559D01*
X162765261Y-62904673D01*
X162966250Y-62803439D01*
X163167222Y-62669787D01*
X163358432Y-62511823D01*
X163530137Y-62337650D01*
X163672593Y-62155375D01*
X163680808Y-62143138D01*
X163738151Y-62051616D01*
X163798017Y-61947350D01*
X163855306Y-61840182D01*
X163904922Y-61739953D01*
X163941765Y-61656507D01*
X163959476Y-61605165D01*
X163973100Y-61564798D01*
X163993986Y-61552142D01*
X164033698Y-61564335D01*
G37*
G36*
X170668965Y-61562894D02*
G01*
X170711841Y-61600075D01*
X170772489Y-61655392D01*
X170844837Y-61723404D01*
X170856147Y-61734195D01*
X171041308Y-61897663D01*
X171226780Y-62035472D01*
X171408344Y-62145294D01*
X171581784Y-62224805D01*
X171742879Y-62271676D01*
X171853033Y-62284010D01*
X171930197Y-62282800D01*
X171996852Y-62276914D01*
X172029384Y-62270230D01*
X172063159Y-62261655D01*
X172065242Y-62276055D01*
X172053262Y-62300123D01*
X172023457Y-62341933D01*
X171973126Y-62399999D01*
X171912353Y-62463974D01*
X171851220Y-62523511D01*
X171799810Y-62568265D01*
X171775755Y-62584866D01*
X171767308Y-62591189D01*
X171760133Y-62602680D01*
X171754078Y-62622695D01*
X171748995Y-62654589D01*
X171744733Y-62701718D01*
X171741144Y-62767438D01*
X171738077Y-62855104D01*
X171735384Y-62968072D01*
X171732914Y-63109696D01*
X171730518Y-63283333D01*
X171728046Y-63492338D01*
X171725693Y-63707840D01*
X171713895Y-64810461D01*
X171568087Y-64846256D01*
X171468851Y-64875880D01*
X171368782Y-64917500D01*
X171262905Y-64974239D01*
X171146246Y-65049220D01*
X171013830Y-65145564D01*
X170860682Y-65266395D01*
X170739651Y-65366238D01*
X170691986Y-65408671D01*
X170662769Y-65439777D01*
X170657928Y-65450971D01*
X170681745Y-65461981D01*
X170738176Y-65484909D01*
X170820720Y-65517305D01*
X170922875Y-65556717D01*
X171038136Y-65600693D01*
X171160003Y-65646783D01*
X171281972Y-65692535D01*
X171397540Y-65735498D01*
X171500206Y-65773222D01*
X171583466Y-65803254D01*
X171640819Y-65823143D01*
X171663733Y-65830117D01*
X171744380Y-65831644D01*
X171835957Y-65809520D01*
X171919306Y-65768928D01*
X171936934Y-65756248D01*
X171979830Y-65711605D01*
X172025430Y-65648094D01*
X172044447Y-65615670D01*
X172071025Y-65570050D01*
X172086130Y-65551935D01*
X172087257Y-65560365D01*
X172078742Y-65606642D01*
X172068589Y-65672346D01*
X172065301Y-65695901D01*
X172026790Y-65831157D01*
X171952670Y-65953431D01*
X171848457Y-66056464D01*
X171719670Y-66134001D01*
X171657743Y-66158066D01*
X171563978Y-66188937D01*
X171558606Y-67456728D01*
X171553234Y-68724519D01*
X171600279Y-68775667D01*
X171689882Y-68844757D01*
X171800845Y-68888166D01*
X171919771Y-68902950D01*
X172033264Y-68886166D01*
X172059520Y-68876566D01*
X172120733Y-68843723D01*
X172184633Y-68799255D01*
X172194290Y-68791367D01*
X172234981Y-68762041D01*
X172259132Y-68754264D01*
X172262009Y-68758941D01*
X172247957Y-68779895D01*
X172208376Y-68826203D01*
X172147128Y-68893678D01*
X172068077Y-68978131D01*
X171975086Y-69075374D01*
X171880751Y-69172319D01*
X171720141Y-69337592D01*
X171586686Y-69478650D01*
X171476976Y-69599607D01*
X171387596Y-69704573D01*
X171315136Y-69797659D01*
X171256184Y-69882976D01*
X171207326Y-69964637D01*
X171179737Y-70016964D01*
X171102706Y-70170299D01*
X170676984Y-69772351D01*
X170251263Y-69374404D01*
X170240844Y-68040574D01*
X170230426Y-66706744D01*
X169563650Y-66451511D01*
X169405010Y-66390840D01*
X169257749Y-66334627D01*
X169126646Y-66284688D01*
X169016480Y-66242837D01*
X168932032Y-66210893D01*
X168878080Y-66190672D01*
X168860409Y-66184259D01*
X168852947Y-66183589D01*
X168846575Y-66188881D01*
X168841209Y-66203146D01*
X168836762Y-66229392D01*
X168833148Y-66270631D01*
X168830283Y-66329872D01*
X168828079Y-66410123D01*
X168826451Y-66514396D01*
X168825313Y-66645699D01*
X168824579Y-66807043D01*
X168824164Y-67001437D01*
X168823981Y-67231891D01*
X168823945Y-67462690D01*
X168823945Y-68753139D01*
X168902083Y-68806900D01*
X169006699Y-68868010D01*
X169102716Y-68898511D01*
X169174317Y-68904206D01*
X169262787Y-68890163D01*
X169355606Y-68854432D01*
X169433752Y-68805183D01*
X169457486Y-68782586D01*
X169492404Y-68750102D01*
X169516206Y-68737970D01*
X169523010Y-68747553D01*
X169507177Y-68777257D01*
X169467456Y-68828517D01*
X169402591Y-68902768D01*
X169311330Y-69001444D01*
X169192418Y-69125980D01*
X169044601Y-69277810D01*
X169042724Y-69279726D01*
X168891089Y-69436260D01*
X168766618Y-69569395D01*
X168665614Y-69683735D01*
X168584381Y-69783887D01*
X168519221Y-69874455D01*
X168466438Y-69960046D01*
X168422336Y-70045265D01*
X168414169Y-70062805D01*
X168386252Y-70122367D01*
X168366056Y-70162795D01*
X168358800Y-70174448D01*
X168343310Y-70160408D01*
X168301361Y-70121360D01*
X168236791Y-70060904D01*
X168153441Y-69982643D01*
X168055151Y-69890180D01*
X167945762Y-69787116D01*
X167922756Y-69765422D01*
X167490393Y-69357654D01*
X167490393Y-68005320D01*
X167490550Y-67723438D01*
X167491054Y-67480729D01*
X167491951Y-67274694D01*
X167493291Y-67102836D01*
X167495120Y-66962654D01*
X167497488Y-66851650D01*
X167500441Y-66767325D01*
X167504027Y-66707180D01*
X167508296Y-66668717D01*
X167513293Y-66649436D01*
X167516439Y-66646083D01*
X167548640Y-66637954D01*
X167608688Y-66623106D01*
X167683933Y-66604667D01*
X167688342Y-66603591D01*
X167780956Y-66575033D01*
X167887132Y-66533448D01*
X167984856Y-66487509D01*
X167990475Y-66484534D01*
X168061936Y-66443214D01*
X168145608Y-66389909D01*
X168235271Y-66329201D01*
X168324706Y-66265672D01*
X168407694Y-66203903D01*
X168478014Y-66148478D01*
X168529448Y-66103977D01*
X168555777Y-66074982D01*
X168557104Y-66067087D01*
X168532481Y-66054314D01*
X168475627Y-66029936D01*
X168393470Y-65996601D01*
X168292939Y-65956958D01*
X168180962Y-65913657D01*
X168064469Y-65869345D01*
X167950387Y-65826671D01*
X167845646Y-65788285D01*
X167757174Y-65756835D01*
X167691899Y-65734970D01*
X167674717Y-65729754D01*
X167538903Y-65701652D01*
X167426767Y-65704737D01*
X167332483Y-65740768D01*
X167250224Y-65811503D01*
X167203888Y-65871816D01*
X167164776Y-65923747D01*
X167142392Y-65939456D01*
X167136616Y-65918414D01*
X167147328Y-65860092D01*
X167174409Y-65763963D01*
X167177339Y-65754429D01*
X167224807Y-65639410D01*
X167287833Y-65540468D01*
X167295992Y-65530613D01*
X167358279Y-65471696D01*
X167437028Y-65416164D01*
X167519235Y-65371581D01*
X167591896Y-65345512D01*
X167620623Y-65341783D01*
X167628486Y-65339790D01*
X167635134Y-65331766D01*
X167640668Y-65314496D01*
X167645189Y-65284768D01*
X167648799Y-65239369D01*
X167651600Y-65175087D01*
X167653692Y-65088709D01*
X167655178Y-64977021D01*
X167656159Y-64836811D01*
X167656736Y-64664867D01*
X167657011Y-64457975D01*
X167657087Y-64212922D01*
X167657087Y-64187971D01*
X167657087Y-63034362D01*
X167558112Y-62997021D01*
X167464018Y-62954948D01*
X167371702Y-62902226D01*
X167287520Y-62843989D01*
X167217825Y-62785372D01*
X167168971Y-62731509D01*
X167147313Y-62687535D01*
X167150323Y-62667502D01*
X167168763Y-62638529D01*
X167206142Y-62581378D01*
X167259029Y-62501190D01*
X167323993Y-62403110D01*
X167397606Y-62292279D01*
X167476437Y-62173841D01*
X167557057Y-62052938D01*
X167636034Y-61934713D01*
X167709940Y-61824309D01*
X167775343Y-61726869D01*
X167828815Y-61647535D01*
X167866925Y-61591451D01*
X167886244Y-61563759D01*
X167887681Y-61561933D01*
X167908641Y-61568013D01*
X167953136Y-61598785D01*
X168015103Y-61649603D01*
X168088268Y-61715624D01*
X168287374Y-61889484D01*
X168481971Y-62033716D01*
X168669377Y-62146997D01*
X168846912Y-62228008D01*
X169011898Y-62275427D01*
X169161653Y-62287931D01*
X169233159Y-62280096D01*
X169292970Y-62270608D01*
X169333178Y-62267395D01*
X169342119Y-62268886D01*
X169331307Y-62285644D01*
X169296187Y-62325646D01*
X169242201Y-62382952D01*
X169174791Y-62451626D01*
X169172791Y-62453627D01*
X168995756Y-62630662D01*
X168987988Y-63718027D01*
X168980221Y-64805393D01*
X169688670Y-65083671D01*
X169850353Y-65147132D01*
X169999353Y-65205523D01*
X170131332Y-65257151D01*
X170241953Y-65300323D01*
X170326880Y-65333347D01*
X170381775Y-65354530D01*
X170402302Y-65362180D01*
X170402329Y-65362183D01*
X170403296Y-65342013D01*
X170404205Y-65283905D01*
X170405039Y-65191593D01*
X170405781Y-65068812D01*
X170406414Y-64919299D01*
X170406923Y-64746786D01*
X170407289Y-64555010D01*
X170407496Y-64347706D01*
X170407538Y-64200661D01*
X170407538Y-63038906D01*
X170283198Y-62990692D01*
X170192636Y-62948652D01*
X170099357Y-62893879D01*
X170013758Y-62833661D01*
X169946240Y-62775286D01*
X169908148Y-62727861D01*
X169902574Y-62712490D01*
X169902908Y-62693040D01*
X169911315Y-62665736D01*
X169929959Y-62626805D01*
X169961004Y-62572474D01*
X170006613Y-62498969D01*
X170068952Y-62402518D01*
X170150185Y-62279346D01*
X170252474Y-62125680D01*
X170259832Y-62114653D01*
X170351100Y-61978457D01*
X170435189Y-61854058D01*
X170509286Y-61745534D01*
X170570579Y-61656962D01*
X170616254Y-61592419D01*
X170643499Y-61555981D01*
X170649928Y-61549291D01*
X170668965Y-61562894D01*
G37*
G36*
X152467113Y-59348551D02*
G01*
X152521069Y-59394605D01*
X152568305Y-59430441D01*
X152585063Y-59441003D01*
X152611569Y-59452305D01*
X152673143Y-59476984D01*
X152765929Y-59513538D01*
X152886067Y-59560467D01*
X153029701Y-59616268D01*
X153192972Y-59679439D01*
X153372022Y-59748480D01*
X153562993Y-59821888D01*
X153607124Y-59838820D01*
X153834608Y-59925866D01*
X154026910Y-59998912D01*
X154187635Y-60059195D01*
X154320389Y-60107956D01*
X154428776Y-60146431D01*
X154516402Y-60175860D01*
X154586872Y-60197481D01*
X154643792Y-60212533D01*
X154690766Y-60222254D01*
X154731400Y-60227883D01*
X154742727Y-60228945D01*
X154899884Y-60229893D01*
X155053176Y-60208360D01*
X155187637Y-60166770D01*
X155220517Y-60151535D01*
X155303083Y-60093886D01*
X155379293Y-60013415D01*
X155437814Y-59923965D01*
X155464726Y-59853290D01*
X155483961Y-59767748D01*
X155486193Y-59867244D01*
X155469135Y-60021311D01*
X155412043Y-60171337D01*
X155316503Y-60315436D01*
X155184097Y-60451727D01*
X155016411Y-60578325D01*
X154815029Y-60693348D01*
X154774765Y-60712943D01*
X154571607Y-60809388D01*
X154571607Y-62061385D01*
X154571607Y-63313381D01*
X154030440Y-63644624D01*
X153896432Y-63727399D01*
X153775475Y-63803561D01*
X153671748Y-63870362D01*
X153589433Y-63925053D01*
X153532710Y-63964885D01*
X153505758Y-63987111D01*
X153504312Y-63990525D01*
X153526953Y-64001562D01*
X153583433Y-64025458D01*
X153668674Y-64060170D01*
X153777598Y-64103658D01*
X153905126Y-64153878D01*
X154046180Y-64208788D01*
X154069748Y-64217905D01*
X154254503Y-64288548D01*
X154405481Y-64344058D01*
X154527344Y-64385404D01*
X154624753Y-64413554D01*
X154702369Y-64429476D01*
X154764853Y-64434138D01*
X154816866Y-64428511D01*
X154863069Y-64413560D01*
X154905814Y-64391612D01*
X154966647Y-64341148D01*
X155021023Y-64270788D01*
X155059112Y-64195580D01*
X155071346Y-64138257D01*
X155080418Y-64101671D01*
X155095075Y-64091374D01*
X155106816Y-64108152D01*
X155111817Y-64160258D01*
X155110284Y-64250355D01*
X155109184Y-64273696D01*
X155085847Y-64442683D01*
X155032262Y-64590371D01*
X154945398Y-64721659D01*
X154822228Y-64841449D01*
X154706527Y-64925183D01*
X154571607Y-65013086D01*
X154571723Y-66651533D01*
X154572028Y-66988004D01*
X154572885Y-67290180D01*
X154574282Y-67557136D01*
X154576208Y-67787948D01*
X154578651Y-67981690D01*
X154581600Y-68137437D01*
X154585042Y-68254264D01*
X154588967Y-68331246D01*
X154593241Y-68367035D01*
X154617264Y-68427950D01*
X154656127Y-68502129D01*
X154685481Y-68549357D01*
X154718627Y-68604018D01*
X154734852Y-68642226D01*
X154731683Y-68655036D01*
X154660422Y-68661157D01*
X154564061Y-68675823D01*
X154457585Y-68696191D01*
X154355980Y-68719415D01*
X154279893Y-68740792D01*
X154078028Y-68820938D01*
X153861492Y-68934267D01*
X153635195Y-69077176D01*
X153404049Y-69246060D01*
X153172966Y-69437318D01*
X152946856Y-69647346D01*
X152730630Y-69872541D01*
X152717692Y-69886886D01*
X152644027Y-69968756D01*
X152577823Y-70042128D01*
X152525347Y-70100072D01*
X152492864Y-70135659D01*
X152488597Y-70140255D01*
X152479025Y-70148285D01*
X152465782Y-70152652D01*
X152445554Y-70152082D01*
X152415027Y-70145304D01*
X152370888Y-70131043D01*
X152309823Y-70108029D01*
X152228518Y-70074987D01*
X152123661Y-70030646D01*
X151991936Y-69973733D01*
X151830031Y-69902974D01*
X151634633Y-69817098D01*
X151548686Y-69779257D01*
X151355367Y-69693993D01*
X151164649Y-69609636D01*
X150981804Y-69528537D01*
X150812110Y-69453046D01*
X150660841Y-69385511D01*
X150533272Y-69328283D01*
X150434679Y-69283712D01*
X150383420Y-69260233D01*
X150167148Y-69164369D01*
X149976047Y-69089772D01*
X149801038Y-69033967D01*
X149633043Y-68994480D01*
X149462984Y-68968833D01*
X149281782Y-68954554D01*
X149258235Y-68953460D01*
X149023408Y-68954673D01*
X148817850Y-68981121D01*
X148636553Y-69034332D01*
X148474512Y-69115835D01*
X148326719Y-69227159D01*
X148308750Y-69243477D01*
X148190673Y-69370409D01*
X148103300Y-69506975D01*
X148044117Y-69659759D01*
X148010607Y-69835340D01*
X148000257Y-70040300D01*
X148000297Y-70050685D01*
X148009210Y-70245974D01*
X148035511Y-70416662D01*
X148082395Y-70577329D01*
X148150998Y-70738298D01*
X148248451Y-70898943D01*
X148376902Y-71048521D01*
X148525998Y-71176551D01*
X148672397Y-71266245D01*
X148745981Y-71305695D01*
X148781524Y-71330967D01*
X148780538Y-71340995D01*
X148744538Y-71334716D01*
X148675040Y-71311063D01*
X148632629Y-71294216D01*
X148447149Y-71195758D01*
X148277542Y-71060860D01*
X148126608Y-70892650D01*
X147997142Y-70694259D01*
X147891944Y-70468814D01*
X147889938Y-70463611D01*
X147868142Y-70404760D01*
X147852594Y-70353924D01*
X147842283Y-70302299D01*
X147836196Y-70241084D01*
X147833324Y-70161474D01*
X147832653Y-70054669D01*
X147832916Y-69967338D01*
X147834224Y-69831636D01*
X147837513Y-69727140D01*
X147843870Y-69643392D01*
X147854380Y-69569932D01*
X147870129Y-69496304D01*
X147889593Y-69421572D01*
X147986999Y-69133689D01*
X148113627Y-68875434D01*
X148269061Y-68647137D01*
X148452887Y-68449128D01*
X148664687Y-68281739D01*
X148904047Y-68145300D01*
X149170552Y-68040141D01*
X149463785Y-67966593D01*
X149769028Y-67926118D01*
X149879600Y-67918007D01*
X149973838Y-67913737D01*
X150063665Y-67913508D01*
X150161006Y-67917519D01*
X150277784Y-67925969D01*
X150399859Y-67936665D01*
X150510063Y-67946728D01*
X150504043Y-67014006D01*
X150502563Y-66792446D01*
X150501110Y-66608626D01*
X150501006Y-66599040D01*
X151821156Y-66599040D01*
X151821172Y-66916450D01*
X151821261Y-67194789D01*
X151821479Y-67436658D01*
X151821886Y-67644660D01*
X151822539Y-67821397D01*
X151823498Y-67969471D01*
X151824820Y-68091483D01*
X151826564Y-68190037D01*
X151828788Y-68267733D01*
X151831550Y-68327175D01*
X151834910Y-68370964D01*
X151838924Y-68401701D01*
X151843652Y-68421990D01*
X151849151Y-68434433D01*
X151855481Y-68441631D01*
X151862565Y-68446114D01*
X151894617Y-68460319D01*
X151958875Y-68486437D01*
X152049822Y-68522371D01*
X152161937Y-68566027D01*
X152289704Y-68615309D01*
X152427603Y-68668122D01*
X152570115Y-68722370D01*
X152711723Y-68775959D01*
X152846907Y-68826792D01*
X152970148Y-68872775D01*
X153075930Y-68911812D01*
X153158731Y-68941808D01*
X153213035Y-68960668D01*
X153232846Y-68966388D01*
X153237554Y-68958784D01*
X153241697Y-68934224D01*
X153245306Y-68890536D01*
X153248411Y-68825549D01*
X153251045Y-68737092D01*
X153253238Y-68622993D01*
X153255020Y-68481082D01*
X153256425Y-68309186D01*
X153257481Y-68105135D01*
X153258221Y-67866758D01*
X153258676Y-67591884D01*
X153258876Y-67278340D01*
X153258892Y-67147351D01*
X153258892Y-65327528D01*
X152576861Y-65060461D01*
X152416641Y-64997855D01*
X152267722Y-64939919D01*
X152134803Y-64888461D01*
X152022583Y-64845290D01*
X151935760Y-64812215D01*
X151879032Y-64791043D01*
X151857993Y-64783760D01*
X151851579Y-64783650D01*
X151845954Y-64788589D01*
X151841067Y-64801121D01*
X151836866Y-64823791D01*
X151833299Y-64859144D01*
X151830315Y-64909726D01*
X151827862Y-64978081D01*
X151825889Y-65066756D01*
X151824343Y-65178294D01*
X151823174Y-65315242D01*
X151822328Y-65480144D01*
X151821756Y-65675545D01*
X151821405Y-65903991D01*
X151821224Y-66168027D01*
X151821160Y-66470198D01*
X151821156Y-66599040D01*
X150501006Y-66599040D01*
X150499485Y-66458611D01*
X150497489Y-66338468D01*
X150494921Y-66244262D01*
X150491582Y-66172062D01*
X150487271Y-66117931D01*
X150481791Y-66077938D01*
X150474940Y-66048148D01*
X150466519Y-66024628D01*
X150456329Y-66003444D01*
X150452367Y-65995964D01*
X150366940Y-65879944D01*
X150248469Y-65789032D01*
X150134319Y-65736148D01*
X150069651Y-65710535D01*
X150024206Y-65688653D01*
X150008359Y-65675981D01*
X150026571Y-65662795D01*
X150073892Y-65642921D01*
X150128170Y-65624491D01*
X150231780Y-65576337D01*
X150330748Y-65502370D01*
X150414241Y-65412897D01*
X150471423Y-65318226D01*
X150482832Y-65287070D01*
X150487545Y-65261012D01*
X150491700Y-65214980D01*
X150495323Y-65146935D01*
X150498441Y-65054842D01*
X150501082Y-64936663D01*
X150503271Y-64790360D01*
X150505035Y-64613897D01*
X150506401Y-64405236D01*
X150507397Y-64162341D01*
X150508048Y-63883173D01*
X150508381Y-63565697D01*
X150508441Y-63337407D01*
X150508455Y-63005019D01*
X150508390Y-62711645D01*
X150508183Y-62537632D01*
X151821156Y-62537632D01*
X151821355Y-62858624D01*
X151821938Y-63157165D01*
X151822886Y-63431270D01*
X151824180Y-63678949D01*
X151825801Y-63898216D01*
X151827729Y-64087083D01*
X151829946Y-64243562D01*
X151832431Y-64365667D01*
X151835166Y-64451409D01*
X151838132Y-64498801D01*
X151840244Y-64508109D01*
X151862100Y-64493651D01*
X151903740Y-64455129D01*
X151957481Y-64399821D01*
X151977696Y-64377880D01*
X152089262Y-64247900D01*
X152209633Y-64095443D01*
X152328062Y-63934834D01*
X152433803Y-63780400D01*
X152477811Y-63711188D01*
X152577221Y-63549788D01*
X152664230Y-63629991D01*
X152699812Y-63659896D01*
X152742078Y-63688530D01*
X152796516Y-63718481D01*
X152868617Y-63752340D01*
X152963870Y-63792699D01*
X153087767Y-63842146D01*
X153232993Y-63898363D01*
X153238295Y-63892955D01*
X153242804Y-63870688D01*
X153246556Y-63829078D01*
X153249589Y-63765637D01*
X153251939Y-63677880D01*
X153253645Y-63563321D01*
X153254744Y-63419474D01*
X153255272Y-63243852D01*
X153255267Y-63033970D01*
X153254767Y-62787342D01*
X153253830Y-62507298D01*
X153248473Y-61106181D01*
X152579096Y-60850723D01*
X152419699Y-60789972D01*
X152271310Y-60733570D01*
X152138771Y-60683347D01*
X152026927Y-60641132D01*
X151940618Y-60608753D01*
X151884689Y-60588039D01*
X151865437Y-60581210D01*
X151821156Y-60567155D01*
X151821156Y-62537632D01*
X150508183Y-62537632D01*
X150508084Y-62454627D01*
X150507377Y-62231306D01*
X150506106Y-62039022D01*
X150504111Y-61875117D01*
X150501230Y-61736931D01*
X150497302Y-61621806D01*
X150492166Y-61527083D01*
X150485660Y-61450103D01*
X150477623Y-61388206D01*
X150467894Y-61338734D01*
X150456311Y-61299028D01*
X150442713Y-61266429D01*
X150426938Y-61238277D01*
X150408827Y-61211915D01*
X150388216Y-61184683D01*
X150376946Y-61169940D01*
X150341427Y-61130373D01*
X150279629Y-61069203D01*
X150197162Y-60991656D01*
X150099633Y-60902961D01*
X149992649Y-60808345D01*
X149941407Y-60763929D01*
X149798022Y-60641446D01*
X149706161Y-60567155D01*
X149680343Y-60546275D01*
X149582665Y-60478337D01*
X149499283Y-60437558D01*
X149424491Y-60423860D01*
X149352584Y-60437167D01*
X149277858Y-60477404D01*
X149194606Y-60544493D01*
X149097125Y-60638358D01*
X148987200Y-60751167D01*
X148744314Y-61012851D01*
X148536129Y-61259761D01*
X148360078Y-61495773D01*
X148213593Y-61724759D01*
X148094107Y-61950595D01*
X147999052Y-62177154D01*
X147954283Y-62309832D01*
X147920329Y-62423828D01*
X147897848Y-62513506D01*
X147884414Y-62593831D01*
X147877597Y-62679770D01*
X147874968Y-62786292D01*
X147874835Y-62799496D01*
X147877994Y-62963309D01*
X147892581Y-63099823D01*
X147921182Y-63222465D01*
X147966383Y-63344660D01*
X147989890Y-63396846D01*
X148079852Y-63541257D01*
X148200006Y-63660957D01*
X148345287Y-63753455D01*
X148510630Y-63816261D01*
X148690970Y-63846881D01*
X148881242Y-63842826D01*
X148893482Y-63841347D01*
X149098114Y-63797365D01*
X149286449Y-63718259D01*
X149462732Y-63601817D01*
X149609570Y-63468453D01*
X149657391Y-63421296D01*
X149683617Y-63399774D01*
X149685483Y-63405947D01*
X149678459Y-63417115D01*
X149577534Y-63535151D01*
X149444447Y-63646336D01*
X149288706Y-63744545D01*
X149119817Y-63823654D01*
X148973932Y-63871072D01*
X148780361Y-63900277D01*
X148591075Y-63889893D01*
X148410804Y-63841999D01*
X148244277Y-63758677D01*
X148096224Y-63642008D01*
X147971375Y-63494073D01*
X147917651Y-63406324D01*
X147878974Y-63316466D01*
X147842666Y-63198802D01*
X147811879Y-63067196D01*
X147789762Y-62935507D01*
X147779465Y-62817598D01*
X147779100Y-62796588D01*
X147786644Y-62676138D01*
X147808200Y-62529815D01*
X147841431Y-62370083D01*
X147884002Y-62209403D01*
X147897411Y-62165515D01*
X147989695Y-61925096D01*
X148118192Y-61671151D01*
X148280696Y-61406302D01*
X148475002Y-61133167D01*
X148698904Y-60854368D01*
X148950196Y-60572525D01*
X149226673Y-60290259D01*
X149526129Y-60010189D01*
X149846359Y-59734937D01*
X150139286Y-59502080D01*
X150234840Y-59429603D01*
X150319393Y-59366899D01*
X150387277Y-59318058D01*
X150432819Y-59287171D01*
X150449814Y-59278085D01*
X150472687Y-59294520D01*
X150478940Y-59306398D01*
X150496273Y-59326982D01*
X150539876Y-59371477D01*
X150605594Y-59436000D01*
X150689273Y-59516668D01*
X150786759Y-59609597D01*
X150893897Y-59710905D01*
X151006535Y-59816707D01*
X151120516Y-59923121D01*
X151231688Y-60026262D01*
X151335895Y-60122249D01*
X151428985Y-60207196D01*
X151506802Y-60277222D01*
X151565193Y-60328442D01*
X151600004Y-60356973D01*
X151607723Y-60361596D01*
X151631658Y-60346810D01*
X151677174Y-60306439D01*
X151738642Y-60246464D01*
X151810432Y-60172863D01*
X151886916Y-60091617D01*
X151962465Y-60008707D01*
X152031451Y-59930112D01*
X152088244Y-59861812D01*
X152127216Y-59809788D01*
X152127462Y-59809422D01*
X152202141Y-59689540D01*
X152271613Y-59562397D01*
X152328637Y-59442013D01*
X152361909Y-59355480D01*
X152387471Y-59276599D01*
X152467113Y-59348551D01*
G37*
%TD*%
D11*
%TO.C,H16*%
X171000000Y-87000000D03*
X221000000Y-87000000D03*
X221000000Y-137000000D03*
X171000000Y-137000000D03*
%TD*%
%TO.C,H15*%
X106000000Y-87000000D03*
X156000000Y-87000000D03*
X156000000Y-137000000D03*
X106000000Y-137000000D03*
%TD*%
D12*
%TO.C,A8*%
X208050500Y-119165000D03*
X208050500Y-118550000D03*
X208050500Y-117935000D03*
X208050500Y-117320000D03*
X208050500Y-116705000D03*
X208050500Y-116090000D03*
X208050500Y-115475000D03*
X208050500Y-114860000D03*
D13*
X207735000Y-113680000D03*
X207120000Y-113680000D03*
X206505000Y-113680000D03*
X205890000Y-113680000D03*
X205275000Y-113680000D03*
X204660000Y-113680000D03*
X204045000Y-113680000D03*
X203430000Y-113680000D03*
X202815000Y-113680000D03*
X202200000Y-113680000D03*
X201585000Y-113680000D03*
X200970000Y-113680000D03*
D12*
X200655500Y-114860000D03*
X200655500Y-115475000D03*
X200655500Y-116090000D03*
X200655500Y-116705000D03*
X200655500Y-117320000D03*
X200655500Y-117935000D03*
X200655500Y-118550000D03*
X200655500Y-119165000D03*
D13*
X200970000Y-120345000D03*
X201585000Y-120345000D03*
X202200000Y-120345000D03*
X202815000Y-120345000D03*
X203430000Y-120345000D03*
X204045000Y-120345000D03*
X204660000Y-120345000D03*
X205275000Y-120345000D03*
X205890000Y-120345000D03*
X206505000Y-120345000D03*
X207120000Y-120345000D03*
X207735000Y-120345000D03*
D14*
X206769000Y-118977500D03*
X205561000Y-118977500D03*
X204353000Y-118977500D03*
X203145000Y-118977500D03*
X201937000Y-118977500D03*
X201937000Y-117667500D03*
X203145000Y-117667500D03*
X204353000Y-117667500D03*
X205561000Y-117667500D03*
X206769000Y-117667500D03*
X206769000Y-116357500D03*
X205561000Y-116357500D03*
X204353000Y-116357500D03*
X203145000Y-116357500D03*
X201937000Y-116357500D03*
X201937000Y-115047500D03*
X203145000Y-115047500D03*
X204353000Y-115047500D03*
X205561000Y-115047500D03*
X206769000Y-115047500D03*
%TD*%
D12*
%TO.C,A2*%
X126325500Y-109165000D03*
X126325500Y-108550000D03*
X126325500Y-107935000D03*
X126325500Y-107320000D03*
X126325500Y-106705000D03*
X126325500Y-106090000D03*
X126325500Y-105475000D03*
X126325500Y-104860000D03*
D13*
X126010000Y-103680000D03*
X125395000Y-103680000D03*
X124780000Y-103680000D03*
X124165000Y-103680000D03*
X123550000Y-103680000D03*
X122935000Y-103680000D03*
X122320000Y-103680000D03*
X121705000Y-103680000D03*
X121090000Y-103680000D03*
X120475000Y-103680000D03*
X119860000Y-103680000D03*
X119245000Y-103680000D03*
D12*
X118930500Y-104860000D03*
X118930500Y-105475000D03*
X118930500Y-106090000D03*
X118930500Y-106705000D03*
X118930500Y-107320000D03*
X118930500Y-107935000D03*
X118930500Y-108550000D03*
X118930500Y-109165000D03*
D13*
X119245000Y-110345000D03*
X119860000Y-110345000D03*
X120475000Y-110345000D03*
X121090000Y-110345000D03*
X121705000Y-110345000D03*
X122320000Y-110345000D03*
X122935000Y-110345000D03*
X123550000Y-110345000D03*
X124165000Y-110345000D03*
X124780000Y-110345000D03*
X125395000Y-110345000D03*
X126010000Y-110345000D03*
D14*
X125044000Y-108977500D03*
X123836000Y-108977500D03*
X122628000Y-108977500D03*
X121420000Y-108977500D03*
X120212000Y-108977500D03*
X120212000Y-107667500D03*
X121420000Y-107667500D03*
X122628000Y-107667500D03*
X123836000Y-107667500D03*
X125044000Y-107667500D03*
X125044000Y-106357500D03*
X123836000Y-106357500D03*
X122628000Y-106357500D03*
X121420000Y-106357500D03*
X120212000Y-106357500D03*
X120212000Y-105047500D03*
X121420000Y-105047500D03*
X122628000Y-105047500D03*
X123836000Y-105047500D03*
X125044000Y-105047500D03*
%TD*%
D12*
%TO.C,A3*%
X143005500Y-109165000D03*
X143005500Y-108550000D03*
X143005500Y-107935000D03*
X143005500Y-107320000D03*
X143005500Y-106705000D03*
X143005500Y-106090000D03*
X143005500Y-105475000D03*
X143005500Y-104860000D03*
D13*
X142690000Y-103680000D03*
X142075000Y-103680000D03*
X141460000Y-103680000D03*
X140845000Y-103680000D03*
X140230000Y-103680000D03*
X139615000Y-103680000D03*
X139000000Y-103680000D03*
X138385000Y-103680000D03*
X137770000Y-103680000D03*
X137155000Y-103680000D03*
X136540000Y-103680000D03*
X135925000Y-103680000D03*
D12*
X135610500Y-104860000D03*
X135610500Y-105475000D03*
X135610500Y-106090000D03*
X135610500Y-106705000D03*
X135610500Y-107320000D03*
X135610500Y-107935000D03*
X135610500Y-108550000D03*
X135610500Y-109165000D03*
D13*
X135925000Y-110345000D03*
X136540000Y-110345000D03*
X137155000Y-110345000D03*
X137770000Y-110345000D03*
X138385000Y-110345000D03*
X139000000Y-110345000D03*
X139615000Y-110345000D03*
X140230000Y-110345000D03*
X140845000Y-110345000D03*
X141460000Y-110345000D03*
X142075000Y-110345000D03*
X142690000Y-110345000D03*
D14*
X141724000Y-108977500D03*
X140516000Y-108977500D03*
X139308000Y-108977500D03*
X138100000Y-108977500D03*
X136892000Y-108977500D03*
X136892000Y-107667500D03*
X138100000Y-107667500D03*
X139308000Y-107667500D03*
X140516000Y-107667500D03*
X141724000Y-107667500D03*
X141724000Y-106357500D03*
X140516000Y-106357500D03*
X139308000Y-106357500D03*
X138100000Y-106357500D03*
X136892000Y-106357500D03*
X136892000Y-105047500D03*
X138100000Y-105047500D03*
X139308000Y-105047500D03*
X140516000Y-105047500D03*
X141724000Y-105047500D03*
%TD*%
D12*
%TO.C,A6*%
X191400500Y-109165000D03*
X191400500Y-108550000D03*
X191400500Y-107935000D03*
X191400500Y-107320000D03*
X191400500Y-106705000D03*
X191400500Y-106090000D03*
X191400500Y-105475000D03*
X191400500Y-104860000D03*
D13*
X191085000Y-103680000D03*
X190470000Y-103680000D03*
X189855000Y-103680000D03*
X189240000Y-103680000D03*
X188625000Y-103680000D03*
X188010000Y-103680000D03*
X187395000Y-103680000D03*
X186780000Y-103680000D03*
X186165000Y-103680000D03*
X185550000Y-103680000D03*
X184935000Y-103680000D03*
X184320000Y-103680000D03*
D12*
X184005500Y-104860000D03*
X184005500Y-105475000D03*
X184005500Y-106090000D03*
X184005500Y-106705000D03*
X184005500Y-107320000D03*
X184005500Y-107935000D03*
X184005500Y-108550000D03*
X184005500Y-109165000D03*
D13*
X184320000Y-110345000D03*
X184935000Y-110345000D03*
X185550000Y-110345000D03*
X186165000Y-110345000D03*
X186780000Y-110345000D03*
X187395000Y-110345000D03*
X188010000Y-110345000D03*
X188625000Y-110345000D03*
X189240000Y-110345000D03*
X189855000Y-110345000D03*
X190470000Y-110345000D03*
X191085000Y-110345000D03*
D14*
X190119000Y-108977500D03*
X188911000Y-108977500D03*
X187703000Y-108977500D03*
X186495000Y-108977500D03*
X185287000Y-108977500D03*
X185287000Y-107667500D03*
X186495000Y-107667500D03*
X187703000Y-107667500D03*
X188911000Y-107667500D03*
X190119000Y-107667500D03*
X190119000Y-106357500D03*
X188911000Y-106357500D03*
X187703000Y-106357500D03*
X186495000Y-106357500D03*
X185287000Y-106357500D03*
X185287000Y-105047500D03*
X186495000Y-105047500D03*
X187703000Y-105047500D03*
X188911000Y-105047500D03*
X190119000Y-105047500D03*
%TD*%
D12*
%TO.C,A4*%
X143025500Y-119165000D03*
X143025500Y-118550000D03*
X143025500Y-117935000D03*
X143025500Y-117320000D03*
X143025500Y-116705000D03*
X143025500Y-116090000D03*
X143025500Y-115475000D03*
X143025500Y-114860000D03*
D13*
X142710000Y-113680000D03*
X142095000Y-113680000D03*
X141480000Y-113680000D03*
X140865000Y-113680000D03*
X140250000Y-113680000D03*
X139635000Y-113680000D03*
X139020000Y-113680000D03*
X138405000Y-113680000D03*
X137790000Y-113680000D03*
X137175000Y-113680000D03*
X136560000Y-113680000D03*
X135945000Y-113680000D03*
D12*
X135630500Y-114860000D03*
X135630500Y-115475000D03*
X135630500Y-116090000D03*
X135630500Y-116705000D03*
X135630500Y-117320000D03*
X135630500Y-117935000D03*
X135630500Y-118550000D03*
X135630500Y-119165000D03*
D13*
X135945000Y-120345000D03*
X136560000Y-120345000D03*
X137175000Y-120345000D03*
X137790000Y-120345000D03*
X138405000Y-120345000D03*
X139020000Y-120345000D03*
X139635000Y-120345000D03*
X140250000Y-120345000D03*
X140865000Y-120345000D03*
X141480000Y-120345000D03*
X142095000Y-120345000D03*
X142710000Y-120345000D03*
D14*
X141744000Y-118977500D03*
X140536000Y-118977500D03*
X139328000Y-118977500D03*
X138120000Y-118977500D03*
X136912000Y-118977500D03*
X136912000Y-117667500D03*
X138120000Y-117667500D03*
X139328000Y-117667500D03*
X140536000Y-117667500D03*
X141744000Y-117667500D03*
X141744000Y-116357500D03*
X140536000Y-116357500D03*
X139328000Y-116357500D03*
X138120000Y-116357500D03*
X136912000Y-116357500D03*
X136912000Y-115047500D03*
X138120000Y-115047500D03*
X139328000Y-115047500D03*
X140536000Y-115047500D03*
X141744000Y-115047500D03*
%TD*%
D12*
%TO.C,A1*%
X126350000Y-119165000D03*
X126350000Y-118550000D03*
X126350000Y-117935000D03*
X126350000Y-117320000D03*
X126350000Y-116705000D03*
X126350000Y-116090000D03*
X126350000Y-115475000D03*
X126350000Y-114860000D03*
D13*
X126034500Y-113680000D03*
X125419500Y-113680000D03*
X124804500Y-113680000D03*
X124189500Y-113680000D03*
X123574500Y-113680000D03*
X122959500Y-113680000D03*
X122344500Y-113680000D03*
X121729500Y-113680000D03*
X121114500Y-113680000D03*
X120499500Y-113680000D03*
X119884500Y-113680000D03*
X119269500Y-113680000D03*
D12*
X118955000Y-114860000D03*
X118955000Y-115475000D03*
X118955000Y-116090000D03*
X118955000Y-116705000D03*
X118955000Y-117320000D03*
X118955000Y-117935000D03*
X118955000Y-118550000D03*
X118955000Y-119165000D03*
D13*
X119269500Y-120345000D03*
X119884500Y-120345000D03*
X120499500Y-120345000D03*
X121114500Y-120345000D03*
X121729500Y-120345000D03*
X122344500Y-120345000D03*
X122959500Y-120345000D03*
X123574500Y-120345000D03*
X124189500Y-120345000D03*
X124804500Y-120345000D03*
X125419500Y-120345000D03*
X126034500Y-120345000D03*
D14*
X125068500Y-118977500D03*
X123860500Y-118977500D03*
X122652500Y-118977500D03*
X121444500Y-118977500D03*
X120236500Y-118977500D03*
X120236500Y-117667500D03*
X121444500Y-117667500D03*
X122652500Y-117667500D03*
X123860500Y-117667500D03*
X125068500Y-117667500D03*
X125068500Y-116357500D03*
X123860500Y-116357500D03*
X122652500Y-116357500D03*
X121444500Y-116357500D03*
X120236500Y-116357500D03*
X120236500Y-115047500D03*
X121444500Y-115047500D03*
X122652500Y-115047500D03*
X123860500Y-115047500D03*
X125068500Y-115047500D03*
%TD*%
D15*
%TO.C,FID4*%
X219002200Y-39995000D03*
%TD*%
D16*
%TO.C,H4*%
X99600000Y-146500000D03*
X100302944Y-144802944D03*
X100302944Y-148197056D03*
X102000000Y-144100000D03*
D17*
X102000000Y-146500000D03*
D16*
X102000000Y-148900000D03*
X103697056Y-144802944D03*
X103697056Y-148197056D03*
X104400000Y-146500000D03*
%TD*%
D15*
%TO.C,FID3*%
X219002200Y-146995000D03*
%TD*%
D12*
%TO.C,A7*%
X208050500Y-109165000D03*
X208050500Y-108550000D03*
X208050500Y-107935000D03*
X208050500Y-107320000D03*
X208050500Y-106705000D03*
X208050500Y-106090000D03*
X208050500Y-105475000D03*
X208050500Y-104860000D03*
D13*
X207735000Y-103680000D03*
X207120000Y-103680000D03*
X206505000Y-103680000D03*
X205890000Y-103680000D03*
X205275000Y-103680000D03*
X204660000Y-103680000D03*
X204045000Y-103680000D03*
X203430000Y-103680000D03*
X202815000Y-103680000D03*
X202200000Y-103680000D03*
X201585000Y-103680000D03*
X200970000Y-103680000D03*
D12*
X200655500Y-104860000D03*
X200655500Y-105475000D03*
X200655500Y-106090000D03*
X200655500Y-106705000D03*
X200655500Y-107320000D03*
X200655500Y-107935000D03*
X200655500Y-108550000D03*
X200655500Y-109165000D03*
D13*
X200970000Y-110345000D03*
X201585000Y-110345000D03*
X202200000Y-110345000D03*
X202815000Y-110345000D03*
X203430000Y-110345000D03*
X204045000Y-110345000D03*
X204660000Y-110345000D03*
X205275000Y-110345000D03*
X205890000Y-110345000D03*
X206505000Y-110345000D03*
X207120000Y-110345000D03*
X207735000Y-110345000D03*
D14*
X206769000Y-108977500D03*
X205561000Y-108977500D03*
X204353000Y-108977500D03*
X203145000Y-108977500D03*
X201937000Y-108977500D03*
X201937000Y-107667500D03*
X203145000Y-107667500D03*
X204353000Y-107667500D03*
X205561000Y-107667500D03*
X206769000Y-107667500D03*
X206769000Y-106357500D03*
X205561000Y-106357500D03*
X204353000Y-106357500D03*
X203145000Y-106357500D03*
X201937000Y-106357500D03*
X201937000Y-105047500D03*
X203145000Y-105047500D03*
X204353000Y-105047500D03*
X205561000Y-105047500D03*
X206769000Y-105047500D03*
%TD*%
D15*
%TO.C,FID2*%
X107002200Y-147995000D03*
%TD*%
D18*
%TO.C,J7*%
X160930000Y-50670000D03*
D19*
X157570000Y-55750000D03*
X157570000Y-53210000D03*
D20*
X156610000Y-50670000D03*
D19*
X157570000Y-50670000D03*
X157570000Y-48130000D03*
%TD*%
D16*
%TO.C,H2*%
X99600000Y-41500000D03*
X100302944Y-39802944D03*
X100302944Y-43197056D03*
X102000000Y-39100000D03*
D17*
X102000000Y-41500000D03*
D16*
X102000000Y-43900000D03*
X103697056Y-39802944D03*
X103697056Y-43197056D03*
X104400000Y-41500000D03*
%TD*%
%TO.C,H3*%
X222600000Y-146500000D03*
X223302944Y-144802944D03*
X223302944Y-148197056D03*
X225000000Y-144100000D03*
D17*
X225000000Y-146500000D03*
D16*
X225000000Y-148900000D03*
X226697056Y-144802944D03*
X226697056Y-148197056D03*
X227400000Y-146500000D03*
%TD*%
D18*
%TO.C,J8*%
X169900000Y-50670000D03*
D19*
X166540000Y-55750000D03*
X166540000Y-53210000D03*
D20*
X165580000Y-50670000D03*
D19*
X166540000Y-50670000D03*
X166540000Y-48130000D03*
%TD*%
D21*
%TO.C,J3*%
X148200000Y-40550000D03*
D22*
X147800000Y-43090000D03*
X148200000Y-45630000D03*
X147800000Y-48170000D03*
%TD*%
D12*
%TO.C,A5*%
X191380500Y-119165000D03*
X191380500Y-118550000D03*
X191380500Y-117935000D03*
X191380500Y-117320000D03*
X191380500Y-116705000D03*
X191380500Y-116090000D03*
X191380500Y-115475000D03*
X191380500Y-114860000D03*
D13*
X191065000Y-113680000D03*
X190450000Y-113680000D03*
X189835000Y-113680000D03*
X189220000Y-113680000D03*
X188605000Y-113680000D03*
X187990000Y-113680000D03*
X187375000Y-113680000D03*
X186760000Y-113680000D03*
X186145000Y-113680000D03*
X185530000Y-113680000D03*
X184915000Y-113680000D03*
X184300000Y-113680000D03*
D12*
X183985500Y-114860000D03*
X183985500Y-115475000D03*
X183985500Y-116090000D03*
X183985500Y-116705000D03*
X183985500Y-117320000D03*
X183985500Y-117935000D03*
X183985500Y-118550000D03*
X183985500Y-119165000D03*
D13*
X184300000Y-120345000D03*
X184915000Y-120345000D03*
X185530000Y-120345000D03*
X186145000Y-120345000D03*
X186760000Y-120345000D03*
X187375000Y-120345000D03*
X187990000Y-120345000D03*
X188605000Y-120345000D03*
X189220000Y-120345000D03*
X189835000Y-120345000D03*
X190450000Y-120345000D03*
X191065000Y-120345000D03*
D14*
X190099000Y-118977500D03*
X188891000Y-118977500D03*
X187683000Y-118977500D03*
X186475000Y-118977500D03*
X185267000Y-118977500D03*
X185267000Y-117667500D03*
X186475000Y-117667500D03*
X187683000Y-117667500D03*
X188891000Y-117667500D03*
X190099000Y-117667500D03*
X190099000Y-116357500D03*
X188891000Y-116357500D03*
X187683000Y-116357500D03*
X186475000Y-116357500D03*
X185267000Y-116357500D03*
X185267000Y-115047500D03*
X186475000Y-115047500D03*
X187683000Y-115047500D03*
X188891000Y-115047500D03*
X190099000Y-115047500D03*
%TD*%
D16*
%TO.C,H13*%
X160800000Y-41500000D03*
X161502944Y-39802944D03*
X161502944Y-43197056D03*
X163200000Y-39100000D03*
D17*
X163200000Y-41500000D03*
D16*
X163200000Y-43900000D03*
X164897056Y-39802944D03*
X164897056Y-43197056D03*
X165600000Y-41500000D03*
%TD*%
D15*
%TO.C,FID1*%
X107002200Y-39995000D03*
%TD*%
D16*
%TO.C,H1*%
X222600000Y-41500000D03*
X223302944Y-39802944D03*
X223302944Y-43197056D03*
X225000000Y-39100000D03*
D17*
X225000000Y-41500000D03*
D16*
X225000000Y-43900000D03*
X226697056Y-39802944D03*
X226697056Y-43197056D03*
X227400000Y-41500000D03*
%TD*%
%TO.C,H14*%
X160800000Y-146500000D03*
X161502944Y-144802944D03*
X161502944Y-148197056D03*
X163200000Y-144100000D03*
D17*
X163200000Y-146500000D03*
D16*
X163200000Y-148900000D03*
X164897056Y-144802944D03*
X164897056Y-148197056D03*
X165600000Y-146500000D03*
%TD*%
D23*
%TO.C,J2*%
X114570000Y-42465000D03*
X109490000Y-43481000D03*
X109490000Y-41449000D03*
%TD*%
D24*
%TO.C,U4*%
X187830000Y-79249566D03*
X187830000Y-77849566D03*
X187830000Y-76449566D03*
X186550000Y-80249566D03*
X186550000Y-79249566D03*
X186550000Y-77849566D03*
X186550000Y-76449566D03*
X186550000Y-75449566D03*
X185270000Y-79249566D03*
X185270000Y-77849566D03*
X185270000Y-76449566D03*
%TD*%
D25*
%TO.C,U7*%
X106070001Y-124400000D03*
X104569999Y-124400000D03*
%TD*%
D26*
%TO.C,J1*%
X205759823Y-51020000D03*
X200759823Y-51020000D03*
D15*
X208759823Y-41020000D03*
X197759823Y-41020000D03*
%TD*%
D27*
%TO.C,J5*%
X119460000Y-44565000D03*
X125240000Y-44565000D03*
D28*
X118030000Y-40885000D03*
D29*
X118030000Y-45065000D03*
D28*
X126670000Y-40885000D03*
D29*
X126670000Y-45065000D03*
%TD*%
D24*
%TO.C,U3*%
X208584250Y-79144500D03*
X208584250Y-77744500D03*
X208584250Y-76344500D03*
X207304250Y-80144500D03*
X207304250Y-79144500D03*
X207304250Y-77744500D03*
X207304250Y-76344500D03*
X207304250Y-75344500D03*
X206024250Y-79144500D03*
X206024250Y-77744500D03*
X206024250Y-76344500D03*
%TD*%
G36*
X189332934Y-73942549D02*
G01*
X189378689Y-73995353D01*
X189389895Y-74046757D01*
X189400494Y-86290753D01*
X189380867Y-86357809D01*
X189328103Y-86403610D01*
X189276636Y-86414860D01*
X183799523Y-86421126D01*
X183732461Y-86401518D01*
X183686646Y-86348766D01*
X183675381Y-86297126D01*
X183675381Y-74046864D01*
X183695066Y-73979825D01*
X183747870Y-73934070D01*
X183799381Y-73922864D01*
X189265895Y-73922864D01*
X189332934Y-73942549D01*
G37*
G36*
X210109218Y-73942549D02*
G01*
X210154973Y-73995353D01*
X210166179Y-74046757D01*
X210176778Y-86290753D01*
X210157151Y-86357809D01*
X210104387Y-86403610D01*
X210052920Y-86414860D01*
X204575807Y-86421126D01*
X204508745Y-86401518D01*
X204462930Y-86348766D01*
X204451665Y-86297126D01*
X204451665Y-74046864D01*
X204471350Y-73979825D01*
X204524154Y-73934070D01*
X204575665Y-73922864D01*
X210042179Y-73922864D01*
X210109218Y-73942549D01*
G37*
M02*
