M48
; DRILL file {KiCad 9.0.0} date 2025-06-24T17:18:06-0400
; FORMAT={-:-/ absolute / metric / decimal}
; #@! TF.CreationDate,2025-06-24T17:18:06-04:00
; #@! TF.GenerationSoftware,Kicad,Pcbnew,9.0.0
; #@! TF.FileFunction,Plated,1,6,PTH
FMAT,2
METRIC
; #@! TA.AperFunction,Plated,PTH,ViaDrill
T1C0.300
; #@! TA.AperFunction,Plated,PTH,ComponentDrill
T2C0.300
; #@! TA.AperFunction,Plated,PTH,ViaDrill
T3C0.350
; #@! TA.AperFunction,Plated,PTH,ViaDrill
T4C0.400
; #@! TA.AperFunction,Plated,PTH,ComponentDrill
T5C0.500
; #@! TA.AperFunction,Plated,PTH,ViaDrill
T6C0.600
; #@! TA.AperFunction,Plated,PTH,ComponentDrill
T7C0.600
; #@! TA.AperFunction,Plated,PTH,ComponentDrill
T8C1.000
; #@! TA.AperFunction,Plated,PTH,ComponentDrill
T9C1.067
; #@! TA.AperFunction,Plated,PTH,ComponentDrill
T10C1.300
; #@! TA.AperFunction,Plated,PTH,ComponentDrill
T11C1.700
; #@! TA.AperFunction,Plated,PTH,ComponentDrill
T12C3.200
; #@! TA.AperFunction,Plated,PTH,ComponentDrill
T13C4.200
%
G90
G05
T1
X101.69Y-128.21
X101.8Y-73.29
X101.81Y-77.49
X102.772Y-120.55
X102.932Y-123.662
X102.938Y-124.508
X103.65Y-74.27
X103.99Y-130.17
X104.048Y-125.5
X104.07Y-122.46
X104.699Y-126.897
X104.97Y-121.99
X105.26Y-128.15
X105.638Y-122.049
X105.875Y-46.15
X105.93Y-127.53
X107.12Y-126.64
X107.425Y-46.15
X107.53Y-123.298
X107.805Y-77.095
X107.86Y-122.34
X108.56Y-65.51
X108.763Y-123.913
X109.618Y-123.057
X109.82Y-65.5
X109.95Y-63.2
X110.7Y-49.984
X111.23Y-45.8
X111.4Y-61.45
X112.36Y-63.06
X113.45Y-123.9
X113.65Y-63.05
X114.35Y-125.06
X114.58Y-117.08
X114.58Y-117.71
X114.6Y-114.66
X114.6Y-115.29
X114.6Y-116.49
X114.61Y-119.53
X114.61Y-120.16
X114.62Y-114.07
X114.63Y-118.94
X114.69Y-106.82
X114.69Y-107.45
X114.71Y-104.4
X114.71Y-105.03
X114.71Y-106.23
X114.72Y-109.27
X114.72Y-109.9
X114.73Y-103.81
X114.74Y-108.68
X114.9Y-63.05
X115.12Y-68.79
X116.15Y-63.1
X117.7Y-62.1
X118.18Y-102.45
X118.602Y-123.138
X118.71Y-62.09
X118.742Y-127.007
X119.17Y-102.45
X119.23Y-120.17
X119.55Y-62.07
X119.69Y-124.7
X119.69Y-126.97
X119.88Y-120.98
X120.18Y-107.69
X120.19Y-109.01
X120.2Y-105.07
X120.21Y-106.39
X120.25Y-117.7
X120.26Y-119.02
X120.27Y-115.08
X120.28Y-116.4
X120.415Y-103.89
X120.82Y-106.95
X120.83Y-108.27
X120.85Y-105.65
X120.85Y-116.96
X120.86Y-118.28
X120.88Y-115.66
X121.067Y-103.873
X121.348Y-57.679
X121.35Y-107.68
X121.36Y-109.0
X121.38Y-106.38
X121.42Y-117.69
X121.43Y-119.01
X121.44Y-115.07
X121.45Y-116.39
X121.719Y-103.884
X121.98Y-102.63
X122.0Y-57.69
X122.01Y-116.99
X122.02Y-118.31
X122.03Y-106.99
X122.04Y-108.31
X122.04Y-115.69
X122.372Y-103.877
X122.58Y-107.66
X122.59Y-108.98
X122.61Y-106.36
X122.65Y-117.67
X122.66Y-118.99
X122.67Y-115.05
X122.68Y-116.37
X123.46Y-67.8
X123.81Y-107.65
X123.81Y-108.97
X123.82Y-106.35
X123.83Y-105.03
X123.83Y-117.68
X123.84Y-116.38
X123.84Y-118.99
X123.85Y-115.06
X124.189Y-113.88
X124.42Y-107.0
X124.42Y-108.32
X124.47Y-105.69
X124.47Y-116.96
X124.48Y-115.66
X124.48Y-118.27
X124.79Y-110.19
X124.8Y-120.16
X125.04Y-107.65
X125.04Y-108.97
X125.05Y-106.35
X125.06Y-105.03
X125.06Y-117.68
X125.07Y-116.38
X125.07Y-118.99
X125.08Y-115.06
X125.59Y-64.817
X125.99Y-62.79
X126.33Y-119.33
X126.38Y-109.34
X127.32Y-103.62
X130.34Y-109.47
X130.34Y-110.035
X130.34Y-110.6
X130.35Y-117.08
X130.35Y-117.645
X130.35Y-118.21
X130.36Y-119.46
X130.36Y-120.025
X130.36Y-120.59
X130.37Y-107.08
X130.37Y-107.645
X130.37Y-108.21
X130.38Y-114.69
X130.38Y-115.255
X130.38Y-115.82
X130.905Y-43.758
X130.91Y-45.18
X132.75Y-122.06
X132.775Y-116.594
X132.775Y-117.159
X132.775Y-117.724
X132.785Y-118.974
X132.785Y-119.539
X132.785Y-120.104
X132.805Y-114.204
X132.805Y-114.769
X132.805Y-115.334
X132.825Y-65.23
X133.328Y-66.428
X133.731Y-54.052
X134.037Y-54.628
X134.77Y-69.37
X134.827Y-52.302
X134.836Y-53.27
X135.0Y-103.16
X135.37Y-61.44
X135.89Y-111.54
X135.925Y-103.391
X135.94Y-110.16
X136.0Y-121.24
X136.24Y-105.69
X136.3Y-123.0
X136.38Y-126.98
X136.58Y-60.78
X136.84Y-108.94
X136.86Y-107.67
X136.87Y-106.37
X136.88Y-117.7
X136.89Y-116.4
X136.9Y-115.08
X136.9Y-118.94
X137.095Y-103.87
X137.115Y-120.16
X137.43Y-108.25
X137.45Y-118.3
X137.46Y-107.07
X137.48Y-117.05
X137.5Y-115.69
X137.52Y-105.69
X137.747Y-103.885
X137.767Y-120.145
X138.07Y-108.94
X138.09Y-107.67
X138.1Y-106.37
X138.11Y-117.7
X138.12Y-116.4
X138.13Y-115.08
X138.13Y-118.94
X138.399Y-103.877
X138.42Y-120.152
X138.65Y-108.25
X138.67Y-118.3
X138.68Y-107.07
X138.7Y-117.05
X138.72Y-115.69
X138.73Y-105.69
X139.052Y-103.882
X139.072Y-120.149
X139.29Y-108.97
X139.31Y-107.7
X139.32Y-106.4
X139.33Y-105.08
X139.33Y-117.73
X139.34Y-116.43
X139.35Y-115.11
X139.35Y-118.97
X140.52Y-106.36
X140.53Y-108.99
X140.55Y-105.04
X140.55Y-116.36
X140.56Y-107.67
X140.56Y-118.99
X140.58Y-115.04
X140.59Y-117.67
X140.62Y-62.77
X140.86Y-103.19
X140.865Y-113.88
X141.14Y-105.69
X141.15Y-108.32
X141.18Y-107.0
X141.21Y-115.67
X141.22Y-118.3
X141.25Y-116.98
X141.45Y-110.13
X141.49Y-120.11
X141.72Y-106.37
X141.73Y-109.0
X141.75Y-105.05
X141.75Y-116.37
X141.76Y-107.68
X141.76Y-119.0
X141.78Y-115.05
X141.79Y-117.68
X142.99Y-109.34
X143.024Y-119.33
X144.2Y-51.76
X144.23Y-53.53
X144.23Y-122.46
X146.24Y-62.77
X146.47Y-69.36
X146.97Y-108.89
X146.98Y-109.89
X147.0Y-104.06
X147.0Y-106.49
X147.01Y-105.06
X147.01Y-107.49
X147.06Y-118.91
X147.07Y-119.91
X147.09Y-114.08
X147.09Y-116.51
X147.1Y-115.08
X147.1Y-117.51
X148.76Y-53.713
X150.857Y-49.01
X150.857Y-53.75
X150.88Y-46.95
X152.75Y-53.25
X156.248Y-70.753
X156.248Y-71.753
X156.248Y-72.753
X156.248Y-73.753
X156.248Y-74.753
X156.248Y-75.753
X156.248Y-76.753
X157.248Y-70.753
X157.248Y-71.753
X157.248Y-72.753
X157.248Y-73.753
X157.248Y-74.753
X157.248Y-75.753
X157.248Y-76.753
X157.68Y-124.99
X158.248Y-70.753
X158.248Y-71.753
X158.248Y-72.753
X158.248Y-73.753
X158.248Y-74.753
X158.248Y-75.753
X158.248Y-76.753
X159.248Y-70.753
X159.248Y-71.753
X159.248Y-72.753
X159.248Y-73.753
X159.248Y-74.753
X159.248Y-75.753
X159.248Y-76.753
X164.54Y-128.13
X166.78Y-70.93
X166.79Y-70.18
X166.79Y-71.6
X166.79Y-72.307
X166.91Y-64.76
X166.941Y-64.108
X167.04Y-126.54
X168.75Y-124.82
X172.92Y-51.6
X173.07Y-53.21
X175.616Y-86.831
X175.616Y-87.43
X175.616Y-88.03
X175.62Y-90.15
X175.62Y-90.85
X175.62Y-91.55
X175.802Y-124.072
X176.216Y-86.831
X176.216Y-87.43
X176.216Y-88.03
X176.32Y-90.15
X176.32Y-90.85
X176.32Y-91.55
X177.12Y-84.1
X177.12Y-84.7
X177.12Y-85.3
X177.12Y-85.9
X177.14Y-77.86
X177.14Y-78.46
X177.14Y-79.06
X177.14Y-79.66
X177.75Y-77.85
X177.75Y-78.45
X177.75Y-79.05
X177.75Y-79.65
X177.75Y-84.1
X177.75Y-84.7
X177.75Y-85.3
X177.75Y-85.9
X177.882Y-90.15
X177.882Y-90.85
X177.882Y-91.55
X177.978Y-86.831
X177.978Y-87.43
X177.978Y-88.03
X178.35Y-77.85
X178.35Y-78.45
X178.35Y-79.05
X178.35Y-79.65
X178.35Y-84.1
X178.35Y-84.7
X178.35Y-85.3
X178.35Y-85.9
X178.578Y-86.831
X178.578Y-87.43
X178.578Y-88.03
X178.582Y-90.15
X178.582Y-90.85
X178.582Y-91.55
X178.942Y-77.86
X178.942Y-78.46
X178.942Y-79.06
X178.942Y-79.66
X178.972Y-84.11
X178.972Y-84.71
X178.972Y-85.31
X178.972Y-85.91
X179.345Y-44.645
X179.82Y-104.23
X179.82Y-105.12
X179.82Y-109.09
X179.82Y-109.98
X179.82Y-114.17
X179.82Y-115.06
X179.84Y-106.65
X179.84Y-107.54
X179.85Y-116.6
X179.85Y-117.49
X179.87Y-118.99
X179.87Y-119.88
X180.13Y-44.11
X180.172Y-90.17
X180.172Y-90.87
X180.172Y-91.57
X180.268Y-86.85
X180.268Y-87.45
X180.268Y-88.05
X180.845Y-84.285
X180.845Y-84.835
X180.878Y-86.831
X180.878Y-87.43
X180.878Y-88.03
X180.882Y-90.15
X180.882Y-90.85
X180.882Y-91.55
X181.188Y-74.853
X181.348Y-74.22
X181.4Y-123.5
X181.445Y-84.285
X181.445Y-84.835
X182.37Y-84.26
X182.37Y-84.81
X182.413Y-74.49
X182.43Y-73.51
X182.566Y-86.831
X182.566Y-87.43
X182.566Y-88.03
X182.57Y-90.15
X182.57Y-90.85
X182.57Y-91.55
X182.97Y-84.26
X182.97Y-84.81
X183.12Y-78.81
X183.12Y-79.41
X183.12Y-80.01
X183.12Y-80.61
X183.166Y-86.831
X183.166Y-87.43
X183.166Y-88.03
X183.27Y-90.15
X183.27Y-90.85
X183.27Y-91.55
X183.849Y-72.8
X183.88Y-122.48
X184.14Y-42.58
X184.28Y-120.15
X184.32Y-103.87
X184.35Y-102.78
X184.36Y-104.79
X184.7Y-43.08
X184.82Y-90.15
X184.82Y-90.85
X184.82Y-91.55
X184.86Y-106.99
X184.89Y-105.7
X184.9Y-108.27
X184.916Y-86.831
X184.916Y-87.43
X184.916Y-88.03
X184.92Y-121.31
X185.28Y-116.38
X185.29Y-119.01
X185.31Y-115.06
X185.32Y-117.69
X185.42Y-108.96
X185.44Y-105.01
X185.45Y-107.64
X185.46Y-106.33
X185.47Y-120.15
X185.49Y-103.88
X185.516Y-86.831
X185.516Y-87.43
X185.516Y-88.03
X185.52Y-90.15
X185.52Y-90.85
X185.52Y-91.55
X185.84Y-106.96
X185.87Y-105.67
X185.88Y-108.24
X185.96Y-50.882
X185.97Y-72.83
X186.122Y-120.137
X186.142Y-103.857
X186.39Y-106.34
X186.4Y-108.97
X186.42Y-105.02
X186.43Y-107.65
X186.48Y-116.39
X186.49Y-119.02
X186.51Y-115.07
X186.52Y-117.7
X186.729Y-103.572
X186.775Y-120.141
X187.166Y-86.831
X187.166Y-87.43
X187.166Y-88.03
X187.17Y-90.15
X187.17Y-90.85
X187.17Y-91.55
X187.427Y-120.14
X187.448Y-73.425
X187.45Y-103.27
X187.69Y-116.33
X187.7Y-118.96
X187.72Y-115.01
X187.73Y-117.64
X187.766Y-86.831
X187.766Y-87.43
X187.766Y-88.03
X187.854Y-112.41
X187.87Y-90.15
X187.87Y-90.85
X187.87Y-91.55
X188.9Y-115.05
X188.9Y-117.67
X188.9Y-119.0
X188.91Y-116.35
X188.94Y-104.96
X188.94Y-107.58
X188.94Y-108.91
X188.95Y-106.26
X189.051Y-72.529
X189.075Y-71.805
X189.23Y-113.88
X189.49Y-116.99
X189.49Y-118.32
X189.5Y-115.67
X189.59Y-106.99
X189.59Y-108.32
X189.6Y-105.67
X189.83Y-120.662
X189.99Y-78.885
X189.99Y-79.71
X189.99Y-80.535
X189.99Y-81.36
X189.99Y-82.21
X189.99Y-83.01
X190.11Y-115.06
X190.11Y-117.68
X190.11Y-119.01
X190.12Y-116.36
X190.13Y-104.99
X190.13Y-107.61
X190.13Y-108.94
X190.14Y-106.29
X190.38Y-112.81
X190.44Y-74.65
X190.64Y-106.99
X190.64Y-108.32
X190.65Y-105.67
X191.136Y-81.52
X191.136Y-82.32
X191.136Y-83.12
X191.136Y-83.82
X191.136Y-84.52
X191.136Y-85.221
X191.136Y-86.02
X191.136Y-86.82
X191.15Y-91.85
X191.15Y-92.6
X191.15Y-93.35
X191.162Y-91.04
X191.18Y-119.35
X191.41Y-109.37
X191.58Y-80.0
X191.63Y-79.27
X191.936Y-81.52
X191.936Y-82.32
X191.936Y-83.12
X191.936Y-83.82
X191.936Y-84.52
X191.936Y-85.221
X191.936Y-86.02
X191.936Y-86.82
X191.95Y-91.85
X191.95Y-92.6
X191.95Y-93.35
X191.962Y-91.04
X191.98Y-73.893
X192.33Y-79.27
X192.33Y-80.0
X192.736Y-81.52
X192.736Y-82.32
X192.736Y-83.12
X192.736Y-83.82
X192.736Y-84.52
X192.736Y-85.221
X192.736Y-86.02
X192.736Y-86.82
X192.75Y-91.85
X192.75Y-92.6
X192.75Y-93.35
X192.75Y-121.8
X192.762Y-91.04
X192.96Y-107.63
X193.486Y-81.52
X193.486Y-82.32
X193.486Y-83.12
X193.486Y-83.82
X193.486Y-84.52
X193.486Y-85.221
X193.486Y-86.02
X193.486Y-86.82
X193.55Y-91.85
X193.55Y-92.6
X193.55Y-93.35
X193.562Y-91.04
X195.34Y-116.5
X195.34Y-117.51
X195.34Y-118.95
X195.34Y-119.96
X195.35Y-114.12
X195.35Y-115.13
X195.909Y-90.464
X196.758Y-90.114
X196.758Y-90.814
X196.758Y-91.514
X196.854Y-86.894
X196.854Y-87.495
X196.854Y-88.094
X197.16Y-116.5
X197.16Y-117.51
X197.17Y-114.13
X197.17Y-115.14
X197.17Y-118.92
X197.17Y-119.93
X197.409Y-44.433
X197.409Y-45.489
X197.409Y-46.546
X197.409Y-47.602
X197.41Y-43.48
X197.419Y-49.439
X197.419Y-50.496
X197.419Y-51.552
X197.419Y-52.608
X197.424Y-77.544
X197.424Y-78.144
X197.424Y-78.745
X197.424Y-79.344
X197.429Y-48.658
X197.429Y-53.363
X197.429Y-54.419
X197.454Y-86.894
X197.454Y-87.495
X197.454Y-88.094
X197.458Y-90.114
X197.458Y-90.814
X197.458Y-91.514
X197.954Y-83.794
X197.954Y-84.394
X197.954Y-84.995
X197.954Y-85.594
X198.054Y-77.544
X198.054Y-78.144
X198.054Y-78.745
X198.054Y-79.344
X198.319Y-44.433
X198.319Y-45.489
X198.319Y-46.546
X198.319Y-47.602
X198.32Y-43.48
X198.329Y-49.439
X198.329Y-50.496
X198.329Y-51.552
X198.329Y-52.608
X198.339Y-48.658
X198.339Y-53.363
X198.339Y-54.419
X198.554Y-83.794
X198.554Y-84.394
X198.554Y-84.995
X198.554Y-85.594
X198.654Y-77.544
X198.654Y-78.144
X198.654Y-78.745
X198.654Y-79.344
X199.04Y-105.06
X199.04Y-106.07
X199.05Y-107.48
X199.05Y-108.49
X199.058Y-90.089
X199.058Y-90.789
X199.058Y-91.489
X199.07Y-109.9
X199.07Y-110.91
X199.154Y-86.87
X199.154Y-87.469
X199.154Y-88.069
X199.21Y-42.424
X199.229Y-44.433
X199.229Y-45.489
X199.229Y-46.546
X199.229Y-47.602
X199.23Y-43.48
X199.249Y-48.658
X199.249Y-53.363
X199.249Y-54.419
X199.294Y-77.544
X199.294Y-78.144
X199.294Y-78.745
X199.294Y-79.344
X199.754Y-86.87
X199.754Y-87.469
X199.754Y-88.069
X199.758Y-90.089
X199.758Y-90.789
X199.758Y-91.489
X200.12Y-42.424
X200.13Y-104.98
X200.13Y-107.43
X200.13Y-108.76
X200.139Y-44.433
X200.139Y-45.489
X200.139Y-46.546
X200.139Y-47.602
X200.14Y-43.48
X200.14Y-106.11
X200.159Y-48.658
X200.159Y-53.363
X200.159Y-54.419
X200.21Y-113.08
X200.574Y-71.614
X200.574Y-72.575
X200.9Y-104.96
X200.9Y-107.41
X200.9Y-108.74
X200.91Y-106.09
X200.93Y-120.85
X200.97Y-110.345
X201.01Y-113.21
X201.03Y-42.424
X201.049Y-44.433
X201.049Y-45.489
X201.049Y-46.546
X201.049Y-47.602
X201.05Y-43.48
X201.069Y-48.658
X201.069Y-53.363
X201.069Y-54.419
X201.41Y-84.26
X201.41Y-84.81
X201.454Y-86.87
X201.454Y-87.469
X201.454Y-88.069
X201.458Y-90.089
X201.458Y-90.789
X201.458Y-91.489
X201.58Y-120.13
X201.584Y-74.114
X201.94Y-42.424
X201.959Y-44.433
X201.959Y-45.489
X201.959Y-46.546
X201.959Y-47.602
X201.96Y-43.48
X201.97Y-115.03
X201.97Y-117.65
X201.97Y-118.98
X201.979Y-48.658
X201.979Y-53.363
X201.979Y-54.419
X201.98Y-116.33
X202.01Y-84.26
X202.01Y-84.81
X202.054Y-86.87
X202.054Y-87.469
X202.054Y-88.069
X202.159Y-90.089
X202.159Y-90.789
X202.159Y-91.489
X202.159Y-103.241
X202.31Y-121.19
X202.388Y-72.061
X202.81Y-103.561
X202.91Y-84.21
X202.91Y-84.76
X203.0Y-121.16
X203.03Y-72.87
X203.18Y-115.04
X203.18Y-117.66
X203.18Y-118.99
X203.19Y-116.34
X203.2Y-107.64
X203.2Y-108.97
X203.21Y-106.32
X203.445Y-103.852
X203.51Y-84.21
X203.51Y-84.76
X203.652Y-121.184
X203.69Y-72.14
X203.754Y-86.87
X203.754Y-87.469
X203.754Y-88.069
X203.758Y-90.089
X203.758Y-90.789
X203.758Y-91.489
X203.79Y-105.72
X203.79Y-108.34
X203.8Y-107.02
X203.9Y-78.81
X203.9Y-79.41
X203.9Y-80.01
X203.9Y-80.61
X204.105Y-103.869
X204.32Y-121.22
X204.354Y-86.87
X204.354Y-87.469
X204.354Y-88.069
X204.37Y-107.64
X204.37Y-108.97
X204.38Y-106.32
X204.39Y-115.04
X204.39Y-117.66
X204.39Y-118.99
X204.4Y-116.34
X204.458Y-90.089
X204.458Y-90.789
X204.458Y-91.489
X204.725Y-44.472
X204.745Y-45.528
X204.745Y-46.584
X204.745Y-47.64
X204.745Y-48.697
X204.745Y-53.402
X204.765Y-54.458
X204.765Y-55.514
X204.765Y-56.57
X204.765Y-57.627
X204.99Y-120.13
X205.55Y-73.42
X205.55Y-105.04
X205.56Y-115.03
X205.57Y-106.36
X205.58Y-116.35
X205.59Y-107.68
X205.6Y-117.67
X205.61Y-109.0
X205.62Y-118.99
X205.635Y-44.472
X205.655Y-45.528
X205.655Y-46.584
X205.655Y-47.64
X205.655Y-48.697
X205.655Y-53.402
X205.675Y-54.458
X205.675Y-55.514
X205.675Y-56.57
X205.675Y-57.627
X205.9Y-113.88
X205.91Y-103.87
X205.958Y-90.089
X205.958Y-90.789
X205.958Y-91.489
X206.054Y-86.87
X206.054Y-87.469
X206.054Y-88.069
X206.17Y-115.69
X206.18Y-105.7
X206.19Y-117.01
X206.2Y-107.02
X206.21Y-118.33
X206.22Y-108.34
X206.39Y-102.75
X206.52Y-120.13
X206.545Y-44.472
X206.565Y-45.528
X206.565Y-46.584
X206.565Y-47.64
X206.565Y-48.697
X206.565Y-53.402
X206.585Y-54.458
X206.585Y-55.514
X206.585Y-56.57
X206.585Y-57.627
X206.61Y-129.86
X206.634Y-72.688
X206.654Y-86.87
X206.654Y-87.469
X206.654Y-88.069
X206.659Y-90.089
X206.659Y-90.789
X206.659Y-91.489
X206.75Y-105.04
X206.76Y-115.03
X206.77Y-106.36
X206.78Y-116.35
X206.79Y-107.68
X206.8Y-117.67
X206.81Y-109.0
X206.82Y-118.99
X207.455Y-44.472
X207.475Y-45.528
X207.475Y-46.584
X207.475Y-47.64
X207.475Y-48.697
X207.475Y-53.402
X207.495Y-54.458
X207.495Y-55.514
X207.495Y-56.57
X207.495Y-57.627
X207.635Y-71.764
X208.05Y-109.33
X208.08Y-119.34
X208.334Y-86.87
X208.334Y-87.469
X208.334Y-88.069
X208.338Y-90.089
X208.338Y-90.789
X208.338Y-91.489
X208.365Y-44.472
X208.385Y-45.528
X208.385Y-46.584
X208.385Y-47.64
X208.385Y-48.697
X208.385Y-53.402
X208.395Y-49.452
X208.395Y-50.508
X208.395Y-51.564
X208.395Y-52.62
X208.405Y-54.458
X208.405Y-55.514
X208.405Y-56.57
X208.405Y-57.627
X208.934Y-86.87
X208.934Y-87.469
X208.934Y-88.069
X209.034Y-70.757
X209.038Y-90.089
X209.038Y-90.789
X209.038Y-91.489
X209.275Y-44.472
X209.295Y-45.528
X209.295Y-46.584
X209.295Y-47.64
X209.295Y-48.697
X209.295Y-53.402
X209.305Y-49.452
X209.305Y-50.508
X209.305Y-51.564
X209.305Y-52.62
X209.315Y-54.458
X209.315Y-55.514
X209.315Y-56.57
X209.315Y-57.627
X209.734Y-70.744
X210.39Y-69.54
X210.504Y-70.745
X210.79Y-78.72
X210.79Y-79.552
X210.79Y-80.384
X210.79Y-81.216
X210.79Y-82.048
X210.79Y-82.88
X212.19Y-90.68
X212.19Y-91.48
X212.19Y-92.33
X212.19Y-93.13
X212.29Y-104.94
X212.3Y-115.05
X212.31Y-106.26
X212.32Y-116.37
X212.33Y-107.58
X212.34Y-117.69
X212.35Y-108.9
X212.36Y-119.01
X212.41Y-81.51
X212.41Y-82.31
X212.41Y-83.11
X212.41Y-83.81
X212.41Y-84.51
X212.41Y-85.21
X212.41Y-86.01
X212.41Y-86.81
X212.92Y-105.6
X212.93Y-115.71
X212.94Y-106.92
X212.95Y-117.03
X212.96Y-108.24
X212.97Y-118.35
X212.99Y-90.68
X212.99Y-91.48
X212.99Y-92.33
X212.99Y-93.13
X213.21Y-81.51
X213.21Y-82.31
X213.21Y-83.11
X213.21Y-83.81
X213.21Y-84.51
X213.21Y-85.21
X213.21Y-86.01
X213.21Y-86.81
X213.229Y-78.919
X213.41Y-69.379
X213.49Y-104.94
X213.5Y-115.05
X213.504Y-79.784
X213.51Y-106.26
X213.52Y-116.37
X213.53Y-107.58
X213.54Y-117.69
X213.55Y-108.9
X213.56Y-119.01
X213.79Y-90.68
X213.79Y-91.48
X213.79Y-92.33
X213.79Y-93.13
X213.951Y-65.918
X214.01Y-81.51
X214.01Y-82.31
X214.01Y-83.11
X214.01Y-83.81
X214.01Y-84.51
X214.01Y-85.21
X214.01Y-86.01
X214.01Y-86.81
X214.029Y-78.919
X214.59Y-90.68
X214.59Y-91.48
X214.59Y-92.33
X214.59Y-93.13
X214.76Y-81.51
X214.76Y-82.31
X214.76Y-83.11
X214.76Y-83.81
X214.76Y-84.51
X214.76Y-85.21
X214.76Y-86.01
X214.76Y-86.81
X214.854Y-73.275
X215.672Y-64.877
X216.104Y-68.194
X216.104Y-69.644
X216.454Y-70.984
X217.124Y-64.178
X217.73Y-64.42
X218.48Y-75.62
X221.67Y-75.58
X221.67Y-78.71
X222.32Y-91.87
X225.16Y-73.29
X225.203Y-77.535
X225.606Y-102.975
T2
X104.57Y-124.4
X106.07Y-124.4
X185.27Y-76.45
X185.27Y-77.85
X185.27Y-79.25
X186.55Y-75.45
X186.55Y-76.45
X186.55Y-77.85
X186.55Y-79.25
X186.55Y-80.25
X187.83Y-76.45
X187.83Y-77.85
X187.83Y-79.25
X206.024Y-76.344
X206.024Y-77.745
X206.024Y-79.144
X207.304Y-75.344
X207.304Y-76.344
X207.304Y-77.745
X207.304Y-79.144
X207.304Y-80.144
X208.584Y-76.344
X208.584Y-77.745
X208.584Y-79.144
T3
X110.78Y-40.8
X112.03Y-40.8
X112.03Y-44.25
X112.33Y-53.85
X112.33Y-55.25
X112.33Y-56.65
X113.3Y-44.2
X113.33Y-40.8
X113.74Y-53.85
X113.74Y-55.25
X113.74Y-56.65
X115.14Y-53.85
X115.14Y-55.25
X115.14Y-56.65
T4
X115.04Y-69.87
X177.76Y-55.13
X177.78Y-54.23
X177.78Y-56.94
X177.79Y-56.0
X178.65Y-55.16
X178.65Y-56.01
X178.65Y-56.91
X178.67Y-54.26
X179.55Y-55.16
X179.55Y-56.01
X179.55Y-56.91
X179.57Y-54.26
X180.62Y-52.53
X182.135Y-52.507
X182.21Y-47.857
X182.385Y-50.132
X185.01Y-47.882
X187.71Y-47.882
X188.535Y-50.607
T5
X99.6Y-41.5
X99.6Y-146.5
X100.303Y-39.803
X100.303Y-43.197
X100.303Y-144.803
X100.303Y-148.197
X102.0Y-39.1
X102.0Y-43.9
X102.0Y-144.1
X102.0Y-148.9
X103.697Y-39.803
X103.697Y-43.197
X103.697Y-144.803
X103.697Y-148.197
X104.4Y-41.5
X104.4Y-146.5
X160.8Y-41.5
X160.8Y-146.5
X161.503Y-39.803
X161.503Y-43.197
X161.503Y-144.803
X161.503Y-148.197
X163.2Y-39.1
X163.2Y-43.9
X163.2Y-144.1
X163.2Y-148.9
X164.897Y-39.803
X164.897Y-43.197
X164.897Y-144.803
X164.897Y-148.197
X165.6Y-41.5
X165.6Y-146.5
X222.6Y-41.5
X222.6Y-146.5
X223.303Y-39.803
X223.303Y-43.197
X223.303Y-144.803
X223.303Y-148.197
X225.0Y-39.1
X225.0Y-43.9
X225.0Y-144.1
X225.0Y-148.9
X226.697Y-39.803
X226.697Y-43.197
X226.697Y-144.803
X226.697Y-148.197
X227.4Y-41.5
X227.4Y-146.5
T6
X106.0Y-67.4
T8
X147.8Y-43.09
X147.8Y-48.17
X148.2Y-40.55
X148.2Y-45.63
X197.76Y-41.02
X208.76Y-41.02
T9
X158.77Y-48.13
X158.77Y-50.67
X158.77Y-53.21
X158.77Y-55.75
X167.74Y-48.13
X167.74Y-50.67
X167.74Y-53.21
X167.74Y-55.75
T10
X156.61Y-50.67
X165.58Y-50.67
T11
X200.76Y-51.02
X205.76Y-51.02
T12
X102.0Y-41.5
X102.0Y-146.5
X163.2Y-41.5
X163.2Y-146.5
X225.0Y-41.5
X225.0Y-146.5
T13
X106.0Y-87.0
X106.0Y-137.0
X156.0Y-87.0
X156.0Y-137.0
X171.0Y-87.0
X171.0Y-137.0
X221.0Y-87.0
X221.0Y-137.0
T7
G00X118.03Y-40.485
M15
G01X118.03Y-41.285
M16
G05
G00X118.03Y-44.515
M15
G01X118.03Y-45.615
M16
G05
G00X126.67Y-40.485
M15
G01X126.67Y-41.285
M16
G05
G00X126.67Y-44.515
M15
G01X126.67Y-45.615
M16
G05
M30
