%TF.GenerationSoftware,KiCad,Pcbnew,9.0.0*%
%TF.CreationDate,2025-06-24T17:18:03-04:00*%
%TF.ProjectId,BitaxeBonanza,42697461-7865-4426-9f6e-616e7a612e6b,1001x*%
%TF.SameCoordinates,Original*%
%TF.FileFunction,Paste,Top*%
%TF.FilePolarity,Positive*%
%FSLAX46Y46*%
G04 Gerber Fmt 4.6, Leading zero omitted, Abs format (unit mm)*
G04 Created by KiCad (PCBNEW 9.0.0) date 2025-06-24 17:18:03*
%MOMM*%
%LPD*%
G01*
G04 APERTURE LIST*
%ADD10R,0.705000X0.305000*%
%ADD11R,0.305000X0.935000*%
%ADD12R,0.805000X0.805000*%
G04 APERTURE END LIST*
D10*
%TO.C,A8*%
X208050500Y-119165000D03*
X208050500Y-118550000D03*
X208050500Y-117935000D03*
X208050500Y-117320000D03*
X208050500Y-116705000D03*
X208050500Y-116090000D03*
X208050500Y-115475000D03*
X208050500Y-114860000D03*
D11*
X207735000Y-113680000D03*
X207120000Y-113680000D03*
X206505000Y-113680000D03*
X205890000Y-113680000D03*
X205275000Y-113680000D03*
X204660000Y-113680000D03*
X204045000Y-113680000D03*
X203430000Y-113680000D03*
X202815000Y-113680000D03*
X202200000Y-113680000D03*
X201585000Y-113680000D03*
X200970000Y-113680000D03*
D10*
X200655500Y-114860000D03*
X200655500Y-115475000D03*
X200655500Y-116090000D03*
X200655500Y-116705000D03*
X200655500Y-117320000D03*
X200655500Y-117935000D03*
X200655500Y-118550000D03*
X200655500Y-119165000D03*
D11*
X200970000Y-120345000D03*
X201585000Y-120345000D03*
X202200000Y-120345000D03*
X202815000Y-120345000D03*
X203430000Y-120345000D03*
X204045000Y-120345000D03*
X204660000Y-120345000D03*
X205275000Y-120345000D03*
X205890000Y-120345000D03*
X206505000Y-120345000D03*
X207120000Y-120345000D03*
X207735000Y-120345000D03*
D12*
X206769000Y-118977500D03*
X205561000Y-118977500D03*
X204353000Y-118977500D03*
X203145000Y-118977500D03*
X201937000Y-118977500D03*
X201937000Y-117667500D03*
X203145000Y-117667500D03*
X204353000Y-117667500D03*
X205561000Y-117667500D03*
X206769000Y-117667500D03*
X206769000Y-116357500D03*
X205561000Y-116357500D03*
X204353000Y-116357500D03*
X203145000Y-116357500D03*
X201937000Y-116357500D03*
X201937000Y-115047500D03*
X203145000Y-115047500D03*
X204353000Y-115047500D03*
X205561000Y-115047500D03*
X206769000Y-115047500D03*
%TD*%
D10*
%TO.C,A2*%
X126325500Y-109165000D03*
X126325500Y-108550000D03*
X126325500Y-107935000D03*
X126325500Y-107320000D03*
X126325500Y-106705000D03*
X126325500Y-106090000D03*
X126325500Y-105475000D03*
X126325500Y-104860000D03*
D11*
X126010000Y-103680000D03*
X125395000Y-103680000D03*
X124780000Y-103680000D03*
X124165000Y-103680000D03*
X123550000Y-103680000D03*
X122935000Y-103680000D03*
X122320000Y-103680000D03*
X121705000Y-103680000D03*
X121090000Y-103680000D03*
X120475000Y-103680000D03*
X119860000Y-103680000D03*
X119245000Y-103680000D03*
D10*
X118930500Y-104860000D03*
X118930500Y-105475000D03*
X118930500Y-106090000D03*
X118930500Y-106705000D03*
X118930500Y-107320000D03*
X118930500Y-107935000D03*
X118930500Y-108550000D03*
X118930500Y-109165000D03*
D11*
X119245000Y-110345000D03*
X119860000Y-110345000D03*
X120475000Y-110345000D03*
X121090000Y-110345000D03*
X121705000Y-110345000D03*
X122320000Y-110345000D03*
X122935000Y-110345000D03*
X123550000Y-110345000D03*
X124165000Y-110345000D03*
X124780000Y-110345000D03*
X125395000Y-110345000D03*
X126010000Y-110345000D03*
D12*
X125044000Y-108977500D03*
X123836000Y-108977500D03*
X122628000Y-108977500D03*
X121420000Y-108977500D03*
X120212000Y-108977500D03*
X120212000Y-107667500D03*
X121420000Y-107667500D03*
X122628000Y-107667500D03*
X123836000Y-107667500D03*
X125044000Y-107667500D03*
X125044000Y-106357500D03*
X123836000Y-106357500D03*
X122628000Y-106357500D03*
X121420000Y-106357500D03*
X120212000Y-106357500D03*
X120212000Y-105047500D03*
X121420000Y-105047500D03*
X122628000Y-105047500D03*
X123836000Y-105047500D03*
X125044000Y-105047500D03*
%TD*%
D10*
%TO.C,A3*%
X143005500Y-109165000D03*
X143005500Y-108550000D03*
X143005500Y-107935000D03*
X143005500Y-107320000D03*
X143005500Y-106705000D03*
X143005500Y-106090000D03*
X143005500Y-105475000D03*
X143005500Y-104860000D03*
D11*
X142690000Y-103680000D03*
X142075000Y-103680000D03*
X141460000Y-103680000D03*
X140845000Y-103680000D03*
X140230000Y-103680000D03*
X139615000Y-103680000D03*
X139000000Y-103680000D03*
X138385000Y-103680000D03*
X137770000Y-103680000D03*
X137155000Y-103680000D03*
X136540000Y-103680000D03*
X135925000Y-103680000D03*
D10*
X135610500Y-104860000D03*
X135610500Y-105475000D03*
X135610500Y-106090000D03*
X135610500Y-106705000D03*
X135610500Y-107320000D03*
X135610500Y-107935000D03*
X135610500Y-108550000D03*
X135610500Y-109165000D03*
D11*
X135925000Y-110345000D03*
X136540000Y-110345000D03*
X137155000Y-110345000D03*
X137770000Y-110345000D03*
X138385000Y-110345000D03*
X139000000Y-110345000D03*
X139615000Y-110345000D03*
X140230000Y-110345000D03*
X140845000Y-110345000D03*
X141460000Y-110345000D03*
X142075000Y-110345000D03*
X142690000Y-110345000D03*
D12*
X141724000Y-108977500D03*
X140516000Y-108977500D03*
X139308000Y-108977500D03*
X138100000Y-108977500D03*
X136892000Y-108977500D03*
X136892000Y-107667500D03*
X138100000Y-107667500D03*
X139308000Y-107667500D03*
X140516000Y-107667500D03*
X141724000Y-107667500D03*
X141724000Y-106357500D03*
X140516000Y-106357500D03*
X139308000Y-106357500D03*
X138100000Y-106357500D03*
X136892000Y-106357500D03*
X136892000Y-105047500D03*
X138100000Y-105047500D03*
X139308000Y-105047500D03*
X140516000Y-105047500D03*
X141724000Y-105047500D03*
%TD*%
D10*
%TO.C,A6*%
X191400500Y-109165000D03*
X191400500Y-108550000D03*
X191400500Y-107935000D03*
X191400500Y-107320000D03*
X191400500Y-106705000D03*
X191400500Y-106090000D03*
X191400500Y-105475000D03*
X191400500Y-104860000D03*
D11*
X191085000Y-103680000D03*
X190470000Y-103680000D03*
X189855000Y-103680000D03*
X189240000Y-103680000D03*
X188625000Y-103680000D03*
X188010000Y-103680000D03*
X187395000Y-103680000D03*
X186780000Y-103680000D03*
X186165000Y-103680000D03*
X185550000Y-103680000D03*
X184935000Y-103680000D03*
X184320000Y-103680000D03*
D10*
X184005500Y-104860000D03*
X184005500Y-105475000D03*
X184005500Y-106090000D03*
X184005500Y-106705000D03*
X184005500Y-107320000D03*
X184005500Y-107935000D03*
X184005500Y-108550000D03*
X184005500Y-109165000D03*
D11*
X184320000Y-110345000D03*
X184935000Y-110345000D03*
X185550000Y-110345000D03*
X186165000Y-110345000D03*
X186780000Y-110345000D03*
X187395000Y-110345000D03*
X188010000Y-110345000D03*
X188625000Y-110345000D03*
X189240000Y-110345000D03*
X189855000Y-110345000D03*
X190470000Y-110345000D03*
X191085000Y-110345000D03*
D12*
X190119000Y-108977500D03*
X188911000Y-108977500D03*
X187703000Y-108977500D03*
X186495000Y-108977500D03*
X185287000Y-108977500D03*
X185287000Y-107667500D03*
X186495000Y-107667500D03*
X187703000Y-107667500D03*
X188911000Y-107667500D03*
X190119000Y-107667500D03*
X190119000Y-106357500D03*
X188911000Y-106357500D03*
X187703000Y-106357500D03*
X186495000Y-106357500D03*
X185287000Y-106357500D03*
X185287000Y-105047500D03*
X186495000Y-105047500D03*
X187703000Y-105047500D03*
X188911000Y-105047500D03*
X190119000Y-105047500D03*
%TD*%
D10*
%TO.C,A4*%
X143025500Y-119165000D03*
X143025500Y-118550000D03*
X143025500Y-117935000D03*
X143025500Y-117320000D03*
X143025500Y-116705000D03*
X143025500Y-116090000D03*
X143025500Y-115475000D03*
X143025500Y-114860000D03*
D11*
X142710000Y-113680000D03*
X142095000Y-113680000D03*
X141480000Y-113680000D03*
X140865000Y-113680000D03*
X140250000Y-113680000D03*
X139635000Y-113680000D03*
X139020000Y-113680000D03*
X138405000Y-113680000D03*
X137790000Y-113680000D03*
X137175000Y-113680000D03*
X136560000Y-113680000D03*
X135945000Y-113680000D03*
D10*
X135630500Y-114860000D03*
X135630500Y-115475000D03*
X135630500Y-116090000D03*
X135630500Y-116705000D03*
X135630500Y-117320000D03*
X135630500Y-117935000D03*
X135630500Y-118550000D03*
X135630500Y-119165000D03*
D11*
X135945000Y-120345000D03*
X136560000Y-120345000D03*
X137175000Y-120345000D03*
X137790000Y-120345000D03*
X138405000Y-120345000D03*
X139020000Y-120345000D03*
X139635000Y-120345000D03*
X140250000Y-120345000D03*
X140865000Y-120345000D03*
X141480000Y-120345000D03*
X142095000Y-120345000D03*
X142710000Y-120345000D03*
D12*
X141744000Y-118977500D03*
X140536000Y-118977500D03*
X139328000Y-118977500D03*
X138120000Y-118977500D03*
X136912000Y-118977500D03*
X136912000Y-117667500D03*
X138120000Y-117667500D03*
X139328000Y-117667500D03*
X140536000Y-117667500D03*
X141744000Y-117667500D03*
X141744000Y-116357500D03*
X140536000Y-116357500D03*
X139328000Y-116357500D03*
X138120000Y-116357500D03*
X136912000Y-116357500D03*
X136912000Y-115047500D03*
X138120000Y-115047500D03*
X139328000Y-115047500D03*
X140536000Y-115047500D03*
X141744000Y-115047500D03*
%TD*%
D10*
%TO.C,A1*%
X126350000Y-119165000D03*
X126350000Y-118550000D03*
X126350000Y-117935000D03*
X126350000Y-117320000D03*
X126350000Y-116705000D03*
X126350000Y-116090000D03*
X126350000Y-115475000D03*
X126350000Y-114860000D03*
D11*
X126034500Y-113680000D03*
X125419500Y-113680000D03*
X124804500Y-113680000D03*
X124189500Y-113680000D03*
X123574500Y-113680000D03*
X122959500Y-113680000D03*
X122344500Y-113680000D03*
X121729500Y-113680000D03*
X121114500Y-113680000D03*
X120499500Y-113680000D03*
X119884500Y-113680000D03*
X119269500Y-113680000D03*
D10*
X118955000Y-114860000D03*
X118955000Y-115475000D03*
X118955000Y-116090000D03*
X118955000Y-116705000D03*
X118955000Y-117320000D03*
X118955000Y-117935000D03*
X118955000Y-118550000D03*
X118955000Y-119165000D03*
D11*
X119269500Y-120345000D03*
X119884500Y-120345000D03*
X120499500Y-120345000D03*
X121114500Y-120345000D03*
X121729500Y-120345000D03*
X122344500Y-120345000D03*
X122959500Y-120345000D03*
X123574500Y-120345000D03*
X124189500Y-120345000D03*
X124804500Y-120345000D03*
X125419500Y-120345000D03*
X126034500Y-120345000D03*
D12*
X125068500Y-118977500D03*
X123860500Y-118977500D03*
X122652500Y-118977500D03*
X121444500Y-118977500D03*
X120236500Y-118977500D03*
X120236500Y-117667500D03*
X121444500Y-117667500D03*
X122652500Y-117667500D03*
X123860500Y-117667500D03*
X125068500Y-117667500D03*
X125068500Y-116357500D03*
X123860500Y-116357500D03*
X122652500Y-116357500D03*
X121444500Y-116357500D03*
X120236500Y-116357500D03*
X120236500Y-115047500D03*
X121444500Y-115047500D03*
X122652500Y-115047500D03*
X123860500Y-115047500D03*
X125068500Y-115047500D03*
%TD*%
D10*
%TO.C,A7*%
X208050500Y-109165000D03*
X208050500Y-108550000D03*
X208050500Y-107935000D03*
X208050500Y-107320000D03*
X208050500Y-106705000D03*
X208050500Y-106090000D03*
X208050500Y-105475000D03*
X208050500Y-104860000D03*
D11*
X207735000Y-103680000D03*
X207120000Y-103680000D03*
X206505000Y-103680000D03*
X205890000Y-103680000D03*
X205275000Y-103680000D03*
X204660000Y-103680000D03*
X204045000Y-103680000D03*
X203430000Y-103680000D03*
X202815000Y-103680000D03*
X202200000Y-103680000D03*
X201585000Y-103680000D03*
X200970000Y-103680000D03*
D10*
X200655500Y-104860000D03*
X200655500Y-105475000D03*
X200655500Y-106090000D03*
X200655500Y-106705000D03*
X200655500Y-107320000D03*
X200655500Y-107935000D03*
X200655500Y-108550000D03*
X200655500Y-109165000D03*
D11*
X200970000Y-110345000D03*
X201585000Y-110345000D03*
X202200000Y-110345000D03*
X202815000Y-110345000D03*
X203430000Y-110345000D03*
X204045000Y-110345000D03*
X204660000Y-110345000D03*
X205275000Y-110345000D03*
X205890000Y-110345000D03*
X206505000Y-110345000D03*
X207120000Y-110345000D03*
X207735000Y-110345000D03*
D12*
X206769000Y-108977500D03*
X205561000Y-108977500D03*
X204353000Y-108977500D03*
X203145000Y-108977500D03*
X201937000Y-108977500D03*
X201937000Y-107667500D03*
X203145000Y-107667500D03*
X204353000Y-107667500D03*
X205561000Y-107667500D03*
X206769000Y-107667500D03*
X206769000Y-106357500D03*
X205561000Y-106357500D03*
X204353000Y-106357500D03*
X203145000Y-106357500D03*
X201937000Y-106357500D03*
X201937000Y-105047500D03*
X203145000Y-105047500D03*
X204353000Y-105047500D03*
X205561000Y-105047500D03*
X206769000Y-105047500D03*
%TD*%
D10*
%TO.C,A5*%
X191380500Y-119165000D03*
X191380500Y-118550000D03*
X191380500Y-117935000D03*
X191380500Y-117320000D03*
X191380500Y-116705000D03*
X191380500Y-116090000D03*
X191380500Y-115475000D03*
X191380500Y-114860000D03*
D11*
X191065000Y-113680000D03*
X190450000Y-113680000D03*
X189835000Y-113680000D03*
X189220000Y-113680000D03*
X188605000Y-113680000D03*
X187990000Y-113680000D03*
X187375000Y-113680000D03*
X186760000Y-113680000D03*
X186145000Y-113680000D03*
X185530000Y-113680000D03*
X184915000Y-113680000D03*
X184300000Y-113680000D03*
D10*
X183985500Y-114860000D03*
X183985500Y-115475000D03*
X183985500Y-116090000D03*
X183985500Y-116705000D03*
X183985500Y-117320000D03*
X183985500Y-117935000D03*
X183985500Y-118550000D03*
X183985500Y-119165000D03*
D11*
X184300000Y-120345000D03*
X184915000Y-120345000D03*
X185530000Y-120345000D03*
X186145000Y-120345000D03*
X186760000Y-120345000D03*
X187375000Y-120345000D03*
X187990000Y-120345000D03*
X188605000Y-120345000D03*
X189220000Y-120345000D03*
X189835000Y-120345000D03*
X190450000Y-120345000D03*
X191065000Y-120345000D03*
D12*
X190099000Y-118977500D03*
X188891000Y-118977500D03*
X187683000Y-118977500D03*
X186475000Y-118977500D03*
X185267000Y-118977500D03*
X185267000Y-117667500D03*
X186475000Y-117667500D03*
X187683000Y-117667500D03*
X188891000Y-117667500D03*
X190099000Y-117667500D03*
X190099000Y-116357500D03*
X188891000Y-116357500D03*
X187683000Y-116357500D03*
X186475000Y-116357500D03*
X185267000Y-116357500D03*
X185267000Y-115047500D03*
X186475000Y-115047500D03*
X187683000Y-115047500D03*
X188891000Y-115047500D03*
X190099000Y-115047500D03*
%TD*%
M02*
