%TF.GenerationSoftware,KiCad,Pcbnew,9.0.0*%
%TF.CreationDate,2025-06-24T17:18:03-04:00*%
%TF.ProjectId,BitaxeBonanza,42697461-7865-4426-9f6e-616e7a612e6b,1001x*%
%TF.SameCoordinates,Original*%
%TF.FileFunction,Legend,Bot*%
%TF.FilePolarity,Positive*%
%FSLAX46Y46*%
G04 Gerber Fmt 4.6, Leading zero omitted, Abs format (unit mm)*
G04 Created by KiCad (PCBNEW 9.0.0) date 2025-06-24 17:18:03*
%MOMM*%
%LPD*%
G01*
G04 APERTURE LIST*
G04 Aperture macros list*
%AMRoundRect*
0 Rectangle with rounded corners*
0 $1 Rounding radius*
0 $2 $3 $4 $5 $6 $7 $8 $9 X,Y pos of 4 corners*
0 Add a 4 corners polygon primitive as box body*
4,1,4,$2,$3,$4,$5,$6,$7,$8,$9,$2,$3,0*
0 Add four circle primitives for the rounded corners*
1,1,$1+$1,$2,$3*
1,1,$1+$1,$4,$5*
1,1,$1+$1,$6,$7*
1,1,$1+$1,$8,$9*
0 Add four rect primitives between the rounded corners*
20,1,$1+$1,$2,$3,$4,$5,0*
20,1,$1+$1,$4,$5,$6,$7,0*
20,1,$1+$1,$6,$7,$8,$9,0*
20,1,$1+$1,$8,$9,$2,$3,0*%
%AMFreePoly0*
4,1,9,3.862500,-0.866500,0.737500,-0.866500,0.737500,-0.450000,-0.737500,-0.450000,-0.737500,0.450000,0.737500,0.450000,0.737500,0.866500,3.862500,0.866500,3.862500,-0.866500,3.862500,-0.866500,$1*%
G04 Aperture macros list end*
%ADD10C,0.300000*%
%ADD11C,0.150000*%
%ADD12C,0.152400*%
%ADD13C,0.120000*%
%ADD14C,0.313180*%
%ADD15C,0.100000*%
%ADD16C,0.250000*%
%ADD17C,0.000000*%
%ADD18C,6.000000*%
%ADD19C,0.800000*%
%ADD20C,6.400000*%
%ADD21C,1.300000*%
%ADD22O,4.000000X1.574800*%
%ADD23C,1.500000*%
%ADD24C,1.700000*%
%ADD25O,1.700000X1.700000*%
%ADD26R,0.762000X0.355600*%
%ADD27RoundRect,0.140000X0.170000X-0.140000X0.170000X0.140000X-0.170000X0.140000X-0.170000X-0.140000X0*%
%ADD28RoundRect,0.140000X-0.170000X0.140000X-0.170000X-0.140000X0.170000X-0.140000X0.170000X0.140000X0*%
%ADD29RoundRect,0.135000X0.185000X-0.135000X0.185000X0.135000X-0.185000X0.135000X-0.185000X-0.135000X0*%
%ADD30RoundRect,0.250000X-0.325000X-0.650000X0.325000X-0.650000X0.325000X0.650000X-0.325000X0.650000X0*%
%ADD31RoundRect,0.150000X-0.512500X-0.150000X0.512500X-0.150000X0.512500X0.150000X-0.512500X0.150000X0*%
%ADD32C,0.990600*%
%ADD33C,0.787400*%
%ADD34RoundRect,0.140000X-0.140000X-0.170000X0.140000X-0.170000X0.140000X0.170000X-0.140000X0.170000X0*%
%ADD35C,1.000000*%
%ADD36RoundRect,0.250000X-0.650000X0.325000X-0.650000X-0.325000X0.650000X-0.325000X0.650000X0.325000X0*%
%ADD37RoundRect,0.225000X0.225000X0.250000X-0.225000X0.250000X-0.225000X-0.250000X0.225000X-0.250000X0*%
%ADD38R,1.300000X1.100000*%
%ADD39RoundRect,0.135000X-0.185000X0.135000X-0.185000X-0.135000X0.185000X-0.135000X0.185000X0.135000X0*%
%ADD40RoundRect,0.150000X0.150000X-0.512500X0.150000X0.512500X-0.150000X0.512500X-0.150000X-0.512500X0*%
%ADD41RoundRect,0.062500X0.337500X0.062500X-0.337500X0.062500X-0.337500X-0.062500X0.337500X-0.062500X0*%
%ADD42RoundRect,0.062500X0.062500X0.337500X-0.062500X0.337500X-0.062500X-0.337500X0.062500X-0.337500X0*%
%ADD43C,0.400000*%
%ADD44R,3.300000X5.300000*%
%ADD45R,0.599999X0.240000*%
%ADD46R,0.240000X0.599999*%
%ADD47C,0.499999*%
%ADD48R,2.000001X1.000000*%
%ADD49RoundRect,0.135000X-0.135000X-0.185000X0.135000X-0.185000X0.135000X0.185000X-0.135000X0.185000X0*%
%ADD50RoundRect,0.225000X-0.250000X0.225000X-0.250000X-0.225000X0.250000X-0.225000X0.250000X0.225000X0*%
%ADD51RoundRect,0.140000X0.140000X0.170000X-0.140000X0.170000X-0.140000X-0.170000X0.140000X-0.170000X0*%
%ADD52R,0.220000X0.599999*%
%ADD53R,1.270000X0.889000*%
%ADD54R,0.787400X1.447800*%
%ADD55C,3.000000*%
%ADD56C,2.000000*%
%ADD57RoundRect,0.250000X0.475000X-0.250000X0.475000X0.250000X-0.475000X0.250000X-0.475000X-0.250000X0*%
%ADD58RoundRect,0.381000X1.334000X-0.889000X1.334000X0.889000X-1.334000X0.889000X-1.334000X-0.889000X0*%
%ADD59RoundRect,0.135000X0.135000X0.185000X-0.135000X0.185000X-0.135000X-0.185000X0.135000X-0.185000X0*%
%ADD60R,0.300000X1.300000*%
%ADD61R,2.000000X1.600000*%
%ADD62C,0.650000*%
%ADD63RoundRect,0.150000X-0.150000X-0.425000X0.150000X-0.425000X0.150000X0.425000X-0.150000X0.425000X0*%
%ADD64RoundRect,0.075000X-0.075000X-0.500000X0.075000X-0.500000X0.075000X0.500000X-0.075000X0.500000X0*%
%ADD65O,1.000000X1.800000*%
%ADD66O,1.000000X2.100000*%
%ADD67RoundRect,0.250000X0.450000X-0.262500X0.450000X0.262500X-0.450000X0.262500X-0.450000X-0.262500X0*%
%ADD68RoundRect,0.225000X0.250000X-0.225000X0.250000X0.225000X-0.250000X0.225000X-0.250000X-0.225000X0*%
%ADD69RoundRect,0.250000X-1.025000X0.787500X-1.025000X-0.787500X1.025000X-0.787500X1.025000X0.787500X0*%
%ADD70R,0.900000X1.500000*%
%ADD71R,1.500000X0.900000*%
%ADD72R,0.900000X0.900000*%
%ADD73RoundRect,0.225000X0.425000X0.225000X-0.425000X0.225000X-0.425000X-0.225000X0.425000X-0.225000X0*%
%ADD74FreePoly0,180.000000*%
%ADD75RoundRect,0.085000X-0.727500X-0.085000X0.727500X-0.085000X0.727500X0.085000X-0.727500X0.085000X0*%
G04 APERTURE END LIST*
D10*
X202018015Y-54510000D02*
G75*
G02*
X199601985Y-54510000I-1208015J0D01*
G01*
X199601985Y-54510000D02*
G75*
G02*
X202018015Y-54510000I1208015J0D01*
G01*
X207028015Y-54470000D02*
G75*
G02*
X204611985Y-54470000I-1208015J0D01*
G01*
X204611985Y-54470000D02*
G75*
G02*
X207028015Y-54470000I1208015J0D01*
G01*
D11*
X191799887Y-39516009D02*
X191657030Y-39563628D01*
X191657030Y-39563628D02*
X191609411Y-39611247D01*
X191609411Y-39611247D02*
X191561792Y-39706485D01*
X191561792Y-39706485D02*
X191561792Y-39849342D01*
X191561792Y-39849342D02*
X191609411Y-39944580D01*
X191609411Y-39944580D02*
X191657030Y-39992200D01*
X191657030Y-39992200D02*
X191752268Y-40039819D01*
X191752268Y-40039819D02*
X192133220Y-40039819D01*
X192133220Y-40039819D02*
X192133220Y-39039819D01*
X192133220Y-39039819D02*
X191799887Y-39039819D01*
X191799887Y-39039819D02*
X191704649Y-39087438D01*
X191704649Y-39087438D02*
X191657030Y-39135057D01*
X191657030Y-39135057D02*
X191609411Y-39230295D01*
X191609411Y-39230295D02*
X191609411Y-39325533D01*
X191609411Y-39325533D02*
X191657030Y-39420771D01*
X191657030Y-39420771D02*
X191704649Y-39468390D01*
X191704649Y-39468390D02*
X191799887Y-39516009D01*
X191799887Y-39516009D02*
X192133220Y-39516009D01*
X191180839Y-39754104D02*
X190704649Y-39754104D01*
X191276077Y-40039819D02*
X190942744Y-39039819D01*
X190942744Y-39039819D02*
X190609411Y-40039819D01*
X190276077Y-40039819D02*
X190276077Y-39039819D01*
X190276077Y-39039819D02*
X189895125Y-39039819D01*
X189895125Y-39039819D02*
X189799887Y-39087438D01*
X189799887Y-39087438D02*
X189752268Y-39135057D01*
X189752268Y-39135057D02*
X189704649Y-39230295D01*
X189704649Y-39230295D02*
X189704649Y-39373152D01*
X189704649Y-39373152D02*
X189752268Y-39468390D01*
X189752268Y-39468390D02*
X189799887Y-39516009D01*
X189799887Y-39516009D02*
X189895125Y-39563628D01*
X189895125Y-39563628D02*
X190276077Y-39563628D01*
D10*
X205828766Y-55186441D02*
X205828766Y-53662632D01*
X205066861Y-54424536D02*
X206590671Y-54424536D01*
X200792266Y-55218426D02*
X200792266Y-53694617D01*
D11*
X227509887Y-69916009D02*
X227367030Y-69963628D01*
X227367030Y-69963628D02*
X227319411Y-70011247D01*
X227319411Y-70011247D02*
X227271792Y-70106485D01*
X227271792Y-70106485D02*
X227271792Y-70249342D01*
X227271792Y-70249342D02*
X227319411Y-70344580D01*
X227319411Y-70344580D02*
X227367030Y-70392200D01*
X227367030Y-70392200D02*
X227462268Y-70439819D01*
X227462268Y-70439819D02*
X227843220Y-70439819D01*
X227843220Y-70439819D02*
X227843220Y-69439819D01*
X227843220Y-69439819D02*
X227509887Y-69439819D01*
X227509887Y-69439819D02*
X227414649Y-69487438D01*
X227414649Y-69487438D02*
X227367030Y-69535057D01*
X227367030Y-69535057D02*
X227319411Y-69630295D01*
X227319411Y-69630295D02*
X227319411Y-69725533D01*
X227319411Y-69725533D02*
X227367030Y-69820771D01*
X227367030Y-69820771D02*
X227414649Y-69868390D01*
X227414649Y-69868390D02*
X227509887Y-69916009D01*
X227509887Y-69916009D02*
X227843220Y-69916009D01*
X226652744Y-69439819D02*
X226462268Y-69439819D01*
X226462268Y-69439819D02*
X226367030Y-69487438D01*
X226367030Y-69487438D02*
X226271792Y-69582676D01*
X226271792Y-69582676D02*
X226224173Y-69773152D01*
X226224173Y-69773152D02*
X226224173Y-70106485D01*
X226224173Y-70106485D02*
X226271792Y-70296961D01*
X226271792Y-70296961D02*
X226367030Y-70392200D01*
X226367030Y-70392200D02*
X226462268Y-70439819D01*
X226462268Y-70439819D02*
X226652744Y-70439819D01*
X226652744Y-70439819D02*
X226747982Y-70392200D01*
X226747982Y-70392200D02*
X226843220Y-70296961D01*
X226843220Y-70296961D02*
X226890839Y-70106485D01*
X226890839Y-70106485D02*
X226890839Y-69773152D01*
X226890839Y-69773152D02*
X226843220Y-69582676D01*
X226843220Y-69582676D02*
X226747982Y-69487438D01*
X226747982Y-69487438D02*
X226652744Y-69439819D01*
X225605125Y-69439819D02*
X225414649Y-69439819D01*
X225414649Y-69439819D02*
X225319411Y-69487438D01*
X225319411Y-69487438D02*
X225224173Y-69582676D01*
X225224173Y-69582676D02*
X225176554Y-69773152D01*
X225176554Y-69773152D02*
X225176554Y-70106485D01*
X225176554Y-70106485D02*
X225224173Y-70296961D01*
X225224173Y-70296961D02*
X225319411Y-70392200D01*
X225319411Y-70392200D02*
X225414649Y-70439819D01*
X225414649Y-70439819D02*
X225605125Y-70439819D01*
X225605125Y-70439819D02*
X225700363Y-70392200D01*
X225700363Y-70392200D02*
X225795601Y-70296961D01*
X225795601Y-70296961D02*
X225843220Y-70106485D01*
X225843220Y-70106485D02*
X225843220Y-69773152D01*
X225843220Y-69773152D02*
X225795601Y-69582676D01*
X225795601Y-69582676D02*
X225700363Y-69487438D01*
X225700363Y-69487438D02*
X225605125Y-69439819D01*
X224890839Y-69439819D02*
X224319411Y-69439819D01*
X224605125Y-70439819D02*
X224605125Y-69439819D01*
X102651792Y-70409819D02*
X102985125Y-69933628D01*
X103223220Y-70409819D02*
X103223220Y-69409819D01*
X103223220Y-69409819D02*
X102842268Y-69409819D01*
X102842268Y-69409819D02*
X102747030Y-69457438D01*
X102747030Y-69457438D02*
X102699411Y-69505057D01*
X102699411Y-69505057D02*
X102651792Y-69600295D01*
X102651792Y-69600295D02*
X102651792Y-69743152D01*
X102651792Y-69743152D02*
X102699411Y-69838390D01*
X102699411Y-69838390D02*
X102747030Y-69886009D01*
X102747030Y-69886009D02*
X102842268Y-69933628D01*
X102842268Y-69933628D02*
X103223220Y-69933628D01*
X102223220Y-69886009D02*
X101889887Y-69886009D01*
X101747030Y-70409819D02*
X102223220Y-70409819D01*
X102223220Y-70409819D02*
X102223220Y-69409819D01*
X102223220Y-69409819D02*
X101747030Y-69409819D01*
X101366077Y-70362200D02*
X101223220Y-70409819D01*
X101223220Y-70409819D02*
X100985125Y-70409819D01*
X100985125Y-70409819D02*
X100889887Y-70362200D01*
X100889887Y-70362200D02*
X100842268Y-70314580D01*
X100842268Y-70314580D02*
X100794649Y-70219342D01*
X100794649Y-70219342D02*
X100794649Y-70124104D01*
X100794649Y-70124104D02*
X100842268Y-70028866D01*
X100842268Y-70028866D02*
X100889887Y-69981247D01*
X100889887Y-69981247D02*
X100985125Y-69933628D01*
X100985125Y-69933628D02*
X101175601Y-69886009D01*
X101175601Y-69886009D02*
X101270839Y-69838390D01*
X101270839Y-69838390D02*
X101318458Y-69790771D01*
X101318458Y-69790771D02*
X101366077Y-69695533D01*
X101366077Y-69695533D02*
X101366077Y-69600295D01*
X101366077Y-69600295D02*
X101318458Y-69505057D01*
X101318458Y-69505057D02*
X101270839Y-69457438D01*
X101270839Y-69457438D02*
X101175601Y-69409819D01*
X101175601Y-69409819D02*
X100937506Y-69409819D01*
X100937506Y-69409819D02*
X100794649Y-69457438D01*
X100366077Y-69886009D02*
X100032744Y-69886009D01*
X99889887Y-70409819D02*
X100366077Y-70409819D01*
X100366077Y-70409819D02*
X100366077Y-69409819D01*
X100366077Y-69409819D02*
X99889887Y-69409819D01*
X99604172Y-69409819D02*
X99032744Y-69409819D01*
X99318458Y-70409819D02*
X99318458Y-69409819D01*
X223388094Y-79994819D02*
X222816666Y-79994819D01*
X223102380Y-80994819D02*
X223102380Y-79994819D01*
X222483332Y-80994819D02*
X222483332Y-79994819D01*
X222483332Y-79994819D02*
X222102380Y-79994819D01*
X222102380Y-79994819D02*
X222007142Y-80042438D01*
X222007142Y-80042438D02*
X221959523Y-80090057D01*
X221959523Y-80090057D02*
X221911904Y-80185295D01*
X221911904Y-80185295D02*
X221911904Y-80328152D01*
X221911904Y-80328152D02*
X221959523Y-80423390D01*
X221959523Y-80423390D02*
X222007142Y-80471009D01*
X222007142Y-80471009D02*
X222102380Y-80518628D01*
X222102380Y-80518628D02*
X222483332Y-80518628D01*
X220959523Y-80994819D02*
X221530951Y-80994819D01*
X221245237Y-80994819D02*
X221245237Y-79994819D01*
X221245237Y-79994819D02*
X221340475Y-80137676D01*
X221340475Y-80137676D02*
X221435713Y-80232914D01*
X221435713Y-80232914D02*
X221530951Y-80280533D01*
X220340475Y-79994819D02*
X220245237Y-79994819D01*
X220245237Y-79994819D02*
X220149999Y-80042438D01*
X220149999Y-80042438D02*
X220102380Y-80090057D01*
X220102380Y-80090057D02*
X220054761Y-80185295D01*
X220054761Y-80185295D02*
X220007142Y-80375771D01*
X220007142Y-80375771D02*
X220007142Y-80613866D01*
X220007142Y-80613866D02*
X220054761Y-80804342D01*
X220054761Y-80804342D02*
X220102380Y-80899580D01*
X220102380Y-80899580D02*
X220149999Y-80947200D01*
X220149999Y-80947200D02*
X220245237Y-80994819D01*
X220245237Y-80994819D02*
X220340475Y-80994819D01*
X220340475Y-80994819D02*
X220435713Y-80947200D01*
X220435713Y-80947200D02*
X220483332Y-80899580D01*
X220483332Y-80899580D02*
X220530951Y-80804342D01*
X220530951Y-80804342D02*
X220578570Y-80613866D01*
X220578570Y-80613866D02*
X220578570Y-80375771D01*
X220578570Y-80375771D02*
X220530951Y-80185295D01*
X220530951Y-80185295D02*
X220483332Y-80090057D01*
X220483332Y-80090057D02*
X220435713Y-80042438D01*
X220435713Y-80042438D02*
X220340475Y-79994819D01*
X145874819Y-63998095D02*
X145874819Y-64569523D01*
X146874819Y-64283809D02*
X145874819Y-64283809D01*
X146874819Y-64902857D02*
X145874819Y-64902857D01*
X145874819Y-64902857D02*
X145874819Y-65283809D01*
X145874819Y-65283809D02*
X145922438Y-65379047D01*
X145922438Y-65379047D02*
X145970057Y-65426666D01*
X145970057Y-65426666D02*
X146065295Y-65474285D01*
X146065295Y-65474285D02*
X146208152Y-65474285D01*
X146208152Y-65474285D02*
X146303390Y-65426666D01*
X146303390Y-65426666D02*
X146351009Y-65379047D01*
X146351009Y-65379047D02*
X146398628Y-65283809D01*
X146398628Y-65283809D02*
X146398628Y-64902857D01*
X145874819Y-66379047D02*
X145874819Y-65902857D01*
X145874819Y-65902857D02*
X146351009Y-65855238D01*
X146351009Y-65855238D02*
X146303390Y-65902857D01*
X146303390Y-65902857D02*
X146255771Y-65998095D01*
X146255771Y-65998095D02*
X146255771Y-66236190D01*
X146255771Y-66236190D02*
X146303390Y-66331428D01*
X146303390Y-66331428D02*
X146351009Y-66379047D01*
X146351009Y-66379047D02*
X146446247Y-66426666D01*
X146446247Y-66426666D02*
X146684342Y-66426666D01*
X146684342Y-66426666D02*
X146779580Y-66379047D01*
X146779580Y-66379047D02*
X146827200Y-66331428D01*
X146827200Y-66331428D02*
X146874819Y-66236190D01*
X146874819Y-66236190D02*
X146874819Y-65998095D01*
X146874819Y-65998095D02*
X146827200Y-65902857D01*
X146827200Y-65902857D02*
X146779580Y-65855238D01*
X179311904Y-48734819D02*
X178740476Y-48734819D01*
X179026190Y-49734819D02*
X179026190Y-48734819D01*
X178407142Y-49734819D02*
X178407142Y-48734819D01*
X178407142Y-48734819D02*
X178026190Y-48734819D01*
X178026190Y-48734819D02*
X177930952Y-48782438D01*
X177930952Y-48782438D02*
X177883333Y-48830057D01*
X177883333Y-48830057D02*
X177835714Y-48925295D01*
X177835714Y-48925295D02*
X177835714Y-49068152D01*
X177835714Y-49068152D02*
X177883333Y-49163390D01*
X177883333Y-49163390D02*
X177930952Y-49211009D01*
X177930952Y-49211009D02*
X178026190Y-49258628D01*
X178026190Y-49258628D02*
X178407142Y-49258628D01*
X177502380Y-48734819D02*
X176835714Y-48734819D01*
X176835714Y-48734819D02*
X177264285Y-49734819D01*
X181351904Y-50614259D02*
X181447142Y-50566640D01*
X181447142Y-50566640D02*
X181589999Y-50566640D01*
X181589999Y-50566640D02*
X181732856Y-50614259D01*
X181732856Y-50614259D02*
X181828094Y-50709497D01*
X181828094Y-50709497D02*
X181875713Y-50804735D01*
X181875713Y-50804735D02*
X181923332Y-50995211D01*
X181923332Y-50995211D02*
X181923332Y-51138068D01*
X181923332Y-51138068D02*
X181875713Y-51328544D01*
X181875713Y-51328544D02*
X181828094Y-51423782D01*
X181828094Y-51423782D02*
X181732856Y-51519021D01*
X181732856Y-51519021D02*
X181589999Y-51566640D01*
X181589999Y-51566640D02*
X181494761Y-51566640D01*
X181494761Y-51566640D02*
X181351904Y-51519021D01*
X181351904Y-51519021D02*
X181304285Y-51471401D01*
X181304285Y-51471401D02*
X181304285Y-51138068D01*
X181304285Y-51138068D02*
X181494761Y-51138068D01*
X180875713Y-51566640D02*
X180875713Y-50566640D01*
X180875713Y-50566640D02*
X180304285Y-51566640D01*
X180304285Y-51566640D02*
X180304285Y-50566640D01*
X179828094Y-51566640D02*
X179828094Y-50566640D01*
X179828094Y-50566640D02*
X179589999Y-50566640D01*
X179589999Y-50566640D02*
X179447142Y-50614259D01*
X179447142Y-50614259D02*
X179351904Y-50709497D01*
X179351904Y-50709497D02*
X179304285Y-50804735D01*
X179304285Y-50804735D02*
X179256666Y-50995211D01*
X179256666Y-50995211D02*
X179256666Y-51138068D01*
X179256666Y-51138068D02*
X179304285Y-51328544D01*
X179304285Y-51328544D02*
X179351904Y-51423782D01*
X179351904Y-51423782D02*
X179447142Y-51519021D01*
X179447142Y-51519021D02*
X179589999Y-51566640D01*
X179589999Y-51566640D02*
X179828094Y-51566640D01*
X158914819Y-62418095D02*
X158914819Y-62989523D01*
X159914819Y-62703809D02*
X158914819Y-62703809D01*
X159914819Y-63322857D02*
X158914819Y-63322857D01*
X158914819Y-63322857D02*
X158914819Y-63703809D01*
X158914819Y-63703809D02*
X158962438Y-63799047D01*
X158962438Y-63799047D02*
X159010057Y-63846666D01*
X159010057Y-63846666D02*
X159105295Y-63894285D01*
X159105295Y-63894285D02*
X159248152Y-63894285D01*
X159248152Y-63894285D02*
X159343390Y-63846666D01*
X159343390Y-63846666D02*
X159391009Y-63799047D01*
X159391009Y-63799047D02*
X159438628Y-63703809D01*
X159438628Y-63703809D02*
X159438628Y-63322857D01*
X158914819Y-64227619D02*
X158914819Y-64846666D01*
X158914819Y-64846666D02*
X159295771Y-64513333D01*
X159295771Y-64513333D02*
X159295771Y-64656190D01*
X159295771Y-64656190D02*
X159343390Y-64751428D01*
X159343390Y-64751428D02*
X159391009Y-64799047D01*
X159391009Y-64799047D02*
X159486247Y-64846666D01*
X159486247Y-64846666D02*
X159724342Y-64846666D01*
X159724342Y-64846666D02*
X159819580Y-64799047D01*
X159819580Y-64799047D02*
X159867200Y-64751428D01*
X159867200Y-64751428D02*
X159914819Y-64656190D01*
X159914819Y-64656190D02*
X159914819Y-64370476D01*
X159914819Y-64370476D02*
X159867200Y-64275238D01*
X159867200Y-64275238D02*
X159819580Y-64227619D01*
X223398094Y-73334819D02*
X222826666Y-73334819D01*
X223112380Y-74334819D02*
X223112380Y-73334819D01*
X222493332Y-74334819D02*
X222493332Y-73334819D01*
X222493332Y-73334819D02*
X222112380Y-73334819D01*
X222112380Y-73334819D02*
X222017142Y-73382438D01*
X222017142Y-73382438D02*
X221969523Y-73430057D01*
X221969523Y-73430057D02*
X221921904Y-73525295D01*
X221921904Y-73525295D02*
X221921904Y-73668152D01*
X221921904Y-73668152D02*
X221969523Y-73763390D01*
X221969523Y-73763390D02*
X222017142Y-73811009D01*
X222017142Y-73811009D02*
X222112380Y-73858628D01*
X222112380Y-73858628D02*
X222493332Y-73858628D01*
X220969523Y-74334819D02*
X221540951Y-74334819D01*
X221255237Y-74334819D02*
X221255237Y-73334819D01*
X221255237Y-73334819D02*
X221350475Y-73477676D01*
X221350475Y-73477676D02*
X221445713Y-73572914D01*
X221445713Y-73572914D02*
X221540951Y-73620533D01*
X220017142Y-74334819D02*
X220588570Y-74334819D01*
X220302856Y-74334819D02*
X220302856Y-73334819D01*
X220302856Y-73334819D02*
X220398094Y-73477676D01*
X220398094Y-73477676D02*
X220493332Y-73572914D01*
X220493332Y-73572914D02*
X220588570Y-73620533D01*
X227273844Y-100470319D02*
X226702416Y-100470319D01*
X226988130Y-101470319D02*
X226988130Y-100470319D01*
X226369082Y-101470319D02*
X226369082Y-100470319D01*
X226369082Y-100470319D02*
X225988130Y-100470319D01*
X225988130Y-100470319D02*
X225892892Y-100517938D01*
X225892892Y-100517938D02*
X225845273Y-100565557D01*
X225845273Y-100565557D02*
X225797654Y-100660795D01*
X225797654Y-100660795D02*
X225797654Y-100803652D01*
X225797654Y-100803652D02*
X225845273Y-100898890D01*
X225845273Y-100898890D02*
X225892892Y-100946509D01*
X225892892Y-100946509D02*
X225988130Y-100994128D01*
X225988130Y-100994128D02*
X226369082Y-100994128D01*
X224845273Y-101470319D02*
X225416701Y-101470319D01*
X225130987Y-101470319D02*
X225130987Y-100470319D01*
X225130987Y-100470319D02*
X225226225Y-100613176D01*
X225226225Y-100613176D02*
X225321463Y-100708414D01*
X225321463Y-100708414D02*
X225416701Y-100756033D01*
X224464320Y-100565557D02*
X224416701Y-100517938D01*
X224416701Y-100517938D02*
X224321463Y-100470319D01*
X224321463Y-100470319D02*
X224083368Y-100470319D01*
X224083368Y-100470319D02*
X223988130Y-100517938D01*
X223988130Y-100517938D02*
X223940511Y-100565557D01*
X223940511Y-100565557D02*
X223892892Y-100660795D01*
X223892892Y-100660795D02*
X223892892Y-100756033D01*
X223892892Y-100756033D02*
X223940511Y-100898890D01*
X223940511Y-100898890D02*
X224511939Y-101470319D01*
X224511939Y-101470319D02*
X223892892Y-101470319D01*
X227618130Y-104170319D02*
X227284797Y-105170319D01*
X227284797Y-105170319D02*
X226951464Y-104170319D01*
X226189559Y-105122700D02*
X226284797Y-105170319D01*
X226284797Y-105170319D02*
X226475273Y-105170319D01*
X226475273Y-105170319D02*
X226570511Y-105122700D01*
X226570511Y-105122700D02*
X226618130Y-105075080D01*
X226618130Y-105075080D02*
X226665749Y-104979842D01*
X226665749Y-104979842D02*
X226665749Y-104694128D01*
X226665749Y-104694128D02*
X226618130Y-104598890D01*
X226618130Y-104598890D02*
X226570511Y-104551271D01*
X226570511Y-104551271D02*
X226475273Y-104503652D01*
X226475273Y-104503652D02*
X226284797Y-104503652D01*
X226284797Y-104503652D02*
X226189559Y-104551271D01*
X225618130Y-105170319D02*
X225713368Y-105122700D01*
X225713368Y-105122700D02*
X225760987Y-105075080D01*
X225760987Y-105075080D02*
X225808606Y-104979842D01*
X225808606Y-104979842D02*
X225808606Y-104694128D01*
X225808606Y-104694128D02*
X225760987Y-104598890D01*
X225760987Y-104598890D02*
X225713368Y-104551271D01*
X225713368Y-104551271D02*
X225618130Y-104503652D01*
X225618130Y-104503652D02*
X225475273Y-104503652D01*
X225475273Y-104503652D02*
X225380035Y-104551271D01*
X225380035Y-104551271D02*
X225332416Y-104598890D01*
X225332416Y-104598890D02*
X225284797Y-104694128D01*
X225284797Y-104694128D02*
X225284797Y-104979842D01*
X225284797Y-104979842D02*
X225332416Y-105075080D01*
X225332416Y-105075080D02*
X225380035Y-105122700D01*
X225380035Y-105122700D02*
X225475273Y-105170319D01*
X225475273Y-105170319D02*
X225618130Y-105170319D01*
X224856225Y-105170319D02*
X224856225Y-104503652D01*
X224856225Y-104694128D02*
X224808606Y-104598890D01*
X224808606Y-104598890D02*
X224760987Y-104551271D01*
X224760987Y-104551271D02*
X224665749Y-104503652D01*
X224665749Y-104503652D02*
X224570511Y-104503652D01*
X223856225Y-105122700D02*
X223951463Y-105170319D01*
X223951463Y-105170319D02*
X224141939Y-105170319D01*
X224141939Y-105170319D02*
X224237177Y-105122700D01*
X224237177Y-105122700D02*
X224284796Y-105027461D01*
X224284796Y-105027461D02*
X224284796Y-104646509D01*
X224284796Y-104646509D02*
X224237177Y-104551271D01*
X224237177Y-104551271D02*
X224141939Y-104503652D01*
X224141939Y-104503652D02*
X223951463Y-104503652D01*
X223951463Y-104503652D02*
X223856225Y-104551271D01*
X223856225Y-104551271D02*
X223808606Y-104646509D01*
X223808606Y-104646509D02*
X223808606Y-104741747D01*
X223808606Y-104741747D02*
X224284796Y-104836985D01*
X210688094Y-124854819D02*
X210116666Y-124854819D01*
X210402380Y-125854819D02*
X210402380Y-124854819D01*
X209783332Y-125854819D02*
X209783332Y-124854819D01*
X209783332Y-124854819D02*
X209402380Y-124854819D01*
X209402380Y-124854819D02*
X209307142Y-124902438D01*
X209307142Y-124902438D02*
X209259523Y-124950057D01*
X209259523Y-124950057D02*
X209211904Y-125045295D01*
X209211904Y-125045295D02*
X209211904Y-125188152D01*
X209211904Y-125188152D02*
X209259523Y-125283390D01*
X209259523Y-125283390D02*
X209307142Y-125331009D01*
X209307142Y-125331009D02*
X209402380Y-125378628D01*
X209402380Y-125378628D02*
X209783332Y-125378628D01*
X208259523Y-125854819D02*
X208830951Y-125854819D01*
X208545237Y-125854819D02*
X208545237Y-124854819D01*
X208545237Y-124854819D02*
X208640475Y-124997676D01*
X208640475Y-124997676D02*
X208735713Y-125092914D01*
X208735713Y-125092914D02*
X208830951Y-125140533D01*
X207402380Y-124854819D02*
X207592856Y-124854819D01*
X207592856Y-124854819D02*
X207688094Y-124902438D01*
X207688094Y-124902438D02*
X207735713Y-124950057D01*
X207735713Y-124950057D02*
X207830951Y-125092914D01*
X207830951Y-125092914D02*
X207878570Y-125283390D01*
X207878570Y-125283390D02*
X207878570Y-125664342D01*
X207878570Y-125664342D02*
X207830951Y-125759580D01*
X207830951Y-125759580D02*
X207783332Y-125807200D01*
X207783332Y-125807200D02*
X207688094Y-125854819D01*
X207688094Y-125854819D02*
X207497618Y-125854819D01*
X207497618Y-125854819D02*
X207402380Y-125807200D01*
X207402380Y-125807200D02*
X207354761Y-125759580D01*
X207354761Y-125759580D02*
X207307142Y-125664342D01*
X207307142Y-125664342D02*
X207307142Y-125426247D01*
X207307142Y-125426247D02*
X207354761Y-125331009D01*
X207354761Y-125331009D02*
X207402380Y-125283390D01*
X207402380Y-125283390D02*
X207497618Y-125235771D01*
X207497618Y-125235771D02*
X207688094Y-125235771D01*
X207688094Y-125235771D02*
X207783332Y-125283390D01*
X207783332Y-125283390D02*
X207830951Y-125331009D01*
X207830951Y-125331009D02*
X207878570Y-125426247D01*
X164464819Y-62138095D02*
X164464819Y-62709523D01*
X165464819Y-62423809D02*
X164464819Y-62423809D01*
X165464819Y-63042857D02*
X164464819Y-63042857D01*
X164464819Y-63042857D02*
X164464819Y-63423809D01*
X164464819Y-63423809D02*
X164512438Y-63519047D01*
X164512438Y-63519047D02*
X164560057Y-63566666D01*
X164560057Y-63566666D02*
X164655295Y-63614285D01*
X164655295Y-63614285D02*
X164798152Y-63614285D01*
X164798152Y-63614285D02*
X164893390Y-63566666D01*
X164893390Y-63566666D02*
X164941009Y-63519047D01*
X164941009Y-63519047D02*
X164988628Y-63423809D01*
X164988628Y-63423809D02*
X164988628Y-63042857D01*
X164798152Y-64471428D02*
X165464819Y-64471428D01*
X164417200Y-64233333D02*
X165131485Y-63995238D01*
X165131485Y-63995238D02*
X165131485Y-64614285D01*
X214038094Y-121174819D02*
X213466666Y-121174819D01*
X213752380Y-122174819D02*
X213752380Y-121174819D01*
X213133332Y-122174819D02*
X213133332Y-121174819D01*
X213133332Y-121174819D02*
X212752380Y-121174819D01*
X212752380Y-121174819D02*
X212657142Y-121222438D01*
X212657142Y-121222438D02*
X212609523Y-121270057D01*
X212609523Y-121270057D02*
X212561904Y-121365295D01*
X212561904Y-121365295D02*
X212561904Y-121508152D01*
X212561904Y-121508152D02*
X212609523Y-121603390D01*
X212609523Y-121603390D02*
X212657142Y-121651009D01*
X212657142Y-121651009D02*
X212752380Y-121698628D01*
X212752380Y-121698628D02*
X213133332Y-121698628D01*
X211609523Y-122174819D02*
X212180951Y-122174819D01*
X211895237Y-122174819D02*
X211895237Y-121174819D01*
X211895237Y-121174819D02*
X211990475Y-121317676D01*
X211990475Y-121317676D02*
X212085713Y-121412914D01*
X212085713Y-121412914D02*
X212180951Y-121460533D01*
X211276189Y-121174819D02*
X210609523Y-121174819D01*
X210609523Y-121174819D02*
X211038094Y-122174819D01*
X140094819Y-64268095D02*
X140094819Y-64839523D01*
X141094819Y-64553809D02*
X140094819Y-64553809D01*
X141094819Y-65172857D02*
X140094819Y-65172857D01*
X140094819Y-65172857D02*
X140094819Y-65553809D01*
X140094819Y-65553809D02*
X140142438Y-65649047D01*
X140142438Y-65649047D02*
X140190057Y-65696666D01*
X140190057Y-65696666D02*
X140285295Y-65744285D01*
X140285295Y-65744285D02*
X140428152Y-65744285D01*
X140428152Y-65744285D02*
X140523390Y-65696666D01*
X140523390Y-65696666D02*
X140571009Y-65649047D01*
X140571009Y-65649047D02*
X140618628Y-65553809D01*
X140618628Y-65553809D02*
X140618628Y-65172857D01*
X140094819Y-66601428D02*
X140094819Y-66410952D01*
X140094819Y-66410952D02*
X140142438Y-66315714D01*
X140142438Y-66315714D02*
X140190057Y-66268095D01*
X140190057Y-66268095D02*
X140332914Y-66172857D01*
X140332914Y-66172857D02*
X140523390Y-66125238D01*
X140523390Y-66125238D02*
X140904342Y-66125238D01*
X140904342Y-66125238D02*
X140999580Y-66172857D01*
X140999580Y-66172857D02*
X141047200Y-66220476D01*
X141047200Y-66220476D02*
X141094819Y-66315714D01*
X141094819Y-66315714D02*
X141094819Y-66506190D01*
X141094819Y-66506190D02*
X141047200Y-66601428D01*
X141047200Y-66601428D02*
X140999580Y-66649047D01*
X140999580Y-66649047D02*
X140904342Y-66696666D01*
X140904342Y-66696666D02*
X140666247Y-66696666D01*
X140666247Y-66696666D02*
X140571009Y-66649047D01*
X140571009Y-66649047D02*
X140523390Y-66601428D01*
X140523390Y-66601428D02*
X140475771Y-66506190D01*
X140475771Y-66506190D02*
X140475771Y-66315714D01*
X140475771Y-66315714D02*
X140523390Y-66220476D01*
X140523390Y-66220476D02*
X140571009Y-66172857D01*
X140571009Y-66172857D02*
X140666247Y-66125238D01*
X227368094Y-91464819D02*
X226796666Y-91464819D01*
X227082380Y-92464819D02*
X227082380Y-91464819D01*
X226463332Y-92464819D02*
X226463332Y-91464819D01*
X226463332Y-91464819D02*
X226082380Y-91464819D01*
X226082380Y-91464819D02*
X225987142Y-91512438D01*
X225987142Y-91512438D02*
X225939523Y-91560057D01*
X225939523Y-91560057D02*
X225891904Y-91655295D01*
X225891904Y-91655295D02*
X225891904Y-91798152D01*
X225891904Y-91798152D02*
X225939523Y-91893390D01*
X225939523Y-91893390D02*
X225987142Y-91941009D01*
X225987142Y-91941009D02*
X226082380Y-91988628D01*
X226082380Y-91988628D02*
X226463332Y-91988628D01*
X224939523Y-92464819D02*
X225510951Y-92464819D01*
X225225237Y-92464819D02*
X225225237Y-91464819D01*
X225225237Y-91464819D02*
X225320475Y-91607676D01*
X225320475Y-91607676D02*
X225415713Y-91702914D01*
X225415713Y-91702914D02*
X225510951Y-91750533D01*
X224606189Y-91464819D02*
X223987142Y-91464819D01*
X223987142Y-91464819D02*
X224320475Y-91845771D01*
X224320475Y-91845771D02*
X224177618Y-91845771D01*
X224177618Y-91845771D02*
X224082380Y-91893390D01*
X224082380Y-91893390D02*
X224034761Y-91941009D01*
X224034761Y-91941009D02*
X223987142Y-92036247D01*
X223987142Y-92036247D02*
X223987142Y-92274342D01*
X223987142Y-92274342D02*
X224034761Y-92369580D01*
X224034761Y-92369580D02*
X224082380Y-92417200D01*
X224082380Y-92417200D02*
X224177618Y-92464819D01*
X224177618Y-92464819D02*
X224463332Y-92464819D01*
X224463332Y-92464819D02*
X224558570Y-92417200D01*
X224558570Y-92417200D02*
X224606189Y-92369580D01*
X223151904Y-93392438D02*
X223247142Y-93344819D01*
X223247142Y-93344819D02*
X223389999Y-93344819D01*
X223389999Y-93344819D02*
X223532856Y-93392438D01*
X223532856Y-93392438D02*
X223628094Y-93487676D01*
X223628094Y-93487676D02*
X223675713Y-93582914D01*
X223675713Y-93582914D02*
X223723332Y-93773390D01*
X223723332Y-93773390D02*
X223723332Y-93916247D01*
X223723332Y-93916247D02*
X223675713Y-94106723D01*
X223675713Y-94106723D02*
X223628094Y-94201961D01*
X223628094Y-94201961D02*
X223532856Y-94297200D01*
X223532856Y-94297200D02*
X223389999Y-94344819D01*
X223389999Y-94344819D02*
X223294761Y-94344819D01*
X223294761Y-94344819D02*
X223151904Y-94297200D01*
X223151904Y-94297200D02*
X223104285Y-94249580D01*
X223104285Y-94249580D02*
X223104285Y-93916247D01*
X223104285Y-93916247D02*
X223294761Y-93916247D01*
X222675713Y-94344819D02*
X222675713Y-93344819D01*
X222675713Y-93344819D02*
X222104285Y-94344819D01*
X222104285Y-94344819D02*
X222104285Y-93344819D01*
X221628094Y-94344819D02*
X221628094Y-93344819D01*
X221628094Y-93344819D02*
X221389999Y-93344819D01*
X221389999Y-93344819D02*
X221247142Y-93392438D01*
X221247142Y-93392438D02*
X221151904Y-93487676D01*
X221151904Y-93487676D02*
X221104285Y-93582914D01*
X221104285Y-93582914D02*
X221056666Y-93773390D01*
X221056666Y-93773390D02*
X221056666Y-93916247D01*
X221056666Y-93916247D02*
X221104285Y-94106723D01*
X221104285Y-94106723D02*
X221151904Y-94201961D01*
X221151904Y-94201961D02*
X221247142Y-94297200D01*
X221247142Y-94297200D02*
X221389999Y-94344819D01*
X221389999Y-94344819D02*
X221628094Y-94344819D01*
X219238094Y-123094819D02*
X218666666Y-123094819D01*
X218952380Y-124094819D02*
X218952380Y-123094819D01*
X218333332Y-124094819D02*
X218333332Y-123094819D01*
X218333332Y-123094819D02*
X217952380Y-123094819D01*
X217952380Y-123094819D02*
X217857142Y-123142438D01*
X217857142Y-123142438D02*
X217809523Y-123190057D01*
X217809523Y-123190057D02*
X217761904Y-123285295D01*
X217761904Y-123285295D02*
X217761904Y-123428152D01*
X217761904Y-123428152D02*
X217809523Y-123523390D01*
X217809523Y-123523390D02*
X217857142Y-123571009D01*
X217857142Y-123571009D02*
X217952380Y-123618628D01*
X217952380Y-123618628D02*
X218333332Y-123618628D01*
X216809523Y-124094819D02*
X217380951Y-124094819D01*
X217095237Y-124094819D02*
X217095237Y-123094819D01*
X217095237Y-123094819D02*
X217190475Y-123237676D01*
X217190475Y-123237676D02*
X217285713Y-123332914D01*
X217285713Y-123332914D02*
X217380951Y-123380533D01*
X216238094Y-123523390D02*
X216333332Y-123475771D01*
X216333332Y-123475771D02*
X216380951Y-123428152D01*
X216380951Y-123428152D02*
X216428570Y-123332914D01*
X216428570Y-123332914D02*
X216428570Y-123285295D01*
X216428570Y-123285295D02*
X216380951Y-123190057D01*
X216380951Y-123190057D02*
X216333332Y-123142438D01*
X216333332Y-123142438D02*
X216238094Y-123094819D01*
X216238094Y-123094819D02*
X216047618Y-123094819D01*
X216047618Y-123094819D02*
X215952380Y-123142438D01*
X215952380Y-123142438D02*
X215904761Y-123190057D01*
X215904761Y-123190057D02*
X215857142Y-123285295D01*
X215857142Y-123285295D02*
X215857142Y-123332914D01*
X215857142Y-123332914D02*
X215904761Y-123428152D01*
X215904761Y-123428152D02*
X215952380Y-123475771D01*
X215952380Y-123475771D02*
X216047618Y-123523390D01*
X216047618Y-123523390D02*
X216238094Y-123523390D01*
X216238094Y-123523390D02*
X216333332Y-123571009D01*
X216333332Y-123571009D02*
X216380951Y-123618628D01*
X216380951Y-123618628D02*
X216428570Y-123713866D01*
X216428570Y-123713866D02*
X216428570Y-123904342D01*
X216428570Y-123904342D02*
X216380951Y-123999580D01*
X216380951Y-123999580D02*
X216333332Y-124047200D01*
X216333332Y-124047200D02*
X216238094Y-124094819D01*
X216238094Y-124094819D02*
X216047618Y-124094819D01*
X216047618Y-124094819D02*
X215952380Y-124047200D01*
X215952380Y-124047200D02*
X215904761Y-123999580D01*
X215904761Y-123999580D02*
X215857142Y-123904342D01*
X215857142Y-123904342D02*
X215857142Y-123713866D01*
X215857142Y-123713866D02*
X215904761Y-123618628D01*
X215904761Y-123618628D02*
X215952380Y-123571009D01*
X215952380Y-123571009D02*
X216047618Y-123523390D01*
X133221904Y-68814819D02*
X132650476Y-68814819D01*
X132936190Y-69814819D02*
X132936190Y-68814819D01*
X132317142Y-69814819D02*
X132317142Y-68814819D01*
X132317142Y-68814819D02*
X131936190Y-68814819D01*
X131936190Y-68814819D02*
X131840952Y-68862438D01*
X131840952Y-68862438D02*
X131793333Y-68910057D01*
X131793333Y-68910057D02*
X131745714Y-69005295D01*
X131745714Y-69005295D02*
X131745714Y-69148152D01*
X131745714Y-69148152D02*
X131793333Y-69243390D01*
X131793333Y-69243390D02*
X131840952Y-69291009D01*
X131840952Y-69291009D02*
X131936190Y-69338628D01*
X131936190Y-69338628D02*
X132317142Y-69338628D01*
X130793333Y-69814819D02*
X131364761Y-69814819D01*
X131079047Y-69814819D02*
X131079047Y-68814819D01*
X131079047Y-68814819D02*
X131174285Y-68957676D01*
X131174285Y-68957676D02*
X131269523Y-69052914D01*
X131269523Y-69052914D02*
X131364761Y-69100533D01*
X135020476Y-70884819D02*
X135496666Y-70884819D01*
X135496666Y-70884819D02*
X135544285Y-71361009D01*
X135544285Y-71361009D02*
X135496666Y-71313390D01*
X135496666Y-71313390D02*
X135401428Y-71265771D01*
X135401428Y-71265771D02*
X135163333Y-71265771D01*
X135163333Y-71265771D02*
X135068095Y-71313390D01*
X135068095Y-71313390D02*
X135020476Y-71361009D01*
X135020476Y-71361009D02*
X134972857Y-71456247D01*
X134972857Y-71456247D02*
X134972857Y-71694342D01*
X134972857Y-71694342D02*
X135020476Y-71789580D01*
X135020476Y-71789580D02*
X135068095Y-71837200D01*
X135068095Y-71837200D02*
X135163333Y-71884819D01*
X135163333Y-71884819D02*
X135401428Y-71884819D01*
X135401428Y-71884819D02*
X135496666Y-71837200D01*
X135496666Y-71837200D02*
X135544285Y-71789580D01*
X134687142Y-70884819D02*
X134353809Y-71884819D01*
X134353809Y-71884819D02*
X134020476Y-70884819D01*
X143518094Y-125244819D02*
X142946666Y-125244819D01*
X143232380Y-126244819D02*
X143232380Y-125244819D01*
X142613332Y-126244819D02*
X142613332Y-125244819D01*
X142613332Y-125244819D02*
X142232380Y-125244819D01*
X142232380Y-125244819D02*
X142137142Y-125292438D01*
X142137142Y-125292438D02*
X142089523Y-125340057D01*
X142089523Y-125340057D02*
X142041904Y-125435295D01*
X142041904Y-125435295D02*
X142041904Y-125578152D01*
X142041904Y-125578152D02*
X142089523Y-125673390D01*
X142089523Y-125673390D02*
X142137142Y-125721009D01*
X142137142Y-125721009D02*
X142232380Y-125768628D01*
X142232380Y-125768628D02*
X142613332Y-125768628D01*
X141660951Y-125340057D02*
X141613332Y-125292438D01*
X141613332Y-125292438D02*
X141518094Y-125244819D01*
X141518094Y-125244819D02*
X141279999Y-125244819D01*
X141279999Y-125244819D02*
X141184761Y-125292438D01*
X141184761Y-125292438D02*
X141137142Y-125340057D01*
X141137142Y-125340057D02*
X141089523Y-125435295D01*
X141089523Y-125435295D02*
X141089523Y-125530533D01*
X141089523Y-125530533D02*
X141137142Y-125673390D01*
X141137142Y-125673390D02*
X141708570Y-126244819D01*
X141708570Y-126244819D02*
X141089523Y-126244819D01*
X140137142Y-126244819D02*
X140708570Y-126244819D01*
X140422856Y-126244819D02*
X140422856Y-125244819D01*
X140422856Y-125244819D02*
X140518094Y-125387676D01*
X140518094Y-125387676D02*
X140613332Y-125482914D01*
X140613332Y-125482914D02*
X140708570Y-125530533D01*
X134841904Y-65404819D02*
X134270476Y-65404819D01*
X134556190Y-66404819D02*
X134556190Y-65404819D01*
X133937142Y-66404819D02*
X133937142Y-65404819D01*
X133937142Y-65404819D02*
X133556190Y-65404819D01*
X133556190Y-65404819D02*
X133460952Y-65452438D01*
X133460952Y-65452438D02*
X133413333Y-65500057D01*
X133413333Y-65500057D02*
X133365714Y-65595295D01*
X133365714Y-65595295D02*
X133365714Y-65738152D01*
X133365714Y-65738152D02*
X133413333Y-65833390D01*
X133413333Y-65833390D02*
X133460952Y-65881009D01*
X133460952Y-65881009D02*
X133556190Y-65928628D01*
X133556190Y-65928628D02*
X133937142Y-65928628D01*
X132984761Y-65500057D02*
X132937142Y-65452438D01*
X132937142Y-65452438D02*
X132841904Y-65404819D01*
X132841904Y-65404819D02*
X132603809Y-65404819D01*
X132603809Y-65404819D02*
X132508571Y-65452438D01*
X132508571Y-65452438D02*
X132460952Y-65500057D01*
X132460952Y-65500057D02*
X132413333Y-65595295D01*
X132413333Y-65595295D02*
X132413333Y-65690533D01*
X132413333Y-65690533D02*
X132460952Y-65833390D01*
X132460952Y-65833390D02*
X133032380Y-66404819D01*
X133032380Y-66404819D02*
X132413333Y-66404819D01*
X220251904Y-71134819D02*
X219680476Y-71134819D01*
X219966190Y-72134819D02*
X219966190Y-71134819D01*
X219347142Y-72134819D02*
X219347142Y-71134819D01*
X219347142Y-71134819D02*
X218966190Y-71134819D01*
X218966190Y-71134819D02*
X218870952Y-71182438D01*
X218870952Y-71182438D02*
X218823333Y-71230057D01*
X218823333Y-71230057D02*
X218775714Y-71325295D01*
X218775714Y-71325295D02*
X218775714Y-71468152D01*
X218775714Y-71468152D02*
X218823333Y-71563390D01*
X218823333Y-71563390D02*
X218870952Y-71611009D01*
X218870952Y-71611009D02*
X218966190Y-71658628D01*
X218966190Y-71658628D02*
X219347142Y-71658628D01*
X218204285Y-71563390D02*
X218299523Y-71515771D01*
X218299523Y-71515771D02*
X218347142Y-71468152D01*
X218347142Y-71468152D02*
X218394761Y-71372914D01*
X218394761Y-71372914D02*
X218394761Y-71325295D01*
X218394761Y-71325295D02*
X218347142Y-71230057D01*
X218347142Y-71230057D02*
X218299523Y-71182438D01*
X218299523Y-71182438D02*
X218204285Y-71134819D01*
X218204285Y-71134819D02*
X218013809Y-71134819D01*
X218013809Y-71134819D02*
X217918571Y-71182438D01*
X217918571Y-71182438D02*
X217870952Y-71230057D01*
X217870952Y-71230057D02*
X217823333Y-71325295D01*
X217823333Y-71325295D02*
X217823333Y-71372914D01*
X217823333Y-71372914D02*
X217870952Y-71468152D01*
X217870952Y-71468152D02*
X217918571Y-71515771D01*
X217918571Y-71515771D02*
X218013809Y-71563390D01*
X218013809Y-71563390D02*
X218204285Y-71563390D01*
X218204285Y-71563390D02*
X218299523Y-71611009D01*
X218299523Y-71611009D02*
X218347142Y-71658628D01*
X218347142Y-71658628D02*
X218394761Y-71753866D01*
X218394761Y-71753866D02*
X218394761Y-71944342D01*
X218394761Y-71944342D02*
X218347142Y-72039580D01*
X218347142Y-72039580D02*
X218299523Y-72087200D01*
X218299523Y-72087200D02*
X218204285Y-72134819D01*
X218204285Y-72134819D02*
X218013809Y-72134819D01*
X218013809Y-72134819D02*
X217918571Y-72087200D01*
X217918571Y-72087200D02*
X217870952Y-72039580D01*
X217870952Y-72039580D02*
X217823333Y-71944342D01*
X217823333Y-71944342D02*
X217823333Y-71753866D01*
X217823333Y-71753866D02*
X217870952Y-71658628D01*
X217870952Y-71658628D02*
X217918571Y-71611009D01*
X217918571Y-71611009D02*
X218013809Y-71563390D01*
X203798094Y-123104819D02*
X203226666Y-123104819D01*
X203512380Y-124104819D02*
X203512380Y-123104819D01*
X202893332Y-124104819D02*
X202893332Y-123104819D01*
X202893332Y-123104819D02*
X202512380Y-123104819D01*
X202512380Y-123104819D02*
X202417142Y-123152438D01*
X202417142Y-123152438D02*
X202369523Y-123200057D01*
X202369523Y-123200057D02*
X202321904Y-123295295D01*
X202321904Y-123295295D02*
X202321904Y-123438152D01*
X202321904Y-123438152D02*
X202369523Y-123533390D01*
X202369523Y-123533390D02*
X202417142Y-123581009D01*
X202417142Y-123581009D02*
X202512380Y-123628628D01*
X202512380Y-123628628D02*
X202893332Y-123628628D01*
X201369523Y-124104819D02*
X201940951Y-124104819D01*
X201655237Y-124104819D02*
X201655237Y-123104819D01*
X201655237Y-123104819D02*
X201750475Y-123247676D01*
X201750475Y-123247676D02*
X201845713Y-123342914D01*
X201845713Y-123342914D02*
X201940951Y-123390533D01*
X200464761Y-123104819D02*
X200940951Y-123104819D01*
X200940951Y-123104819D02*
X200988570Y-123581009D01*
X200988570Y-123581009D02*
X200940951Y-123533390D01*
X200940951Y-123533390D02*
X200845713Y-123485771D01*
X200845713Y-123485771D02*
X200607618Y-123485771D01*
X200607618Y-123485771D02*
X200512380Y-123533390D01*
X200512380Y-123533390D02*
X200464761Y-123581009D01*
X200464761Y-123581009D02*
X200417142Y-123676247D01*
X200417142Y-123676247D02*
X200417142Y-123914342D01*
X200417142Y-123914342D02*
X200464761Y-124009580D01*
X200464761Y-124009580D02*
X200512380Y-124057200D01*
X200512380Y-124057200D02*
X200607618Y-124104819D01*
X200607618Y-124104819D02*
X200845713Y-124104819D01*
X200845713Y-124104819D02*
X200940951Y-124057200D01*
X200940951Y-124057200D02*
X200988570Y-124009580D01*
X113298094Y-128254819D02*
X112726666Y-128254819D01*
X113012380Y-129254819D02*
X113012380Y-128254819D01*
X112393332Y-129254819D02*
X112393332Y-128254819D01*
X112393332Y-128254819D02*
X112012380Y-128254819D01*
X112012380Y-128254819D02*
X111917142Y-128302438D01*
X111917142Y-128302438D02*
X111869523Y-128350057D01*
X111869523Y-128350057D02*
X111821904Y-128445295D01*
X111821904Y-128445295D02*
X111821904Y-128588152D01*
X111821904Y-128588152D02*
X111869523Y-128683390D01*
X111869523Y-128683390D02*
X111917142Y-128731009D01*
X111917142Y-128731009D02*
X112012380Y-128778628D01*
X112012380Y-128778628D02*
X112393332Y-128778628D01*
X110869523Y-129254819D02*
X111440951Y-129254819D01*
X111155237Y-129254819D02*
X111155237Y-128254819D01*
X111155237Y-128254819D02*
X111250475Y-128397676D01*
X111250475Y-128397676D02*
X111345713Y-128492914D01*
X111345713Y-128492914D02*
X111440951Y-128540533D01*
X110012380Y-128588152D02*
X110012380Y-129254819D01*
X110250475Y-128207200D02*
X110488570Y-128921485D01*
X110488570Y-128921485D02*
X109869523Y-128921485D01*
X127278094Y-124194819D02*
X126706666Y-124194819D01*
X126992380Y-125194819D02*
X126992380Y-124194819D01*
X126373332Y-125194819D02*
X126373332Y-124194819D01*
X126373332Y-124194819D02*
X125992380Y-124194819D01*
X125992380Y-124194819D02*
X125897142Y-124242438D01*
X125897142Y-124242438D02*
X125849523Y-124290057D01*
X125849523Y-124290057D02*
X125801904Y-124385295D01*
X125801904Y-124385295D02*
X125801904Y-124528152D01*
X125801904Y-124528152D02*
X125849523Y-124623390D01*
X125849523Y-124623390D02*
X125897142Y-124671009D01*
X125897142Y-124671009D02*
X125992380Y-124718628D01*
X125992380Y-124718628D02*
X126373332Y-124718628D01*
X125420951Y-124290057D02*
X125373332Y-124242438D01*
X125373332Y-124242438D02*
X125278094Y-124194819D01*
X125278094Y-124194819D02*
X125039999Y-124194819D01*
X125039999Y-124194819D02*
X124944761Y-124242438D01*
X124944761Y-124242438D02*
X124897142Y-124290057D01*
X124897142Y-124290057D02*
X124849523Y-124385295D01*
X124849523Y-124385295D02*
X124849523Y-124480533D01*
X124849523Y-124480533D02*
X124897142Y-124623390D01*
X124897142Y-124623390D02*
X125468570Y-125194819D01*
X125468570Y-125194819D02*
X124849523Y-125194819D01*
X124468570Y-124290057D02*
X124420951Y-124242438D01*
X124420951Y-124242438D02*
X124325713Y-124194819D01*
X124325713Y-124194819D02*
X124087618Y-124194819D01*
X124087618Y-124194819D02*
X123992380Y-124242438D01*
X123992380Y-124242438D02*
X123944761Y-124290057D01*
X123944761Y-124290057D02*
X123897142Y-124385295D01*
X123897142Y-124385295D02*
X123897142Y-124480533D01*
X123897142Y-124480533D02*
X123944761Y-124623390D01*
X123944761Y-124623390D02*
X124516189Y-125194819D01*
X124516189Y-125194819D02*
X123897142Y-125194819D01*
X173358094Y-120554819D02*
X172786666Y-120554819D01*
X173072380Y-121554819D02*
X173072380Y-120554819D01*
X172453332Y-121554819D02*
X172453332Y-120554819D01*
X172453332Y-120554819D02*
X172072380Y-120554819D01*
X172072380Y-120554819D02*
X171977142Y-120602438D01*
X171977142Y-120602438D02*
X171929523Y-120650057D01*
X171929523Y-120650057D02*
X171881904Y-120745295D01*
X171881904Y-120745295D02*
X171881904Y-120888152D01*
X171881904Y-120888152D02*
X171929523Y-120983390D01*
X171929523Y-120983390D02*
X171977142Y-121031009D01*
X171977142Y-121031009D02*
X172072380Y-121078628D01*
X172072380Y-121078628D02*
X172453332Y-121078628D01*
X171500951Y-120650057D02*
X171453332Y-120602438D01*
X171453332Y-120602438D02*
X171358094Y-120554819D01*
X171358094Y-120554819D02*
X171119999Y-120554819D01*
X171119999Y-120554819D02*
X171024761Y-120602438D01*
X171024761Y-120602438D02*
X170977142Y-120650057D01*
X170977142Y-120650057D02*
X170929523Y-120745295D01*
X170929523Y-120745295D02*
X170929523Y-120840533D01*
X170929523Y-120840533D02*
X170977142Y-120983390D01*
X170977142Y-120983390D02*
X171548570Y-121554819D01*
X171548570Y-121554819D02*
X170929523Y-121554819D01*
X170310475Y-120554819D02*
X170215237Y-120554819D01*
X170215237Y-120554819D02*
X170119999Y-120602438D01*
X170119999Y-120602438D02*
X170072380Y-120650057D01*
X170072380Y-120650057D02*
X170024761Y-120745295D01*
X170024761Y-120745295D02*
X169977142Y-120935771D01*
X169977142Y-120935771D02*
X169977142Y-121173866D01*
X169977142Y-121173866D02*
X170024761Y-121364342D01*
X170024761Y-121364342D02*
X170072380Y-121459580D01*
X170072380Y-121459580D02*
X170119999Y-121507200D01*
X170119999Y-121507200D02*
X170215237Y-121554819D01*
X170215237Y-121554819D02*
X170310475Y-121554819D01*
X170310475Y-121554819D02*
X170405713Y-121507200D01*
X170405713Y-121507200D02*
X170453332Y-121459580D01*
X170453332Y-121459580D02*
X170500951Y-121364342D01*
X170500951Y-121364342D02*
X170548570Y-121173866D01*
X170548570Y-121173866D02*
X170548570Y-120935771D01*
X170548570Y-120935771D02*
X170500951Y-120745295D01*
X170500951Y-120745295D02*
X170453332Y-120650057D01*
X170453332Y-120650057D02*
X170405713Y-120602438D01*
X170405713Y-120602438D02*
X170310475Y-120554819D01*
X214318094Y-127734819D02*
X213746666Y-127734819D01*
X214032380Y-128734819D02*
X214032380Y-127734819D01*
X213413332Y-128734819D02*
X213413332Y-127734819D01*
X213413332Y-127734819D02*
X213032380Y-127734819D01*
X213032380Y-127734819D02*
X212937142Y-127782438D01*
X212937142Y-127782438D02*
X212889523Y-127830057D01*
X212889523Y-127830057D02*
X212841904Y-127925295D01*
X212841904Y-127925295D02*
X212841904Y-128068152D01*
X212841904Y-128068152D02*
X212889523Y-128163390D01*
X212889523Y-128163390D02*
X212937142Y-128211009D01*
X212937142Y-128211009D02*
X213032380Y-128258628D01*
X213032380Y-128258628D02*
X213413332Y-128258628D01*
X211889523Y-128734819D02*
X212460951Y-128734819D01*
X212175237Y-128734819D02*
X212175237Y-127734819D01*
X212175237Y-127734819D02*
X212270475Y-127877676D01*
X212270475Y-127877676D02*
X212365713Y-127972914D01*
X212365713Y-127972914D02*
X212460951Y-128020533D01*
X211413332Y-128734819D02*
X211222856Y-128734819D01*
X211222856Y-128734819D02*
X211127618Y-128687200D01*
X211127618Y-128687200D02*
X211079999Y-128639580D01*
X211079999Y-128639580D02*
X210984761Y-128496723D01*
X210984761Y-128496723D02*
X210937142Y-128306247D01*
X210937142Y-128306247D02*
X210937142Y-127925295D01*
X210937142Y-127925295D02*
X210984761Y-127830057D01*
X210984761Y-127830057D02*
X211032380Y-127782438D01*
X211032380Y-127782438D02*
X211127618Y-127734819D01*
X211127618Y-127734819D02*
X211318094Y-127734819D01*
X211318094Y-127734819D02*
X211413332Y-127782438D01*
X211413332Y-127782438D02*
X211460951Y-127830057D01*
X211460951Y-127830057D02*
X211508570Y-127925295D01*
X211508570Y-127925295D02*
X211508570Y-128163390D01*
X211508570Y-128163390D02*
X211460951Y-128258628D01*
X211460951Y-128258628D02*
X211413332Y-128306247D01*
X211413332Y-128306247D02*
X211318094Y-128353866D01*
X211318094Y-128353866D02*
X211127618Y-128353866D01*
X211127618Y-128353866D02*
X211032380Y-128306247D01*
X211032380Y-128306247D02*
X210984761Y-128258628D01*
X210984761Y-128258628D02*
X210937142Y-128163390D01*
X219781904Y-76844819D02*
X219210476Y-76844819D01*
X219496190Y-77844819D02*
X219496190Y-76844819D01*
X218877142Y-77844819D02*
X218877142Y-76844819D01*
X218877142Y-76844819D02*
X218496190Y-76844819D01*
X218496190Y-76844819D02*
X218400952Y-76892438D01*
X218400952Y-76892438D02*
X218353333Y-76940057D01*
X218353333Y-76940057D02*
X218305714Y-77035295D01*
X218305714Y-77035295D02*
X218305714Y-77178152D01*
X218305714Y-77178152D02*
X218353333Y-77273390D01*
X218353333Y-77273390D02*
X218400952Y-77321009D01*
X218400952Y-77321009D02*
X218496190Y-77368628D01*
X218496190Y-77368628D02*
X218877142Y-77368628D01*
X217829523Y-77844819D02*
X217639047Y-77844819D01*
X217639047Y-77844819D02*
X217543809Y-77797200D01*
X217543809Y-77797200D02*
X217496190Y-77749580D01*
X217496190Y-77749580D02*
X217400952Y-77606723D01*
X217400952Y-77606723D02*
X217353333Y-77416247D01*
X217353333Y-77416247D02*
X217353333Y-77035295D01*
X217353333Y-77035295D02*
X217400952Y-76940057D01*
X217400952Y-76940057D02*
X217448571Y-76892438D01*
X217448571Y-76892438D02*
X217543809Y-76844819D01*
X217543809Y-76844819D02*
X217734285Y-76844819D01*
X217734285Y-76844819D02*
X217829523Y-76892438D01*
X217829523Y-76892438D02*
X217877142Y-76940057D01*
X217877142Y-76940057D02*
X217924761Y-77035295D01*
X217924761Y-77035295D02*
X217924761Y-77273390D01*
X217924761Y-77273390D02*
X217877142Y-77368628D01*
X217877142Y-77368628D02*
X217829523Y-77416247D01*
X217829523Y-77416247D02*
X217734285Y-77463866D01*
X217734285Y-77463866D02*
X217543809Y-77463866D01*
X217543809Y-77463866D02*
X217448571Y-77416247D01*
X217448571Y-77416247D02*
X217400952Y-77368628D01*
X217400952Y-77368628D02*
X217353333Y-77273390D01*
D12*
%TO.C,D1*%
X132386800Y-104389900D02*
X134444200Y-104389900D01*
X132386800Y-104679460D02*
X132386800Y-104389900D01*
X132386800Y-105990100D02*
X132386800Y-105700540D01*
D11*
X132838500Y-106260000D02*
X132838500Y-104014000D01*
D12*
X134444200Y-104389900D02*
X134444200Y-104679460D01*
X134444200Y-105700540D02*
X134444200Y-105990100D01*
X134444200Y-105990100D02*
X132386800Y-105990100D01*
D13*
%TO.C,C6*%
X200214250Y-71986664D02*
X200214250Y-72202336D01*
X200934250Y-71986664D02*
X200934250Y-72202336D01*
%TO.C,C13*%
X182042568Y-75078270D02*
X182042568Y-74862598D01*
X182762568Y-75078270D02*
X182762568Y-74862598D01*
%TO.C,R8*%
X136940000Y-60096359D02*
X136940000Y-60403641D01*
X136180000Y-60096359D02*
X136180000Y-60403641D01*
%TO.C,C67*%
X151236750Y-47537836D02*
X151236750Y-47322164D01*
X150516750Y-47537836D02*
X150516750Y-47322164D01*
%TO.C,C108*%
X144898748Y-118499500D02*
X146321252Y-118499500D01*
X144898748Y-120319500D02*
X146321252Y-120319500D01*
D12*
%TO.C,D11*%
X192831300Y-105252900D02*
X194888700Y-105252900D01*
X192831300Y-105542460D02*
X192831300Y-105252900D01*
X192831300Y-106853100D02*
X192831300Y-106563540D01*
D11*
X193283000Y-107123000D02*
X193283000Y-104877000D01*
D12*
X194888700Y-105252900D02*
X194888700Y-105542460D01*
X194888700Y-106563540D02*
X194888700Y-106853100D01*
X194888700Y-106853100D02*
X192831300Y-106853100D01*
D13*
%TO.C,C191*%
X133568748Y-113863833D02*
X134991252Y-113863833D01*
X133568748Y-115683833D02*
X134991252Y-115683833D01*
%TO.C,C27*%
X211694250Y-78002336D02*
X211694250Y-77786664D01*
X212414250Y-78002336D02*
X212414250Y-77786664D01*
%TO.C,U9*%
X176940000Y-121562500D02*
X176140000Y-121562500D01*
X176940000Y-121562500D02*
X177740000Y-121562500D01*
X176940000Y-124682500D02*
X176140000Y-124682500D01*
X176940000Y-124682500D02*
X177740000Y-124682500D01*
X175880000Y-124962500D02*
X175400000Y-124962500D01*
X175640000Y-124632500D01*
X175880000Y-124962500D01*
G36*
X175880000Y-124962500D02*
G01*
X175400000Y-124962500D01*
X175640000Y-124632500D01*
X175880000Y-124962500D01*
G37*
%TO.C,J2*%
X113935000Y-43100000D02*
X113935000Y-43735000D01*
X113935000Y-43735000D02*
X113300000Y-43735000D01*
%TO.C,C74*%
X193153748Y-113713333D02*
X194576252Y-113713333D01*
X193153748Y-115533333D02*
X194576252Y-115533333D01*
%TO.C,C63*%
X135709664Y-122647500D02*
X135925336Y-122647500D01*
X135709664Y-123367500D02*
X135925336Y-123367500D01*
%TO.C,TP10*%
X222360000Y-78720000D02*
G75*
G02*
X220960000Y-78720000I-700000J0D01*
G01*
X220960000Y-78720000D02*
G75*
G02*
X222360000Y-78720000I700000J0D01*
G01*
%TO.C,C38*%
X202664250Y-90655752D02*
X202664250Y-89233248D01*
X200844250Y-90655752D02*
X200844250Y-89233248D01*
%TO.C,C39*%
X181475750Y-90616752D02*
X181475750Y-89194248D01*
X179655750Y-90616752D02*
X179655750Y-89194248D01*
%TO.C,C45*%
X106509420Y-45640000D02*
X106790580Y-45640000D01*
X106509420Y-46660000D02*
X106790580Y-46660000D01*
D12*
%TO.C,D12*%
X192841300Y-103152900D02*
X194898700Y-103152900D01*
X192841300Y-103442460D02*
X192841300Y-103152900D01*
X192841300Y-104753100D02*
X192841300Y-104463540D01*
D11*
X193293000Y-105023000D02*
X193293000Y-102777000D01*
D12*
X194898700Y-103152900D02*
X194898700Y-103442460D01*
X194898700Y-104463540D02*
X194898700Y-104753100D01*
X194898700Y-104753100D02*
X192841300Y-104753100D01*
D13*
%TO.C,C42*%
X198064250Y-90655752D02*
X198064250Y-89233248D01*
X196244250Y-90655752D02*
X196244250Y-89233248D01*
%TO.C,C181*%
X182217564Y-121053000D02*
X182433236Y-121053000D01*
X182217564Y-121773000D02*
X182433236Y-121773000D01*
%TO.C,U6*%
X111600000Y-127260000D02*
X114800000Y-127260000D01*
X114800000Y-124760000D01*
X111600000Y-124760000D01*
X111600000Y-127260000D01*
D14*
X111596590Y-124000000D02*
G75*
G02*
X111283410Y-124000000I-156590J0D01*
G01*
X111283410Y-124000000D02*
G75*
G02*
X111596590Y-124000000I156590J0D01*
G01*
D13*
%TO.C,R27*%
X105190000Y-73953641D02*
X105190000Y-73646359D01*
X104430000Y-73953641D02*
X104430000Y-73646359D01*
%TO.C,U11*%
X117182500Y-125070000D02*
X117182500Y-125870000D01*
X117182500Y-126670000D02*
X117182500Y-125870000D01*
X120302500Y-125070000D02*
X120302500Y-125870000D01*
X120302500Y-126670000D02*
X120302500Y-125870000D01*
X120582500Y-127410000D02*
X120252500Y-127170000D01*
X120582500Y-126930000D01*
X120582500Y-127410000D01*
G36*
X120582500Y-127410000D02*
G01*
X120252500Y-127170000D01*
X120582500Y-126930000D01*
X120582500Y-127410000D01*
G37*
%TO.C,C116*%
X133553748Y-116255583D02*
X134976252Y-116255583D01*
X133553748Y-118075583D02*
X134976252Y-118075583D01*
%TO.C,U4*%
X183900000Y-74199566D02*
X183900000Y-74699566D01*
X183900000Y-81499566D02*
X183900000Y-80999566D01*
X184400000Y-74199566D02*
X183900000Y-74199566D01*
X184400000Y-81499566D02*
X183900000Y-81499566D01*
X188700000Y-74199566D02*
X189200000Y-74199566D01*
X188700000Y-81499566D02*
X189200000Y-81499566D01*
X189200000Y-74199566D02*
X189200000Y-74699566D01*
X189200000Y-81499566D02*
X189200000Y-80999566D01*
D10*
X190110000Y-74879566D02*
G75*
G02*
X189810000Y-74879566I-150000J0D01*
G01*
X189810000Y-74879566D02*
G75*
G02*
X190110000Y-74879566I150000J0D01*
G01*
D13*
%TO.C,C188*%
X115353748Y-113753833D02*
X116776252Y-113753833D01*
X115353748Y-115573833D02*
X116776252Y-115573833D01*
%TO.C,C109*%
X144898748Y-116091750D02*
X146321252Y-116091750D01*
X144898748Y-117911750D02*
X146321252Y-117911750D01*
%TO.C,C190*%
X144903748Y-113710000D02*
X146326252Y-113710000D01*
X144903748Y-115530000D02*
X146326252Y-115530000D01*
%TO.C,C182*%
X194154800Y-112222164D02*
X194154800Y-112437836D01*
X194874800Y-112222164D02*
X194874800Y-112437836D01*
%TO.C,C102*%
X115493748Y-103510000D02*
X116916252Y-103510000D01*
X115493748Y-105330000D02*
X116916252Y-105330000D01*
D15*
%TO.C,U7*%
X103520001Y-123100000D02*
X103520001Y-125700000D01*
X107119999Y-123100000D02*
X103520001Y-123100000D01*
X107119999Y-123100000D02*
X107119999Y-125700000D01*
X107119999Y-125700000D02*
X103520001Y-125700000D01*
D16*
X102985002Y-123784000D02*
G75*
G02*
X102734998Y-123784000I-125002J0D01*
G01*
X102734998Y-123784000D02*
G75*
G02*
X102985002Y-123784000I125002J0D01*
G01*
D13*
%TO.C,R34*%
X127692259Y-103235000D02*
X127999541Y-103235000D01*
X127692259Y-103995000D02*
X127999541Y-103995000D01*
%TO.C,TP5*%
X147190000Y-62770000D02*
G75*
G02*
X145290000Y-62770000I-950000J0D01*
G01*
X145290000Y-62770000D02*
G75*
G02*
X147190000Y-62770000I950000J0D01*
G01*
%TO.C,C183*%
X134467500Y-52889586D02*
X134467500Y-52673914D01*
X135187500Y-52889586D02*
X135187500Y-52673914D01*
%TO.C,TP7*%
X181835000Y-49256821D02*
G75*
G02*
X179935000Y-49256821I-950000J0D01*
G01*
X179935000Y-49256821D02*
G75*
G02*
X181835000Y-49256821I950000J0D01*
G01*
%TO.C,C9*%
X202700000Y-83100580D02*
X202700000Y-82819420D01*
X203720000Y-83100580D02*
X203720000Y-82819420D01*
%TO.C,C46*%
X112707836Y-122450000D02*
X112492164Y-122450000D01*
X112707836Y-123170000D02*
X112492164Y-123170000D01*
%TO.C,R6*%
X125610000Y-62126359D02*
X125610000Y-62433641D01*
X126370000Y-62126359D02*
X126370000Y-62433641D01*
%TO.C,C36*%
X204964250Y-90655752D02*
X204964250Y-89233248D01*
X203144250Y-90655752D02*
X203144250Y-89233248D01*
%TO.C,R28*%
X107783641Y-126260000D02*
X107476359Y-126260000D01*
X107783641Y-127020000D02*
X107476359Y-127020000D01*
%TO.C,C31*%
X207006414Y-72434500D02*
X207222086Y-72434500D01*
X207006414Y-73154500D02*
X207222086Y-73154500D01*
%TO.C,C151*%
X180580035Y-106212375D02*
X182002539Y-106212375D01*
X180580035Y-108032375D02*
X182002539Y-108032375D01*
%TO.C,C101*%
X115493748Y-105911083D02*
X116916252Y-105911083D01*
X115493748Y-107731083D02*
X116916252Y-107731083D01*
%TO.C,TP3*%
X160410000Y-60930000D02*
G75*
G02*
X158510000Y-60930000I-950000J0D01*
G01*
X158510000Y-60930000D02*
G75*
G02*
X160410000Y-60930000I950000J0D01*
G01*
%TO.C,R24*%
X184503641Y-72419566D02*
X184196359Y-72419566D01*
X184503641Y-73179566D02*
X184196359Y-73179566D01*
%TO.C,C53*%
X189772164Y-112496750D02*
X189987836Y-112496750D01*
X189772164Y-113216750D02*
X189987836Y-113216750D01*
%TO.C,R37*%
X133328000Y-111123241D02*
X133328000Y-110815959D01*
X134088000Y-111123241D02*
X134088000Y-110815959D01*
%TO.C,C51*%
X201037836Y-112310000D02*
X200822164Y-112310000D01*
X201037836Y-113030000D02*
X200822164Y-113030000D01*
%TO.C,TP11*%
X222370000Y-75580000D02*
G75*
G02*
X220970000Y-75580000I-700000J0D01*
G01*
X220970000Y-75580000D02*
G75*
G02*
X222370000Y-75580000I700000J0D01*
G01*
%TO.C,C130*%
X138523833Y-99468748D02*
X138523833Y-100891252D01*
X140343833Y-99468748D02*
X140343833Y-100891252D01*
%TO.C,C186*%
X128183748Y-114350000D02*
X129606252Y-114350000D01*
X128183748Y-116170000D02*
X129606252Y-116170000D01*
%TO.C,C122*%
X144818748Y-108461750D02*
X146241252Y-108461750D01*
X144818748Y-110281750D02*
X146241252Y-110281750D01*
D11*
%TO.C,U1*%
X183185000Y-51556821D02*
X183185000Y-51306822D01*
X183185000Y-55856820D02*
X183185000Y-55606821D01*
X183435000Y-51306822D02*
X183185000Y-51306822D01*
X183435000Y-55856820D02*
X183185000Y-55856820D01*
X187335000Y-51306822D02*
X187085000Y-51306822D01*
X187335000Y-51556821D02*
X187335000Y-51306822D01*
X187335000Y-55856820D02*
X187085000Y-55856820D01*
X187335000Y-55856820D02*
X187335000Y-55606821D01*
D16*
X187835001Y-51311821D02*
G75*
G02*
X187584999Y-51311821I-125001J0D01*
G01*
X187584999Y-51311821D02*
G75*
G02*
X187835001Y-51311821I125001J0D01*
G01*
D13*
%TO.C,R26*%
X207287891Y-71384500D02*
X206980609Y-71384500D01*
X207287891Y-72144500D02*
X206980609Y-72144500D01*
%TO.C,C129*%
X136118250Y-99468748D02*
X136118250Y-100891252D01*
X137938250Y-99468748D02*
X137938250Y-100891252D01*
%TO.C,C60*%
X119350336Y-128310000D02*
X119134664Y-128310000D01*
X119350336Y-129030000D02*
X119134664Y-129030000D01*
%TO.C,U8*%
X204092500Y-128700000D02*
X204092500Y-127900000D01*
X204092500Y-128700000D02*
X204092500Y-129500000D01*
X207212500Y-128700000D02*
X207212500Y-127900000D01*
X207212500Y-128700000D02*
X207212500Y-129500000D01*
X207492500Y-130240000D02*
X207162500Y-130000000D01*
X207492500Y-129760000D01*
X207492500Y-130240000D01*
G36*
X207492500Y-130240000D02*
G01*
X207162500Y-130000000D01*
X207492500Y-129760000D01*
X207492500Y-130240000D01*
G37*
%TO.C,C10*%
X182135000Y-83150580D02*
X182135000Y-82869420D01*
X183155000Y-83150580D02*
X183155000Y-82869420D01*
%TO.C,R17*%
X214957891Y-67814500D02*
X214650609Y-67814500D01*
X214957891Y-68574500D02*
X214650609Y-68574500D01*
%TO.C,C95*%
X115353748Y-116201917D02*
X116776252Y-116201917D01*
X115353748Y-118021917D02*
X116776252Y-118021917D01*
D12*
%TO.C,SW1*%
X100631140Y-71364100D02*
X102279600Y-71364100D01*
X102279600Y-71364100D02*
X102279600Y-72517260D01*
X102279600Y-74071740D02*
X102279600Y-76708260D01*
X102279600Y-78262740D02*
X102279600Y-79415900D01*
X102279600Y-79415900D02*
X100631140Y-79415900D01*
D13*
%TO.C,C41*%
X179175750Y-90616752D02*
X179175750Y-89194248D01*
X177355750Y-90616752D02*
X177355750Y-89194248D01*
%TO.C,R4*%
X136930000Y-58103641D02*
X136930000Y-57796359D01*
X136170000Y-58103641D02*
X136170000Y-57796359D01*
%TO.C,TP12*%
X226555750Y-102975500D02*
G75*
G02*
X224655750Y-102975500I-950000J0D01*
G01*
X224655750Y-102975500D02*
G75*
G02*
X226555750Y-102975500I950000J0D01*
G01*
%TO.C,C37*%
X183775750Y-90616752D02*
X183775750Y-89194248D01*
X181955750Y-90616752D02*
X181955750Y-89194248D01*
D15*
%TO.C,J1*%
X198259823Y-46020000D02*
X198259823Y-42020000D01*
X199959823Y-46020000D02*
X199959823Y-49520000D01*
X201559823Y-46020000D02*
X201559823Y-49520000D01*
X204959823Y-46020000D02*
X204959823Y-49520000D01*
X206559823Y-46020000D02*
X206559823Y-49520000D01*
X208259823Y-46020000D02*
X198259823Y-46020000D01*
X208259823Y-46020000D02*
X208259823Y-42020000D01*
D13*
%TO.C,C73*%
X193153748Y-116125833D02*
X194576252Y-116125833D01*
X193153748Y-117945833D02*
X194576252Y-117945833D01*
%TO.C,TP16*%
X208850000Y-123610000D02*
G75*
G02*
X207450000Y-123610000I-700000J0D01*
G01*
X207450000Y-123610000D02*
G75*
G02*
X208850000Y-123610000I700000J0D01*
G01*
%TO.C,C196*%
X180580035Y-103814875D02*
X182002539Y-103814875D01*
X180580035Y-105634875D02*
X182002539Y-105634875D01*
%TO.C,C26*%
X191245000Y-78478748D02*
X191245000Y-79001252D01*
X192715000Y-78478748D02*
X192715000Y-79001252D01*
%TO.C,L1*%
D11*
X210169250Y-85294500D02*
X216919250Y-85294500D01*
X216919250Y-92594500D01*
X210169250Y-92594500D01*
X210169250Y-85294500D01*
D13*
%TO.C,C62*%
X179304250Y-123347914D02*
X179304250Y-123563586D01*
X180024250Y-123347914D02*
X180024250Y-123563586D01*
%TO.C,R36*%
X133998741Y-99979000D02*
X133691459Y-99979000D01*
X133998741Y-100739000D02*
X133691459Y-100739000D01*
%TO.C,TP4*%
X165750000Y-60920000D02*
G75*
G02*
X163850000Y-60920000I-950000J0D01*
G01*
X163850000Y-60920000D02*
G75*
G02*
X165750000Y-60920000I950000J0D01*
G01*
%TO.C,R5*%
X183838641Y-49751821D02*
X183531359Y-49751821D01*
X183838641Y-50511821D02*
X183531359Y-50511821D01*
%TO.C,C180*%
X131958000Y-110087436D02*
X131958000Y-109871764D01*
X132678000Y-110087436D02*
X132678000Y-109871764D01*
%TO.C,C12*%
X180660000Y-83150580D02*
X180660000Y-82869420D01*
X181680000Y-83150580D02*
X181680000Y-82869420D01*
%TO.C,L2*%
D11*
X188985750Y-85360500D02*
X195735750Y-85360500D01*
X195735750Y-92660500D01*
X188985750Y-92660500D01*
X188985750Y-85360500D01*
D13*
%TO.C,J4*%
X180700000Y-39740000D02*
X189100000Y-39740000D01*
X180700000Y-40970000D02*
X180700000Y-39740000D01*
X180700000Y-43940000D02*
X180700000Y-43030000D01*
X182790000Y-43940000D02*
X180700000Y-43940000D01*
X189100000Y-39740000D02*
X189100000Y-40970000D01*
X189100000Y-42940000D02*
X189100000Y-43940000D01*
X189100000Y-43940000D02*
X187010000Y-43940000D01*
%TO.C,R22*%
X130548641Y-44828250D02*
X130241359Y-44828250D01*
X130548641Y-45588250D02*
X130241359Y-45588250D01*
%TO.C,C195*%
X188283748Y-109525000D02*
X189706252Y-109525000D01*
X188283748Y-111345000D02*
X189706252Y-111345000D01*
%TO.C,J5*%
X117680000Y-42060000D02*
X117680000Y-43760000D01*
X127020000Y-42060000D02*
X127020000Y-43760000D01*
%TO.C,C56*%
X118787836Y-102098250D02*
X118572164Y-102098250D01*
X118787836Y-102818250D02*
X118572164Y-102818250D01*
%TO.C,U3*%
X204654250Y-74094500D02*
X204654250Y-74594500D01*
X204654250Y-81394500D02*
X204654250Y-80894500D01*
X205154250Y-74094500D02*
X204654250Y-74094500D01*
X205154250Y-81394500D02*
X204654250Y-81394500D01*
X209454250Y-74094500D02*
X209954250Y-74094500D01*
X209454250Y-81394500D02*
X209954250Y-81394500D01*
X209954250Y-74094500D02*
X209954250Y-74594500D01*
X209954250Y-81394500D02*
X209954250Y-80894500D01*
D10*
X210864250Y-74774500D02*
G75*
G02*
X210564250Y-74774500I-150000J0D01*
G01*
X210564250Y-74774500D02*
G75*
G02*
X210864250Y-74774500I150000J0D01*
G01*
D13*
%TO.C,R39*%
X160868241Y-123047000D02*
X160560959Y-123047000D01*
X160868241Y-123807000D02*
X160560959Y-123807000D01*
D12*
%TO.C,D9*%
X192801300Y-108392900D02*
X194858700Y-108392900D01*
X192801300Y-108682460D02*
X192801300Y-108392900D01*
X192801300Y-109993100D02*
X192801300Y-109703540D01*
D11*
X193253000Y-110263000D02*
X193253000Y-108017000D01*
D12*
X194858700Y-108392900D02*
X194858700Y-108682460D01*
X194858700Y-109703540D02*
X194858700Y-109993100D01*
X194858700Y-109993100D02*
X192801300Y-109993100D01*
D13*
%TO.C,R7*%
X135750000Y-60796359D02*
X135750000Y-61103641D01*
X134990000Y-60796359D02*
X134990000Y-61103641D01*
%TO.C,R9*%
X199820609Y-73644500D02*
X200127891Y-73644500D01*
X199820609Y-74404500D02*
X200127891Y-74404500D01*
%TO.C,R30*%
X150486750Y-53076359D02*
X150486750Y-53383641D01*
X151246750Y-53076359D02*
X151246750Y-53383641D01*
%TO.C,R42*%
X164188241Y-127757000D02*
X163880959Y-127757000D01*
X164188241Y-128517000D02*
X163880959Y-128517000D01*
%TO.C,C58*%
X173887500Y-123494664D02*
X173887500Y-123710336D01*
X174607500Y-123494664D02*
X174607500Y-123710336D01*
%TO.C,C2*%
X166447836Y-77830000D02*
X166232164Y-77830000D01*
X166447836Y-77110000D02*
X166232164Y-77110000D01*
%TO.C,C150*%
X180580035Y-108624875D02*
X182002539Y-108624875D01*
X180580035Y-110444875D02*
X182002539Y-110444875D01*
%TO.C,C193*%
X140910000Y-99483748D02*
X140910000Y-100906252D01*
X142730000Y-99483748D02*
X142730000Y-100906252D01*
%TO.C,R46*%
X193301759Y-107243000D02*
X193609041Y-107243000D01*
X193301759Y-108003000D02*
X193609041Y-108003000D01*
%TO.C,R41*%
X166361759Y-126173000D02*
X166669041Y-126173000D01*
X166361759Y-126933000D02*
X166669041Y-126933000D01*
%TO.C,TP17*%
X211900000Y-123610000D02*
G75*
G02*
X210500000Y-123610000I-700000J0D01*
G01*
X210500000Y-123610000D02*
G75*
G02*
X211900000Y-123610000I700000J0D01*
G01*
%TO.C,C50*%
X141057836Y-121095000D02*
X140842164Y-121095000D01*
X141057836Y-121815000D02*
X140842164Y-121815000D01*
D12*
%TO.C,D5*%
X162571300Y-122632900D02*
X164628700Y-122632900D01*
X162571300Y-122922460D02*
X162571300Y-122632900D01*
X162571300Y-124233100D02*
X162571300Y-123943540D01*
D11*
X163023000Y-124503000D02*
X163023000Y-122257000D01*
D12*
X164628700Y-122632900D02*
X164628700Y-122922460D01*
X164628700Y-123943540D02*
X164628700Y-124233100D01*
X164628700Y-124233100D02*
X162571300Y-124233100D01*
D13*
%TO.C,TP6*%
X141550000Y-62780000D02*
G75*
G02*
X139650000Y-62780000I-950000J0D01*
G01*
X139650000Y-62780000D02*
G75*
G02*
X141550000Y-62780000I950000J0D01*
G01*
%TO.C,R21*%
X213149250Y-73477436D02*
X213149250Y-73931564D01*
X214619250Y-73477436D02*
X214619250Y-73931564D01*
%TO.C,TP13*%
X223270000Y-91870000D02*
G75*
G02*
X221370000Y-91870000I-950000J0D01*
G01*
X221370000Y-91870000D02*
G75*
G02*
X223270000Y-91870000I950000J0D01*
G01*
%TO.C,C3*%
X166037836Y-70570000D02*
X165822164Y-70570000D01*
X166037836Y-69850000D02*
X165822164Y-69850000D01*
%TO.C,U10*%
X133872500Y-125850000D02*
X133872500Y-125050000D01*
X133872500Y-125850000D02*
X133872500Y-126650000D01*
X136992500Y-125850000D02*
X136992500Y-125050000D01*
X136992500Y-125850000D02*
X136992500Y-126650000D01*
X137272500Y-127390000D02*
X136942500Y-127150000D01*
X137272500Y-126910000D01*
X137272500Y-127390000D01*
G36*
X137272500Y-127390000D02*
G01*
X136942500Y-127150000D01*
X137272500Y-126910000D01*
X137272500Y-127390000D01*
G37*
%TO.C,C136*%
X180613748Y-116140000D02*
X182036252Y-116140000D01*
X180613748Y-117960000D02*
X182036252Y-117960000D01*
%TO.C,R25*%
X204814250Y-72130859D02*
X204814250Y-72438141D01*
X205574250Y-72130859D02*
X205574250Y-72438141D01*
%TO.C,C16*%
X203406414Y-70954500D02*
X203622086Y-70954500D01*
X203406414Y-71674500D02*
X203622086Y-71674500D01*
%TO.C,C49*%
X206157836Y-121275000D02*
X205942164Y-121275000D01*
X206157836Y-121995000D02*
X205942164Y-121995000D01*
%TO.C,R51*%
X144580000Y-51106359D02*
X144580000Y-51413641D01*
X143820000Y-51106359D02*
X143820000Y-51413641D01*
%TO.C,C158*%
X208813748Y-106062500D02*
X210236252Y-106062500D01*
X208813748Y-107882500D02*
X210236252Y-107882500D01*
%TO.C,C23*%
X213796414Y-70994500D02*
X214012086Y-70994500D01*
X213796414Y-71714500D02*
X214012086Y-71714500D01*
%TO.C,R10*%
X201274250Y-72248141D02*
X201274250Y-71940859D01*
X202034250Y-72248141D02*
X202034250Y-71940859D01*
%TO.C,C171*%
X208913748Y-118300000D02*
X210336252Y-118300000D01*
X208913748Y-120120000D02*
X210336252Y-120120000D01*
%TO.C,C194*%
X180613748Y-118540000D02*
X182036252Y-118540000D01*
X180613748Y-120360000D02*
X182036252Y-120360000D01*
%TO.C,R20*%
X130548641Y-43378250D02*
X130241359Y-43378250D01*
X130548641Y-44138250D02*
X130241359Y-44138250D01*
%TO.C,C185*%
X193143748Y-118530000D02*
X194566252Y-118530000D01*
X193143748Y-120350000D02*
X194566252Y-120350000D01*
%TO.C,C123*%
X144818748Y-106072833D02*
X146241252Y-106072833D01*
X144818748Y-107892833D02*
X146241252Y-107892833D01*
%TO.C,R52*%
X144610000Y-54193641D02*
X144610000Y-53886359D01*
X143850000Y-54193641D02*
X143850000Y-53886359D01*
%TO.C,C1*%
X188025000Y-51241241D02*
X188025000Y-51522401D01*
X189045000Y-51241241D02*
X189045000Y-51522401D01*
D12*
%TO.C,D10*%
X195361300Y-106832900D02*
X197418700Y-106832900D01*
X195361300Y-107122460D02*
X195361300Y-106832900D01*
X195361300Y-108433100D02*
X195361300Y-108143540D01*
D11*
X195813000Y-108703000D02*
X195813000Y-106457000D01*
D12*
X197418700Y-106832900D02*
X197418700Y-107122460D01*
X197418700Y-108143540D02*
X197418700Y-108433100D01*
X197418700Y-108433100D02*
X195361300Y-108433100D01*
D13*
%TO.C,C184*%
X149337836Y-54070000D02*
X149122164Y-54070000D01*
X149337836Y-53350000D02*
X149122164Y-53350000D01*
%TO.C,R23*%
X191215000Y-74877936D02*
X191215000Y-75332064D01*
X192685000Y-74877936D02*
X192685000Y-75332064D01*
%TO.C,C44*%
X103290000Y-73897836D02*
X103290000Y-73682164D01*
X104010000Y-73897836D02*
X104010000Y-73682164D01*
%TO.C,C61*%
X205834664Y-125612500D02*
X206050336Y-125612500D01*
X205834664Y-126332500D02*
X206050336Y-126332500D01*
%TO.C,C54*%
X183998250Y-104212164D02*
X183998250Y-104427836D01*
X184718250Y-104212164D02*
X184718250Y-104427836D01*
%TO.C,C7*%
X196019250Y-77159500D02*
X196019250Y-85219500D01*
X200539250Y-77159500D02*
X196019250Y-77159500D01*
X200539250Y-85219500D02*
X200539250Y-77159500D01*
%TO.C,R49*%
X195212400Y-112176359D02*
X195212400Y-112483641D01*
X195972400Y-112176359D02*
X195972400Y-112483641D01*
%TO.C,TP18*%
X214950000Y-123610000D02*
G75*
G02*
X213550000Y-123610000I-700000J0D01*
G01*
X213550000Y-123610000D02*
G75*
G02*
X214950000Y-123610000I700000J0D01*
G01*
%TO.C,C55*%
X124447836Y-110943250D02*
X124232164Y-110943250D01*
X124447836Y-111663250D02*
X124232164Y-111663250D01*
%TO.C,C80*%
X128158748Y-119131167D02*
X129581252Y-119131167D01*
X128158748Y-120951167D02*
X129581252Y-120951167D01*
%TO.C,C59*%
X135874664Y-128227500D02*
X136090336Y-128227500D01*
X135874664Y-128947500D02*
X136090336Y-128947500D01*
%TO.C,C115*%
X133553748Y-118680000D02*
X134976252Y-118680000D01*
X133553748Y-120500000D02*
X134976252Y-120500000D01*
%TO.C,R38*%
X133318000Y-108873241D02*
X133318000Y-108565959D01*
X134078000Y-108873241D02*
X134078000Y-108565959D01*
%TO.C,C164*%
X199828748Y-109510000D02*
X201251252Y-109510000D01*
X199828748Y-111330000D02*
X201251252Y-111330000D01*
%TO.C,C187*%
X128128748Y-106728250D02*
X129551252Y-106728250D01*
X128128748Y-108548250D02*
X129551252Y-108548250D01*
%TO.C,C81*%
X128158748Y-116741750D02*
X129581252Y-116741750D01*
X128158748Y-118561750D02*
X129581252Y-118561750D01*
%TO.C,C66*%
X173450000Y-52505580D02*
X173450000Y-52224420D01*
X172430000Y-52505580D02*
X172430000Y-52224420D01*
%TO.C,R11*%
X217557891Y-69264500D02*
X217250609Y-69264500D01*
X217557891Y-70024500D02*
X217250609Y-70024500D01*
%TO.C,C179*%
X197923748Y-116102500D02*
X199346252Y-116102500D01*
X197923748Y-117922500D02*
X199346252Y-117922500D01*
%TO.C,C199*%
X208913748Y-113500000D02*
X210336252Y-113500000D01*
X208913748Y-115320000D02*
X210336252Y-115320000D01*
%TO.C,C52*%
X135417836Y-111180000D02*
X135202164Y-111180000D01*
X135417836Y-111900000D02*
X135202164Y-111900000D01*
%TO.C,R43*%
X181211759Y-122143000D02*
X181519041Y-122143000D01*
X181211759Y-122903000D02*
X181519041Y-122903000D01*
D12*
%TO.C,D2*%
X129826800Y-102799900D02*
X131884200Y-102799900D01*
X129826800Y-103089460D02*
X129826800Y-102799900D01*
X129826800Y-104400100D02*
X129826800Y-104110540D01*
D11*
X130278500Y-104670000D02*
X130278500Y-102424000D01*
D12*
X131884200Y-102799900D02*
X131884200Y-103089460D01*
X131884200Y-104110540D02*
X131884200Y-104400100D01*
X131884200Y-104400100D02*
X129826800Y-104400100D01*
D13*
%TO.C,TP1*%
X135695000Y-69341821D02*
G75*
G02*
X133795000Y-69341821I-950000J0D01*
G01*
X133795000Y-69341821D02*
G75*
G02*
X135695000Y-69341821I950000J0D01*
G01*
%TO.C,U5*%
X124020000Y-47750000D02*
X123270000Y-47750000D01*
X124020000Y-48750000D02*
X124020000Y-47750000D01*
X124020000Y-64750000D02*
X124020000Y-65750000D01*
X124020000Y-65750000D02*
X123270000Y-65750000D01*
%TO.C,C11*%
X201225000Y-83100580D02*
X201225000Y-82819420D01*
X202245000Y-83100580D02*
X202245000Y-82819420D01*
%TO.C,C172*%
X208913748Y-115885833D02*
X210336252Y-115885833D01*
X208913748Y-117705833D02*
X210336252Y-117705833D01*
%TO.C,C28*%
X190070000Y-78587402D02*
X190070000Y-78371730D01*
X190790000Y-78587402D02*
X190790000Y-78371730D01*
%TO.C,C192*%
X144823748Y-103690000D02*
X146246252Y-103690000D01*
X144823748Y-105510000D02*
X146246252Y-105510000D01*
D12*
%TO.C,D4*%
X129816800Y-99549900D02*
X131874200Y-99549900D01*
X129816800Y-99839460D02*
X129816800Y-99549900D01*
X129816800Y-101150100D02*
X129816800Y-100860540D01*
D11*
X130268500Y-101420000D02*
X130268500Y-99174000D01*
D12*
X131874200Y-99549900D02*
X131874200Y-99839460D01*
X131874200Y-100860540D02*
X131874200Y-101150100D01*
X131874200Y-101150100D02*
X129816800Y-101150100D01*
D13*
%TO.C,C35*%
X186075750Y-90616752D02*
X186075750Y-89194248D01*
X184255750Y-90616752D02*
X184255750Y-89194248D01*
%TO.C,R14*%
X214665609Y-69264500D02*
X214972891Y-69264500D01*
X214665609Y-70024500D02*
X214972891Y-70024500D01*
%TO.C,C5*%
X180075000Y-53141241D02*
X180075000Y-53422401D01*
X181095000Y-53141241D02*
X181095000Y-53422401D01*
%TO.C,C29*%
X186342164Y-72489566D02*
X186557836Y-72489566D01*
X186342164Y-73209566D02*
X186557836Y-73209566D01*
%TO.C,C197*%
X208813748Y-103680000D02*
X210236252Y-103680000D01*
X208813748Y-105500000D02*
X210236252Y-105500000D01*
%TO.C,TP21*%
X139700000Y-125740000D02*
G75*
G02*
X137800000Y-125740000I-950000J0D01*
G01*
X137800000Y-125740000D02*
G75*
G02*
X139700000Y-125740000I950000J0D01*
G01*
%TO.C,C198*%
X199813748Y-104690000D02*
X201236252Y-104690000D01*
X199813748Y-106510000D02*
X201236252Y-106510000D01*
%TO.C,C30*%
X206182086Y-70374500D02*
X205966414Y-70374500D01*
X206182086Y-71094500D02*
X205966414Y-71094500D01*
%TO.C,TP2*%
X131770000Y-65980000D02*
G75*
G02*
X129870000Y-65980000I-950000J0D01*
G01*
X129870000Y-65980000D02*
G75*
G02*
X131770000Y-65980000I950000J0D01*
G01*
D12*
%TO.C,D8*%
X160071300Y-127342900D02*
X162128700Y-127342900D01*
X160071300Y-127632460D02*
X160071300Y-127342900D01*
X160071300Y-128943100D02*
X160071300Y-128653540D01*
D11*
X160523000Y-129213000D02*
X160523000Y-126967000D01*
D12*
X162128700Y-127342900D02*
X162128700Y-127632460D01*
X162128700Y-128653540D02*
X162128700Y-128943100D01*
X162128700Y-128943100D02*
X160071300Y-128943100D01*
D13*
%TO.C,R35*%
X131092259Y-101605000D02*
X131399541Y-101605000D01*
X131092259Y-102365000D02*
X131399541Y-102365000D01*
%TO.C,R48*%
X195995000Y-103838241D02*
X195995000Y-103530959D01*
X196755000Y-103838241D02*
X196755000Y-103530959D01*
%TO.C,C32*%
X209564250Y-90655752D02*
X209564250Y-89233248D01*
X207744250Y-90655752D02*
X207744250Y-89233248D01*
%TO.C,R29*%
X151236750Y-49673641D02*
X151236750Y-49366359D01*
X150476750Y-49673641D02*
X150476750Y-49366359D01*
%TO.C,C87*%
X128153748Y-111500000D02*
X129576252Y-111500000D01*
X128153748Y-113320000D02*
X129576252Y-113320000D01*
%TO.C,C40*%
X200364250Y-90655752D02*
X200364250Y-89233248D01*
X198544250Y-90655752D02*
X198544250Y-89233248D01*
%TO.C,R15*%
X127050000Y-61193641D02*
X127050000Y-60886359D01*
X127810000Y-61193641D02*
X127810000Y-60886359D01*
%TO.C,C8*%
X175765000Y-77489566D02*
X175765000Y-85549566D01*
X180285000Y-77489566D02*
X175765000Y-77489566D01*
X180285000Y-85549566D02*
X180285000Y-77489566D01*
%TO.C,C34*%
X207264250Y-90655752D02*
X207264250Y-89233248D01*
X205444250Y-90655752D02*
X205444250Y-89233248D01*
%TO.C,C43*%
X176863250Y-90616752D02*
X176863250Y-89194248D01*
X175043250Y-90616752D02*
X175043250Y-89194248D01*
%TO.C,R44*%
X183231759Y-122128300D02*
X183539041Y-122128300D01*
X183231759Y-122888300D02*
X183539041Y-122888300D01*
%TO.C,C57*%
X206034664Y-130982500D02*
X206250336Y-130982500D01*
X206034664Y-131702500D02*
X206250336Y-131702500D01*
%TO.C,C88*%
X128143748Y-109130000D02*
X129566252Y-109130000D01*
X128143748Y-110950000D02*
X129566252Y-110950000D01*
%TO.C,C18*%
X182050000Y-73117836D02*
X182050000Y-72902164D01*
X182770000Y-73117836D02*
X182770000Y-72902164D01*
%TO.C,C137*%
X180613748Y-113712500D02*
X182036252Y-113712500D01*
X180613748Y-115532500D02*
X182036252Y-115532500D01*
%TO.C,R19*%
X181053641Y-73060000D02*
X180746359Y-73060000D01*
X181053641Y-73820000D02*
X180746359Y-73820000D01*
%TO.C,R3*%
X135750000Y-58103641D02*
X135750000Y-57796359D01*
X134990000Y-58103641D02*
X134990000Y-57796359D01*
%TO.C,R1*%
X186563641Y-49701821D02*
X186256359Y-49701821D01*
X186563641Y-50461821D02*
X186256359Y-50461821D01*
%TO.C,C178*%
X197923748Y-118510000D02*
X199346252Y-118510000D01*
X197923748Y-120330000D02*
X199346252Y-120330000D01*
%TO.C,C143*%
X188273748Y-107145000D02*
X189696252Y-107145000D01*
X188273748Y-108965000D02*
X189696252Y-108965000D01*
D12*
%TO.C,D7*%
X162581300Y-125762900D02*
X164638700Y-125762900D01*
X162581300Y-126052460D02*
X162581300Y-125762900D01*
X162581300Y-127363100D02*
X162581300Y-127073540D01*
D11*
X163033000Y-127633000D02*
X163033000Y-125387000D01*
D12*
X164638700Y-125762900D02*
X164638700Y-126052460D01*
X164638700Y-127073540D02*
X164638700Y-127363100D01*
X164638700Y-127363100D02*
X162581300Y-127363100D01*
D13*
%TO.C,R18*%
X200127891Y-74844500D02*
X199820609Y-74844500D01*
X200127891Y-75604500D02*
X199820609Y-75604500D01*
%TO.C,C157*%
X208813748Y-108490000D02*
X210236252Y-108490000D01*
X208813748Y-110310000D02*
X210236252Y-110310000D01*
%TO.C,R50*%
X196290000Y-112483641D02*
X196290000Y-112176359D01*
X197050000Y-112483641D02*
X197050000Y-112176359D01*
%TO.C,C17*%
X201224250Y-74682336D02*
X201224250Y-74466664D01*
X201944250Y-74682336D02*
X201944250Y-74466664D01*
%TO.C,TP8*%
X217144250Y-72184500D02*
G75*
G02*
X215744250Y-72184500I-700000J0D01*
G01*
X215744250Y-72184500D02*
G75*
G02*
X217144250Y-72184500I700000J0D01*
G01*
%TO.C,R2*%
X125610000Y-59873641D02*
X125610000Y-59566359D01*
X126370000Y-59873641D02*
X126370000Y-59566359D01*
%TO.C,R33*%
X130558741Y-104799000D02*
X130251459Y-104799000D01*
X130558741Y-105559000D02*
X130251459Y-105559000D01*
%TO.C,R47*%
X195990000Y-105773641D02*
X195990000Y-105466359D01*
X196750000Y-105773641D02*
X196750000Y-105466359D01*
%TO.C,C165*%
X199828748Y-107092500D02*
X201251252Y-107092500D01*
X199828748Y-108912500D02*
X201251252Y-108912500D01*
%TO.C,C25*%
X212844250Y-77158248D02*
X212844250Y-77680752D01*
X214314250Y-77158248D02*
X214314250Y-77680752D01*
%TO.C,C64*%
X119410336Y-122787500D02*
X119194664Y-122787500D01*
X119410336Y-123507500D02*
X119194664Y-123507500D01*
%TO.C,C189*%
X115483748Y-108321083D02*
X116906252Y-108321083D01*
X115483748Y-110141083D02*
X116906252Y-110141083D01*
%TO.C,C65*%
X153655580Y-52740000D02*
X153374420Y-52740000D01*
X153655580Y-53760000D02*
X153374420Y-53760000D01*
%TO.C,TP15*%
X205800000Y-123610000D02*
G75*
G02*
X204400000Y-123610000I-700000J0D01*
G01*
X204400000Y-123610000D02*
G75*
G02*
X205800000Y-123610000I700000J0D01*
G01*
%TO.C,C24*%
X190060000Y-75237402D02*
X190060000Y-75021730D01*
X190780000Y-75237402D02*
X190780000Y-75021730D01*
D12*
%TO.C,D6*%
X160051300Y-124212900D02*
X162108700Y-124212900D01*
X160051300Y-124502460D02*
X160051300Y-124212900D01*
X160051300Y-125813100D02*
X160051300Y-125523540D01*
D11*
X160503000Y-126083000D02*
X160503000Y-123837000D01*
D12*
X162108700Y-124212900D02*
X162108700Y-124502460D01*
X162108700Y-125523540D02*
X162108700Y-125813100D01*
X162108700Y-125813100D02*
X160051300Y-125813100D01*
D13*
%TO.C,C200*%
X197923748Y-113720000D02*
X199346252Y-113720000D01*
X197923748Y-115540000D02*
X199346252Y-115540000D01*
%TO.C,TP14*%
X115100000Y-128810000D02*
G75*
G02*
X113700000Y-128810000I-700000J0D01*
G01*
X113700000Y-128810000D02*
G75*
G02*
X115100000Y-128810000I700000J0D01*
G01*
%TO.C,R45*%
X192008241Y-112467000D02*
X191700959Y-112467000D01*
X192008241Y-113227000D02*
X191700959Y-113227000D01*
%TO.C,C47*%
X101340000Y-128582164D02*
X101340000Y-128797836D01*
X102060000Y-128582164D02*
X102060000Y-128797836D01*
%TO.C,TP22*%
X123240000Y-124820000D02*
G75*
G02*
X121340000Y-124820000I-950000J0D01*
G01*
X121340000Y-124820000D02*
G75*
G02*
X123240000Y-124820000I950000J0D01*
G01*
%TO.C,C33*%
X188375750Y-90616752D02*
X188375750Y-89194248D01*
X186555750Y-90616752D02*
X186555750Y-89194248D01*
%TO.C,C144*%
X188273748Y-104772500D02*
X189696252Y-104772500D01*
X188273748Y-106592500D02*
X189696252Y-106592500D01*
%TO.C,TP20*%
X172590000Y-123310000D02*
G75*
G02*
X170690000Y-123310000I-950000J0D01*
G01*
X170690000Y-123310000D02*
G75*
G02*
X172590000Y-123310000I950000J0D01*
G01*
%TO.C,R40*%
X158031759Y-124613000D02*
X158339041Y-124613000D01*
X158031759Y-125373000D02*
X158339041Y-125373000D01*
%TO.C,C94*%
X115353748Y-118650000D02*
X116776252Y-118650000D01*
X115353748Y-120470000D02*
X116776252Y-120470000D01*
%TO.C,C48*%
X103640000Y-129797836D02*
X103640000Y-129582164D01*
X104360000Y-129797836D02*
X104360000Y-129582164D01*
%TO.C,U2*%
X163480000Y-76167500D02*
X163480000Y-75187500D01*
X166200000Y-76167500D02*
X163480000Y-76167500D01*
X163480000Y-71447500D02*
X163480000Y-72427500D01*
X163480000Y-71447500D02*
X166060000Y-71447500D01*
X166610000Y-71597500D02*
X166370000Y-71267500D01*
X166850000Y-71267500D01*
X166610000Y-71597500D01*
G36*
X166610000Y-71597500D02*
G01*
X166370000Y-71267500D01*
X166850000Y-71267500D01*
X166610000Y-71597500D01*
G37*
%TO.C,TP19*%
X210260000Y-128310000D02*
G75*
G02*
X208360000Y-128310000I-950000J0D01*
G01*
X208360000Y-128310000D02*
G75*
G02*
X210260000Y-128310000I950000J0D01*
G01*
D12*
%TO.C,D3*%
X127196800Y-101179900D02*
X129254200Y-101179900D01*
X127196800Y-101469460D02*
X127196800Y-101179900D01*
X127196800Y-102780100D02*
X127196800Y-102490540D01*
D11*
X127648500Y-103050000D02*
X127648500Y-100804000D01*
D12*
X129254200Y-101179900D02*
X129254200Y-101469460D01*
X129254200Y-102490540D02*
X129254200Y-102780100D01*
X129254200Y-102780100D02*
X127196800Y-102780100D01*
D13*
%TO.C,TP9*%
X219180000Y-75620000D02*
G75*
G02*
X217780000Y-75620000I-700000J0D01*
G01*
X217780000Y-75620000D02*
G75*
G02*
X219180000Y-75620000I700000J0D01*
G01*
D12*
%TO.C,SW2*%
X224720400Y-71414100D02*
X226368860Y-71414100D01*
X224720400Y-72567260D02*
X224720400Y-71414100D01*
X224720400Y-76758260D02*
X224720400Y-74121740D01*
X224720400Y-79465900D02*
X224720400Y-78312740D01*
X226368860Y-79465900D02*
X224720400Y-79465900D01*
D13*
%TO.C,C4*%
X181625000Y-53141241D02*
X181625000Y-53422401D01*
X182645000Y-53141241D02*
X182645000Y-53422401D01*
%TO.C,U13*%
X138827500Y-51660000D02*
X137327500Y-51660000D01*
X138827500Y-51660000D02*
X140327500Y-51660000D01*
X138827500Y-54880000D02*
X137327500Y-54880000D01*
X138827500Y-54880000D02*
X140327500Y-54880000D01*
X136855000Y-55035000D02*
X136375000Y-55035000D01*
X136615000Y-54705000D01*
X136855000Y-55035000D01*
G36*
X136855000Y-55035000D02*
G01*
X136375000Y-55035000D01*
X136615000Y-54705000D01*
X136855000Y-55035000D01*
G37*
%TD*%
%LPC*%
D17*
%TO.C,U1*%
G36*
X184385000Y-51881822D02*
G01*
X184385000Y-52088822D01*
X184502049Y-52369751D01*
X184783001Y-52486822D01*
X184870001Y-52486822D01*
X184920003Y-52536822D01*
X184920001Y-52856821D01*
X184870001Y-52906821D01*
X183860000Y-52906821D01*
X183810000Y-52856821D01*
X183760000Y-52806821D01*
X183460001Y-52806821D01*
X183410001Y-52756822D01*
X183410001Y-52606822D01*
X183460001Y-52556822D01*
X183760000Y-52556822D01*
X183810000Y-52506822D01*
X183810000Y-52356822D01*
X183760000Y-52306820D01*
X183460001Y-52306820D01*
X183410001Y-52256820D01*
X183410001Y-52106820D01*
X183460001Y-52056820D01*
X183760000Y-52056820D01*
X183810000Y-52006821D01*
X183810000Y-51881822D01*
X183860000Y-51831822D01*
X184335001Y-51831822D01*
X184385000Y-51881822D01*
G37*
G36*
X186710000Y-51881822D02*
G01*
X186710000Y-52006821D01*
X186760000Y-52056820D01*
X187059999Y-52056820D01*
X187109999Y-52106820D01*
X187109999Y-52256820D01*
X187059999Y-52306820D01*
X186760000Y-52306820D01*
X186710000Y-52356822D01*
X186710000Y-52506822D01*
X186760000Y-52556822D01*
X187059999Y-52556822D01*
X187109999Y-52606822D01*
X187109999Y-52756822D01*
X187059999Y-52806821D01*
X186760000Y-52806821D01*
X186710000Y-52856821D01*
X186660000Y-52906821D01*
X185649999Y-52906821D01*
X185599999Y-52856821D01*
X185599997Y-52536822D01*
X185649999Y-52486822D01*
X185736999Y-52486822D01*
X185987092Y-52382609D01*
X186030806Y-52338896D01*
X186135000Y-52088822D01*
X186135000Y-51881822D01*
X186184999Y-51831822D01*
X186660000Y-51831822D01*
X186710000Y-51881822D01*
G37*
G36*
X184810001Y-53306820D02*
G01*
X184810001Y-55406819D01*
X184760004Y-55456821D01*
X183860000Y-55456821D01*
X183810000Y-55406819D01*
X183810000Y-55271820D01*
X183760000Y-55221820D01*
X183459999Y-55221820D01*
X183410001Y-55171821D01*
X183410001Y-55021821D01*
X183460001Y-54971821D01*
X183760000Y-54971821D01*
X183810000Y-54921821D01*
X183810000Y-54771821D01*
X183760000Y-54721821D01*
X183460001Y-54721821D01*
X183410001Y-54671822D01*
X183410001Y-54521822D01*
X183460001Y-54471819D01*
X183760000Y-54471822D01*
X183810000Y-54421820D01*
X183810000Y-54271822D01*
X183760000Y-54221820D01*
X183460001Y-54221820D01*
X183410001Y-54171820D01*
X183410001Y-54021820D01*
X183460001Y-53971820D01*
X183760000Y-53971820D01*
X183810000Y-53921818D01*
X183810000Y-53771821D01*
X183760000Y-53721816D01*
X183460001Y-53721821D01*
X183410001Y-53671824D01*
X183409999Y-53521821D01*
X183460001Y-53471824D01*
X183760000Y-53471821D01*
X183810000Y-53421822D01*
X183810000Y-53306820D01*
X183860003Y-53256823D01*
X184759998Y-53256821D01*
X184810001Y-53306820D01*
G37*
G36*
X186660000Y-53256823D02*
G01*
X186710000Y-53306820D01*
X186710000Y-53421822D01*
X186760000Y-53471821D01*
X187059999Y-53471824D01*
X187110001Y-53521821D01*
X187109999Y-53671824D01*
X187059999Y-53721821D01*
X186760000Y-53721818D01*
X186710000Y-53771821D01*
X186710000Y-53921818D01*
X186760000Y-53971820D01*
X187059999Y-53971820D01*
X187109999Y-54021820D01*
X187109999Y-54171820D01*
X187059999Y-54221820D01*
X186760000Y-54221820D01*
X186710000Y-54271820D01*
X186710000Y-54421822D01*
X186760000Y-54471819D01*
X187059999Y-54471819D01*
X187109999Y-54521822D01*
X187109999Y-54671822D01*
X187059999Y-54721821D01*
X186760000Y-54721821D01*
X186710000Y-54771821D01*
X186710000Y-54921821D01*
X186760000Y-54971821D01*
X187059999Y-54971821D01*
X187109999Y-55021821D01*
X187109999Y-55171821D01*
X187059999Y-55221820D01*
X186760000Y-55221820D01*
X186710000Y-55271820D01*
X186710000Y-55406819D01*
X186660000Y-55456821D01*
X185759999Y-55456821D01*
X185709999Y-55406819D01*
X185709999Y-53306820D01*
X185760002Y-53256821D01*
X186660000Y-53256823D01*
G37*
D13*
%TO.C,U5*%
X98520000Y-65750000D02*
X98520000Y-47750000D01*
%TD*%
D18*
%TO.C,H16*%
X171000000Y-87000000D03*
X221000000Y-87000000D03*
X221000000Y-137000000D03*
X171000000Y-137000000D03*
%TD*%
%TO.C,H15*%
X106000000Y-87000000D03*
X156000000Y-87000000D03*
X156000000Y-137000000D03*
X106000000Y-137000000D03*
%TD*%
D19*
%TO.C,H4*%
X99600000Y-146500000D03*
X100302944Y-144802944D03*
X100302944Y-148197056D03*
X102000000Y-144100000D03*
D20*
X102000000Y-146500000D03*
D19*
X102000000Y-148900000D03*
X103697056Y-144802944D03*
X103697056Y-148197056D03*
X104400000Y-146500000D03*
%TD*%
D21*
%TO.C,J7*%
X160930000Y-50670000D03*
D22*
X157570000Y-55750000D03*
X157570000Y-53210000D03*
D23*
X156610000Y-50670000D03*
D22*
X157570000Y-50670000D03*
X157570000Y-48130000D03*
%TD*%
D19*
%TO.C,H2*%
X99600000Y-41500000D03*
X100302944Y-39802944D03*
X100302944Y-43197056D03*
X102000000Y-39100000D03*
D20*
X102000000Y-41500000D03*
D19*
X102000000Y-43900000D03*
X103697056Y-39802944D03*
X103697056Y-43197056D03*
X104400000Y-41500000D03*
%TD*%
%TO.C,H3*%
X222600000Y-146500000D03*
X223302944Y-144802944D03*
X223302944Y-148197056D03*
X225000000Y-144100000D03*
D20*
X225000000Y-146500000D03*
D19*
X225000000Y-148900000D03*
X226697056Y-144802944D03*
X226697056Y-148197056D03*
X227400000Y-146500000D03*
%TD*%
D21*
%TO.C,J8*%
X169900000Y-50670000D03*
D22*
X166540000Y-55750000D03*
X166540000Y-53210000D03*
D23*
X165580000Y-50670000D03*
D22*
X166540000Y-50670000D03*
X166540000Y-48130000D03*
%TD*%
D24*
%TO.C,J3*%
X148200000Y-40550000D03*
D25*
X147800000Y-43090000D03*
X148200000Y-45630000D03*
X147800000Y-48170000D03*
%TD*%
D19*
%TO.C,H13*%
X160800000Y-41500000D03*
X161502944Y-39802944D03*
X161502944Y-43197056D03*
X163200000Y-39100000D03*
D20*
X163200000Y-41500000D03*
D19*
X163200000Y-43900000D03*
X164897056Y-39802944D03*
X164897056Y-43197056D03*
X165600000Y-41500000D03*
%TD*%
%TO.C,H1*%
X222600000Y-41500000D03*
X223302944Y-39802944D03*
X223302944Y-43197056D03*
X225000000Y-39100000D03*
D20*
X225000000Y-41500000D03*
D19*
X225000000Y-43900000D03*
X226697056Y-39802944D03*
X226697056Y-43197056D03*
X227400000Y-41500000D03*
%TD*%
%TO.C,H14*%
X160800000Y-146500000D03*
X161502944Y-144802944D03*
X161502944Y-148197056D03*
X163200000Y-144100000D03*
D20*
X163200000Y-146500000D03*
D19*
X163200000Y-148900000D03*
X164897056Y-144802944D03*
X164897056Y-148197056D03*
X165600000Y-146500000D03*
%TD*%
D26*
%TO.C,D1*%
X134583900Y-105190000D03*
X132247100Y-105190000D03*
%TD*%
D27*
%TO.C,C6*%
X200574250Y-72574500D03*
X200574250Y-71614500D03*
%TD*%
D28*
%TO.C,C13*%
X182402568Y-74490434D03*
X182402568Y-75450434D03*
%TD*%
D29*
%TO.C,R8*%
X136560000Y-60760000D03*
X136560000Y-59740000D03*
%TD*%
D27*
%TO.C,C67*%
X150876750Y-47910000D03*
X150876750Y-46950000D03*
%TD*%
D30*
%TO.C,C108*%
X144135000Y-119409500D03*
X147085000Y-119409500D03*
%TD*%
D26*
%TO.C,D11*%
X195028400Y-106053000D03*
X192691600Y-106053000D03*
%TD*%
D30*
%TO.C,C191*%
X132805000Y-114773833D03*
X135755000Y-114773833D03*
%TD*%
D28*
%TO.C,C27*%
X212054250Y-77414500D03*
X212054250Y-78374500D03*
%TD*%
D31*
%TO.C,U9*%
X175802500Y-124072500D03*
X175802500Y-123122500D03*
X175802500Y-122172500D03*
X178077500Y-122172500D03*
X178077500Y-124072500D03*
%TD*%
D32*
%TO.C,J2*%
X114570000Y-42465000D03*
X109490000Y-43481000D03*
X109490000Y-41449000D03*
D33*
X113300000Y-43100000D03*
X113300000Y-41830000D03*
X112030000Y-43100000D03*
X112030000Y-41830000D03*
X110760000Y-43100000D03*
X110760000Y-41830000D03*
%TD*%
D30*
%TO.C,C74*%
X192390000Y-114623333D03*
X195340000Y-114623333D03*
%TD*%
D34*
%TO.C,C63*%
X135337500Y-123007500D03*
X136297500Y-123007500D03*
%TD*%
D35*
%TO.C,TP10*%
X221660000Y-78720000D03*
%TD*%
D36*
%TO.C,C38*%
X201754250Y-91419500D03*
X201754250Y-88469500D03*
%TD*%
%TO.C,C39*%
X180565750Y-91380500D03*
X180565750Y-88430500D03*
%TD*%
D37*
%TO.C,C45*%
X107425000Y-46150000D03*
X105875000Y-46150000D03*
%TD*%
D26*
%TO.C,D12*%
X195038400Y-103953000D03*
X192701600Y-103953000D03*
%TD*%
D36*
%TO.C,C42*%
X197154250Y-91419500D03*
X197154250Y-88469500D03*
%TD*%
D34*
%TO.C,C181*%
X181845400Y-121413000D03*
X182805400Y-121413000D03*
%TD*%
D38*
%TO.C,U6*%
X112050000Y-125060000D03*
X114350000Y-125060000D03*
X114350000Y-126960000D03*
X112050000Y-126960000D03*
%TD*%
D39*
%TO.C,R27*%
X104810000Y-73290000D03*
X104810000Y-74310000D03*
%TD*%
D40*
%TO.C,U11*%
X119692500Y-127007500D03*
X118742500Y-127007500D03*
X117792500Y-127007500D03*
X117792500Y-124732500D03*
X119692500Y-124732500D03*
%TD*%
D30*
%TO.C,C116*%
X132790000Y-117165583D03*
X135740000Y-117165583D03*
%TD*%
D41*
%TO.C,U4*%
X189050000Y-75099566D03*
X189050000Y-75599566D03*
X189050000Y-76099566D03*
X189050000Y-76599566D03*
X189050000Y-77099566D03*
X189050000Y-77599566D03*
X189050000Y-78099566D03*
X189050000Y-78599566D03*
X189050000Y-79099566D03*
X189050000Y-79599566D03*
X189050000Y-80099566D03*
X189050000Y-80599566D03*
D42*
X188300000Y-81349566D03*
X187800000Y-81349566D03*
X187300000Y-81349566D03*
X186800000Y-81349566D03*
X186300000Y-81349566D03*
X185800000Y-81349566D03*
X185300000Y-81349566D03*
X184800000Y-81349566D03*
D41*
X184050000Y-80599566D03*
X184050000Y-80099566D03*
X184050000Y-79599566D03*
X184050000Y-79099566D03*
X184050000Y-78599566D03*
X184050000Y-78099566D03*
X184050000Y-77599566D03*
X184050000Y-77099566D03*
X184050000Y-76599566D03*
X184050000Y-76099566D03*
X184050000Y-75599566D03*
X184050000Y-75099566D03*
D42*
X184800000Y-74349566D03*
X185300000Y-74349566D03*
X185800000Y-74349566D03*
X186300000Y-74349566D03*
X186800000Y-74349566D03*
X187300000Y-74349566D03*
X187800000Y-74349566D03*
X188300000Y-74349566D03*
D43*
X187830000Y-79249566D03*
X187830000Y-77849566D03*
X187830000Y-76449566D03*
X186550000Y-80249566D03*
X186550000Y-79249566D03*
X186550000Y-77849566D03*
D44*
X186550000Y-77849566D03*
D43*
X186550000Y-76449566D03*
X186550000Y-75449566D03*
X185270000Y-79249566D03*
X185270000Y-77849566D03*
X185270000Y-76449566D03*
%TD*%
D30*
%TO.C,C188*%
X114590000Y-114663833D03*
X117540000Y-114663833D03*
%TD*%
%TO.C,C109*%
X144135000Y-117001750D03*
X147085000Y-117001750D03*
%TD*%
%TO.C,C190*%
X144140000Y-114620000D03*
X147090000Y-114620000D03*
%TD*%
D28*
%TO.C,C182*%
X194514800Y-111850000D03*
X194514800Y-112810000D03*
%TD*%
D30*
%TO.C,C102*%
X114730000Y-104420000D03*
X117680000Y-104420000D03*
%TD*%
D45*
%TO.C,U7*%
X103670001Y-124150000D03*
D46*
X104070000Y-123250000D03*
X104569999Y-123250000D03*
X105070000Y-123250000D03*
X105570000Y-123250000D03*
X106070001Y-123250000D03*
X106570000Y-123250000D03*
D45*
X106969999Y-124150000D03*
X106969999Y-124650000D03*
D46*
X106570000Y-125550000D03*
X106070001Y-125550000D03*
X105570000Y-125550000D03*
X105070000Y-125550000D03*
X104569999Y-125550000D03*
X104070000Y-125550000D03*
D45*
X103670001Y-124650000D03*
D47*
X106070001Y-124400000D03*
D48*
X105320000Y-124400000D03*
D47*
X104569999Y-124400000D03*
%TD*%
D49*
%TO.C,R34*%
X127335900Y-103615000D03*
X128355900Y-103615000D03*
%TD*%
D23*
%TO.C,TP5*%
X146240000Y-62770000D03*
%TD*%
D27*
%TO.C,C183*%
X134827500Y-53261750D03*
X134827500Y-52301750D03*
%TD*%
D23*
%TO.C,TP7*%
X180885000Y-49256821D03*
%TD*%
D50*
%TO.C,C9*%
X203210000Y-82185000D03*
X203210000Y-83735000D03*
%TD*%
D34*
%TO.C,C46*%
X112120000Y-122810000D03*
X113080000Y-122810000D03*
%TD*%
D29*
%TO.C,R6*%
X125990000Y-62790000D03*
X125990000Y-61770000D03*
%TD*%
D36*
%TO.C,C36*%
X204054250Y-91419500D03*
X204054250Y-88469500D03*
%TD*%
D49*
%TO.C,R28*%
X107120000Y-126640000D03*
X108140000Y-126640000D03*
%TD*%
D51*
%TO.C,C31*%
X207594250Y-72794500D03*
X206634250Y-72794500D03*
%TD*%
D30*
%TO.C,C151*%
X179816287Y-107122375D03*
X182766287Y-107122375D03*
%TD*%
%TO.C,C101*%
X114730000Y-106821083D03*
X117680000Y-106821083D03*
%TD*%
D23*
%TO.C,TP3*%
X159460000Y-60930000D03*
%TD*%
D49*
%TO.C,R24*%
X183840000Y-72799566D03*
X184860000Y-72799566D03*
%TD*%
D34*
%TO.C,C53*%
X189400000Y-112856750D03*
X190360000Y-112856750D03*
%TD*%
D29*
%TO.C,R37*%
X133708000Y-111479600D03*
X133708000Y-110459600D03*
%TD*%
D51*
%TO.C,C51*%
X201410000Y-112670000D03*
X200450000Y-112670000D03*
%TD*%
D35*
%TO.C,TP11*%
X221670000Y-75580000D03*
%TD*%
D36*
%TO.C,C130*%
X139433833Y-98705000D03*
X139433833Y-101655000D03*
%TD*%
D30*
%TO.C,C186*%
X127420000Y-115260000D03*
X130370000Y-115260000D03*
%TD*%
%TO.C,C122*%
X144055000Y-109371750D03*
X147005000Y-109371750D03*
%TD*%
D52*
%TO.C,U1*%
X184760001Y-51781822D03*
X185260000Y-51781822D03*
X185759999Y-51781822D03*
%TD*%
D49*
%TO.C,R26*%
X206624250Y-71764500D03*
X207644250Y-71764500D03*
%TD*%
D36*
%TO.C,C129*%
X137028250Y-98705000D03*
X137028250Y-101655000D03*
%TD*%
D34*
%TO.C,C60*%
X118762500Y-128670000D03*
X119722500Y-128670000D03*
%TD*%
D40*
%TO.C,U8*%
X206602500Y-129837500D03*
X205652500Y-129837500D03*
X204702500Y-129837500D03*
X204702500Y-127562500D03*
X206602500Y-127562500D03*
%TD*%
D50*
%TO.C,C10*%
X182645000Y-82235000D03*
X182645000Y-83785000D03*
%TD*%
D49*
%TO.C,R17*%
X214294250Y-68194500D03*
X215314250Y-68194500D03*
%TD*%
D30*
%TO.C,C95*%
X114590000Y-117111917D03*
X117540000Y-117111917D03*
%TD*%
D53*
%TO.C,SW1*%
X101797000Y-77485500D03*
X101797000Y-73294500D03*
D54*
X99904700Y-78768200D03*
X99904700Y-72011800D03*
%TD*%
D36*
%TO.C,C41*%
X178265750Y-91380500D03*
X178265750Y-88430500D03*
%TD*%
D39*
%TO.C,R4*%
X136550000Y-57440000D03*
X136550000Y-58460000D03*
%TD*%
D23*
%TO.C,TP12*%
X225605750Y-102975500D03*
%TD*%
D36*
%TO.C,C37*%
X182865750Y-91380500D03*
X182865750Y-88430500D03*
%TD*%
D55*
%TO.C,J1*%
X205759823Y-51020000D03*
X200759823Y-51020000D03*
D56*
X208759823Y-41020000D03*
X197759823Y-41020000D03*
%TD*%
D30*
%TO.C,C73*%
X192390000Y-117035833D03*
X195340000Y-117035833D03*
%TD*%
D35*
%TO.C,TP16*%
X208150000Y-123610000D03*
%TD*%
D30*
%TO.C,C196*%
X179816287Y-104724875D03*
X182766287Y-104724875D03*
%TD*%
D57*
%TO.C,C26*%
X191980000Y-79690000D03*
X191980000Y-77790000D03*
%TD*%
D58*
%TO.C,L1*%
X213544250Y-91804500D03*
X213544250Y-86084500D03*
%TD*%
D28*
%TO.C,C62*%
X179664250Y-122975750D03*
X179664250Y-123935750D03*
%TD*%
D35*
%TO.C,FID6*%
X107002200Y-148005000D03*
%TD*%
D59*
%TO.C,R36*%
X134355100Y-100359000D03*
X133335100Y-100359000D03*
%TD*%
D23*
%TO.C,TP4*%
X164800000Y-60920000D03*
%TD*%
D49*
%TO.C,R5*%
X183175000Y-50131821D03*
X184195000Y-50131821D03*
%TD*%
D27*
%TO.C,C180*%
X132318000Y-110459600D03*
X132318000Y-109499600D03*
%TD*%
D50*
%TO.C,C12*%
X181170000Y-82235000D03*
X181170000Y-83785000D03*
%TD*%
D58*
%TO.C,L2*%
X192360750Y-91870500D03*
X192360750Y-86150500D03*
%TD*%
D60*
%TO.C,J4*%
X186650000Y-44680000D03*
X186150000Y-44680000D03*
X185650000Y-44680000D03*
X185150000Y-44680000D03*
X184650000Y-44680000D03*
X184150000Y-44680000D03*
X183650000Y-44680000D03*
X183150000Y-44680000D03*
D61*
X181450000Y-42000000D03*
X188350000Y-42000000D03*
%TD*%
D59*
%TO.C,R22*%
X130905000Y-45208250D03*
X129885000Y-45208250D03*
%TD*%
D30*
%TO.C,C195*%
X187520000Y-110435000D03*
X190470000Y-110435000D03*
%TD*%
D62*
%TO.C,J5*%
X119460000Y-44565000D03*
X125240000Y-44565000D03*
D63*
X119150000Y-45640000D03*
X119950000Y-45640000D03*
D64*
X121100000Y-45640000D03*
X122100000Y-45640000D03*
X122600000Y-45640000D03*
X123600000Y-45640000D03*
D63*
X125550000Y-45640000D03*
X124750000Y-45640000D03*
D64*
X124100000Y-45640000D03*
X123100000Y-45640000D03*
X121600000Y-45640000D03*
X120600000Y-45640000D03*
D65*
X118030000Y-40885000D03*
D66*
X118030000Y-45065000D03*
D65*
X126670000Y-40885000D03*
D66*
X126670000Y-45065000D03*
%TD*%
D51*
%TO.C,C56*%
X119160000Y-102458250D03*
X118200000Y-102458250D03*
%TD*%
D41*
%TO.C,U3*%
X209804250Y-74994500D03*
X209804250Y-75494500D03*
X209804250Y-75994500D03*
X209804250Y-76494500D03*
X209804250Y-76994500D03*
X209804250Y-77494500D03*
X209804250Y-77994500D03*
X209804250Y-78494500D03*
X209804250Y-78994500D03*
X209804250Y-79494500D03*
X209804250Y-79994500D03*
X209804250Y-80494500D03*
D42*
X209054250Y-81244500D03*
X208554250Y-81244500D03*
X208054250Y-81244500D03*
X207554250Y-81244500D03*
X207054250Y-81244500D03*
X206554250Y-81244500D03*
X206054250Y-81244500D03*
X205554250Y-81244500D03*
D41*
X204804250Y-80494500D03*
X204804250Y-79994500D03*
X204804250Y-79494500D03*
X204804250Y-78994500D03*
X204804250Y-78494500D03*
X204804250Y-77994500D03*
X204804250Y-77494500D03*
X204804250Y-76994500D03*
X204804250Y-76494500D03*
X204804250Y-75994500D03*
X204804250Y-75494500D03*
X204804250Y-74994500D03*
D42*
X205554250Y-74244500D03*
X206054250Y-74244500D03*
X206554250Y-74244500D03*
X207054250Y-74244500D03*
X207554250Y-74244500D03*
X208054250Y-74244500D03*
X208554250Y-74244500D03*
X209054250Y-74244500D03*
D43*
X208584250Y-79144500D03*
X208584250Y-77744500D03*
X208584250Y-76344500D03*
X207304250Y-80144500D03*
X207304250Y-79144500D03*
X207304250Y-77744500D03*
D44*
X207304250Y-77744500D03*
D43*
X207304250Y-76344500D03*
X207304250Y-75344500D03*
X206024250Y-79144500D03*
X206024250Y-77744500D03*
X206024250Y-76344500D03*
%TD*%
D59*
%TO.C,R39*%
X161224600Y-123427000D03*
X160204600Y-123427000D03*
%TD*%
D26*
%TO.C,D9*%
X194998400Y-109193000D03*
X192661600Y-109193000D03*
%TD*%
D29*
%TO.C,R7*%
X135370000Y-61460000D03*
X135370000Y-60440000D03*
%TD*%
D59*
%TO.C,R9*%
X200484250Y-74024500D03*
X199464250Y-74024500D03*
%TD*%
D39*
%TO.C,R30*%
X150866750Y-52720000D03*
X150866750Y-53740000D03*
%TD*%
D59*
%TO.C,R42*%
X164544600Y-128137000D03*
X163524600Y-128137000D03*
%TD*%
D28*
%TO.C,C58*%
X174247500Y-123122500D03*
X174247500Y-124082500D03*
%TD*%
D34*
%TO.C,C2*%
X165860000Y-77470000D03*
X166820000Y-77470000D03*
%TD*%
D30*
%TO.C,C150*%
X179816287Y-109534875D03*
X182766287Y-109534875D03*
%TD*%
D36*
%TO.C,C193*%
X141820000Y-98720000D03*
X141820000Y-101670000D03*
%TD*%
D49*
%TO.C,R46*%
X192945400Y-107623000D03*
X193965400Y-107623000D03*
%TD*%
%TO.C,R41*%
X166005400Y-126553000D03*
X167025400Y-126553000D03*
%TD*%
D35*
%TO.C,TP17*%
X211200000Y-123610000D03*
%TD*%
D51*
%TO.C,C50*%
X141430000Y-121455000D03*
X140470000Y-121455000D03*
%TD*%
D26*
%TO.C,D5*%
X164768400Y-123433000D03*
X162431600Y-123433000D03*
%TD*%
D23*
%TO.C,TP6*%
X140600000Y-62780000D03*
%TD*%
D67*
%TO.C,R21*%
X213884250Y-74617000D03*
X213884250Y-72792000D03*
%TD*%
D23*
%TO.C,TP13*%
X222320000Y-91870000D03*
%TD*%
D34*
%TO.C,C3*%
X165450000Y-70210000D03*
X166410000Y-70210000D03*
%TD*%
D40*
%TO.C,U10*%
X136382500Y-126987500D03*
X135432500Y-126987500D03*
X134482500Y-126987500D03*
X134482500Y-124712500D03*
X136382500Y-124712500D03*
%TD*%
D30*
%TO.C,C136*%
X179850000Y-117050000D03*
X182800000Y-117050000D03*
%TD*%
D29*
%TO.C,R25*%
X205194250Y-72794500D03*
X205194250Y-71774500D03*
%TD*%
D51*
%TO.C,C16*%
X203994250Y-71314500D03*
X203034250Y-71314500D03*
%TD*%
%TO.C,C49*%
X206530000Y-121635000D03*
X205570000Y-121635000D03*
%TD*%
D39*
%TO.C,R51*%
X144200000Y-50750000D03*
X144200000Y-51770000D03*
%TD*%
D30*
%TO.C,C158*%
X208050000Y-106972500D03*
X211000000Y-106972500D03*
%TD*%
D35*
%TO.C,FID5*%
X219002200Y-147005000D03*
%TD*%
D51*
%TO.C,C23*%
X214384250Y-71354500D03*
X213424250Y-71354500D03*
%TD*%
D39*
%TO.C,R10*%
X201654250Y-71584500D03*
X201654250Y-72604500D03*
%TD*%
D30*
%TO.C,C171*%
X208150000Y-119210000D03*
X211100000Y-119210000D03*
%TD*%
%TO.C,C194*%
X179850000Y-119450000D03*
X182800000Y-119450000D03*
%TD*%
D59*
%TO.C,R20*%
X130905000Y-43758250D03*
X129885000Y-43758250D03*
%TD*%
D30*
%TO.C,C185*%
X192380000Y-119440000D03*
X195330000Y-119440000D03*
%TD*%
%TO.C,C123*%
X144055000Y-106982833D03*
X147005000Y-106982833D03*
%TD*%
D29*
%TO.C,R52*%
X144230000Y-53530000D03*
X144230000Y-54550000D03*
%TD*%
D68*
%TO.C,C1*%
X188535000Y-52156821D03*
X188535000Y-50606821D03*
%TD*%
D26*
%TO.C,D10*%
X197558400Y-107633000D03*
X195221600Y-107633000D03*
%TD*%
D51*
%TO.C,C184*%
X148750000Y-53710000D03*
X149710000Y-53710000D03*
%TD*%
D67*
%TO.C,R23*%
X191950000Y-76017500D03*
X191950000Y-74192500D03*
%TD*%
D28*
%TO.C,C44*%
X103650000Y-73310000D03*
X103650000Y-74270000D03*
%TD*%
D34*
%TO.C,C61*%
X205462500Y-125972500D03*
X206422500Y-125972500D03*
%TD*%
D28*
%TO.C,C54*%
X184358250Y-103840000D03*
X184358250Y-104800000D03*
%TD*%
D69*
%TO.C,C7*%
X198279250Y-78457000D03*
X198279250Y-84682000D03*
%TD*%
D39*
%TO.C,R49*%
X195592400Y-111820000D03*
X195592400Y-112840000D03*
%TD*%
D35*
%TO.C,TP18*%
X214250000Y-123610000D03*
%TD*%
D51*
%TO.C,C55*%
X124820000Y-111303250D03*
X123860000Y-111303250D03*
%TD*%
D30*
%TO.C,C80*%
X127395000Y-120041167D03*
X130345000Y-120041167D03*
%TD*%
D34*
%TO.C,C59*%
X135502500Y-128587500D03*
X136462500Y-128587500D03*
%TD*%
D30*
%TO.C,C115*%
X132790000Y-119590000D03*
X135740000Y-119590000D03*
%TD*%
D29*
%TO.C,R38*%
X133698000Y-109229600D03*
X133698000Y-108209600D03*
%TD*%
D30*
%TO.C,C164*%
X199065000Y-110420000D03*
X202015000Y-110420000D03*
%TD*%
%TO.C,C187*%
X127365000Y-107638250D03*
X130315000Y-107638250D03*
%TD*%
%TO.C,C81*%
X127395000Y-117651750D03*
X130345000Y-117651750D03*
%TD*%
D68*
%TO.C,C66*%
X172940000Y-51590000D03*
X172940000Y-53140000D03*
%TD*%
D49*
%TO.C,R11*%
X216894250Y-69644500D03*
X217914250Y-69644500D03*
%TD*%
D30*
%TO.C,C179*%
X197160000Y-117012500D03*
X200110000Y-117012500D03*
%TD*%
%TO.C,C199*%
X208150000Y-114410000D03*
X211100000Y-114410000D03*
%TD*%
D51*
%TO.C,C52*%
X135790000Y-111540000D03*
X134830000Y-111540000D03*
%TD*%
D49*
%TO.C,R43*%
X180855400Y-122523000D03*
X181875400Y-122523000D03*
%TD*%
D26*
%TO.C,D2*%
X132023900Y-103600000D03*
X129687100Y-103600000D03*
%TD*%
D23*
%TO.C,TP1*%
X134745000Y-69341821D03*
%TD*%
D70*
%TO.C,U5*%
X106010000Y-48000000D03*
X107280000Y-48000000D03*
X108550000Y-48000000D03*
X109820000Y-48000000D03*
X111090000Y-48000000D03*
X112360000Y-48000000D03*
X113630000Y-48000000D03*
X114900000Y-48000000D03*
X116170000Y-48000000D03*
X117440000Y-48000000D03*
X118710000Y-48000000D03*
X119980000Y-48000000D03*
X121250000Y-48000000D03*
X122520000Y-48000000D03*
D71*
X123770000Y-49765000D03*
X123770000Y-51035000D03*
X123770000Y-52305000D03*
X123770000Y-53575000D03*
X123770000Y-54845000D03*
X123770000Y-56115000D03*
X123770000Y-57385000D03*
X123770000Y-58655000D03*
X123770000Y-59925000D03*
X123770000Y-61195000D03*
X123770000Y-62465000D03*
X123770000Y-63735000D03*
D70*
X122520000Y-65500000D03*
X121250000Y-65500000D03*
X119980000Y-65500000D03*
X118710000Y-65500000D03*
X117440000Y-65500000D03*
X116170000Y-65500000D03*
X114900000Y-65500000D03*
X113630000Y-65500000D03*
X112360000Y-65500000D03*
X111090000Y-65500000D03*
X109820000Y-65500000D03*
X108550000Y-65500000D03*
X107280000Y-65500000D03*
X106010000Y-65500000D03*
D72*
X115130000Y-53850000D03*
X113730000Y-53850000D03*
X112330000Y-53850000D03*
X115130000Y-55250000D03*
X113730000Y-55250000D03*
X112330000Y-55250000D03*
X115130000Y-56650000D03*
X113730000Y-56650000D03*
X112330000Y-56650000D03*
%TD*%
D50*
%TO.C,C11*%
X201735000Y-82185000D03*
X201735000Y-83735000D03*
%TD*%
D30*
%TO.C,C172*%
X208150000Y-116795833D03*
X211100000Y-116795833D03*
%TD*%
D28*
%TO.C,C28*%
X190430000Y-77999566D03*
X190430000Y-78959566D03*
%TD*%
D30*
%TO.C,C192*%
X144060000Y-104600000D03*
X147010000Y-104600000D03*
%TD*%
D26*
%TO.C,D4*%
X132013900Y-100350000D03*
X129677100Y-100350000D03*
%TD*%
D36*
%TO.C,C35*%
X185165750Y-91380500D03*
X185165750Y-88430500D03*
%TD*%
D35*
%TO.C,FID7*%
X219002200Y-40005000D03*
%TD*%
D59*
%TO.C,R14*%
X215329250Y-69644500D03*
X214309250Y-69644500D03*
%TD*%
D68*
%TO.C,C5*%
X180585000Y-54056821D03*
X180585000Y-52506821D03*
%TD*%
D51*
%TO.C,C29*%
X186930000Y-72849566D03*
X185970000Y-72849566D03*
%TD*%
D30*
%TO.C,C197*%
X208050000Y-104590000D03*
X211000000Y-104590000D03*
%TD*%
D23*
%TO.C,TP21*%
X138750000Y-125740000D03*
%TD*%
D30*
%TO.C,C198*%
X199050000Y-105600000D03*
X202000000Y-105600000D03*
%TD*%
D34*
%TO.C,C30*%
X205594250Y-70734500D03*
X206554250Y-70734500D03*
%TD*%
D23*
%TO.C,TP2*%
X130820000Y-65980000D03*
%TD*%
D26*
%TO.C,D8*%
X162268400Y-128143000D03*
X159931600Y-128143000D03*
%TD*%
D49*
%TO.C,R35*%
X130735900Y-101985000D03*
X131755900Y-101985000D03*
%TD*%
D29*
%TO.C,R48*%
X196375000Y-104194600D03*
X196375000Y-103174600D03*
%TD*%
D36*
%TO.C,C32*%
X208654250Y-91419500D03*
X208654250Y-88469500D03*
%TD*%
D29*
%TO.C,R29*%
X150856750Y-50030000D03*
X150856750Y-49010000D03*
%TD*%
D30*
%TO.C,C87*%
X127390000Y-112410000D03*
X130340000Y-112410000D03*
%TD*%
D36*
%TO.C,C40*%
X199454250Y-91419500D03*
X199454250Y-88469500D03*
%TD*%
D39*
%TO.C,R15*%
X127430000Y-60530000D03*
X127430000Y-61550000D03*
%TD*%
D69*
%TO.C,C8*%
X178025000Y-78787066D03*
X178025000Y-85012066D03*
%TD*%
D36*
%TO.C,C34*%
X206354250Y-91419500D03*
X206354250Y-88469500D03*
%TD*%
%TO.C,C43*%
X175953250Y-91380500D03*
X175953250Y-88430500D03*
%TD*%
D49*
%TO.C,R44*%
X182875400Y-122508300D03*
X183895400Y-122508300D03*
%TD*%
D34*
%TO.C,C57*%
X205662500Y-131342500D03*
X206622500Y-131342500D03*
%TD*%
D30*
%TO.C,C88*%
X127380000Y-110040000D03*
X130330000Y-110040000D03*
%TD*%
D28*
%TO.C,C18*%
X182410000Y-72530000D03*
X182410000Y-73490000D03*
%TD*%
D30*
%TO.C,C137*%
X179850000Y-114622500D03*
X182800000Y-114622500D03*
%TD*%
D49*
%TO.C,R19*%
X180390000Y-73440000D03*
X181410000Y-73440000D03*
%TD*%
D39*
%TO.C,R3*%
X135370000Y-57440000D03*
X135370000Y-58460000D03*
%TD*%
D49*
%TO.C,R1*%
X185900000Y-50081821D03*
X186920000Y-50081821D03*
%TD*%
D30*
%TO.C,C178*%
X197160000Y-119420000D03*
X200110000Y-119420000D03*
%TD*%
%TO.C,C143*%
X187510000Y-108055000D03*
X190460000Y-108055000D03*
%TD*%
D26*
%TO.C,D7*%
X164778400Y-126563000D03*
X162441600Y-126563000D03*
%TD*%
D49*
%TO.C,R18*%
X199464250Y-75224500D03*
X200484250Y-75224500D03*
%TD*%
D30*
%TO.C,C157*%
X208050000Y-109400000D03*
X211000000Y-109400000D03*
%TD*%
D29*
%TO.C,R50*%
X196670000Y-112840000D03*
X196670000Y-111820000D03*
%TD*%
D28*
%TO.C,C17*%
X201584250Y-74094500D03*
X201584250Y-75054500D03*
%TD*%
D35*
%TO.C,TP8*%
X216444250Y-72184500D03*
%TD*%
D39*
%TO.C,R2*%
X125990000Y-59210000D03*
X125990000Y-60230000D03*
%TD*%
D59*
%TO.C,R33*%
X130915100Y-105179000D03*
X129895100Y-105179000D03*
%TD*%
D29*
%TO.C,R47*%
X196370000Y-106130000D03*
X196370000Y-105110000D03*
%TD*%
D30*
%TO.C,C165*%
X199065000Y-108002500D03*
X202015000Y-108002500D03*
%TD*%
D57*
%TO.C,C25*%
X213579250Y-78369500D03*
X213579250Y-76469500D03*
%TD*%
D34*
%TO.C,C64*%
X118822500Y-123147500D03*
X119782500Y-123147500D03*
%TD*%
D30*
%TO.C,C189*%
X114720000Y-109231083D03*
X117670000Y-109231083D03*
%TD*%
D37*
%TO.C,C65*%
X152740000Y-53250000D03*
X154290000Y-53250000D03*
%TD*%
D35*
%TO.C,FID8*%
X107002200Y-40005000D03*
%TD*%
%TO.C,TP15*%
X205100000Y-123610000D03*
%TD*%
D28*
%TO.C,C24*%
X190420000Y-74649566D03*
X190420000Y-75609566D03*
%TD*%
D26*
%TO.C,D6*%
X162248400Y-125013000D03*
X159911600Y-125013000D03*
%TD*%
D30*
%TO.C,C200*%
X197160000Y-114630000D03*
X200110000Y-114630000D03*
%TD*%
D35*
%TO.C,TP14*%
X114400000Y-128810000D03*
%TD*%
D59*
%TO.C,R45*%
X192364600Y-112847000D03*
X191344600Y-112847000D03*
%TD*%
D27*
%TO.C,C47*%
X101700000Y-129170000D03*
X101700000Y-128210000D03*
%TD*%
D23*
%TO.C,TP22*%
X122290000Y-124820000D03*
%TD*%
D36*
%TO.C,C33*%
X187465750Y-91380500D03*
X187465750Y-88430500D03*
%TD*%
D30*
%TO.C,C144*%
X187510000Y-105682500D03*
X190460000Y-105682500D03*
%TD*%
D23*
%TO.C,TP20*%
X171640000Y-123310000D03*
%TD*%
D49*
%TO.C,R40*%
X157675400Y-124993000D03*
X158695400Y-124993000D03*
%TD*%
D30*
%TO.C,C94*%
X114590000Y-119560000D03*
X117540000Y-119560000D03*
%TD*%
D28*
%TO.C,C48*%
X104000000Y-129210000D03*
X104000000Y-130170000D03*
%TD*%
D73*
%TO.C,U2*%
X166790000Y-72307500D03*
D74*
X166702500Y-73807500D03*
D73*
X166790000Y-75307500D03*
%TD*%
D23*
%TO.C,TP19*%
X209310000Y-128310000D03*
%TD*%
D26*
%TO.C,D3*%
X129393900Y-101980000D03*
X127057100Y-101980000D03*
%TD*%
D35*
%TO.C,TP9*%
X218480000Y-75620000D03*
%TD*%
D53*
%TO.C,SW2*%
X225203000Y-73344500D03*
X225203000Y-77535500D03*
D54*
X227095300Y-72061800D03*
X227095300Y-78818200D03*
%TD*%
D68*
%TO.C,C4*%
X182135000Y-54056821D03*
X182135000Y-52506821D03*
%TD*%
D75*
%TO.C,U13*%
X136715000Y-54270000D03*
X136715000Y-53770000D03*
X136715000Y-53270000D03*
X136715000Y-52770000D03*
X136715000Y-52270000D03*
X140940000Y-52270000D03*
X140940000Y-52770000D03*
X140940000Y-53270000D03*
X140940000Y-53770000D03*
X140940000Y-54270000D03*
%TD*%
%LPD*%
M02*
