%TF.GenerationSoftware,KiCad,Pcbnew,7.0.9*%
%TF.CreationDate,2024-02-22T17:15:05-05:00*%
%TF.ProjectId,blockaxe1,626c6f63-6b61-4786-9531-2e6b69636164,rev?*%
%TF.SameCoordinates,Original*%
%TF.FileFunction,Legend,Bot*%
%TF.FilePolarity,Positive*%
%FSLAX46Y46*%
G04 Gerber Fmt 4.6, Leading zero omitted, Abs format (unit mm)*
G04 Created by KiCad (PCBNEW 7.0.9) date 2024-02-22 17:15:05*
%MOMM*%
%LPD*%
G01*
G04 APERTURE LIST*
G04 Aperture macros list*
%AMRoundRect*
0 Rectangle with rounded corners*
0 $1 Rounding radius*
0 $2 $3 $4 $5 $6 $7 $8 $9 X,Y pos of 4 corners*
0 Add a 4 corners polygon primitive as box body*
4,1,4,$2,$3,$4,$5,$6,$7,$8,$9,$2,$3,0*
0 Add four circle primitives for the rounded corners*
1,1,$1+$1,$2,$3*
1,1,$1+$1,$4,$5*
1,1,$1+$1,$6,$7*
1,1,$1+$1,$8,$9*
0 Add four rect primitives between the rounded corners*
20,1,$1+$1,$2,$3,$4,$5,0*
20,1,$1+$1,$4,$5,$6,$7,0*
20,1,$1+$1,$6,$7,$8,$9,0*
20,1,$1+$1,$8,$9,$2,$3,0*%
G04 Aperture macros list end*
%ADD10C,0.150000*%
%ADD11C,0.300000*%
%ADD12C,0.280000*%
%ADD13C,0.120000*%
%ADD14C,0.152400*%
%ADD15C,0.310000*%
%ADD16C,0.367500*%
%ADD17C,0.127000*%
%ADD18C,3.500000*%
%ADD19C,0.650000*%
%ADD20RoundRect,0.150000X0.425000X-0.150000X0.425000X0.150000X-0.425000X0.150000X-0.425000X-0.150000X0*%
%ADD21RoundRect,0.075000X0.500000X-0.075000X0.500000X0.075000X-0.500000X0.075000X-0.500000X-0.075000X0*%
%ADD22O,2.100000X1.000000*%
%ADD23O,1.800000X1.000000*%
%ADD24C,0.800000*%
%ADD25C,6.000000*%
%ADD26C,0.500000*%
%ADD27R,1.900000X1.000000*%
%ADD28C,1.295400*%
%ADD29C,1.574800*%
%ADD30RoundRect,0.250000X1.500000X0.550000X-1.500000X0.550000X-1.500000X-0.550000X1.500000X-0.550000X0*%
%ADD31C,0.990600*%
%ADD32C,0.787400*%
%ADD33R,0.889000X1.270000*%
%ADD34R,1.447800X0.812800*%
%ADD35C,2.000000*%
%ADD36R,1.700000X1.700000*%
%ADD37O,1.700000X1.700000*%
%ADD38R,0.305000X0.305000*%
%ADD39R,0.535000X0.305000*%
%ADD40R,0.805000X0.805000*%
%ADD41O,2.104000X4.004000*%
%ADD42O,4.004000X2.104000*%
%ADD43R,0.900000X1.500000*%
%ADD44R,1.500000X0.900000*%
%ADD45R,0.900000X0.900000*%
G04 APERTURE END LIST*
D10*
X112090000Y-96640000D02*
X152070000Y-96640000D01*
X152070000Y-136630000D01*
X112090000Y-136630000D01*
X112090000Y-96640000D01*
X156266077Y-127014819D02*
X155694649Y-127014819D01*
X155980363Y-128014819D02*
X155980363Y-127014819D01*
X155456553Y-127014819D02*
X154789887Y-128014819D01*
X154789887Y-127014819D02*
X155456553Y-128014819D01*
X154408934Y-128014819D02*
X154408934Y-127014819D01*
X155551792Y-125439819D02*
X155885125Y-124963628D01*
X156123220Y-125439819D02*
X156123220Y-124439819D01*
X156123220Y-124439819D02*
X155742268Y-124439819D01*
X155742268Y-124439819D02*
X155647030Y-124487438D01*
X155647030Y-124487438D02*
X155599411Y-124535057D01*
X155599411Y-124535057D02*
X155551792Y-124630295D01*
X155551792Y-124630295D02*
X155551792Y-124773152D01*
X155551792Y-124773152D02*
X155599411Y-124868390D01*
X155599411Y-124868390D02*
X155647030Y-124916009D01*
X155647030Y-124916009D02*
X155742268Y-124963628D01*
X155742268Y-124963628D02*
X156123220Y-124963628D01*
X155218458Y-124439819D02*
X154551792Y-125439819D01*
X154551792Y-124439819D02*
X155218458Y-125439819D01*
X153980363Y-124439819D02*
X153789887Y-124439819D01*
X153789887Y-124439819D02*
X153694649Y-124487438D01*
X153694649Y-124487438D02*
X153599411Y-124582676D01*
X153599411Y-124582676D02*
X153551792Y-124773152D01*
X153551792Y-124773152D02*
X153551792Y-125106485D01*
X153551792Y-125106485D02*
X153599411Y-125296961D01*
X153599411Y-125296961D02*
X153694649Y-125392200D01*
X153694649Y-125392200D02*
X153789887Y-125439819D01*
X153789887Y-125439819D02*
X153980363Y-125439819D01*
X153980363Y-125439819D02*
X154075601Y-125392200D01*
X154075601Y-125392200D02*
X154170839Y-125296961D01*
X154170839Y-125296961D02*
X154218458Y-125106485D01*
X154218458Y-125106485D02*
X154218458Y-124773152D01*
X154218458Y-124773152D02*
X154170839Y-124582676D01*
X154170839Y-124582676D02*
X154075601Y-124487438D01*
X154075601Y-124487438D02*
X153980363Y-124439819D01*
D11*
X121278346Y-52400828D02*
X121778346Y-51686542D01*
X122135489Y-52400828D02*
X122135489Y-50900828D01*
X122135489Y-50900828D02*
X121564060Y-50900828D01*
X121564060Y-50900828D02*
X121421203Y-50972257D01*
X121421203Y-50972257D02*
X121349774Y-51043685D01*
X121349774Y-51043685D02*
X121278346Y-51186542D01*
X121278346Y-51186542D02*
X121278346Y-51400828D01*
X121278346Y-51400828D02*
X121349774Y-51543685D01*
X121349774Y-51543685D02*
X121421203Y-51615114D01*
X121421203Y-51615114D02*
X121564060Y-51686542D01*
X121564060Y-51686542D02*
X122135489Y-51686542D01*
X120635489Y-51615114D02*
X120135489Y-51615114D01*
X119921203Y-52400828D02*
X120635489Y-52400828D01*
X120635489Y-52400828D02*
X120635489Y-50900828D01*
X120635489Y-50900828D02*
X119921203Y-50900828D01*
X119349774Y-52329400D02*
X119135489Y-52400828D01*
X119135489Y-52400828D02*
X118778346Y-52400828D01*
X118778346Y-52400828D02*
X118635489Y-52329400D01*
X118635489Y-52329400D02*
X118564060Y-52257971D01*
X118564060Y-52257971D02*
X118492631Y-52115114D01*
X118492631Y-52115114D02*
X118492631Y-51972257D01*
X118492631Y-51972257D02*
X118564060Y-51829400D01*
X118564060Y-51829400D02*
X118635489Y-51757971D01*
X118635489Y-51757971D02*
X118778346Y-51686542D01*
X118778346Y-51686542D02*
X119064060Y-51615114D01*
X119064060Y-51615114D02*
X119206917Y-51543685D01*
X119206917Y-51543685D02*
X119278346Y-51472257D01*
X119278346Y-51472257D02*
X119349774Y-51329400D01*
X119349774Y-51329400D02*
X119349774Y-51186542D01*
X119349774Y-51186542D02*
X119278346Y-51043685D01*
X119278346Y-51043685D02*
X119206917Y-50972257D01*
X119206917Y-50972257D02*
X119064060Y-50900828D01*
X119064060Y-50900828D02*
X118706917Y-50900828D01*
X118706917Y-50900828D02*
X118492631Y-50972257D01*
X117849775Y-51615114D02*
X117349775Y-51615114D01*
X117135489Y-52400828D02*
X117849775Y-52400828D01*
X117849775Y-52400828D02*
X117849775Y-50900828D01*
X117849775Y-50900828D02*
X117135489Y-50900828D01*
X116706917Y-50900828D02*
X115849775Y-50900828D01*
X116278346Y-52400828D02*
X116278346Y-50900828D01*
D10*
X114899411Y-87069819D02*
X115470839Y-87069819D01*
X115185125Y-87069819D02*
X115185125Y-86069819D01*
X115185125Y-86069819D02*
X115280363Y-86212676D01*
X115280363Y-86212676D02*
X115375601Y-86307914D01*
X115375601Y-86307914D02*
X115470839Y-86355533D01*
X114280363Y-86069819D02*
X114185125Y-86069819D01*
X114185125Y-86069819D02*
X114089887Y-86117438D01*
X114089887Y-86117438D02*
X114042268Y-86165057D01*
X114042268Y-86165057D02*
X113994649Y-86260295D01*
X113994649Y-86260295D02*
X113947030Y-86450771D01*
X113947030Y-86450771D02*
X113947030Y-86688866D01*
X113947030Y-86688866D02*
X113994649Y-86879342D01*
X113994649Y-86879342D02*
X114042268Y-86974580D01*
X114042268Y-86974580D02*
X114089887Y-87022200D01*
X114089887Y-87022200D02*
X114185125Y-87069819D01*
X114185125Y-87069819D02*
X114280363Y-87069819D01*
X114280363Y-87069819D02*
X114375601Y-87022200D01*
X114375601Y-87022200D02*
X114423220Y-86974580D01*
X114423220Y-86974580D02*
X114470839Y-86879342D01*
X114470839Y-86879342D02*
X114518458Y-86688866D01*
X114518458Y-86688866D02*
X114518458Y-86450771D01*
X114518458Y-86450771D02*
X114470839Y-86260295D01*
X114470839Y-86260295D02*
X114423220Y-86165057D01*
X114423220Y-86165057D02*
X114375601Y-86117438D01*
X114375601Y-86117438D02*
X114280363Y-86069819D01*
X112994649Y-87069819D02*
X113566077Y-87069819D01*
X113280363Y-87069819D02*
X113280363Y-86069819D01*
X113280363Y-86069819D02*
X113375601Y-86212676D01*
X113375601Y-86212676D02*
X113470839Y-86307914D01*
X113470839Y-86307914D02*
X113566077Y-86355533D01*
D11*
X144385489Y-51565114D02*
X144171203Y-51636542D01*
X144171203Y-51636542D02*
X144099774Y-51707971D01*
X144099774Y-51707971D02*
X144028346Y-51850828D01*
X144028346Y-51850828D02*
X144028346Y-52065114D01*
X144028346Y-52065114D02*
X144099774Y-52207971D01*
X144099774Y-52207971D02*
X144171203Y-52279400D01*
X144171203Y-52279400D02*
X144314060Y-52350828D01*
X144314060Y-52350828D02*
X144885489Y-52350828D01*
X144885489Y-52350828D02*
X144885489Y-50850828D01*
X144885489Y-50850828D02*
X144385489Y-50850828D01*
X144385489Y-50850828D02*
X144242632Y-50922257D01*
X144242632Y-50922257D02*
X144171203Y-50993685D01*
X144171203Y-50993685D02*
X144099774Y-51136542D01*
X144099774Y-51136542D02*
X144099774Y-51279400D01*
X144099774Y-51279400D02*
X144171203Y-51422257D01*
X144171203Y-51422257D02*
X144242632Y-51493685D01*
X144242632Y-51493685D02*
X144385489Y-51565114D01*
X144385489Y-51565114D02*
X144885489Y-51565114D01*
X143099774Y-50850828D02*
X142814060Y-50850828D01*
X142814060Y-50850828D02*
X142671203Y-50922257D01*
X142671203Y-50922257D02*
X142528346Y-51065114D01*
X142528346Y-51065114D02*
X142456917Y-51350828D01*
X142456917Y-51350828D02*
X142456917Y-51850828D01*
X142456917Y-51850828D02*
X142528346Y-52136542D01*
X142528346Y-52136542D02*
X142671203Y-52279400D01*
X142671203Y-52279400D02*
X142814060Y-52350828D01*
X142814060Y-52350828D02*
X143099774Y-52350828D01*
X143099774Y-52350828D02*
X143242632Y-52279400D01*
X143242632Y-52279400D02*
X143385489Y-52136542D01*
X143385489Y-52136542D02*
X143456917Y-51850828D01*
X143456917Y-51850828D02*
X143456917Y-51350828D01*
X143456917Y-51350828D02*
X143385489Y-51065114D01*
X143385489Y-51065114D02*
X143242632Y-50922257D01*
X143242632Y-50922257D02*
X143099774Y-50850828D01*
X141528345Y-50850828D02*
X141242631Y-50850828D01*
X141242631Y-50850828D02*
X141099774Y-50922257D01*
X141099774Y-50922257D02*
X140956917Y-51065114D01*
X140956917Y-51065114D02*
X140885488Y-51350828D01*
X140885488Y-51350828D02*
X140885488Y-51850828D01*
X140885488Y-51850828D02*
X140956917Y-52136542D01*
X140956917Y-52136542D02*
X141099774Y-52279400D01*
X141099774Y-52279400D02*
X141242631Y-52350828D01*
X141242631Y-52350828D02*
X141528345Y-52350828D01*
X141528345Y-52350828D02*
X141671203Y-52279400D01*
X141671203Y-52279400D02*
X141814060Y-52136542D01*
X141814060Y-52136542D02*
X141885488Y-51850828D01*
X141885488Y-51850828D02*
X141885488Y-51350828D01*
X141885488Y-51350828D02*
X141814060Y-51065114D01*
X141814060Y-51065114D02*
X141671203Y-50922257D01*
X141671203Y-50922257D02*
X141528345Y-50850828D01*
X140456916Y-50850828D02*
X139599774Y-50850828D01*
X140028345Y-52350828D02*
X140028345Y-50850828D01*
D10*
X159760839Y-91992200D02*
X159617982Y-92039819D01*
X159617982Y-92039819D02*
X159379887Y-92039819D01*
X159379887Y-92039819D02*
X159284649Y-91992200D01*
X159284649Y-91992200D02*
X159237030Y-91944580D01*
X159237030Y-91944580D02*
X159189411Y-91849342D01*
X159189411Y-91849342D02*
X159189411Y-91754104D01*
X159189411Y-91754104D02*
X159237030Y-91658866D01*
X159237030Y-91658866D02*
X159284649Y-91611247D01*
X159284649Y-91611247D02*
X159379887Y-91563628D01*
X159379887Y-91563628D02*
X159570363Y-91516009D01*
X159570363Y-91516009D02*
X159665601Y-91468390D01*
X159665601Y-91468390D02*
X159713220Y-91420771D01*
X159713220Y-91420771D02*
X159760839Y-91325533D01*
X159760839Y-91325533D02*
X159760839Y-91230295D01*
X159760839Y-91230295D02*
X159713220Y-91135057D01*
X159713220Y-91135057D02*
X159665601Y-91087438D01*
X159665601Y-91087438D02*
X159570363Y-91039819D01*
X159570363Y-91039819D02*
X159332268Y-91039819D01*
X159332268Y-91039819D02*
X159189411Y-91087438D01*
X158903696Y-91039819D02*
X158332268Y-91039819D01*
X158617982Y-92039819D02*
X158617982Y-91039819D01*
X157998934Y-92039819D02*
X157998934Y-91039819D01*
X157998934Y-91039819D02*
X157665601Y-91754104D01*
X157665601Y-91754104D02*
X157332268Y-91039819D01*
X157332268Y-91039819D02*
X157332268Y-92039819D01*
X155599411Y-129637438D02*
X155694649Y-129589819D01*
X155694649Y-129589819D02*
X155837506Y-129589819D01*
X155837506Y-129589819D02*
X155980363Y-129637438D01*
X155980363Y-129637438D02*
X156075601Y-129732676D01*
X156075601Y-129732676D02*
X156123220Y-129827914D01*
X156123220Y-129827914D02*
X156170839Y-130018390D01*
X156170839Y-130018390D02*
X156170839Y-130161247D01*
X156170839Y-130161247D02*
X156123220Y-130351723D01*
X156123220Y-130351723D02*
X156075601Y-130446961D01*
X156075601Y-130446961D02*
X155980363Y-130542200D01*
X155980363Y-130542200D02*
X155837506Y-130589819D01*
X155837506Y-130589819D02*
X155742268Y-130589819D01*
X155742268Y-130589819D02*
X155599411Y-130542200D01*
X155599411Y-130542200D02*
X155551792Y-130494580D01*
X155551792Y-130494580D02*
X155551792Y-130161247D01*
X155551792Y-130161247D02*
X155742268Y-130161247D01*
X155123220Y-130589819D02*
X155123220Y-129589819D01*
X155123220Y-129589819D02*
X154551792Y-130589819D01*
X154551792Y-130589819D02*
X154551792Y-129589819D01*
X154075601Y-130589819D02*
X154075601Y-129589819D01*
X154075601Y-129589819D02*
X153837506Y-129589819D01*
X153837506Y-129589819D02*
X153694649Y-129637438D01*
X153694649Y-129637438D02*
X153599411Y-129732676D01*
X153599411Y-129732676D02*
X153551792Y-129827914D01*
X153551792Y-129827914D02*
X153504173Y-130018390D01*
X153504173Y-130018390D02*
X153504173Y-130161247D01*
X153504173Y-130161247D02*
X153551792Y-130351723D01*
X153551792Y-130351723D02*
X153599411Y-130446961D01*
X153599411Y-130446961D02*
X153694649Y-130542200D01*
X153694649Y-130542200D02*
X153837506Y-130589819D01*
X153837506Y-130589819D02*
X154075601Y-130589819D01*
X159773220Y-84406009D02*
X159439887Y-84406009D01*
X159297030Y-84929819D02*
X159773220Y-84929819D01*
X159773220Y-84929819D02*
X159773220Y-83929819D01*
X159773220Y-83929819D02*
X159297030Y-83929819D01*
X158916077Y-84882200D02*
X158773220Y-84929819D01*
X158773220Y-84929819D02*
X158535125Y-84929819D01*
X158535125Y-84929819D02*
X158439887Y-84882200D01*
X158439887Y-84882200D02*
X158392268Y-84834580D01*
X158392268Y-84834580D02*
X158344649Y-84739342D01*
X158344649Y-84739342D02*
X158344649Y-84644104D01*
X158344649Y-84644104D02*
X158392268Y-84548866D01*
X158392268Y-84548866D02*
X158439887Y-84501247D01*
X158439887Y-84501247D02*
X158535125Y-84453628D01*
X158535125Y-84453628D02*
X158725601Y-84406009D01*
X158725601Y-84406009D02*
X158820839Y-84358390D01*
X158820839Y-84358390D02*
X158868458Y-84310771D01*
X158868458Y-84310771D02*
X158916077Y-84215533D01*
X158916077Y-84215533D02*
X158916077Y-84120295D01*
X158916077Y-84120295D02*
X158868458Y-84025057D01*
X158868458Y-84025057D02*
X158820839Y-83977438D01*
X158820839Y-83977438D02*
X158725601Y-83929819D01*
X158725601Y-83929819D02*
X158487506Y-83929819D01*
X158487506Y-83929819D02*
X158344649Y-83977438D01*
X157916077Y-84929819D02*
X157916077Y-83929819D01*
X157916077Y-83929819D02*
X157535125Y-83929819D01*
X157535125Y-83929819D02*
X157439887Y-83977438D01*
X157439887Y-83977438D02*
X157392268Y-84025057D01*
X157392268Y-84025057D02*
X157344649Y-84120295D01*
X157344649Y-84120295D02*
X157344649Y-84263152D01*
X157344649Y-84263152D02*
X157392268Y-84358390D01*
X157392268Y-84358390D02*
X157439887Y-84406009D01*
X157439887Y-84406009D02*
X157535125Y-84453628D01*
X157535125Y-84453628D02*
X157916077Y-84453628D01*
D12*
X113144361Y-72791868D02*
X113858647Y-72791868D01*
X113858647Y-72791868D02*
X113930075Y-73506154D01*
X113930075Y-73506154D02*
X113858647Y-73434725D01*
X113858647Y-73434725D02*
X113715790Y-73363297D01*
X113715790Y-73363297D02*
X113358647Y-73363297D01*
X113358647Y-73363297D02*
X113215790Y-73434725D01*
X113215790Y-73434725D02*
X113144361Y-73506154D01*
X113144361Y-73506154D02*
X113072932Y-73649011D01*
X113072932Y-73649011D02*
X113072932Y-74006154D01*
X113072932Y-74006154D02*
X113144361Y-74149011D01*
X113144361Y-74149011D02*
X113215790Y-74220440D01*
X113215790Y-74220440D02*
X113358647Y-74291868D01*
X113358647Y-74291868D02*
X113715790Y-74291868D01*
X113715790Y-74291868D02*
X113858647Y-74220440D01*
X113858647Y-74220440D02*
X113930075Y-74149011D01*
X112644361Y-72791868D02*
X112144361Y-74291868D01*
X112144361Y-74291868D02*
X111644361Y-72791868D01*
X111144362Y-74291868D02*
X111144362Y-72791868D01*
X111144362Y-72791868D02*
X110787219Y-72791868D01*
X110787219Y-72791868D02*
X110572933Y-72863297D01*
X110572933Y-72863297D02*
X110430076Y-73006154D01*
X110430076Y-73006154D02*
X110358647Y-73149011D01*
X110358647Y-73149011D02*
X110287219Y-73434725D01*
X110287219Y-73434725D02*
X110287219Y-73649011D01*
X110287219Y-73649011D02*
X110358647Y-73934725D01*
X110358647Y-73934725D02*
X110430076Y-74077582D01*
X110430076Y-74077582D02*
X110572933Y-74220440D01*
X110572933Y-74220440D02*
X110787219Y-74291868D01*
X110787219Y-74291868D02*
X111144362Y-74291868D01*
X108787219Y-74149011D02*
X108858647Y-74220440D01*
X108858647Y-74220440D02*
X109072933Y-74291868D01*
X109072933Y-74291868D02*
X109215790Y-74291868D01*
X109215790Y-74291868D02*
X109430076Y-74220440D01*
X109430076Y-74220440D02*
X109572933Y-74077582D01*
X109572933Y-74077582D02*
X109644362Y-73934725D01*
X109644362Y-73934725D02*
X109715790Y-73649011D01*
X109715790Y-73649011D02*
X109715790Y-73434725D01*
X109715790Y-73434725D02*
X109644362Y-73149011D01*
X109644362Y-73149011D02*
X109572933Y-73006154D01*
X109572933Y-73006154D02*
X109430076Y-72863297D01*
X109430076Y-72863297D02*
X109215790Y-72791868D01*
X109215790Y-72791868D02*
X109072933Y-72791868D01*
X109072933Y-72791868D02*
X108858647Y-72863297D01*
X108858647Y-72863297D02*
X108787219Y-72934725D01*
D10*
X152963333Y-53354819D02*
X152963333Y-54069104D01*
X152963333Y-54069104D02*
X153010952Y-54211961D01*
X153010952Y-54211961D02*
X153106190Y-54307200D01*
X153106190Y-54307200D02*
X153249047Y-54354819D01*
X153249047Y-54354819D02*
X153344285Y-54354819D01*
X152582380Y-53354819D02*
X151963333Y-53354819D01*
X151963333Y-53354819D02*
X152296666Y-53735771D01*
X152296666Y-53735771D02*
X152153809Y-53735771D01*
X152153809Y-53735771D02*
X152058571Y-53783390D01*
X152058571Y-53783390D02*
X152010952Y-53831009D01*
X152010952Y-53831009D02*
X151963333Y-53926247D01*
X151963333Y-53926247D02*
X151963333Y-54164342D01*
X151963333Y-54164342D02*
X152010952Y-54259580D01*
X152010952Y-54259580D02*
X152058571Y-54307200D01*
X152058571Y-54307200D02*
X152153809Y-54354819D01*
X152153809Y-54354819D02*
X152439523Y-54354819D01*
X152439523Y-54354819D02*
X152534761Y-54307200D01*
X152534761Y-54307200D02*
X152582380Y-54259580D01*
D11*
X108529930Y-70926649D02*
X107577550Y-70926649D01*
X108053740Y-71402839D02*
X108053740Y-70450458D01*
X115054930Y-70896649D02*
X114102550Y-70896649D01*
D10*
X130151904Y-120404819D02*
X130151904Y-121214342D01*
X130151904Y-121214342D02*
X130104285Y-121309580D01*
X130104285Y-121309580D02*
X130056666Y-121357200D01*
X130056666Y-121357200D02*
X129961428Y-121404819D01*
X129961428Y-121404819D02*
X129770952Y-121404819D01*
X129770952Y-121404819D02*
X129675714Y-121357200D01*
X129675714Y-121357200D02*
X129628095Y-121309580D01*
X129628095Y-121309580D02*
X129580476Y-121214342D01*
X129580476Y-121214342D02*
X129580476Y-120404819D01*
X128580476Y-121404819D02*
X129151904Y-121404819D01*
X128866190Y-121404819D02*
X128866190Y-120404819D01*
X128866190Y-120404819D02*
X128961428Y-120547676D01*
X128961428Y-120547676D02*
X129056666Y-120642914D01*
X129056666Y-120642914D02*
X129151904Y-120690533D01*
D13*
%TO.C,J4*%
X107225000Y-90230000D02*
X108925000Y-90230000D01*
X107225000Y-80890000D02*
X108925000Y-80890000D01*
%TO.C,J3*%
X148880000Y-47910000D02*
X151540000Y-47910000D01*
X148880000Y-48580000D02*
X148880000Y-47910000D01*
X148880000Y-53660000D02*
X148880000Y-50100000D01*
X148880000Y-58390000D02*
X148880000Y-55180000D01*
X148880000Y-58390000D02*
X151540000Y-58390000D01*
X151540000Y-51120000D02*
X151540000Y-47910000D01*
X151540000Y-56200000D02*
X151540000Y-52640000D01*
X151540000Y-57720000D02*
X152750000Y-57720000D01*
X151540000Y-58390000D02*
X151540000Y-57720000D01*
%TO.C,J6*%
X114457600Y-138391000D02*
X124922400Y-138391000D01*
X114457600Y-144487000D02*
X114457600Y-138391000D01*
X120120825Y-144487000D02*
X114457600Y-144487000D01*
X124922400Y-138391000D02*
X124922400Y-144487000D01*
X124922400Y-144487000D02*
X121799175Y-144487000D01*
%TO.C,C24*%
X135347500Y-139822500D02*
X134560000Y-139822500D01*
X134953750Y-139428750D02*
X134953750Y-140216250D01*
X134320000Y-144015563D02*
X134320000Y-142730000D01*
X134320000Y-144015563D02*
X133255563Y-145080000D01*
X134320000Y-139324437D02*
X134320000Y-140610000D01*
X134320000Y-139324437D02*
X133255563Y-138260000D01*
X133255563Y-145080000D02*
X127500000Y-145080000D01*
X133255563Y-138260000D02*
X127500000Y-138260000D01*
X127500000Y-145080000D02*
X127500000Y-142730000D01*
X127500000Y-138260000D02*
X127500000Y-140610000D01*
%TO.C,J1*%
X155815000Y-92890000D02*
X155815000Y-92255000D01*
X155180000Y-92890000D02*
X155815000Y-92890000D01*
D14*
%TO.C,SW1*%
X115189100Y-46584400D02*
X123240900Y-46584400D01*
X115189100Y-50343600D02*
X115189100Y-48187140D01*
X123240900Y-48187140D02*
X123240900Y-50343600D01*
X123240900Y-50343600D02*
X115189100Y-50343600D01*
%TO.C,SW2*%
X138294100Y-46584400D02*
X146345900Y-46584400D01*
X138294100Y-50343600D02*
X138294100Y-48187140D01*
X146345900Y-48187140D02*
X146345900Y-50343600D01*
X146345900Y-50343600D02*
X138294100Y-50343600D01*
D13*
%TO.C,J7*%
X159220000Y-131380000D02*
X156560000Y-131380000D01*
X159220000Y-126240000D02*
X159220000Y-131380000D01*
X159220000Y-126240000D02*
X156560000Y-126240000D01*
X159220000Y-124970000D02*
X159220000Y-123640000D01*
X159220000Y-123640000D02*
X157890000Y-123640000D01*
X156560000Y-126240000D02*
X156560000Y-131380000D01*
D11*
%TO.C,U3*%
X112194188Y-70901416D02*
X113634917Y-70901416D01*
X111174918Y-70901416D02*
X109145083Y-70901416D01*
X110515888Y-71678739D02*
G75*
G03*
X110469918Y-70186416I664029J767324D01*
G01*
X115650083Y-70901416D02*
G75*
G03*
X115650083Y-70901416I-1007583J0D01*
G01*
D15*
X111334918Y-70911416D02*
G75*
G03*
X111334918Y-70911416I-155000J0D01*
G01*
D11*
X109145083Y-70901416D02*
G75*
G03*
X109145083Y-70901416I-1007583J0D01*
G01*
%TO.C,G\u002A\u002A\u002A*%
G36*
X141119411Y-85003300D02*
G01*
X141142377Y-85031658D01*
X141181055Y-85085242D01*
X141232101Y-85158950D01*
X141292170Y-85247684D01*
X141357920Y-85346344D01*
X141426007Y-85449830D01*
X141493086Y-85553042D01*
X141555815Y-85650882D01*
X141610850Y-85738250D01*
X141654846Y-85810045D01*
X141684461Y-85861169D01*
X141696349Y-85886522D01*
X141696447Y-85892416D01*
X141677858Y-85927312D01*
X141633447Y-85972555D01*
X141570196Y-86022499D01*
X141495089Y-86071497D01*
X141415110Y-86113903D01*
X141314635Y-86160609D01*
X141319704Y-88183966D01*
X141324773Y-90207323D01*
X141375785Y-90274199D01*
X141385231Y-90285662D01*
X141442211Y-90337466D01*
X141505671Y-90376641D01*
X141545002Y-90395788D01*
X141578208Y-90419715D01*
X141576030Y-90437628D01*
X141539566Y-90451966D01*
X141479140Y-90478666D01*
X141408773Y-90538527D01*
X141353100Y-90619083D01*
X141348430Y-90628591D01*
X141341559Y-90645381D01*
X141335708Y-90665956D01*
X141330799Y-90693206D01*
X141326751Y-90730023D01*
X141323486Y-90779299D01*
X141320924Y-90843926D01*
X141318986Y-90926796D01*
X141317591Y-91030800D01*
X141316661Y-91158830D01*
X141316116Y-91313777D01*
X141315876Y-91498534D01*
X141315863Y-91715993D01*
X141315996Y-91969044D01*
X141316840Y-93244622D01*
X140993685Y-93556868D01*
X140937532Y-93610935D01*
X140850460Y-93693969D01*
X140774847Y-93765085D01*
X140714716Y-93820547D01*
X140674092Y-93856617D01*
X140656999Y-93869557D01*
X140650130Y-93864570D01*
X140629989Y-93833755D01*
X140605448Y-93784051D01*
X140598044Y-93767690D01*
X140567060Y-93706961D01*
X140529029Y-93645495D01*
X140480463Y-93579012D01*
X140417874Y-93503230D01*
X140337772Y-93413868D01*
X140236669Y-93306642D01*
X140111077Y-93177273D01*
X140100093Y-93166054D01*
X139974504Y-93036281D01*
X139875172Y-92930613D01*
X139802343Y-92849380D01*
X139756266Y-92792912D01*
X139737187Y-92761538D01*
X139745354Y-92755590D01*
X139781014Y-92775396D01*
X139844414Y-92821288D01*
X139859195Y-92832395D01*
X139915312Y-92868100D01*
X139967352Y-92884617D01*
X140034159Y-92888637D01*
X140053454Y-92888340D01*
X140134563Y-92876650D01*
X140201056Y-92844578D01*
X140266440Y-92800519D01*
X140271414Y-91737692D01*
X140272043Y-91601258D01*
X140272913Y-91392689D01*
X140273417Y-91217541D01*
X140273456Y-91072602D01*
X140272934Y-90954659D01*
X140271752Y-90860497D01*
X140269814Y-90786904D01*
X140267022Y-90730667D01*
X140263278Y-90688571D01*
X140258486Y-90657405D01*
X140252547Y-90633955D01*
X140245365Y-90615007D01*
X140236842Y-90597348D01*
X140234168Y-90592287D01*
X140182422Y-90523925D01*
X140112660Y-90466158D01*
X140028024Y-90412483D01*
X140092403Y-90381783D01*
X140107938Y-90373249D01*
X140162840Y-90331167D01*
X140211611Y-90279203D01*
X140266440Y-90207322D01*
X140271493Y-88025202D01*
X140276547Y-85843082D01*
X140162423Y-85730716D01*
X140148250Y-85716612D01*
X140093452Y-85659254D01*
X140049848Y-85609344D01*
X140025831Y-85576369D01*
X140015193Y-85555038D01*
X140017018Y-85541920D01*
X140048311Y-85550642D01*
X140076930Y-85557219D01*
X140137982Y-85563788D01*
X140208713Y-85565951D01*
X140318299Y-85551977D01*
X140457985Y-85502831D01*
X140609158Y-85418955D01*
X140770641Y-85301016D01*
X140941257Y-85149685D01*
X140997986Y-85096360D01*
X141054039Y-85046230D01*
X141095179Y-85012361D01*
X141115155Y-85000127D01*
X141119411Y-85003300D01*
G37*
G36*
X138609479Y-88281248D02*
G01*
X138822739Y-88371422D01*
X139044645Y-88427048D01*
X139179243Y-88449277D01*
X139179665Y-89297934D01*
X139179749Y-89414000D01*
X139180076Y-89598913D01*
X139180749Y-89750987D01*
X139181910Y-89873872D01*
X139183701Y-89971221D01*
X139186264Y-90046686D01*
X139189739Y-90103919D01*
X139194270Y-90146571D01*
X139199998Y-90178294D01*
X139207065Y-90202740D01*
X139215612Y-90223561D01*
X139245619Y-90277298D01*
X139318674Y-90361353D01*
X139406270Y-90417852D01*
X139458258Y-90440129D01*
X139400531Y-90462912D01*
X139365433Y-90480134D01*
X139293264Y-90534856D01*
X139233519Y-90604048D01*
X139198405Y-90674904D01*
X139198156Y-90675869D01*
X139194119Y-90712130D01*
X139190479Y-90784141D01*
X139187277Y-90889322D01*
X139184557Y-91025092D01*
X139182361Y-91188871D01*
X139180733Y-91378076D01*
X139179715Y-91590129D01*
X139179350Y-91822447D01*
X139179243Y-92901787D01*
X139257409Y-92925207D01*
X139335676Y-92960459D01*
X139425865Y-93033004D01*
X139500281Y-93129058D01*
X139552877Y-93240429D01*
X139577603Y-93358922D01*
X139584763Y-93456288D01*
X139535783Y-93365298D01*
X139532429Y-93359184D01*
X139467681Y-93275444D01*
X139385636Y-93225901D01*
X139285076Y-93209801D01*
X139281499Y-93209940D01*
X139241298Y-93217790D01*
X139172645Y-93237977D01*
X139074362Y-93270920D01*
X138945276Y-93317038D01*
X138784210Y-93376749D01*
X138589990Y-93450470D01*
X138361440Y-93538622D01*
X138195105Y-93603125D01*
X138035045Y-93665102D01*
X137889565Y-93721340D01*
X137762213Y-93770472D01*
X137656537Y-93811130D01*
X137576086Y-93841948D01*
X137524409Y-93861558D01*
X137505054Y-93868593D01*
X137495543Y-93856411D01*
X137476259Y-93816918D01*
X137452405Y-93759356D01*
X137411734Y-93664407D01*
X137298116Y-93461009D01*
X137156539Y-93272089D01*
X136992393Y-93103514D01*
X136811067Y-92961153D01*
X136617950Y-92850873D01*
X136586055Y-92836747D01*
X136493697Y-92801636D01*
X136391078Y-92768744D01*
X136289619Y-92741277D01*
X136200740Y-92722445D01*
X136135862Y-92715455D01*
X136081213Y-92715455D01*
X136080754Y-91748523D01*
X136080729Y-91716433D01*
X136080726Y-91715453D01*
X137104426Y-91715453D01*
X137104544Y-91952371D01*
X137104965Y-92158152D01*
X137105705Y-92334598D01*
X137106779Y-92483507D01*
X137108204Y-92606681D01*
X137109996Y-92705918D01*
X137112171Y-92783021D01*
X137114746Y-92839787D01*
X137117737Y-92878018D01*
X137121160Y-92899515D01*
X137125030Y-92906076D01*
X137126198Y-92905891D01*
X137154207Y-92897050D01*
X137212645Y-92876325D01*
X137296692Y-92845499D01*
X137401527Y-92806356D01*
X137522330Y-92760680D01*
X137654281Y-92710253D01*
X138159394Y-92516234D01*
X138159394Y-90374964D01*
X138159394Y-88233695D01*
X138039129Y-88279401D01*
X138025277Y-88284667D01*
X137961186Y-88309043D01*
X137870788Y-88343436D01*
X137761384Y-88385069D01*
X137640278Y-88431162D01*
X137514773Y-88478935D01*
X137110682Y-88632764D01*
X137105788Y-90770321D01*
X137105721Y-90799879D01*
X137105030Y-91141007D01*
X137104593Y-91445598D01*
X137104426Y-91715453D01*
X136080726Y-91715453D01*
X136080186Y-91525833D01*
X136079018Y-91345563D01*
X136077296Y-91179645D01*
X136075089Y-91032101D01*
X136072465Y-90906954D01*
X136069494Y-90808225D01*
X136066245Y-90739937D01*
X136062788Y-90706111D01*
X136036113Y-90628996D01*
X135978732Y-90549924D01*
X135889551Y-90485410D01*
X135878680Y-90479278D01*
X135837071Y-90452718D01*
X135825181Y-90435444D01*
X135838491Y-90421831D01*
X135858171Y-90414680D01*
X135891914Y-90417917D01*
X135901087Y-90422288D01*
X135903268Y-90414148D01*
X135902526Y-90408663D01*
X135918712Y-90382483D01*
X135955449Y-90349087D01*
X135978702Y-90331273D01*
X135999965Y-90312657D01*
X136017682Y-90291425D01*
X136032202Y-90264316D01*
X136043875Y-90228069D01*
X136053050Y-90179424D01*
X136060077Y-90115120D01*
X136065306Y-90031897D01*
X136069085Y-89926493D01*
X136071764Y-89795648D01*
X136073694Y-89636101D01*
X136075222Y-89444592D01*
X136076700Y-89217860D01*
X136077559Y-89080362D01*
X136078649Y-88884288D01*
X136079264Y-88721614D01*
X136079313Y-88589182D01*
X136078705Y-88483837D01*
X136077349Y-88402421D01*
X136075153Y-88341778D01*
X136072025Y-88298752D01*
X136067875Y-88270185D01*
X136062610Y-88252921D01*
X136056140Y-88243804D01*
X136048372Y-88239676D01*
X135969759Y-88209864D01*
X135852442Y-88139186D01*
X135765317Y-88045657D01*
X135707030Y-87928041D01*
X135699413Y-87901112D01*
X135689601Y-87851342D01*
X135682274Y-87797725D01*
X135678072Y-87748643D01*
X135677633Y-87712477D01*
X135681596Y-87697610D01*
X135690600Y-87712425D01*
X135738251Y-87817774D01*
X135796127Y-87891433D01*
X135866614Y-87933294D01*
X135953285Y-87946541D01*
X135971206Y-87944967D01*
X136016454Y-87935165D01*
X136083315Y-87915689D01*
X136174124Y-87885727D01*
X136291219Y-87844469D01*
X136436938Y-87791106D01*
X136613617Y-87724827D01*
X136823593Y-87644823D01*
X136926229Y-87605418D01*
X137089140Y-87542557D01*
X137240754Y-87483674D01*
X137376959Y-87430388D01*
X137493644Y-87384317D01*
X137586696Y-87347080D01*
X137652004Y-87320295D01*
X137685456Y-87305581D01*
X137705954Y-87295549D01*
X137746151Y-87278051D01*
X137764013Y-87273764D01*
X137771752Y-87292203D01*
X137788965Y-87337202D01*
X137811740Y-87398627D01*
X137828388Y-87441870D01*
X137931768Y-87649192D01*
X138066010Y-87840497D01*
X138226671Y-88012079D01*
X138409308Y-88160231D01*
X138530823Y-88233695D01*
X138609479Y-88281248D01*
G37*
G36*
X133682827Y-87291867D02*
G01*
X133693350Y-87314661D01*
X133714006Y-87362595D01*
X133740651Y-87426067D01*
X133749236Y-87446503D01*
X133820332Y-87596671D01*
X133899918Y-87727636D01*
X133996467Y-87851863D01*
X134118454Y-87981819D01*
X134253028Y-88106390D01*
X134407560Y-88222773D01*
X134566175Y-88311019D01*
X134737384Y-88375738D01*
X134929698Y-88421546D01*
X135098403Y-88452620D01*
X135103937Y-89329902D01*
X135109470Y-90207184D01*
X135162408Y-90287152D01*
X135176927Y-90306951D01*
X135232995Y-90364571D01*
X135292974Y-90406722D01*
X135325232Y-90425791D01*
X135354505Y-90454316D01*
X135353389Y-90475218D01*
X135320057Y-90483334D01*
X135287664Y-90493712D01*
X135238930Y-90529891D01*
X135188937Y-90582778D01*
X135146632Y-90642651D01*
X135120959Y-90699784D01*
X135119160Y-90707708D01*
X135114149Y-90748356D01*
X135110084Y-90814366D01*
X135106938Y-90907611D01*
X135104683Y-91029965D01*
X135103291Y-91183302D01*
X135102734Y-91369495D01*
X135102986Y-91590418D01*
X135104019Y-91847945D01*
X135109470Y-92914298D01*
X135193656Y-92942357D01*
X135247740Y-92965480D01*
X135343554Y-93035164D01*
X135420683Y-93130678D01*
X135473876Y-93244647D01*
X135497883Y-93369697D01*
X135504214Y-93475531D01*
X135467668Y-93396780D01*
X135462394Y-93385822D01*
X135400128Y-93297390D01*
X135318827Y-93242191D01*
X135219795Y-93220810D01*
X135104334Y-93233831D01*
X135096176Y-93236148D01*
X135050783Y-93251387D01*
X134976376Y-93277993D01*
X134877602Y-93314194D01*
X134759110Y-93358217D01*
X134625548Y-93408289D01*
X134481564Y-93462638D01*
X134331805Y-93519492D01*
X134180921Y-93577079D01*
X134033560Y-93633626D01*
X133894369Y-93687360D01*
X133767996Y-93736510D01*
X133659090Y-93779303D01*
X133572300Y-93813966D01*
X133512272Y-93838727D01*
X133483655Y-93851814D01*
X133481080Y-93853306D01*
X133453624Y-93864865D01*
X133430531Y-93860530D01*
X133407048Y-93835378D01*
X133378420Y-93784485D01*
X133339894Y-93702928D01*
X133313072Y-93645870D01*
X133218976Y-93471083D01*
X133118296Y-93324186D01*
X133005609Y-93196969D01*
X132995572Y-93187043D01*
X132807018Y-93026551D01*
X132602714Y-92898592D01*
X132386166Y-92805031D01*
X132160880Y-92747733D01*
X132011440Y-92722523D01*
X131999964Y-92175391D01*
X131999519Y-92154499D01*
X131994002Y-91945743D01*
X131986678Y-91771423D01*
X131976640Y-91627835D01*
X131962983Y-91511278D01*
X131944797Y-91418049D01*
X131921178Y-91344444D01*
X131891216Y-91286762D01*
X131854007Y-91241299D01*
X131808641Y-91204353D01*
X131754213Y-91172221D01*
X131651060Y-91118334D01*
X131719934Y-91118334D01*
X131755163Y-91120450D01*
X131853095Y-91141261D01*
X131952910Y-91179074D01*
X132035890Y-91227428D01*
X132053730Y-91243019D01*
X132099004Y-91289211D01*
X132159051Y-91355380D01*
X132228181Y-91435188D01*
X132300701Y-91522299D01*
X132390670Y-91630636D01*
X132502942Y-91757744D01*
X132602593Y-91858123D01*
X132694321Y-91935132D01*
X132782821Y-91992130D01*
X132872792Y-92032475D01*
X132968931Y-92059527D01*
X133075934Y-92076643D01*
X133204470Y-92091603D01*
X133142258Y-92124840D01*
X133104901Y-92147636D01*
X133073318Y-92177273D01*
X133050788Y-92216926D01*
X133035833Y-92272280D01*
X133026979Y-92349024D01*
X133022749Y-92452843D01*
X133021667Y-92589424D01*
X133022094Y-92667558D01*
X133023939Y-92763200D01*
X133026988Y-92839356D01*
X133030966Y-92889693D01*
X133035594Y-92907879D01*
X133037072Y-92907600D01*
X133064678Y-92898445D01*
X133122631Y-92877616D01*
X133206274Y-92846839D01*
X133310948Y-92807836D01*
X133431996Y-92762331D01*
X133564761Y-92712048D01*
X134080000Y-92516217D01*
X134080000Y-90374249D01*
X134080000Y-88232282D01*
X133998220Y-88265075D01*
X133975088Y-88274301D01*
X133914125Y-88298497D01*
X133827440Y-88332826D01*
X133721114Y-88374880D01*
X133601228Y-88422254D01*
X133473864Y-88472543D01*
X133031288Y-88647217D01*
X133025634Y-88944707D01*
X133024721Y-89077563D01*
X133031585Y-89283643D01*
X133049384Y-89453906D01*
X133078247Y-89589081D01*
X133118303Y-89689896D01*
X133169681Y-89757080D01*
X133178651Y-89764497D01*
X133226384Y-89797394D01*
X133283118Y-89830233D01*
X133358410Y-89869564D01*
X133246341Y-89858613D01*
X133215271Y-89855119D01*
X133142908Y-89841630D01*
X133077517Y-89818734D01*
X133014236Y-89782758D01*
X132948203Y-89730030D01*
X132874557Y-89656880D01*
X132788437Y-89559634D01*
X132684981Y-89434622D01*
X132597832Y-89330934D01*
X132487037Y-89209724D01*
X132383795Y-89108630D01*
X132292414Y-89031808D01*
X132217203Y-88983415D01*
X132207603Y-88978943D01*
X132142487Y-88956168D01*
X132058067Y-88934582D01*
X131970083Y-88918332D01*
X131895439Y-88907212D01*
X131848504Y-88898335D01*
X131829880Y-88890215D01*
X131834512Y-88880555D01*
X131857345Y-88867053D01*
X131882163Y-88852715D01*
X131927854Y-88815936D01*
X131959784Y-88768282D01*
X131980538Y-88702887D01*
X131992702Y-88612887D01*
X131998863Y-88491419D01*
X132005529Y-88260187D01*
X131919376Y-88237144D01*
X131886190Y-88226860D01*
X131796633Y-88179645D01*
X131722070Y-88104902D01*
X131656572Y-87997217D01*
X131628869Y-87936610D01*
X131605407Y-87858770D01*
X131599692Y-87781510D01*
X131601657Y-87683561D01*
X131622580Y-87749102D01*
X131622693Y-87749456D01*
X131656096Y-87815283D01*
X131707836Y-87877309D01*
X131767112Y-87924861D01*
X131823122Y-87947265D01*
X131851184Y-87948015D01*
X131914328Y-87942429D01*
X131984437Y-87930281D01*
X132003085Y-87925077D01*
X132059617Y-87906377D01*
X132144290Y-87876608D01*
X132252314Y-87837578D01*
X132378902Y-87791100D01*
X132519267Y-87738981D01*
X132668622Y-87683032D01*
X132822178Y-87625064D01*
X132975149Y-87566886D01*
X133122747Y-87510307D01*
X133260184Y-87457138D01*
X133382673Y-87409189D01*
X133485426Y-87368270D01*
X133563657Y-87336190D01*
X133612576Y-87314760D01*
X133623702Y-87309624D01*
X133663698Y-87293971D01*
X133682523Y-87291383D01*
X133682827Y-87291867D01*
G37*
G36*
X131049319Y-90204319D02*
G01*
X131094256Y-90267322D01*
X131109345Y-90285679D01*
X131163600Y-90334346D01*
X131225754Y-90374317D01*
X131312314Y-90418308D01*
X131231828Y-90454602D01*
X131216378Y-90462298D01*
X131152037Y-90506265D01*
X131100330Y-90557764D01*
X131049319Y-90624631D01*
X131039697Y-91939759D01*
X131030076Y-93254888D01*
X130704424Y-93562444D01*
X130648363Y-93615230D01*
X130560701Y-93697083D01*
X130484765Y-93767138D01*
X130424591Y-93821710D01*
X130384217Y-93857116D01*
X130367682Y-93869672D01*
X130357894Y-93858365D01*
X130336953Y-93820085D01*
X130311055Y-93764149D01*
X130306148Y-93753236D01*
X130268213Y-93684687D01*
X130211751Y-93603379D01*
X130134671Y-93506800D01*
X130034882Y-93392436D01*
X129910295Y-93257775D01*
X129758818Y-93100303D01*
X129673097Y-93011565D01*
X129583158Y-92915316D01*
X129519747Y-92842743D01*
X129481799Y-92792532D01*
X129468247Y-92763369D01*
X129478028Y-92753940D01*
X129492315Y-92759234D01*
X129520713Y-92784210D01*
X129548056Y-92809503D01*
X129613459Y-92848362D01*
X129689260Y-92877292D01*
X129758057Y-92888637D01*
X129785396Y-92887595D01*
X129889971Y-92862648D01*
X129976553Y-92807031D01*
X130019849Y-92766474D01*
X130019849Y-91528692D01*
X130019828Y-91459275D01*
X130019495Y-91248325D01*
X130018786Y-91050162D01*
X130017737Y-90868000D01*
X130016382Y-90705051D01*
X130014757Y-90564525D01*
X130012897Y-90449636D01*
X130010837Y-90363596D01*
X130008612Y-90309616D01*
X130006259Y-90290909D01*
X130004703Y-90291214D01*
X129976914Y-90300522D01*
X129918825Y-90321540D01*
X129835080Y-90352540D01*
X129730325Y-90391793D01*
X129609202Y-90437570D01*
X129476357Y-90488144D01*
X128960045Y-90685379D01*
X128965898Y-92118940D01*
X128971752Y-93552500D01*
X129020813Y-93708969D01*
X129021364Y-93710720D01*
X129057174Y-93807834D01*
X129103564Y-93912153D01*
X129150641Y-94001390D01*
X129177286Y-94044657D01*
X129288015Y-94192646D01*
X129412991Y-94309091D01*
X129558596Y-94399122D01*
X129731213Y-94467865D01*
X129745921Y-94472620D01*
X129793490Y-94490227D01*
X129805729Y-94499718D01*
X129784507Y-94501185D01*
X129731697Y-94494721D01*
X129649167Y-94480418D01*
X129538788Y-94458367D01*
X129298233Y-94397885D01*
X129019684Y-94298165D01*
X128768571Y-94172399D01*
X128545450Y-94020872D01*
X128350873Y-93843873D01*
X128252108Y-93732889D01*
X128133400Y-93569599D01*
X128045125Y-93401369D01*
X127983127Y-93219762D01*
X127943250Y-93016337D01*
X127942425Y-93009788D01*
X127937911Y-92949403D01*
X127933930Y-92852255D01*
X127930503Y-92719812D01*
X127927652Y-92553541D01*
X127925397Y-92354910D01*
X127923760Y-92125386D01*
X127922762Y-91866438D01*
X127922425Y-91579532D01*
X127922425Y-90292454D01*
X127841106Y-90268091D01*
X127787206Y-90246229D01*
X127695719Y-90180246D01*
X127618913Y-90086700D01*
X127561679Y-89972241D01*
X127528908Y-89843523D01*
X127527666Y-89834380D01*
X127524069Y-89776906D01*
X127532739Y-89755883D01*
X127553377Y-89771418D01*
X127585682Y-89823615D01*
X127594923Y-89838967D01*
X127642527Y-89897026D01*
X127698675Y-89945393D01*
X127718103Y-89958186D01*
X127763422Y-89981315D01*
X127808385Y-89987555D01*
X127871857Y-89980759D01*
X127898113Y-89974489D01*
X127961861Y-89954551D01*
X128052732Y-89923208D01*
X128165762Y-89882267D01*
X128295988Y-89833536D01*
X128438449Y-89778821D01*
X128588182Y-89719930D01*
X129205832Y-89474124D01*
X128638974Y-88905964D01*
X128582092Y-88848813D01*
X128560404Y-88826856D01*
X128902854Y-88826856D01*
X128904508Y-88900974D01*
X128925596Y-88957632D01*
X128925713Y-88957791D01*
X128945825Y-88979432D01*
X128990576Y-89024225D01*
X129056667Y-89088975D01*
X129140801Y-89170486D01*
X129239679Y-89265564D01*
X129350005Y-89371012D01*
X129468479Y-89483636D01*
X129474297Y-89489151D01*
X129591715Y-89600186D01*
X129700482Y-89702535D01*
X129797395Y-89793222D01*
X129879252Y-89869270D01*
X129942849Y-89927703D01*
X129984985Y-89965547D01*
X130002457Y-89979824D01*
X130003182Y-89979673D01*
X130007798Y-89957500D01*
X130011831Y-89901156D01*
X130015167Y-89814394D01*
X130017692Y-89700970D01*
X130019291Y-89564638D01*
X130019849Y-89409153D01*
X130019849Y-88832069D01*
X129918826Y-88749059D01*
X129915216Y-88746081D01*
X129859860Y-88698936D01*
X129786271Y-88634397D01*
X129703617Y-88560574D01*
X129621064Y-88485579D01*
X129424324Y-88305110D01*
X129202264Y-88473573D01*
X129176984Y-88492967D01*
X129095376Y-88558504D01*
X129024197Y-88619918D01*
X128970365Y-88671063D01*
X128940798Y-88705796D01*
X128919714Y-88750479D01*
X128902854Y-88826856D01*
X128560404Y-88826856D01*
X128463231Y-88728475D01*
X128353965Y-88616626D01*
X128257248Y-88516367D01*
X128176037Y-88430799D01*
X128113288Y-88363023D01*
X128071956Y-88316142D01*
X128054997Y-88293255D01*
X128050816Y-88280935D01*
X128039047Y-88203674D01*
X128042855Y-88118379D01*
X128061650Y-88046912D01*
X128064276Y-88042584D01*
X128090872Y-88012919D01*
X128140764Y-87964569D01*
X128209620Y-87901228D01*
X128293110Y-87826591D01*
X128386902Y-87744355D01*
X128486664Y-87658214D01*
X128588064Y-87571865D01*
X128686771Y-87489002D01*
X128778454Y-87413322D01*
X128858781Y-87348519D01*
X128923420Y-87298289D01*
X128968040Y-87266328D01*
X128988309Y-87256331D01*
X128997777Y-87266002D01*
X129025467Y-87303868D01*
X129066668Y-87365084D01*
X129117654Y-87444074D01*
X129174698Y-87535261D01*
X129217189Y-87603288D01*
X129375768Y-87842656D01*
X129537494Y-88065328D01*
X129697373Y-88264661D01*
X129850413Y-88434016D01*
X130018819Y-88607197D01*
X130019334Y-87244028D01*
X130019849Y-85880859D01*
X129897708Y-85762361D01*
X129877054Y-85742017D01*
X129820734Y-85683385D01*
X129776231Y-85632567D01*
X129751738Y-85598748D01*
X129739251Y-85573248D01*
X129741911Y-85561061D01*
X129772857Y-85569884D01*
X129801914Y-85576537D01*
X129863129Y-85583131D01*
X129934036Y-85585377D01*
X130018034Y-85577851D01*
X130128790Y-85547488D01*
X130247923Y-85492161D01*
X130378615Y-85410067D01*
X130524050Y-85299402D01*
X130687410Y-85158362D01*
X130845047Y-85015777D01*
X131134796Y-85449773D01*
X131136524Y-85452361D01*
X131212920Y-85567790D01*
X131281675Y-85673514D01*
X131340001Y-85765100D01*
X131385113Y-85838116D01*
X131414223Y-85888129D01*
X131424546Y-85910706D01*
X131413149Y-85938446D01*
X131373784Y-85982095D01*
X131313416Y-86031515D01*
X131239476Y-86080733D01*
X131159399Y-86123776D01*
X131039178Y-86180355D01*
X131044248Y-88192337D01*
X131047315Y-89409153D01*
X131049319Y-90204319D01*
G37*
G36*
X118126803Y-88309144D02*
G01*
X118315067Y-88378389D01*
X118517690Y-88427003D01*
X118647576Y-88450289D01*
X118647576Y-89254198D01*
X118647714Y-89368682D01*
X118648788Y-89576693D01*
X118650886Y-89756793D01*
X118653959Y-89906870D01*
X118657957Y-90024810D01*
X118662832Y-90108501D01*
X118668534Y-90155827D01*
X118699857Y-90247581D01*
X118766118Y-90339522D01*
X118863143Y-90408353D01*
X118939171Y-90447140D01*
X118846290Y-90494343D01*
X118806913Y-90516011D01*
X118737341Y-90570777D01*
X118693383Y-90640071D01*
X118666455Y-90735403D01*
X118665922Y-90738567D01*
X118662089Y-90783268D01*
X118658581Y-90862556D01*
X118655457Y-90972991D01*
X118652772Y-91111135D01*
X118650584Y-91273548D01*
X118648951Y-91456792D01*
X118647930Y-91657429D01*
X118647576Y-91872019D01*
X118647622Y-92071402D01*
X118647843Y-92266970D01*
X118648339Y-92429735D01*
X118649206Y-92562737D01*
X118650543Y-92669011D01*
X118652448Y-92751596D01*
X118655017Y-92813529D01*
X118658348Y-92857848D01*
X118662539Y-92887591D01*
X118667689Y-92905795D01*
X118673893Y-92915497D01*
X118681250Y-92919736D01*
X118784614Y-92962165D01*
X118897127Y-93038830D01*
X118980778Y-93136165D01*
X119032847Y-93250789D01*
X119050617Y-93379319D01*
X119050412Y-93475531D01*
X119011340Y-93386990D01*
X118966399Y-93312439D01*
X118898703Y-93257103D01*
X118836049Y-93228762D01*
X118772193Y-93218148D01*
X118697144Y-93225868D01*
X118599470Y-93251717D01*
X118558916Y-93265531D01*
X118488706Y-93290921D01*
X118393839Y-93325999D01*
X118278982Y-93368977D01*
X118148803Y-93418069D01*
X118007970Y-93471488D01*
X117861151Y-93527446D01*
X117713013Y-93584157D01*
X117568224Y-93639834D01*
X117431452Y-93692689D01*
X117307364Y-93740936D01*
X117200629Y-93782788D01*
X117115913Y-93816457D01*
X117057885Y-93840158D01*
X117031213Y-93852102D01*
X117030564Y-93852477D01*
X116997352Y-93866266D01*
X116972144Y-93858840D01*
X116948689Y-93824953D01*
X116920738Y-93759356D01*
X116866400Y-93638436D01*
X116784745Y-93492220D01*
X116691756Y-93353278D01*
X116596875Y-93236842D01*
X116480636Y-93121811D01*
X116295884Y-92978019D01*
X116093804Y-92865459D01*
X115870407Y-92782040D01*
X115621705Y-92725672D01*
X115549546Y-92713711D01*
X115549546Y-92228207D01*
X115549134Y-92102273D01*
X115545925Y-91897653D01*
X115538928Y-91726243D01*
X115527422Y-91584679D01*
X115510686Y-91469601D01*
X115487998Y-91377648D01*
X115458637Y-91305457D01*
X115421882Y-91249668D01*
X115377011Y-91206919D01*
X115323303Y-91173848D01*
X115283896Y-91154039D01*
X115242196Y-91132620D01*
X115223325Y-91121096D01*
X115220160Y-91114726D01*
X115225581Y-91108764D01*
X115240243Y-91105631D01*
X115284367Y-91109237D01*
X115345791Y-91119956D01*
X115413159Y-91135394D01*
X115475112Y-91153159D01*
X115520294Y-91170856D01*
X115525396Y-91173547D01*
X115571280Y-91204532D01*
X115625703Y-91253364D01*
X115691972Y-91323514D01*
X115773393Y-91418458D01*
X115873273Y-91541667D01*
X115962888Y-91650363D01*
X116074273Y-91774308D01*
X116177532Y-91876690D01*
X116268765Y-91953701D01*
X116344074Y-92001533D01*
X116368516Y-92012472D01*
X116473184Y-92046965D01*
X116590869Y-92071371D01*
X116701907Y-92081305D01*
X116771440Y-92082156D01*
X116701890Y-92118911D01*
X116665253Y-92140874D01*
X116629511Y-92172976D01*
X116603740Y-92215367D01*
X116586391Y-92273673D01*
X116575916Y-92353519D01*
X116570767Y-92460534D01*
X116569394Y-92600342D01*
X116569466Y-92675331D01*
X116570169Y-92770389D01*
X116572151Y-92835515D01*
X116576047Y-92876019D01*
X116582491Y-92897212D01*
X116592119Y-92904405D01*
X116605566Y-92902909D01*
X116605962Y-92902802D01*
X116634222Y-92893162D01*
X116693175Y-92871701D01*
X116777771Y-92840302D01*
X116882959Y-92800853D01*
X117003687Y-92755237D01*
X117134904Y-92705340D01*
X117628071Y-92517231D01*
X117623089Y-91525854D01*
X117618107Y-90534478D01*
X117507585Y-90509380D01*
X117502210Y-90508142D01*
X117402123Y-90478105D01*
X117302874Y-90433740D01*
X117201346Y-90372488D01*
X117094420Y-90291786D01*
X116978976Y-90189073D01*
X116851897Y-90061788D01*
X116710063Y-89907370D01*
X116550356Y-89723258D01*
X116484770Y-89647332D01*
X116384485Y-89534979D01*
X116281815Y-89423595D01*
X116185663Y-89322795D01*
X116104936Y-89242197D01*
X115986465Y-89134070D01*
X115878751Y-89049977D01*
X115778529Y-88989341D01*
X115678681Y-88947873D01*
X115572088Y-88921287D01*
X115526698Y-88912957D01*
X115461297Y-88900902D01*
X115416245Y-88892532D01*
X115369534Y-88883765D01*
X115425866Y-88846871D01*
X115435468Y-88840398D01*
X115482758Y-88799518D01*
X115515477Y-88749045D01*
X115535960Y-88681845D01*
X115540002Y-88647048D01*
X116579016Y-88647048D01*
X116579513Y-88935002D01*
X116579570Y-88952883D01*
X116583103Y-89099608D01*
X116593983Y-89219548D01*
X116614951Y-89323047D01*
X116648744Y-89420445D01*
X116698100Y-89522084D01*
X116765760Y-89638305D01*
X116819184Y-89716543D01*
X116900990Y-89819342D01*
X116996915Y-89927520D01*
X117099749Y-90033679D01*
X117202278Y-90130419D01*
X117297291Y-90210340D01*
X117377576Y-90266042D01*
X117427168Y-90293897D01*
X117498469Y-90331068D01*
X117555569Y-90357701D01*
X117627728Y-90387638D01*
X117627728Y-89311599D01*
X117627728Y-88235559D01*
X117334281Y-88350455D01*
X117302714Y-88362817D01*
X117175227Y-88412780D01*
X117041176Y-88465362D01*
X116914697Y-88515017D01*
X116809925Y-88556200D01*
X116579016Y-88647048D01*
X115540002Y-88647048D01*
X115546538Y-88590785D01*
X115549546Y-88468732D01*
X115549546Y-88252696D01*
X115467766Y-88230919D01*
X115431397Y-88218349D01*
X115342066Y-88162705D01*
X115263417Y-88080073D01*
X115200950Y-87978653D01*
X115160166Y-87866638D01*
X115146563Y-87752228D01*
X115147672Y-87683561D01*
X115191951Y-87779773D01*
X115227685Y-87843281D01*
X115290305Y-87906929D01*
X115369583Y-87939632D01*
X115468979Y-87942578D01*
X115591955Y-87916954D01*
X115593138Y-87916602D01*
X115628258Y-87904510D01*
X115694225Y-87880454D01*
X115786325Y-87846234D01*
X115899844Y-87803649D01*
X116030068Y-87754498D01*
X116172283Y-87700582D01*
X116321775Y-87643699D01*
X116473830Y-87585649D01*
X116623734Y-87528231D01*
X116766774Y-87473244D01*
X116898235Y-87422489D01*
X117013404Y-87377765D01*
X117107566Y-87340871D01*
X117176008Y-87313606D01*
X117214016Y-87297770D01*
X117221911Y-87301561D01*
X117244539Y-87332007D01*
X117275328Y-87386372D01*
X117309967Y-87457484D01*
X117343801Y-87528733D01*
X117462684Y-87737288D01*
X117599959Y-87917098D01*
X117760739Y-88074209D01*
X117950137Y-88214670D01*
X117963458Y-88223219D01*
X117986917Y-88235559D01*
X118126803Y-88309144D01*
G37*
G36*
X120474156Y-87296392D02*
G01*
X120500018Y-87331074D01*
X120540951Y-87389752D01*
X120593652Y-87467377D01*
X120654821Y-87558899D01*
X120721157Y-87659270D01*
X120789358Y-87763440D01*
X120856124Y-87866359D01*
X120918153Y-87962978D01*
X120972144Y-88048248D01*
X121014796Y-88117120D01*
X121042808Y-88164544D01*
X121052879Y-88185470D01*
X121038675Y-88215065D01*
X120997513Y-88257761D01*
X120936999Y-88306167D01*
X120864791Y-88354192D01*
X120788549Y-88395742D01*
X120668537Y-88453258D01*
X120668284Y-89322183D01*
X120668031Y-90191108D01*
X120961478Y-90076212D01*
X120993047Y-90063849D01*
X121120534Y-90013890D01*
X121254584Y-89961315D01*
X121381062Y-89911669D01*
X121485834Y-89870498D01*
X121716743Y-89779680D01*
X121709037Y-88956814D01*
X121701331Y-88133948D01*
X121569529Y-88002147D01*
X121507850Y-87937826D01*
X121461058Y-87882453D01*
X121438458Y-87846203D01*
X121441443Y-87831371D01*
X121471402Y-87840252D01*
X121471585Y-87840341D01*
X121507401Y-87848386D01*
X121568434Y-87853706D01*
X121641577Y-87855153D01*
X121737555Y-87846437D01*
X121852997Y-87815282D01*
X121973824Y-87759574D01*
X122103708Y-87677243D01*
X122246321Y-87566218D01*
X122405335Y-87424427D01*
X122455067Y-87378587D01*
X122508457Y-87331412D01*
X122546082Y-87300637D01*
X122561927Y-87291370D01*
X122562108Y-87291589D01*
X122575397Y-87311085D01*
X122606784Y-87358280D01*
X122653491Y-87428962D01*
X122712740Y-87518923D01*
X122781754Y-87623950D01*
X122857754Y-87739833D01*
X122920649Y-87835931D01*
X122992353Y-87946240D01*
X123046420Y-88031129D01*
X123084944Y-88094507D01*
X123110014Y-88140282D01*
X123123722Y-88172364D01*
X123128158Y-88194661D01*
X123125415Y-88211082D01*
X123117582Y-88225536D01*
X123117130Y-88226217D01*
X123080584Y-88264001D01*
X123020373Y-88310116D01*
X122947693Y-88357283D01*
X122873737Y-88398226D01*
X122809702Y-88425668D01*
X122746213Y-88446621D01*
X122746213Y-89307497D01*
X122746213Y-90168373D01*
X122851796Y-90212135D01*
X122860641Y-90215910D01*
X122970377Y-90284241D01*
X123056298Y-90380097D01*
X123115048Y-90498612D01*
X123143272Y-90634918D01*
X123152195Y-90743106D01*
X123107954Y-90656687D01*
X123098085Y-90638539D01*
X123031412Y-90554485D01*
X122948427Y-90501698D01*
X122854011Y-90483506D01*
X122831622Y-90484874D01*
X122768155Y-90496567D01*
X122679946Y-90520885D01*
X122564418Y-90558645D01*
X122418995Y-90610664D01*
X122241099Y-90677759D01*
X122199550Y-90694050D01*
X122134366Y-90721189D01*
X122089456Y-90742048D01*
X122072728Y-90753088D01*
X122079179Y-90762444D01*
X122111484Y-90791215D01*
X122165001Y-90833179D01*
X122233036Y-90883589D01*
X122308893Y-90937699D01*
X122385877Y-90990761D01*
X122457292Y-91038028D01*
X122516443Y-91074752D01*
X122556636Y-91096188D01*
X122590994Y-91109597D01*
X122672411Y-91135829D01*
X122752756Y-91156180D01*
X122861667Y-91178789D01*
X122861667Y-92221732D01*
X122861667Y-93264674D01*
X122539357Y-93566348D01*
X122487499Y-93614734D01*
X122399481Y-93696127D01*
X122322949Y-93765968D01*
X122262028Y-93820540D01*
X122220842Y-93856127D01*
X122203515Y-93869011D01*
X122195652Y-93862919D01*
X122175006Y-93830555D01*
X122149940Y-93779476D01*
X122128252Y-93734599D01*
X122089721Y-93669047D01*
X122038923Y-93597163D01*
X121972638Y-93515015D01*
X121887641Y-93418668D01*
X121780712Y-93304192D01*
X121648627Y-93167652D01*
X121587804Y-93105255D01*
X121485642Y-92998654D01*
X121408406Y-92914944D01*
X121354095Y-92851730D01*
X121320704Y-92806619D01*
X121306233Y-92777214D01*
X121308677Y-92761122D01*
X121311074Y-92760299D01*
X121335022Y-92770793D01*
X121372774Y-92798396D01*
X121384406Y-92807942D01*
X121454405Y-92856835D01*
X121518565Y-92881702D01*
X121591667Y-92888637D01*
X121645098Y-92885226D01*
X121723655Y-92860401D01*
X121798523Y-92805908D01*
X121841819Y-92766474D01*
X121841819Y-91807707D01*
X121841807Y-91769014D01*
X121841432Y-91583177D01*
X121840563Y-91410277D01*
X121839254Y-91253964D01*
X121837556Y-91117888D01*
X121835524Y-91005697D01*
X121833210Y-90921043D01*
X121830666Y-90867574D01*
X121827946Y-90848940D01*
X121826444Y-90849227D01*
X121798788Y-90858456D01*
X121740814Y-90879408D01*
X121657174Y-90910351D01*
X121552520Y-90949556D01*
X121431505Y-90995291D01*
X121298779Y-91045825D01*
X120783485Y-91242711D01*
X120782316Y-92253287D01*
X120781147Y-93263864D01*
X120465990Y-93557465D01*
X120422539Y-93597811D01*
X120333440Y-93679694D01*
X120254810Y-93750825D01*
X120191035Y-93807298D01*
X120146505Y-93845203D01*
X120125606Y-93860634D01*
X120118154Y-93861086D01*
X120092883Y-93838298D01*
X120064353Y-93782432D01*
X120040641Y-93731344D01*
X120001793Y-93664904D01*
X119949281Y-93590538D01*
X119880166Y-93504628D01*
X119791509Y-93403555D01*
X119680372Y-93283701D01*
X119543816Y-93141447D01*
X119450058Y-93043736D01*
X119358321Y-92944891D01*
X119289411Y-92866565D01*
X119244098Y-92809836D01*
X119223151Y-92775779D01*
X119227340Y-92765471D01*
X119257435Y-92779988D01*
X119314207Y-92820407D01*
X119323343Y-92827316D01*
X119382098Y-92865805D01*
X119434444Y-92884034D01*
X119498275Y-92888637D01*
X119578149Y-92882653D01*
X119651184Y-92857241D01*
X119720341Y-92805908D01*
X119763637Y-92766474D01*
X119763637Y-91808448D01*
X119763637Y-90850423D01*
X119681857Y-90828646D01*
X119626224Y-90806516D01*
X119541462Y-90745835D01*
X119466366Y-90661901D01*
X119407338Y-90564042D01*
X119370775Y-90461590D01*
X119363077Y-90363873D01*
X119369167Y-90300531D01*
X119413619Y-90390776D01*
X119457490Y-90456132D01*
X119528478Y-90516137D01*
X119609932Y-90550016D01*
X119692110Y-90552127D01*
X119700016Y-90550328D01*
X119747821Y-90535902D01*
X119818435Y-90511480D01*
X119905309Y-90479643D01*
X120001893Y-90442971D01*
X120101637Y-90404044D01*
X120197992Y-90365445D01*
X120284406Y-90329752D01*
X120354330Y-90299547D01*
X120401216Y-90277411D01*
X120418511Y-90265924D01*
X120409771Y-90253271D01*
X120376719Y-90220044D01*
X120324742Y-90172770D01*
X120259905Y-90117137D01*
X120121932Y-90011581D01*
X119983126Y-89923689D01*
X119851484Y-89858063D01*
X119734773Y-89819109D01*
X119638561Y-89797325D01*
X119633544Y-88961731D01*
X119628526Y-88126137D01*
X119569630Y-88087652D01*
X119544124Y-88067824D01*
X119498559Y-88024342D01*
X119449488Y-87971284D01*
X119404741Y-87917694D01*
X119372150Y-87872613D01*
X119359546Y-87845084D01*
X119373362Y-87839088D01*
X119408905Y-87847598D01*
X119462896Y-87862371D01*
X119576921Y-87865030D01*
X119705496Y-87836276D01*
X119845720Y-87777446D01*
X119994688Y-87689878D01*
X120149499Y-87574907D01*
X120307249Y-87433871D01*
X120357338Y-87385824D01*
X120411093Y-87335768D01*
X120449628Y-87301681D01*
X120466852Y-87289091D01*
X120474156Y-87296392D01*
G37*
G36*
X126969925Y-92914306D02*
G01*
X127049300Y-92940758D01*
X127099904Y-92962438D01*
X127193580Y-93030878D01*
X127271286Y-93126297D01*
X127327917Y-93241607D01*
X127358362Y-93369716D01*
X127360251Y-93386826D01*
X127362840Y-93442993D01*
X127355719Y-93462140D01*
X127339287Y-93444096D01*
X127313944Y-93388692D01*
X127301217Y-93360666D01*
X127242323Y-93283550D01*
X127161482Y-93237278D01*
X127060398Y-93222527D01*
X126940780Y-93239979D01*
X126928237Y-93243643D01*
X126875819Y-93261183D01*
X126796098Y-93289532D01*
X126693601Y-93326959D01*
X126572854Y-93371734D01*
X126438383Y-93422124D01*
X126294716Y-93476401D01*
X126146378Y-93532832D01*
X125997897Y-93589686D01*
X125853798Y-93645233D01*
X125718608Y-93697743D01*
X125596853Y-93745483D01*
X125493061Y-93786722D01*
X125411756Y-93819731D01*
X125357467Y-93842779D01*
X125334719Y-93854133D01*
X125333678Y-93855057D01*
X125304362Y-93867434D01*
X125274896Y-93850212D01*
X125242751Y-93800691D01*
X125205395Y-93716171D01*
X125188704Y-93676379D01*
X125130186Y-93558497D01*
X125061052Y-93442745D01*
X124988591Y-93340682D01*
X124920094Y-93263864D01*
X124858786Y-93206137D01*
X124535072Y-93542636D01*
X124469063Y-93610869D01*
X124385100Y-93696467D01*
X124312775Y-93768816D01*
X124255805Y-93824255D01*
X124217910Y-93859123D01*
X124202810Y-93869757D01*
X124192664Y-93852687D01*
X124170252Y-93809646D01*
X124141416Y-93751403D01*
X124140114Y-93748725D01*
X124113850Y-93698301D01*
X124083688Y-93648618D01*
X124046301Y-93595680D01*
X123998363Y-93535487D01*
X123936548Y-93464043D01*
X123857529Y-93377349D01*
X123757981Y-93271408D01*
X123634576Y-93142221D01*
X123591518Y-93097241D01*
X123507363Y-93008586D01*
X123433774Y-92930083D01*
X123374801Y-92866106D01*
X123334496Y-92821028D01*
X123316911Y-92799224D01*
X123306252Y-92773580D01*
X123313965Y-92760829D01*
X123343405Y-92772754D01*
X123390540Y-92808828D01*
X123409805Y-92824704D01*
X123463363Y-92860904D01*
X123507786Y-92881111D01*
X123534322Y-92885973D01*
X123621779Y-92885493D01*
X123711308Y-92866410D01*
X123783546Y-92832161D01*
X123843031Y-92789804D01*
X123843031Y-91751257D01*
X123843030Y-91710472D01*
X123842996Y-91606366D01*
X124882122Y-91606366D01*
X124882223Y-91839500D01*
X124882614Y-92073069D01*
X124883339Y-92272391D01*
X124884439Y-92439729D01*
X124885956Y-92577347D01*
X124887933Y-92687509D01*
X124890412Y-92772479D01*
X124893433Y-92834520D01*
X124897039Y-92875898D01*
X124901272Y-92898876D01*
X124906175Y-92905717D01*
X124923393Y-92900510D01*
X124972091Y-92883194D01*
X125045967Y-92855901D01*
X125139237Y-92820851D01*
X125246115Y-92780268D01*
X125360818Y-92736373D01*
X125477561Y-92691390D01*
X125590560Y-92647541D01*
X125694030Y-92607048D01*
X125782188Y-92572134D01*
X125849248Y-92545021D01*
X125889427Y-92527932D01*
X125941869Y-92503969D01*
X125939671Y-91866230D01*
X125939115Y-91764649D01*
X125937545Y-91617630D01*
X125935225Y-91485246D01*
X125932287Y-91372268D01*
X125928863Y-91283465D01*
X125925086Y-91223608D01*
X125921089Y-91197465D01*
X125918297Y-91192052D01*
X125899112Y-91153224D01*
X125869966Y-91092998D01*
X125835981Y-91021935D01*
X125829232Y-91007927D01*
X125724685Y-90826499D01*
X125600501Y-90667233D01*
X125460616Y-90533393D01*
X125308966Y-90428244D01*
X125149488Y-90355050D01*
X124986118Y-90317076D01*
X124882122Y-90304853D01*
X124882122Y-91606366D01*
X123842996Y-91606366D01*
X123842958Y-91489858D01*
X123842693Y-91303935D01*
X123842125Y-91149456D01*
X123841143Y-91023173D01*
X123839635Y-90921840D01*
X123837492Y-90842209D01*
X123834603Y-90781032D01*
X123830856Y-90735064D01*
X123826141Y-90701056D01*
X123820348Y-90675762D01*
X123813365Y-90655934D01*
X123805083Y-90638325D01*
X123761402Y-90571721D01*
X123692988Y-90507202D01*
X123618616Y-90471208D01*
X123617727Y-90470983D01*
X123580039Y-90454137D01*
X123580335Y-90435272D01*
X123618616Y-90418489D01*
X123679042Y-90391790D01*
X123749410Y-90331928D01*
X123805083Y-90251372D01*
X123811010Y-90239172D01*
X123818638Y-90219732D01*
X123824949Y-90195734D01*
X123830069Y-90163786D01*
X123834121Y-90120493D01*
X123837230Y-90062464D01*
X123839520Y-89986307D01*
X123841115Y-89888627D01*
X123842140Y-89766034D01*
X123842717Y-89615134D01*
X123842973Y-89432534D01*
X123843031Y-89214842D01*
X123843031Y-88252696D01*
X123761250Y-88230713D01*
X123712193Y-88210755D01*
X123634131Y-88156835D01*
X123561664Y-88083364D01*
X123505953Y-88000412D01*
X123505639Y-87999803D01*
X123484967Y-87947926D01*
X123466532Y-87882375D01*
X123452898Y-87815668D01*
X123446631Y-87760323D01*
X123450297Y-87728858D01*
X123456749Y-87727690D01*
X123477033Y-87748668D01*
X123503099Y-87792292D01*
X123536777Y-87848096D01*
X123599488Y-87910579D01*
X123677190Y-87942157D01*
X123774072Y-87944178D01*
X123894321Y-87917985D01*
X123921481Y-87908987D01*
X123984752Y-87886364D01*
X124074493Y-87853302D01*
X124185898Y-87811647D01*
X124314159Y-87763246D01*
X124454471Y-87709944D01*
X124602026Y-87653588D01*
X124752018Y-87596022D01*
X124899639Y-87539094D01*
X125040084Y-87484648D01*
X125168544Y-87434531D01*
X125280215Y-87390589D01*
X125370288Y-87354667D01*
X125433957Y-87328612D01*
X125466416Y-87314269D01*
X125469318Y-87312804D01*
X125511070Y-87298689D01*
X125536888Y-87301886D01*
X125551421Y-87326868D01*
X125574771Y-87376913D01*
X125601883Y-87441187D01*
X125661897Y-87571819D01*
X125782409Y-87768636D01*
X125929139Y-87947046D01*
X126097562Y-88103065D01*
X126283156Y-88232712D01*
X126481396Y-88332006D01*
X126687759Y-88396966D01*
X126696461Y-88398902D01*
X126775668Y-88416525D01*
X126845937Y-88432169D01*
X126892955Y-88442647D01*
X126907408Y-88446082D01*
X126932228Y-88456596D01*
X126946639Y-88477772D01*
X126954974Y-88518855D01*
X126961563Y-88589091D01*
X126967391Y-88651547D01*
X126978609Y-88720451D01*
X126996704Y-88767729D01*
X127026151Y-88803523D01*
X127071430Y-88837974D01*
X127095993Y-88854840D01*
X127121930Y-88875835D01*
X127120020Y-88886334D01*
X127093058Y-88893513D01*
X127072279Y-88897177D01*
X127013640Y-88905327D01*
X126945891Y-88912933D01*
X126901267Y-88919034D01*
X126806380Y-88944921D01*
X126712285Y-88990357D01*
X126615181Y-89058213D01*
X126511266Y-89151358D01*
X126396739Y-89272664D01*
X126267799Y-89425000D01*
X126183870Y-89525804D01*
X126089151Y-89630819D01*
X126005252Y-89710457D01*
X125926593Y-89768706D01*
X125847593Y-89809554D01*
X125762672Y-89836991D01*
X125666250Y-89855006D01*
X125620007Y-89857503D01*
X125596157Y-89849455D01*
X125606421Y-89834872D01*
X125652855Y-89819242D01*
X125676121Y-89811145D01*
X125731094Y-89779557D01*
X125785423Y-89735933D01*
X125817627Y-89701224D01*
X125852316Y-89649627D01*
X125880154Y-89586481D01*
X125901729Y-89507952D01*
X125917627Y-89410207D01*
X125928433Y-89289411D01*
X125934735Y-89141731D01*
X125937119Y-88963332D01*
X125936171Y-88750381D01*
X125930834Y-88239322D01*
X125406478Y-88442329D01*
X124882122Y-88645337D01*
X124882122Y-89391520D01*
X124882122Y-90137703D01*
X124926048Y-90126678D01*
X124933613Y-90125125D01*
X124994651Y-90123714D01*
X125077278Y-90133285D01*
X125169273Y-90151498D01*
X125258416Y-90176013D01*
X125332486Y-90204492D01*
X125372563Y-90226219D01*
X125449960Y-90275158D01*
X125546241Y-90341469D01*
X125655320Y-90420701D01*
X125771111Y-90508405D01*
X125887529Y-90600131D01*
X125998487Y-90691430D01*
X126028943Y-90716697D01*
X126131666Y-90797251D01*
X126244502Y-90880108D01*
X126359522Y-90959872D01*
X126468795Y-91031150D01*
X126564390Y-91088548D01*
X126638376Y-91126671D01*
X126651260Y-91132203D01*
X126761893Y-91171208D01*
X126886480Y-91203558D01*
X127008949Y-91225627D01*
X127113231Y-91233788D01*
X127148786Y-91234605D01*
X127193129Y-91238857D01*
X127210455Y-91245522D01*
X127210201Y-91246654D01*
X127194971Y-91268832D01*
X127160854Y-91310053D01*
X127114370Y-91362388D01*
X127094983Y-91383816D01*
X127059205Y-91426151D01*
X127030364Y-91467581D01*
X127007755Y-91512482D01*
X126990674Y-91565230D01*
X126978417Y-91630201D01*
X126970280Y-91711772D01*
X126965558Y-91814318D01*
X126963547Y-91942216D01*
X126963543Y-92099842D01*
X126964843Y-92291572D01*
X126966576Y-92503969D01*
X126969925Y-92914306D01*
G37*
G36*
X145683182Y-88669469D02*
G01*
X145683193Y-88855306D01*
X145683277Y-89103935D01*
X145683502Y-89318537D01*
X145683935Y-89501784D01*
X145684641Y-89656352D01*
X145685687Y-89784916D01*
X145685707Y-89786370D01*
X145687137Y-89890149D01*
X145689058Y-89974727D01*
X145691516Y-90041324D01*
X145694577Y-90092615D01*
X145698307Y-90131274D01*
X145702771Y-90159976D01*
X145708036Y-90181396D01*
X145714168Y-90198207D01*
X145721232Y-90213086D01*
X145733530Y-90235366D01*
X145785437Y-90300211D01*
X145858826Y-90351946D01*
X145962197Y-90397062D01*
X145999037Y-90410940D01*
X146047811Y-90431214D01*
X146073056Y-90444395D01*
X146073385Y-90444720D01*
X146062832Y-90457106D01*
X146024042Y-90476955D01*
X145965038Y-90500127D01*
X145950287Y-90505540D01*
X145839402Y-90562061D01*
X145755353Y-90635185D01*
X145703605Y-90720306D01*
X145703270Y-90721250D01*
X145697336Y-90759254D01*
X145692372Y-90833858D01*
X145688425Y-90943279D01*
X145685545Y-91085736D01*
X145683781Y-91259446D01*
X145683182Y-91462629D01*
X145683182Y-92150782D01*
X145939253Y-92142098D01*
X145992354Y-92140619D01*
X146186281Y-92142316D01*
X146358506Y-92157329D01*
X146521064Y-92187126D01*
X146685985Y-92233175D01*
X146863094Y-92301036D01*
X147068652Y-92413529D01*
X147247427Y-92553515D01*
X147399014Y-92720528D01*
X147523006Y-92914101D01*
X147618996Y-93133770D01*
X147686578Y-93379069D01*
X147692565Y-93409758D01*
X147714062Y-93570083D01*
X147721272Y-93732111D01*
X147714081Y-93883408D01*
X147692376Y-94011541D01*
X147659140Y-94116100D01*
X147579398Y-94282962D01*
X147473683Y-94435485D01*
X147347164Y-94567726D01*
X147205011Y-94673738D01*
X147052393Y-94747577D01*
X147047918Y-94749124D01*
X146977090Y-94765968D01*
X146905076Y-94773144D01*
X146882770Y-94773174D01*
X146857067Y-94771539D01*
X146858537Y-94765389D01*
X146890240Y-94752014D01*
X146955233Y-94728706D01*
X146969847Y-94723438D01*
X147127902Y-94649142D01*
X147260036Y-94550553D01*
X147370639Y-94423665D01*
X147464103Y-94264470D01*
X147477306Y-94235966D01*
X147529105Y-94082024D01*
X147559141Y-93912456D01*
X147566767Y-93738617D01*
X147551332Y-93571861D01*
X147512186Y-93423545D01*
X147475447Y-93344961D01*
X147386486Y-93222652D01*
X147268167Y-93117844D01*
X147125127Y-93034311D01*
X146962004Y-92975828D01*
X146945079Y-92971844D01*
X146863972Y-92958844D01*
X146766312Y-92949773D01*
X146669313Y-92946364D01*
X146591430Y-92947768D01*
X146473448Y-92956438D01*
X146356471Y-92974479D01*
X146234795Y-93003566D01*
X146102713Y-93045371D01*
X145954518Y-93101569D01*
X145784506Y-93173832D01*
X145586970Y-93263835D01*
X145575584Y-93269133D01*
X145479734Y-93313105D01*
X145357227Y-93368495D01*
X145215616Y-93431930D01*
X145062452Y-93500039D01*
X144905288Y-93569450D01*
X144751675Y-93636791D01*
X144195395Y-93879622D01*
X143847281Y-93532962D01*
X143784920Y-93471536D01*
X143678581Y-93369573D01*
X143575142Y-93273540D01*
X143480583Y-93188855D01*
X143400883Y-93120935D01*
X143342022Y-93075199D01*
X143337718Y-93072163D01*
X143158080Y-92956560D01*
X142980121Y-92862805D01*
X142809229Y-92793105D01*
X142650797Y-92749667D01*
X142510215Y-92734697D01*
X142450853Y-92732163D01*
X142418682Y-92721670D01*
X142420225Y-92700390D01*
X142453173Y-92665521D01*
X142461800Y-92656987D01*
X142497629Y-92609492D01*
X142529720Y-92551894D01*
X142530504Y-92550172D01*
X142537456Y-92532758D01*
X142543414Y-92511739D01*
X142548455Y-92484208D01*
X142552656Y-92447260D01*
X142556096Y-92397986D01*
X142557104Y-92374385D01*
X143588501Y-92374385D01*
X143588842Y-92514730D01*
X143589644Y-92629152D01*
X143590963Y-92720269D01*
X143592853Y-92790698D01*
X143595371Y-92843056D01*
X143598572Y-92879961D01*
X143602510Y-92904030D01*
X143607241Y-92917880D01*
X143612821Y-92924128D01*
X143619304Y-92925392D01*
X143619627Y-92925369D01*
X143647050Y-92917767D01*
X143705137Y-92898041D01*
X143788870Y-92868018D01*
X143893234Y-92829525D01*
X144013212Y-92784388D01*
X144143788Y-92734433D01*
X144634470Y-92545204D01*
X144639409Y-91165787D01*
X144644347Y-89786370D01*
X144600924Y-89797856D01*
X144573392Y-89807282D01*
X144514740Y-89829121D01*
X144430534Y-89861279D01*
X144325958Y-89901762D01*
X144206199Y-89948572D01*
X144076440Y-89999716D01*
X143595379Y-90190090D01*
X143590440Y-91558606D01*
X143589695Y-91771646D01*
X143588983Y-92005461D01*
X143588567Y-92205502D01*
X143588501Y-92374385D01*
X142557104Y-92374385D01*
X142558851Y-92333481D01*
X142560999Y-92250838D01*
X142562618Y-92147150D01*
X142563785Y-92019511D01*
X142564578Y-91865013D01*
X142565074Y-91680751D01*
X142565351Y-91463817D01*
X142565487Y-91211305D01*
X142565910Y-89947685D01*
X142493750Y-89904568D01*
X142438496Y-89868694D01*
X142317223Y-89762300D01*
X142229397Y-89638440D01*
X142175989Y-89498732D01*
X142157970Y-89344798D01*
X142157972Y-89342865D01*
X142161621Y-89270288D01*
X142170778Y-89223579D01*
X142183286Y-89205860D01*
X142196988Y-89220254D01*
X142209726Y-89269883D01*
X142211821Y-89280978D01*
X142248120Y-89372054D01*
X142311312Y-89441941D01*
X142395079Y-89483361D01*
X142404538Y-89485938D01*
X142429796Y-89492452D01*
X142453316Y-89495917D01*
X142479813Y-89495014D01*
X142514009Y-89488428D01*
X142560619Y-89474842D01*
X142624364Y-89452939D01*
X142709962Y-89421404D01*
X142822131Y-89378918D01*
X142965589Y-89324166D01*
X142996757Y-89312235D01*
X143135634Y-89257892D01*
X143239553Y-89214890D01*
X143309842Y-89182627D01*
X143347831Y-89160501D01*
X143354849Y-89147909D01*
X143346726Y-89141688D01*
X143309142Y-89116569D01*
X143246285Y-89076265D01*
X143163065Y-89023878D01*
X143064390Y-88962513D01*
X142955169Y-88895271D01*
X142575531Y-88662674D01*
X142572236Y-88033728D01*
X143585758Y-88033728D01*
X143585841Y-88145440D01*
X143586376Y-88335609D01*
X143587367Y-88511767D01*
X143588766Y-88670418D01*
X143590525Y-88808066D01*
X143592595Y-88921213D01*
X143594928Y-89006365D01*
X143597476Y-89060024D01*
X143600190Y-89078695D01*
X143631615Y-89072676D01*
X143691853Y-89052051D01*
X143767306Y-89021139D01*
X143847946Y-88984526D01*
X143923747Y-88946797D01*
X143984683Y-88912538D01*
X144020726Y-88886337D01*
X144033736Y-88873412D01*
X144069029Y-88841891D01*
X144089478Y-88829020D01*
X144089914Y-88829058D01*
X144106535Y-88845652D01*
X144136063Y-88886616D01*
X144172405Y-88943534D01*
X144195701Y-88980120D01*
X144248608Y-89057401D01*
X144311278Y-89144071D01*
X144374612Y-89227359D01*
X144415638Y-89279280D01*
X144478020Y-89356899D01*
X144533911Y-89424996D01*
X144574789Y-89473106D01*
X144642646Y-89550076D01*
X144643369Y-88073220D01*
X144643384Y-88030499D01*
X144643273Y-87797712D01*
X144642846Y-87576943D01*
X144642127Y-87371135D01*
X144641140Y-87183227D01*
X144639911Y-87016160D01*
X144638463Y-86872875D01*
X144636823Y-86756313D01*
X144635013Y-86669413D01*
X144633060Y-86615116D01*
X144630987Y-86596364D01*
X144629489Y-86596660D01*
X144601901Y-86605893D01*
X144543979Y-86626791D01*
X144460367Y-86657632D01*
X144355707Y-86696694D01*
X144234643Y-86742254D01*
X144101821Y-86792591D01*
X143585758Y-86988819D01*
X143585758Y-88033728D01*
X142572236Y-88033728D01*
X142570543Y-87710689D01*
X142565555Y-86758704D01*
X142400062Y-86676628D01*
X142265539Y-86598782D01*
X142135871Y-86499736D01*
X142026725Y-86390187D01*
X141943873Y-86275981D01*
X141893086Y-86162968D01*
X141887631Y-86140911D01*
X141877644Y-86065943D01*
X141876684Y-85990228D01*
X141883026Y-85894016D01*
X141907695Y-86001589D01*
X141911106Y-86015728D01*
X141943722Y-86102754D01*
X141994174Y-86167806D01*
X142040028Y-86208685D01*
X142105491Y-86253589D01*
X142175448Y-86280813D01*
X142261059Y-86294175D01*
X142373485Y-86297488D01*
X142556288Y-86296870D01*
X143332702Y-85996348D01*
X143412560Y-85965388D01*
X143599089Y-85892545D01*
X143753545Y-85831273D01*
X143878855Y-85780313D01*
X143977947Y-85738408D01*
X144053746Y-85704299D01*
X144109181Y-85676729D01*
X144147178Y-85654438D01*
X144170663Y-85636170D01*
X144190574Y-85617317D01*
X144231219Y-85584533D01*
X144252861Y-85579776D01*
X144259243Y-85601586D01*
X144262697Y-85620097D01*
X144282432Y-85672347D01*
X144315754Y-85743535D01*
X144358178Y-85825176D01*
X144405218Y-85908783D01*
X144452388Y-85985871D01*
X144495203Y-86047955D01*
X144504210Y-86059650D01*
X144565269Y-86132769D01*
X144638480Y-86213242D01*
X144709931Y-86285668D01*
X144837337Y-86407927D01*
X145120752Y-86142582D01*
X145208256Y-86060404D01*
X145311001Y-85963371D01*
X145409504Y-85869828D01*
X145495788Y-85787354D01*
X145561878Y-85723524D01*
X145719589Y-85569811D01*
X145927484Y-85728674D01*
X145963065Y-85755989D01*
X146314571Y-86041199D01*
X146629011Y-86326203D01*
X146907647Y-86612292D01*
X147151744Y-86900754D01*
X147362564Y-87192879D01*
X147365222Y-87196903D01*
X147483332Y-87385388D01*
X147575430Y-87555492D01*
X147644167Y-87714308D01*
X147692195Y-87868932D01*
X147722167Y-88026458D01*
X147736733Y-88193982D01*
X147735390Y-88375874D01*
X147710019Y-88552237D01*
X147658603Y-88703771D01*
X147580212Y-88833124D01*
X147473916Y-88942945D01*
X147471979Y-88944564D01*
X147400274Y-88999722D01*
X147331569Y-89039884D01*
X147255495Y-89069047D01*
X147161686Y-89091211D01*
X147039773Y-89110374D01*
X146996484Y-89113495D01*
X146878357Y-89101339D01*
X146749195Y-89064212D01*
X146618045Y-89005851D01*
X146493952Y-88929991D01*
X146385959Y-88840367D01*
X146332480Y-88783010D01*
X146228329Y-88636008D01*
X146150814Y-88472448D01*
X146103514Y-88300917D01*
X146090005Y-88130000D01*
X146092737Y-88029925D01*
X146106374Y-88155000D01*
X146132659Y-88317864D01*
X146184284Y-88485647D01*
X146260891Y-88632898D01*
X146365359Y-88766419D01*
X146377445Y-88779206D01*
X146507743Y-88890079D01*
X146654673Y-88973078D01*
X146812002Y-89026650D01*
X146973498Y-89049242D01*
X147132929Y-89039303D01*
X147284063Y-88995280D01*
X147353715Y-88955882D01*
X147440728Y-88883852D01*
X147518309Y-88796813D01*
X147574547Y-88706605D01*
X147576309Y-88702860D01*
X147637292Y-88527644D01*
X147662770Y-88340061D01*
X147653203Y-88141390D01*
X147609049Y-87932910D01*
X147530768Y-87715897D01*
X147418818Y-87491632D01*
X147273659Y-87261392D01*
X147095749Y-87026456D01*
X146885548Y-86788101D01*
X146855900Y-86756744D01*
X146765709Y-86662647D01*
X146695377Y-86592623D01*
X146640272Y-86543170D01*
X146595765Y-86510786D01*
X146557226Y-86491971D01*
X146520023Y-86483221D01*
X146479527Y-86481036D01*
X146462804Y-86481083D01*
X146436167Y-86482732D01*
X146410451Y-86488901D01*
X146381361Y-86502533D01*
X146344599Y-86526572D01*
X146295871Y-86563963D01*
X146230880Y-86617647D01*
X146145329Y-86690570D01*
X146034924Y-86785675D01*
X145932042Y-86876058D01*
X145854477Y-86948504D01*
X145798328Y-87007223D01*
X145758990Y-87057036D01*
X145731856Y-87102761D01*
X145683182Y-87200435D01*
X145683182Y-88030499D01*
X145683182Y-88669469D01*
G37*
D13*
%TO.C,J2*%
X155855000Y-85766000D02*
X155855000Y-85131000D01*
X155220000Y-85766000D02*
X155855000Y-85766000D01*
%TO.C,U1*%
X128777000Y-112612500D02*
X135777000Y-112612500D01*
X135777000Y-112612500D02*
X135777000Y-120112500D01*
X135777000Y-120112500D02*
X128777000Y-120112500D01*
X128777000Y-120112500D02*
X128777000Y-112612500D01*
D16*
X129840750Y-111777500D02*
G75*
G03*
X129840750Y-111777500I-183750J0D01*
G01*
D17*
%TO.C,J5*%
X103770000Y-68650000D02*
X103770000Y-59650000D01*
X118390000Y-68650000D02*
X103770000Y-68650000D01*
X118390000Y-66370000D02*
X118390000Y-68650000D01*
X103770000Y-59650000D02*
X111480000Y-59650000D01*
X117160000Y-59650000D02*
X118390000Y-59650000D01*
X118390000Y-59650000D02*
X118390000Y-61930000D01*
D13*
%TO.C,U8*%
X134710000Y-77860000D02*
X134710000Y-76860000D01*
X135460000Y-77860000D02*
X134710000Y-77860000D01*
X134710000Y-59860000D02*
X134710000Y-60860000D01*
X135460000Y-59860000D02*
X134710000Y-59860000D01*
%TD*%
%LPC*%
D18*
%TO.C,H6*%
X152770000Y-137290000D03*
%TD*%
D19*
%TO.C,J4*%
X109730000Y-88450000D03*
X109730000Y-82670000D03*
D20*
X110805000Y-88760000D03*
X110805000Y-87960000D03*
D21*
X110805000Y-86810000D03*
X110805000Y-85810000D03*
X110805000Y-85310000D03*
X110805000Y-84310000D03*
D20*
X110805000Y-82360000D03*
X110805000Y-83160000D03*
D21*
X110805000Y-83810000D03*
X110805000Y-84810000D03*
X110805000Y-86310000D03*
X110805000Y-87310000D03*
D22*
X110230000Y-89880000D03*
D23*
X106050000Y-89880000D03*
D22*
X110230000Y-81240000D03*
D23*
X106050000Y-81240000D03*
%TD*%
D24*
%TO.C,H1*%
X105109949Y-50173949D03*
X105768959Y-48582959D03*
X105768959Y-51764939D03*
X107359949Y-47923949D03*
D25*
X107359949Y-50173949D03*
D24*
X107359949Y-52423949D03*
X108950939Y-48582959D03*
X108950939Y-51764939D03*
X109609949Y-50173949D03*
%TD*%
D18*
%TO.C,H5*%
X111404000Y-95924000D03*
%TD*%
D26*
%TO.C,U16*%
X132505001Y-68575000D03*
X131615001Y-69465000D03*
X131615001Y-68575000D03*
X131615001Y-67685000D03*
X130735001Y-68575000D03*
%TD*%
D24*
%TO.C,H2*%
X154536959Y-50240939D03*
X155195969Y-48649949D03*
X155195969Y-51831929D03*
X156786959Y-47990939D03*
D25*
X156786959Y-50240939D03*
D24*
X156786959Y-52490939D03*
X158377949Y-48649949D03*
X158377949Y-51831929D03*
X159036959Y-50240939D03*
%TD*%
%TO.C,H3*%
X105006959Y-142950939D03*
X105665969Y-141359949D03*
X105665969Y-144541929D03*
X107256959Y-140700939D03*
D25*
X107256959Y-142950939D03*
D24*
X107256959Y-145200939D03*
X108847949Y-141359949D03*
X108847949Y-144541929D03*
X109506959Y-142950939D03*
%TD*%
%TO.C,H4*%
X154603949Y-142847949D03*
X155262959Y-141256959D03*
X155262959Y-144438939D03*
X156853949Y-140597949D03*
D25*
X156853949Y-142847949D03*
D24*
X156853949Y-145097949D03*
X158444939Y-141256959D03*
X158444939Y-144438939D03*
X159103949Y-142847949D03*
%TD*%
D27*
%TO.C,J3*%
X151860000Y-56960000D03*
X148560000Y-54420000D03*
X151860000Y-51880000D03*
X148560000Y-49340000D03*
%TD*%
D28*
%TO.C,J6*%
X120960000Y-143980001D03*
D29*
X115880000Y-141820000D03*
X118420000Y-141820000D03*
X120960000Y-141820000D03*
X123500000Y-141820000D03*
%TD*%
D30*
%TO.C,C24*%
X133610000Y-141670000D03*
X128210000Y-141670000D03*
%TD*%
D31*
%TO.C,J1*%
X156450000Y-91620000D03*
X151370000Y-92636000D03*
X151370000Y-90604000D03*
D32*
X155180000Y-92255000D03*
X155180000Y-90985000D03*
X153910000Y-92255000D03*
X153910000Y-90985000D03*
X152640000Y-92255000D03*
X152640000Y-90985000D03*
%TD*%
D33*
%TO.C,SW1*%
X117115002Y-49353000D03*
X121314998Y-49353000D03*
D34*
X115840000Y-47448000D03*
X122590000Y-47448000D03*
%TD*%
D35*
%TO.C,FID2*%
X151920000Y-142880000D03*
%TD*%
%TO.C,FID3*%
X107320000Y-55670000D03*
%TD*%
D33*
%TO.C,SW2*%
X140220002Y-49353000D03*
X144419998Y-49353000D03*
D34*
X138945000Y-47448000D03*
X145695000Y-47448000D03*
%TD*%
D36*
%TO.C,J7*%
X157890000Y-124970000D03*
D37*
X157890000Y-127510000D03*
X157890000Y-130050000D03*
%TD*%
D35*
%TO.C,FID5*%
X156970000Y-55620000D03*
%TD*%
D31*
%TO.C,J2*%
X156490000Y-84496000D03*
X151410000Y-85512000D03*
X151410000Y-83480000D03*
D32*
X155220000Y-85131000D03*
X155220000Y-83861000D03*
X153950000Y-85131000D03*
X153950000Y-83861000D03*
X152680000Y-85131000D03*
X152680000Y-83861000D03*
%TD*%
D35*
%TO.C,FID6*%
X112360000Y-142540000D03*
%TD*%
D38*
%TO.C,U1*%
X130124500Y-112865000D03*
X130739500Y-112865000D03*
X131354500Y-112865000D03*
X131969500Y-112865000D03*
X132584500Y-112865000D03*
X133199500Y-112865000D03*
X133814500Y-112865000D03*
X134429500Y-112865000D03*
D39*
X135409500Y-112980500D03*
X135409500Y-113595500D03*
X135409500Y-114210500D03*
X135409500Y-114825500D03*
X135409500Y-115440500D03*
X135409500Y-116055500D03*
X135409500Y-116670500D03*
X135409500Y-117285500D03*
X135409500Y-117900500D03*
X135409500Y-118515500D03*
X135409500Y-119130500D03*
X135409500Y-119745500D03*
D38*
X134429500Y-119860000D03*
X133814500Y-119860000D03*
X133199500Y-119860000D03*
X132584500Y-119860000D03*
X131969500Y-119860000D03*
X131354500Y-119860000D03*
X130739500Y-119860000D03*
X130124500Y-119860000D03*
D39*
X129144500Y-119745500D03*
X129144500Y-119130500D03*
X129144500Y-118515500D03*
X129144500Y-117900500D03*
X129144500Y-117285500D03*
X129144500Y-116670500D03*
X129144500Y-116055500D03*
X129144500Y-115440500D03*
X129144500Y-114825500D03*
X129144500Y-114210500D03*
X129144500Y-113595500D03*
X129144500Y-112980500D03*
D40*
X130312000Y-113946500D03*
X130312000Y-115154500D03*
X130312000Y-116362500D03*
X130312000Y-117570500D03*
X130312000Y-118778500D03*
X131622000Y-118778500D03*
X131622000Y-117570500D03*
X131622000Y-116362500D03*
X131622000Y-115154500D03*
X131622000Y-113946500D03*
X132932000Y-113946500D03*
X132932000Y-115154500D03*
X132932000Y-116362500D03*
X132932000Y-117570500D03*
X132932000Y-118778500D03*
X134242000Y-118778500D03*
X134242000Y-117570500D03*
X134242000Y-116362500D03*
X134242000Y-115154500D03*
X134242000Y-113946500D03*
%TD*%
D41*
%TO.C,J5*%
X117620000Y-64150000D03*
X111690000Y-64150000D03*
D42*
X114020000Y-59420000D03*
%TD*%
D43*
%TO.C,U8*%
X152720000Y-77610000D03*
X151450000Y-77610000D03*
X150180000Y-77610000D03*
X148910000Y-77610000D03*
X147640000Y-77610000D03*
X146370000Y-77610000D03*
X145100000Y-77610000D03*
X143830000Y-77610000D03*
X142560000Y-77610000D03*
X141290000Y-77610000D03*
X140020000Y-77610000D03*
X138750000Y-77610000D03*
X137480000Y-77610000D03*
X136210000Y-77610000D03*
D44*
X134960000Y-75845000D03*
X134960000Y-74575000D03*
X134960000Y-73305000D03*
X134960000Y-72035000D03*
X134960000Y-70765000D03*
X134960000Y-69495000D03*
X134960000Y-68225000D03*
X134960000Y-66955000D03*
X134960000Y-65685000D03*
X134960000Y-64415000D03*
X134960000Y-63145000D03*
X134960000Y-61875000D03*
D43*
X136210000Y-60110000D03*
X137480000Y-60110000D03*
X138750000Y-60110000D03*
X140020000Y-60110000D03*
X141290000Y-60110000D03*
X142560000Y-60110000D03*
X143830000Y-60110000D03*
X145100000Y-60110000D03*
X146370000Y-60110000D03*
X147640000Y-60110000D03*
X148910000Y-60110000D03*
X150180000Y-60110000D03*
X151450000Y-60110000D03*
X152720000Y-60110000D03*
D45*
X143600000Y-71760000D03*
X145000000Y-71760000D03*
X146400000Y-71760000D03*
X143600000Y-70360000D03*
X145000000Y-70360000D03*
X146400000Y-70360000D03*
X143600000Y-68960000D03*
X145000000Y-68960000D03*
X146400000Y-68960000D03*
%TD*%
%LPD*%
M02*
