%TF.GenerationSoftware,KiCad,Pcbnew,7.0.9*%
%TF.CreationDate,2024-02-22T17:15:05-05:00*%
%TF.ProjectId,blockaxe1,626c6f63-6b61-4786-9531-2e6b69636164,rev?*%
%TF.SameCoordinates,Original*%
%TF.FileFunction,Copper,L2,Inr*%
%TF.FilePolarity,Positive*%
%FSLAX46Y46*%
G04 Gerber Fmt 4.6, Leading zero omitted, Abs format (unit mm)*
G04 Created by KiCad (PCBNEW 7.0.9) date 2024-02-22 17:15:05*
%MOMM*%
%LPD*%
G01*
G04 APERTURE LIST*
%TA.AperFunction,ComponentPad*%
%ADD10O,2.100000X1.000000*%
%TD*%
%TA.AperFunction,ComponentPad*%
%ADD11O,1.800000X1.000000*%
%TD*%
%TA.AperFunction,ComponentPad*%
%ADD12C,0.800000*%
%TD*%
%TA.AperFunction,ComponentPad*%
%ADD13C,6.000000*%
%TD*%
%TA.AperFunction,ComponentPad*%
%ADD14C,0.500000*%
%TD*%
%TA.AperFunction,ComponentPad*%
%ADD15C,1.574800*%
%TD*%
%TA.AperFunction,ComponentPad*%
%ADD16R,1.700000X1.700000*%
%TD*%
%TA.AperFunction,ComponentPad*%
%ADD17O,1.700000X1.700000*%
%TD*%
%TA.AperFunction,ComponentPad*%
%ADD18O,1.900000X3.800000*%
%TD*%
%TA.AperFunction,ComponentPad*%
%ADD19O,3.800000X1.900000*%
%TD*%
%TA.AperFunction,ViaPad*%
%ADD20C,0.800000*%
%TD*%
%TA.AperFunction,ViaPad*%
%ADD21C,1.400000*%
%TD*%
%TA.AperFunction,ViaPad*%
%ADD22C,1.200000*%
%TD*%
%TA.AperFunction,Conductor*%
%ADD23C,0.250000*%
%TD*%
G04 APERTURE END LIST*
D10*
%TO.N,GND*%
%TO.C,J4*%
X110230000Y-89880000D03*
D11*
X106050000Y-89880000D03*
D10*
X110230000Y-81240000D03*
D11*
X106050000Y-81240000D03*
%TD*%
D12*
%TO.N,GND*%
%TO.C,H1*%
X105109949Y-50173949D03*
X105768959Y-48582959D03*
X105768959Y-51764939D03*
X107359949Y-47923949D03*
D13*
X107359949Y-50173949D03*
D12*
X107359949Y-52423949D03*
X108950939Y-48582959D03*
X108950939Y-51764939D03*
X109609949Y-50173949D03*
%TD*%
D14*
%TO.N,GND*%
%TO.C,U16*%
X132505001Y-68575000D03*
X131615001Y-69465000D03*
X131615001Y-68575000D03*
X131615001Y-67685000D03*
X130735001Y-68575000D03*
%TD*%
D12*
%TO.N,GND*%
%TO.C,H2*%
X154536959Y-50240939D03*
X155195969Y-48649949D03*
X155195969Y-51831929D03*
X156786959Y-47990939D03*
D13*
X156786959Y-50240939D03*
D12*
X156786959Y-52490939D03*
X158377949Y-48649949D03*
X158377949Y-51831929D03*
X159036959Y-50240939D03*
%TD*%
%TO.N,GND*%
%TO.C,H3*%
X105006959Y-142950939D03*
X105665969Y-141359949D03*
X105665969Y-144541929D03*
X107256959Y-140700939D03*
D13*
X107256959Y-142950939D03*
D12*
X107256959Y-145200939D03*
X108847949Y-141359949D03*
X108847949Y-144541929D03*
X109506959Y-142950939D03*
%TD*%
%TO.N,GND*%
%TO.C,H4*%
X154603949Y-142847949D03*
X155262959Y-141256959D03*
X155262959Y-144438939D03*
X156853949Y-140597949D03*
D13*
X156853949Y-142847949D03*
D12*
X156853949Y-145097949D03*
X158444939Y-141256959D03*
X158444939Y-144438939D03*
X159103949Y-142847949D03*
%TD*%
D15*
%TO.N,GND*%
%TO.C,J6*%
X115880000Y-141820000D03*
%TO.N,/5V*%
X118420000Y-141820000D03*
%TO.N,/Fan/FAN_TACH*%
X120960000Y-141820000D03*
%TO.N,/Fan/FAN_PWM*%
X123500000Y-141820000D03*
%TD*%
D16*
%TO.N,/STM32/RX2*%
%TO.C,J7*%
X157890000Y-124970000D03*
D17*
%TO.N,/STM32/TX2*%
X157890000Y-127510000D03*
%TO.N,GND*%
X157890000Y-130050000D03*
%TD*%
D18*
%TO.N,IN+*%
%TO.C,J5*%
X117620000Y-64150000D03*
%TO.N,GND*%
X111690000Y-64150000D03*
D19*
%TO.N,/PLUG_SENSE*%
X114020000Y-59420000D03*
%TD*%
D20*
%TO.N,GND*%
X112550000Y-90390000D03*
%TO.N,Net-(J4-CC1)*%
X112950000Y-87630000D03*
%TO.N,VDD*%
X152420000Y-125300000D03*
%TO.N,GND*%
X143920000Y-122710000D03*
X145070000Y-122790000D03*
X150380000Y-125920000D03*
%TO.N,/STM32/SWRESET*%
X153920000Y-93930000D03*
%TO.N,GND*%
X147730000Y-69110000D03*
X139780000Y-120970000D03*
X122670000Y-136140000D03*
X136350000Y-72860000D03*
X144190000Y-118520000D03*
X153960000Y-82580000D03*
D21*
X130990000Y-121392500D03*
D20*
X137050000Y-115570000D03*
X130150000Y-128450000D03*
X113060000Y-71750000D03*
D21*
X124530000Y-97380000D03*
D20*
X152640000Y-93880000D03*
X155290000Y-99540000D03*
X145490000Y-98940000D03*
X113440000Y-77590000D03*
D21*
X121920000Y-86235000D03*
D20*
X138740000Y-51030000D03*
X126610000Y-121730000D03*
X147730000Y-70360000D03*
X121750000Y-115070000D03*
X150660000Y-104800000D03*
X150170000Y-116680000D03*
X132260000Y-131200000D03*
D21*
X122110000Y-95112500D03*
D20*
X142110000Y-56700000D03*
X123220000Y-71080000D03*
D21*
X127050000Y-95142500D03*
D20*
X134870000Y-129990000D03*
X147670000Y-106500000D03*
X152070000Y-116680000D03*
X156840000Y-111760000D03*
X151144500Y-121960000D03*
X128800000Y-64280000D03*
D22*
X152080000Y-74320000D03*
D20*
X125170000Y-116630000D03*
D22*
X152094500Y-62390000D03*
D21*
X127050000Y-97380000D03*
D20*
X147730000Y-71650000D03*
X114340000Y-49350000D03*
X111040000Y-131680000D03*
X153920000Y-56950000D03*
D21*
X121920000Y-83997500D03*
D20*
X125870000Y-111850000D03*
D22*
X149500000Y-56950000D03*
D20*
X126240000Y-143640000D03*
D21*
X130990000Y-123630000D03*
D20*
X144660000Y-67560000D03*
D21*
X133410000Y-123660000D03*
X123920000Y-81790000D03*
X121920000Y-81760000D03*
X123940000Y-84000000D03*
X124230000Y-62360000D03*
X124530000Y-95142500D03*
D20*
X154890000Y-114205501D03*
X119190000Y-55390000D03*
X128210000Y-109880000D03*
D21*
X123950000Y-86240000D03*
X122110000Y-97350000D03*
X133410000Y-121422500D03*
D20*
X147580000Y-110340000D03*
X155230000Y-124010000D03*
X137750000Y-110930000D03*
X126380000Y-50100000D03*
X133120000Y-65510000D03*
X148560000Y-116720000D03*
X128527299Y-67257299D03*
%TO.N,/ASIC/1V2*%
X137455000Y-119955000D03*
X127540000Y-119535500D03*
X138090000Y-114844500D03*
X144170000Y-101020000D03*
%TO.N,Net-(U1-VDD_INT_1)*%
X128640000Y-111830000D03*
%TO.N,/ESP32/EN*%
X120500000Y-52700000D03*
X148930000Y-75260000D03*
X155190000Y-87290000D03*
%TO.N,/ESP32/XIN32*%
X145310000Y-73090000D03*
%TO.N,/ESP32/XOUT32*%
X143020000Y-73060000D03*
%TO.N,/SCL*%
X111845000Y-78755000D03*
X126790000Y-61800000D03*
X150335881Y-55320174D03*
%TO.N,/SDA*%
X111985000Y-80075000D03*
X150510728Y-54120728D03*
X126605000Y-63215000D03*
%TO.N,/PWR_EN*%
X141080000Y-64600000D03*
%TO.N,VDD*%
X147910000Y-51920000D03*
D22*
X134000000Y-77310000D03*
D20*
X111965500Y-77494375D03*
X155270000Y-93890000D03*
X106340000Y-136250000D03*
X146410000Y-112180000D03*
X130430000Y-131200000D03*
X152500000Y-122150000D03*
X156710000Y-101500000D03*
X154680000Y-112450000D03*
X155220000Y-82600000D03*
X143720000Y-61850000D03*
X129510000Y-58080000D03*
D21*
X123050000Y-55430000D03*
D20*
X144610000Y-120370000D03*
X126250000Y-51730000D03*
X111890000Y-128350000D03*
D22*
X150810000Y-75720000D03*
D20*
%TO.N,/5V*%
X120780000Y-138500000D03*
D22*
X119160000Y-74930000D03*
D20*
%TO.N,Net-(U16-VIN)*%
X124570000Y-67170000D03*
X130870000Y-64680000D03*
%TO.N,/Power/SW*%
X132380000Y-77450000D03*
X128980000Y-70820000D03*
%TO.N,/PGOOD*%
X139180000Y-63010000D03*
%TO.N,/STM32/SWDIO*%
X155220000Y-89260000D03*
%TO.N,/STM32/SWCLK*%
X153950000Y-88470000D03*
%TO.N,/STM32/SWO*%
X152700000Y-87840000D03*
%TO.N,Net-(J4-CC2)*%
X112810000Y-84000000D03*
%TO.N,Net-(U1-TCK)*%
X136600000Y-114220000D03*
%TO.N,Net-(U1-TDI)*%
X137186218Y-113395500D03*
%TO.N,/ESP32/P_TX*%
X148910000Y-62950000D03*
X153980000Y-87320000D03*
%TO.N,/ESP32/P_RX*%
X148850000Y-87440000D03*
X147640000Y-62950000D03*
%TO.N,/ESP32/IO0*%
X152640000Y-82220000D03*
X137050000Y-52350000D03*
%TO.N,/STM32/RX2*%
X156690000Y-119430000D03*
%TO.N,/STM32/TX2*%
X154390000Y-121870000D03*
%TO.N,Net-(U1-TDO)*%
X137232451Y-112397068D03*
%TO.N,Net-(U1-PINSEL)*%
X125140000Y-115180000D03*
%TO.N,Net-(U1-REFCLKOUT1)*%
X122250000Y-108450000D03*
%TO.N,Net-(U1-TMS)*%
X124260000Y-108460000D03*
%TO.N,Net-(U1-TRST)*%
X126320000Y-108440000D03*
%TO.N,Net-(U1-RX_OUT)*%
X115170000Y-111700000D03*
%TO.N,Net-(U1-RESET_OUT)*%
X117250000Y-111700000D03*
%TO.N,Net-(U1-TX_IN)*%
X119280000Y-111710000D03*
%TO.N,Net-(U16-CS+)*%
X132490000Y-73300000D03*
X133340000Y-71780000D03*
%TO.N,Net-(U1-TRIP_IN)*%
X121350000Y-111710000D03*
%TO.N,Net-(U1-REFCLKOUT2)*%
X139580000Y-123220000D03*
%TO.N,/ASIC/TRIP_OUT*%
X144674500Y-101978422D03*
%TO.N,/ASIC/TX_OUT*%
X145124500Y-102971984D03*
%TO.N,/ASIC/RESET_IN*%
X145574500Y-103914160D03*
%TO.N,/ASIC/CLK*%
X126660000Y-120400000D03*
%TO.N,/STM32/RESET*%
X154690000Y-117430001D03*
X155724500Y-104640000D03*
%TO.N,/ESP32/TX*%
X152480000Y-110030000D03*
%TO.N,/ESP32/RX*%
X151478054Y-110052652D03*
%TO.N,Net-(Q5-G)*%
X125640000Y-85320000D03*
X128540000Y-69200000D03*
%TO.N,/ASIC/RX_IN*%
X146039850Y-104798724D03*
D21*
%TO.N,/COREV*%
X133100000Y-104140000D03*
X130890000Y-104120000D03*
X130890000Y-109500000D03*
X135220000Y-106890000D03*
X130890000Y-106810000D03*
D20*
X141380000Y-71180000D03*
D21*
X135220000Y-109580000D03*
X137280000Y-104170000D03*
X133100000Y-106830000D03*
X137280000Y-106860000D03*
X133100000Y-109520000D03*
X135220000Y-104200000D03*
D20*
%TO.N,/PLUG_SENSE*%
X139315500Y-64120000D03*
X131640000Y-60930000D03*
%TD*%
D23*
%TO.N,GND*%
X140295000Y-47480000D02*
X140295000Y-48805000D01*
X144345000Y-47480000D02*
X144345000Y-48855000D01*
X122680000Y-47470000D02*
X122690000Y-47480000D01*
X144345000Y-47480000D02*
X145680000Y-47480000D01*
X144345000Y-47480000D02*
X140295000Y-47480000D01*
X121250000Y-47470000D02*
X122680000Y-47470000D01*
X121250000Y-47470000D02*
X121250000Y-48710000D01*
X117200000Y-48760000D02*
X117210000Y-48770000D01*
X117200000Y-47470000D02*
X117200000Y-48760000D01*
X121250000Y-48710000D02*
X121230000Y-48730000D01*
X117200000Y-47470000D02*
X121250000Y-47470000D01*
X144345000Y-48855000D02*
X144360000Y-48870000D01*
X140295000Y-48805000D02*
X140310000Y-48820000D01*
X140295000Y-47480000D02*
X138790000Y-47480000D01*
X117200000Y-47470000D02*
X115660000Y-47470000D01*
%TD*%
%TA.AperFunction,Conductor*%
%TO.N,GND*%
G36*
X157745680Y-46642547D02*
G01*
X157807152Y-46646001D01*
X157859352Y-46648936D01*
X158031643Y-46659369D01*
X158038279Y-46660131D01*
X158174118Y-46683218D01*
X158323204Y-46710546D01*
X158329156Y-46711946D01*
X158465883Y-46751342D01*
X158606582Y-46795192D01*
X158606758Y-46795247D01*
X158612041Y-46797160D01*
X158745296Y-46852360D01*
X158878578Y-46912349D01*
X158883071Y-46914597D01*
X158952289Y-46952855D01*
X159010313Y-46984926D01*
X159134873Y-47060227D01*
X159138677Y-47062721D01*
X159256629Y-47146415D01*
X159258963Y-47148157D01*
X159372263Y-47236925D01*
X159375340Y-47239500D01*
X159483305Y-47335983D01*
X159485832Y-47338373D01*
X159587522Y-47440061D01*
X159589912Y-47442589D01*
X159686402Y-47550561D01*
X159688970Y-47553628D01*
X159777754Y-47666951D01*
X159779497Y-47669289D01*
X159863178Y-47787222D01*
X159865672Y-47791026D01*
X159940979Y-47915595D01*
X160011286Y-48042802D01*
X160013561Y-48047347D01*
X160073536Y-48180594D01*
X160128739Y-48313856D01*
X160130652Y-48319139D01*
X160174565Y-48460041D01*
X160213946Y-48596717D01*
X160215355Y-48602708D01*
X160242688Y-48751820D01*
X160265767Y-48887616D01*
X160266530Y-48894262D01*
X160276987Y-49066963D01*
X160283351Y-49180182D01*
X160283449Y-49183663D01*
X160283449Y-59938193D01*
X160263764Y-60005232D01*
X160210960Y-60050987D01*
X160157874Y-60062183D01*
X153690000Y-59980000D01*
X153690000Y-78400000D01*
X160157884Y-78318334D01*
X160225166Y-78337170D01*
X160271584Y-78389393D01*
X160283449Y-78442324D01*
X160283449Y-143862205D01*
X160283351Y-143865683D01*
X160276962Y-143979420D01*
X160266542Y-144151618D01*
X160265778Y-144158264D01*
X160242668Y-144294274D01*
X160215382Y-144443155D01*
X160213974Y-144449146D01*
X160174556Y-144585967D01*
X160130680Y-144726762D01*
X160128767Y-144732046D01*
X160073538Y-144865374D01*
X160013601Y-144998546D01*
X160011326Y-145003092D01*
X159940974Y-145130385D01*
X159865714Y-145254877D01*
X159863219Y-145258681D01*
X159779511Y-145376657D01*
X159777751Y-145379017D01*
X159689017Y-145492274D01*
X159686442Y-145495351D01*
X159589920Y-145603359D01*
X159587530Y-145605886D01*
X159485886Y-145707530D01*
X159483359Y-145709920D01*
X159375351Y-145806442D01*
X159372274Y-145809017D01*
X159259017Y-145897751D01*
X159256663Y-145899506D01*
X159230613Y-145917989D01*
X159138681Y-145983219D01*
X159134877Y-145985714D01*
X159010385Y-146060974D01*
X158883092Y-146131326D01*
X158878546Y-146133601D01*
X158745374Y-146193538D01*
X158612046Y-146248767D01*
X158606762Y-146250680D01*
X158465967Y-146294556D01*
X158329146Y-146333974D01*
X158323155Y-146335382D01*
X158174274Y-146362668D01*
X158038264Y-146385778D01*
X158031618Y-146386542D01*
X157859420Y-146396962D01*
X157745683Y-146403351D01*
X157742205Y-146403449D01*
X106282681Y-146403449D01*
X106279232Y-146403352D01*
X106165328Y-146396962D01*
X106165257Y-146396958D01*
X105993295Y-146386566D01*
X105986647Y-146385803D01*
X105850473Y-146362672D01*
X105701726Y-146335420D01*
X105695734Y-146334012D01*
X105558843Y-146294580D01*
X105418133Y-146250738D01*
X105412849Y-146248825D01*
X105279441Y-146193571D01*
X105146333Y-146133669D01*
X105141791Y-146131397D01*
X105068698Y-146091002D01*
X105014448Y-146061020D01*
X104889993Y-145985787D01*
X104886188Y-145983293D01*
X104768145Y-145899539D01*
X104765804Y-145897792D01*
X104652599Y-145809104D01*
X104649527Y-145806532D01*
X104541448Y-145709948D01*
X104538920Y-145707558D01*
X104538892Y-145707530D01*
X104437321Y-145605958D01*
X104434944Y-145603444D01*
X104338368Y-145495374D01*
X104335810Y-145492319D01*
X104247099Y-145379086D01*
X104245378Y-145376780D01*
X104161577Y-145258669D01*
X104159124Y-145254929D01*
X104083888Y-145130467D01*
X104064156Y-145094763D01*
X104013485Y-145003077D01*
X104011240Y-144998589D01*
X103951327Y-144865456D01*
X103950480Y-144863411D01*
X103896067Y-144732036D01*
X103894167Y-144726790D01*
X103850333Y-144586105D01*
X103810878Y-144449133D01*
X103809476Y-144443165D01*
X103809474Y-144443155D01*
X103782225Y-144294418D01*
X103779238Y-144276836D01*
X103759091Y-144158230D01*
X103758335Y-144151635D01*
X103747959Y-143979953D01*
X103741545Y-143865637D01*
X103741449Y-143862174D01*
X103741449Y-141820000D01*
X117127180Y-141820000D01*
X117146820Y-142044491D01*
X117146821Y-142044498D01*
X117205145Y-142262165D01*
X117205149Y-142262176D01*
X117300382Y-142466404D01*
X117300385Y-142466410D01*
X117429643Y-142651011D01*
X117588988Y-142810356D01*
X117588991Y-142810358D01*
X117773590Y-142939615D01*
X117887262Y-142992620D01*
X117977823Y-143034850D01*
X117977825Y-143034850D01*
X117977830Y-143034853D01*
X118195504Y-143093179D01*
X118361867Y-143107734D01*
X118419999Y-143112820D01*
X118420000Y-143112820D01*
X118420001Y-143112820D01*
X118457416Y-143109546D01*
X118644496Y-143093179D01*
X118862170Y-143034853D01*
X119066410Y-142939615D01*
X119251009Y-142810358D01*
X119410358Y-142651009D01*
X119539615Y-142466410D01*
X119577618Y-142384912D01*
X119623790Y-142332472D01*
X119690983Y-142313320D01*
X119757865Y-142333535D01*
X119802382Y-142384912D01*
X119840382Y-142466404D01*
X119840385Y-142466410D01*
X119969643Y-142651011D01*
X120128988Y-142810356D01*
X120128991Y-142810358D01*
X120313590Y-142939615D01*
X120458395Y-143007138D01*
X120458397Y-143007139D01*
X120510837Y-143053311D01*
X120529989Y-143120504D01*
X120509774Y-143187385D01*
X120467994Y-143226908D01*
X120429142Y-143249339D01*
X120288834Y-143375671D01*
X120288828Y-143375678D01*
X120177853Y-143528422D01*
X120177851Y-143528427D01*
X120101056Y-143700907D01*
X120101054Y-143700913D01*
X120061800Y-143885596D01*
X120061800Y-144074405D01*
X120101054Y-144259088D01*
X120101056Y-144259094D01*
X120157393Y-144385627D01*
X120176728Y-144429053D01*
X120177851Y-144431574D01*
X120177853Y-144431579D01*
X120288828Y-144584323D01*
X120288834Y-144584330D01*
X120374186Y-144661180D01*
X120429143Y-144710663D01*
X120592657Y-144805068D01*
X120592659Y-144805068D01*
X120592662Y-144805070D01*
X120655324Y-144825429D01*
X120772225Y-144863413D01*
X120912923Y-144878201D01*
X120912928Y-144878201D01*
X121007072Y-144878201D01*
X121007077Y-144878201D01*
X121147775Y-144863413D01*
X121327343Y-144805068D01*
X121490857Y-144710663D01*
X121629272Y-144586034D01*
X121631165Y-144584330D01*
X121631166Y-144584327D01*
X121631170Y-144584325D01*
X121742149Y-144431575D01*
X121818945Y-144259089D01*
X121858200Y-144074406D01*
X121858200Y-143885596D01*
X121818945Y-143700913D01*
X121818943Y-143700907D01*
X121788095Y-143631623D01*
X121742149Y-143528427D01*
X121742146Y-143528423D01*
X121742146Y-143528422D01*
X121631171Y-143375678D01*
X121631165Y-143375671D01*
X121539733Y-143293347D01*
X121490857Y-143249339D01*
X121490855Y-143249338D01*
X121490856Y-143249338D01*
X121452006Y-143226908D01*
X121403790Y-143176341D01*
X121390567Y-143107734D01*
X121416535Y-143042869D01*
X121461597Y-143007141D01*
X121606410Y-142939615D01*
X121791009Y-142810358D01*
X121950358Y-142651009D01*
X122079615Y-142466410D01*
X122117618Y-142384912D01*
X122163790Y-142332472D01*
X122230983Y-142313320D01*
X122297865Y-142333535D01*
X122342382Y-142384912D01*
X122380382Y-142466404D01*
X122380385Y-142466410D01*
X122509643Y-142651011D01*
X122668988Y-142810356D01*
X122668991Y-142810358D01*
X122853590Y-142939615D01*
X122967262Y-142992620D01*
X123057823Y-143034850D01*
X123057825Y-143034850D01*
X123057830Y-143034853D01*
X123275504Y-143093179D01*
X123441867Y-143107734D01*
X123499999Y-143112820D01*
X123500000Y-143112820D01*
X123500001Y-143112820D01*
X123537416Y-143109546D01*
X123724496Y-143093179D01*
X123942170Y-143034853D01*
X124146410Y-142939615D01*
X124331009Y-142810358D01*
X124490358Y-142651009D01*
X124619615Y-142466410D01*
X124714853Y-142262170D01*
X124773179Y-142044496D01*
X124792820Y-141820000D01*
X124773179Y-141595504D01*
X124714853Y-141377830D01*
X124619615Y-141173590D01*
X124490358Y-140988991D01*
X124490356Y-140988988D01*
X124331011Y-140829643D01*
X124146410Y-140700385D01*
X124146404Y-140700382D01*
X123942176Y-140605149D01*
X123942165Y-140605145D01*
X123724498Y-140546821D01*
X123724491Y-140546820D01*
X123500001Y-140527180D01*
X123499999Y-140527180D01*
X123275508Y-140546820D01*
X123275501Y-140546821D01*
X123057834Y-140605145D01*
X123057823Y-140605149D01*
X122853595Y-140700382D01*
X122853589Y-140700385D01*
X122668988Y-140829643D01*
X122509643Y-140988988D01*
X122380385Y-141173589D01*
X122380384Y-141173591D01*
X122342382Y-141255088D01*
X122296210Y-141307527D01*
X122229016Y-141326679D01*
X122162135Y-141306463D01*
X122117618Y-141255088D01*
X122079615Y-141173591D01*
X122079614Y-141173589D01*
X121950356Y-140988988D01*
X121791011Y-140829643D01*
X121606410Y-140700385D01*
X121606404Y-140700382D01*
X121402176Y-140605149D01*
X121402165Y-140605145D01*
X121184498Y-140546821D01*
X121184491Y-140546820D01*
X120960001Y-140527180D01*
X120959999Y-140527180D01*
X120735508Y-140546820D01*
X120735501Y-140546821D01*
X120517834Y-140605145D01*
X120517823Y-140605149D01*
X120313595Y-140700382D01*
X120313589Y-140700385D01*
X120128988Y-140829643D01*
X119969643Y-140988988D01*
X119840385Y-141173589D01*
X119840384Y-141173591D01*
X119802382Y-141255088D01*
X119756210Y-141307527D01*
X119689016Y-141326679D01*
X119622135Y-141306463D01*
X119577618Y-141255088D01*
X119539615Y-141173591D01*
X119539614Y-141173589D01*
X119410356Y-140988988D01*
X119251011Y-140829643D01*
X119066410Y-140700385D01*
X119066404Y-140700382D01*
X118862176Y-140605149D01*
X118862165Y-140605145D01*
X118644498Y-140546821D01*
X118644491Y-140546820D01*
X118420001Y-140527180D01*
X118419999Y-140527180D01*
X118195508Y-140546820D01*
X118195501Y-140546821D01*
X117977834Y-140605145D01*
X117977823Y-140605149D01*
X117773595Y-140700382D01*
X117773589Y-140700385D01*
X117588988Y-140829643D01*
X117429643Y-140988988D01*
X117300385Y-141173589D01*
X117300382Y-141173595D01*
X117205149Y-141377823D01*
X117205145Y-141377834D01*
X117146821Y-141595501D01*
X117146820Y-141595508D01*
X117127180Y-141819999D01*
X117127180Y-141820000D01*
X103741449Y-141820000D01*
X103741449Y-138500000D01*
X119874540Y-138500000D01*
X119894326Y-138688256D01*
X119894327Y-138688259D01*
X119952818Y-138868277D01*
X119952821Y-138868284D01*
X120047467Y-139032216D01*
X120174129Y-139172888D01*
X120327265Y-139284148D01*
X120327270Y-139284151D01*
X120500192Y-139361142D01*
X120500197Y-139361144D01*
X120685354Y-139400500D01*
X120685355Y-139400500D01*
X120874644Y-139400500D01*
X120874646Y-139400500D01*
X121059803Y-139361144D01*
X121232730Y-139284151D01*
X121385871Y-139172888D01*
X121512533Y-139032216D01*
X121607179Y-138868284D01*
X121665674Y-138688256D01*
X121685460Y-138500000D01*
X121665674Y-138311744D01*
X121607179Y-138131716D01*
X121512533Y-137967784D01*
X121385871Y-137827112D01*
X121385870Y-137827111D01*
X121232734Y-137715851D01*
X121232729Y-137715848D01*
X121059807Y-137638857D01*
X121059802Y-137638855D01*
X120914001Y-137607865D01*
X120874646Y-137599500D01*
X120685354Y-137599500D01*
X120652897Y-137606398D01*
X120500197Y-137638855D01*
X120500192Y-137638857D01*
X120327270Y-137715848D01*
X120327265Y-137715851D01*
X120174129Y-137827111D01*
X120047466Y-137967785D01*
X119952821Y-138131715D01*
X119952818Y-138131722D01*
X119894327Y-138311740D01*
X119894326Y-138311744D01*
X119874540Y-138500000D01*
X103741449Y-138500000D01*
X103741449Y-137290001D01*
X150764390Y-137290001D01*
X150784804Y-137575433D01*
X150845628Y-137855037D01*
X150945635Y-138123166D01*
X151082770Y-138374309D01*
X151082775Y-138374317D01*
X151254254Y-138603387D01*
X151254270Y-138603405D01*
X151456594Y-138805729D01*
X151456612Y-138805745D01*
X151685682Y-138977224D01*
X151685690Y-138977229D01*
X151936833Y-139114364D01*
X151936832Y-139114364D01*
X151936836Y-139114365D01*
X151936839Y-139114367D01*
X152204954Y-139214369D01*
X152204960Y-139214370D01*
X152204962Y-139214371D01*
X152484566Y-139275195D01*
X152484568Y-139275195D01*
X152484572Y-139275196D01*
X152698552Y-139290500D01*
X152841448Y-139290500D01*
X153055428Y-139275196D01*
X153335046Y-139214369D01*
X153603161Y-139114367D01*
X153854315Y-138977226D01*
X154083395Y-138805739D01*
X154285739Y-138603395D01*
X154457226Y-138374315D01*
X154594367Y-138123161D01*
X154694369Y-137855046D01*
X154741398Y-137638855D01*
X154755195Y-137575433D01*
X154755195Y-137575432D01*
X154755196Y-137575428D01*
X154775610Y-137290000D01*
X154755196Y-137004572D01*
X154694369Y-136724954D01*
X154594367Y-136456839D01*
X154457226Y-136205685D01*
X154457224Y-136205682D01*
X154285745Y-135976612D01*
X154285729Y-135976594D01*
X154083405Y-135774270D01*
X154083387Y-135774254D01*
X153854317Y-135602775D01*
X153854309Y-135602770D01*
X153603166Y-135465635D01*
X153603167Y-135465635D01*
X153397314Y-135388856D01*
X153335046Y-135365631D01*
X153335043Y-135365630D01*
X153335037Y-135365628D01*
X153055433Y-135304804D01*
X152841448Y-135289500D01*
X152698552Y-135289500D01*
X152484566Y-135304804D01*
X152204962Y-135365628D01*
X151936833Y-135465635D01*
X151685690Y-135602770D01*
X151685682Y-135602775D01*
X151456612Y-135774254D01*
X151456594Y-135774270D01*
X151254270Y-135976594D01*
X151254254Y-135976612D01*
X151082775Y-136205682D01*
X151082770Y-136205690D01*
X150945635Y-136456833D01*
X150845628Y-136724962D01*
X150784804Y-137004566D01*
X150764390Y-137289998D01*
X150764390Y-137290001D01*
X103741449Y-137290001D01*
X103741449Y-136250000D01*
X105434540Y-136250000D01*
X105454326Y-136438256D01*
X105454327Y-136438259D01*
X105512818Y-136618277D01*
X105512821Y-136618284D01*
X105607467Y-136782216D01*
X105734129Y-136922888D01*
X105887265Y-137034148D01*
X105887270Y-137034151D01*
X106060192Y-137111142D01*
X106060197Y-137111144D01*
X106245354Y-137150500D01*
X106245355Y-137150500D01*
X106434644Y-137150500D01*
X106434646Y-137150500D01*
X106619803Y-137111144D01*
X106792730Y-137034151D01*
X106945871Y-136922888D01*
X107072533Y-136782216D01*
X107167179Y-136618284D01*
X107225674Y-136438256D01*
X107245460Y-136250000D01*
X107225674Y-136061744D01*
X107167179Y-135881716D01*
X107072533Y-135717784D01*
X106945871Y-135577112D01*
X106945870Y-135577111D01*
X106792734Y-135465851D01*
X106792729Y-135465848D01*
X106619807Y-135388857D01*
X106619802Y-135388855D01*
X106474001Y-135357865D01*
X106434646Y-135349500D01*
X106245354Y-135349500D01*
X106212897Y-135356398D01*
X106060197Y-135388855D01*
X106060192Y-135388857D01*
X105887270Y-135465848D01*
X105887265Y-135465851D01*
X105734129Y-135577111D01*
X105607466Y-135717785D01*
X105512821Y-135881715D01*
X105512818Y-135881722D01*
X105481987Y-135976612D01*
X105454326Y-136061744D01*
X105434540Y-136250000D01*
X103741449Y-136250000D01*
X103741449Y-131200000D01*
X129524540Y-131200000D01*
X129544326Y-131388256D01*
X129544327Y-131388259D01*
X129602818Y-131568277D01*
X129602821Y-131568284D01*
X129697467Y-131732216D01*
X129824129Y-131872888D01*
X129977265Y-131984148D01*
X129977270Y-131984151D01*
X130150192Y-132061142D01*
X130150197Y-132061144D01*
X130335354Y-132100500D01*
X130335355Y-132100500D01*
X130524644Y-132100500D01*
X130524646Y-132100500D01*
X130709803Y-132061144D01*
X130882730Y-131984151D01*
X131035871Y-131872888D01*
X131162533Y-131732216D01*
X131257179Y-131568284D01*
X131315674Y-131388256D01*
X131335460Y-131200000D01*
X131315674Y-131011744D01*
X131257179Y-130831716D01*
X131162533Y-130667784D01*
X131035871Y-130527112D01*
X131035870Y-130527111D01*
X130882734Y-130415851D01*
X130882729Y-130415848D01*
X130709807Y-130338857D01*
X130709802Y-130338855D01*
X130564001Y-130307865D01*
X130524646Y-130299500D01*
X130335354Y-130299500D01*
X130302897Y-130306398D01*
X130150197Y-130338855D01*
X130150192Y-130338857D01*
X129977270Y-130415848D01*
X129977265Y-130415851D01*
X129824129Y-130527111D01*
X129697466Y-130667785D01*
X129602821Y-130831715D01*
X129602818Y-130831722D01*
X129544327Y-131011740D01*
X129544326Y-131011744D01*
X129524540Y-131200000D01*
X103741449Y-131200000D01*
X103741449Y-128350000D01*
X110984540Y-128350000D01*
X111004326Y-128538256D01*
X111004327Y-128538259D01*
X111062818Y-128718277D01*
X111062821Y-128718284D01*
X111157467Y-128882216D01*
X111284129Y-129022888D01*
X111437265Y-129134148D01*
X111437270Y-129134151D01*
X111610192Y-129211142D01*
X111610197Y-129211144D01*
X111795354Y-129250500D01*
X111795355Y-129250500D01*
X111984644Y-129250500D01*
X111984646Y-129250500D01*
X112169803Y-129211144D01*
X112342730Y-129134151D01*
X112495871Y-129022888D01*
X112622533Y-128882216D01*
X112717179Y-128718284D01*
X112775674Y-128538256D01*
X112795460Y-128350000D01*
X112775674Y-128161744D01*
X112717179Y-127981716D01*
X112622533Y-127817784D01*
X112495871Y-127677112D01*
X112495870Y-127677111D01*
X112342734Y-127565851D01*
X112342729Y-127565848D01*
X112217294Y-127510000D01*
X156534341Y-127510000D01*
X156554936Y-127745403D01*
X156554938Y-127745413D01*
X156616094Y-127973655D01*
X156616096Y-127973659D01*
X156616097Y-127973663D01*
X156619855Y-127981722D01*
X156715965Y-128187830D01*
X156715967Y-128187834D01*
X156824281Y-128342521D01*
X156851505Y-128381401D01*
X157018599Y-128548495D01*
X157115384Y-128616265D01*
X157212165Y-128684032D01*
X157212167Y-128684033D01*
X157212170Y-128684035D01*
X157426337Y-128783903D01*
X157654592Y-128845063D01*
X157842918Y-128861539D01*
X157889999Y-128865659D01*
X157890000Y-128865659D01*
X157890001Y-128865659D01*
X157929234Y-128862226D01*
X158125408Y-128845063D01*
X158353663Y-128783903D01*
X158567830Y-128684035D01*
X158761401Y-128548495D01*
X158928495Y-128381401D01*
X159064035Y-128187830D01*
X159163903Y-127973663D01*
X159225063Y-127745408D01*
X159245659Y-127510000D01*
X159225063Y-127274592D01*
X159163903Y-127046337D01*
X159064035Y-126832171D01*
X158928495Y-126638599D01*
X158806567Y-126516671D01*
X158773084Y-126455351D01*
X158778068Y-126385659D01*
X158819939Y-126329725D01*
X158850915Y-126312810D01*
X158982331Y-126263796D01*
X159097546Y-126177546D01*
X159183796Y-126062331D01*
X159234091Y-125927483D01*
X159240500Y-125867873D01*
X159240499Y-124072128D01*
X159234091Y-124012517D01*
X159189472Y-123892888D01*
X159183797Y-123877671D01*
X159183793Y-123877664D01*
X159097547Y-123762455D01*
X159097544Y-123762452D01*
X158982335Y-123676206D01*
X158982328Y-123676202D01*
X158847482Y-123625908D01*
X158847483Y-123625908D01*
X158787883Y-123619501D01*
X158787881Y-123619500D01*
X158787873Y-123619500D01*
X158787864Y-123619500D01*
X156992129Y-123619500D01*
X156992123Y-123619501D01*
X156932516Y-123625908D01*
X156797671Y-123676202D01*
X156797664Y-123676206D01*
X156682455Y-123762452D01*
X156682452Y-123762455D01*
X156596206Y-123877664D01*
X156596202Y-123877671D01*
X156545908Y-124012517D01*
X156539501Y-124072116D01*
X156539501Y-124072123D01*
X156539500Y-124072135D01*
X156539500Y-125867870D01*
X156539501Y-125867876D01*
X156545908Y-125927483D01*
X156596202Y-126062328D01*
X156596206Y-126062335D01*
X156682452Y-126177544D01*
X156682455Y-126177547D01*
X156797664Y-126263793D01*
X156797671Y-126263797D01*
X156929081Y-126312810D01*
X156985015Y-126354681D01*
X157009432Y-126420145D01*
X156994580Y-126488418D01*
X156973430Y-126516673D01*
X156851503Y-126638600D01*
X156715965Y-126832169D01*
X156715964Y-126832171D01*
X156616098Y-127046335D01*
X156616094Y-127046344D01*
X156554938Y-127274586D01*
X156554936Y-127274596D01*
X156534341Y-127509999D01*
X156534341Y-127510000D01*
X112217294Y-127510000D01*
X112169807Y-127488857D01*
X112169802Y-127488855D01*
X112024001Y-127457865D01*
X111984646Y-127449500D01*
X111795354Y-127449500D01*
X111762897Y-127456398D01*
X111610197Y-127488855D01*
X111610192Y-127488857D01*
X111437270Y-127565848D01*
X111437265Y-127565851D01*
X111284129Y-127677111D01*
X111157466Y-127817785D01*
X111062821Y-127981715D01*
X111062818Y-127981722D01*
X111004327Y-128161740D01*
X111004326Y-128161744D01*
X110984540Y-128350000D01*
X103741449Y-128350000D01*
X103741449Y-125300000D01*
X151514540Y-125300000D01*
X151534326Y-125488256D01*
X151534327Y-125488259D01*
X151592818Y-125668277D01*
X151592821Y-125668284D01*
X151687467Y-125832216D01*
X151719572Y-125867872D01*
X151814129Y-125972888D01*
X151967265Y-126084148D01*
X151967270Y-126084151D01*
X152140192Y-126161142D01*
X152140197Y-126161144D01*
X152325354Y-126200500D01*
X152325355Y-126200500D01*
X152514644Y-126200500D01*
X152514646Y-126200500D01*
X152699803Y-126161144D01*
X152872730Y-126084151D01*
X153025871Y-125972888D01*
X153152533Y-125832216D01*
X153247179Y-125668284D01*
X153305674Y-125488256D01*
X153325460Y-125300000D01*
X153305674Y-125111744D01*
X153247179Y-124931716D01*
X153152533Y-124767784D01*
X153025871Y-124627112D01*
X153025870Y-124627111D01*
X152872734Y-124515851D01*
X152872729Y-124515848D01*
X152699807Y-124438857D01*
X152699802Y-124438855D01*
X152554001Y-124407865D01*
X152514646Y-124399500D01*
X152325354Y-124399500D01*
X152292897Y-124406398D01*
X152140197Y-124438855D01*
X152140192Y-124438857D01*
X151967270Y-124515848D01*
X151967265Y-124515851D01*
X151814129Y-124627111D01*
X151687466Y-124767785D01*
X151592821Y-124931715D01*
X151592818Y-124931722D01*
X151534327Y-125111740D01*
X151534326Y-125111744D01*
X151514540Y-125300000D01*
X103741449Y-125300000D01*
X103741449Y-123220000D01*
X138674540Y-123220000D01*
X138694326Y-123408256D01*
X138694327Y-123408259D01*
X138752818Y-123588277D01*
X138752821Y-123588284D01*
X138847467Y-123752216D01*
X138960421Y-123877664D01*
X138974129Y-123892888D01*
X139127265Y-124004148D01*
X139127270Y-124004151D01*
X139300192Y-124081142D01*
X139300197Y-124081144D01*
X139485354Y-124120500D01*
X139485355Y-124120500D01*
X139674644Y-124120500D01*
X139674646Y-124120500D01*
X139859803Y-124081144D01*
X140032730Y-124004151D01*
X140185871Y-123892888D01*
X140312533Y-123752216D01*
X140407179Y-123588284D01*
X140465674Y-123408256D01*
X140485460Y-123220000D01*
X140465674Y-123031744D01*
X140407179Y-122851716D01*
X140312533Y-122687784D01*
X140185871Y-122547112D01*
X140185870Y-122547111D01*
X140032734Y-122435851D01*
X140032729Y-122435848D01*
X139859807Y-122358857D01*
X139859802Y-122358855D01*
X139714001Y-122327865D01*
X139674646Y-122319500D01*
X139485354Y-122319500D01*
X139452897Y-122326398D01*
X139300197Y-122358855D01*
X139300192Y-122358857D01*
X139127270Y-122435848D01*
X139127265Y-122435851D01*
X138974129Y-122547111D01*
X138847466Y-122687785D01*
X138752821Y-122851715D01*
X138752818Y-122851722D01*
X138701020Y-123011142D01*
X138694326Y-123031744D01*
X138674540Y-123220000D01*
X103741449Y-123220000D01*
X103741449Y-122150000D01*
X151594540Y-122150000D01*
X151614326Y-122338256D01*
X151614327Y-122338259D01*
X151672818Y-122518277D01*
X151672821Y-122518284D01*
X151767467Y-122682216D01*
X151894129Y-122822888D01*
X152047265Y-122934148D01*
X152047270Y-122934151D01*
X152220192Y-123011142D01*
X152220197Y-123011144D01*
X152405354Y-123050500D01*
X152405355Y-123050500D01*
X152594644Y-123050500D01*
X152594646Y-123050500D01*
X152779803Y-123011144D01*
X152952730Y-122934151D01*
X153105871Y-122822888D01*
X153232533Y-122682216D01*
X153327179Y-122518284D01*
X153384189Y-122342824D01*
X153423625Y-122285152D01*
X153487984Y-122257953D01*
X153556830Y-122269867D01*
X153608306Y-122317111D01*
X153609506Y-122319145D01*
X153657467Y-122402216D01*
X153784129Y-122542888D01*
X153937265Y-122654148D01*
X153937270Y-122654151D01*
X154110192Y-122731142D01*
X154110197Y-122731144D01*
X154295354Y-122770500D01*
X154295355Y-122770500D01*
X154484644Y-122770500D01*
X154484646Y-122770500D01*
X154669803Y-122731144D01*
X154842730Y-122654151D01*
X154995871Y-122542888D01*
X155122533Y-122402216D01*
X155217179Y-122238284D01*
X155275674Y-122058256D01*
X155295460Y-121870000D01*
X155275674Y-121681744D01*
X155217179Y-121501716D01*
X155122533Y-121337784D01*
X154995871Y-121197112D01*
X154978028Y-121184148D01*
X154842734Y-121085851D01*
X154842729Y-121085848D01*
X154669807Y-121008857D01*
X154669802Y-121008855D01*
X154524001Y-120977865D01*
X154484646Y-120969500D01*
X154295354Y-120969500D01*
X154262897Y-120976398D01*
X154110197Y-121008855D01*
X154110192Y-121008857D01*
X153937270Y-121085848D01*
X153937265Y-121085851D01*
X153784129Y-121197111D01*
X153657466Y-121337785D01*
X153562821Y-121501715D01*
X153562818Y-121501722D01*
X153505811Y-121677172D01*
X153466373Y-121734848D01*
X153402015Y-121762046D01*
X153333168Y-121750131D01*
X153281693Y-121702887D01*
X153280528Y-121700915D01*
X153232533Y-121617784D01*
X153105871Y-121477112D01*
X153105870Y-121477111D01*
X152952734Y-121365851D01*
X152952729Y-121365848D01*
X152779807Y-121288857D01*
X152779802Y-121288855D01*
X152634001Y-121257865D01*
X152594646Y-121249500D01*
X152405354Y-121249500D01*
X152372897Y-121256398D01*
X152220197Y-121288855D01*
X152220192Y-121288857D01*
X152047270Y-121365848D01*
X152047265Y-121365851D01*
X151894129Y-121477111D01*
X151767466Y-121617785D01*
X151672821Y-121781715D01*
X151672818Y-121781722D01*
X151614327Y-121961740D01*
X151614326Y-121961744D01*
X151594540Y-122150000D01*
X103741449Y-122150000D01*
X103741449Y-120400000D01*
X125754540Y-120400000D01*
X125774326Y-120588256D01*
X125774327Y-120588259D01*
X125832818Y-120768277D01*
X125832821Y-120768284D01*
X125927467Y-120932216D01*
X125996475Y-121008857D01*
X126054129Y-121072888D01*
X126207265Y-121184148D01*
X126207270Y-121184151D01*
X126380192Y-121261142D01*
X126380197Y-121261144D01*
X126565354Y-121300500D01*
X126565355Y-121300500D01*
X126754644Y-121300500D01*
X126754646Y-121300500D01*
X126939803Y-121261144D01*
X127112730Y-121184151D01*
X127265871Y-121072888D01*
X127392533Y-120932216D01*
X127487179Y-120768284D01*
X127545674Y-120588256D01*
X127550592Y-120541463D01*
X127577176Y-120476848D01*
X127634473Y-120436863D01*
X127648128Y-120433134D01*
X127819803Y-120396644D01*
X127992730Y-120319651D01*
X128145871Y-120208388D01*
X128272533Y-120067716D01*
X128337609Y-119955000D01*
X136549540Y-119955000D01*
X136569326Y-120143256D01*
X136569327Y-120143259D01*
X136627818Y-120323277D01*
X136627821Y-120323284D01*
X136722467Y-120487216D01*
X136813444Y-120588256D01*
X136849129Y-120627888D01*
X137002265Y-120739148D01*
X137002270Y-120739151D01*
X137175192Y-120816142D01*
X137175197Y-120816144D01*
X137360354Y-120855500D01*
X137360355Y-120855500D01*
X137549644Y-120855500D01*
X137549646Y-120855500D01*
X137734803Y-120816144D01*
X137907730Y-120739151D01*
X138060871Y-120627888D01*
X138187533Y-120487216D01*
X138255208Y-120370000D01*
X143704540Y-120370000D01*
X143724326Y-120558256D01*
X143724327Y-120558259D01*
X143782818Y-120738277D01*
X143782821Y-120738284D01*
X143877467Y-120902216D01*
X143973487Y-121008857D01*
X144004129Y-121042888D01*
X144157265Y-121154148D01*
X144157270Y-121154151D01*
X144330192Y-121231142D01*
X144330197Y-121231144D01*
X144515354Y-121270500D01*
X144515355Y-121270500D01*
X144704644Y-121270500D01*
X144704646Y-121270500D01*
X144889803Y-121231144D01*
X145062730Y-121154151D01*
X145215871Y-121042888D01*
X145342533Y-120902216D01*
X145437179Y-120738284D01*
X145495674Y-120558256D01*
X145515460Y-120370000D01*
X145495674Y-120181744D01*
X145437179Y-120001716D01*
X145342533Y-119837784D01*
X145215871Y-119697112D01*
X145215870Y-119697111D01*
X145062734Y-119585851D01*
X145062729Y-119585848D01*
X144889807Y-119508857D01*
X144889802Y-119508855D01*
X144744001Y-119477865D01*
X144704646Y-119469500D01*
X144515354Y-119469500D01*
X144482897Y-119476398D01*
X144330197Y-119508855D01*
X144330192Y-119508857D01*
X144157270Y-119585848D01*
X144157265Y-119585851D01*
X144004129Y-119697111D01*
X143877466Y-119837785D01*
X143782821Y-120001715D01*
X143782818Y-120001722D01*
X143724327Y-120181740D01*
X143724326Y-120181744D01*
X143704540Y-120370000D01*
X138255208Y-120370000D01*
X138282179Y-120323284D01*
X138340674Y-120143256D01*
X138360460Y-119955000D01*
X138340674Y-119766744D01*
X138282179Y-119586716D01*
X138191699Y-119430000D01*
X155784540Y-119430000D01*
X155804326Y-119618256D01*
X155804327Y-119618259D01*
X155862818Y-119798277D01*
X155862821Y-119798284D01*
X155957467Y-119962216D01*
X156020051Y-120031722D01*
X156084129Y-120102888D01*
X156237265Y-120214148D01*
X156237270Y-120214151D01*
X156410192Y-120291142D01*
X156410197Y-120291144D01*
X156595354Y-120330500D01*
X156595355Y-120330500D01*
X156784644Y-120330500D01*
X156784646Y-120330500D01*
X156969803Y-120291144D01*
X157142730Y-120214151D01*
X157295871Y-120102888D01*
X157422533Y-119962216D01*
X157517179Y-119798284D01*
X157575674Y-119618256D01*
X157595460Y-119430000D01*
X157575674Y-119241744D01*
X157517179Y-119061716D01*
X157422533Y-118897784D01*
X157295871Y-118757112D01*
X157287938Y-118751348D01*
X157142734Y-118645851D01*
X157142729Y-118645848D01*
X156969807Y-118568857D01*
X156969802Y-118568855D01*
X156824001Y-118537865D01*
X156784646Y-118529500D01*
X156595354Y-118529500D01*
X156562897Y-118536398D01*
X156410197Y-118568855D01*
X156410192Y-118568857D01*
X156237270Y-118645848D01*
X156237265Y-118645851D01*
X156084129Y-118757111D01*
X155957466Y-118897785D01*
X155862821Y-119061715D01*
X155862818Y-119061722D01*
X155804327Y-119241740D01*
X155804326Y-119241744D01*
X155784540Y-119430000D01*
X138191699Y-119430000D01*
X138187533Y-119422784D01*
X138060871Y-119282112D01*
X138060870Y-119282111D01*
X137907734Y-119170851D01*
X137907729Y-119170848D01*
X137734807Y-119093857D01*
X137734802Y-119093855D01*
X137583590Y-119061715D01*
X137549646Y-119054500D01*
X137360354Y-119054500D01*
X137327897Y-119061398D01*
X137175197Y-119093855D01*
X137175192Y-119093857D01*
X137002270Y-119170848D01*
X137002265Y-119170851D01*
X136849129Y-119282111D01*
X136722466Y-119422785D01*
X136627821Y-119586715D01*
X136627818Y-119586722D01*
X136582203Y-119727112D01*
X136569326Y-119766744D01*
X136549540Y-119955000D01*
X128337609Y-119955000D01*
X128367179Y-119903784D01*
X128425674Y-119723756D01*
X128445460Y-119535500D01*
X128425674Y-119347244D01*
X128367179Y-119167216D01*
X128272533Y-119003284D01*
X128145871Y-118862612D01*
X128145870Y-118862611D01*
X127992734Y-118751351D01*
X127992729Y-118751348D01*
X127819807Y-118674357D01*
X127819802Y-118674355D01*
X127674001Y-118643365D01*
X127634646Y-118635000D01*
X127445354Y-118635000D01*
X127412897Y-118641898D01*
X127260197Y-118674355D01*
X127260192Y-118674357D01*
X127087270Y-118751348D01*
X127087265Y-118751351D01*
X126934129Y-118862611D01*
X126807466Y-119003285D01*
X126712821Y-119167215D01*
X126712818Y-119167222D01*
X126654325Y-119347244D01*
X126649407Y-119394039D01*
X126622822Y-119458653D01*
X126565524Y-119498637D01*
X126551867Y-119502366D01*
X126380197Y-119538855D01*
X126380192Y-119538857D01*
X126207270Y-119615848D01*
X126207265Y-119615851D01*
X126054129Y-119727111D01*
X125927466Y-119867785D01*
X125832821Y-120031715D01*
X125832818Y-120031722D01*
X125775416Y-120208388D01*
X125774326Y-120211744D01*
X125754540Y-120400000D01*
X103741449Y-120400000D01*
X103741449Y-117430001D01*
X153784540Y-117430001D01*
X153804326Y-117618257D01*
X153804327Y-117618260D01*
X153862818Y-117798278D01*
X153862821Y-117798285D01*
X153957467Y-117962217D01*
X154084129Y-118102889D01*
X154237265Y-118214149D01*
X154237270Y-118214152D01*
X154410192Y-118291143D01*
X154410197Y-118291145D01*
X154595354Y-118330501D01*
X154595355Y-118330501D01*
X154784644Y-118330501D01*
X154784646Y-118330501D01*
X154969803Y-118291145D01*
X155142730Y-118214152D01*
X155295871Y-118102889D01*
X155422533Y-117962217D01*
X155517179Y-117798285D01*
X155575674Y-117618257D01*
X155595460Y-117430001D01*
X155575674Y-117241745D01*
X155517179Y-117061717D01*
X155422533Y-116897785D01*
X155295871Y-116757113D01*
X155295870Y-116757112D01*
X155142734Y-116645852D01*
X155142729Y-116645849D01*
X154969807Y-116568858D01*
X154969802Y-116568856D01*
X154824001Y-116537866D01*
X154784646Y-116529501D01*
X154595354Y-116529501D01*
X154562897Y-116536399D01*
X154410197Y-116568856D01*
X154410192Y-116568858D01*
X154237270Y-116645849D01*
X154237265Y-116645852D01*
X154084129Y-116757112D01*
X153957466Y-116897786D01*
X153862821Y-117061716D01*
X153862818Y-117061723D01*
X153804327Y-117241741D01*
X153804326Y-117241745D01*
X153784540Y-117430001D01*
X103741449Y-117430001D01*
X103741449Y-115180000D01*
X124234540Y-115180000D01*
X124254326Y-115368256D01*
X124254327Y-115368259D01*
X124312818Y-115548277D01*
X124312821Y-115548284D01*
X124407467Y-115712216D01*
X124534129Y-115852888D01*
X124687265Y-115964148D01*
X124687270Y-115964151D01*
X124860192Y-116041142D01*
X124860197Y-116041144D01*
X125045354Y-116080500D01*
X125045355Y-116080500D01*
X125234644Y-116080500D01*
X125234646Y-116080500D01*
X125419803Y-116041144D01*
X125592730Y-115964151D01*
X125745871Y-115852888D01*
X125872533Y-115712216D01*
X125967179Y-115548284D01*
X126025674Y-115368256D01*
X126045460Y-115180000D01*
X126025674Y-114991744D01*
X125967179Y-114811716D01*
X125872533Y-114647784D01*
X125745871Y-114507112D01*
X125745870Y-114507111D01*
X125592734Y-114395851D01*
X125592729Y-114395848D01*
X125419807Y-114318857D01*
X125419802Y-114318855D01*
X125274001Y-114287865D01*
X125234646Y-114279500D01*
X125045354Y-114279500D01*
X125012897Y-114286398D01*
X124860197Y-114318855D01*
X124860192Y-114318857D01*
X124687270Y-114395848D01*
X124687265Y-114395851D01*
X124534129Y-114507111D01*
X124407466Y-114647785D01*
X124312821Y-114811715D01*
X124312818Y-114811722D01*
X124254327Y-114991740D01*
X124254326Y-114991744D01*
X124234540Y-115180000D01*
X103741449Y-115180000D01*
X103741449Y-114220000D01*
X135694540Y-114220000D01*
X135714326Y-114408256D01*
X135714327Y-114408259D01*
X135772818Y-114588277D01*
X135772821Y-114588284D01*
X135867467Y-114752216D01*
X135921047Y-114811722D01*
X135994129Y-114892888D01*
X136147265Y-115004148D01*
X136147270Y-115004151D01*
X136320192Y-115081142D01*
X136320197Y-115081144D01*
X136505354Y-115120500D01*
X136505355Y-115120500D01*
X136694644Y-115120500D01*
X136694646Y-115120500D01*
X136879803Y-115081144D01*
X137051240Y-115004814D01*
X137120485Y-114995529D01*
X137183762Y-115025157D01*
X137219603Y-115079775D01*
X137262819Y-115212780D01*
X137262821Y-115212784D01*
X137357467Y-115376716D01*
X137484129Y-115517388D01*
X137637265Y-115628648D01*
X137637270Y-115628651D01*
X137810192Y-115705642D01*
X137810197Y-115705644D01*
X137995354Y-115745000D01*
X137995355Y-115745000D01*
X138184644Y-115745000D01*
X138184646Y-115745000D01*
X138369803Y-115705644D01*
X138542730Y-115628651D01*
X138695871Y-115517388D01*
X138822533Y-115376716D01*
X138917179Y-115212784D01*
X138975674Y-115032756D01*
X138995460Y-114844500D01*
X138975674Y-114656244D01*
X138917179Y-114476216D01*
X138822533Y-114312284D01*
X138695871Y-114171612D01*
X138695870Y-114171611D01*
X138542734Y-114060351D01*
X138542729Y-114060348D01*
X138369807Y-113983357D01*
X138369802Y-113983355D01*
X138224001Y-113952365D01*
X138184646Y-113944000D01*
X138124102Y-113944000D01*
X138057063Y-113924315D01*
X138011308Y-113871511D01*
X138001364Y-113802353D01*
X138010827Y-113769555D01*
X138013398Y-113763781D01*
X138014803Y-113759456D01*
X138071892Y-113583756D01*
X138091678Y-113395500D01*
X138071892Y-113207244D01*
X138013397Y-113027216D01*
X137996714Y-112998320D01*
X137980242Y-112930424D01*
X137996714Y-112874325D01*
X138059630Y-112765352D01*
X138118125Y-112585324D01*
X138137911Y-112397068D01*
X138118125Y-112208812D01*
X138108763Y-112180000D01*
X145504540Y-112180000D01*
X145524326Y-112368256D01*
X145524327Y-112368259D01*
X145582818Y-112548277D01*
X145582821Y-112548284D01*
X145677467Y-112712216D01*
X145804129Y-112852888D01*
X145957265Y-112964148D01*
X145957270Y-112964151D01*
X146130192Y-113041142D01*
X146130197Y-113041144D01*
X146315354Y-113080500D01*
X146315355Y-113080500D01*
X146504644Y-113080500D01*
X146504646Y-113080500D01*
X146689803Y-113041144D01*
X146862730Y-112964151D01*
X147015871Y-112852888D01*
X147142533Y-112712216D01*
X147237179Y-112548284D01*
X147269114Y-112450000D01*
X153774540Y-112450000D01*
X153794326Y-112638256D01*
X153794327Y-112638259D01*
X153852818Y-112818277D01*
X153852821Y-112818284D01*
X153947467Y-112982216D01*
X154035963Y-113080500D01*
X154074129Y-113122888D01*
X154227265Y-113234148D01*
X154227270Y-113234151D01*
X154400192Y-113311142D01*
X154400197Y-113311144D01*
X154585354Y-113350500D01*
X154585355Y-113350500D01*
X154774644Y-113350500D01*
X154774646Y-113350500D01*
X154959803Y-113311144D01*
X155132730Y-113234151D01*
X155285871Y-113122888D01*
X155412533Y-112982216D01*
X155507179Y-112818284D01*
X155565674Y-112638256D01*
X155585460Y-112450000D01*
X155565674Y-112261744D01*
X155507179Y-112081716D01*
X155412533Y-111917784D01*
X155285871Y-111777112D01*
X155285870Y-111777111D01*
X155132734Y-111665851D01*
X155132729Y-111665848D01*
X154959807Y-111588857D01*
X154959802Y-111588855D01*
X154814001Y-111557865D01*
X154774646Y-111549500D01*
X154585354Y-111549500D01*
X154552897Y-111556398D01*
X154400197Y-111588855D01*
X154400192Y-111588857D01*
X154227270Y-111665848D01*
X154227265Y-111665851D01*
X154074129Y-111777111D01*
X153947466Y-111917785D01*
X153852821Y-112081715D01*
X153852818Y-112081722D01*
X153800671Y-112242216D01*
X153794326Y-112261744D01*
X153774540Y-112450000D01*
X147269114Y-112450000D01*
X147295674Y-112368256D01*
X147315460Y-112180000D01*
X147295674Y-111991744D01*
X147237179Y-111811716D01*
X147142533Y-111647784D01*
X147015871Y-111507112D01*
X147015870Y-111507111D01*
X146862734Y-111395851D01*
X146862729Y-111395848D01*
X146689807Y-111318857D01*
X146689802Y-111318855D01*
X146544001Y-111287865D01*
X146504646Y-111279500D01*
X146315354Y-111279500D01*
X146282897Y-111286398D01*
X146130197Y-111318855D01*
X146130192Y-111318857D01*
X145957270Y-111395848D01*
X145957265Y-111395851D01*
X145804129Y-111507111D01*
X145677466Y-111647785D01*
X145582821Y-111811715D01*
X145582818Y-111811722D01*
X145524327Y-111991740D01*
X145524326Y-111991744D01*
X145504540Y-112180000D01*
X138108763Y-112180000D01*
X138059630Y-112028784D01*
X137964984Y-111864852D01*
X137838322Y-111724180D01*
X137818805Y-111710000D01*
X137685185Y-111612919D01*
X137685180Y-111612916D01*
X137512258Y-111535925D01*
X137512253Y-111535923D01*
X137366452Y-111504933D01*
X137327097Y-111496568D01*
X137137805Y-111496568D01*
X137105348Y-111503466D01*
X136952648Y-111535923D01*
X136952643Y-111535925D01*
X136779721Y-111612916D01*
X136779716Y-111612919D01*
X136626580Y-111724179D01*
X136499917Y-111864853D01*
X136405272Y-112028783D01*
X136405269Y-112028790D01*
X136346778Y-112208808D01*
X136346777Y-112208812D01*
X136326991Y-112397068D01*
X136346777Y-112585324D01*
X136346778Y-112585327D01*
X136405269Y-112765345D01*
X136405272Y-112765352D01*
X136421953Y-112794244D01*
X136438426Y-112862145D01*
X136421954Y-112918243D01*
X136359038Y-113027218D01*
X136359036Y-113027222D01*
X136300545Y-113207240D01*
X136300544Y-113207244D01*
X136297716Y-113234151D01*
X136290345Y-113304281D01*
X136263760Y-113368895D01*
X136217461Y-113404597D01*
X136147267Y-113435849D01*
X135994129Y-113547111D01*
X135867466Y-113687785D01*
X135772821Y-113851715D01*
X135772818Y-113851722D01*
X135714327Y-114031740D01*
X135714326Y-114031744D01*
X135694540Y-114220000D01*
X103741449Y-114220000D01*
X103741449Y-111700000D01*
X114264540Y-111700000D01*
X114284326Y-111888256D01*
X114284327Y-111888259D01*
X114342818Y-112068277D01*
X114342821Y-112068284D01*
X114437467Y-112232216D01*
X114554518Y-112362214D01*
X114564129Y-112372888D01*
X114717265Y-112484148D01*
X114717270Y-112484151D01*
X114890192Y-112561142D01*
X114890197Y-112561144D01*
X115075354Y-112600500D01*
X115075355Y-112600500D01*
X115264644Y-112600500D01*
X115264646Y-112600500D01*
X115449803Y-112561144D01*
X115622730Y-112484151D01*
X115775871Y-112372888D01*
X115902533Y-112232216D01*
X115997179Y-112068284D01*
X116055674Y-111888256D01*
X116075460Y-111700000D01*
X116344540Y-111700000D01*
X116364326Y-111888256D01*
X116364327Y-111888259D01*
X116422818Y-112068277D01*
X116422821Y-112068284D01*
X116517467Y-112232216D01*
X116634518Y-112362214D01*
X116644129Y-112372888D01*
X116797265Y-112484148D01*
X116797270Y-112484151D01*
X116970192Y-112561142D01*
X116970197Y-112561144D01*
X117155354Y-112600500D01*
X117155355Y-112600500D01*
X117344644Y-112600500D01*
X117344646Y-112600500D01*
X117529803Y-112561144D01*
X117702730Y-112484151D01*
X117855871Y-112372888D01*
X117982533Y-112232216D01*
X118077179Y-112068284D01*
X118135674Y-111888256D01*
X118141154Y-111836112D01*
X118167737Y-111771501D01*
X118225034Y-111731515D01*
X118294853Y-111728855D01*
X118355027Y-111764364D01*
X118386451Y-111826768D01*
X118387794Y-111836108D01*
X118394326Y-111898256D01*
X118394327Y-111898259D01*
X118452818Y-112078277D01*
X118452821Y-112078284D01*
X118547467Y-112242216D01*
X118655514Y-112362214D01*
X118674129Y-112382888D01*
X118827265Y-112494148D01*
X118827270Y-112494151D01*
X119000192Y-112571142D01*
X119000197Y-112571144D01*
X119185354Y-112610500D01*
X119185355Y-112610500D01*
X119374644Y-112610500D01*
X119374646Y-112610500D01*
X119559803Y-112571144D01*
X119732730Y-112494151D01*
X119885871Y-112382888D01*
X120012533Y-112242216D01*
X120107179Y-112078284D01*
X120165674Y-111898256D01*
X120185460Y-111710000D01*
X120444540Y-111710000D01*
X120464326Y-111898256D01*
X120464327Y-111898259D01*
X120522818Y-112078277D01*
X120522821Y-112078284D01*
X120617467Y-112242216D01*
X120725514Y-112362214D01*
X120744129Y-112382888D01*
X120897265Y-112494148D01*
X120897270Y-112494151D01*
X121070192Y-112571142D01*
X121070197Y-112571144D01*
X121255354Y-112610500D01*
X121255355Y-112610500D01*
X121444644Y-112610500D01*
X121444646Y-112610500D01*
X121629803Y-112571144D01*
X121802730Y-112494151D01*
X121955871Y-112382888D01*
X122082533Y-112242216D01*
X122177179Y-112078284D01*
X122235674Y-111898256D01*
X122242848Y-111830000D01*
X127734540Y-111830000D01*
X127754326Y-112018256D01*
X127754327Y-112018259D01*
X127812818Y-112198277D01*
X127812821Y-112198284D01*
X127907467Y-112362216D01*
X128017255Y-112484148D01*
X128034129Y-112502888D01*
X128187265Y-112614148D01*
X128187270Y-112614151D01*
X128360192Y-112691142D01*
X128360197Y-112691144D01*
X128545354Y-112730500D01*
X128545355Y-112730500D01*
X128734644Y-112730500D01*
X128734646Y-112730500D01*
X128919803Y-112691144D01*
X129092730Y-112614151D01*
X129245871Y-112502888D01*
X129372533Y-112362216D01*
X129467179Y-112198284D01*
X129525674Y-112018256D01*
X129545460Y-111830000D01*
X129525674Y-111641744D01*
X129467179Y-111461716D01*
X129372533Y-111297784D01*
X129245871Y-111157112D01*
X129245870Y-111157111D01*
X129092734Y-111045851D01*
X129092729Y-111045848D01*
X128919807Y-110968857D01*
X128919802Y-110968855D01*
X128774001Y-110937865D01*
X128734646Y-110929500D01*
X128545354Y-110929500D01*
X128512897Y-110936398D01*
X128360197Y-110968855D01*
X128360192Y-110968857D01*
X128187270Y-111045848D01*
X128187265Y-111045851D01*
X128034129Y-111157111D01*
X127907466Y-111297785D01*
X127812821Y-111461715D01*
X127812818Y-111461722D01*
X127755380Y-111638500D01*
X127754326Y-111641744D01*
X127734540Y-111830000D01*
X122242848Y-111830000D01*
X122255460Y-111710000D01*
X122235674Y-111521744D01*
X122177179Y-111341716D01*
X122082533Y-111177784D01*
X121955871Y-111037112D01*
X121955870Y-111037111D01*
X121802734Y-110925851D01*
X121802729Y-110925848D01*
X121629807Y-110848857D01*
X121629802Y-110848855D01*
X121466513Y-110814148D01*
X121444646Y-110809500D01*
X121255354Y-110809500D01*
X121233487Y-110814148D01*
X121070197Y-110848855D01*
X121070192Y-110848857D01*
X120897270Y-110925848D01*
X120897265Y-110925851D01*
X120744129Y-111037111D01*
X120617466Y-111177785D01*
X120522821Y-111341715D01*
X120522818Y-111341722D01*
X120467575Y-111511744D01*
X120464326Y-111521744D01*
X120444540Y-111710000D01*
X120185460Y-111710000D01*
X120165674Y-111521744D01*
X120107179Y-111341716D01*
X120012533Y-111177784D01*
X119885871Y-111037112D01*
X119885870Y-111037111D01*
X119732734Y-110925851D01*
X119732729Y-110925848D01*
X119559807Y-110848857D01*
X119559802Y-110848855D01*
X119396513Y-110814148D01*
X119374646Y-110809500D01*
X119185354Y-110809500D01*
X119163487Y-110814148D01*
X119000197Y-110848855D01*
X119000192Y-110848857D01*
X118827270Y-110925848D01*
X118827265Y-110925851D01*
X118674129Y-111037111D01*
X118547466Y-111177785D01*
X118452821Y-111341715D01*
X118452818Y-111341722D01*
X118397575Y-111511744D01*
X118394326Y-111521744D01*
X118392836Y-111535923D01*
X118388846Y-111573886D01*
X118362261Y-111638500D01*
X118304963Y-111678484D01*
X118235144Y-111681144D01*
X118174971Y-111645634D01*
X118143548Y-111583229D01*
X118142207Y-111573910D01*
X118135674Y-111511744D01*
X118077179Y-111331716D01*
X117982533Y-111167784D01*
X117855871Y-111027112D01*
X117775690Y-110968857D01*
X117702734Y-110915851D01*
X117702729Y-110915848D01*
X117529807Y-110838857D01*
X117529802Y-110838855D01*
X117384001Y-110807865D01*
X117344646Y-110799500D01*
X117155354Y-110799500D01*
X117122897Y-110806398D01*
X116970197Y-110838855D01*
X116970192Y-110838857D01*
X116797270Y-110915848D01*
X116797265Y-110915851D01*
X116644129Y-111027111D01*
X116517466Y-111167785D01*
X116422821Y-111331715D01*
X116422818Y-111331722D01*
X116380581Y-111461716D01*
X116364326Y-111511744D01*
X116344540Y-111700000D01*
X116075460Y-111700000D01*
X116055674Y-111511744D01*
X115997179Y-111331716D01*
X115902533Y-111167784D01*
X115775871Y-111027112D01*
X115695690Y-110968857D01*
X115622734Y-110915851D01*
X115622729Y-110915848D01*
X115449807Y-110838857D01*
X115449802Y-110838855D01*
X115304001Y-110807865D01*
X115264646Y-110799500D01*
X115075354Y-110799500D01*
X115042897Y-110806398D01*
X114890197Y-110838855D01*
X114890192Y-110838857D01*
X114717270Y-110915848D01*
X114717265Y-110915851D01*
X114564129Y-111027111D01*
X114437466Y-111167785D01*
X114342821Y-111331715D01*
X114342818Y-111331722D01*
X114300581Y-111461716D01*
X114284326Y-111511744D01*
X114264540Y-111700000D01*
X103741449Y-111700000D01*
X103741449Y-109500000D01*
X129684357Y-109500000D01*
X129704884Y-109721535D01*
X129704885Y-109721537D01*
X129765769Y-109935523D01*
X129765775Y-109935538D01*
X129864938Y-110134683D01*
X129864943Y-110134691D01*
X129999020Y-110312238D01*
X130163437Y-110462123D01*
X130163439Y-110462125D01*
X130352595Y-110579245D01*
X130352596Y-110579245D01*
X130352599Y-110579247D01*
X130560060Y-110659618D01*
X130778757Y-110700500D01*
X130778759Y-110700500D01*
X131001241Y-110700500D01*
X131001243Y-110700500D01*
X131219940Y-110659618D01*
X131427401Y-110579247D01*
X131616562Y-110462124D01*
X131780981Y-110312236D01*
X131851951Y-110218256D01*
X131888494Y-110169866D01*
X131944603Y-110128229D01*
X132014315Y-110123538D01*
X132075497Y-110157280D01*
X132086402Y-110169865D01*
X132209020Y-110332238D01*
X132373437Y-110482123D01*
X132373439Y-110482125D01*
X132562595Y-110599245D01*
X132562596Y-110599245D01*
X132562599Y-110599247D01*
X132770060Y-110679618D01*
X132988757Y-110720500D01*
X132988759Y-110720500D01*
X133211241Y-110720500D01*
X133211243Y-110720500D01*
X133429940Y-110679618D01*
X133637401Y-110599247D01*
X133826562Y-110482124D01*
X133990981Y-110332236D01*
X134038391Y-110269454D01*
X134094497Y-110227819D01*
X134164209Y-110223126D01*
X134225391Y-110256867D01*
X134236298Y-110269454D01*
X134329020Y-110392238D01*
X134493437Y-110542123D01*
X134493439Y-110542125D01*
X134682595Y-110659245D01*
X134682596Y-110659245D01*
X134682599Y-110659247D01*
X134890060Y-110739618D01*
X135108757Y-110780500D01*
X135108759Y-110780500D01*
X135331241Y-110780500D01*
X135331243Y-110780500D01*
X135549940Y-110739618D01*
X135757401Y-110659247D01*
X135946562Y-110542124D01*
X136110981Y-110392236D01*
X136245058Y-110214689D01*
X136325743Y-110052652D01*
X150572594Y-110052652D01*
X150592380Y-110240908D01*
X150592381Y-110240911D01*
X150650872Y-110420929D01*
X150650875Y-110420936D01*
X150745521Y-110584868D01*
X150830834Y-110679617D01*
X150872183Y-110725540D01*
X151025319Y-110836800D01*
X151025324Y-110836803D01*
X151198246Y-110913794D01*
X151198251Y-110913796D01*
X151383408Y-110953152D01*
X151383409Y-110953152D01*
X151572698Y-110953152D01*
X151572700Y-110953152D01*
X151757857Y-110913796D01*
X151930784Y-110836803D01*
X151930792Y-110836796D01*
X151936411Y-110833554D01*
X151937347Y-110835176D01*
X151994649Y-110814723D01*
X152052177Y-110825240D01*
X152200197Y-110891144D01*
X152385354Y-110930500D01*
X152385355Y-110930500D01*
X152574644Y-110930500D01*
X152574646Y-110930500D01*
X152759803Y-110891144D01*
X152932730Y-110814151D01*
X153085871Y-110702888D01*
X153212533Y-110562216D01*
X153307179Y-110398284D01*
X153365674Y-110218256D01*
X153385460Y-110030000D01*
X153365674Y-109841744D01*
X153307179Y-109661716D01*
X153212533Y-109497784D01*
X153085871Y-109357112D01*
X153085870Y-109357111D01*
X152932734Y-109245851D01*
X152932729Y-109245848D01*
X152759807Y-109168857D01*
X152759802Y-109168855D01*
X152590585Y-109132888D01*
X152574646Y-109129500D01*
X152385354Y-109129500D01*
X152369415Y-109132888D01*
X152200197Y-109168855D01*
X152200192Y-109168857D01*
X152027267Y-109245850D01*
X152021642Y-109249098D01*
X152020708Y-109247481D01*
X151963370Y-109267930D01*
X151905875Y-109257410D01*
X151757861Y-109191509D01*
X151757856Y-109191507D01*
X151612055Y-109160517D01*
X151572700Y-109152152D01*
X151383408Y-109152152D01*
X151350951Y-109159050D01*
X151198251Y-109191507D01*
X151198246Y-109191509D01*
X151025324Y-109268500D01*
X151025319Y-109268503D01*
X150872183Y-109379763D01*
X150745520Y-109520437D01*
X150650875Y-109684367D01*
X150650872Y-109684374D01*
X150612804Y-109801537D01*
X150592380Y-109864396D01*
X150572594Y-110052652D01*
X136325743Y-110052652D01*
X136344229Y-110015528D01*
X136405115Y-109801536D01*
X136425643Y-109580000D01*
X136405115Y-109358464D01*
X136344229Y-109144472D01*
X136336774Y-109129500D01*
X136245061Y-108945316D01*
X136245056Y-108945308D01*
X136110979Y-108767761D01*
X135946562Y-108617876D01*
X135946560Y-108617874D01*
X135757404Y-108500754D01*
X135757398Y-108500752D01*
X135549940Y-108420382D01*
X135331243Y-108379500D01*
X135108757Y-108379500D01*
X134890060Y-108420382D01*
X134758864Y-108471207D01*
X134682601Y-108500752D01*
X134682595Y-108500754D01*
X134493439Y-108617874D01*
X134493437Y-108617876D01*
X134329019Y-108767762D01*
X134281607Y-108830546D01*
X134225498Y-108872181D01*
X134155786Y-108876872D01*
X134094604Y-108843129D01*
X134083700Y-108830544D01*
X133990982Y-108707765D01*
X133990980Y-108707762D01*
X133826562Y-108557876D01*
X133826560Y-108557874D01*
X133637404Y-108440754D01*
X133637398Y-108440752D01*
X133635457Y-108440000D01*
X133429940Y-108360382D01*
X133211243Y-108319500D01*
X132988757Y-108319500D01*
X132770060Y-108360382D01*
X132720711Y-108379500D01*
X132562601Y-108440752D01*
X132562595Y-108440754D01*
X132373439Y-108557874D01*
X132373437Y-108557876D01*
X132209020Y-108707762D01*
X132101505Y-108850134D01*
X132045396Y-108891770D01*
X131975684Y-108896461D01*
X131914502Y-108862719D01*
X131903597Y-108850134D01*
X131780979Y-108687761D01*
X131616562Y-108537876D01*
X131616560Y-108537874D01*
X131427404Y-108420754D01*
X131427398Y-108420752D01*
X131426443Y-108420382D01*
X131219940Y-108340382D01*
X131001243Y-108299500D01*
X130778757Y-108299500D01*
X130560060Y-108340382D01*
X130459085Y-108379500D01*
X130352601Y-108420752D01*
X130352595Y-108420754D01*
X130163439Y-108537874D01*
X130163437Y-108537876D01*
X129999020Y-108687761D01*
X129864943Y-108865308D01*
X129864938Y-108865316D01*
X129765775Y-109064461D01*
X129765769Y-109064476D01*
X129704885Y-109278462D01*
X129704884Y-109278464D01*
X129684357Y-109499999D01*
X129684357Y-109500000D01*
X103741449Y-109500000D01*
X103741449Y-108450000D01*
X121344540Y-108450000D01*
X121364326Y-108638256D01*
X121364327Y-108638259D01*
X121422818Y-108818277D01*
X121422821Y-108818284D01*
X121517467Y-108982216D01*
X121635125Y-109112888D01*
X121644129Y-109122888D01*
X121797265Y-109234148D01*
X121797270Y-109234151D01*
X121970192Y-109311142D01*
X121970197Y-109311144D01*
X122155354Y-109350500D01*
X122155355Y-109350500D01*
X122344644Y-109350500D01*
X122344646Y-109350500D01*
X122529803Y-109311144D01*
X122702730Y-109234151D01*
X122855871Y-109122888D01*
X122982533Y-108982216D01*
X123077179Y-108818284D01*
X123080431Y-108808277D01*
X123113090Y-108707762D01*
X123135656Y-108638309D01*
X123175092Y-108580636D01*
X123239450Y-108553437D01*
X123308297Y-108565351D01*
X123359773Y-108612595D01*
X123371518Y-108642335D01*
X123372318Y-108642076D01*
X123432818Y-108828277D01*
X123432821Y-108828284D01*
X123527467Y-108992216D01*
X123636121Y-109112888D01*
X123654129Y-109132888D01*
X123807265Y-109244148D01*
X123807270Y-109244151D01*
X123980192Y-109321142D01*
X123980197Y-109321144D01*
X124165354Y-109360500D01*
X124165355Y-109360500D01*
X124354644Y-109360500D01*
X124354646Y-109360500D01*
X124539803Y-109321144D01*
X124712730Y-109244151D01*
X124865871Y-109132888D01*
X124992533Y-108992216D01*
X125087179Y-108828284D01*
X125145674Y-108648256D01*
X125165460Y-108460000D01*
X125163358Y-108440000D01*
X125414540Y-108440000D01*
X125434326Y-108628256D01*
X125434327Y-108628259D01*
X125492818Y-108808277D01*
X125492821Y-108808284D01*
X125587467Y-108972216D01*
X125644768Y-109035855D01*
X125714129Y-109112888D01*
X125867265Y-109224148D01*
X125867270Y-109224151D01*
X126040192Y-109301142D01*
X126040197Y-109301144D01*
X126225354Y-109340500D01*
X126225355Y-109340500D01*
X126414644Y-109340500D01*
X126414646Y-109340500D01*
X126599803Y-109301144D01*
X126772730Y-109224151D01*
X126925871Y-109112888D01*
X127052533Y-108972216D01*
X127147179Y-108808284D01*
X127205674Y-108628256D01*
X127225460Y-108440000D01*
X127205674Y-108251744D01*
X127147179Y-108071716D01*
X127052533Y-107907784D01*
X126925871Y-107767112D01*
X126925870Y-107767111D01*
X126772734Y-107655851D01*
X126772729Y-107655848D01*
X126599807Y-107578857D01*
X126599802Y-107578855D01*
X126454001Y-107547865D01*
X126414646Y-107539500D01*
X126225354Y-107539500D01*
X126192897Y-107546398D01*
X126040197Y-107578855D01*
X126040192Y-107578857D01*
X125867270Y-107655848D01*
X125867265Y-107655851D01*
X125714129Y-107767111D01*
X125587466Y-107907785D01*
X125492821Y-108071715D01*
X125492818Y-108071722D01*
X125434327Y-108251740D01*
X125434326Y-108251744D01*
X125414540Y-108440000D01*
X125163358Y-108440000D01*
X125145674Y-108271744D01*
X125087179Y-108091716D01*
X124992533Y-107927784D01*
X124865871Y-107787112D01*
X124865870Y-107787111D01*
X124712734Y-107675851D01*
X124712729Y-107675848D01*
X124539807Y-107598857D01*
X124539802Y-107598855D01*
X124389305Y-107566867D01*
X124354646Y-107559500D01*
X124165354Y-107559500D01*
X124132897Y-107566398D01*
X123980197Y-107598855D01*
X123980192Y-107598857D01*
X123807270Y-107675848D01*
X123807265Y-107675851D01*
X123654129Y-107787111D01*
X123527466Y-107927785D01*
X123432821Y-108091715D01*
X123432818Y-108091722D01*
X123374344Y-108271688D01*
X123334906Y-108329364D01*
X123270548Y-108356562D01*
X123201701Y-108344647D01*
X123150226Y-108297403D01*
X123138483Y-108267663D01*
X123137682Y-108267924D01*
X123077181Y-108081722D01*
X123077180Y-108081721D01*
X123077179Y-108081716D01*
X122982533Y-107917784D01*
X122855871Y-107777112D01*
X122849006Y-107772124D01*
X122702734Y-107665851D01*
X122702729Y-107665848D01*
X122529807Y-107588857D01*
X122529802Y-107588855D01*
X122384001Y-107557865D01*
X122344646Y-107549500D01*
X122155354Y-107549500D01*
X122122897Y-107556398D01*
X121970197Y-107588855D01*
X121970192Y-107588857D01*
X121797270Y-107665848D01*
X121797265Y-107665851D01*
X121644129Y-107777111D01*
X121517466Y-107917785D01*
X121422821Y-108081715D01*
X121422818Y-108081722D01*
X121367575Y-108251744D01*
X121364326Y-108261744D01*
X121344540Y-108450000D01*
X103741449Y-108450000D01*
X103741449Y-106810000D01*
X129684357Y-106810000D01*
X129704884Y-107031535D01*
X129704885Y-107031537D01*
X129765769Y-107245523D01*
X129765775Y-107245538D01*
X129864938Y-107444683D01*
X129864943Y-107444691D01*
X129999020Y-107622238D01*
X130163437Y-107772123D01*
X130163439Y-107772125D01*
X130352595Y-107889245D01*
X130352596Y-107889245D01*
X130352599Y-107889247D01*
X130560060Y-107969618D01*
X130778757Y-108010500D01*
X130778759Y-108010500D01*
X131001241Y-108010500D01*
X131001243Y-108010500D01*
X131219940Y-107969618D01*
X131427401Y-107889247D01*
X131616562Y-107772124D01*
X131780981Y-107622236D01*
X131854645Y-107524689D01*
X131888494Y-107479866D01*
X131944603Y-107438229D01*
X132014315Y-107433538D01*
X132075497Y-107467280D01*
X132086402Y-107479865D01*
X132209020Y-107642238D01*
X132373437Y-107792123D01*
X132373439Y-107792125D01*
X132562595Y-107909245D01*
X132562596Y-107909245D01*
X132562599Y-107909247D01*
X132770060Y-107989618D01*
X132988757Y-108030500D01*
X132988759Y-108030500D01*
X133211241Y-108030500D01*
X133211243Y-108030500D01*
X133429940Y-107989618D01*
X133637401Y-107909247D01*
X133826562Y-107792124D01*
X133990981Y-107642236D01*
X134038391Y-107579454D01*
X134094497Y-107537819D01*
X134164209Y-107533126D01*
X134225391Y-107566867D01*
X134236298Y-107579454D01*
X134329020Y-107702238D01*
X134493437Y-107852123D01*
X134493439Y-107852125D01*
X134682595Y-107969245D01*
X134682596Y-107969245D01*
X134682599Y-107969247D01*
X134890060Y-108049618D01*
X135108757Y-108090500D01*
X135108759Y-108090500D01*
X135331241Y-108090500D01*
X135331243Y-108090500D01*
X135549940Y-108049618D01*
X135757401Y-107969247D01*
X135946562Y-107852124D01*
X136110981Y-107702236D01*
X136162374Y-107634180D01*
X136218481Y-107592545D01*
X136288193Y-107587853D01*
X136349375Y-107621595D01*
X136360281Y-107634181D01*
X136389020Y-107672237D01*
X136553437Y-107822123D01*
X136553439Y-107822125D01*
X136742595Y-107939245D01*
X136742596Y-107939245D01*
X136742599Y-107939247D01*
X136950060Y-108019618D01*
X137168757Y-108060500D01*
X137168759Y-108060500D01*
X137391241Y-108060500D01*
X137391243Y-108060500D01*
X137609940Y-108019618D01*
X137817401Y-107939247D01*
X138006562Y-107822124D01*
X138170981Y-107672236D01*
X138305058Y-107494689D01*
X138404229Y-107295528D01*
X138465115Y-107081536D01*
X138485643Y-106860000D01*
X138465115Y-106638464D01*
X138404229Y-106424472D01*
X138379332Y-106374472D01*
X138305061Y-106225316D01*
X138305056Y-106225308D01*
X138170979Y-106047761D01*
X138006562Y-105897876D01*
X138006560Y-105897874D01*
X137817404Y-105780754D01*
X137817398Y-105780752D01*
X137609940Y-105700382D01*
X137391243Y-105659500D01*
X137168757Y-105659500D01*
X136950060Y-105700382D01*
X136871664Y-105730753D01*
X136742601Y-105780752D01*
X136742595Y-105780754D01*
X136553439Y-105897874D01*
X136553437Y-105897876D01*
X136389019Y-106047762D01*
X136337625Y-106115819D01*
X136281516Y-106157454D01*
X136211804Y-106162145D01*
X136150622Y-106128402D01*
X136139718Y-106115818D01*
X136110979Y-106077761D01*
X135946562Y-105927876D01*
X135946560Y-105927874D01*
X135757404Y-105810754D01*
X135757398Y-105810752D01*
X135549940Y-105730382D01*
X135331243Y-105689500D01*
X135108757Y-105689500D01*
X134890060Y-105730382D01*
X134760040Y-105780752D01*
X134682601Y-105810752D01*
X134682595Y-105810754D01*
X134493439Y-105927874D01*
X134493437Y-105927876D01*
X134329019Y-106077762D01*
X134281607Y-106140546D01*
X134225498Y-106182181D01*
X134155786Y-106186872D01*
X134094604Y-106153129D01*
X134083700Y-106140544D01*
X133990982Y-106017765D01*
X133990980Y-106017762D01*
X133826562Y-105867876D01*
X133826560Y-105867874D01*
X133637404Y-105750754D01*
X133637398Y-105750752D01*
X133429940Y-105670382D01*
X133211243Y-105629500D01*
X132988757Y-105629500D01*
X132770060Y-105670382D01*
X132638864Y-105721207D01*
X132562601Y-105750752D01*
X132562595Y-105750754D01*
X132373439Y-105867874D01*
X132373437Y-105867876D01*
X132209020Y-106017762D01*
X132101505Y-106160134D01*
X132045396Y-106201770D01*
X131975684Y-106206461D01*
X131914502Y-106172719D01*
X131903597Y-106160134D01*
X131780979Y-105997761D01*
X131616562Y-105847876D01*
X131616560Y-105847874D01*
X131427404Y-105730754D01*
X131427398Y-105730752D01*
X131426443Y-105730382D01*
X131219940Y-105650382D01*
X131001243Y-105609500D01*
X130778757Y-105609500D01*
X130560060Y-105650382D01*
X130459085Y-105689500D01*
X130352601Y-105730752D01*
X130352595Y-105730754D01*
X130163439Y-105847874D01*
X130163437Y-105847876D01*
X129999020Y-105997761D01*
X129864943Y-106175308D01*
X129864938Y-106175316D01*
X129765775Y-106374461D01*
X129765769Y-106374476D01*
X129704885Y-106588462D01*
X129704884Y-106588464D01*
X129684357Y-106809999D01*
X129684357Y-106810000D01*
X103741449Y-106810000D01*
X103741449Y-104120000D01*
X129684357Y-104120000D01*
X129704884Y-104341535D01*
X129704885Y-104341537D01*
X129765769Y-104555523D01*
X129765775Y-104555538D01*
X129864938Y-104754683D01*
X129864943Y-104754691D01*
X129999020Y-104932238D01*
X130163437Y-105082123D01*
X130163439Y-105082125D01*
X130352595Y-105199245D01*
X130352596Y-105199245D01*
X130352599Y-105199247D01*
X130560060Y-105279618D01*
X130778757Y-105320500D01*
X130778759Y-105320500D01*
X131001241Y-105320500D01*
X131001243Y-105320500D01*
X131219940Y-105279618D01*
X131427401Y-105199247D01*
X131616562Y-105082124D01*
X131780981Y-104932236D01*
X131859503Y-104828256D01*
X131888494Y-104789866D01*
X131944603Y-104748229D01*
X132014315Y-104743538D01*
X132075497Y-104777280D01*
X132086402Y-104789865D01*
X132209020Y-104952238D01*
X132373437Y-105102123D01*
X132373439Y-105102125D01*
X132562595Y-105219245D01*
X132562596Y-105219245D01*
X132562599Y-105219247D01*
X132770060Y-105299618D01*
X132988757Y-105340500D01*
X132988759Y-105340500D01*
X133211241Y-105340500D01*
X133211243Y-105340500D01*
X133429940Y-105299618D01*
X133637401Y-105219247D01*
X133826562Y-105102124D01*
X133990981Y-104952236D01*
X134038391Y-104889454D01*
X134094497Y-104847819D01*
X134164209Y-104843126D01*
X134225391Y-104876867D01*
X134236298Y-104889454D01*
X134329020Y-105012238D01*
X134493437Y-105162123D01*
X134493439Y-105162125D01*
X134682595Y-105279245D01*
X134682596Y-105279245D01*
X134682599Y-105279247D01*
X134890060Y-105359618D01*
X135108757Y-105400500D01*
X135108759Y-105400500D01*
X135331241Y-105400500D01*
X135331243Y-105400500D01*
X135549940Y-105359618D01*
X135757401Y-105279247D01*
X135946562Y-105162124D01*
X136110981Y-105012236D01*
X136162374Y-104944180D01*
X136218481Y-104902545D01*
X136288193Y-104897853D01*
X136349375Y-104931595D01*
X136360281Y-104944181D01*
X136389020Y-104982237D01*
X136553437Y-105132123D01*
X136553439Y-105132125D01*
X136742595Y-105249245D01*
X136742596Y-105249245D01*
X136742599Y-105249247D01*
X136950060Y-105329618D01*
X137168757Y-105370500D01*
X137168759Y-105370500D01*
X137391241Y-105370500D01*
X137391243Y-105370500D01*
X137609940Y-105329618D01*
X137817401Y-105249247D01*
X138006562Y-105132124D01*
X138170981Y-104982236D01*
X138305058Y-104804689D01*
X138404229Y-104605528D01*
X138465115Y-104391536D01*
X138485643Y-104170000D01*
X138465115Y-103948464D01*
X138404229Y-103734472D01*
X138379332Y-103684472D01*
X138305061Y-103535316D01*
X138305056Y-103535308D01*
X138170979Y-103357761D01*
X138006562Y-103207876D01*
X138006560Y-103207874D01*
X137817404Y-103090754D01*
X137817398Y-103090752D01*
X137609940Y-103010382D01*
X137391243Y-102969500D01*
X137168757Y-102969500D01*
X136950060Y-103010382D01*
X136820040Y-103060752D01*
X136742601Y-103090752D01*
X136742595Y-103090754D01*
X136553439Y-103207874D01*
X136553437Y-103207876D01*
X136389019Y-103357762D01*
X136337625Y-103425819D01*
X136281516Y-103467454D01*
X136211804Y-103472145D01*
X136150622Y-103438402D01*
X136139718Y-103425818D01*
X136110979Y-103387761D01*
X135946562Y-103237876D01*
X135946560Y-103237874D01*
X135757404Y-103120754D01*
X135757398Y-103120752D01*
X135549940Y-103040382D01*
X135331243Y-102999500D01*
X135108757Y-102999500D01*
X134890060Y-103040382D01*
X134760040Y-103090752D01*
X134682601Y-103120752D01*
X134682595Y-103120754D01*
X134493439Y-103237874D01*
X134493437Y-103237876D01*
X134329019Y-103387762D01*
X134281607Y-103450546D01*
X134225498Y-103492181D01*
X134155786Y-103496872D01*
X134094604Y-103463129D01*
X134083700Y-103450544D01*
X133990982Y-103327765D01*
X133990980Y-103327762D01*
X133826562Y-103177876D01*
X133826560Y-103177874D01*
X133637404Y-103060754D01*
X133637398Y-103060752D01*
X133429940Y-102980382D01*
X133211243Y-102939500D01*
X132988757Y-102939500D01*
X132770060Y-102980382D01*
X132638864Y-103031207D01*
X132562601Y-103060752D01*
X132562595Y-103060754D01*
X132373439Y-103177874D01*
X132373437Y-103177876D01*
X132209020Y-103327762D01*
X132101505Y-103470134D01*
X132045396Y-103511770D01*
X131975684Y-103516461D01*
X131914502Y-103482719D01*
X131903597Y-103470134D01*
X131780979Y-103307761D01*
X131616562Y-103157876D01*
X131616560Y-103157874D01*
X131427404Y-103040754D01*
X131427398Y-103040752D01*
X131426443Y-103040382D01*
X131219940Y-102960382D01*
X131001243Y-102919500D01*
X130778757Y-102919500D01*
X130560060Y-102960382D01*
X130459085Y-102999500D01*
X130352601Y-103040752D01*
X130352595Y-103040754D01*
X130163439Y-103157874D01*
X130163437Y-103157876D01*
X129999020Y-103307761D01*
X129864943Y-103485308D01*
X129864938Y-103485316D01*
X129765775Y-103684461D01*
X129765769Y-103684476D01*
X129704885Y-103898462D01*
X129704884Y-103898464D01*
X129684357Y-104119999D01*
X129684357Y-104120000D01*
X103741449Y-104120000D01*
X103741449Y-101020000D01*
X143264540Y-101020000D01*
X143284326Y-101208256D01*
X143284327Y-101208259D01*
X143342818Y-101388277D01*
X143342821Y-101388284D01*
X143437467Y-101552216D01*
X143489626Y-101610144D01*
X143564129Y-101692888D01*
X143722527Y-101807971D01*
X143721116Y-101809912D01*
X143761822Y-101852601D01*
X143775047Y-101921208D01*
X143774929Y-101922384D01*
X143769040Y-101978421D01*
X143769040Y-101978422D01*
X143788826Y-102166678D01*
X143788827Y-102166681D01*
X143847318Y-102346699D01*
X143847321Y-102346706D01*
X143941967Y-102510638D01*
X144068629Y-102651310D01*
X144181764Y-102733507D01*
X144224428Y-102788834D01*
X144232198Y-102846783D01*
X144224556Y-102919500D01*
X144219040Y-102971984D01*
X144238826Y-103160240D01*
X144238827Y-103160243D01*
X144297318Y-103340261D01*
X144297321Y-103340268D01*
X144391967Y-103504200D01*
X144429498Y-103545882D01*
X144518629Y-103644872D01*
X144626744Y-103723422D01*
X144669410Y-103778752D01*
X144677180Y-103836699D01*
X144669040Y-103914158D01*
X144669040Y-103914160D01*
X144688826Y-104102416D01*
X144688827Y-104102419D01*
X144747318Y-104282437D01*
X144747321Y-104282444D01*
X144841967Y-104446376D01*
X144968629Y-104587048D01*
X145075727Y-104664859D01*
X145085381Y-104671873D01*
X145128046Y-104727203D01*
X145135816Y-104785148D01*
X145134390Y-104798720D01*
X145134390Y-104798724D01*
X145154176Y-104986980D01*
X145154177Y-104986983D01*
X145212668Y-105167001D01*
X145212671Y-105167008D01*
X145307317Y-105330940D01*
X145391242Y-105424148D01*
X145433979Y-105471612D01*
X145587115Y-105582872D01*
X145587120Y-105582875D01*
X145760042Y-105659866D01*
X145760047Y-105659868D01*
X145945204Y-105699224D01*
X145945205Y-105699224D01*
X146134494Y-105699224D01*
X146134496Y-105699224D01*
X146319653Y-105659868D01*
X146492580Y-105582875D01*
X146645721Y-105471612D01*
X146772383Y-105330940D01*
X146867029Y-105167008D01*
X146925524Y-104986980D01*
X146945310Y-104798724D01*
X146928628Y-104640000D01*
X154819040Y-104640000D01*
X154838826Y-104828256D01*
X154838827Y-104828259D01*
X154897318Y-105008277D01*
X154897321Y-105008284D01*
X154991967Y-105172216D01*
X155106680Y-105299617D01*
X155118629Y-105312888D01*
X155271765Y-105424148D01*
X155271770Y-105424151D01*
X155444692Y-105501142D01*
X155444697Y-105501144D01*
X155629854Y-105540500D01*
X155629855Y-105540500D01*
X155819144Y-105540500D01*
X155819146Y-105540500D01*
X156004303Y-105501144D01*
X156177230Y-105424151D01*
X156330371Y-105312888D01*
X156457033Y-105172216D01*
X156551679Y-105008284D01*
X156610174Y-104828256D01*
X156629960Y-104640000D01*
X156610174Y-104451744D01*
X156551679Y-104271716D01*
X156457033Y-104107784D01*
X156330371Y-103967112D01*
X156330370Y-103967111D01*
X156177234Y-103855851D01*
X156177229Y-103855848D01*
X156004307Y-103778857D01*
X156004302Y-103778855D01*
X155858501Y-103747865D01*
X155819146Y-103739500D01*
X155629854Y-103739500D01*
X155597397Y-103746398D01*
X155444697Y-103778855D01*
X155444692Y-103778857D01*
X155271770Y-103855848D01*
X155271765Y-103855851D01*
X155118629Y-103967111D01*
X154991966Y-104107785D01*
X154897321Y-104271715D01*
X154897318Y-104271722D01*
X154845748Y-104430439D01*
X154838826Y-104451744D01*
X154819040Y-104640000D01*
X146928628Y-104640000D01*
X146925524Y-104610468D01*
X146867029Y-104430440D01*
X146772383Y-104266508D01*
X146645721Y-104125836D01*
X146528968Y-104041010D01*
X146486303Y-103985680D01*
X146478534Y-103927728D01*
X146479960Y-103914163D01*
X146479960Y-103914162D01*
X146478310Y-103898462D01*
X146460174Y-103725904D01*
X146401679Y-103545876D01*
X146307033Y-103381944D01*
X146180371Y-103241272D01*
X146072252Y-103162719D01*
X146029588Y-103107390D01*
X146021818Y-103049442D01*
X146029960Y-102971984D01*
X146010174Y-102783728D01*
X145951679Y-102603700D01*
X145857033Y-102439768D01*
X145730371Y-102299096D01*
X145709797Y-102284148D01*
X145617237Y-102216899D01*
X145574571Y-102161569D01*
X145566801Y-102103620D01*
X145579960Y-101978422D01*
X145560174Y-101790166D01*
X145501679Y-101610138D01*
X145438091Y-101500000D01*
X155804540Y-101500000D01*
X155824326Y-101688256D01*
X155824327Y-101688259D01*
X155882818Y-101868277D01*
X155882821Y-101868284D01*
X155977467Y-102032216D01*
X156098540Y-102166681D01*
X156104129Y-102172888D01*
X156257265Y-102284148D01*
X156257270Y-102284151D01*
X156430192Y-102361142D01*
X156430197Y-102361144D01*
X156615354Y-102400500D01*
X156615355Y-102400500D01*
X156804644Y-102400500D01*
X156804646Y-102400500D01*
X156989803Y-102361144D01*
X157162730Y-102284151D01*
X157315871Y-102172888D01*
X157442533Y-102032216D01*
X157537179Y-101868284D01*
X157595674Y-101688256D01*
X157615460Y-101500000D01*
X157595674Y-101311744D01*
X157537179Y-101131716D01*
X157442533Y-100967784D01*
X157315871Y-100827112D01*
X157315870Y-100827111D01*
X157162734Y-100715851D01*
X157162729Y-100715848D01*
X156989807Y-100638857D01*
X156989802Y-100638855D01*
X156844001Y-100607865D01*
X156804646Y-100599500D01*
X156615354Y-100599500D01*
X156582897Y-100606398D01*
X156430197Y-100638855D01*
X156430192Y-100638857D01*
X156257270Y-100715848D01*
X156257265Y-100715851D01*
X156104129Y-100827111D01*
X155977466Y-100967785D01*
X155882821Y-101131715D01*
X155882818Y-101131722D01*
X155824327Y-101311740D01*
X155824326Y-101311744D01*
X155804540Y-101500000D01*
X145438091Y-101500000D01*
X145407033Y-101446206D01*
X145280371Y-101305534D01*
X145280370Y-101305533D01*
X145121973Y-101190451D01*
X145123381Y-101188512D01*
X145082668Y-101145802D01*
X145069454Y-101077193D01*
X145069570Y-101076035D01*
X145075460Y-101020000D01*
X145055674Y-100831744D01*
X144997179Y-100651716D01*
X144902533Y-100487784D01*
X144775871Y-100347112D01*
X144775870Y-100347111D01*
X144622734Y-100235851D01*
X144622729Y-100235848D01*
X144449807Y-100158857D01*
X144449802Y-100158855D01*
X144304001Y-100127865D01*
X144264646Y-100119500D01*
X144075354Y-100119500D01*
X144042897Y-100126398D01*
X143890197Y-100158855D01*
X143890192Y-100158857D01*
X143717270Y-100235848D01*
X143717265Y-100235851D01*
X143564129Y-100347111D01*
X143437466Y-100487785D01*
X143342821Y-100651715D01*
X143342818Y-100651722D01*
X143285831Y-100827111D01*
X143284326Y-100831744D01*
X143264540Y-101020000D01*
X103741449Y-101020000D01*
X103741449Y-95924001D01*
X109398390Y-95924001D01*
X109418804Y-96209433D01*
X109479628Y-96489037D01*
X109579635Y-96757166D01*
X109716770Y-97008309D01*
X109716775Y-97008317D01*
X109888254Y-97237387D01*
X109888270Y-97237405D01*
X110090594Y-97439729D01*
X110090612Y-97439745D01*
X110319682Y-97611224D01*
X110319690Y-97611229D01*
X110570833Y-97748364D01*
X110570832Y-97748364D01*
X110570836Y-97748365D01*
X110570839Y-97748367D01*
X110838954Y-97848369D01*
X110838960Y-97848370D01*
X110838962Y-97848371D01*
X111118566Y-97909195D01*
X111118568Y-97909195D01*
X111118572Y-97909196D01*
X111332552Y-97924500D01*
X111475448Y-97924500D01*
X111689428Y-97909196D01*
X111969046Y-97848369D01*
X112237161Y-97748367D01*
X112488315Y-97611226D01*
X112717395Y-97439739D01*
X112919739Y-97237395D01*
X113091226Y-97008315D01*
X113228367Y-96757161D01*
X113328369Y-96489046D01*
X113389196Y-96209428D01*
X113409610Y-95924000D01*
X113389196Y-95638572D01*
X113328369Y-95358954D01*
X113228367Y-95090839D01*
X113091226Y-94839685D01*
X113054889Y-94791144D01*
X112919745Y-94610612D01*
X112919729Y-94610594D01*
X112717405Y-94408270D01*
X112717387Y-94408254D01*
X112488317Y-94236775D01*
X112488309Y-94236770D01*
X112237166Y-94099635D01*
X112237167Y-94099635D01*
X112129915Y-94059632D01*
X111969046Y-93999631D01*
X111969043Y-93999630D01*
X111969037Y-93999628D01*
X111689433Y-93938804D01*
X111566333Y-93930000D01*
X153014540Y-93930000D01*
X153034326Y-94118256D01*
X153034327Y-94118259D01*
X153092818Y-94298277D01*
X153092821Y-94298284D01*
X153187467Y-94462216D01*
X153280583Y-94565631D01*
X153314129Y-94602888D01*
X153467265Y-94714148D01*
X153467270Y-94714151D01*
X153640192Y-94791142D01*
X153640197Y-94791144D01*
X153825354Y-94830500D01*
X153825355Y-94830500D01*
X154014644Y-94830500D01*
X154014646Y-94830500D01*
X154199803Y-94791144D01*
X154372730Y-94714151D01*
X154525871Y-94602888D01*
X154527605Y-94600961D01*
X154528888Y-94600170D01*
X154530701Y-94598539D01*
X154530999Y-94598870D01*
X154587086Y-94564308D01*
X154656943Y-94565631D01*
X154692642Y-94583604D01*
X154817266Y-94674148D01*
X154817270Y-94674151D01*
X154990192Y-94751142D01*
X154990197Y-94751144D01*
X155175354Y-94790500D01*
X155175355Y-94790500D01*
X155364644Y-94790500D01*
X155364646Y-94790500D01*
X155549803Y-94751144D01*
X155722730Y-94674151D01*
X155875871Y-94562888D01*
X156002533Y-94422216D01*
X156097179Y-94258284D01*
X156155674Y-94078256D01*
X156175460Y-93890000D01*
X156155674Y-93701744D01*
X156097179Y-93521716D01*
X156002533Y-93357784D01*
X155875871Y-93217112D01*
X155875870Y-93217111D01*
X155722734Y-93105851D01*
X155722729Y-93105848D01*
X155549807Y-93028857D01*
X155549802Y-93028855D01*
X155404001Y-92997865D01*
X155364646Y-92989500D01*
X155175354Y-92989500D01*
X155142897Y-92996398D01*
X154990197Y-93028855D01*
X154990192Y-93028857D01*
X154817270Y-93105848D01*
X154817265Y-93105851D01*
X154664131Y-93217110D01*
X154664124Y-93217116D01*
X154662382Y-93219051D01*
X154661094Y-93219843D01*
X154659300Y-93221460D01*
X154659004Y-93221131D01*
X154602894Y-93255696D01*
X154533037Y-93254362D01*
X154497355Y-93236394D01*
X154401544Y-93166783D01*
X154372729Y-93145848D01*
X154199807Y-93068857D01*
X154199802Y-93068855D01*
X154054001Y-93037865D01*
X154014646Y-93029500D01*
X153825354Y-93029500D01*
X153792897Y-93036398D01*
X153640197Y-93068855D01*
X153640192Y-93068857D01*
X153467270Y-93145848D01*
X153467265Y-93145851D01*
X153314129Y-93257111D01*
X153187466Y-93397785D01*
X153092821Y-93561715D01*
X153092818Y-93561722D01*
X153034327Y-93741740D01*
X153034326Y-93741744D01*
X153014540Y-93930000D01*
X111566333Y-93930000D01*
X111475448Y-93923500D01*
X111332552Y-93923500D01*
X111118566Y-93938804D01*
X110838962Y-93999628D01*
X110570833Y-94099635D01*
X110319690Y-94236770D01*
X110319682Y-94236775D01*
X110090612Y-94408254D01*
X110090594Y-94408270D01*
X109888270Y-94610594D01*
X109888254Y-94610612D01*
X109716775Y-94839682D01*
X109716770Y-94839690D01*
X109579635Y-95090833D01*
X109479628Y-95358962D01*
X109418804Y-95638566D01*
X109398390Y-95923998D01*
X109398390Y-95924001D01*
X103741449Y-95924001D01*
X103741449Y-92679660D01*
X150620393Y-92679660D01*
X150650668Y-92851354D01*
X150719721Y-93011438D01*
X150719722Y-93011440D01*
X150719724Y-93011443D01*
X150819788Y-93145851D01*
X150823832Y-93151283D01*
X150957386Y-93263349D01*
X151113185Y-93341594D01*
X151282829Y-93381800D01*
X151282831Y-93381800D01*
X151413429Y-93381800D01*
X151413436Y-93381800D01*
X151543164Y-93366637D01*
X151706993Y-93307008D01*
X151852654Y-93211205D01*
X151972296Y-93084393D01*
X152059467Y-92933407D01*
X152109469Y-92766388D01*
X152119607Y-92592340D01*
X152089332Y-92420646D01*
X152020279Y-92260562D01*
X152010442Y-92247349D01*
X151916167Y-92120716D01*
X151782614Y-92008651D01*
X151782612Y-92008650D01*
X151626818Y-91930407D01*
X151626816Y-91930406D01*
X151626815Y-91930406D01*
X151457171Y-91890200D01*
X151326564Y-91890200D01*
X151213052Y-91903467D01*
X151196835Y-91905363D01*
X151196832Y-91905364D01*
X151033008Y-91964991D01*
X151033004Y-91964993D01*
X150887348Y-92060792D01*
X150887347Y-92060793D01*
X150767706Y-92187603D01*
X150767703Y-92187609D01*
X150680534Y-92338590D01*
X150630531Y-92505610D01*
X150630530Y-92505616D01*
X150625479Y-92592340D01*
X150620393Y-92679660D01*
X103741449Y-92679660D01*
X103741449Y-91663660D01*
X155700393Y-91663660D01*
X155730668Y-91835354D01*
X155799721Y-91995438D01*
X155799722Y-91995440D01*
X155799724Y-91995443D01*
X155854032Y-92068390D01*
X155903832Y-92135283D01*
X156037386Y-92247349D01*
X156193185Y-92325594D01*
X156362829Y-92365800D01*
X156362831Y-92365800D01*
X156493429Y-92365800D01*
X156493436Y-92365800D01*
X156623164Y-92350637D01*
X156786993Y-92291008D01*
X156932654Y-92195205D01*
X157052296Y-92068393D01*
X157139467Y-91917407D01*
X157189469Y-91750388D01*
X157199607Y-91576340D01*
X157169332Y-91404646D01*
X157100279Y-91244562D01*
X157090442Y-91231349D01*
X156996167Y-91104716D01*
X156862614Y-90992651D01*
X156862612Y-90992650D01*
X156706818Y-90914407D01*
X156706816Y-90914406D01*
X156706815Y-90914406D01*
X156537171Y-90874200D01*
X156406564Y-90874200D01*
X156293052Y-90887467D01*
X156276835Y-90889363D01*
X156276832Y-90889364D01*
X156113008Y-90948991D01*
X156113004Y-90948993D01*
X155967348Y-91044792D01*
X155967347Y-91044793D01*
X155847706Y-91171603D01*
X155847703Y-91171609D01*
X155760534Y-91322590D01*
X155710531Y-91489610D01*
X155710530Y-91489616D01*
X155705479Y-91576340D01*
X155700393Y-91663660D01*
X103741449Y-91663660D01*
X103741449Y-90647660D01*
X150620393Y-90647660D01*
X150650668Y-90819354D01*
X150719721Y-90979438D01*
X150719722Y-90979440D01*
X150719724Y-90979443D01*
X150774032Y-91052390D01*
X150823832Y-91119283D01*
X150957386Y-91231349D01*
X151113185Y-91309594D01*
X151282829Y-91349800D01*
X151282831Y-91349800D01*
X151413429Y-91349800D01*
X151413436Y-91349800D01*
X151543164Y-91334637D01*
X151706993Y-91275008D01*
X151852654Y-91179205D01*
X151972296Y-91052393D01*
X152059467Y-90901407D01*
X152109469Y-90734388D01*
X152119607Y-90560340D01*
X152089332Y-90388646D01*
X152020279Y-90228562D01*
X151916168Y-90088717D01*
X151782614Y-89976651D01*
X151695680Y-89932991D01*
X151626818Y-89898407D01*
X151626816Y-89898406D01*
X151626815Y-89898406D01*
X151457171Y-89858200D01*
X151326564Y-89858200D01*
X151213052Y-89871467D01*
X151196835Y-89873363D01*
X151196832Y-89873364D01*
X151033008Y-89932991D01*
X151033004Y-89932993D01*
X150887348Y-90028792D01*
X150887347Y-90028793D01*
X150767706Y-90155603D01*
X150767703Y-90155609D01*
X150680534Y-90306590D01*
X150630531Y-90473610D01*
X150630530Y-90473616D01*
X150625479Y-90560340D01*
X150620393Y-90647660D01*
X103741449Y-90647660D01*
X103741449Y-88450000D01*
X109149534Y-88450000D01*
X109169312Y-88600234D01*
X109169313Y-88600236D01*
X109211110Y-88701144D01*
X109227302Y-88740233D01*
X109319549Y-88860451D01*
X109439767Y-88952698D01*
X109579764Y-89010687D01*
X109692280Y-89025500D01*
X109692287Y-89025500D01*
X109767713Y-89025500D01*
X109767720Y-89025500D01*
X109880236Y-89010687D01*
X110020233Y-88952698D01*
X110140451Y-88860451D01*
X110232698Y-88740233D01*
X110290687Y-88600236D01*
X110310466Y-88450000D01*
X110290687Y-88299764D01*
X110232698Y-88159767D01*
X110140451Y-88039549D01*
X110020233Y-87947302D01*
X110020229Y-87947300D01*
X109956801Y-87921027D01*
X109880236Y-87889313D01*
X109866171Y-87887461D01*
X109767727Y-87874500D01*
X109767720Y-87874500D01*
X109692280Y-87874500D01*
X109692272Y-87874500D01*
X109579764Y-87889313D01*
X109579763Y-87889313D01*
X109439770Y-87947300D01*
X109439767Y-87947301D01*
X109439767Y-87947302D01*
X109319549Y-88039549D01*
X109231355Y-88154486D01*
X109227300Y-88159770D01*
X109169313Y-88299763D01*
X109169312Y-88299765D01*
X109149534Y-88449999D01*
X109149534Y-88450000D01*
X103741449Y-88450000D01*
X103741449Y-87630000D01*
X112044540Y-87630000D01*
X112064326Y-87818256D01*
X112064327Y-87818259D01*
X112122818Y-87998277D01*
X112122821Y-87998284D01*
X112217467Y-88162216D01*
X112258941Y-88208277D01*
X112344129Y-88302888D01*
X112497265Y-88414148D01*
X112497270Y-88414151D01*
X112670192Y-88491142D01*
X112670197Y-88491144D01*
X112855354Y-88530500D01*
X112855355Y-88530500D01*
X113044644Y-88530500D01*
X113044646Y-88530500D01*
X113229803Y-88491144D01*
X113402730Y-88414151D01*
X113555871Y-88302888D01*
X113682533Y-88162216D01*
X113777179Y-87998284D01*
X113835674Y-87818256D01*
X113855460Y-87630000D01*
X113835674Y-87441744D01*
X113835107Y-87440000D01*
X147944540Y-87440000D01*
X147964326Y-87628256D01*
X147964327Y-87628259D01*
X148022818Y-87808277D01*
X148022821Y-87808284D01*
X148117467Y-87972216D01*
X148178094Y-88039549D01*
X148244129Y-88112888D01*
X148397265Y-88224148D01*
X148397270Y-88224151D01*
X148570192Y-88301142D01*
X148570197Y-88301144D01*
X148755354Y-88340500D01*
X148755355Y-88340500D01*
X148944644Y-88340500D01*
X148944646Y-88340500D01*
X149129803Y-88301144D01*
X149302730Y-88224151D01*
X149455871Y-88112888D01*
X149582533Y-87972216D01*
X149658868Y-87840000D01*
X151794540Y-87840000D01*
X151814326Y-88028256D01*
X151814327Y-88028259D01*
X151872818Y-88208277D01*
X151872821Y-88208284D01*
X151967467Y-88372216D01*
X152060778Y-88475848D01*
X152094129Y-88512888D01*
X152247265Y-88624148D01*
X152247270Y-88624151D01*
X152420192Y-88701142D01*
X152420197Y-88701144D01*
X152605354Y-88740500D01*
X152605355Y-88740500D01*
X152794644Y-88740500D01*
X152794646Y-88740500D01*
X152962691Y-88704781D01*
X153032357Y-88710097D01*
X153088091Y-88752234D01*
X153106402Y-88787753D01*
X153122818Y-88838277D01*
X153122821Y-88838284D01*
X153217467Y-89002216D01*
X153344129Y-89142888D01*
X153497265Y-89254148D01*
X153497270Y-89254151D01*
X153670192Y-89331142D01*
X153670197Y-89331144D01*
X153855354Y-89370500D01*
X153855355Y-89370500D01*
X154044644Y-89370500D01*
X154044646Y-89370500D01*
X154185296Y-89340604D01*
X154254962Y-89345920D01*
X154310696Y-89388057D01*
X154331764Y-89442160D01*
X154332976Y-89441903D01*
X154334326Y-89448257D01*
X154392818Y-89628277D01*
X154392821Y-89628284D01*
X154487467Y-89792216D01*
X154583081Y-89898406D01*
X154614129Y-89932888D01*
X154767265Y-90044148D01*
X154767270Y-90044151D01*
X154940192Y-90121142D01*
X154940197Y-90121144D01*
X155125354Y-90160500D01*
X155125355Y-90160500D01*
X155314644Y-90160500D01*
X155314646Y-90160500D01*
X155499803Y-90121144D01*
X155672730Y-90044151D01*
X155825871Y-89932888D01*
X155952533Y-89792216D01*
X156047179Y-89628284D01*
X156105674Y-89448256D01*
X156125460Y-89260000D01*
X156105674Y-89071744D01*
X156047179Y-88891716D01*
X155952533Y-88727784D01*
X155825871Y-88587112D01*
X155825870Y-88587111D01*
X155672734Y-88475851D01*
X155672729Y-88475848D01*
X155499807Y-88398857D01*
X155499805Y-88398856D01*
X155472729Y-88393101D01*
X155411248Y-88359907D01*
X155377472Y-88298744D01*
X155382126Y-88229029D01*
X155423731Y-88172898D01*
X155464059Y-88154486D01*
X155463626Y-88153151D01*
X155469796Y-88151145D01*
X155469803Y-88151144D01*
X155642730Y-88074151D01*
X155795871Y-87962888D01*
X155922533Y-87822216D01*
X156017179Y-87658284D01*
X156075674Y-87478256D01*
X156095460Y-87290000D01*
X156075674Y-87101744D01*
X156017179Y-86921716D01*
X155922533Y-86757784D01*
X155795871Y-86617112D01*
X155753294Y-86586178D01*
X155642734Y-86505851D01*
X155642729Y-86505848D01*
X155469807Y-86428857D01*
X155469802Y-86428855D01*
X155324001Y-86397865D01*
X155284646Y-86389500D01*
X155095354Y-86389500D01*
X155062897Y-86396398D01*
X154910197Y-86428855D01*
X154910192Y-86428857D01*
X154737271Y-86505848D01*
X154637239Y-86578525D01*
X154571432Y-86602004D01*
X154503378Y-86586178D01*
X154491469Y-86578525D01*
X154437755Y-86539500D01*
X154432730Y-86535849D01*
X154432728Y-86535848D01*
X154432729Y-86535848D01*
X154259807Y-86458857D01*
X154259802Y-86458855D01*
X154114001Y-86427865D01*
X154074646Y-86419500D01*
X153885354Y-86419500D01*
X153852897Y-86426398D01*
X153700197Y-86458855D01*
X153700192Y-86458857D01*
X153527270Y-86535848D01*
X153527265Y-86535851D01*
X153374129Y-86647111D01*
X153247466Y-86787785D01*
X153160801Y-86937894D01*
X153110234Y-86986109D01*
X153041627Y-86999333D01*
X153002980Y-86989174D01*
X152979808Y-86978857D01*
X152979802Y-86978855D01*
X152834001Y-86947865D01*
X152794646Y-86939500D01*
X152605354Y-86939500D01*
X152572897Y-86946398D01*
X152420197Y-86978855D01*
X152420192Y-86978857D01*
X152247270Y-87055848D01*
X152247265Y-87055851D01*
X152094129Y-87167111D01*
X151967466Y-87307785D01*
X151872821Y-87471715D01*
X151872818Y-87471722D01*
X151821391Y-87630000D01*
X151814326Y-87651744D01*
X151794540Y-87840000D01*
X149658868Y-87840000D01*
X149677179Y-87808284D01*
X149735674Y-87628256D01*
X149755460Y-87440000D01*
X149735674Y-87251744D01*
X149677179Y-87071716D01*
X149582533Y-86907784D01*
X149455871Y-86767112D01*
X149455870Y-86767111D01*
X149302734Y-86655851D01*
X149302729Y-86655848D01*
X149129807Y-86578857D01*
X149129802Y-86578855D01*
X148984001Y-86547865D01*
X148944646Y-86539500D01*
X148755354Y-86539500D01*
X148722897Y-86546398D01*
X148570197Y-86578855D01*
X148570192Y-86578857D01*
X148397270Y-86655848D01*
X148397265Y-86655851D01*
X148244129Y-86767111D01*
X148117466Y-86907785D01*
X148022821Y-87071715D01*
X148022818Y-87071722D01*
X147964327Y-87251740D01*
X147964326Y-87251744D01*
X147944540Y-87440000D01*
X113835107Y-87440000D01*
X113777179Y-87261716D01*
X113682533Y-87097784D01*
X113555871Y-86957112D01*
X113548444Y-86951716D01*
X113402734Y-86845851D01*
X113402729Y-86845848D01*
X113229807Y-86768857D01*
X113229802Y-86768855D01*
X113084001Y-86737865D01*
X113044646Y-86729500D01*
X112855354Y-86729500D01*
X112822897Y-86736398D01*
X112670197Y-86768855D01*
X112670192Y-86768857D01*
X112497270Y-86845848D01*
X112497265Y-86845851D01*
X112344129Y-86957111D01*
X112217466Y-87097785D01*
X112122821Y-87261715D01*
X112122818Y-87261722D01*
X112064327Y-87441740D01*
X112064326Y-87441744D01*
X112044540Y-87630000D01*
X103741449Y-87630000D01*
X103741449Y-85320000D01*
X124734540Y-85320000D01*
X124754326Y-85508256D01*
X124754327Y-85508259D01*
X124812818Y-85688277D01*
X124812821Y-85688284D01*
X124907467Y-85852216D01*
X124939186Y-85887443D01*
X125034129Y-85992888D01*
X125187265Y-86104148D01*
X125187270Y-86104151D01*
X125360192Y-86181142D01*
X125360197Y-86181144D01*
X125545354Y-86220500D01*
X125545355Y-86220500D01*
X125734644Y-86220500D01*
X125734646Y-86220500D01*
X125919803Y-86181144D01*
X126092730Y-86104151D01*
X126245871Y-85992888D01*
X126372533Y-85852216D01*
X126467179Y-85688284D01*
X126510272Y-85555659D01*
X150660393Y-85555659D01*
X150683777Y-85688277D01*
X150690668Y-85727354D01*
X150759721Y-85887438D01*
X150759722Y-85887440D01*
X150759724Y-85887443D01*
X150814032Y-85960390D01*
X150863832Y-86027283D01*
X150997386Y-86139349D01*
X151153185Y-86217594D01*
X151322829Y-86257800D01*
X151322831Y-86257800D01*
X151453429Y-86257800D01*
X151453436Y-86257800D01*
X151583164Y-86242637D01*
X151746993Y-86183008D01*
X151892654Y-86087205D01*
X152012296Y-85960393D01*
X152099467Y-85809407D01*
X152149469Y-85642388D01*
X152159607Y-85468340D01*
X152129332Y-85296646D01*
X152060279Y-85136562D01*
X152056692Y-85131744D01*
X151956167Y-84996716D01*
X151822614Y-84884651D01*
X151822612Y-84884650D01*
X151666818Y-84806407D01*
X151666816Y-84806406D01*
X151666815Y-84806406D01*
X151497171Y-84766200D01*
X151366564Y-84766200D01*
X151253052Y-84779467D01*
X151236835Y-84781363D01*
X151236832Y-84781364D01*
X151073008Y-84840991D01*
X151073004Y-84840993D01*
X150927348Y-84936792D01*
X150927347Y-84936793D01*
X150807706Y-85063603D01*
X150807703Y-85063609D01*
X150720534Y-85214590D01*
X150670531Y-85381610D01*
X150670530Y-85381616D01*
X150660393Y-85555659D01*
X126510272Y-85555659D01*
X126525674Y-85508256D01*
X126545460Y-85320000D01*
X126525674Y-85131744D01*
X126467179Y-84951716D01*
X126372533Y-84787784D01*
X126245871Y-84647112D01*
X126245870Y-84647111D01*
X126097977Y-84539660D01*
X155740393Y-84539660D01*
X155770668Y-84711354D01*
X155839721Y-84871438D01*
X155839722Y-84871440D01*
X155839724Y-84871443D01*
X155894032Y-84944390D01*
X155943832Y-85011283D01*
X156077386Y-85123349D01*
X156233185Y-85201594D01*
X156402829Y-85241800D01*
X156402831Y-85241800D01*
X156533429Y-85241800D01*
X156533436Y-85241800D01*
X156663164Y-85226637D01*
X156826993Y-85167008D01*
X156972654Y-85071205D01*
X157092296Y-84944393D01*
X157179467Y-84793407D01*
X157229469Y-84626388D01*
X157239607Y-84452340D01*
X157209332Y-84280646D01*
X157140279Y-84120562D01*
X157130442Y-84107349D01*
X157036167Y-83980716D01*
X156902614Y-83868651D01*
X156902612Y-83868650D01*
X156746818Y-83790407D01*
X156746816Y-83790406D01*
X156746815Y-83790406D01*
X156577171Y-83750200D01*
X156446564Y-83750200D01*
X156333052Y-83763467D01*
X156316835Y-83765363D01*
X156316832Y-83765364D01*
X156153008Y-83824991D01*
X156153004Y-83824993D01*
X156007348Y-83920792D01*
X156007347Y-83920793D01*
X155887706Y-84047603D01*
X155887703Y-84047609D01*
X155800534Y-84198590D01*
X155750531Y-84365610D01*
X155750530Y-84365616D01*
X155740827Y-84532214D01*
X155740393Y-84539660D01*
X126097977Y-84539660D01*
X126092734Y-84535851D01*
X126092729Y-84535848D01*
X125919807Y-84458857D01*
X125919802Y-84458855D01*
X125774001Y-84427865D01*
X125734646Y-84419500D01*
X125545354Y-84419500D01*
X125512897Y-84426398D01*
X125360197Y-84458855D01*
X125360192Y-84458857D01*
X125187270Y-84535848D01*
X125187265Y-84535851D01*
X125034129Y-84647111D01*
X124907466Y-84787785D01*
X124812821Y-84951715D01*
X124812818Y-84951722D01*
X124754327Y-85131740D01*
X124754326Y-85131744D01*
X124734540Y-85320000D01*
X103741449Y-85320000D01*
X103741449Y-84000000D01*
X111904540Y-84000000D01*
X111924326Y-84188256D01*
X111924327Y-84188259D01*
X111982818Y-84368277D01*
X111982821Y-84368284D01*
X112077467Y-84532216D01*
X112084169Y-84539659D01*
X112204129Y-84672888D01*
X112357265Y-84784148D01*
X112357270Y-84784151D01*
X112530192Y-84861142D01*
X112530197Y-84861144D01*
X112715354Y-84900500D01*
X112715355Y-84900500D01*
X112904644Y-84900500D01*
X112904646Y-84900500D01*
X113089803Y-84861144D01*
X113262730Y-84784151D01*
X113415871Y-84672888D01*
X113542533Y-84532216D01*
X113637179Y-84368284D01*
X113695674Y-84188256D01*
X113715460Y-84000000D01*
X113695674Y-83811744D01*
X113637179Y-83631716D01*
X113574793Y-83523660D01*
X150660393Y-83523660D01*
X150690668Y-83695354D01*
X150759721Y-83855438D01*
X150759722Y-83855440D01*
X150759724Y-83855443D01*
X150814032Y-83928390D01*
X150863832Y-83995283D01*
X150997386Y-84107349D01*
X151153185Y-84185594D01*
X151322829Y-84225800D01*
X151322831Y-84225800D01*
X151453429Y-84225800D01*
X151453436Y-84225800D01*
X151583164Y-84210637D01*
X151746993Y-84151008D01*
X151892654Y-84055205D01*
X152012296Y-83928393D01*
X152099467Y-83777407D01*
X152149469Y-83610388D01*
X152159607Y-83436340D01*
X152129332Y-83264646D01*
X152102236Y-83201831D01*
X152093759Y-83132480D01*
X152124122Y-83069553D01*
X152183686Y-83033030D01*
X152253540Y-83034509D01*
X152266523Y-83039437D01*
X152360197Y-83081144D01*
X152545354Y-83120500D01*
X152545355Y-83120500D01*
X152734644Y-83120500D01*
X152734646Y-83120500D01*
X152919803Y-83081144D01*
X153092730Y-83004151D01*
X153245871Y-82892888D01*
X153372533Y-82752216D01*
X153460415Y-82600000D01*
X154314540Y-82600000D01*
X154334326Y-82788256D01*
X154334327Y-82788259D01*
X154392818Y-82968277D01*
X154392821Y-82968284D01*
X154487467Y-83132216D01*
X154532827Y-83182593D01*
X154614129Y-83272888D01*
X154767265Y-83384148D01*
X154767270Y-83384151D01*
X154940192Y-83461142D01*
X154940197Y-83461144D01*
X155125354Y-83500500D01*
X155125355Y-83500500D01*
X155314644Y-83500500D01*
X155314646Y-83500500D01*
X155499803Y-83461144D01*
X155672730Y-83384151D01*
X155825871Y-83272888D01*
X155952533Y-83132216D01*
X156047179Y-82968284D01*
X156105674Y-82788256D01*
X156125460Y-82600000D01*
X156105674Y-82411744D01*
X156047179Y-82231716D01*
X155952533Y-82067784D01*
X155825871Y-81927112D01*
X155825870Y-81927111D01*
X155672734Y-81815851D01*
X155672729Y-81815848D01*
X155499807Y-81738857D01*
X155499802Y-81738855D01*
X155354001Y-81707865D01*
X155314646Y-81699500D01*
X155125354Y-81699500D01*
X155092897Y-81706398D01*
X154940197Y-81738855D01*
X154940192Y-81738857D01*
X154767270Y-81815848D01*
X154767265Y-81815851D01*
X154614129Y-81927111D01*
X154487466Y-82067785D01*
X154392821Y-82231715D01*
X154392818Y-82231722D01*
X154383777Y-82259549D01*
X154334326Y-82411744D01*
X154314540Y-82600000D01*
X153460415Y-82600000D01*
X153467179Y-82588284D01*
X153525674Y-82408256D01*
X153545460Y-82220000D01*
X153525674Y-82031744D01*
X153467179Y-81851716D01*
X153372533Y-81687784D01*
X153245871Y-81547112D01*
X153245870Y-81547111D01*
X153092734Y-81435851D01*
X153092729Y-81435848D01*
X152919807Y-81358857D01*
X152919802Y-81358855D01*
X152774001Y-81327865D01*
X152734646Y-81319500D01*
X152545354Y-81319500D01*
X152512897Y-81326398D01*
X152360197Y-81358855D01*
X152360192Y-81358857D01*
X152187270Y-81435848D01*
X152187265Y-81435851D01*
X152034129Y-81547111D01*
X151907466Y-81687785D01*
X151812821Y-81851715D01*
X151812818Y-81851722D01*
X151754327Y-82031740D01*
X151754326Y-82031744D01*
X151734540Y-82220000D01*
X151754326Y-82408256D01*
X151754327Y-82408259D01*
X151812818Y-82588277D01*
X151812822Y-82588286D01*
X151817368Y-82596160D01*
X151833839Y-82664061D01*
X151810986Y-82730087D01*
X151756064Y-82773277D01*
X151686510Y-82779917D01*
X151667579Y-82774683D01*
X151666825Y-82774408D01*
X151573187Y-82752216D01*
X151497171Y-82734200D01*
X151366564Y-82734200D01*
X151253052Y-82747467D01*
X151236835Y-82749363D01*
X151236832Y-82749364D01*
X151073008Y-82808991D01*
X151073004Y-82808993D01*
X150927348Y-82904792D01*
X150927347Y-82904793D01*
X150807706Y-83031603D01*
X150807704Y-83031607D01*
X150806029Y-83034509D01*
X150720534Y-83182590D01*
X150670531Y-83349610D01*
X150670530Y-83349616D01*
X150661742Y-83500500D01*
X150660393Y-83523660D01*
X113574793Y-83523660D01*
X113542533Y-83467784D01*
X113415871Y-83327112D01*
X113415870Y-83327111D01*
X113262734Y-83215851D01*
X113262729Y-83215848D01*
X113089807Y-83138857D01*
X113089802Y-83138855D01*
X112928461Y-83104562D01*
X112904646Y-83099500D01*
X112715354Y-83099500D01*
X112691539Y-83104562D01*
X112530197Y-83138855D01*
X112530192Y-83138857D01*
X112357270Y-83215848D01*
X112357265Y-83215851D01*
X112204129Y-83327111D01*
X112077466Y-83467785D01*
X111982821Y-83631715D01*
X111982818Y-83631722D01*
X111924327Y-83811740D01*
X111924326Y-83811744D01*
X111904540Y-84000000D01*
X103741449Y-84000000D01*
X103741449Y-82670000D01*
X109149534Y-82670000D01*
X109169312Y-82820234D01*
X109169313Y-82820236D01*
X109204338Y-82904795D01*
X109227302Y-82960233D01*
X109319549Y-83080451D01*
X109439767Y-83172698D01*
X109579764Y-83230687D01*
X109692280Y-83245500D01*
X109692287Y-83245500D01*
X109767713Y-83245500D01*
X109767720Y-83245500D01*
X109880236Y-83230687D01*
X110020233Y-83172698D01*
X110140451Y-83080451D01*
X110232698Y-82960233D01*
X110290687Y-82820236D01*
X110310466Y-82670000D01*
X110290687Y-82519764D01*
X110232698Y-82379767D01*
X110140451Y-82259549D01*
X110020233Y-82167302D01*
X110020229Y-82167300D01*
X109956801Y-82141027D01*
X109880236Y-82109313D01*
X109866171Y-82107461D01*
X109767727Y-82094500D01*
X109767720Y-82094500D01*
X109692280Y-82094500D01*
X109692272Y-82094500D01*
X109579764Y-82109313D01*
X109579763Y-82109313D01*
X109439770Y-82167300D01*
X109439767Y-82167301D01*
X109439767Y-82167302D01*
X109355814Y-82231722D01*
X109319549Y-82259549D01*
X109227300Y-82379770D01*
X109169313Y-82519763D01*
X109169312Y-82519765D01*
X109149534Y-82669999D01*
X109149534Y-82670000D01*
X103741449Y-82670000D01*
X103741449Y-78755000D01*
X110939540Y-78755000D01*
X110959326Y-78943256D01*
X110959327Y-78943259D01*
X111017818Y-79123277D01*
X111017821Y-79123284D01*
X111112467Y-79287216D01*
X111196123Y-79380125D01*
X111227391Y-79414852D01*
X111257621Y-79477843D01*
X111248996Y-79547179D01*
X111242629Y-79559823D01*
X111157820Y-79706718D01*
X111157818Y-79706722D01*
X111099327Y-79886740D01*
X111099326Y-79886744D01*
X111079540Y-80075000D01*
X111099326Y-80263256D01*
X111099327Y-80263259D01*
X111157818Y-80443277D01*
X111157821Y-80443284D01*
X111252467Y-80607216D01*
X111379129Y-80747888D01*
X111532265Y-80859148D01*
X111532270Y-80859151D01*
X111705192Y-80936142D01*
X111705197Y-80936144D01*
X111890354Y-80975500D01*
X111890355Y-80975500D01*
X112079644Y-80975500D01*
X112079646Y-80975500D01*
X112264803Y-80936144D01*
X112437730Y-80859151D01*
X112590871Y-80747888D01*
X112717533Y-80607216D01*
X112812179Y-80443284D01*
X112870674Y-80263256D01*
X112890460Y-80075000D01*
X112870674Y-79886744D01*
X112812179Y-79706716D01*
X112717533Y-79542784D01*
X112602608Y-79415147D01*
X112572378Y-79352156D01*
X112581003Y-79282820D01*
X112587366Y-79270183D01*
X112672179Y-79123284D01*
X112730674Y-78943256D01*
X112750460Y-78755000D01*
X112730674Y-78566744D01*
X112672179Y-78386716D01*
X112600638Y-78262804D01*
X112584166Y-78194906D01*
X112607018Y-78128879D01*
X112615868Y-78117844D01*
X112698033Y-78026591D01*
X112792679Y-77862659D01*
X112851174Y-77682631D01*
X112870960Y-77494375D01*
X112866296Y-77450000D01*
X131474540Y-77450000D01*
X131494326Y-77638256D01*
X131494327Y-77638259D01*
X131552818Y-77818277D01*
X131552821Y-77818284D01*
X131647467Y-77982216D01*
X131734863Y-78079279D01*
X131774129Y-78122888D01*
X131927265Y-78234148D01*
X131927270Y-78234151D01*
X132100192Y-78311142D01*
X132100197Y-78311144D01*
X132285354Y-78350500D01*
X132285355Y-78350500D01*
X132474644Y-78350500D01*
X132474646Y-78350500D01*
X132659803Y-78311144D01*
X132832730Y-78234151D01*
X132985871Y-78122888D01*
X133025139Y-78079276D01*
X133084621Y-78042630D01*
X133154478Y-78043959D01*
X133200824Y-78070613D01*
X133333958Y-78191980D01*
X133333960Y-78191982D01*
X133383709Y-78222785D01*
X133507363Y-78299348D01*
X133697544Y-78373024D01*
X133898024Y-78410500D01*
X133898026Y-78410500D01*
X134101974Y-78410500D01*
X134101976Y-78410500D01*
X134302456Y-78373024D01*
X134492637Y-78299348D01*
X134666041Y-78191981D01*
X134816764Y-78054579D01*
X134939673Y-77891821D01*
X135030582Y-77709250D01*
X135086397Y-77513083D01*
X135105215Y-77310000D01*
X135086397Y-77106917D01*
X135030582Y-76910750D01*
X134939673Y-76728179D01*
X134844372Y-76601980D01*
X134816762Y-76565418D01*
X134666041Y-76428019D01*
X134666039Y-76428017D01*
X134492642Y-76320655D01*
X134492635Y-76320651D01*
X134397546Y-76283814D01*
X134302456Y-76246976D01*
X134101976Y-76209500D01*
X133898024Y-76209500D01*
X133697544Y-76246976D01*
X133697541Y-76246976D01*
X133697541Y-76246977D01*
X133507364Y-76320651D01*
X133507357Y-76320655D01*
X133333960Y-76428017D01*
X133333958Y-76428019D01*
X133183237Y-76565419D01*
X133083445Y-76697564D01*
X133027335Y-76739200D01*
X132957623Y-76743891D01*
X132911606Y-76723155D01*
X132832734Y-76665851D01*
X132832729Y-76665848D01*
X132659807Y-76588857D01*
X132659802Y-76588855D01*
X132514001Y-76557865D01*
X132474646Y-76549500D01*
X132285354Y-76549500D01*
X132252897Y-76556398D01*
X132100197Y-76588855D01*
X132100192Y-76588857D01*
X131927270Y-76665848D01*
X131927265Y-76665851D01*
X131774129Y-76777111D01*
X131647466Y-76917785D01*
X131552821Y-77081715D01*
X131552818Y-77081722D01*
X131494327Y-77261740D01*
X131494326Y-77261744D01*
X131474540Y-77450000D01*
X112866296Y-77450000D01*
X112851174Y-77306119D01*
X112792679Y-77126091D01*
X112698033Y-76962159D01*
X112571371Y-76821487D01*
X112570013Y-76820500D01*
X112418234Y-76710226D01*
X112418229Y-76710223D01*
X112245307Y-76633232D01*
X112245302Y-76633230D01*
X112098277Y-76601980D01*
X112060146Y-76593875D01*
X111870854Y-76593875D01*
X111838397Y-76600773D01*
X111685697Y-76633230D01*
X111685692Y-76633232D01*
X111512770Y-76710223D01*
X111512765Y-76710226D01*
X111359629Y-76821486D01*
X111232966Y-76962160D01*
X111138321Y-77126090D01*
X111138318Y-77126097D01*
X111094244Y-77261744D01*
X111079826Y-77306119D01*
X111060040Y-77494375D01*
X111079826Y-77682631D01*
X111079827Y-77682634D01*
X111138318Y-77862652D01*
X111138321Y-77862659D01*
X111200389Y-77970165D01*
X111209860Y-77986568D01*
X111226333Y-78054468D01*
X111203480Y-78120495D01*
X111194623Y-78131540D01*
X111112466Y-78222785D01*
X111017821Y-78386715D01*
X111017818Y-78386722D01*
X110959327Y-78566740D01*
X110959326Y-78566744D01*
X110939540Y-78755000D01*
X103741449Y-78755000D01*
X103741449Y-74930000D01*
X118054785Y-74930000D01*
X118073602Y-75133082D01*
X118129417Y-75329247D01*
X118129422Y-75329260D01*
X118220327Y-75511821D01*
X118343237Y-75674581D01*
X118493958Y-75811980D01*
X118493960Y-75811982D01*
X118593141Y-75873392D01*
X118667363Y-75919348D01*
X118857544Y-75993024D01*
X119058024Y-76030500D01*
X119058026Y-76030500D01*
X119261974Y-76030500D01*
X119261976Y-76030500D01*
X119462456Y-75993024D01*
X119652637Y-75919348D01*
X119826041Y-75811981D01*
X119976764Y-75674579D01*
X120099673Y-75511821D01*
X120190582Y-75329250D01*
X120210286Y-75260000D01*
X148024540Y-75260000D01*
X148044326Y-75448256D01*
X148044327Y-75448259D01*
X148102818Y-75628277D01*
X148102821Y-75628284D01*
X148197467Y-75792216D01*
X148315300Y-75923082D01*
X148324129Y-75932888D01*
X148477265Y-76044148D01*
X148477270Y-76044151D01*
X148650192Y-76121142D01*
X148650197Y-76121144D01*
X148835354Y-76160500D01*
X148835355Y-76160500D01*
X149024644Y-76160500D01*
X149024646Y-76160500D01*
X149209803Y-76121144D01*
X149382730Y-76044151D01*
X149535871Y-75932888D01*
X149535875Y-75932883D01*
X149539728Y-75929415D01*
X149602719Y-75899184D01*
X149672055Y-75907807D01*
X149725721Y-75952548D01*
X149741968Y-75987628D01*
X149779417Y-76119247D01*
X149779422Y-76119260D01*
X149870327Y-76301821D01*
X149993237Y-76464581D01*
X150143958Y-76601980D01*
X150143960Y-76601982D01*
X150194431Y-76633232D01*
X150317363Y-76709348D01*
X150507544Y-76783024D01*
X150708024Y-76820500D01*
X150708026Y-76820500D01*
X150911974Y-76820500D01*
X150911976Y-76820500D01*
X151112456Y-76783024D01*
X151302637Y-76709348D01*
X151476041Y-76601981D01*
X151626764Y-76464579D01*
X151749673Y-76301821D01*
X151840582Y-76119250D01*
X151896397Y-75923083D01*
X151915215Y-75720000D01*
X151896397Y-75516917D01*
X151840582Y-75320750D01*
X151749673Y-75138179D01*
X151664408Y-75025270D01*
X151626762Y-74975418D01*
X151476041Y-74838019D01*
X151476039Y-74838017D01*
X151302642Y-74730655D01*
X151302635Y-74730651D01*
X151207546Y-74693814D01*
X151112456Y-74656976D01*
X150911976Y-74619500D01*
X150708024Y-74619500D01*
X150507544Y-74656976D01*
X150507541Y-74656976D01*
X150507541Y-74656977D01*
X150317364Y-74730651D01*
X150317357Y-74730655D01*
X150143960Y-74838017D01*
X150143958Y-74838019D01*
X149993237Y-74975418D01*
X149990574Y-74978946D01*
X149934463Y-75020580D01*
X149864751Y-75025270D01*
X149803570Y-74991525D01*
X149773691Y-74942534D01*
X149757181Y-74891721D01*
X149757178Y-74891715D01*
X149726177Y-74838019D01*
X149662533Y-74727784D01*
X149535871Y-74587112D01*
X149535870Y-74587111D01*
X149382734Y-74475851D01*
X149382729Y-74475848D01*
X149209807Y-74398857D01*
X149209802Y-74398855D01*
X149064001Y-74367865D01*
X149024646Y-74359500D01*
X148835354Y-74359500D01*
X148802897Y-74366398D01*
X148650197Y-74398855D01*
X148650192Y-74398857D01*
X148477270Y-74475848D01*
X148477265Y-74475851D01*
X148324129Y-74587111D01*
X148197466Y-74727785D01*
X148102821Y-74891715D01*
X148102818Y-74891722D01*
X148060950Y-75020580D01*
X148044326Y-75071744D01*
X148024540Y-75260000D01*
X120210286Y-75260000D01*
X120246397Y-75133083D01*
X120265215Y-74930000D01*
X120261667Y-74891715D01*
X120246397Y-74726917D01*
X120215834Y-74619500D01*
X120190582Y-74530750D01*
X120099673Y-74348179D01*
X119976764Y-74185421D01*
X119976762Y-74185418D01*
X119826041Y-74048019D01*
X119826039Y-74048017D01*
X119652642Y-73940655D01*
X119652635Y-73940651D01*
X119557546Y-73903814D01*
X119462456Y-73866976D01*
X119261976Y-73829500D01*
X119058024Y-73829500D01*
X118857544Y-73866976D01*
X118857541Y-73866976D01*
X118857541Y-73866977D01*
X118667364Y-73940651D01*
X118667357Y-73940655D01*
X118493960Y-74048017D01*
X118493958Y-74048019D01*
X118343237Y-74185418D01*
X118220327Y-74348178D01*
X118129422Y-74530739D01*
X118129417Y-74530752D01*
X118073602Y-74726917D01*
X118054785Y-74929999D01*
X118054785Y-74930000D01*
X103741449Y-74930000D01*
X103741449Y-73300000D01*
X131584540Y-73300000D01*
X131604326Y-73488256D01*
X131604327Y-73488259D01*
X131662818Y-73668277D01*
X131662821Y-73668284D01*
X131757467Y-73832216D01*
X131855106Y-73940655D01*
X131884129Y-73972888D01*
X132037265Y-74084148D01*
X132037270Y-74084151D01*
X132210192Y-74161142D01*
X132210197Y-74161144D01*
X132395354Y-74200500D01*
X132395355Y-74200500D01*
X132584644Y-74200500D01*
X132584646Y-74200500D01*
X132769803Y-74161144D01*
X132942730Y-74084151D01*
X133095871Y-73972888D01*
X133222533Y-73832216D01*
X133317179Y-73668284D01*
X133375674Y-73488256D01*
X133395460Y-73300000D01*
X133375674Y-73111744D01*
X133358861Y-73060000D01*
X142114540Y-73060000D01*
X142134326Y-73248256D01*
X142134327Y-73248259D01*
X142192818Y-73428277D01*
X142192821Y-73428284D01*
X142287467Y-73592216D01*
X142355953Y-73668277D01*
X142414129Y-73732888D01*
X142567265Y-73844148D01*
X142567270Y-73844151D01*
X142740192Y-73921142D01*
X142740197Y-73921144D01*
X142925354Y-73960500D01*
X142925355Y-73960500D01*
X143114644Y-73960500D01*
X143114646Y-73960500D01*
X143299803Y-73921144D01*
X143472730Y-73844151D01*
X143625871Y-73732888D01*
X143752533Y-73592216D01*
X143847179Y-73428284D01*
X143905674Y-73248256D01*
X143922307Y-73090000D01*
X144404540Y-73090000D01*
X144424326Y-73278256D01*
X144424327Y-73278259D01*
X144482818Y-73458277D01*
X144482821Y-73458284D01*
X144577467Y-73622216D01*
X144618941Y-73668277D01*
X144704129Y-73762888D01*
X144857265Y-73874148D01*
X144857270Y-73874151D01*
X145030192Y-73951142D01*
X145030197Y-73951144D01*
X145215354Y-73990500D01*
X145215355Y-73990500D01*
X145404644Y-73990500D01*
X145404646Y-73990500D01*
X145589803Y-73951144D01*
X145762730Y-73874151D01*
X145915871Y-73762888D01*
X146042533Y-73622216D01*
X146137179Y-73458284D01*
X146195674Y-73278256D01*
X146215460Y-73090000D01*
X146195674Y-72901744D01*
X146137179Y-72721716D01*
X146042533Y-72557784D01*
X145915871Y-72417112D01*
X145915870Y-72417111D01*
X145762734Y-72305851D01*
X145762729Y-72305848D01*
X145589807Y-72228857D01*
X145589802Y-72228855D01*
X145444001Y-72197865D01*
X145404646Y-72189500D01*
X145215354Y-72189500D01*
X145182897Y-72196398D01*
X145030197Y-72228855D01*
X145030192Y-72228857D01*
X144857270Y-72305848D01*
X144857265Y-72305851D01*
X144704129Y-72417111D01*
X144577466Y-72557785D01*
X144482821Y-72721715D01*
X144482818Y-72721722D01*
X144424327Y-72901740D01*
X144424326Y-72901744D01*
X144404540Y-73090000D01*
X143922307Y-73090000D01*
X143925460Y-73060000D01*
X143905674Y-72871744D01*
X143847179Y-72691716D01*
X143752533Y-72527784D01*
X143625871Y-72387112D01*
X143625870Y-72387111D01*
X143472734Y-72275851D01*
X143472729Y-72275848D01*
X143299807Y-72198857D01*
X143299802Y-72198855D01*
X143154001Y-72167865D01*
X143114646Y-72159500D01*
X142925354Y-72159500D01*
X142892897Y-72166398D01*
X142740197Y-72198855D01*
X142740192Y-72198857D01*
X142567270Y-72275848D01*
X142567265Y-72275851D01*
X142414129Y-72387111D01*
X142287466Y-72527785D01*
X142192821Y-72691715D01*
X142192818Y-72691722D01*
X142158092Y-72798599D01*
X142134326Y-72871744D01*
X142114540Y-73060000D01*
X133358861Y-73060000D01*
X133317179Y-72931716D01*
X133279525Y-72866498D01*
X133263055Y-72798599D01*
X133285907Y-72732572D01*
X133340829Y-72689382D01*
X133386914Y-72680500D01*
X133434644Y-72680500D01*
X133434646Y-72680500D01*
X133619803Y-72641144D01*
X133792730Y-72564151D01*
X133945871Y-72452888D01*
X134072533Y-72312216D01*
X134167179Y-72148284D01*
X134225674Y-71968256D01*
X134245460Y-71780000D01*
X134225674Y-71591744D01*
X134167179Y-71411716D01*
X134072533Y-71247784D01*
X134011500Y-71180000D01*
X140474540Y-71180000D01*
X140494326Y-71368256D01*
X140494327Y-71368259D01*
X140552818Y-71548277D01*
X140552821Y-71548284D01*
X140647467Y-71712216D01*
X140774129Y-71852888D01*
X140927265Y-71964148D01*
X140927270Y-71964151D01*
X141100192Y-72041142D01*
X141100197Y-72041144D01*
X141285354Y-72080500D01*
X141285355Y-72080500D01*
X141474644Y-72080500D01*
X141474646Y-72080500D01*
X141659803Y-72041144D01*
X141832730Y-71964151D01*
X141985871Y-71852888D01*
X142112533Y-71712216D01*
X142207179Y-71548284D01*
X142265674Y-71368256D01*
X142285460Y-71180000D01*
X142265674Y-70991744D01*
X142207179Y-70811716D01*
X142112533Y-70647784D01*
X141985871Y-70507112D01*
X141985870Y-70507111D01*
X141832734Y-70395851D01*
X141832729Y-70395848D01*
X141659807Y-70318857D01*
X141659802Y-70318855D01*
X141513619Y-70287784D01*
X141474646Y-70279500D01*
X141285354Y-70279500D01*
X141252897Y-70286398D01*
X141100197Y-70318855D01*
X141100192Y-70318857D01*
X140927270Y-70395848D01*
X140927265Y-70395851D01*
X140774129Y-70507111D01*
X140647466Y-70647785D01*
X140552821Y-70811715D01*
X140552818Y-70811722D01*
X140494327Y-70991740D01*
X140494326Y-70991744D01*
X140474540Y-71180000D01*
X134011500Y-71180000D01*
X133945871Y-71107112D01*
X133945870Y-71107111D01*
X133792734Y-70995851D01*
X133792729Y-70995848D01*
X133619807Y-70918857D01*
X133619802Y-70918855D01*
X133474001Y-70887865D01*
X133434646Y-70879500D01*
X133245354Y-70879500D01*
X133212897Y-70886398D01*
X133060197Y-70918855D01*
X133060192Y-70918857D01*
X132887270Y-70995848D01*
X132887265Y-70995851D01*
X132734129Y-71107111D01*
X132607466Y-71247785D01*
X132512821Y-71411715D01*
X132512818Y-71411722D01*
X132486446Y-71492888D01*
X132454326Y-71591744D01*
X132434540Y-71780000D01*
X132454326Y-71968256D01*
X132454327Y-71968259D01*
X132512818Y-72148277D01*
X132512820Y-72148281D01*
X132512821Y-72148284D01*
X132519297Y-72159500D01*
X132550474Y-72213501D01*
X132566945Y-72281401D01*
X132544093Y-72347428D01*
X132489171Y-72390618D01*
X132443086Y-72399500D01*
X132395354Y-72399500D01*
X132362897Y-72406398D01*
X132210197Y-72438855D01*
X132210192Y-72438857D01*
X132037270Y-72515848D01*
X132037265Y-72515851D01*
X131884129Y-72627111D01*
X131757466Y-72767785D01*
X131662821Y-72931715D01*
X131662818Y-72931722D01*
X131611391Y-73090000D01*
X131604326Y-73111744D01*
X131584540Y-73300000D01*
X103741449Y-73300000D01*
X103741449Y-69200000D01*
X127634540Y-69200000D01*
X127654326Y-69388256D01*
X127654327Y-69388259D01*
X127712818Y-69568277D01*
X127712821Y-69568284D01*
X127807467Y-69732216D01*
X127934129Y-69872888D01*
X128087265Y-69984148D01*
X128087270Y-69984151D01*
X128240864Y-70052537D01*
X128294101Y-70097787D01*
X128314422Y-70164637D01*
X128295376Y-70231860D01*
X128282579Y-70248787D01*
X128247466Y-70287784D01*
X128152821Y-70451715D01*
X128152818Y-70451722D01*
X128094327Y-70631740D01*
X128094326Y-70631744D01*
X128074540Y-70820000D01*
X128094326Y-71008256D01*
X128094327Y-71008259D01*
X128152818Y-71188277D01*
X128152821Y-71188284D01*
X128247467Y-71352216D01*
X128301047Y-71411722D01*
X128374129Y-71492888D01*
X128527265Y-71604148D01*
X128527270Y-71604151D01*
X128700192Y-71681142D01*
X128700197Y-71681144D01*
X128885354Y-71720500D01*
X128885355Y-71720500D01*
X129074644Y-71720500D01*
X129074646Y-71720500D01*
X129259803Y-71681144D01*
X129432730Y-71604151D01*
X129585871Y-71492888D01*
X129712533Y-71352216D01*
X129807179Y-71188284D01*
X129865674Y-71008256D01*
X129885460Y-70820000D01*
X129865674Y-70631744D01*
X129807179Y-70451716D01*
X129712533Y-70287784D01*
X129585871Y-70147112D01*
X129585870Y-70147111D01*
X129432734Y-70035851D01*
X129432729Y-70035848D01*
X129279134Y-69967462D01*
X129225897Y-69922212D01*
X129205576Y-69855362D01*
X129224622Y-69788139D01*
X129237414Y-69771219D01*
X129272533Y-69732216D01*
X129367179Y-69568284D01*
X129425674Y-69388256D01*
X129445460Y-69200000D01*
X129425674Y-69011744D01*
X129367179Y-68831716D01*
X129272533Y-68667784D01*
X129145871Y-68527112D01*
X129145870Y-68527111D01*
X128992734Y-68415851D01*
X128992729Y-68415848D01*
X128819807Y-68338857D01*
X128819802Y-68338855D01*
X128674001Y-68307865D01*
X128634646Y-68299500D01*
X128445354Y-68299500D01*
X128412897Y-68306398D01*
X128260197Y-68338855D01*
X128260192Y-68338857D01*
X128087270Y-68415848D01*
X128087265Y-68415851D01*
X127934129Y-68527111D01*
X127807466Y-68667785D01*
X127712821Y-68831715D01*
X127712818Y-68831722D01*
X127654327Y-69011740D01*
X127654326Y-69011744D01*
X127634540Y-69200000D01*
X103741449Y-69200000D01*
X103741449Y-67170000D01*
X123664540Y-67170000D01*
X123684326Y-67358256D01*
X123684327Y-67358259D01*
X123742818Y-67538277D01*
X123742821Y-67538284D01*
X123837467Y-67702216D01*
X123964129Y-67842888D01*
X124117265Y-67954148D01*
X124117270Y-67954151D01*
X124290192Y-68031142D01*
X124290197Y-68031144D01*
X124475354Y-68070500D01*
X124475355Y-68070500D01*
X124664644Y-68070500D01*
X124664646Y-68070500D01*
X124849803Y-68031144D01*
X125022730Y-67954151D01*
X125175871Y-67842888D01*
X125302533Y-67702216D01*
X125397179Y-67538284D01*
X125455674Y-67358256D01*
X125475460Y-67170000D01*
X125455674Y-66981744D01*
X125397179Y-66801716D01*
X125302533Y-66637784D01*
X125175871Y-66497112D01*
X125175870Y-66497111D01*
X125022734Y-66385851D01*
X125022729Y-66385848D01*
X124849807Y-66308857D01*
X124849802Y-66308855D01*
X124704001Y-66277865D01*
X124664646Y-66269500D01*
X124475354Y-66269500D01*
X124442897Y-66276398D01*
X124290197Y-66308855D01*
X124290192Y-66308857D01*
X124117270Y-66385848D01*
X124117265Y-66385851D01*
X123964129Y-66497111D01*
X123837466Y-66637785D01*
X123742821Y-66801715D01*
X123742818Y-66801722D01*
X123684327Y-66981740D01*
X123684326Y-66981744D01*
X123664540Y-67170000D01*
X103741449Y-67170000D01*
X103741449Y-65159988D01*
X116169500Y-65159988D01*
X116184379Y-65339559D01*
X116243389Y-65572589D01*
X116339951Y-65792729D01*
X116471427Y-65993966D01*
X116471429Y-65993969D01*
X116634236Y-66170825D01*
X116634239Y-66170827D01*
X116634242Y-66170830D01*
X116823924Y-66318466D01*
X116823930Y-66318470D01*
X116823933Y-66318472D01*
X117035344Y-66432882D01*
X117035347Y-66432883D01*
X117262699Y-66510933D01*
X117262701Y-66510933D01*
X117262703Y-66510934D01*
X117499808Y-66550500D01*
X117499809Y-66550500D01*
X117740191Y-66550500D01*
X117740192Y-66550500D01*
X117977297Y-66510934D01*
X118204656Y-66432882D01*
X118416067Y-66318472D01*
X118428421Y-66308857D01*
X118479768Y-66268891D01*
X118605764Y-66170825D01*
X118768571Y-65993969D01*
X118900049Y-65792728D01*
X118996610Y-65572591D01*
X119055620Y-65339563D01*
X119070500Y-65159990D01*
X119070500Y-64680000D01*
X129964540Y-64680000D01*
X129984326Y-64868256D01*
X129984327Y-64868259D01*
X130042818Y-65048277D01*
X130042821Y-65048284D01*
X130137467Y-65212216D01*
X130252131Y-65339563D01*
X130264129Y-65352888D01*
X130417265Y-65464148D01*
X130417270Y-65464151D01*
X130590192Y-65541142D01*
X130590197Y-65541144D01*
X130775354Y-65580500D01*
X130775355Y-65580500D01*
X130964644Y-65580500D01*
X130964646Y-65580500D01*
X131149803Y-65541144D01*
X131322730Y-65464151D01*
X131475871Y-65352888D01*
X131602533Y-65212216D01*
X131697179Y-65048284D01*
X131755674Y-64868256D01*
X131775460Y-64680000D01*
X131755674Y-64491744D01*
X131697179Y-64311716D01*
X131602533Y-64147784D01*
X131475871Y-64007112D01*
X131464914Y-63999151D01*
X131322734Y-63895851D01*
X131322729Y-63895848D01*
X131149807Y-63818857D01*
X131149802Y-63818855D01*
X131004001Y-63787865D01*
X130964646Y-63779500D01*
X130775354Y-63779500D01*
X130742897Y-63786398D01*
X130590197Y-63818855D01*
X130590192Y-63818857D01*
X130417270Y-63895848D01*
X130417265Y-63895851D01*
X130264129Y-64007111D01*
X130137466Y-64147785D01*
X130042821Y-64311715D01*
X130042818Y-64311722D01*
X129985450Y-64488284D01*
X129984326Y-64491744D01*
X129964540Y-64680000D01*
X119070500Y-64680000D01*
X119070500Y-63215000D01*
X125699540Y-63215000D01*
X125719326Y-63403256D01*
X125719327Y-63403259D01*
X125777818Y-63583277D01*
X125777821Y-63583284D01*
X125872467Y-63747216D01*
X125936973Y-63818857D01*
X125999129Y-63887888D01*
X126152265Y-63999148D01*
X126152270Y-63999151D01*
X126325192Y-64076142D01*
X126325197Y-64076144D01*
X126510354Y-64115500D01*
X126510355Y-64115500D01*
X126699644Y-64115500D01*
X126699646Y-64115500D01*
X126884803Y-64076144D01*
X127057730Y-63999151D01*
X127210871Y-63887888D01*
X127337533Y-63747216D01*
X127432179Y-63583284D01*
X127490674Y-63403256D01*
X127510460Y-63215000D01*
X127490674Y-63026744D01*
X127485234Y-63010000D01*
X138274540Y-63010000D01*
X138294326Y-63198256D01*
X138294327Y-63198259D01*
X138352818Y-63378277D01*
X138352821Y-63378284D01*
X138447467Y-63542216D01*
X138484439Y-63583277D01*
X138485775Y-63584761D01*
X138516005Y-63647752D01*
X138507380Y-63717087D01*
X138501013Y-63729732D01*
X138488320Y-63751716D01*
X138441489Y-63895848D01*
X138429826Y-63931744D01*
X138410040Y-64120000D01*
X138429826Y-64308256D01*
X138429827Y-64308259D01*
X138488318Y-64488277D01*
X138488321Y-64488284D01*
X138582967Y-64652216D01*
X138699894Y-64782076D01*
X138709629Y-64792888D01*
X138862765Y-64904148D01*
X138862770Y-64904151D01*
X139035692Y-64981142D01*
X139035697Y-64981144D01*
X139220854Y-65020500D01*
X139220855Y-65020500D01*
X139410144Y-65020500D01*
X139410146Y-65020500D01*
X139595303Y-64981144D01*
X139768230Y-64904151D01*
X139921371Y-64792888D01*
X139980152Y-64727605D01*
X140039636Y-64690958D01*
X140109493Y-64692287D01*
X140167541Y-64731173D01*
X140192276Y-64782089D01*
X140192318Y-64782076D01*
X140192414Y-64782374D01*
X140193589Y-64784791D01*
X140194325Y-64788253D01*
X140252818Y-64968277D01*
X140252821Y-64968284D01*
X140347467Y-65132216D01*
X140419498Y-65212214D01*
X140474129Y-65272888D01*
X140627265Y-65384148D01*
X140627270Y-65384151D01*
X140800192Y-65461142D01*
X140800197Y-65461144D01*
X140985354Y-65500500D01*
X140985355Y-65500500D01*
X141174644Y-65500500D01*
X141174646Y-65500500D01*
X141359803Y-65461144D01*
X141532730Y-65384151D01*
X141685871Y-65272888D01*
X141812533Y-65132216D01*
X141907179Y-64968284D01*
X141965674Y-64788256D01*
X141985460Y-64600000D01*
X141965674Y-64411744D01*
X141907179Y-64231716D01*
X141812533Y-64067784D01*
X141685871Y-63927112D01*
X141642844Y-63895851D01*
X141532734Y-63815851D01*
X141532729Y-63815848D01*
X141359807Y-63738857D01*
X141359802Y-63738855D01*
X141214001Y-63707865D01*
X141174646Y-63699500D01*
X140985354Y-63699500D01*
X140952897Y-63706398D01*
X140800197Y-63738855D01*
X140800192Y-63738857D01*
X140627270Y-63815848D01*
X140627265Y-63815851D01*
X140474129Y-63927111D01*
X140474128Y-63927112D01*
X140415348Y-63992394D01*
X140355862Y-64029042D01*
X140286005Y-64027711D01*
X140227957Y-63988824D01*
X140203224Y-63937910D01*
X140203182Y-63937924D01*
X140203081Y-63937614D01*
X140201908Y-63935199D01*
X140201173Y-63931741D01*
X140142681Y-63751722D01*
X140142680Y-63751721D01*
X140142679Y-63751716D01*
X140068300Y-63622888D01*
X140048035Y-63587787D01*
X140048034Y-63587786D01*
X140048033Y-63587784D01*
X140009722Y-63545236D01*
X139979494Y-63482247D01*
X139988119Y-63412912D01*
X139994480Y-63400278D01*
X140007179Y-63378284D01*
X140065674Y-63198256D01*
X140085460Y-63010000D01*
X140079154Y-62950000D01*
X146734540Y-62950000D01*
X146754326Y-63138256D01*
X146754327Y-63138259D01*
X146812818Y-63318277D01*
X146812821Y-63318284D01*
X146907467Y-63482216D01*
X146999799Y-63584761D01*
X147034129Y-63622888D01*
X147187265Y-63734148D01*
X147187270Y-63734151D01*
X147360192Y-63811142D01*
X147360197Y-63811144D01*
X147545354Y-63850500D01*
X147545355Y-63850500D01*
X147734644Y-63850500D01*
X147734646Y-63850500D01*
X147919803Y-63811144D01*
X148092730Y-63734151D01*
X148202117Y-63654676D01*
X148267920Y-63631198D01*
X148335974Y-63647023D01*
X148347871Y-63654668D01*
X148451188Y-63729732D01*
X148457270Y-63734151D01*
X148630192Y-63811142D01*
X148630197Y-63811144D01*
X148815354Y-63850500D01*
X148815355Y-63850500D01*
X149004644Y-63850500D01*
X149004646Y-63850500D01*
X149189803Y-63811144D01*
X149362730Y-63734151D01*
X149515871Y-63622888D01*
X149642533Y-63482216D01*
X149737179Y-63318284D01*
X149795674Y-63138256D01*
X149815460Y-62950000D01*
X149795674Y-62761744D01*
X149737179Y-62581716D01*
X149642533Y-62417784D01*
X149515871Y-62277112D01*
X149504432Y-62268801D01*
X149362734Y-62165851D01*
X149362729Y-62165848D01*
X149189807Y-62088857D01*
X149189802Y-62088855D01*
X149044001Y-62057865D01*
X149004646Y-62049500D01*
X148815354Y-62049500D01*
X148782897Y-62056398D01*
X148630197Y-62088855D01*
X148630192Y-62088857D01*
X148457270Y-62165848D01*
X148457265Y-62165851D01*
X148347885Y-62245321D01*
X148282079Y-62268801D01*
X148214025Y-62252975D01*
X148202115Y-62245321D01*
X148092734Y-62165851D01*
X148092729Y-62165848D01*
X147919807Y-62088857D01*
X147919802Y-62088855D01*
X147774001Y-62057865D01*
X147734646Y-62049500D01*
X147545354Y-62049500D01*
X147512897Y-62056398D01*
X147360197Y-62088855D01*
X147360192Y-62088857D01*
X147187270Y-62165848D01*
X147187265Y-62165851D01*
X147034129Y-62277111D01*
X146907466Y-62417785D01*
X146812821Y-62581715D01*
X146812818Y-62581722D01*
X146757979Y-62750500D01*
X146754326Y-62761744D01*
X146734540Y-62950000D01*
X140079154Y-62950000D01*
X140065674Y-62821744D01*
X140007179Y-62641716D01*
X139912533Y-62477784D01*
X139785871Y-62337112D01*
X139785870Y-62337111D01*
X139632734Y-62225851D01*
X139632729Y-62225848D01*
X139459807Y-62148857D01*
X139459802Y-62148855D01*
X139314001Y-62117865D01*
X139274646Y-62109500D01*
X139085354Y-62109500D01*
X139052897Y-62116398D01*
X138900197Y-62148855D01*
X138900192Y-62148857D01*
X138727270Y-62225848D01*
X138727265Y-62225851D01*
X138574129Y-62337111D01*
X138447466Y-62477785D01*
X138352821Y-62641715D01*
X138352818Y-62641722D01*
X138313821Y-62761744D01*
X138294326Y-62821744D01*
X138274540Y-63010000D01*
X127485234Y-63010000D01*
X127432179Y-62846716D01*
X127337533Y-62682784D01*
X127333715Y-62677529D01*
X127335010Y-62676587D01*
X127308272Y-62620864D01*
X127316901Y-62551529D01*
X127357768Y-62500571D01*
X127395871Y-62472888D01*
X127522533Y-62332216D01*
X127617179Y-62168284D01*
X127675674Y-61988256D01*
X127690205Y-61850000D01*
X142814540Y-61850000D01*
X142834326Y-62038256D01*
X142834327Y-62038259D01*
X142892818Y-62218277D01*
X142892821Y-62218284D01*
X142987467Y-62382216D01*
X143100068Y-62507272D01*
X143114129Y-62522888D01*
X143267265Y-62634148D01*
X143267270Y-62634151D01*
X143440192Y-62711142D01*
X143440197Y-62711144D01*
X143625354Y-62750500D01*
X143625355Y-62750500D01*
X143814644Y-62750500D01*
X143814646Y-62750500D01*
X143999803Y-62711144D01*
X144172730Y-62634151D01*
X144325871Y-62522888D01*
X144452533Y-62382216D01*
X144547179Y-62218284D01*
X144605674Y-62038256D01*
X144625460Y-61850000D01*
X144605674Y-61661744D01*
X144547179Y-61481716D01*
X144452533Y-61317784D01*
X144325871Y-61177112D01*
X144257052Y-61127112D01*
X144172734Y-61065851D01*
X144172729Y-61065848D01*
X143999807Y-60988857D01*
X143999802Y-60988855D01*
X143854001Y-60957865D01*
X143814646Y-60949500D01*
X143625354Y-60949500D01*
X143592897Y-60956398D01*
X143440197Y-60988855D01*
X143440192Y-60988857D01*
X143267270Y-61065848D01*
X143267265Y-61065851D01*
X143114129Y-61177111D01*
X142987466Y-61317785D01*
X142892821Y-61481715D01*
X142892818Y-61481722D01*
X142850573Y-61611740D01*
X142834326Y-61661744D01*
X142814540Y-61850000D01*
X127690205Y-61850000D01*
X127695460Y-61800000D01*
X127675674Y-61611744D01*
X127617179Y-61431716D01*
X127522533Y-61267784D01*
X127395871Y-61127112D01*
X127383682Y-61118256D01*
X127242734Y-61015851D01*
X127242729Y-61015848D01*
X127069807Y-60938857D01*
X127069802Y-60938855D01*
X127028141Y-60930000D01*
X130734540Y-60930000D01*
X130754326Y-61118256D01*
X130754327Y-61118259D01*
X130812818Y-61298277D01*
X130812821Y-61298284D01*
X130907467Y-61462216D01*
X131034129Y-61602888D01*
X131187265Y-61714148D01*
X131187270Y-61714151D01*
X131360192Y-61791142D01*
X131360197Y-61791144D01*
X131545354Y-61830500D01*
X131545355Y-61830500D01*
X131734644Y-61830500D01*
X131734646Y-61830500D01*
X131919803Y-61791144D01*
X132092730Y-61714151D01*
X132245871Y-61602888D01*
X132372533Y-61462216D01*
X132467179Y-61298284D01*
X132525674Y-61118256D01*
X132545460Y-60930000D01*
X132525674Y-60741744D01*
X132467179Y-60561716D01*
X132372533Y-60397784D01*
X132245871Y-60257112D01*
X132245870Y-60257111D01*
X132092734Y-60145851D01*
X132092729Y-60145848D01*
X131919807Y-60068857D01*
X131919802Y-60068855D01*
X131774001Y-60037865D01*
X131734646Y-60029500D01*
X131545354Y-60029500D01*
X131512897Y-60036398D01*
X131360197Y-60068855D01*
X131360192Y-60068857D01*
X131187270Y-60145848D01*
X131187265Y-60145851D01*
X131034129Y-60257111D01*
X130907466Y-60397785D01*
X130812821Y-60561715D01*
X130812818Y-60561722D01*
X130754327Y-60741740D01*
X130754326Y-60741744D01*
X130734540Y-60930000D01*
X127028141Y-60930000D01*
X126924001Y-60907865D01*
X126884646Y-60899500D01*
X126695354Y-60899500D01*
X126662897Y-60906398D01*
X126510197Y-60938855D01*
X126510192Y-60938857D01*
X126337270Y-61015848D01*
X126337265Y-61015851D01*
X126184129Y-61127111D01*
X126057466Y-61267785D01*
X125962821Y-61431715D01*
X125962818Y-61431722D01*
X125904327Y-61611740D01*
X125904326Y-61611744D01*
X125884540Y-61800000D01*
X125904326Y-61988256D01*
X125904327Y-61988259D01*
X125962818Y-62168277D01*
X125962821Y-62168284D01*
X126057466Y-62332215D01*
X126061285Y-62337471D01*
X126059989Y-62338412D01*
X126086727Y-62394137D01*
X126078098Y-62463472D01*
X126037233Y-62514427D01*
X125999128Y-62542112D01*
X125999123Y-62542116D01*
X125872466Y-62682785D01*
X125777821Y-62846715D01*
X125777818Y-62846722D01*
X125724766Y-63010000D01*
X125719326Y-63026744D01*
X125699540Y-63215000D01*
X119070500Y-63215000D01*
X119070500Y-63140010D01*
X119055620Y-62960437D01*
X118996610Y-62727409D01*
X118900049Y-62507272D01*
X118895670Y-62500570D01*
X118818344Y-62382214D01*
X118768571Y-62306031D01*
X118605764Y-62129175D01*
X118605759Y-62129171D01*
X118605757Y-62129169D01*
X118416075Y-61981533D01*
X118416069Y-61981529D01*
X118204657Y-61867118D01*
X118204652Y-61867116D01*
X117977300Y-61789066D01*
X117799468Y-61759391D01*
X117740192Y-61749500D01*
X117499808Y-61749500D01*
X117452387Y-61757413D01*
X117262699Y-61789066D01*
X117035347Y-61867116D01*
X117035342Y-61867118D01*
X116823930Y-61981529D01*
X116823924Y-61981533D01*
X116634242Y-62129169D01*
X116634239Y-62129172D01*
X116634236Y-62129174D01*
X116634236Y-62129175D01*
X116600476Y-62165848D01*
X116471430Y-62306029D01*
X116471427Y-62306033D01*
X116339951Y-62507270D01*
X116243389Y-62727410D01*
X116184379Y-62960440D01*
X116169500Y-63140012D01*
X116169500Y-65159988D01*
X103741449Y-65159988D01*
X103741449Y-59540190D01*
X111619500Y-59540190D01*
X111659066Y-59777300D01*
X111737116Y-60004652D01*
X111737118Y-60004657D01*
X111851529Y-60216069D01*
X111851533Y-60216075D01*
X111999169Y-60405757D01*
X111999171Y-60405759D01*
X111999175Y-60405764D01*
X112176031Y-60568571D01*
X112377272Y-60700049D01*
X112597409Y-60796610D01*
X112830437Y-60855620D01*
X113010010Y-60870500D01*
X113010012Y-60870500D01*
X115029988Y-60870500D01*
X115029990Y-60870500D01*
X115209563Y-60855620D01*
X115442591Y-60796610D01*
X115662728Y-60700049D01*
X115863969Y-60568571D01*
X116040825Y-60405764D01*
X116188472Y-60216067D01*
X116302882Y-60004656D01*
X116380934Y-59777297D01*
X116420500Y-59540192D01*
X116420500Y-59299808D01*
X116380934Y-59062703D01*
X116302882Y-58835344D01*
X116188472Y-58623933D01*
X116188470Y-58623930D01*
X116188466Y-58623924D01*
X116040830Y-58434242D01*
X116040827Y-58434239D01*
X116040825Y-58434236D01*
X115863969Y-58271429D01*
X115859112Y-58268256D01*
X115662729Y-58139951D01*
X115526053Y-58080000D01*
X128604540Y-58080000D01*
X128624326Y-58268256D01*
X128624327Y-58268259D01*
X128682818Y-58448277D01*
X128682821Y-58448284D01*
X128777467Y-58612216D01*
X128904129Y-58752888D01*
X129057265Y-58864148D01*
X129057270Y-58864151D01*
X129230192Y-58941142D01*
X129230197Y-58941144D01*
X129415354Y-58980500D01*
X129415355Y-58980500D01*
X129604644Y-58980500D01*
X129604646Y-58980500D01*
X129789803Y-58941144D01*
X129962730Y-58864151D01*
X130115871Y-58752888D01*
X130242533Y-58612216D01*
X130337179Y-58448284D01*
X130395674Y-58268256D01*
X130415460Y-58080000D01*
X130395674Y-57891744D01*
X130337179Y-57711716D01*
X130242533Y-57547784D01*
X130115871Y-57407112D01*
X130115870Y-57407111D01*
X129962734Y-57295851D01*
X129962729Y-57295848D01*
X129789807Y-57218857D01*
X129789802Y-57218855D01*
X129644001Y-57187865D01*
X129604646Y-57179500D01*
X129415354Y-57179500D01*
X129382897Y-57186398D01*
X129230197Y-57218855D01*
X129230192Y-57218857D01*
X129057270Y-57295848D01*
X129057265Y-57295851D01*
X128904129Y-57407111D01*
X128777466Y-57547785D01*
X128682821Y-57711715D01*
X128682818Y-57711722D01*
X128624327Y-57891740D01*
X128624326Y-57891744D01*
X128604540Y-58080000D01*
X115526053Y-58080000D01*
X115442591Y-58043390D01*
X115442589Y-58043389D01*
X115209559Y-57984379D01*
X115065659Y-57972455D01*
X115029990Y-57969500D01*
X113010010Y-57969500D01*
X112977563Y-57972188D01*
X112830440Y-57984379D01*
X112597410Y-58043389D01*
X112377270Y-58139951D01*
X112176033Y-58271427D01*
X112176029Y-58271430D01*
X111999172Y-58434239D01*
X111999169Y-58434242D01*
X111851533Y-58623924D01*
X111851529Y-58623930D01*
X111737118Y-58835342D01*
X111737116Y-58835347D01*
X111659066Y-59062699D01*
X111619500Y-59299809D01*
X111619500Y-59540190D01*
X103741449Y-59540190D01*
X103741449Y-55430000D01*
X121844357Y-55430000D01*
X121864884Y-55651535D01*
X121864885Y-55651537D01*
X121925769Y-55865523D01*
X121925775Y-55865538D01*
X122024938Y-56064683D01*
X122024943Y-56064691D01*
X122159020Y-56242238D01*
X122323437Y-56392123D01*
X122323439Y-56392125D01*
X122512595Y-56509245D01*
X122512596Y-56509245D01*
X122512599Y-56509247D01*
X122720060Y-56589618D01*
X122938757Y-56630500D01*
X122938759Y-56630500D01*
X123161241Y-56630500D01*
X123161243Y-56630500D01*
X123379940Y-56589618D01*
X123587401Y-56509247D01*
X123776562Y-56392124D01*
X123940981Y-56242236D01*
X124075058Y-56064689D01*
X124174229Y-55865528D01*
X124235115Y-55651536D01*
X124255643Y-55430000D01*
X124245466Y-55320174D01*
X149430421Y-55320174D01*
X149450207Y-55508430D01*
X149450208Y-55508433D01*
X149508699Y-55688451D01*
X149508702Y-55688458D01*
X149603348Y-55852390D01*
X149615178Y-55865528D01*
X149730010Y-55993062D01*
X149883146Y-56104322D01*
X149883151Y-56104325D01*
X150056073Y-56181316D01*
X150056078Y-56181318D01*
X150241235Y-56220674D01*
X150241236Y-56220674D01*
X150430525Y-56220674D01*
X150430527Y-56220674D01*
X150615684Y-56181318D01*
X150788611Y-56104325D01*
X150941752Y-55993062D01*
X151068414Y-55852390D01*
X151163060Y-55688458D01*
X151221555Y-55508430D01*
X151241341Y-55320174D01*
X151221555Y-55131918D01*
X151163060Y-54951890D01*
X151134274Y-54902032D01*
X151117802Y-54834132D01*
X151140655Y-54768106D01*
X151149502Y-54757072D01*
X151243261Y-54652944D01*
X151337907Y-54489012D01*
X151396402Y-54308984D01*
X151416188Y-54120728D01*
X151396402Y-53932472D01*
X151337907Y-53752444D01*
X151243261Y-53588512D01*
X151116599Y-53447840D01*
X151116598Y-53447839D01*
X150963462Y-53336579D01*
X150963457Y-53336576D01*
X150790535Y-53259585D01*
X150790530Y-53259583D01*
X150644729Y-53228593D01*
X150605374Y-53220228D01*
X150416082Y-53220228D01*
X150383625Y-53227126D01*
X150230925Y-53259583D01*
X150230920Y-53259585D01*
X150057998Y-53336576D01*
X150057993Y-53336579D01*
X149904857Y-53447839D01*
X149778194Y-53588513D01*
X149683549Y-53752443D01*
X149683546Y-53752450D01*
X149625055Y-53932468D01*
X149625054Y-53932472D01*
X149605268Y-54120728D01*
X149625054Y-54308984D01*
X149625055Y-54308987D01*
X149683548Y-54489011D01*
X149712333Y-54538869D01*
X149728804Y-54606769D01*
X149705952Y-54672796D01*
X149697096Y-54683840D01*
X149652906Y-54732918D01*
X149603348Y-54787958D01*
X149603346Y-54787959D01*
X149603345Y-54787962D01*
X149508702Y-54951889D01*
X149508699Y-54951896D01*
X149450208Y-55131914D01*
X149450207Y-55131918D01*
X149430421Y-55320174D01*
X124245466Y-55320174D01*
X124235115Y-55208464D01*
X124174229Y-54994472D01*
X124153026Y-54951890D01*
X124075061Y-54795316D01*
X124075056Y-54795308D01*
X123940979Y-54617761D01*
X123776562Y-54467876D01*
X123776560Y-54467874D01*
X123587404Y-54350754D01*
X123587398Y-54350752D01*
X123379940Y-54270382D01*
X123161243Y-54229500D01*
X122938757Y-54229500D01*
X122720060Y-54270382D01*
X122620417Y-54308984D01*
X122512601Y-54350752D01*
X122512595Y-54350754D01*
X122323439Y-54467874D01*
X122323437Y-54467876D01*
X122159020Y-54617761D01*
X122024943Y-54795308D01*
X122024938Y-54795316D01*
X121925775Y-54994461D01*
X121925769Y-54994476D01*
X121864885Y-55208462D01*
X121864884Y-55208464D01*
X121844357Y-55429999D01*
X121844357Y-55430000D01*
X103741449Y-55430000D01*
X103741449Y-52700000D01*
X119594540Y-52700000D01*
X119614326Y-52888256D01*
X119614327Y-52888259D01*
X119672818Y-53068277D01*
X119672821Y-53068284D01*
X119767467Y-53232216D01*
X119861436Y-53336579D01*
X119894129Y-53372888D01*
X120047265Y-53484148D01*
X120047270Y-53484151D01*
X120220192Y-53561142D01*
X120220197Y-53561144D01*
X120405354Y-53600500D01*
X120405355Y-53600500D01*
X120594644Y-53600500D01*
X120594646Y-53600500D01*
X120779803Y-53561144D01*
X120952730Y-53484151D01*
X121105871Y-53372888D01*
X121232533Y-53232216D01*
X121327179Y-53068284D01*
X121385674Y-52888256D01*
X121405460Y-52700000D01*
X121385674Y-52511744D01*
X121327179Y-52331716D01*
X121232533Y-52167784D01*
X121105871Y-52027112D01*
X121105870Y-52027111D01*
X120952734Y-51915851D01*
X120952729Y-51915848D01*
X120779807Y-51838857D01*
X120779802Y-51838855D01*
X120634001Y-51807865D01*
X120594646Y-51799500D01*
X120405354Y-51799500D01*
X120372897Y-51806398D01*
X120220197Y-51838855D01*
X120220192Y-51838857D01*
X120047270Y-51915848D01*
X120047265Y-51915851D01*
X119894129Y-52027111D01*
X119767466Y-52167785D01*
X119672821Y-52331715D01*
X119672818Y-52331722D01*
X119614327Y-52511740D01*
X119614326Y-52511744D01*
X119594540Y-52700000D01*
X103741449Y-52700000D01*
X103741449Y-51730000D01*
X125344540Y-51730000D01*
X125364326Y-51918256D01*
X125364327Y-51918259D01*
X125422818Y-52098277D01*
X125422821Y-52098284D01*
X125517467Y-52262216D01*
X125644129Y-52402888D01*
X125797265Y-52514148D01*
X125797270Y-52514151D01*
X125970192Y-52591142D01*
X125970197Y-52591144D01*
X126155354Y-52630500D01*
X126155355Y-52630500D01*
X126344644Y-52630500D01*
X126344646Y-52630500D01*
X126529803Y-52591144D01*
X126702730Y-52514151D01*
X126855871Y-52402888D01*
X126903492Y-52350000D01*
X136144540Y-52350000D01*
X136164326Y-52538256D01*
X136164327Y-52538259D01*
X136222818Y-52718277D01*
X136222821Y-52718284D01*
X136317467Y-52882216D01*
X136444129Y-53022888D01*
X136597265Y-53134148D01*
X136597270Y-53134151D01*
X136770192Y-53211142D01*
X136770197Y-53211144D01*
X136955354Y-53250500D01*
X136955355Y-53250500D01*
X137144644Y-53250500D01*
X137144646Y-53250500D01*
X137329803Y-53211144D01*
X137502730Y-53134151D01*
X137655871Y-53022888D01*
X137782533Y-52882216D01*
X137877179Y-52718284D01*
X137935674Y-52538256D01*
X137955460Y-52350000D01*
X137935674Y-52161744D01*
X137877179Y-51981716D01*
X137841547Y-51920000D01*
X147004540Y-51920000D01*
X147024326Y-52108256D01*
X147024327Y-52108259D01*
X147082818Y-52288277D01*
X147082821Y-52288284D01*
X147177467Y-52452216D01*
X147233231Y-52514148D01*
X147304129Y-52592888D01*
X147457265Y-52704148D01*
X147457270Y-52704151D01*
X147630192Y-52781142D01*
X147630197Y-52781144D01*
X147815354Y-52820500D01*
X147815355Y-52820500D01*
X148004644Y-52820500D01*
X148004646Y-52820500D01*
X148189803Y-52781144D01*
X148362730Y-52704151D01*
X148515871Y-52592888D01*
X148642533Y-52452216D01*
X148737179Y-52288284D01*
X148795674Y-52108256D01*
X148815460Y-51920000D01*
X148795674Y-51731744D01*
X148737179Y-51551716D01*
X148642533Y-51387784D01*
X148515871Y-51247112D01*
X148515870Y-51247111D01*
X148362734Y-51135851D01*
X148362729Y-51135848D01*
X148189807Y-51058857D01*
X148189802Y-51058855D01*
X148044001Y-51027865D01*
X148004646Y-51019500D01*
X147815354Y-51019500D01*
X147782897Y-51026398D01*
X147630197Y-51058855D01*
X147630192Y-51058857D01*
X147457270Y-51135848D01*
X147457265Y-51135851D01*
X147304129Y-51247111D01*
X147177466Y-51387785D01*
X147082821Y-51551715D01*
X147082818Y-51551722D01*
X147024327Y-51731740D01*
X147024326Y-51731744D01*
X147004540Y-51920000D01*
X137841547Y-51920000D01*
X137782533Y-51817784D01*
X137655871Y-51677112D01*
X137655870Y-51677111D01*
X137502734Y-51565851D01*
X137502729Y-51565848D01*
X137329807Y-51488857D01*
X137329802Y-51488855D01*
X137184001Y-51457865D01*
X137144646Y-51449500D01*
X136955354Y-51449500D01*
X136922897Y-51456398D01*
X136770197Y-51488855D01*
X136770192Y-51488857D01*
X136597270Y-51565848D01*
X136597265Y-51565851D01*
X136444129Y-51677111D01*
X136317466Y-51817785D01*
X136222821Y-51981715D01*
X136222818Y-51981722D01*
X136181705Y-52108256D01*
X136164326Y-52161744D01*
X136144540Y-52350000D01*
X126903492Y-52350000D01*
X126982533Y-52262216D01*
X127077179Y-52098284D01*
X127135674Y-51918256D01*
X127155460Y-51730000D01*
X127135674Y-51541744D01*
X127077179Y-51361716D01*
X126982533Y-51197784D01*
X126855871Y-51057112D01*
X126855870Y-51057111D01*
X126702734Y-50945851D01*
X126702729Y-50945848D01*
X126529807Y-50868857D01*
X126529802Y-50868855D01*
X126384001Y-50837865D01*
X126344646Y-50829500D01*
X126155354Y-50829500D01*
X126122897Y-50836398D01*
X125970197Y-50868855D01*
X125970192Y-50868857D01*
X125797270Y-50945848D01*
X125797265Y-50945851D01*
X125644129Y-51057111D01*
X125517466Y-51197785D01*
X125422821Y-51361715D01*
X125422818Y-51361722D01*
X125381510Y-51488856D01*
X125364326Y-51541744D01*
X125344540Y-51730000D01*
X103741449Y-51730000D01*
X103741449Y-49183687D01*
X103741545Y-49180231D01*
X103747941Y-49066305D01*
X103758347Y-48894239D01*
X103759103Y-48887657D01*
X103782226Y-48751553D01*
X103809505Y-48602688D01*
X103810897Y-48596764D01*
X103850324Y-48459906D01*
X103894200Y-48319098D01*
X103896094Y-48313867D01*
X103951336Y-48180497D01*
X104011282Y-48047301D01*
X104013528Y-48042812D01*
X104083892Y-47915495D01*
X104159182Y-47790950D01*
X104161616Y-47787237D01*
X104245372Y-47669195D01*
X104247092Y-47666887D01*
X104335877Y-47553561D01*
X104338400Y-47550548D01*
X104434987Y-47442465D01*
X104437307Y-47440013D01*
X104539013Y-47338307D01*
X104541465Y-47335987D01*
X104649548Y-47239400D01*
X104652561Y-47236877D01*
X104765887Y-47148092D01*
X104768195Y-47146372D01*
X104886237Y-47062616D01*
X104889950Y-47060182D01*
X105014492Y-46984894D01*
X105141812Y-46914528D01*
X105146301Y-46912282D01*
X105279493Y-46852338D01*
X105412867Y-46797094D01*
X105418098Y-46795200D01*
X105558906Y-46751324D01*
X105695764Y-46711897D01*
X105701688Y-46710505D01*
X105850553Y-46683226D01*
X105986657Y-46660103D01*
X105993239Y-46659347D01*
X106165305Y-46648941D01*
X106279231Y-46642545D01*
X106282687Y-46642449D01*
X157742200Y-46642449D01*
X157745680Y-46642547D01*
G37*
%TD.AperFunction*%
%TD*%
M02*
