%TF.GenerationSoftware,KiCad,Pcbnew,7.0.9*%
%TF.CreationDate,2024-02-22T17:15:05-05:00*%
%TF.ProjectId,blockaxe1,626c6f63-6b61-4786-9531-2e6b69636164,rev?*%
%TF.SameCoordinates,Original*%
%TF.FileFunction,Copper,L4,Bot*%
%TF.FilePolarity,Positive*%
%FSLAX46Y46*%
G04 Gerber Fmt 4.6, Leading zero omitted, Abs format (unit mm)*
G04 Created by KiCad (PCBNEW 7.0.9) date 2024-02-22 17:15:05*
%MOMM*%
%LPD*%
G01*
G04 APERTURE LIST*
G04 Aperture macros list*
%AMRoundRect*
0 Rectangle with rounded corners*
0 $1 Rounding radius*
0 $2 $3 $4 $5 $6 $7 $8 $9 X,Y pos of 4 corners*
0 Add a 4 corners polygon primitive as box body*
4,1,4,$2,$3,$4,$5,$6,$7,$8,$9,$2,$3,0*
0 Add four circle primitives for the rounded corners*
1,1,$1+$1,$2,$3*
1,1,$1+$1,$4,$5*
1,1,$1+$1,$6,$7*
1,1,$1+$1,$8,$9*
0 Add four rect primitives between the rounded corners*
20,1,$1+$1,$2,$3,$4,$5,0*
20,1,$1+$1,$4,$5,$6,$7,0*
20,1,$1+$1,$6,$7,$8,$9,0*
20,1,$1+$1,$8,$9,$2,$3,0*%
G04 Aperture macros list end*
%TA.AperFunction,SMDPad,CuDef*%
%ADD10RoundRect,0.150000X0.425000X-0.150000X0.425000X0.150000X-0.425000X0.150000X-0.425000X-0.150000X0*%
%TD*%
%TA.AperFunction,SMDPad,CuDef*%
%ADD11RoundRect,0.075000X0.500000X-0.075000X0.500000X0.075000X-0.500000X0.075000X-0.500000X-0.075000X0*%
%TD*%
%TA.AperFunction,ComponentPad*%
%ADD12O,2.100000X1.000000*%
%TD*%
%TA.AperFunction,ComponentPad*%
%ADD13O,1.800000X1.000000*%
%TD*%
%TA.AperFunction,ComponentPad*%
%ADD14C,0.800000*%
%TD*%
%TA.AperFunction,ComponentPad*%
%ADD15C,6.000000*%
%TD*%
%TA.AperFunction,ComponentPad*%
%ADD16C,0.500000*%
%TD*%
%TA.AperFunction,SMDPad,CuDef*%
%ADD17R,1.900000X1.000000*%
%TD*%
%TA.AperFunction,ComponentPad*%
%ADD18C,1.574800*%
%TD*%
%TA.AperFunction,SMDPad,CuDef*%
%ADD19RoundRect,0.250000X1.500000X0.550000X-1.500000X0.550000X-1.500000X-0.550000X1.500000X-0.550000X0*%
%TD*%
%TA.AperFunction,ConnectorPad*%
%ADD20C,0.787400*%
%TD*%
%TA.AperFunction,SMDPad,CuDef*%
%ADD21R,0.889000X1.270000*%
%TD*%
%TA.AperFunction,SMDPad,CuDef*%
%ADD22R,1.447800X0.812800*%
%TD*%
%TA.AperFunction,SMDPad,CuDef*%
%ADD23C,1.000000*%
%TD*%
%TA.AperFunction,ComponentPad*%
%ADD24R,1.700000X1.700000*%
%TD*%
%TA.AperFunction,ComponentPad*%
%ADD25O,1.700000X1.700000*%
%TD*%
%TA.AperFunction,SMDPad,CuDef*%
%ADD26R,0.305000X0.305000*%
%TD*%
%TA.AperFunction,SMDPad,CuDef*%
%ADD27R,0.535000X0.305000*%
%TD*%
%TA.AperFunction,SMDPad,CuDef*%
%ADD28R,0.805000X0.805000*%
%TD*%
%TA.AperFunction,ComponentPad*%
%ADD29O,1.900000X3.800000*%
%TD*%
%TA.AperFunction,ComponentPad*%
%ADD30O,3.800000X1.900000*%
%TD*%
%TA.AperFunction,SMDPad,CuDef*%
%ADD31R,0.900000X1.500000*%
%TD*%
%TA.AperFunction,SMDPad,CuDef*%
%ADD32R,1.500000X0.900000*%
%TD*%
%TA.AperFunction,SMDPad,CuDef*%
%ADD33R,0.900000X0.900000*%
%TD*%
%TA.AperFunction,ViaPad*%
%ADD34C,0.800000*%
%TD*%
%TA.AperFunction,ViaPad*%
%ADD35C,1.400000*%
%TD*%
%TA.AperFunction,ViaPad*%
%ADD36C,1.200000*%
%TD*%
%TA.AperFunction,Conductor*%
%ADD37C,0.250000*%
%TD*%
%TA.AperFunction,Conductor*%
%ADD38C,0.500000*%
%TD*%
%TA.AperFunction,Conductor*%
%ADD39C,1.000000*%
%TD*%
G04 APERTURE END LIST*
D10*
%TO.P,J4,A1B12,GND*%
%TO.N,GND*%
X110805000Y-88760000D03*
%TO.P,J4,A4B9,VBUS*%
%TO.N,unconnected-(J4-VBUS-PadA4B9)*%
X110805000Y-87960000D03*
D11*
%TO.P,J4,A5,CC1*%
%TO.N,Net-(J4-CC1)*%
X110805000Y-86810000D03*
%TO.P,J4,A6,D+*%
%TO.N,Net-(U8-GPIO20{slash}U1CTS{slash}ADC2_CH9{slash}CLK_OUT1{slash}USB_D+)*%
X110805000Y-85810000D03*
%TO.P,J4,A7,D-*%
%TO.N,Net-(U8-GPIO19{slash}U1RTS{slash}ADC2_CH8{slash}CLK_OUT2{slash}USB_D-)*%
X110805000Y-85310000D03*
%TO.P,J4,A8,SBU1*%
%TO.N,unconnected-(J4-SBU1-PadA8)*%
X110805000Y-84310000D03*
D10*
%TO.P,J4,B1A12,GND*%
%TO.N,GND*%
X110805000Y-82360000D03*
%TO.P,J4,B4A9,VBUS*%
%TO.N,unconnected-(J4-VBUS-PadB4A9)*%
X110805000Y-83160000D03*
D11*
%TO.P,J4,B5,CC2*%
%TO.N,Net-(J4-CC2)*%
X110805000Y-83810000D03*
%TO.P,J4,B6,D+*%
%TO.N,Net-(U8-GPIO20{slash}U1CTS{slash}ADC2_CH9{slash}CLK_OUT1{slash}USB_D+)*%
X110805000Y-84810000D03*
%TO.P,J4,B7,D-*%
%TO.N,Net-(U8-GPIO19{slash}U1RTS{slash}ADC2_CH8{slash}CLK_OUT2{slash}USB_D-)*%
X110805000Y-86310000D03*
%TO.P,J4,B8,SBU2*%
%TO.N,unconnected-(J4-SBU2-PadB8)*%
X110805000Y-87310000D03*
D12*
%TO.P,J4,S1,SHIELD*%
%TO.N,GND*%
X110230000Y-89880000D03*
D13*
X106050000Y-89880000D03*
D12*
X110230000Y-81240000D03*
D13*
X106050000Y-81240000D03*
%TD*%
D14*
%TO.P,H1,1,1*%
%TO.N,GND*%
X105109949Y-50173949D03*
X105768959Y-48582959D03*
X105768959Y-51764939D03*
X107359949Y-47923949D03*
D15*
X107359949Y-50173949D03*
D14*
X107359949Y-52423949D03*
X108950939Y-48582959D03*
X108950939Y-51764939D03*
X109609949Y-50173949D03*
%TD*%
D16*
%TO.P,U16,17,PAD*%
%TO.N,GND*%
X132505001Y-68575000D03*
X131615001Y-69465000D03*
X131615001Y-68575000D03*
X131615001Y-67685000D03*
X130735001Y-68575000D03*
%TD*%
D14*
%TO.P,H2,1,1*%
%TO.N,GND*%
X154536959Y-50240939D03*
X155195969Y-48649949D03*
X155195969Y-51831929D03*
X156786959Y-47990939D03*
D15*
X156786959Y-50240939D03*
D14*
X156786959Y-52490939D03*
X158377949Y-48649949D03*
X158377949Y-51831929D03*
X159036959Y-50240939D03*
%TD*%
%TO.P,H3,1,1*%
%TO.N,GND*%
X105006959Y-142950939D03*
X105665969Y-141359949D03*
X105665969Y-144541929D03*
X107256959Y-140700939D03*
D15*
X107256959Y-142950939D03*
D14*
X107256959Y-145200939D03*
X108847949Y-141359949D03*
X108847949Y-144541929D03*
X109506959Y-142950939D03*
%TD*%
%TO.P,H4,1,1*%
%TO.N,GND*%
X154603949Y-142847949D03*
X155262959Y-141256959D03*
X155262959Y-144438939D03*
X156853949Y-140597949D03*
D15*
X156853949Y-142847949D03*
D14*
X156853949Y-145097949D03*
X158444939Y-141256959D03*
X158444939Y-144438939D03*
X159103949Y-142847949D03*
%TD*%
D17*
%TO.P,J3,1,Pin_1*%
%TO.N,GND*%
X151860000Y-56960000D03*
%TO.P,J3,2,Pin_2*%
%TO.N,VDD*%
X148560000Y-54420000D03*
%TO.P,J3,3,Pin_3*%
%TO.N,/SCL*%
X151860000Y-51880000D03*
%TO.P,J3,4,Pin_4*%
%TO.N,/SDA*%
X148560000Y-49340000D03*
%TD*%
D18*
%TO.P,J6,1,Pin_1*%
%TO.N,GND*%
X115880000Y-141820000D03*
%TO.P,J6,2,Pin_2*%
%TO.N,/5V*%
X118420000Y-141820000D03*
%TO.P,J6,3,Pin_3*%
%TO.N,/Fan/FAN_TACH*%
X120960000Y-141820000D03*
%TO.P,J6,4,Pin_4*%
%TO.N,/Fan/FAN_PWM*%
X123500000Y-141820000D03*
%TD*%
D19*
%TO.P,C24,1*%
%TO.N,/5V*%
X133610000Y-141670000D03*
%TO.P,C24,2*%
%TO.N,GND*%
X128210000Y-141670000D03*
%TD*%
D20*
%TO.P,J1,1,Pin_1*%
%TO.N,VDD*%
X155180000Y-92255000D03*
%TO.P,J1,2,Pin_2*%
%TO.N,/STM32/SWDIO*%
X155180000Y-90985000D03*
%TO.P,J1,3,Pin_3*%
%TO.N,/STM32/SWRESET*%
X153910000Y-92255000D03*
%TO.P,J1,4,Pin_4*%
%TO.N,/STM32/SWCLK*%
X153910000Y-90985000D03*
%TO.P,J1,5,Pin_5*%
%TO.N,GND*%
X152640000Y-92255000D03*
%TO.P,J1,6,Pin_6*%
%TO.N,/STM32/SWO*%
X152640000Y-90985000D03*
%TD*%
D21*
%TO.P,SW1,1,1*%
%TO.N,GND*%
X117115002Y-49353000D03*
%TO.P,SW1,2,2*%
%TO.N,/ESP32/EN*%
X121314998Y-49353000D03*
D22*
%TO.P,SW1,3*%
%TO.N,unconnected-(SW1-Pad3)*%
X115840000Y-47448000D03*
%TO.P,SW1,4*%
%TO.N,unconnected-(SW1-Pad4)*%
X122590000Y-47448000D03*
%TD*%
D23*
%TO.P,FID2,*%
%TO.N,*%
X151920000Y-142880000D03*
%TD*%
%TO.P,FID3,*%
%TO.N,*%
X107320000Y-55670000D03*
%TD*%
D21*
%TO.P,SW2,1,1*%
%TO.N,GND*%
X140220002Y-49353000D03*
%TO.P,SW2,2,2*%
%TO.N,/ESP32/IO0*%
X144419998Y-49353000D03*
D22*
%TO.P,SW2,3*%
%TO.N,unconnected-(SW2-Pad3)*%
X138945000Y-47448000D03*
%TO.P,SW2,4*%
%TO.N,unconnected-(SW2-Pad4)*%
X145695000Y-47448000D03*
%TD*%
D24*
%TO.P,J7,1,Pin_1*%
%TO.N,/STM32/RX2*%
X157890000Y-124970000D03*
D25*
%TO.P,J7,2,Pin_2*%
%TO.N,/STM32/TX2*%
X157890000Y-127510000D03*
%TO.P,J7,3,Pin_3*%
%TO.N,GND*%
X157890000Y-130050000D03*
%TD*%
D23*
%TO.P,FID5,*%
%TO.N,*%
X156970000Y-55620000D03*
%TD*%
D20*
%TO.P,J2,1,Pin_1*%
%TO.N,/ESP32/EN*%
X155220000Y-85131000D03*
%TO.P,J2,2,Pin_2*%
%TO.N,VDD*%
X155220000Y-83861000D03*
%TO.P,J2,3,Pin_3*%
%TO.N,/ESP32/P_TX*%
X153950000Y-85131000D03*
%TO.P,J2,4,Pin_4*%
%TO.N,GND*%
X153950000Y-83861000D03*
%TO.P,J2,5,Pin_5*%
%TO.N,/ESP32/P_RX*%
X152680000Y-85131000D03*
%TO.P,J2,6,Pin_6*%
%TO.N,/ESP32/IO0*%
X152680000Y-83861000D03*
%TD*%
D23*
%TO.P,FID6,*%
%TO.N,*%
X112360000Y-142540000D03*
%TD*%
D26*
%TO.P,U1,1,VDD_INT_1*%
%TO.N,Net-(U1-VDD_INT_1)*%
X130124500Y-112865000D03*
%TO.P,U1,2,VDD*%
%TO.N,/COREV*%
X130739500Y-112865000D03*
%TO.P,U1,3,VDD*%
X131354500Y-112865000D03*
%TO.P,U1,4,VDD*%
X131969500Y-112865000D03*
%TO.P,U1,5,VDD*%
X132584500Y-112865000D03*
%TO.P,U1,6,VDD*%
X133199500Y-112865000D03*
%TO.P,U1,7,VDD*%
X133814500Y-112865000D03*
%TO.P,U1,8,VDD*%
X134429500Y-112865000D03*
D27*
%TO.P,U1,9,TDO*%
%TO.N,Net-(U1-TDO)*%
X135409500Y-112980500D03*
%TO.P,U1,10,TDI*%
%TO.N,Net-(U1-TDI)*%
X135409500Y-113595500D03*
%TO.P,U1,11,TCK*%
%TO.N,Net-(U1-TCK)*%
X135409500Y-114210500D03*
%TO.P,U1,12,VDD_INT_2*%
%TO.N,unconnected-(U1-VDD_INT_2-Pad12)*%
X135409500Y-114825500D03*
%TO.P,U1,13,RSVD*%
%TO.N,unconnected-(U1-RSVD-Pad13)*%
X135409500Y-115440500D03*
%TO.P,U1,14,VSS*%
%TO.N,GND*%
X135409500Y-116055500D03*
%TO.P,U1,15,TRIP_OUT*%
%TO.N,/ASIC/TRIP_OUT*%
X135409500Y-116670500D03*
%TO.P,U1,16,TX_OUT*%
%TO.N,/ASIC/TX_OUT*%
X135409500Y-117285500D03*
%TO.P,U1,17,RESET_IN*%
%TO.N,/ASIC/RESET_IN*%
X135409500Y-117900500D03*
%TO.P,U1,18,RX_IN*%
%TO.N,/ASIC/RX_IN*%
X135409500Y-118515500D03*
%TO.P,U1,19,VDDIO*%
%TO.N,/ASIC/1V2*%
X135409500Y-119130500D03*
%TO.P,U1,20,REFCLKOUT2*%
%TO.N,Net-(U1-REFCLKOUT2)*%
X135409500Y-119745500D03*
D26*
%TO.P,U1,21,VSS*%
%TO.N,GND*%
X134429500Y-119860000D03*
%TO.P,U1,22,VSS*%
X133814500Y-119860000D03*
%TO.P,U1,23,VSS*%
X133199500Y-119860000D03*
%TO.P,U1,24,VSS*%
X132584500Y-119860000D03*
%TO.P,U1,25,VSS*%
X131969500Y-119860000D03*
%TO.P,U1,26,VSS*%
X131354500Y-119860000D03*
%TO.P,U1,27,VSS*%
X130739500Y-119860000D03*
%TO.P,U1,28,VSS*%
X130124500Y-119860000D03*
D27*
%TO.P,U1,29,REFCLKIN*%
%TO.N,/ASIC/CLK*%
X129144500Y-119745500D03*
%TO.P,U1,30,VDDIO*%
%TO.N,/ASIC/1V2*%
X129144500Y-119130500D03*
%TO.P,U1,31,RX_OUT*%
%TO.N,Net-(U1-RX_OUT)*%
X129144500Y-118515500D03*
%TO.P,U1,32,RESET_OUT*%
%TO.N,Net-(U1-RESET_OUT)*%
X129144500Y-117900500D03*
%TO.P,U1,33,TX_IN*%
%TO.N,Net-(U1-TX_IN)*%
X129144500Y-117285500D03*
%TO.P,U1,34,TRIP_IN*%
%TO.N,Net-(U1-TRIP_IN)*%
X129144500Y-116670500D03*
%TO.P,U1,35,VSS*%
%TO.N,GND*%
X129144500Y-116055500D03*
%TO.P,U1,36,PINSEL*%
%TO.N,Net-(U1-PINSEL)*%
X129144500Y-115440500D03*
%TO.P,U1,37,RSVD*%
%TO.N,unconnected-(U1-RSVD-Pad37)*%
X129144500Y-114825500D03*
%TO.P,U1,38,REFCLKOUT1*%
%TO.N,Net-(U1-REFCLKOUT1)*%
X129144500Y-114210500D03*
%TO.P,U1,39,TMS*%
%TO.N,Net-(U1-TMS)*%
X129144500Y-113595500D03*
%TO.P,U1,40,TRST*%
%TO.N,Net-(U1-TRST)*%
X129144500Y-112980500D03*
D28*
%TO.P,U1,41,VDD*%
%TO.N,/COREV*%
X130312000Y-113946500D03*
%TO.P,U1,42,VDD*%
X130312000Y-115154500D03*
%TO.P,U1,43,VSS*%
%TO.N,GND*%
X130312000Y-116362500D03*
%TO.P,U1,44,VSS*%
X130312000Y-117570500D03*
%TO.P,U1,45,VSS*%
X130312000Y-118778500D03*
%TO.P,U1,46,VSS*%
X131622000Y-118778500D03*
%TO.P,U1,47,VSS*%
X131622000Y-117570500D03*
%TO.P,U1,48,VSS*%
X131622000Y-116362500D03*
%TO.P,U1,49,VDD*%
%TO.N,/COREV*%
X131622000Y-115154500D03*
%TO.P,U1,50,VDD*%
X131622000Y-113946500D03*
%TO.P,U1,51,VDD*%
X132932000Y-113946500D03*
%TO.P,U1,52,VDD*%
X132932000Y-115154500D03*
%TO.P,U1,53,VSS*%
%TO.N,GND*%
X132932000Y-116362500D03*
%TO.P,U1,54,VSS*%
X132932000Y-117570500D03*
%TO.P,U1,55,VSS*%
X132932000Y-118778500D03*
%TO.P,U1,56,VSS*%
X134242000Y-118778500D03*
%TO.P,U1,57,VSS*%
X134242000Y-117570500D03*
%TO.P,U1,58,VSS*%
X134242000Y-116362500D03*
%TO.P,U1,59,VDD*%
%TO.N,/COREV*%
X134242000Y-115154500D03*
%TO.P,U1,60,VDD*%
X134242000Y-113946500D03*
%TD*%
D29*
%TO.P,J5,1*%
%TO.N,IN+*%
X117620000Y-64150000D03*
%TO.P,J5,2*%
%TO.N,GND*%
X111690000Y-64150000D03*
D30*
%TO.P,J5,3*%
%TO.N,/PLUG_SENSE*%
X114020000Y-59420000D03*
%TD*%
D31*
%TO.P,U8,1,GND*%
%TO.N,GND*%
X152720000Y-77610000D03*
%TO.P,U8,2,3V3*%
%TO.N,VDD*%
X151450000Y-77610000D03*
%TO.P,U8,3,EN*%
%TO.N,/ESP32/EN*%
X150180000Y-77610000D03*
%TO.P,U8,4,GPIO4/TOUCH4/ADC1_CH3*%
%TO.N,unconnected-(U8-GPIO4{slash}TOUCH4{slash}ADC1_CH3-Pad4)*%
X148910000Y-77610000D03*
%TO.P,U8,5,GPIO5/TOUCH5/ADC1_CH4*%
%TO.N,unconnected-(U8-GPIO5{slash}TOUCH5{slash}ADC1_CH4-Pad5)*%
X147640000Y-77610000D03*
%TO.P,U8,6,GPIO6/TOUCH6/ADC1_CH5*%
%TO.N,unconnected-(U8-GPIO6{slash}TOUCH6{slash}ADC1_CH5-Pad6)*%
X146370000Y-77610000D03*
%TO.P,U8,7,GPIO7/TOUCH7/ADC1_CH6*%
%TO.N,unconnected-(U8-GPIO7{slash}TOUCH7{slash}ADC1_CH6-Pad7)*%
X145100000Y-77610000D03*
%TO.P,U8,8,GPIO15/U0RTS/ADC2_CH4/XTAL_32K_P*%
%TO.N,/ESP32/XIN32*%
X143830000Y-77610000D03*
%TO.P,U8,9,GPIO16/U0CTS/ADC2_CH5/XTAL_32K_NH5*%
%TO.N,/ESP32/XOUT32*%
X142560000Y-77610000D03*
%TO.P,U8,10,GPIO17/U1TXD/ADC2_CH6*%
%TO.N,/ESP32/TX*%
X141290000Y-77610000D03*
%TO.P,U8,11,GPIO18/U1RXD/ADC2_CH7/CLK_OUT3*%
%TO.N,/ESP32/RX*%
X140020000Y-77610000D03*
%TO.P,U8,12,GPIO8/TOUCH8/ADC1_CH7/SUBSPICS1*%
%TO.N,unconnected-(U8-GPIO8{slash}TOUCH8{slash}ADC1_CH7{slash}SUBSPICS1-Pad12)*%
X138750000Y-77610000D03*
%TO.P,U8,13,GPIO19/U1RTS/ADC2_CH8/CLK_OUT2/USB_D-*%
%TO.N,Net-(U8-GPIO19{slash}U1RTS{slash}ADC2_CH8{slash}CLK_OUT2{slash}USB_D-)*%
X137480000Y-77610000D03*
%TO.P,U8,14,GPIO20/U1CTS/ADC2_CH9/CLK_OUT1/USB_D+*%
%TO.N,Net-(U8-GPIO20{slash}U1CTS{slash}ADC2_CH9{slash}CLK_OUT1{slash}USB_D+)*%
X136210000Y-77610000D03*
D32*
%TO.P,U8,15,GPIO3/TOUCH3/ADC1_CH2\u002A*%
%TO.N,VDD*%
X134960000Y-75845000D03*
%TO.P,U8,16,\u002AGPIO46*%
%TO.N,unconnected-(U8-\u002AGPIO46-Pad16)*%
X134960000Y-74575000D03*
%TO.P,U8,17,GPIO9/TOUCH9/ADC1_CH8/FSPIHD/SUBSPIHD*%
%TO.N,unconnected-(U8-GPIO9{slash}TOUCH9{slash}ADC1_CH8{slash}FSPIHD{slash}SUBSPIHD-Pad17)*%
X134960000Y-73305000D03*
%TO.P,U8,18,GPIO10/TOUCH10/ADC1_CH9/FSPICS0/FSPIIO4/SUBSPICS0*%
%TO.N,/PWR_EN*%
X134960000Y-72035000D03*
%TO.P,U8,19,GPIO11/TOUCH11/ADC2_CH0/FSPID/FSPIIO5/SUBSPID*%
%TO.N,/PGOOD*%
X134960000Y-70765000D03*
%TO.P,U8,20,GPIO12/TOUCH12/ADC2_CH1/FSPICLK/FSPIIO6/SUBSPICLK*%
%TO.N,/PLUG_SENSE*%
X134960000Y-69495000D03*
%TO.P,U8,21,GPIO13/TOUCH13/ADC2_CH2/FSPIQ/FSPIIO7/SUBSPIQ*%
%TO.N,unconnected-(U8-GPIO13{slash}TOUCH13{slash}ADC2_CH2{slash}FSPIQ{slash}FSPIIO7{slash}SUBSPIQ-Pad21)*%
X134960000Y-68225000D03*
%TO.P,U8,22,GPIO14/TOUCH14/ADC2_CH3/FSPIWP/FSPIDQS/SUBSPIWP*%
%TO.N,unconnected-(U8-GPIO14{slash}TOUCH14{slash}ADC2_CH3{slash}FSPIWP{slash}FSPIDQS{slash}SUBSPIWP-Pad22)*%
X134960000Y-66955000D03*
%TO.P,U8,23,GPIO21*%
%TO.N,unconnected-(U8-GPIO21-Pad23)*%
X134960000Y-65685000D03*
%TO.P,U8,24,GPIO47/SPICLK_P/SUBSPICLK_P_DIFF*%
%TO.N,/SDA*%
X134960000Y-64415000D03*
%TO.P,U8,25,GPIO48/SPICLK_N/SUBSPICLK_N_DIFF*%
%TO.N,/SCL*%
X134960000Y-63145000D03*
%TO.P,U8,26,\u002AGPIO45*%
%TO.N,unconnected-(U8-\u002AGPIO45-Pad26)*%
X134960000Y-61875000D03*
D31*
%TO.P,U8,27,GPIO0/BOOT\u002A*%
%TO.N,/ESP32/IO0*%
X136210000Y-60110000D03*
%TO.P,U8,28,SPIIO6/GPIO35/FSPID/SUBSPID*%
%TO.N,unconnected-(U8-SPIIO6{slash}GPIO35{slash}FSPID{slash}SUBSPID-Pad28)*%
X137480000Y-60110000D03*
%TO.P,U8,29,SPIIO7/GPIO36/FSPICLK/SUBSPICLK*%
%TO.N,unconnected-(U8-SPIIO7{slash}GPIO36{slash}FSPICLK{slash}SUBSPICLK-Pad29)*%
X138750000Y-60110000D03*
%TO.P,U8,30,SPIDQS/GPIO37/FSPIQ/SUBSPIQ*%
%TO.N,unconnected-(U8-SPIDQS{slash}GPIO37{slash}FSPIQ{slash}SUBSPIQ-Pad30)*%
X140020000Y-60110000D03*
%TO.P,U8,31,GPIO38/FSPIWP/SUBSPIWP*%
%TO.N,unconnected-(U8-GPIO38{slash}FSPIWP{slash}SUBSPIWP-Pad31)*%
X141290000Y-60110000D03*
%TO.P,U8,32,MTCK/GPIO39/CLK_OUT3/SUBSPICS1*%
%TO.N,unconnected-(U8-MTCK{slash}GPIO39{slash}CLK_OUT3{slash}SUBSPICS1-Pad32)*%
X142560000Y-60110000D03*
%TO.P,U8,33,MTDO/GPIO40/CLK_OUT2*%
%TO.N,unconnected-(U8-MTDO{slash}GPIO40{slash}CLK_OUT2-Pad33)*%
X143830000Y-60110000D03*
%TO.P,U8,34,MTDI/GPIO41/CLK_OUT1*%
%TO.N,unconnected-(U8-MTDI{slash}GPIO41{slash}CLK_OUT1-Pad34)*%
X145100000Y-60110000D03*
%TO.P,U8,35,MTMS/GPIO42*%
%TO.N,unconnected-(U8-MTMS{slash}GPIO42-Pad35)*%
X146370000Y-60110000D03*
%TO.P,U8,36,U0RXD/GPIO44/CLK_OUT2*%
%TO.N,/ESP32/P_RX*%
X147640000Y-60110000D03*
%TO.P,U8,37,U0TXD/GPIO43/CLK_OUT1*%
%TO.N,/ESP32/P_TX*%
X148910000Y-60110000D03*
%TO.P,U8,38,GPIO2/TOUCH2/ADC1_CH1*%
%TO.N,/COREV*%
X150180000Y-60110000D03*
%TO.P,U8,39,GPIO1/TOUCH1/ADC1_CH0*%
%TO.N,unconnected-(U8-GPIO1{slash}TOUCH1{slash}ADC1_CH0-Pad39)*%
X151450000Y-60110000D03*
%TO.P,U8,40,GND*%
%TO.N,GND*%
X152720000Y-60110000D03*
D33*
%TO.P,U8,41,GND*%
X143600000Y-71760000D03*
X145000000Y-71760000D03*
X146400000Y-71760000D03*
X143600000Y-70360000D03*
X145000000Y-70360000D03*
X146400000Y-70360000D03*
X143600000Y-68960000D03*
X145000000Y-68960000D03*
X146400000Y-68960000D03*
%TD*%
D34*
%TO.N,GND*%
X112550000Y-90390000D03*
%TO.N,Net-(J4-CC1)*%
X112950000Y-87630000D03*
%TO.N,VDD*%
X152420000Y-125300000D03*
%TO.N,GND*%
X143920000Y-122710000D03*
X145070000Y-122790000D03*
X150380000Y-125920000D03*
%TO.N,/STM32/SWRESET*%
X153920000Y-93930000D03*
%TO.N,GND*%
X147730000Y-69110000D03*
X139780000Y-120970000D03*
X122670000Y-136140000D03*
X136350000Y-72860000D03*
X144190000Y-118520000D03*
X153960000Y-82580000D03*
D35*
X130990000Y-121392500D03*
D34*
X137050000Y-115570000D03*
X130150000Y-128450000D03*
X113060000Y-71750000D03*
D35*
X124530000Y-97380000D03*
D34*
X152640000Y-93880000D03*
X155290000Y-99540000D03*
X145490000Y-98940000D03*
X113440000Y-77590000D03*
D35*
X121920000Y-86235000D03*
D34*
X138740000Y-51030000D03*
X126610000Y-121730000D03*
X147730000Y-70360000D03*
X121750000Y-115070000D03*
X150660000Y-104800000D03*
X150170000Y-116680000D03*
X132260000Y-131200000D03*
D35*
X122110000Y-95112500D03*
D34*
X142110000Y-56700000D03*
X123220000Y-71080000D03*
D35*
X127050000Y-95142500D03*
D34*
X134870000Y-129990000D03*
X147670000Y-106500000D03*
X152070000Y-116680000D03*
X156840000Y-111760000D03*
X151144500Y-121960000D03*
X128800000Y-64280000D03*
D36*
X152080000Y-74320000D03*
D34*
X125170000Y-116630000D03*
D36*
X152094500Y-62390000D03*
D35*
X127050000Y-97380000D03*
D34*
X147730000Y-71650000D03*
X114340000Y-49350000D03*
X111040000Y-131680000D03*
X153920000Y-56950000D03*
D35*
X121920000Y-83997500D03*
D34*
X125870000Y-111850000D03*
D36*
X149500000Y-56950000D03*
D34*
X126240000Y-143640000D03*
D35*
X130990000Y-123630000D03*
D34*
X144660000Y-67560000D03*
D35*
X133410000Y-123660000D03*
X123920000Y-81790000D03*
X121920000Y-81760000D03*
X123940000Y-84000000D03*
X124230000Y-62360000D03*
X124530000Y-95142500D03*
D34*
X154890000Y-114205501D03*
X119190000Y-55390000D03*
X128210000Y-109880000D03*
D35*
X123950000Y-86240000D03*
X122110000Y-97350000D03*
X133410000Y-121422500D03*
D34*
X147580000Y-110340000D03*
X155230000Y-124010000D03*
X137750000Y-110930000D03*
X126380000Y-50100000D03*
X133120000Y-65510000D03*
X148560000Y-116720000D03*
X128527299Y-67257299D03*
%TO.N,/ASIC/1V2*%
X137455000Y-119955000D03*
X127540000Y-119535500D03*
X138090000Y-114844500D03*
X144170000Y-101020000D03*
%TO.N,Net-(U1-VDD_INT_1)*%
X128640000Y-111830000D03*
%TO.N,/ESP32/EN*%
X120500000Y-52700000D03*
X148930000Y-75260000D03*
X155190000Y-87290000D03*
%TO.N,/ESP32/XIN32*%
X145310000Y-73090000D03*
%TO.N,/ESP32/XOUT32*%
X143020000Y-73060000D03*
%TO.N,/SCL*%
X111845000Y-78755000D03*
X126790000Y-61800000D03*
X150335881Y-55320174D03*
%TO.N,/SDA*%
X111985000Y-80075000D03*
X150510728Y-54120728D03*
X126605000Y-63215000D03*
%TO.N,/PWR_EN*%
X141080000Y-64600000D03*
%TO.N,VDD*%
X147910000Y-51920000D03*
D36*
X134000000Y-77310000D03*
D34*
X111965500Y-77494375D03*
X155270000Y-93890000D03*
X106340000Y-136250000D03*
X146410000Y-112180000D03*
X130430000Y-131200000D03*
X152500000Y-122150000D03*
X156710000Y-101500000D03*
X154680000Y-112450000D03*
X155220000Y-82600000D03*
X143720000Y-61850000D03*
X129510000Y-58080000D03*
D35*
X123050000Y-55430000D03*
D34*
X144610000Y-120370000D03*
X126250000Y-51730000D03*
X111890000Y-128350000D03*
D36*
X150810000Y-75720000D03*
D34*
%TO.N,/5V*%
X120780000Y-138500000D03*
D36*
X119160000Y-74930000D03*
D34*
%TO.N,Net-(U16-VIN)*%
X124570000Y-67170000D03*
X130870000Y-64680000D03*
%TO.N,/Power/SW*%
X132380000Y-77450000D03*
X128980000Y-70820000D03*
%TO.N,/PGOOD*%
X139180000Y-63010000D03*
%TO.N,/STM32/SWDIO*%
X155220000Y-89260000D03*
%TO.N,/STM32/SWCLK*%
X153950000Y-88470000D03*
%TO.N,/STM32/SWO*%
X152700000Y-87840000D03*
%TO.N,Net-(J4-CC2)*%
X112810000Y-84000000D03*
%TO.N,Net-(U1-TCK)*%
X136600000Y-114220000D03*
%TO.N,Net-(U1-TDI)*%
X137186218Y-113395500D03*
%TO.N,/ESP32/P_TX*%
X148910000Y-62950000D03*
X153980000Y-87320000D03*
%TO.N,/ESP32/P_RX*%
X148850000Y-87440000D03*
X147640000Y-62950000D03*
%TO.N,/ESP32/IO0*%
X152640000Y-82220000D03*
X137050000Y-52350000D03*
%TO.N,/STM32/RX2*%
X156690000Y-119430000D03*
%TO.N,/STM32/TX2*%
X154390000Y-121870000D03*
%TO.N,Net-(U1-TDO)*%
X137232451Y-112397068D03*
%TO.N,Net-(U1-PINSEL)*%
X125140000Y-115180000D03*
%TO.N,Net-(U1-REFCLKOUT1)*%
X122250000Y-108450000D03*
%TO.N,Net-(U1-TMS)*%
X124260000Y-108460000D03*
%TO.N,Net-(U1-TRST)*%
X126320000Y-108440000D03*
%TO.N,Net-(U1-RX_OUT)*%
X115170000Y-111700000D03*
%TO.N,Net-(U1-RESET_OUT)*%
X117250000Y-111700000D03*
%TO.N,Net-(U1-TX_IN)*%
X119280000Y-111710000D03*
%TO.N,Net-(U16-CS+)*%
X132490000Y-73300000D03*
X133340000Y-71780000D03*
%TO.N,Net-(U1-TRIP_IN)*%
X121350000Y-111710000D03*
%TO.N,Net-(U1-REFCLKOUT2)*%
X139580000Y-123220000D03*
%TO.N,/ASIC/TRIP_OUT*%
X144674500Y-101978422D03*
%TO.N,/ASIC/TX_OUT*%
X145124500Y-102971984D03*
%TO.N,/ASIC/RESET_IN*%
X145574500Y-103914160D03*
%TO.N,/ASIC/CLK*%
X126660000Y-120400000D03*
%TO.N,/STM32/RESET*%
X154690000Y-117430001D03*
X155724500Y-104640000D03*
%TO.N,/ESP32/TX*%
X152480000Y-110030000D03*
%TO.N,/ESP32/RX*%
X151478054Y-110052652D03*
%TO.N,Net-(Q5-G)*%
X125640000Y-85320000D03*
X128540000Y-69200000D03*
%TO.N,/ASIC/RX_IN*%
X146039850Y-104798724D03*
D35*
%TO.N,/COREV*%
X133100000Y-104140000D03*
X130890000Y-104120000D03*
X130890000Y-109500000D03*
X135220000Y-106890000D03*
X130890000Y-106810000D03*
D34*
X141380000Y-71180000D03*
D35*
X135220000Y-109580000D03*
X137280000Y-104170000D03*
X133100000Y-106830000D03*
X137280000Y-106860000D03*
X133100000Y-109520000D03*
X135220000Y-104200000D03*
D34*
%TO.N,/PLUG_SENSE*%
X139315500Y-64120000D03*
X131640000Y-60930000D03*
%TD*%
D37*
%TO.N,/ESP32/RX*%
X151478054Y-110052652D02*
X151770000Y-109760706D01*
X151770000Y-109760706D02*
X151770000Y-99850000D01*
X140340000Y-77930000D02*
X140020000Y-77610000D01*
X151770000Y-99850000D02*
X140340000Y-88420000D01*
X140340000Y-88420000D02*
X140340000Y-77930000D01*
%TO.N,/SDA*%
X111985000Y-80075000D02*
X112555305Y-79504695D01*
X112555305Y-79504695D02*
X112555305Y-79500000D01*
X112555305Y-79500000D02*
X114165000Y-77890305D01*
X114165000Y-77890305D02*
X114165000Y-75655000D01*
X114165000Y-75655000D02*
X126605000Y-63215000D01*
%TO.N,Net-(J4-CC1)*%
X112320000Y-86810000D02*
X110805000Y-86810000D01*
X112950000Y-87630000D02*
X112950000Y-87440000D01*
X112950000Y-87440000D02*
X112320000Y-86810000D01*
%TO.N,/STM32/SWRESET*%
X153920000Y-92265000D02*
X153910000Y-92255000D01*
X153920000Y-93930000D02*
X153920000Y-92265000D01*
%TO.N,GND*%
X153910000Y-56960000D02*
X153920000Y-56950000D01*
D38*
X110805000Y-82360000D02*
X110805000Y-81815000D01*
D39*
X126240000Y-143640000D02*
X128210000Y-141670000D01*
D37*
X125744500Y-116055500D02*
X129144500Y-116055500D01*
X153950000Y-82590000D02*
X153960000Y-82580000D01*
D39*
X152670000Y-74910000D02*
X152670000Y-77890000D01*
X152080000Y-74320000D02*
X152670000Y-74910000D01*
D37*
X136564500Y-116055500D02*
X135409500Y-116055500D01*
X117115002Y-49353000D02*
X114343000Y-49353000D01*
X137050000Y-115570000D02*
X136564500Y-116055500D01*
X151860000Y-56960000D02*
X153910000Y-56960000D01*
X152640000Y-93880000D02*
X152640000Y-92255000D01*
D38*
X110805000Y-89305000D02*
X110230000Y-89880000D01*
D39*
X152720000Y-61764500D02*
X152720000Y-60110000D01*
D37*
X140220002Y-49368000D02*
X140220002Y-49549998D01*
X153950000Y-83861000D02*
X153950000Y-82590000D01*
D38*
X110805000Y-88760000D02*
X110805000Y-89305000D01*
D39*
X152094500Y-62390000D02*
X152720000Y-61764500D01*
D38*
X110805000Y-81815000D02*
X110230000Y-81240000D01*
D37*
X114343000Y-49353000D02*
X114340000Y-49350000D01*
X140220002Y-49549998D02*
X138740000Y-51030000D01*
X125170000Y-116630000D02*
X125744500Y-116055500D01*
%TO.N,/ASIC/1V2*%
X143950000Y-101240000D02*
X143950000Y-110294416D01*
X127540000Y-119535500D02*
X127945000Y-119130500D01*
X127945000Y-119130500D02*
X129144500Y-119130500D01*
X143950000Y-110294416D02*
X139399916Y-114844500D01*
X136630500Y-119130500D02*
X135409500Y-119130500D01*
X144170000Y-101020000D02*
X143950000Y-101240000D01*
X139399916Y-114844500D02*
X138090000Y-114844500D01*
X137455000Y-119955000D02*
X136630500Y-119130500D01*
%TO.N,Net-(U1-VDD_INT_1)*%
X130124500Y-112865000D02*
X130124500Y-112524500D01*
X129430000Y-111830000D02*
X128640000Y-111830000D01*
X130124500Y-112524500D02*
X129430000Y-111830000D01*
%TO.N,/ESP32/EN*%
X150180000Y-77610000D02*
X150180000Y-76510000D01*
X120500000Y-52700000D02*
X121314998Y-51885002D01*
X121314998Y-51885002D02*
X121314998Y-49353000D01*
X155190000Y-87290000D02*
X155190000Y-85161000D01*
X155190000Y-85161000D02*
X155220000Y-85131000D01*
X150180000Y-76510000D02*
X148930000Y-75260000D01*
X150180000Y-77610000D02*
X149885000Y-77315000D01*
%TO.N,/ESP32/XIN32*%
X143930000Y-74470000D02*
X143930000Y-77670000D01*
X145310000Y-73090000D02*
X143930000Y-74470000D01*
%TO.N,/ESP32/XOUT32*%
X142660000Y-73420000D02*
X142660000Y-77670000D01*
X143020000Y-73060000D02*
X142660000Y-73420000D01*
%TO.N,/SCL*%
X112690000Y-77910000D02*
X111845000Y-78755000D01*
X112690000Y-76493604D02*
X112690000Y-77910000D01*
X131800000Y-62240000D02*
X132740000Y-63180000D01*
X126790000Y-61800000D02*
X127230000Y-62240000D01*
X152240000Y-51500000D02*
X151860000Y-51880000D01*
X151860000Y-51880000D02*
X151860000Y-54580000D01*
X126790000Y-61800000D02*
X125790545Y-62799455D01*
X151119826Y-55320174D02*
X150335881Y-55320174D01*
X132740000Y-63180000D02*
X134925000Y-63180000D01*
X151860000Y-54580000D02*
X151119826Y-55320174D01*
X125790545Y-63393059D02*
X112690000Y-76493604D01*
X134925000Y-63180000D02*
X134960000Y-63145000D01*
X125790545Y-62799455D02*
X125790545Y-63393059D01*
X127230000Y-62240000D02*
X131800000Y-62240000D01*
%TO.N,/SDA*%
X148560000Y-51160000D02*
X150510728Y-53110728D01*
X150510728Y-53110728D02*
X150510728Y-54120728D01*
X131590000Y-62690000D02*
X127130000Y-62690000D01*
X134960000Y-64415000D02*
X133315000Y-64415000D01*
X126605000Y-63215000D02*
X127130000Y-62690000D01*
X148560000Y-49340000D02*
X148560000Y-51160000D01*
X133315000Y-64415000D02*
X131590000Y-62690000D01*
%TO.N,/PWR_EN*%
X141080000Y-69060000D02*
X138120000Y-72020000D01*
X141080000Y-64600000D02*
X141080000Y-69060000D01*
X134975000Y-72020000D02*
X134960000Y-72035000D01*
X138120000Y-72020000D02*
X134975000Y-72020000D01*
%TO.N,VDD*%
X155180000Y-93800000D02*
X155180000Y-92255000D01*
D38*
X134000000Y-77310000D02*
X134000000Y-76805000D01*
D37*
X148560000Y-54420000D02*
X148560000Y-52570000D01*
D39*
X151400000Y-77890000D02*
X151400000Y-76310000D01*
D37*
X155220000Y-83861000D02*
X155220000Y-82600000D01*
X148560000Y-52570000D02*
X147910000Y-51920000D01*
X148560000Y-54420000D02*
X148540000Y-54400000D01*
D39*
X151400000Y-76310000D02*
X150810000Y-75720000D01*
D37*
X155270000Y-93890000D02*
X155180000Y-93800000D01*
D38*
X134000000Y-76805000D02*
X134960000Y-75845000D01*
D39*
%TO.N,/5V*%
X133610000Y-139100000D02*
X133030000Y-138520000D01*
X133610000Y-141670000D02*
X133610000Y-139100000D01*
X133030000Y-138520000D02*
X120080000Y-138520000D01*
X120080000Y-138520000D02*
X118420000Y-140180000D01*
X118420000Y-140180000D02*
X118420000Y-141820000D01*
D37*
%TO.N,Net-(U16-VIN)*%
X130080000Y-64680000D02*
X130870000Y-64680000D01*
X124570000Y-67170000D02*
X127590000Y-67170000D01*
X127590000Y-67170000D02*
X130080000Y-64680000D01*
%TO.N,/Power/SW*%
X132380000Y-77450000D02*
X132380000Y-74220000D01*
X132380000Y-74220000D02*
X128980000Y-70820000D01*
%TO.N,/PGOOD*%
X137785000Y-70765000D02*
X134960000Y-70765000D01*
X140040000Y-63819195D02*
X140040000Y-68510000D01*
X139180000Y-63010000D02*
X139230805Y-63010000D01*
X139230805Y-63010000D02*
X140040000Y-63819195D01*
X140040000Y-68510000D02*
X137785000Y-70765000D01*
%TO.N,/STM32/SWDIO*%
X155220000Y-89260000D02*
X155220000Y-90945000D01*
X155220000Y-90945000D02*
X155180000Y-90985000D01*
%TO.N,/STM32/SWCLK*%
X153950000Y-88470000D02*
X153910000Y-88510000D01*
X153910000Y-88510000D02*
X153910000Y-90985000D01*
%TO.N,/STM32/SWO*%
X152700000Y-87840000D02*
X152700000Y-90925000D01*
X152700000Y-90925000D02*
X152640000Y-90985000D01*
%TO.N,Net-(U8-GPIO20{slash}U1CTS{slash}ADC2_CH9{slash}CLK_OUT1{slash}USB_D+)*%
X136510000Y-77910000D02*
X136210000Y-77610000D01*
X112120000Y-84810000D02*
X114740000Y-87430000D01*
X135020000Y-87430000D02*
X136510000Y-85940000D01*
X136510000Y-85940000D02*
X136510000Y-77910000D01*
X110805000Y-85810000D02*
X109930000Y-85810000D01*
X109930000Y-84810000D02*
X110805000Y-84810000D01*
X114740000Y-87430000D02*
X135020000Y-87430000D01*
X109930000Y-85810000D02*
X109760000Y-85640000D01*
X109760000Y-85640000D02*
X109760000Y-84980000D01*
X110805000Y-84810000D02*
X112120000Y-84810000D01*
X109760000Y-84980000D02*
X109930000Y-84810000D01*
%TO.N,Net-(U8-GPIO19{slash}U1RTS{slash}ADC2_CH8{slash}CLK_OUT2{slash}USB_D-)*%
X114420000Y-88050000D02*
X135370000Y-88050000D01*
X110805000Y-85310000D02*
X111680000Y-85310000D01*
X137180000Y-86240000D02*
X137180000Y-77910000D01*
X135370000Y-88050000D02*
X137180000Y-86240000D01*
X112150000Y-85780000D02*
X114420000Y-88050000D01*
X137180000Y-77910000D02*
X137480000Y-77610000D01*
X111620000Y-86310000D02*
X112150000Y-85780000D01*
X111680000Y-85310000D02*
X112150000Y-85780000D01*
X110805000Y-86310000D02*
X111620000Y-86310000D01*
%TO.N,Net-(J4-CC2)*%
X112620000Y-83810000D02*
X110805000Y-83810000D01*
X112810000Y-84000000D02*
X112620000Y-83810000D01*
%TO.N,Net-(U1-TCK)*%
X135409500Y-114210500D02*
X136590500Y-114210500D01*
X136590500Y-114210500D02*
X136600000Y-114220000D01*
%TO.N,Net-(U1-TDI)*%
X135409500Y-113595500D02*
X136199195Y-113595500D01*
X136399195Y-113395500D02*
X137186218Y-113395500D01*
X136199195Y-113595500D02*
X136399195Y-113395500D01*
%TO.N,/ESP32/P_TX*%
X148910000Y-62950000D02*
X148910000Y-60110000D01*
X153980000Y-85161000D02*
X153950000Y-85131000D01*
X153980000Y-87320000D02*
X153980000Y-85161000D01*
%TO.N,/ESP32/P_RX*%
X148850000Y-87440000D02*
X151510000Y-87440000D01*
X151510000Y-87440000D02*
X152680000Y-86270000D01*
X147640000Y-62950000D02*
X147640000Y-60110000D01*
X152680000Y-86270000D02*
X152680000Y-85131000D01*
%TO.N,/ESP32/IO0*%
X144430000Y-50770000D02*
X144419998Y-50759998D01*
X142850000Y-52350000D02*
X144430000Y-50770000D01*
X136210000Y-53190000D02*
X137050000Y-52350000D01*
X152680000Y-82260000D02*
X152640000Y-82220000D01*
X152680000Y-83861000D02*
X152680000Y-82260000D01*
X136210000Y-60110000D02*
X136210000Y-53190000D01*
X137050000Y-52350000D02*
X142850000Y-52350000D01*
X144419998Y-50759998D02*
X144419998Y-49368000D01*
%TO.N,/STM32/RX2*%
X157890000Y-124970000D02*
X157890000Y-120630000D01*
X157890000Y-120630000D02*
X156690000Y-119430000D01*
%TO.N,/STM32/TX2*%
X154390000Y-125430000D02*
X156470000Y-127510000D01*
X154390000Y-121870000D02*
X154390000Y-125430000D01*
X156470000Y-127510000D02*
X157890000Y-127510000D01*
%TO.N,Net-(U1-TDO)*%
X136039500Y-112980500D02*
X136622932Y-112397068D01*
X135409500Y-112980500D02*
X136039500Y-112980500D01*
X136622932Y-112397068D02*
X137232451Y-112397068D01*
%TO.N,Net-(U1-PINSEL)*%
X125400500Y-115440500D02*
X129144500Y-115440500D01*
X125140000Y-115180000D02*
X125400500Y-115440500D01*
%TO.N,Net-(U1-REFCLKOUT1)*%
X129144500Y-114210500D02*
X123400500Y-114210500D01*
X122250000Y-113060000D02*
X122250000Y-108450000D01*
X123400500Y-114210500D02*
X122250000Y-113060000D01*
%TO.N,Net-(U1-TMS)*%
X124685500Y-113595500D02*
X129144500Y-113595500D01*
X124260000Y-108460000D02*
X123690000Y-109030000D01*
X123690000Y-112600000D02*
X124685500Y-113595500D01*
X123690000Y-109030000D02*
X123690000Y-112600000D01*
%TO.N,Net-(U1-TRST)*%
X129144500Y-112980500D02*
X125810500Y-112980500D01*
X125130000Y-112300000D02*
X125130000Y-109630000D01*
X125130000Y-109630000D02*
X126320000Y-108440000D01*
X125810500Y-112980500D02*
X125130000Y-112300000D01*
%TO.N,Net-(U1-RX_OUT)*%
X127659104Y-118780000D02*
X117820000Y-118780000D01*
X115170000Y-116130000D02*
X115170000Y-111700000D01*
X117820000Y-118780000D02*
X115170000Y-116130000D01*
X127923604Y-118515500D02*
X127659104Y-118780000D01*
X129144500Y-118515500D02*
X127923604Y-118515500D01*
%TO.N,Net-(U1-RESET_OUT)*%
X117250000Y-116140000D02*
X117250000Y-111700000D01*
X119440000Y-118330000D02*
X117250000Y-116140000D01*
X127472708Y-118330000D02*
X119440000Y-118330000D01*
X129144500Y-117900500D02*
X127902208Y-117900500D01*
X127902208Y-117900500D02*
X127472708Y-118330000D01*
%TO.N,Net-(U1-TX_IN)*%
X127286312Y-117880000D02*
X120800000Y-117880000D01*
X129144500Y-117285500D02*
X127880812Y-117285500D01*
X120800000Y-117880000D02*
X119280000Y-116360000D01*
X119280000Y-116360000D02*
X119280000Y-111710000D01*
X127880812Y-117285500D02*
X127323156Y-117843156D01*
X127323156Y-117843156D02*
X127286312Y-117880000D01*
%TO.N,Net-(U16-CS+)*%
X133340000Y-72450000D02*
X132490000Y-73300000D01*
X133340000Y-71780000D02*
X133340000Y-72450000D01*
%TO.N,Net-(U1-TRIP_IN)*%
X129144500Y-116670500D02*
X127859416Y-116670500D01*
X120850000Y-112210000D02*
X121350000Y-111710000D01*
X127099916Y-117430000D02*
X122270000Y-117430000D01*
X122270000Y-117430000D02*
X120850000Y-116010000D01*
X120850000Y-116010000D02*
X120850000Y-112210000D01*
X127859416Y-116670500D02*
X127099916Y-117430000D01*
%TO.N,Net-(U1-REFCLKOUT2)*%
X136105500Y-119745500D02*
X139580000Y-123220000D01*
X135409500Y-119745500D02*
X136105500Y-119745500D01*
%TO.N,/ASIC/TRIP_OUT*%
X144400000Y-102252922D02*
X144674500Y-101978422D01*
X135409500Y-116670500D02*
X138210312Y-116670500D01*
X138210312Y-116670500D02*
X144400000Y-110480812D01*
X144400000Y-110480812D02*
X144400000Y-102252922D01*
%TO.N,/ASIC/TX_OUT*%
X144850000Y-110667208D02*
X144850000Y-103246484D01*
X138231708Y-117285500D02*
X144850000Y-110667208D01*
X135409500Y-117285500D02*
X138231708Y-117285500D01*
X144850000Y-103246484D02*
X145124500Y-102971984D01*
%TO.N,/ASIC/RESET_IN*%
X145300000Y-110853604D02*
X145300000Y-104188660D01*
X138253104Y-117900500D02*
X145300000Y-110853604D01*
X135409500Y-117900500D02*
X138253104Y-117900500D01*
X145300000Y-104188660D02*
X145574500Y-103914160D01*
%TO.N,/ASIC/CLK*%
X129144500Y-119745500D02*
X128454500Y-119745500D01*
X128454500Y-119745500D02*
X127800000Y-120400000D01*
X127800000Y-120400000D02*
X126660000Y-120400000D01*
%TO.N,/STM32/RESET*%
X154690000Y-115220000D02*
X153240000Y-113770000D01*
X154690000Y-117430001D02*
X154690000Y-115220000D01*
X153240000Y-113770000D02*
X153240000Y-107124500D01*
X153240000Y-107124500D02*
X155724500Y-104640000D01*
%TO.N,/ESP32/TX*%
X140930000Y-88073604D02*
X140930000Y-77970000D01*
X140930000Y-77970000D02*
X141290000Y-77610000D01*
X152480000Y-110030000D02*
X152480000Y-99623604D01*
X152480000Y-99623604D02*
X140930000Y-88073604D01*
%TO.N,Net-(Q5-G)*%
X125630000Y-85310000D02*
X125630000Y-73150000D01*
X125640000Y-85320000D02*
X125630000Y-85310000D01*
X127429001Y-72630999D02*
X128240000Y-71820000D01*
X125630000Y-73150000D02*
X126149001Y-72630999D01*
X128240000Y-69500000D02*
X128540000Y-69200000D01*
X128240000Y-71820000D02*
X128240000Y-69500000D01*
X126149001Y-72630999D02*
X127429001Y-72630999D01*
%TO.N,/ASIC/RX_IN*%
X145750000Y-111040000D02*
X138274500Y-118515500D01*
X138274500Y-118515500D02*
X135409500Y-118515500D01*
X146039850Y-104798724D02*
X145750000Y-105088574D01*
X145750000Y-105088574D02*
X145750000Y-111040000D01*
%TO.N,/COREV*%
X148925000Y-66835000D02*
X142185000Y-66835000D01*
X150180000Y-65580000D02*
X148925000Y-66835000D01*
X150180000Y-60110000D02*
X150180000Y-65580000D01*
X141850000Y-70710000D02*
X141380000Y-71180000D01*
X141850000Y-67170000D02*
X141850000Y-70710000D01*
X142185000Y-66835000D02*
X141850000Y-67170000D01*
%TO.N,/PLUG_SENSE*%
X130980000Y-60240000D02*
X130330000Y-59590000D01*
X139315500Y-67824500D02*
X137630000Y-69510000D01*
X139315500Y-64120000D02*
X139315500Y-67824500D01*
X137615000Y-69495000D02*
X134960000Y-69495000D01*
X130330000Y-59590000D02*
X114450000Y-59590000D01*
X131640000Y-60930000D02*
X130980000Y-60270000D01*
X130980000Y-60270000D02*
X130980000Y-60240000D01*
X137630000Y-69510000D02*
X137615000Y-69495000D01*
D38*
%TO.N,unconnected-(J4-VBUS-PadB4A9)*%
X110805000Y-83160000D02*
X110835000Y-83130000D01*
%TD*%
%TA.AperFunction,Conductor*%
%TO.N,GND*%
G36*
X134582157Y-115950174D02*
G01*
X134628356Y-116002590D01*
X134640000Y-116055051D01*
X134640000Y-124695740D01*
X134620315Y-124762779D01*
X134567511Y-124808534D01*
X134515741Y-124819740D01*
X129984302Y-124810260D01*
X129917303Y-124790435D01*
X129871659Y-124737535D01*
X129860562Y-124685699D01*
X129899446Y-116092402D01*
X129919434Y-116025452D01*
X129972444Y-115979937D01*
X130022398Y-115968967D01*
X134514954Y-115931055D01*
X134582157Y-115950174D01*
G37*
%TD.AperFunction*%
%TD*%
%TA.AperFunction,Conductor*%
%TO.N,/COREV*%
G36*
X138484407Y-103039707D02*
G01*
X138551398Y-103059548D01*
X138597030Y-103112458D01*
X138608102Y-103165581D01*
X138550563Y-106972719D01*
X138529867Y-107039453D01*
X138528968Y-107040788D01*
X134669999Y-112690000D01*
X134660430Y-115445909D01*
X134640513Y-115512879D01*
X134587550Y-115558451D01*
X134535909Y-115569477D01*
X130034467Y-115550524D01*
X129967511Y-115530557D01*
X129921979Y-115477561D01*
X129910993Y-115425535D01*
X129927629Y-113341007D01*
X129947848Y-113274130D01*
X130001015Y-113228798D01*
X130051625Y-113218000D01*
X130296750Y-113218000D01*
X130296751Y-113217999D01*
X130311568Y-113215052D01*
X130355229Y-113206368D01*
X130355229Y-113206367D01*
X130355231Y-113206367D01*
X130421552Y-113162052D01*
X130465867Y-113095731D01*
X130465867Y-113095729D01*
X130465868Y-113095729D01*
X130477499Y-113037252D01*
X130477500Y-113037250D01*
X130477500Y-112692749D01*
X130477499Y-112692747D01*
X130465867Y-112634269D01*
X130461194Y-112622986D01*
X130464568Y-112621588D01*
X130450020Y-112575110D01*
X130450000Y-112572907D01*
X130450000Y-112541409D01*
X130450236Y-112536002D01*
X130453763Y-112495691D01*
X130443285Y-112456590D01*
X130442118Y-112451330D01*
X130435088Y-112411455D01*
X130435087Y-112411453D01*
X130433260Y-112406433D01*
X130426320Y-112389676D01*
X130424054Y-112384819D01*
X130424054Y-112384816D01*
X130400837Y-112351659D01*
X130397935Y-112347105D01*
X130377694Y-112312045D01*
X130346682Y-112286022D01*
X130342710Y-112282383D01*
X129976025Y-111915699D01*
X129942541Y-111854377D01*
X129939712Y-111827042D01*
X130009016Y-103143292D01*
X130029234Y-103076416D01*
X130082401Y-103031084D01*
X130133295Y-103020286D01*
X138484407Y-103039707D01*
G37*
%TD.AperFunction*%
%TD*%
%TA.AperFunction,Conductor*%
%TO.N,GND*%
G36*
X148453368Y-68539685D02*
G01*
X148499123Y-68592489D01*
X148510329Y-68643670D01*
X148519669Y-72155670D01*
X148500162Y-72222762D01*
X148447480Y-72268657D01*
X148395669Y-72280000D01*
X143104000Y-72280000D01*
X143036961Y-72260315D01*
X142991206Y-72207511D01*
X142980000Y-72156000D01*
X142980000Y-68644000D01*
X142999685Y-68576961D01*
X143052489Y-68531206D01*
X143104000Y-68520000D01*
X148386329Y-68520000D01*
X148453368Y-68539685D01*
G37*
%TD.AperFunction*%
%TD*%
M02*
