%TF.GenerationSoftware,KiCad,Pcbnew,7.0.9*%
%TF.CreationDate,2024-02-22T00:08:18-05:00*%
%TF.ProjectId,blockaxe1,626c6f63-6b61-4786-9531-2e6b69636164,rev?*%
%TF.SameCoordinates,Original*%
%TF.FileFunction,Copper,L1,Top*%
%TF.FilePolarity,Positive*%
%FSLAX46Y46*%
G04 Gerber Fmt 4.6, Leading zero omitted, Abs format (unit mm)*
G04 Created by KiCad (PCBNEW 7.0.9) date 2024-02-22 00:08:18*
%MOMM*%
%LPD*%
G01*
G04 APERTURE LIST*
G04 Aperture macros list*
%AMRoundRect*
0 Rectangle with rounded corners*
0 $1 Rounding radius*
0 $2 $3 $4 $5 $6 $7 $8 $9 X,Y pos of 4 corners*
0 Add a 4 corners polygon primitive as box body*
4,1,4,$2,$3,$4,$5,$6,$7,$8,$9,$2,$3,0*
0 Add four circle primitives for the rounded corners*
1,1,$1+$1,$2,$3*
1,1,$1+$1,$4,$5*
1,1,$1+$1,$6,$7*
1,1,$1+$1,$8,$9*
0 Add four rect primitives between the rounded corners*
20,1,$1+$1,$2,$3,$4,$5,0*
20,1,$1+$1,$4,$5,$6,$7,0*
20,1,$1+$1,$6,$7,$8,$9,0*
20,1,$1+$1,$8,$9,$2,$3,0*%
G04 Aperture macros list end*
%TA.AperFunction,ComponentPad*%
%ADD10C,1.574800*%
%TD*%
%TA.AperFunction,ComponentPad*%
%ADD11O,2.100000X1.000000*%
%TD*%
%TA.AperFunction,ComponentPad*%
%ADD12O,1.800000X1.000000*%
%TD*%
%TA.AperFunction,SMDPad,CuDef*%
%ADD13R,0.787400X0.711200*%
%TD*%
%TA.AperFunction,SMDPad,CuDef*%
%ADD14R,4.500000X4.500000*%
%TD*%
%TA.AperFunction,ComponentPad*%
%ADD15O,1.900000X3.800000*%
%TD*%
%TA.AperFunction,ComponentPad*%
%ADD16O,3.800000X1.900000*%
%TD*%
%TA.AperFunction,SMDPad,CuDef*%
%ADD17C,1.000000*%
%TD*%
%TA.AperFunction,SMDPad,CuDef*%
%ADD18RoundRect,0.100000X-0.637500X-0.100000X0.637500X-0.100000X0.637500X0.100000X-0.637500X0.100000X0*%
%TD*%
%TA.AperFunction,SMDPad,CuDef*%
%ADD19RoundRect,0.135000X-0.135000X-0.185000X0.135000X-0.185000X0.135000X0.185000X-0.135000X0.185000X0*%
%TD*%
%TA.AperFunction,SMDPad,CuDef*%
%ADD20RoundRect,0.140000X0.170000X-0.140000X0.170000X0.140000X-0.170000X0.140000X-0.170000X-0.140000X0*%
%TD*%
%TA.AperFunction,SMDPad,CuDef*%
%ADD21RoundRect,0.150000X0.150000X-0.512500X0.150000X0.512500X-0.150000X0.512500X-0.150000X-0.512500X0*%
%TD*%
%TA.AperFunction,SMDPad,CuDef*%
%ADD22RoundRect,0.250000X-0.475000X0.250000X-0.475000X-0.250000X0.475000X-0.250000X0.475000X0.250000X0*%
%TD*%
%TA.AperFunction,SMDPad,CuDef*%
%ADD23RoundRect,0.140000X-0.140000X-0.170000X0.140000X-0.170000X0.140000X0.170000X-0.140000X0.170000X0*%
%TD*%
%TA.AperFunction,SMDPad,CuDef*%
%ADD24RoundRect,0.250000X-0.250000X-0.475000X0.250000X-0.475000X0.250000X0.475000X-0.250000X0.475000X0*%
%TD*%
%TA.AperFunction,SMDPad,CuDef*%
%ADD25RoundRect,0.140000X-0.170000X0.140000X-0.170000X-0.140000X0.170000X-0.140000X0.170000X0.140000X0*%
%TD*%
%TA.AperFunction,ComponentPad*%
%ADD26C,0.800000*%
%TD*%
%TA.AperFunction,ComponentPad*%
%ADD27C,6.000000*%
%TD*%
%TA.AperFunction,SMDPad,CuDef*%
%ADD28RoundRect,0.100000X-0.100000X0.637500X-0.100000X-0.637500X0.100000X-0.637500X0.100000X0.637500X0*%
%TD*%
%TA.AperFunction,SMDPad,CuDef*%
%ADD29RoundRect,0.135000X0.135000X0.185000X-0.135000X0.185000X-0.135000X-0.185000X0.135000X-0.185000X0*%
%TD*%
%TA.AperFunction,SMDPad,CuDef*%
%ADD30RoundRect,0.250000X0.325000X1.100000X-0.325000X1.100000X-0.325000X-1.100000X0.325000X-1.100000X0*%
%TD*%
%TA.AperFunction,SMDPad,CuDef*%
%ADD31R,0.609600X0.304800*%
%TD*%
%TA.AperFunction,SMDPad,CuDef*%
%ADD32R,0.304800X0.609600*%
%TD*%
%TA.AperFunction,ComponentPad*%
%ADD33C,0.500000*%
%TD*%
%TA.AperFunction,SMDPad,CuDef*%
%ADD34R,2.590800X2.590800*%
%TD*%
%TA.AperFunction,SMDPad,CuDef*%
%ADD35RoundRect,0.140000X0.140000X0.170000X-0.140000X0.170000X-0.140000X-0.170000X0.140000X-0.170000X0*%
%TD*%
%TA.AperFunction,SMDPad,CuDef*%
%ADD36RoundRect,0.135000X0.185000X-0.135000X0.185000X0.135000X-0.185000X0.135000X-0.185000X-0.135000X0*%
%TD*%
%TA.AperFunction,SMDPad,CuDef*%
%ADD37RoundRect,0.250000X-1.100000X0.325000X-1.100000X-0.325000X1.100000X-0.325000X1.100000X0.325000X0*%
%TD*%
%TA.AperFunction,SMDPad,CuDef*%
%ADD38RoundRect,0.250000X-1.025000X0.875000X-1.025000X-0.875000X1.025000X-0.875000X1.025000X0.875000X0*%
%TD*%
%TA.AperFunction,SMDPad,CuDef*%
%ADD39RoundRect,0.225000X0.250000X-0.225000X0.250000X0.225000X-0.250000X0.225000X-0.250000X-0.225000X0*%
%TD*%
%TA.AperFunction,SMDPad,CuDef*%
%ADD40R,1.300000X1.100000*%
%TD*%
%TA.AperFunction,SMDPad,CuDef*%
%ADD41RoundRect,0.225000X-0.225000X-0.250000X0.225000X-0.250000X0.225000X0.250000X-0.225000X0.250000X0*%
%TD*%
%TA.AperFunction,SMDPad,CuDef*%
%ADD42RoundRect,0.135000X-0.185000X0.135000X-0.185000X-0.135000X0.185000X-0.135000X0.185000X0.135000X0*%
%TD*%
%TA.AperFunction,SMDPad,CuDef*%
%ADD43RoundRect,0.112500X0.112500X-0.187500X0.112500X0.187500X-0.112500X0.187500X-0.112500X-0.187500X0*%
%TD*%
%TA.AperFunction,SMDPad,CuDef*%
%ADD44R,1.100000X0.400000*%
%TD*%
%TA.AperFunction,SMDPad,CuDef*%
%ADD45R,0.304800X0.812800*%
%TD*%
%TA.AperFunction,SMDPad,CuDef*%
%ADD46R,0.812800X0.304800*%
%TD*%
%TA.AperFunction,SMDPad,CuDef*%
%ADD47R,5.689600X5.689600*%
%TD*%
%TA.AperFunction,SMDPad,CuDef*%
%ADD48R,0.558800X0.952500*%
%TD*%
%TA.AperFunction,SMDPad,CuDef*%
%ADD49R,0.400000X1.100000*%
%TD*%
%TA.AperFunction,SMDPad,CuDef*%
%ADD50RoundRect,0.250000X0.250000X0.475000X-0.250000X0.475000X-0.250000X-0.475000X0.250000X-0.475000X0*%
%TD*%
%TA.AperFunction,SMDPad,CuDef*%
%ADD51R,3.430000X2.790000*%
%TD*%
%TA.AperFunction,SMDPad,CuDef*%
%ADD52RoundRect,0.250000X0.475000X-0.250000X0.475000X0.250000X-0.475000X0.250000X-0.475000X-0.250000X0*%
%TD*%
%TA.AperFunction,SMDPad,CuDef*%
%ADD53R,1.168400X1.600200*%
%TD*%
%TA.AperFunction,ComponentPad*%
%ADD54R,1.700000X1.700000*%
%TD*%
%TA.AperFunction,ComponentPad*%
%ADD55O,1.700000X1.700000*%
%TD*%
%TA.AperFunction,ViaPad*%
%ADD56C,0.800000*%
%TD*%
%TA.AperFunction,ViaPad*%
%ADD57C,1.400000*%
%TD*%
%TA.AperFunction,ViaPad*%
%ADD58C,1.200000*%
%TD*%
%TA.AperFunction,Conductor*%
%ADD59C,0.500000*%
%TD*%
%TA.AperFunction,Conductor*%
%ADD60C,0.250000*%
%TD*%
%TA.AperFunction,Conductor*%
%ADD61C,0.400000*%
%TD*%
G04 APERTURE END LIST*
D10*
%TO.P,J6,1,Pin_1*%
%TO.N,GND*%
X115880000Y-141820000D03*
%TO.P,J6,2,Pin_2*%
%TO.N,/5V*%
X118420000Y-141820000D03*
%TO.P,J6,3,Pin_3*%
%TO.N,/Fan/FAN_TACH*%
X120960000Y-141820000D03*
%TO.P,J6,4,Pin_4*%
%TO.N,/Fan/FAN_PWM*%
X123500000Y-141820000D03*
%TD*%
D11*
%TO.P,J4,S1,SHIELD*%
%TO.N,GND*%
X110230000Y-89880000D03*
D12*
X106050000Y-89880000D03*
D11*
X110230000Y-81240000D03*
D12*
X106050000Y-81240000D03*
%TD*%
D13*
%TO.P,Q1,1*%
%TO.N,/Power/SW*%
X131194000Y-78035000D03*
%TO.P,Q1,2*%
X131194000Y-76765000D03*
%TO.P,Q1,3,S*%
X131194000Y-75495000D03*
%TO.P,Q1,4,G*%
%TO.N,Net-(Q1-G)*%
X131194000Y-74225000D03*
D14*
%TO.P,Q1,5,D*%
%TO.N,/5V*%
X128220000Y-76140000D03*
D13*
X125606000Y-78035000D03*
X125606000Y-76765000D03*
X125606000Y-75495000D03*
X125606000Y-74225000D03*
%TD*%
D15*
%TO.P,J5,1*%
%TO.N,IN+*%
X117620000Y-64150000D03*
%TO.P,J5,2*%
%TO.N,GND*%
X111690000Y-64150000D03*
D16*
%TO.P,J5,3*%
%TO.N,/PLUG_SENSE*%
X114020000Y-59420000D03*
%TD*%
D17*
%TO.P,TP4,1,1*%
%TO.N,/STM32/SWRESET*%
X157350000Y-95360000D03*
%TD*%
D18*
%TO.P,U12,1,DIR1*%
%TO.N,/ASIC/1V2*%
X147675000Y-100890000D03*
%TO.P,U12,2,DIR2*%
X147675000Y-101540000D03*
%TO.P,U12,3,A1*%
%TO.N,/ASIC/TRIP_OUT*%
X147675000Y-102190000D03*
%TO.P,U12,4,A2*%
%TO.N,/ASIC/TX_OUT*%
X147675000Y-102840000D03*
%TO.P,U12,5,A3*%
%TO.N,/ASIC/RESET_IN*%
X147675000Y-103490000D03*
%TO.P,U12,6,A4*%
%TO.N,/ASIC/RX_IN*%
X147675000Y-104140000D03*
%TO.P,U12,7,DIR3*%
%TO.N,GND*%
X147675000Y-104790000D03*
%TO.P,U12,8,DIR4*%
X147675000Y-105440000D03*
%TO.P,U12,9,OE*%
%TO.N,Net-(U12-OE)*%
X153400000Y-105440000D03*
%TO.P,U12,10,GND*%
%TO.N,GND*%
X153400000Y-104790000D03*
%TO.P,U12,11,B4*%
%TO.N,/STM32/TX6*%
X153400000Y-104140000D03*
%TO.P,U12,12,B3*%
%TO.N,/STM32/RESET*%
X153400000Y-103490000D03*
%TO.P,U12,13,B2*%
%TO.N,/STM32/RX6*%
X153400000Y-102840000D03*
%TO.P,U12,14,B1*%
%TO.N,/STM32/TRIP*%
X153400000Y-102190000D03*
%TO.P,U12,15,VCCB*%
%TO.N,VDD*%
X153400000Y-101540000D03*
%TO.P,U12,16,VCCA*%
%TO.N,/ASIC/1V2*%
X153400000Y-100890000D03*
%TD*%
D17*
%TO.P,TP39,1,1*%
%TO.N,/STM32/RX2*%
X157790000Y-122060000D03*
%TD*%
%TO.P,TP38,1,1*%
%TO.N,/STM32/TX2*%
X154410000Y-127610000D03*
%TD*%
%TO.P,TP37,1,1*%
%TO.N,/PLUG_SENSE*%
X133270000Y-60950000D03*
%TD*%
%TO.P,TP36,1,1*%
%TO.N,/PGOOD*%
X136950000Y-62370000D03*
%TD*%
%TO.P,TP35,1,1*%
%TO.N,/ESP32/TX*%
X153890000Y-109010000D03*
%TD*%
%TO.P,TP34,1,1*%
%TO.N,/ESP32/RX*%
X151700000Y-108820000D03*
%TD*%
%TO.P,TP33,1,1*%
%TO.N,/STM32/RESET*%
X155850000Y-103340000D03*
%TD*%
%TO.P,TP32,1,1*%
%TO.N,/STM32/RX6*%
X148890000Y-109080000D03*
%TD*%
%TO.P,TP31,1,1*%
%TO.N,/STM32/TX6*%
X155270000Y-106720000D03*
%TD*%
%TO.P,TP30,1,1*%
%TO.N,/STM32/TRIP*%
X155700000Y-110110000D03*
%TD*%
%TO.P,TP29,1,1*%
%TO.N,/ASIC/RX_IN*%
X145830000Y-107100000D03*
%TD*%
%TO.P,TP28,1,1*%
%TO.N,/ASIC/RESET_IN*%
X144100000Y-105530000D03*
%TD*%
%TO.P,TP27,1,1*%
%TO.N,/ASIC/TX_OUT*%
X142770000Y-103640000D03*
%TD*%
%TO.P,TP18,1,1*%
%TO.N,/ASIC/TRIP_OUT*%
X142650000Y-101390000D03*
%TD*%
%TO.P,TP2,1,1*%
%TO.N,/PWR_EN*%
X141200000Y-63060000D03*
%TD*%
D19*
%TO.P,R13,1*%
%TO.N,GND*%
X152400000Y-106970000D03*
%TO.P,R13,2*%
%TO.N,Net-(U12-OE)*%
X153420000Y-106970000D03*
%TD*%
D20*
%TO.P,C28,1*%
%TO.N,VDD*%
X155290000Y-101360000D03*
%TO.P,C28,2*%
%TO.N,GND*%
X155290000Y-100400000D03*
%TD*%
%TO.P,C27,1*%
%TO.N,/ASIC/1V2*%
X145490000Y-100730000D03*
%TO.P,C27,2*%
%TO.N,GND*%
X145490000Y-99770000D03*
%TD*%
D19*
%TO.P,R6,1*%
%TO.N,VDD*%
X129520000Y-62340000D03*
%TO.P,R6,2*%
%TO.N,/PGOOD*%
X130540000Y-62340000D03*
%TD*%
D21*
%TO.P,U5,1,VIN*%
%TO.N,VDD*%
X131290000Y-129507500D03*
%TO.P,U5,2,GND*%
%TO.N,GND*%
X132240000Y-129507500D03*
%TO.P,U5,3,EN*%
%TO.N,VDD*%
X133190000Y-129507500D03*
%TO.P,U5,4,ADJ*%
%TO.N,Net-(U5-ADJ)*%
X133190000Y-127232500D03*
%TO.P,U5,5,VOUT*%
%TO.N,/ASIC/1V2*%
X131290000Y-127232500D03*
%TD*%
D22*
%TO.P,C58,1*%
%TO.N,Net-(U16-COMP)*%
X136780000Y-67750000D03*
%TO.P,C58,2*%
%TO.N,/Power/OUT0*%
X136780000Y-69650000D03*
%TD*%
D23*
%TO.P,C49,1*%
%TO.N,/COREV*%
X136810000Y-109740000D03*
%TO.P,C49,2*%
%TO.N,GND*%
X137770000Y-109740000D03*
%TD*%
D24*
%TO.P,C18,1*%
%TO.N,VDD*%
X150310000Y-79020000D03*
%TO.P,C18,2*%
%TO.N,GND*%
X152210000Y-79020000D03*
%TD*%
D25*
%TO.P,C12,1*%
%TO.N,/ASIC/1V2*%
X129340000Y-126940000D03*
%TO.P,C12,2*%
%TO.N,GND*%
X129340000Y-127900000D03*
%TD*%
D23*
%TO.P,C15,1*%
%TO.N,/5V*%
X121390000Y-63770000D03*
%TO.P,C15,2*%
%TO.N,GND*%
X122350000Y-63770000D03*
%TD*%
D25*
%TO.P,C59,1*%
%TO.N,Net-(U16-CS-)*%
X138880000Y-76120000D03*
%TO.P,C59,2*%
%TO.N,Net-(U16-CS+)*%
X138880000Y-77080000D03*
%TD*%
D26*
%TO.P,H1,1,1*%
%TO.N,GND*%
X105109949Y-50173949D03*
X105768959Y-48582959D03*
X105768959Y-51764939D03*
X107359949Y-47923949D03*
D27*
X107359949Y-50173949D03*
D26*
X107359949Y-52423949D03*
X108950939Y-48582959D03*
X108950939Y-51764939D03*
X109609949Y-50173949D03*
%TD*%
D28*
%TO.P,U9,1,IN+*%
%TO.N,IN+*%
X115850000Y-69835000D03*
%TO.P,U9,2,IN+*%
X115200000Y-69835000D03*
%TO.P,U9,3,IN+*%
X114550000Y-69835000D03*
%TO.P,U9,4,A1*%
%TO.N,GND*%
X113900000Y-69835000D03*
%TO.P,U9,5,A0*%
X113250000Y-69835000D03*
%TO.P,U9,6,GND*%
X112600000Y-69835000D03*
%TO.P,U9,7,ALERT*%
%TO.N,unconnected-(U9-ALERT-Pad7)*%
X111950000Y-69835000D03*
%TO.P,U9,8,SDA*%
%TO.N,/SDA*%
X111300000Y-69835000D03*
%TO.P,U9,9,SCL*%
%TO.N,/SCL*%
X111300000Y-75560000D03*
%TO.P,U9,10,VS*%
%TO.N,VDD*%
X111950000Y-75560000D03*
%TO.P,U9,11,GND*%
%TO.N,GND*%
X112600000Y-75560000D03*
%TO.P,U9,12,VBUS*%
%TO.N,IN+*%
X113250000Y-75560000D03*
%TO.P,U9,13,NC*%
%TO.N,unconnected-(U9-NC-Pad13)*%
X113900000Y-75560000D03*
%TO.P,U9,14,IN-*%
%TO.N,/5V*%
X114550000Y-75560000D03*
%TO.P,U9,15,IN-*%
X115200000Y-75560000D03*
%TO.P,U9,16,IN-*%
X115850000Y-75560000D03*
%TD*%
D23*
%TO.P,C45,1*%
%TO.N,/ASIC/1V2*%
X138540000Y-120020000D03*
%TO.P,C45,2*%
%TO.N,GND*%
X139500000Y-120020000D03*
%TD*%
D29*
%TO.P,R9,1*%
%TO.N,/Fan/FAN_PWM*%
X109090000Y-137290000D03*
%TO.P,R9,2*%
%TO.N,VDD*%
X108070000Y-137290000D03*
%TD*%
D30*
%TO.P,C29,1*%
%TO.N,/COREV*%
X130955000Y-90260000D03*
%TO.P,C29,2*%
%TO.N,GND*%
X128005000Y-90260000D03*
%TD*%
D25*
%TO.P,C26,1*%
%TO.N,VDD*%
X111220000Y-129570000D03*
%TO.P,C26,2*%
%TO.N,GND*%
X111220000Y-130530000D03*
%TD*%
D31*
%TO.P,U16,1,SS/TRACK*%
%TO.N,Net-(U16-SS{slash}TRACK)*%
X133520001Y-69549999D03*
%TO.P,U16,2,FB*%
%TO.N,/Power/OUT0*%
X133520001Y-68900001D03*
%TO.P,U16,3,COMP*%
%TO.N,Net-(U16-COMP)*%
X133520001Y-68249999D03*
%TO.P,U16,4,FADJ*%
%TO.N,Net-(U16-FADJ)*%
X133520001Y-67600001D03*
D32*
%TO.P,U16,5,EN*%
%TO.N,/PWR_EN*%
X132590000Y-66670000D03*
%TO.P,U16,6,SYNC*%
%TO.N,GND*%
X131940002Y-66670000D03*
%TO.P,U16,7,VIN*%
%TO.N,Net-(U16-VIN)*%
X131290000Y-66670000D03*
%TO.P,U16,8,PGOOD*%
%TO.N,/PGOOD*%
X130640002Y-66670000D03*
D31*
%TO.P,U16,9,GND*%
%TO.N,GND*%
X129710001Y-67600001D03*
%TO.P,U16,10,VDD*%
%TO.N,Net-(D2-A)*%
X129710001Y-68249999D03*
%TO.P,U16,11,LG*%
%TO.N,Net-(Q5-G)*%
X129710001Y-68900001D03*
%TO.P,U16,12,SW*%
%TO.N,/Power/SW*%
X129710001Y-69549999D03*
D32*
%TO.P,U16,13,CBOOT*%
%TO.N,Net-(D2-K)*%
X130640002Y-70480000D03*
%TO.P,U16,14,HG*%
%TO.N,Net-(Q1-G)*%
X131290000Y-70480000D03*
%TO.P,U16,15,CS-*%
%TO.N,Net-(U16-CS-)*%
X131940002Y-70480000D03*
%TO.P,U16,16,CS+*%
%TO.N,Net-(U16-CS+)*%
X132590000Y-70480000D03*
D33*
%TO.P,U16,17,PAD*%
%TO.N,GND*%
X132505001Y-68575000D03*
X131615001Y-69465000D03*
X131615001Y-68575000D03*
D34*
X131615001Y-68575000D03*
D33*
X131615001Y-67685000D03*
X130735001Y-68575000D03*
%TD*%
D17*
%TO.P,FID1,*%
%TO.N,*%
X107320000Y-55670000D03*
%TD*%
%TO.P,FID4,*%
%TO.N,*%
X151920000Y-142880000D03*
%TD*%
D22*
%TO.P,C57,1*%
%TO.N,Net-(U16-COMP)*%
X139220000Y-66500000D03*
%TO.P,C57,2*%
%TO.N,Net-(C57-Pad2)*%
X139220000Y-68400000D03*
%TD*%
D23*
%TO.P,C23,1*%
%TO.N,VDD*%
X145440000Y-55310000D03*
%TO.P,C23,2*%
%TO.N,GND*%
X146400000Y-55310000D03*
%TD*%
D17*
%TO.P,TP5,1,1*%
%TO.N,/STM32/SWCLK*%
X141750000Y-107720000D03*
%TD*%
%TO.P,TP3,1,1*%
%TO.N,/STM32/SWDIO*%
X149590000Y-94400000D03*
%TD*%
%TO.P,TP20,1,1*%
%TO.N,Net-(U1-TMS)*%
X124300000Y-106810000D03*
%TD*%
D29*
%TO.P,R29,1*%
%TO.N,Net-(C60-Pad2)*%
X137400000Y-74520000D03*
%TO.P,R29,2*%
%TO.N,/Power/OUT0*%
X136380000Y-74520000D03*
%TD*%
D23*
%TO.P,C16,1*%
%TO.N,/ESP32/EN*%
X123950000Y-50510000D03*
%TO.P,C16,2*%
%TO.N,GND*%
X124910000Y-50510000D03*
%TD*%
D35*
%TO.P,C13,1*%
%TO.N,Net-(U1-VDD_INT_1)*%
X127660000Y-111890000D03*
%TO.P,C13,2*%
%TO.N,GND*%
X126700000Y-111890000D03*
%TD*%
D36*
%TO.P,R26,1*%
%TO.N,/Power/SW*%
X137530000Y-79080000D03*
%TO.P,R26,2*%
%TO.N,Net-(C62-Pad1)*%
X137530000Y-78060000D03*
%TD*%
%TO.P,R4,1*%
%TO.N,GND*%
X114600000Y-91550000D03*
%TO.P,R4,2*%
%TO.N,Net-(J4-CC1)*%
X114600000Y-90530000D03*
%TD*%
D37*
%TO.P,C52,1*%
%TO.N,/5V*%
X122210000Y-76465000D03*
%TO.P,C52,2*%
%TO.N,GND*%
X122210000Y-79415000D03*
%TD*%
D38*
%TO.P,C51,1*%
%TO.N,/COREV*%
X132290000Y-112980000D03*
%TO.P,C51,2*%
%TO.N,GND*%
X132290000Y-119380000D03*
%TD*%
D17*
%TO.P,TP22,1,1*%
%TO.N,Net-(U1-RX_OUT)*%
X115200000Y-110100000D03*
%TD*%
D36*
%TO.P,R21,1*%
%TO.N,/5V*%
X121340000Y-73880000D03*
%TO.P,R21,2*%
%TO.N,Net-(U16-VIN)*%
X121340000Y-72860000D03*
%TD*%
D17*
%TO.P,TP21,1,1*%
%TO.N,Net-(U1-TRST)*%
X126310000Y-106750000D03*
%TD*%
D39*
%TO.P,C54,1*%
%TO.N,Net-(D2-K)*%
X125030000Y-69905000D03*
%TO.P,C54,2*%
%TO.N,/Power/SW*%
X125030000Y-68355000D03*
%TD*%
D17*
%TO.P,TP11,1,1*%
%TO.N,GND*%
X116470000Y-55400000D03*
%TD*%
D40*
%TO.P,Y1,1,EN*%
%TO.N,/ASIC/1V2*%
X122680000Y-121750000D03*
%TO.P,Y1,2,GND*%
%TO.N,GND*%
X124980000Y-121750000D03*
%TO.P,Y1,3,OUT*%
%TO.N,/ASIC/CLK*%
X124980000Y-119850000D03*
%TO.P,Y1,4,VIN*%
%TO.N,/ASIC/1V2*%
X122680000Y-119850000D03*
%TD*%
D30*
%TO.P,C30,1*%
%TO.N,/COREV*%
X130945000Y-86900000D03*
%TO.P,C30,2*%
%TO.N,GND*%
X127995000Y-86900000D03*
%TD*%
D17*
%TO.P,TP10,1,1*%
%TO.N,VDD*%
X118770000Y-57720000D03*
%TD*%
D36*
%TO.P,R17,1*%
%TO.N,GND*%
X134870000Y-128750000D03*
%TO.P,R17,2*%
%TO.N,Net-(U5-ADJ)*%
X134870000Y-127730000D03*
%TD*%
D17*
%TO.P,TP15,1,1*%
%TO.N,Net-(U1-TCK)*%
X140900000Y-114120000D03*
%TD*%
D35*
%TO.P,C48,1*%
%TO.N,/COREV*%
X129930000Y-109190000D03*
%TO.P,C48,2*%
%TO.N,GND*%
X128970000Y-109190000D03*
%TD*%
D20*
%TO.P,C4,2*%
%TO.N,GND*%
X146710000Y-110350000D03*
%TO.P,C4,1*%
%TO.N,VDD*%
X146710000Y-111310000D03*
%TD*%
D35*
%TO.P,C7,1*%
%TO.N,GND*%
X124320000Y-123590000D03*
%TO.P,C7,2*%
%TO.N,/ASIC/1V2*%
X123360000Y-123590000D03*
%TD*%
D41*
%TO.P,C62,1*%
%TO.N,Net-(C62-Pad1)*%
X140205000Y-77500000D03*
%TO.P,C62,2*%
%TO.N,/COREV*%
X141755000Y-77500000D03*
%TD*%
D36*
%TO.P,R8,1*%
%TO.N,/Fan/FAN_TACH*%
X112790000Y-130580000D03*
%TO.P,R8,2*%
%TO.N,VDD*%
X112790000Y-129560000D03*
%TD*%
D17*
%TO.P,TP17,1,1*%
%TO.N,Net-(U1-TDO)*%
X138830000Y-112040000D03*
%TD*%
D42*
%TO.P,R5,1*%
%TO.N,GND*%
X112950000Y-82090000D03*
%TO.P,R5,2*%
%TO.N,Net-(J4-CC2)*%
X112950000Y-83110000D03*
%TD*%
D17*
%TO.P,TP6,1,1*%
%TO.N,/STM32/SWO*%
X148140000Y-90890000D03*
%TD*%
D25*
%TO.P,C6,1*%
%TO.N,VDD*%
X147440000Y-122980000D03*
%TO.P,C6,2*%
%TO.N,GND*%
X147440000Y-123940000D03*
%TD*%
D17*
%TO.P,TP16,1,1*%
%TO.N,Net-(U1-TDI)*%
X140930000Y-112060000D03*
%TD*%
D35*
%TO.P,C17,1*%
%TO.N,VDD*%
X121310000Y-55430000D03*
%TO.P,C17,2*%
%TO.N,GND*%
X120350000Y-55430000D03*
%TD*%
D26*
%TO.P,H2,1,1*%
%TO.N,GND*%
X154536959Y-50240939D03*
X155195969Y-48649949D03*
X155195969Y-51831929D03*
X156786959Y-47990939D03*
D27*
X156786959Y-50240939D03*
D26*
X156786959Y-52490939D03*
X158377949Y-48649949D03*
X158377949Y-51831929D03*
X159036959Y-50240939D03*
%TD*%
D43*
%TO.P,D2,1,K*%
%TO.N,Net-(D2-K)*%
X127120000Y-70477500D03*
%TO.P,D2,2,A*%
%TO.N,Net-(D2-A)*%
X127120000Y-68377500D03*
%TD*%
D17*
%TO.P,TP7,1,1*%
%TO.N,/ESP32/EN*%
X118820000Y-53460000D03*
%TD*%
D44*
%TO.P,U10,1,SDA*%
%TO.N,/SDA*%
X147950000Y-58915000D03*
%TO.P,U10,2,SCL*%
%TO.N,/SCL*%
X147950000Y-58265000D03*
%TO.P,U10,3,FS1*%
%TO.N,unconnected-(U10-FS1-Pad3)*%
X147950000Y-57615000D03*
%TO.P,U10,4,GND*%
%TO.N,GND*%
X147950000Y-56965000D03*
%TO.P,U10,5,FS0*%
%TO.N,Net-(U10-FS0)*%
X143650000Y-56965000D03*
%TO.P,U10,6,OUT0*%
%TO.N,/Power/OUT0*%
X143650000Y-57615000D03*
%TO.P,U10,7,OUT1*%
%TO.N,unconnected-(U10-OUT1-Pad7)*%
X143650000Y-58265000D03*
%TO.P,U10,8,VCC*%
%TO.N,VDD*%
X143650000Y-58915000D03*
%TD*%
D29*
%TO.P,R3,1*%
%TO.N,VDD*%
X124950000Y-51750000D03*
%TO.P,R3,2*%
%TO.N,/ESP32/EN*%
X123930000Y-51750000D03*
%TD*%
D35*
%TO.P,C5,1*%
%TO.N,VDD*%
X144580000Y-119440000D03*
%TO.P,C5,2*%
%TO.N,GND*%
X143620000Y-119440000D03*
%TD*%
D25*
%TO.P,C56,1*%
%TO.N,Net-(U16-SS{slash}TRACK)*%
X134850000Y-71350000D03*
%TO.P,C56,2*%
%TO.N,GND*%
X134850000Y-72310000D03*
%TD*%
D45*
%TO.P,U2,1,VBAT*%
%TO.N,VDD*%
X147420000Y-120134400D03*
%TO.P,U2,2,PC13-ANTI_TAMP*%
%TO.N,unconnected-(U2-PC13-ANTI_TAMP-Pad2)*%
X147919999Y-120134400D03*
%TO.P,U2,3,OSC32_IN*%
%TO.N,unconnected-(U2-OSC32_IN-Pad3)*%
X148420001Y-120134400D03*
%TO.P,U2,4,OSC32_OUT*%
%TO.N,unconnected-(U2-OSC32_OUT-Pad4)*%
X148920000Y-120134400D03*
%TO.P,U2,5,OSC_IN*%
%TO.N,unconnected-(U2-OSC_IN-Pad5)*%
X149419999Y-120134400D03*
%TO.P,U2,6,OSC_OUT*%
%TO.N,unconnected-(U2-OSC_OUT-Pad6)*%
X149920000Y-120134400D03*
%TO.P,U2,7,NRST*%
%TO.N,/STM32/SWRESET*%
X150420000Y-120134400D03*
%TO.P,U2,8,VSSA/VREF-*%
%TO.N,GND*%
X150920001Y-120134400D03*
%TO.P,U2,9,VDDA/VREF+*%
%TO.N,VDD*%
X151420000Y-120134400D03*
%TO.P,U2,10,PA0-WKUP*%
%TO.N,unconnected-(U2-PA0-WKUP-Pad10)*%
X151919999Y-120134400D03*
%TO.P,U2,11,PA1*%
%TO.N,unconnected-(U2-PA1-Pad11)*%
X152420001Y-120134400D03*
%TO.P,U2,12,PA2*%
%TO.N,/STM32/TX2*%
X152920000Y-120134400D03*
D46*
%TO.P,U2,13,PA3*%
%TO.N,/STM32/RX2*%
X153624400Y-119430000D03*
%TO.P,U2,14,PA4*%
%TO.N,unconnected-(U2-PA4-Pad14)*%
X153624400Y-118930001D03*
%TO.P,U2,15,PA5*%
%TO.N,unconnected-(U2-PA5-Pad15)*%
X153624400Y-118429999D03*
%TO.P,U2,16,PA6*%
%TO.N,unconnected-(U2-PA6-Pad16)*%
X153624400Y-117930000D03*
%TO.P,U2,17,PA7*%
%TO.N,/STM32/RESET*%
X153624400Y-117430001D03*
%TO.P,U2,18,PB0*%
%TO.N,unconnected-(U2-PB0-Pad18)*%
X153624400Y-116930000D03*
%TO.P,U2,19,PB1*%
%TO.N,unconnected-(U2-PB1-Pad19)*%
X153624400Y-116430000D03*
%TO.P,U2,20,PB2*%
%TO.N,unconnected-(U2-PB2-Pad20)*%
X153624400Y-115929999D03*
%TO.P,U2,21,PB10*%
%TO.N,unconnected-(U2-PB10-Pad21)*%
X153624400Y-115430000D03*
%TO.P,U2,22,VCAP_1*%
%TO.N,Net-(U2-VCAP_1)*%
X153624400Y-114930001D03*
%TO.P,U2,23,VSS*%
%TO.N,GND*%
X153624400Y-114429999D03*
%TO.P,U2,24,VDD*%
%TO.N,VDD*%
X153624400Y-113930000D03*
D45*
%TO.P,U2,25,PB12*%
%TO.N,unconnected-(U2-PB12-Pad25)*%
X152920000Y-113225600D03*
%TO.P,U2,26,PB13*%
%TO.N,unconnected-(U2-PB13-Pad26)*%
X152420001Y-113225600D03*
%TO.P,U2,27,PB14*%
%TO.N,unconnected-(U2-PB14-Pad27)*%
X151919999Y-113225600D03*
%TO.P,U2,28,PB15*%
%TO.N,unconnected-(U2-PB15-Pad28)*%
X151420000Y-113225600D03*
%TO.P,U2,29,PA8*%
%TO.N,/STM32/TRIP*%
X150920001Y-113225600D03*
%TO.P,U2,30,PA9*%
%TO.N,/ESP32/TX*%
X150420000Y-113225600D03*
%TO.P,U2,31,PA10*%
%TO.N,/ESP32/RX*%
X149920000Y-113225600D03*
%TO.P,U2,32,PA11*%
%TO.N,/STM32/TX6*%
X149419999Y-113225600D03*
%TO.P,U2,33,PA12*%
%TO.N,/STM32/RX6*%
X148920000Y-113225600D03*
%TO.P,U2,34,PA13*%
%TO.N,/STM32/SWDIO*%
X148420001Y-113225600D03*
%TO.P,U2,35,VSS*%
%TO.N,GND*%
X147919999Y-113225600D03*
%TO.P,U2,36,VDD*%
%TO.N,VDD*%
X147420000Y-113225600D03*
D46*
%TO.P,U2,37,PA14*%
%TO.N,/STM32/SWCLK*%
X146715600Y-113930000D03*
%TO.P,U2,38,PA15*%
%TO.N,/STM32/SWO*%
X146715600Y-114429999D03*
%TO.P,U2,39,PB3*%
%TO.N,unconnected-(U2-PB3-Pad39)*%
X146715600Y-114930001D03*
%TO.P,U2,40,PB4*%
%TO.N,unconnected-(U2-PB4-Pad40)*%
X146715600Y-115430000D03*
%TO.P,U2,41,PB5*%
%TO.N,unconnected-(U2-PB5-Pad41)*%
X146715600Y-115929999D03*
%TO.P,U2,42,PB6*%
%TO.N,unconnected-(U2-PB6-Pad42)*%
X146715600Y-116430000D03*
%TO.P,U2,43,PB7*%
%TO.N,unconnected-(U2-PB7-Pad43)*%
X146715600Y-116930000D03*
%TO.P,U2,44,BOOT*%
%TO.N,Net-(U2-BOOT)*%
X146715600Y-117430001D03*
%TO.P,U2,45,PB8*%
%TO.N,unconnected-(U2-PB8-Pad45)*%
X146715600Y-117930000D03*
%TO.P,U2,46,PB9*%
%TO.N,unconnected-(U2-PB9-Pad46)*%
X146715600Y-118429999D03*
%TO.P,U2,47,PDR_ON*%
%TO.N,GND*%
X146715600Y-118930001D03*
%TO.P,U2,48,VDD*%
%TO.N,VDD*%
X146715600Y-119430000D03*
D47*
%TO.P,U2,49,EXP*%
%TO.N,GND*%
X150170000Y-116680000D03*
%TD*%
D17*
%TO.P,TP25,1,1*%
%TO.N,Net-(U1-TRIP_IN)*%
X121340000Y-110140000D03*
%TD*%
D24*
%TO.P,C53,1*%
%TO.N,Net-(U16-VIN)*%
X121340000Y-69670000D03*
%TO.P,C53,2*%
%TO.N,GND*%
X123240000Y-69670000D03*
%TD*%
D17*
%TO.P,TP13,1,1*%
%TO.N,/Fan/FAN_TACH*%
X112030000Y-134940000D03*
%TD*%
%TO.P,TP26,1,1*%
%TO.N,Net-(U1-REFCLKOUT2)*%
X139280000Y-124840000D03*
%TD*%
D23*
%TO.P,C22,1*%
%TO.N,VDD*%
X113820000Y-79030000D03*
%TO.P,C22,2*%
%TO.N,GND*%
X114780000Y-79030000D03*
%TD*%
D20*
%TO.P,C10,1*%
%TO.N,VDD*%
X129350000Y-130000000D03*
%TO.P,C10,2*%
%TO.N,GND*%
X129350000Y-129040000D03*
%TD*%
D13*
%TO.P,Q5,1*%
%TO.N,GND*%
X125630000Y-80190000D03*
%TO.P,Q5,2*%
X125630000Y-81460000D03*
%TO.P,Q5,3,S*%
X125630000Y-82730000D03*
%TO.P,Q5,4,G*%
%TO.N,Net-(Q5-G)*%
X125630000Y-84000000D03*
D14*
%TO.P,Q5,5,D*%
%TO.N,/Power/SW*%
X128604000Y-82085000D03*
D13*
X131218000Y-80190000D03*
X131218000Y-81460000D03*
X131218000Y-82730000D03*
X131218000Y-84000000D03*
%TD*%
D17*
%TO.P,TP9,1,1*%
%TO.N,/ESP32/P_RX*%
X146260000Y-63500000D03*
%TD*%
%TO.P,TP24,1,1*%
%TO.N,Net-(U1-TX_IN)*%
X119280000Y-110120000D03*
%TD*%
D20*
%TO.P,C21,1*%
%TO.N,/ESP32/XOUT32*%
X143010000Y-68880000D03*
%TO.P,C21,2*%
%TO.N,GND*%
X143010000Y-67920000D03*
%TD*%
D42*
%TO.P,R24,1*%
%TO.N,Net-(C57-Pad2)*%
X138740000Y-70000000D03*
%TO.P,R24,2*%
%TO.N,/Power/OUT0*%
X138740000Y-71020000D03*
%TD*%
D23*
%TO.P,C3,1*%
%TO.N,VDD*%
X155870000Y-113210000D03*
%TO.P,C3,2*%
%TO.N,GND*%
X156830000Y-113210000D03*
%TD*%
D20*
%TO.P,C19,1*%
%TO.N,/ESP32/XIN32*%
X145950000Y-69120000D03*
%TO.P,C19,2*%
%TO.N,GND*%
X145950000Y-68160000D03*
%TD*%
D19*
%TO.P,R10,1*%
%TO.N,VDD*%
X129530000Y-60930000D03*
%TO.P,R10,2*%
%TO.N,/PLUG_SENSE*%
X130550000Y-60930000D03*
%TD*%
D17*
%TO.P,TP14,1,1*%
%TO.N,/Fan/FAN_PWM*%
X111650000Y-138040000D03*
%TD*%
D48*
%TO.P,U7,1,VIN*%
%TO.N,/5V*%
X121040200Y-60347950D03*
%TO.P,U7,2,GND*%
%TO.N,GND*%
X121980000Y-60347950D03*
%TO.P,U7,3,EN*%
%TO.N,/5V*%
X122919800Y-60347950D03*
%TO.P,U7,4,NC*%
%TO.N,unconnected-(U7-NC-Pad4)*%
X122919800Y-57592050D03*
%TO.P,U7,5,VOUT*%
%TO.N,VDD*%
X121040200Y-57592050D03*
%TD*%
D25*
%TO.P,C1,1*%
%TO.N,/STM32/SWRESET*%
X150950000Y-122970000D03*
%TO.P,C1,2*%
%TO.N,GND*%
X150950000Y-123930000D03*
%TD*%
D49*
%TO.P,U11,1,VDD*%
%TO.N,VDD*%
X107665000Y-135330000D03*
%TO.P,U11,2,DP*%
%TO.N,unconnected-(U11-DP-Pad2)*%
X108315000Y-135330000D03*
%TO.P,U11,3,DN*%
%TO.N,unconnected-(U11-DN-Pad3)*%
X108965000Y-135330000D03*
%TO.P,U11,4,FAN*%
%TO.N,/Fan/FAN_PWM*%
X109615000Y-135330000D03*
%TO.P,U11,5,GND*%
%TO.N,GND*%
X109615000Y-131030000D03*
%TO.P,U11,6,ALERT/TACH*%
%TO.N,/Fan/FAN_TACH*%
X108965000Y-131030000D03*
%TO.P,U11,7,SMDATA*%
%TO.N,/SDA*%
X108315000Y-131030000D03*
%TO.P,U11,8,SMCLK*%
%TO.N,/SCL*%
X107665000Y-131030000D03*
%TD*%
D23*
%TO.P,C20,1*%
%TO.N,VDD*%
X150830000Y-77430000D03*
%TO.P,C20,2*%
%TO.N,GND*%
X151790000Y-77430000D03*
%TD*%
D17*
%TO.P,TP1,1,1*%
%TO.N,/ASIC/1V2*%
X137250000Y-123640000D03*
%TD*%
D50*
%TO.P,C60,1*%
%TO.N,/COREV*%
X140840000Y-74530000D03*
%TO.P,C60,2*%
%TO.N,Net-(C60-Pad2)*%
X138940000Y-74530000D03*
%TD*%
D19*
%TO.P,R12,1*%
%TO.N,VDD*%
X129520000Y-59350000D03*
%TO.P,R12,2*%
%TO.N,/PWR_EN*%
X130540000Y-59350000D03*
%TD*%
D17*
%TO.P,TP19,1,1*%
%TO.N,Net-(U1-REFCLKOUT1)*%
X122250000Y-106840000D03*
%TD*%
D29*
%TO.P,R7,1*%
%TO.N,Net-(U10-FS0)*%
X143620000Y-55490000D03*
%TO.P,R7,2*%
%TO.N,GND*%
X142600000Y-55490000D03*
%TD*%
%TO.P,R27,1*%
%TO.N,/COREV*%
X140910000Y-76110000D03*
%TO.P,R27,2*%
%TO.N,Net-(U16-CS-)*%
X139890000Y-76110000D03*
%TD*%
%TO.P,R30,1*%
%TO.N,/Power/OUT0*%
X138360000Y-72460000D03*
%TO.P,R30,2*%
%TO.N,GND*%
X137340000Y-72460000D03*
%TD*%
%TO.P,R20,1*%
%TO.N,Net-(U1-PINSEL)*%
X123900000Y-116210000D03*
%TO.P,R20,2*%
%TO.N,/ASIC/1V2*%
X122880000Y-116210000D03*
%TD*%
D42*
%TO.P,R1,1*%
%TO.N,/STM32/SWRESET*%
X149710000Y-122940000D03*
%TO.P,R1,2*%
%TO.N,VDD*%
X149710000Y-123960000D03*
%TD*%
D23*
%TO.P,C50,1*%
%TO.N,/COREV*%
X135650000Y-111390000D03*
%TO.P,C50,2*%
%TO.N,GND*%
X136610000Y-111390000D03*
%TD*%
D17*
%TO.P,TP23,1,1*%
%TO.N,Net-(U1-RESET_OUT)*%
X117240000Y-110090000D03*
%TD*%
D20*
%TO.P,C46,1*%
%TO.N,/ASIC/1V2*%
X127550000Y-117610000D03*
%TO.P,C46,2*%
%TO.N,GND*%
X127550000Y-116650000D03*
%TD*%
D51*
%TO.P,L2,1,1*%
%TO.N,/Power/SW*%
X136160000Y-81925000D03*
%TO.P,L2,2,2*%
%TO.N,/COREV*%
X136160000Y-87055000D03*
%TD*%
D36*
%TO.P,R23,1*%
%TO.N,Net-(U16-FADJ)*%
X134790000Y-67550000D03*
%TO.P,R23,2*%
%TO.N,GND*%
X134790000Y-66530000D03*
%TD*%
D52*
%TO.P,C55,1*%
%TO.N,Net-(D2-A)*%
X126890000Y-66570000D03*
%TO.P,C55,2*%
%TO.N,GND*%
X126890000Y-64670000D03*
%TD*%
D26*
%TO.P,H3,1,1*%
%TO.N,GND*%
X105006959Y-142950939D03*
X105665969Y-141359949D03*
X105665969Y-144541929D03*
X107256959Y-140700939D03*
D27*
X107256959Y-142950939D03*
D26*
X107256959Y-145200939D03*
X108847949Y-141359949D03*
X108847949Y-144541929D03*
X109506959Y-142950939D03*
%TD*%
D35*
%TO.P,C47,1*%
%TO.N,/COREV*%
X129930000Y-110700000D03*
%TO.P,C47,2*%
%TO.N,GND*%
X128970000Y-110700000D03*
%TD*%
D19*
%TO.P,R19,1*%
%TO.N,GND*%
X122890000Y-115070000D03*
%TO.P,R19,2*%
%TO.N,Net-(U1-PINSEL)*%
X123910000Y-115070000D03*
%TD*%
D36*
%TO.P,R25,1*%
%TO.N,Net-(C62-Pad1)*%
X136330000Y-78050000D03*
%TO.P,R25,2*%
%TO.N,Net-(U16-CS+)*%
X136330000Y-77030000D03*
%TD*%
D23*
%TO.P,C2,1*%
%TO.N,Net-(U2-VCAP_1)*%
X155860000Y-114920000D03*
%TO.P,C2,2*%
%TO.N,GND*%
X156820000Y-114920000D03*
%TD*%
D42*
%TO.P,R18,1*%
%TO.N,/ASIC/1V2*%
X134870000Y-125510000D03*
%TO.P,R18,2*%
%TO.N,Net-(U5-ADJ)*%
X134870000Y-126530000D03*
%TD*%
D23*
%TO.P,C25,1*%
%TO.N,/5V*%
X121720000Y-137340000D03*
%TO.P,C25,2*%
%TO.N,GND*%
X122680000Y-137340000D03*
%TD*%
D53*
%TO.P,Y2,1,1*%
%TO.N,/ESP32/XIN32*%
X145802400Y-70670000D03*
%TO.P,Y2,2,2*%
%TO.N,/ESP32/XOUT32*%
X142957600Y-70670000D03*
%TD*%
D29*
%TO.P,R28,1*%
%TO.N,/COREV*%
X140830000Y-72470000D03*
%TO.P,R28,2*%
%TO.N,/Power/OUT0*%
X139810000Y-72470000D03*
%TD*%
D19*
%TO.P,R2,1*%
%TO.N,GND*%
X143590000Y-117450000D03*
%TO.P,R2,2*%
%TO.N,Net-(U2-BOOT)*%
X144610000Y-117450000D03*
%TD*%
D17*
%TO.P,TP8,1,1*%
%TO.N,/ESP32/P_TX*%
X149060000Y-64550000D03*
%TD*%
%TO.P,FID8,*%
%TO.N,*%
X112360000Y-142540000D03*
%TD*%
%TO.P,TP12,1,1*%
%TO.N,/ESP32/IO0*%
X135710000Y-51130000D03*
%TD*%
%TO.P,FID7,*%
%TO.N,*%
X156970000Y-55620000D03*
%TD*%
D26*
%TO.P,H4,1,1*%
%TO.N,GND*%
X154603949Y-142847949D03*
X155262959Y-141256959D03*
X155262959Y-144438939D03*
X156853949Y-140597949D03*
D27*
X156853949Y-142847949D03*
D26*
X156853949Y-145097949D03*
X158444939Y-141256959D03*
X158444939Y-144438939D03*
X159103949Y-142847949D03*
%TD*%
D54*
%TO.P,J7,1,Pin_1*%
%TO.N,/STM32/RX2*%
X157890000Y-124970000D03*
D55*
%TO.P,J7,2,Pin_2*%
%TO.N,/STM32/TX2*%
X157890000Y-127510000D03*
%TO.P,J7,3,Pin_3*%
%TO.N,GND*%
X157890000Y-130050000D03*
%TD*%
D56*
%TO.N,GND*%
X123220000Y-71080000D03*
D57*
X127050000Y-95142500D03*
X127050000Y-97380000D03*
D56*
X155290000Y-99540000D03*
X145490000Y-98940000D03*
X138740000Y-51030000D03*
X114340000Y-49350000D03*
X153920000Y-56950000D03*
%TO.N,/SDA*%
X150510728Y-54120728D03*
%TO.N,/SCL*%
X150335881Y-55320174D03*
%TO.N,VDD*%
X147910000Y-51920000D03*
%TO.N,/SDA*%
X126605000Y-63215000D03*
%TO.N,/SCL*%
X126790000Y-61800000D03*
%TO.N,/STM32/RESET*%
X155724500Y-104640000D03*
%TO.N,GND*%
X150660000Y-104800000D03*
X147670000Y-106500000D03*
%TO.N,/ASIC/RX_IN*%
X146039850Y-104798724D03*
%TO.N,/ASIC/RESET_IN*%
X145574500Y-103914160D03*
%TO.N,/ASIC/TX_OUT*%
X145124500Y-102971984D03*
%TO.N,/ASIC/TRIP_OUT*%
X144674500Y-101978422D03*
%TO.N,VDD*%
X156710000Y-101500000D03*
%TO.N,/ASIC/1V2*%
X144170000Y-101020000D03*
%TO.N,/STM32/SWRESET*%
X153920000Y-93930000D03*
%TO.N,GND*%
X147730000Y-69110000D03*
X139780000Y-120970000D03*
X122670000Y-136140000D03*
X136350000Y-72860000D03*
X144190000Y-118520000D03*
X153960000Y-82580000D03*
D57*
X130990000Y-121392500D03*
D56*
X137050000Y-115570000D03*
X130150000Y-128450000D03*
X113060000Y-71750000D03*
D57*
X124530000Y-97380000D03*
D56*
X152640000Y-93880000D03*
X113440000Y-77590000D03*
X146370000Y-123880000D03*
D57*
X121920000Y-86235000D03*
D56*
X126610000Y-121730000D03*
X147730000Y-70360000D03*
X121750000Y-115070000D03*
X150170000Y-116680000D03*
X132260000Y-131200000D03*
D57*
X122110000Y-95112500D03*
D56*
X142110000Y-56700000D03*
X134870000Y-129990000D03*
X152070000Y-116680000D03*
X156840000Y-111760000D03*
X151144500Y-121960000D03*
X128800000Y-64280000D03*
D58*
X152080000Y-74320000D03*
D56*
X125170000Y-116630000D03*
D58*
X152094500Y-62390000D03*
D56*
X147730000Y-71650000D03*
X111040000Y-131680000D03*
D57*
X121920000Y-83997500D03*
D56*
X125870000Y-111850000D03*
D58*
X149500000Y-56950000D03*
D56*
X126240000Y-143640000D03*
X114610000Y-92630000D03*
D57*
X130990000Y-123630000D03*
D56*
X144660000Y-67560000D03*
D57*
X133410000Y-123660000D03*
X123920000Y-81790000D03*
X121920000Y-81760000D03*
X123940000Y-84000000D03*
X124230000Y-62360000D03*
X124530000Y-95142500D03*
D56*
X154890000Y-114205501D03*
X119190000Y-55390000D03*
X128210000Y-109880000D03*
D57*
X123950000Y-86240000D03*
X122110000Y-97350000D03*
X133410000Y-121422500D03*
D56*
X147580000Y-110340000D03*
X152310000Y-123980000D03*
X137750000Y-110930000D03*
X126380000Y-50100000D03*
X133120000Y-65510000D03*
X148560000Y-116720000D03*
X128527299Y-67257299D03*
%TO.N,/ASIC/1V2*%
X137455000Y-119955000D03*
X127540000Y-119535500D03*
X138090000Y-114844500D03*
%TO.N,Net-(U1-VDD_INT_1)*%
X128640000Y-111830000D03*
%TO.N,/ESP32/EN*%
X120500000Y-52700000D03*
X148930000Y-75260000D03*
X155190000Y-87290000D03*
D57*
%TO.N,/COREV*%
X133100000Y-104140000D03*
X130890000Y-104120000D03*
X130890000Y-109500000D03*
X135220000Y-106890000D03*
X130890000Y-106810000D03*
D56*
X141380000Y-71180000D03*
D57*
X135220000Y-109580000D03*
X137280000Y-104170000D03*
X133100000Y-106830000D03*
X137280000Y-106860000D03*
X133100000Y-109520000D03*
X135220000Y-104200000D03*
D56*
%TO.N,/ESP32/XIN32*%
X145310000Y-73090000D03*
%TO.N,/ESP32/XOUT32*%
X143020000Y-73060000D03*
%TO.N,/SCL*%
X111845000Y-78755000D03*
%TO.N,/SDA*%
X110435000Y-78905000D03*
%TO.N,/PWR_EN*%
X141080000Y-64600000D03*
D58*
%TO.N,VDD*%
X134000000Y-77310000D03*
D56*
X111965500Y-77494375D03*
X155270000Y-93890000D03*
X106340000Y-136250000D03*
X146410000Y-112180000D03*
X130430000Y-131200000D03*
X152500000Y-122150000D03*
X154680000Y-112450000D03*
X155220000Y-82600000D03*
X143720000Y-61850000D03*
X129510000Y-58080000D03*
D57*
X123050000Y-55430000D03*
D56*
X144610000Y-120370000D03*
X126250000Y-51730000D03*
X148590000Y-123440000D03*
X111890000Y-128350000D03*
D58*
X150810000Y-75720000D03*
D56*
%TO.N,/5V*%
X120780000Y-138500000D03*
D58*
X119160000Y-74930000D03*
D56*
%TO.N,Net-(U16-VIN)*%
X124570000Y-67170000D03*
X130870000Y-64680000D03*
%TO.N,/Power/SW*%
X132380000Y-77450000D03*
X128980000Y-70820000D03*
%TO.N,/PGOOD*%
X139180000Y-63010000D03*
%TO.N,/STM32/SWDIO*%
X155220000Y-89260000D03*
%TO.N,/STM32/RESET*%
X154690000Y-117430001D03*
%TO.N,/STM32/SWCLK*%
X153950000Y-88470000D03*
%TO.N,/STM32/SWO*%
X152700000Y-87840000D03*
%TO.N,Net-(J4-CC1)*%
X115467700Y-90122300D03*
%TO.N,Net-(J4-CC2)*%
X112810000Y-84000000D03*
%TO.N,Net-(U1-TCK)*%
X136600000Y-114220000D03*
%TO.N,Net-(U1-TDI)*%
X137186218Y-113395500D03*
%TO.N,/ESP32/P_TX*%
X148910000Y-62950000D03*
X153980000Y-87320000D03*
%TO.N,/ESP32/P_RX*%
X148850000Y-87440000D03*
X147640000Y-62950000D03*
%TO.N,/ESP32/IO0*%
X152640000Y-82220000D03*
X137050000Y-52350000D03*
%TO.N,/STM32/RX2*%
X156690000Y-119430000D03*
%TO.N,/STM32/TX2*%
X154390000Y-121870000D03*
%TO.N,Net-(U1-TDO)*%
X137232451Y-112397068D03*
%TO.N,Net-(U1-PINSEL)*%
X125140000Y-115180000D03*
%TO.N,Net-(U1-REFCLKOUT1)*%
X122250000Y-108450000D03*
%TO.N,Net-(U1-TMS)*%
X124260000Y-108460000D03*
%TO.N,Net-(U1-TRST)*%
X126320000Y-108440000D03*
%TO.N,Net-(U1-RX_OUT)*%
X115170000Y-111700000D03*
%TO.N,Net-(U1-RESET_OUT)*%
X117250000Y-111700000D03*
%TO.N,Net-(U1-TX_IN)*%
X119280000Y-111710000D03*
%TO.N,Net-(U16-CS+)*%
X132490000Y-73300000D03*
X133340000Y-71780000D03*
%TO.N,Net-(U1-TRIP_IN)*%
X121350000Y-111710000D03*
%TO.N,Net-(U1-REFCLKOUT2)*%
X139580000Y-123220000D03*
%TO.N,/ASIC/CLK*%
X126660000Y-120400000D03*
%TO.N,/ESP32/TX*%
X152480000Y-110030000D03*
%TO.N,/ESP32/RX*%
X151478054Y-110052652D03*
%TO.N,Net-(Q5-G)*%
X125640000Y-85320000D03*
X128540000Y-69200000D03*
%TO.N,/PLUG_SENSE*%
X139315500Y-64120000D03*
X131640000Y-60930000D03*
%TD*%
D59*
%TO.N,GND*%
X149500000Y-56950000D02*
X149485000Y-56965000D01*
X149485000Y-56965000D02*
X147950000Y-56965000D01*
D60*
%TO.N,/SDA*%
X147950000Y-58915000D02*
X149965000Y-58915000D01*
X151250000Y-54860000D02*
X150580000Y-54190000D01*
X131738299Y-54190000D02*
X125860000Y-60068299D01*
X151250000Y-57630000D02*
X151250000Y-54860000D01*
X150580000Y-54190000D02*
X131738299Y-54190000D01*
X149965000Y-58915000D02*
X151250000Y-57630000D01*
X125860000Y-60068299D02*
X125860000Y-62470000D01*
X125860000Y-62470000D02*
X126605000Y-63215000D01*
%TO.N,/STM32/TX6*%
X149419999Y-113225600D02*
X149419999Y-110190001D01*
X155000000Y-106840000D02*
X155000000Y-104520000D01*
X150170000Y-108340000D02*
X150820000Y-107690000D01*
X155000000Y-104520000D02*
X154620000Y-104140000D01*
X149419999Y-110190001D02*
X150170000Y-109440000D01*
X154150000Y-107690000D02*
X155000000Y-106840000D01*
X150820000Y-107690000D02*
X154150000Y-107690000D01*
X154620000Y-104140000D02*
X153400000Y-104140000D01*
X150170000Y-109440000D02*
X150170000Y-108340000D01*
%TO.N,/SDA*%
X110435000Y-78905000D02*
X110410000Y-78880000D01*
X110410000Y-78880000D02*
X110410000Y-72010000D01*
X110410000Y-72010000D02*
X111300000Y-71120000D01*
X111300000Y-71120000D02*
X111300000Y-69835000D01*
%TO.N,/SCL*%
X111900000Y-91760000D02*
X113025000Y-90635000D01*
X106440000Y-129805000D02*
X106440000Y-94130000D01*
X106440000Y-94130000D02*
X108810000Y-91760000D01*
X107665000Y-131030000D02*
X106440000Y-129805000D01*
X108810000Y-91760000D02*
X111900000Y-91760000D01*
X113025000Y-90635000D02*
X113025000Y-88465000D01*
X113025000Y-88465000D02*
X115172500Y-86317500D01*
X115172500Y-86317500D02*
X115172500Y-82082500D01*
X115172500Y-82082500D02*
X111845000Y-78755000D01*
%TO.N,/SDA*%
X112575000Y-90448604D02*
X111713604Y-91310000D01*
X108623604Y-91310000D02*
X105990000Y-93943604D01*
X105990000Y-93943604D02*
X105990000Y-97160000D01*
X111713604Y-91310000D02*
X108623604Y-91310000D01*
X108315000Y-131030000D02*
X108315000Y-132275000D01*
X107970000Y-132620000D02*
X107550000Y-132620000D01*
X108315000Y-132275000D02*
X107970000Y-132620000D01*
X107550000Y-132620000D02*
X105990000Y-131060000D01*
X105990000Y-131060000D02*
X105990000Y-97033604D01*
%TO.N,GND*%
X122670000Y-136140000D02*
X122670000Y-137330000D01*
X122670000Y-137330000D02*
X122680000Y-137340000D01*
%TO.N,/5V*%
X120780000Y-138280000D02*
X121720000Y-137340000D01*
X120780000Y-138500000D02*
X120780000Y-138280000D01*
%TO.N,/Fan/FAN_PWM*%
X123500000Y-141820000D02*
X122362699Y-142957301D01*
X119462699Y-142957301D02*
X118740000Y-143680000D01*
X118740000Y-143680000D02*
X115890000Y-143680000D01*
X122362699Y-142957301D02*
X119462699Y-142957301D01*
X115890000Y-143680000D02*
X111650000Y-139440000D01*
X111650000Y-139440000D02*
X111650000Y-138040000D01*
%TO.N,Net-(U16-CS+)*%
X132490000Y-73300000D02*
X136270000Y-77080000D01*
X136270000Y-77080000D02*
X138880000Y-77080000D01*
%TO.N,Net-(C62-Pad1)*%
X138900000Y-78050000D02*
X139350000Y-78050000D01*
X139350000Y-78050000D02*
X139900000Y-77500000D01*
X139900000Y-77500000D02*
X140205000Y-77500000D01*
X137530000Y-78060000D02*
X136340000Y-78060000D01*
X136340000Y-78060000D02*
X136330000Y-78050000D01*
%TO.N,Net-(Q5-G)*%
X125630000Y-84000000D02*
X125630000Y-85310000D01*
X125630000Y-85310000D02*
X125640000Y-85320000D01*
%TO.N,Net-(U16-VIN)*%
X121340000Y-72860000D02*
X121340000Y-69670000D01*
%TO.N,Net-(Q1-G)*%
X131290000Y-72930000D02*
X131194000Y-73026000D01*
X131194000Y-73026000D02*
X131194000Y-74225000D01*
D59*
%TO.N,VDD*%
X111955000Y-76903750D02*
X111955000Y-76470000D01*
X111955000Y-76470000D02*
X111965500Y-76480500D01*
X111965500Y-76480500D02*
X111965500Y-77494375D01*
D60*
X113501125Y-79030000D02*
X113820000Y-79030000D01*
X111965500Y-77494375D02*
X113501125Y-79030000D01*
D59*
%TO.N,/5V*%
X121040200Y-60347950D02*
X121040200Y-67649800D01*
X121040200Y-67649800D02*
X120020000Y-68670000D01*
X120020000Y-68670000D02*
X120020000Y-74070000D01*
X120020000Y-74070000D02*
X119160000Y-74930000D01*
D60*
%TO.N,Net-(U16-VIN)*%
X121340000Y-69670000D02*
X123840000Y-67170000D01*
X123840000Y-67170000D02*
X124570000Y-67170000D01*
%TO.N,GND*%
X123240000Y-71060000D02*
X123220000Y-71080000D01*
X123240000Y-69670000D02*
X123240000Y-71060000D01*
%TO.N,Net-(U1-PINSEL)*%
X125140000Y-115180000D02*
X124020000Y-115180000D01*
X124020000Y-115180000D02*
X123910000Y-115070000D01*
%TO.N,/ASIC/1V2*%
X122990000Y-118950000D02*
X123000000Y-118950000D01*
X123000000Y-118950000D02*
X123600000Y-118350000D01*
%TO.N,/ASIC/CLK*%
X126660000Y-120400000D02*
X126110000Y-119850000D01*
X126110000Y-119850000D02*
X124980000Y-119850000D01*
%TO.N,/ASIC/1V2*%
X127540000Y-119535500D02*
X126354500Y-118350000D01*
X123600000Y-118350000D02*
X122880000Y-117630000D01*
X126354500Y-118350000D02*
X123600000Y-118350000D01*
X122880000Y-117630000D02*
X122880000Y-116210000D01*
%TO.N,/ESP32/RX*%
X151700000Y-108820000D02*
X151700000Y-109830706D01*
X151700000Y-109830706D02*
X151478054Y-110052652D01*
%TO.N,/ESP32/TX*%
X152480000Y-110030000D02*
X152870000Y-110030000D01*
X152870000Y-110030000D02*
X153890000Y-109010000D01*
%TO.N,/STM32/TRIP*%
X150920001Y-113225600D02*
X150920001Y-111669999D01*
X150920001Y-111669999D02*
X151360000Y-111230000D01*
X154580000Y-111230000D02*
X157070000Y-108740000D01*
X151360000Y-111230000D02*
X154580000Y-111230000D01*
X157070000Y-108740000D02*
X157070000Y-102885305D01*
X156374695Y-102190000D02*
X153400000Y-102190000D01*
X157070000Y-102885305D02*
X156374695Y-102190000D01*
%TO.N,/STM32/RESET*%
X155850000Y-103340000D02*
X154756396Y-103340000D01*
X154756396Y-103340000D02*
X154606396Y-103490000D01*
%TO.N,GND*%
X152400000Y-106970000D02*
X152400000Y-106540000D01*
X152400000Y-106540000D02*
X150660000Y-104800000D01*
%TO.N,Net-(U12-OE)*%
X153420000Y-106970000D02*
X153420000Y-105460000D01*
X153420000Y-105460000D02*
X153400000Y-105440000D01*
%TO.N,GND*%
X155290000Y-100400000D02*
X155290000Y-99540000D01*
%TO.N,VDD*%
X153400000Y-101540000D02*
X156670000Y-101540000D01*
X156670000Y-101540000D02*
X156710000Y-101500000D01*
%TO.N,GND*%
X145490000Y-99770000D02*
X145490000Y-98940000D01*
%TO.N,/ASIC/TRIP_OUT*%
X142650000Y-101390000D02*
X143238422Y-101978422D01*
X143238422Y-101978422D02*
X144674500Y-101978422D01*
%TO.N,/ASIC/TX_OUT*%
X142770000Y-103640000D02*
X144456484Y-103640000D01*
X144456484Y-103640000D02*
X145124500Y-102971984D01*
%TO.N,/ASIC/RESET_IN*%
X144100000Y-105530000D02*
X144100000Y-105388660D01*
X144100000Y-105388660D02*
X145574500Y-103914160D01*
%TO.N,/ASIC/RX_IN*%
X145830000Y-107100000D02*
X145830000Y-105008574D01*
X145830000Y-105008574D02*
X146039850Y-104798724D01*
%TO.N,/STM32/SWDIO*%
X148420001Y-113225600D02*
X148420001Y-110110001D01*
X148420001Y-110110001D02*
X147840000Y-109530000D01*
X147840000Y-109530000D02*
X145753604Y-109530000D01*
X145753604Y-109530000D02*
X141530000Y-105306396D01*
X141530000Y-105306396D02*
X141530000Y-99672792D01*
X141530000Y-99672792D02*
X147325990Y-93876802D01*
X147325990Y-93876802D02*
X149036802Y-93876802D01*
%TO.N,/STM32/SWCLK*%
X141080000Y-107730000D02*
X141080000Y-99486396D01*
X141080000Y-99486396D02*
X149390000Y-91176396D01*
X149390000Y-91176396D02*
X149390000Y-89816396D01*
X149390000Y-89816396D02*
X150406396Y-88800000D01*
X150406396Y-88800000D02*
X153620000Y-88800000D01*
X153620000Y-88800000D02*
X153950000Y-88470000D01*
%TO.N,/STM32/SWO*%
X146715600Y-114429999D02*
X145159999Y-114429999D01*
X145159999Y-114429999D02*
X140630000Y-109900000D01*
X140630000Y-109900000D02*
X140630000Y-99300000D01*
X140630000Y-99300000D02*
X148940000Y-90990000D01*
X148940000Y-90990000D02*
X148940000Y-90980000D01*
%TO.N,VDD*%
X147420000Y-120134400D02*
X147420000Y-122960000D01*
X147420000Y-122960000D02*
X147440000Y-122980000D01*
%TO.N,/STM32/RX2*%
X157790000Y-122060000D02*
X157790000Y-124870000D01*
X157790000Y-124870000D02*
X157890000Y-124970000D01*
%TO.N,/STM32/TX2*%
X154410000Y-127610000D02*
X157790000Y-127610000D01*
X157790000Y-127610000D02*
X157890000Y-127510000D01*
D59*
%TO.N,/COREV*%
X141755000Y-84405000D02*
X139125000Y-87035000D01*
X140840000Y-74530000D02*
X140840000Y-72480000D01*
X140840000Y-72480000D02*
X140830000Y-72470000D01*
X140910000Y-76110000D02*
X140910000Y-74600000D01*
X140910000Y-74600000D02*
X140840000Y-74530000D01*
X141755000Y-76955000D02*
X140910000Y-76110000D01*
D60*
%TO.N,/SCL*%
X150610000Y-55530000D02*
X150610000Y-57450000D01*
X149730000Y-54650000D02*
X150610000Y-55530000D01*
X126790000Y-61800000D02*
X126790000Y-59774695D01*
X126790000Y-59774695D02*
X131914695Y-54650000D01*
X131914695Y-54650000D02*
X149730000Y-54650000D01*
X150610000Y-57450000D02*
X149795000Y-58265000D01*
X149795000Y-58265000D02*
X147950000Y-58265000D01*
%TO.N,/STM32/RX6*%
X148920000Y-113225600D02*
X148920000Y-105514695D01*
X148920000Y-105514695D02*
X151594695Y-102840000D01*
X151594695Y-102840000D02*
X153400000Y-102840000D01*
%TO.N,/STM32/RESET*%
X155724500Y-104608104D02*
X154606396Y-103490000D01*
X155724500Y-104640000D02*
X155724500Y-104608104D01*
X154606396Y-103490000D02*
X153400000Y-103490000D01*
%TO.N,/ASIC/1V2*%
X144300000Y-100890000D02*
X147675000Y-100890000D01*
X144170000Y-101020000D02*
X144300000Y-100890000D01*
%TO.N,GND*%
X150670000Y-104790000D02*
X150660000Y-104800000D01*
X153400000Y-104790000D02*
X150670000Y-104790000D01*
X147675000Y-106495000D02*
X147670000Y-106500000D01*
X147675000Y-105440000D02*
X147675000Y-106495000D01*
X147675000Y-104790000D02*
X147675000Y-105440000D01*
%TO.N,/ASIC/RX_IN*%
X146039850Y-104798724D02*
X146698574Y-104140000D01*
X146698574Y-104140000D02*
X147675000Y-104140000D01*
%TO.N,/ASIC/RESET_IN*%
X145574500Y-103914160D02*
X145998660Y-103490000D01*
X145998660Y-103490000D02*
X147675000Y-103490000D01*
%TO.N,/ASIC/TX_OUT*%
X145124500Y-102971984D02*
X145256484Y-102840000D01*
X145256484Y-102840000D02*
X147675000Y-102840000D01*
%TO.N,/ASIC/TRIP_OUT*%
X144674500Y-101978422D02*
X144886078Y-102190000D01*
X144886078Y-102190000D02*
X147675000Y-102190000D01*
%TO.N,/ASIC/1V2*%
X147675000Y-100890000D02*
X153400000Y-100890000D01*
X147675000Y-100890000D02*
X147675000Y-101540000D01*
%TO.N,/Fan/FAN_TACH*%
X120960000Y-141820000D02*
X116790000Y-137650000D01*
X116790000Y-137650000D02*
X114785000Y-137650000D01*
X114785000Y-137650000D02*
X110892500Y-133757500D01*
%TO.N,/STM32/SWRESET*%
X150950000Y-122970000D02*
X154830000Y-122970000D01*
X154605000Y-94615000D02*
X153920000Y-93930000D01*
X154830000Y-122970000D02*
X158160000Y-119640000D01*
X158160000Y-119640000D02*
X158160000Y-96140000D01*
X158160000Y-96140000D02*
X156635000Y-94615000D01*
X156635000Y-94615000D02*
X154605000Y-94615000D01*
%TO.N,/ASIC/1V2*%
X129050000Y-125490000D02*
X131300000Y-125490000D01*
X131300000Y-125490000D02*
X135640000Y-125490000D01*
X131290000Y-127232500D02*
X131290000Y-125500000D01*
X131290000Y-125500000D02*
X131300000Y-125490000D01*
X122990000Y-118950000D02*
X122680000Y-119260000D01*
X122680000Y-119260000D02*
X122680000Y-119850000D01*
%TO.N,/STM32/SWRESET*%
X149750000Y-122900000D02*
X149710000Y-122940000D01*
X150420000Y-122870000D02*
X150420000Y-120134400D01*
X150950000Y-122970000D02*
X150320000Y-122970000D01*
X150320000Y-122970000D02*
X149740000Y-122970000D01*
X150320000Y-122970000D02*
X150420000Y-122870000D01*
X149740000Y-122970000D02*
X149710000Y-122940000D01*
%TO.N,GND*%
X133120000Y-65510000D02*
X134140000Y-66530000D01*
X136750000Y-72460000D02*
X136350000Y-72860000D01*
X152210000Y-77850000D02*
X152210000Y-79020000D01*
X124980000Y-122930000D02*
X124980000Y-121750000D01*
X147580000Y-110340000D02*
X147919999Y-110679999D01*
X114780000Y-78930000D02*
X113440000Y-77590000D01*
X114600000Y-92620000D02*
X114610000Y-92630000D01*
X146400000Y-55415000D02*
X147950000Y-56965000D01*
X152080000Y-74320000D02*
X151790000Y-74610000D01*
X134140000Y-66530000D02*
X134790000Y-66530000D01*
X150920001Y-120134400D02*
X150920001Y-121735501D01*
X145260000Y-68160000D02*
X144660000Y-67560000D01*
X112600000Y-69835000D02*
X113900000Y-69835000D01*
X137290000Y-111390000D02*
X137750000Y-110930000D01*
X147570000Y-110350000D02*
X147580000Y-110340000D01*
X125870000Y-111850000D02*
X126660000Y-111850000D01*
X114780000Y-79030000D02*
X114780000Y-78930000D01*
X113440000Y-77590000D02*
X112605000Y-76755000D01*
X116470000Y-55400000D02*
X119180000Y-55400000D01*
X156820000Y-113220000D02*
X156830000Y-113210000D01*
X125190000Y-116650000D02*
X127550000Y-116650000D01*
X144631490Y-118520000D02*
X144190000Y-118520000D01*
X124320000Y-123590000D02*
X124980000Y-122930000D01*
X128970000Y-110700000D02*
X128970000Y-110640000D01*
X142110000Y-55980000D02*
X142600000Y-55490000D01*
X129340000Y-128470000D02*
X130130000Y-128470000D01*
X147580000Y-110340000D02*
X147420000Y-110340000D01*
X128800000Y-64280000D02*
X127680000Y-64280000D01*
X137770000Y-110910000D02*
X137750000Y-110930000D01*
X136610000Y-111390000D02*
X137290000Y-111390000D01*
X111220000Y-131500000D02*
X111040000Y-131680000D01*
X143620000Y-119440000D02*
X143620000Y-119090000D01*
X143010000Y-67920000D02*
X144300000Y-67920000D01*
X128970000Y-110640000D02*
X128210000Y-109880000D01*
X130130000Y-128470000D02*
X130150000Y-128450000D01*
X151790000Y-77430000D02*
X152210000Y-77850000D01*
X125970000Y-50510000D02*
X124910000Y-50510000D01*
D59*
X132240000Y-129507500D02*
X132240000Y-131180000D01*
D60*
X143620000Y-119090000D02*
X144190000Y-118520000D01*
X156820000Y-114920000D02*
X156820000Y-113220000D01*
X127680000Y-64280000D02*
X127130000Y-64830000D01*
X134870000Y-128750000D02*
X134870000Y-129990000D01*
X156830000Y-111770000D02*
X156840000Y-111760000D01*
X113250000Y-69835000D02*
X113250000Y-71560000D01*
X142110000Y-56700000D02*
X142110000Y-55980000D01*
X129710001Y-67600001D02*
X128870001Y-67600001D01*
X120350000Y-55430000D02*
X119230000Y-55430000D01*
X113250000Y-71560000D02*
X113060000Y-71750000D01*
X114600000Y-91550000D02*
X114600000Y-92620000D01*
D59*
X121980000Y-61860000D02*
X121980000Y-60347950D01*
X132240000Y-131180000D02*
X132260000Y-131200000D01*
D60*
X112605000Y-76755000D02*
X112605000Y-75351250D01*
X145041491Y-118930001D02*
X144631490Y-118520000D01*
X146710000Y-110350000D02*
X147570000Y-110350000D01*
X143590000Y-117920000D02*
X144190000Y-118520000D01*
X147919999Y-110679999D02*
X147919999Y-113225600D01*
X154665502Y-114429999D02*
X154890000Y-114205501D01*
X139500000Y-120690000D02*
X139780000Y-120970000D01*
X128900000Y-109190000D02*
X128210000Y-109880000D01*
X147440000Y-123940000D02*
X146430000Y-123940000D01*
X109615000Y-131475000D02*
X109615000Y-131030000D01*
X129340000Y-129030000D02*
X129350000Y-129040000D01*
X136350000Y-72860000D02*
X135400000Y-72860000D01*
X146430000Y-123940000D02*
X146370000Y-123880000D01*
X156830000Y-113210000D02*
X156830000Y-111770000D01*
X137770000Y-109740000D02*
X137770000Y-110910000D01*
X112950000Y-82090000D02*
X111080000Y-82090000D01*
X109820000Y-131680000D02*
X109615000Y-131475000D01*
X126380000Y-50100000D02*
X125970000Y-50510000D01*
X111220000Y-130530000D02*
X111220000Y-131500000D01*
X111080000Y-82090000D02*
X110230000Y-81240000D01*
X128970000Y-109190000D02*
X128900000Y-109190000D01*
X152260000Y-123930000D02*
X152310000Y-123980000D01*
X150950000Y-123930000D02*
X152260000Y-123930000D01*
X126590000Y-121750000D02*
X126610000Y-121730000D01*
X125170000Y-116630000D02*
X125190000Y-116650000D01*
X146715600Y-118930001D02*
X145041491Y-118930001D01*
X143590000Y-117450000D02*
X143590000Y-117920000D01*
X122350000Y-63770000D02*
X122820000Y-63770000D01*
X145950000Y-68160000D02*
X145260000Y-68160000D01*
X131940002Y-66670000D02*
X131940002Y-68249999D01*
X131940002Y-68249999D02*
X131615001Y-68575000D01*
X144300000Y-67920000D02*
X144660000Y-67560000D01*
X135400000Y-72860000D02*
X134850000Y-72310000D01*
X139500000Y-120020000D02*
X139500000Y-120690000D01*
X129340000Y-128470000D02*
X129340000Y-129030000D01*
X128870001Y-67600001D02*
X128527299Y-67257299D01*
D59*
X122480000Y-62360000D02*
X121980000Y-61860000D01*
D60*
X150920001Y-121735501D02*
X151144500Y-121960000D01*
X153624400Y-114429999D02*
X154665502Y-114429999D01*
X151790000Y-74610000D02*
X151790000Y-77430000D01*
X122820000Y-63770000D02*
X124230000Y-62360000D01*
X119180000Y-55400000D02*
X119190000Y-55390000D01*
D59*
X124230000Y-62360000D02*
X122480000Y-62360000D01*
D60*
X124980000Y-121750000D02*
X126590000Y-121750000D01*
X119230000Y-55430000D02*
X119190000Y-55390000D01*
X126660000Y-111850000D02*
X126700000Y-111890000D01*
X129340000Y-127900000D02*
X129340000Y-128470000D01*
X122890000Y-115070000D02*
X121750000Y-115070000D01*
X146400000Y-55310000D02*
X146400000Y-55415000D01*
X137340000Y-72460000D02*
X136750000Y-72460000D01*
X111040000Y-131680000D02*
X109820000Y-131680000D01*
%TO.N,/ASIC/1V2*%
X122750000Y-122980000D02*
X122750000Y-122970000D01*
X122680000Y-119850000D02*
X122680000Y-121750000D01*
X122680000Y-122900000D02*
X122680000Y-121750000D01*
X123360000Y-123590000D02*
X122750000Y-122980000D01*
X122750000Y-122970000D02*
X122680000Y-122900000D01*
X138140000Y-119270000D02*
X137455000Y-119955000D01*
X127540000Y-119535500D02*
X127550000Y-119525500D01*
X135640000Y-125490000D02*
X136555000Y-124575000D01*
X127540000Y-119535500D02*
X127540000Y-123980000D01*
X130997500Y-126940000D02*
X131290000Y-127232500D01*
X138540000Y-120020000D02*
X137520000Y-120020000D01*
X127550000Y-119525500D02*
X127550000Y-117610000D01*
X138090000Y-114844500D02*
X138140000Y-114894500D01*
X136555000Y-124575000D02*
X137455000Y-123675000D01*
X129340000Y-126940000D02*
X130997500Y-126940000D01*
X138140000Y-114894500D02*
X138140000Y-119270000D01*
X137455000Y-123675000D02*
X137455000Y-119955000D01*
X137520000Y-120020000D02*
X137455000Y-119955000D01*
X127540000Y-123980000D02*
X129050000Y-125490000D01*
%TO.N,Net-(U1-VDD_INT_1)*%
X127660000Y-111890000D02*
X128580000Y-111890000D01*
X127670000Y-111890000D02*
X127690000Y-111870000D01*
X128580000Y-111890000D02*
X128640000Y-111830000D01*
X127660000Y-111890000D02*
X127670000Y-111890000D01*
%TO.N,/ESP32/EN*%
X118820000Y-53460000D02*
X119740000Y-53460000D01*
X150720000Y-73470000D02*
X148930000Y-75260000D01*
X119740000Y-53460000D02*
X120500000Y-52700000D01*
X123930000Y-51750000D02*
X125380000Y-53200000D01*
X151790000Y-59380000D02*
X150720000Y-60450000D01*
X123950000Y-51730000D02*
X123930000Y-51750000D01*
X123930000Y-51750000D02*
X121450000Y-51750000D01*
X148770000Y-75420000D02*
X148770000Y-85403604D01*
X150720000Y-60450000D02*
X150720000Y-73470000D01*
X148770000Y-85403604D02*
X149961396Y-86595000D01*
X151790000Y-54340000D02*
X151790000Y-59380000D01*
X121450000Y-51750000D02*
X120500000Y-52700000D01*
X148930000Y-75260000D02*
X148770000Y-75420000D01*
X154495000Y-86595000D02*
X155190000Y-87290000D01*
X123950000Y-50510000D02*
X123950000Y-51730000D01*
X125380000Y-53200000D02*
X150650000Y-53200000D01*
X150650000Y-53200000D02*
X151790000Y-54340000D01*
X149961396Y-86595000D02*
X154495000Y-86595000D01*
D59*
%TO.N,/COREV*%
X137120000Y-87035000D02*
X139125000Y-87035000D01*
X141755000Y-77500000D02*
X141755000Y-76955000D01*
X141755000Y-84405000D02*
X141755000Y-77500000D01*
D60*
X141380000Y-71920000D02*
X140830000Y-72470000D01*
X141380000Y-71180000D02*
X141380000Y-71920000D01*
%TO.N,/ESP32/XIN32*%
X145310000Y-73090000D02*
X145802400Y-72597600D01*
X145802400Y-72597600D02*
X145802400Y-70670000D01*
X145802400Y-70670000D02*
X145802400Y-69267600D01*
X145802400Y-69267600D02*
X145950000Y-69120000D01*
%TO.N,/ESP32/XOUT32*%
X143020000Y-73060000D02*
X143020000Y-70732400D01*
X143020000Y-70732400D02*
X142957600Y-70670000D01*
X142957600Y-68932400D02*
X143010000Y-68880000D01*
X142957600Y-70670000D02*
X142957600Y-68932400D01*
%TO.N,/SCL*%
X111310000Y-75570000D02*
X111300000Y-75560000D01*
X111845000Y-78755000D02*
X110945000Y-77855000D01*
X111310000Y-76523445D02*
X111310000Y-75570000D01*
X110945000Y-77855000D02*
X110945000Y-76888445D01*
X110945000Y-76888445D02*
X111310000Y-76523445D01*
%TO.N,/SDA*%
X112575000Y-88278604D02*
X114722500Y-86131104D01*
X114722500Y-82268896D02*
X112243604Y-79790000D01*
X112243604Y-79790000D02*
X111320000Y-79790000D01*
X114722500Y-86131104D02*
X114722500Y-82268896D01*
X111320000Y-79790000D02*
X110435000Y-78905000D01*
X112575000Y-90448604D02*
X112575000Y-88278604D01*
%TO.N,/PWR_EN*%
X138095000Y-64785000D02*
X138380000Y-65070000D01*
X138380000Y-65070000D02*
X140610000Y-65070000D01*
X132395000Y-65810305D02*
X132395000Y-65155000D01*
X132590000Y-66670000D02*
X132590000Y-66005305D01*
X138060000Y-59350000D02*
X141220000Y-62510000D01*
X132765000Y-64785000D02*
X138095000Y-64785000D01*
X140610000Y-65070000D02*
X141080000Y-64600000D01*
X132590000Y-66005305D02*
X132395000Y-65810305D01*
X141220000Y-62510000D02*
X141220000Y-64460000D01*
X132395000Y-65155000D02*
X132765000Y-64785000D01*
X141220000Y-64460000D02*
X141080000Y-64600000D01*
X130540000Y-59350000D02*
X138060000Y-59350000D01*
D59*
%TO.N,VDD*%
X129350000Y-130120000D02*
X130430000Y-131200000D01*
D60*
X148130000Y-122980000D02*
X147440000Y-122980000D01*
X153624400Y-113930000D02*
X153624400Y-113505600D01*
X143650000Y-61780000D02*
X143720000Y-61850000D01*
X111230000Y-129560000D02*
X111220000Y-129570000D01*
X153624400Y-113505600D02*
X154680000Y-112450000D01*
D59*
X129350000Y-130000000D02*
X129350000Y-130120000D01*
D60*
X146410000Y-111610000D02*
X146710000Y-111310000D01*
D59*
X131290000Y-130340000D02*
X130430000Y-131200000D01*
D60*
X144610000Y-120370000D02*
X144580000Y-120340000D01*
X151420000Y-121070000D02*
X151420000Y-120134400D01*
X155360000Y-112450000D02*
X154680000Y-112450000D01*
X144590000Y-119430000D02*
X144580000Y-119440000D01*
X112110000Y-129560000D02*
X111230000Y-129560000D01*
X150830000Y-77430000D02*
X150740000Y-77430000D01*
X131730000Y-128420000D02*
X131290000Y-128860000D01*
X133190000Y-129507500D02*
X133190000Y-128610000D01*
X129520000Y-62340000D02*
X129520000Y-60940000D01*
D59*
X122540000Y-55430000D02*
X123050000Y-55430000D01*
D60*
X121310000Y-55430000D02*
X123050000Y-55430000D01*
X147100000Y-111310000D02*
X147420000Y-111630000D01*
X148590000Y-123440000D02*
X149110000Y-123960000D01*
X133000000Y-128420000D02*
X131730000Y-128420000D01*
X147420000Y-111630000D02*
X147420000Y-113225600D01*
X150830000Y-75740000D02*
X150810000Y-75720000D01*
X150740000Y-77430000D02*
X150310000Y-77860000D01*
X106870000Y-135330000D02*
X107665000Y-135330000D01*
X146410000Y-112180000D02*
X146410000Y-111610000D01*
X124950000Y-51750000D02*
X126230000Y-51750000D01*
X129530000Y-59360000D02*
X129520000Y-59350000D01*
X155870000Y-113210000D02*
X155870000Y-112960000D01*
X146710000Y-111310000D02*
X147100000Y-111310000D01*
X149110000Y-123960000D02*
X149710000Y-123960000D01*
X112790000Y-129560000D02*
X112110000Y-129560000D01*
X155870000Y-112960000D02*
X155360000Y-112450000D01*
X108070000Y-137290000D02*
X106950000Y-137290000D01*
X148590000Y-123440000D02*
X148130000Y-122980000D01*
X112110000Y-128570000D02*
X111890000Y-128350000D01*
X145440000Y-58530000D02*
X145440000Y-55310000D01*
X120912250Y-57720000D02*
X121040200Y-57592050D01*
X118770000Y-57720000D02*
X120912250Y-57720000D01*
X150830000Y-77430000D02*
X150830000Y-75740000D01*
D59*
X121040200Y-56929800D02*
X122540000Y-55430000D01*
D60*
X112110000Y-129560000D02*
X112110000Y-128570000D01*
X106950000Y-137290000D02*
X106340000Y-136680000D01*
X143650000Y-58915000D02*
X145055000Y-58915000D01*
D61*
X111955000Y-75351250D02*
X111955000Y-76903750D01*
D60*
X129520000Y-59350000D02*
X129520000Y-58090000D01*
X129520000Y-60940000D02*
X129530000Y-60930000D01*
X147440000Y-120154400D02*
X147420000Y-120134400D01*
X129530000Y-60930000D02*
X129530000Y-59360000D01*
D59*
X121040200Y-57592050D02*
X121040200Y-56929800D01*
D60*
X145055000Y-58915000D02*
X145440000Y-58530000D01*
X131290000Y-128860000D02*
X131290000Y-129507500D01*
X106340000Y-136680000D02*
X106340000Y-135860000D01*
X146715600Y-119430000D02*
X144590000Y-119430000D01*
X106340000Y-135860000D02*
X106870000Y-135330000D01*
D59*
X131290000Y-129507500D02*
X131290000Y-130340000D01*
D60*
X152500000Y-122150000D02*
X151420000Y-121070000D01*
X133190000Y-128610000D02*
X133000000Y-128420000D01*
X150310000Y-77860000D02*
X150310000Y-79020000D01*
X144580000Y-120340000D02*
X144580000Y-119440000D01*
X126230000Y-51750000D02*
X126250000Y-51730000D01*
X129520000Y-58090000D02*
X129510000Y-58080000D01*
X143650000Y-58915000D02*
X143650000Y-61780000D01*
%TO.N,/5V*%
X121340000Y-59020000D02*
X121040200Y-59319800D01*
X122919800Y-59259800D02*
X122680000Y-59020000D01*
X121040200Y-59319800D02*
X121040200Y-60347950D01*
X122919800Y-60347950D02*
X122919800Y-59259800D01*
X122680000Y-59020000D02*
X121340000Y-59020000D01*
%TO.N,Net-(U16-VIN)*%
X131290000Y-65100000D02*
X130870000Y-64680000D01*
X131290000Y-66670000D02*
X131290000Y-65100000D01*
%TO.N,Net-(D2-K)*%
X127120000Y-71440000D02*
X127120000Y-70477500D01*
X125030000Y-71050000D02*
X125030000Y-69905000D01*
X130640002Y-71249998D02*
X130080000Y-71810000D01*
X125420000Y-71440000D02*
X125030000Y-71050000D01*
X127120000Y-71440000D02*
X125420000Y-71440000D01*
X127490000Y-71810000D02*
X127120000Y-71440000D01*
X130080000Y-71810000D02*
X127490000Y-71810000D01*
X130640002Y-70480000D02*
X130640002Y-71249998D01*
%TO.N,/Power/OUT0*%
X138360000Y-72460000D02*
X138360000Y-71880000D01*
X142635000Y-57615000D02*
X143650000Y-57615000D01*
X138740000Y-71020000D02*
X138150000Y-71020000D01*
X136890000Y-73420000D02*
X137790000Y-73420000D01*
X138360000Y-72850000D02*
X138360000Y-72460000D01*
X138360000Y-72460000D02*
X139840000Y-72460000D01*
X142240000Y-58000000D02*
X142630000Y-57610000D01*
X138740000Y-71020000D02*
X140030000Y-71020000D01*
X136250000Y-69650000D02*
X135500000Y-68900000D01*
X136380000Y-73930000D02*
X136890000Y-73420000D01*
X138740000Y-71500000D02*
X138740000Y-71020000D01*
X142630000Y-57610000D02*
X142635000Y-57615000D01*
X142240000Y-68810000D02*
X142240000Y-58000000D01*
X135500000Y-68900000D02*
X133520001Y-68900001D01*
X136780000Y-69650000D02*
X136250000Y-69650000D01*
X136380000Y-74520000D02*
X136380000Y-73930000D01*
X137790000Y-73420000D02*
X138360000Y-72850000D01*
X140030000Y-71020000D02*
X142240000Y-68810000D01*
X138360000Y-71880000D02*
X138740000Y-71500000D01*
X138150000Y-71020000D02*
X136780000Y-69650000D01*
%TO.N,/Power/SW*%
X129710001Y-69549999D02*
X129335000Y-69925000D01*
X128820000Y-69925000D02*
X128820000Y-70660000D01*
X129335000Y-69925000D02*
X128820000Y-69925000D01*
X128820000Y-70660000D02*
X128980000Y-70820000D01*
X128820000Y-69925000D02*
X127535000Y-69925000D01*
X125905000Y-68295000D02*
X125090000Y-68295000D01*
X125090000Y-68295000D02*
X125030000Y-68355000D01*
X127535000Y-69925000D02*
X125905000Y-68295000D01*
%TO.N,Net-(D2-A)*%
X129710001Y-68249999D02*
X127247501Y-68249999D01*
X127247501Y-68249999D02*
X127120000Y-68377500D01*
X127120000Y-68377500D02*
X127120000Y-66775000D01*
X127120000Y-66775000D02*
X127130000Y-66765000D01*
%TO.N,Net-(U16-SS{slash}TRACK)*%
X134679999Y-69549999D02*
X134850000Y-69720000D01*
X134850000Y-69720000D02*
X134850000Y-71350000D01*
X133520001Y-69549999D02*
X134679999Y-69549999D01*
%TO.N,Net-(U16-COMP)*%
X136780000Y-67750000D02*
X138030000Y-66500000D01*
X136780000Y-67750000D02*
X136280001Y-68249999D01*
X138030000Y-66500000D02*
X139220000Y-66500000D01*
X136280001Y-68249999D02*
X133520001Y-68249999D01*
%TO.N,Net-(C57-Pad2)*%
X138740000Y-70000000D02*
X138740000Y-68880000D01*
X138740000Y-68880000D02*
X139220000Y-68400000D01*
%TO.N,/PGOOD*%
X130145000Y-66174998D02*
X130145000Y-64065000D01*
X130540000Y-63670000D02*
X130540000Y-62340000D01*
X130640002Y-66670000D02*
X130145000Y-66174998D01*
X130145000Y-64065000D02*
X130540000Y-63670000D01*
X138510000Y-62340000D02*
X130540000Y-62340000D01*
X139180000Y-63010000D02*
X138510000Y-62340000D01*
%TO.N,/STM32/SWDIO*%
X149066802Y-93876802D02*
X149036802Y-93876802D01*
X149870000Y-89972792D02*
X150582792Y-89260000D01*
X149590000Y-94400000D02*
X149066802Y-93876802D01*
X149870000Y-93043604D02*
X149870000Y-89972792D01*
X150582792Y-89260000D02*
X155220000Y-89260000D01*
X149036802Y-93876802D02*
X149870000Y-93043604D01*
%TO.N,/STM32/RESET*%
X154690000Y-117430001D02*
X153624400Y-117430001D01*
%TO.N,/STM32/SWCLK*%
X141080000Y-109710000D02*
X145300000Y-113930000D01*
X141090000Y-107720000D02*
X141080000Y-107730000D01*
X141750000Y-107720000D02*
X141090000Y-107720000D01*
X145300000Y-113930000D02*
X146715600Y-113930000D01*
X141080000Y-107730000D02*
X141080000Y-109710000D01*
%TO.N,/STM32/SWO*%
X148940000Y-90980000D02*
X148940000Y-89630000D01*
X148850000Y-90890000D02*
X148940000Y-90980000D01*
X148140000Y-90890000D02*
X148850000Y-90890000D01*
X152190000Y-88350000D02*
X152700000Y-87840000D01*
X150220000Y-88350000D02*
X152190000Y-88350000D01*
X148940000Y-89630000D02*
X150220000Y-88350000D01*
%TO.N,Net-(U5-ADJ)*%
X134270000Y-127730000D02*
X133772500Y-127232500D01*
X134870000Y-126530000D02*
X134870000Y-127730000D01*
X133772500Y-127232500D02*
X133190000Y-127232500D01*
X134870000Y-127730000D02*
X134270000Y-127730000D01*
%TO.N,Net-(J4-CC1)*%
X115467700Y-90122300D02*
X115007700Y-90122300D01*
X115007700Y-90122300D02*
X114600000Y-90530000D01*
%TO.N,Net-(J4-CC2)*%
X112950000Y-83110000D02*
X112950000Y-83860000D01*
X112950000Y-83860000D02*
X112810000Y-84000000D01*
%TO.N,IN+*%
X114550000Y-72070000D02*
X114550000Y-69835000D01*
X113250000Y-73370000D02*
X114550000Y-72070000D01*
X113250000Y-75560000D02*
X113250000Y-73370000D01*
%TO.N,Net-(U1-TCK)*%
X136700000Y-114120000D02*
X140900000Y-114120000D01*
X136600000Y-114220000D02*
X136700000Y-114120000D01*
%TO.N,Net-(U1-TDI)*%
X139594500Y-113395500D02*
X140930000Y-112060000D01*
X137186218Y-113395500D02*
X139594500Y-113395500D01*
%TO.N,Net-(U10-FS0)*%
X143620000Y-56935000D02*
X143650000Y-56965000D01*
X143620000Y-55490000D02*
X143620000Y-56935000D01*
%TO.N,/Fan/FAN_TACH*%
X110892500Y-133757500D02*
X108965000Y-131830000D01*
X112790000Y-130580000D02*
X112790000Y-131860000D01*
X112790000Y-131860000D02*
X110892500Y-133757500D01*
X108965000Y-131830000D02*
X108965000Y-131030000D01*
%TO.N,/Fan/FAN_PWM*%
X109090000Y-137290000D02*
X109090000Y-136790000D01*
X109090000Y-136790000D02*
X109665000Y-136215000D01*
X110900000Y-137290000D02*
X109090000Y-137290000D01*
X111650000Y-138040000D02*
X110900000Y-137290000D01*
X109665000Y-136215000D02*
X109615000Y-136165000D01*
X109615000Y-136165000D02*
X109615000Y-135330000D01*
%TO.N,Net-(U16-CS-)*%
X138880000Y-76120000D02*
X136383604Y-76120000D01*
X139760000Y-76120000D02*
X139810000Y-76070000D01*
X131940002Y-71676398D02*
X131940002Y-70480000D01*
X136383604Y-76120000D02*
X131940002Y-71676398D01*
X138880000Y-76120000D02*
X139760000Y-76120000D01*
%TO.N,/ESP32/P_TX*%
X148205000Y-74795000D02*
X148205000Y-85475000D01*
X149060000Y-64550000D02*
X149605000Y-64005000D01*
X150270000Y-64660000D02*
X150270000Y-72730000D01*
X149605000Y-63995000D02*
X150270000Y-64660000D01*
X150270000Y-72730000D02*
X148205000Y-74795000D01*
X148910000Y-62950000D02*
X148910000Y-63300000D01*
X149790000Y-87060000D02*
X153720000Y-87060000D01*
X149605000Y-64005000D02*
X149605000Y-63995000D01*
X148910000Y-63300000D02*
X149605000Y-63995000D01*
X148205000Y-85475000D02*
X149790000Y-87060000D01*
X153720000Y-87060000D02*
X153980000Y-87320000D01*
%TO.N,/ESP32/P_RX*%
X149820000Y-72543604D02*
X147755000Y-74608604D01*
X147755000Y-74608604D02*
X147755000Y-86345000D01*
X147030000Y-63560000D02*
X147030000Y-64230000D01*
X146260000Y-63500000D02*
X146970000Y-63500000D01*
X149820000Y-67020000D02*
X149820000Y-72543604D01*
X147640000Y-62950000D02*
X147030000Y-63560000D01*
X147030000Y-64230000D02*
X149820000Y-67020000D01*
X147755000Y-86345000D02*
X148850000Y-87440000D01*
X146970000Y-63500000D02*
X147030000Y-63560000D01*
%TO.N,/ESP32/IO0*%
X149220000Y-76001852D02*
X151170000Y-74051852D01*
X149220000Y-81330000D02*
X149220000Y-76001852D01*
X150110000Y-82220000D02*
X149220000Y-81330000D01*
X152240000Y-54153604D02*
X150836396Y-52750000D01*
X135830000Y-51130000D02*
X137050000Y-52350000D01*
X150836396Y-52750000D02*
X137450000Y-52750000D01*
X152640000Y-82220000D02*
X150110000Y-82220000D01*
X135710000Y-51130000D02*
X135830000Y-51130000D01*
X151170000Y-60650000D02*
X152240000Y-59580000D01*
X151170000Y-74051852D02*
X151170000Y-60650000D01*
X137450000Y-52750000D02*
X137050000Y-52350000D01*
X152240000Y-59580000D02*
X152240000Y-54153604D01*
%TO.N,/STM32/RX2*%
X156690000Y-119430000D02*
X153624400Y-119430000D01*
%TO.N,/STM32/TX2*%
X154390000Y-121870000D02*
X153330000Y-121870000D01*
X153330000Y-121870000D02*
X152920000Y-121460000D01*
X152920000Y-121460000D02*
X152920000Y-120134400D01*
%TO.N,Net-(U1-TDO)*%
X138040000Y-112000000D02*
X138790000Y-112000000D01*
X137642932Y-112397068D02*
X138040000Y-112000000D01*
X138790000Y-112000000D02*
X138830000Y-112040000D01*
X137232451Y-112397068D02*
X137642932Y-112397068D01*
%TO.N,Net-(U2-VCAP_1)*%
X155849999Y-114930001D02*
X155860000Y-114920000D01*
X153624400Y-114930001D02*
X155849999Y-114930001D01*
%TO.N,Net-(U1-PINSEL)*%
X123910000Y-115070000D02*
X123910000Y-116200000D01*
X123910000Y-116200000D02*
X123900000Y-116210000D01*
%TO.N,Net-(U1-REFCLKOUT1)*%
X122250000Y-108450000D02*
X122250000Y-106840000D01*
%TO.N,Net-(U1-TMS)*%
X124300000Y-108420000D02*
X124300000Y-106810000D01*
X124260000Y-108460000D02*
X124300000Y-108420000D01*
%TO.N,Net-(U2-BOOT)*%
X146715600Y-117430001D02*
X144629999Y-117430001D01*
X144629999Y-117430001D02*
X144610000Y-117450000D01*
%TO.N,Net-(U1-TRST)*%
X126320000Y-106760000D02*
X126310000Y-106750000D01*
X126320000Y-108440000D02*
X126320000Y-106760000D01*
%TO.N,Net-(U1-RX_OUT)*%
X115170000Y-111700000D02*
X115170000Y-110130000D01*
X115170000Y-110130000D02*
X115200000Y-110100000D01*
%TO.N,Net-(U1-RESET_OUT)*%
X117250000Y-110100000D02*
X117240000Y-110090000D01*
X117250000Y-111700000D02*
X117250000Y-110100000D01*
%TO.N,Net-(U1-TX_IN)*%
X119280000Y-111710000D02*
X119280000Y-110120000D01*
%TO.N,Net-(U16-CS+)*%
X132590000Y-71030000D02*
X132590000Y-70480000D01*
X133340000Y-71780000D02*
X132590000Y-71030000D01*
%TO.N,Net-(U1-TRIP_IN)*%
X121350000Y-111710000D02*
X121350000Y-110150000D01*
X121350000Y-110150000D02*
X121340000Y-110140000D01*
%TO.N,Net-(U1-REFCLKOUT2)*%
X139580000Y-124540000D02*
X139280000Y-124840000D01*
X139580000Y-123220000D02*
X139580000Y-124540000D01*
%TO.N,/ESP32/TX*%
X150782348Y-110777652D02*
X150420000Y-111140000D01*
X152480000Y-110030000D02*
X152480000Y-110076011D01*
X151778359Y-110777652D02*
X150782348Y-110777652D01*
X152480000Y-110076011D02*
X151778359Y-110777652D01*
X150420000Y-111140000D02*
X150420000Y-113225600D01*
%TO.N,/ESP32/RX*%
X151478054Y-110052652D02*
X150377348Y-110052652D01*
X149920000Y-110510000D02*
X149920000Y-113225600D01*
X150377348Y-110052652D02*
X149920000Y-110510000D01*
%TO.N,Net-(C60-Pad2)*%
X138970000Y-74520000D02*
X137400000Y-74520000D01*
%TO.N,Net-(C62-Pad1)*%
X138900000Y-78050000D02*
X137590000Y-78050000D01*
X137590000Y-78050000D02*
X137580000Y-78040000D01*
%TO.N,Net-(Q1-G)*%
X131290000Y-72930000D02*
X131290000Y-70480000D01*
%TO.N,Net-(U16-FADJ)*%
X133520001Y-67600001D02*
X134739999Y-67600001D01*
X134739999Y-67600001D02*
X134790000Y-67550000D01*
%TO.N,Net-(Q5-G)*%
X129710001Y-68900001D02*
X128839999Y-68900001D01*
%TO.N,/Power/SW*%
X126720000Y-83002000D02*
X126852000Y-82870000D01*
%TO.N,Net-(Q5-G)*%
X128839999Y-68900001D02*
X128540000Y-69200000D01*
%TO.N,/PLUG_SENSE*%
X138290000Y-60930000D02*
X140070000Y-62710000D01*
X139500000Y-64120000D02*
X139315500Y-64120000D01*
X140070000Y-63550000D02*
X139500000Y-64120000D01*
X130550000Y-60930000D02*
X131640000Y-60930000D01*
X140070000Y-62710000D02*
X140070000Y-63550000D01*
X131640000Y-60930000D02*
X138290000Y-60930000D01*
%TD*%
%TA.AperFunction,Conductor*%
%TO.N,GND*%
G36*
X125898957Y-78987986D02*
G01*
X125965658Y-79008783D01*
X126010529Y-79062341D01*
X126020890Y-79111057D01*
X126049092Y-82946601D01*
X126029901Y-83013784D01*
X125977434Y-83059926D01*
X125926607Y-83071504D01*
X125230000Y-83079999D01*
X125232392Y-83340753D01*
X125213323Y-83407970D01*
X125167815Y-83448138D01*
X125168223Y-83448748D01*
X125163706Y-83451765D01*
X125160941Y-83454207D01*
X125158331Y-83455357D01*
X125091747Y-83499847D01*
X125047432Y-83566169D01*
X125047431Y-83566170D01*
X125035800Y-83624647D01*
X125035800Y-84375352D01*
X125047431Y-84433829D01*
X125047432Y-84433830D01*
X125091747Y-84500152D01*
X125158069Y-84544467D01*
X125167973Y-84548570D01*
X125222376Y-84592412D01*
X125244439Y-84658707D01*
X125244513Y-84661992D01*
X125245826Y-84805104D01*
X125226757Y-84872322D01*
X125216514Y-84885154D01*
X125216666Y-84885271D01*
X125211720Y-84891716D01*
X125211718Y-84891718D01*
X125133728Y-84993356D01*
X125115463Y-85017160D01*
X125054956Y-85163237D01*
X125054955Y-85163239D01*
X125034318Y-85319998D01*
X125034318Y-85320001D01*
X125054955Y-85476760D01*
X125054956Y-85476762D01*
X125115464Y-85622841D01*
X125211718Y-85748282D01*
X125337159Y-85844536D01*
X125483238Y-85905044D01*
X125561619Y-85915363D01*
X125639999Y-85925682D01*
X125640000Y-85925682D01*
X125640001Y-85925682D01*
X125692254Y-85918802D01*
X125796762Y-85905044D01*
X125942841Y-85844536D01*
X126068282Y-85748282D01*
X126164536Y-85622841D01*
X126225044Y-85476762D01*
X126239387Y-85367814D01*
X126267653Y-85303918D01*
X126325978Y-85265447D01*
X126362326Y-85260000D01*
X128575909Y-85260000D01*
X128642948Y-85279685D01*
X128688703Y-85332489D01*
X128699908Y-85384088D01*
X128696834Y-89555559D01*
X128690090Y-98706545D01*
X128670356Y-98773570D01*
X128617518Y-98819286D01*
X128566546Y-98830453D01*
X120654955Y-98859540D01*
X120587844Y-98840102D01*
X120541895Y-98787467D01*
X120530500Y-98735047D01*
X120609496Y-79025571D01*
X120629449Y-78958614D01*
X120682436Y-78913071D01*
X120735554Y-78902088D01*
X125898957Y-78987986D01*
G37*
%TD.AperFunction*%
%TD*%
%TA.AperFunction,Conductor*%
%TO.N,IN+*%
G36*
X120532739Y-61799685D02*
G01*
X120578494Y-61852489D01*
X120589700Y-61904000D01*
X120589700Y-67411834D01*
X120570015Y-67478873D01*
X120553381Y-67499515D01*
X119721804Y-68331092D01*
X119716617Y-68335727D01*
X119686033Y-68360117D01*
X119686029Y-68360121D01*
X119652519Y-68409271D01*
X119617206Y-68457118D01*
X119613216Y-68464667D01*
X119609528Y-68472326D01*
X119591992Y-68529177D01*
X119572353Y-68585301D01*
X119570771Y-68593659D01*
X119569500Y-68602100D01*
X119569500Y-68661573D01*
X119567275Y-68721009D01*
X119568316Y-68730243D01*
X119567485Y-68730336D01*
X119569500Y-68745635D01*
X119569500Y-70506451D01*
X119549815Y-70573490D01*
X119497011Y-70619245D01*
X119445605Y-70630451D01*
X114461478Y-70634670D01*
X114394422Y-70615042D01*
X114348622Y-70562277D01*
X114337373Y-70510633D01*
X114337375Y-70506451D01*
X114339963Y-61903963D01*
X114359668Y-61836929D01*
X114412485Y-61791190D01*
X114463963Y-61780000D01*
X120465700Y-61780000D01*
X120532739Y-61799685D01*
G37*
%TD.AperFunction*%
%TD*%
%TA.AperFunction,Conductor*%
%TO.N,/5V*%
G36*
X126492486Y-73899685D02*
G01*
X126538241Y-73952489D01*
X126549446Y-74004551D01*
X126530544Y-78257497D01*
X126510561Y-78324448D01*
X126457555Y-78369968D01*
X126407499Y-78380942D01*
X125252277Y-78389828D01*
X125209058Y-78382407D01*
X123749993Y-77853414D01*
X114645797Y-77859758D01*
X114578744Y-77840120D01*
X114558030Y-77823439D01*
X114378960Y-77644369D01*
X114345475Y-77583046D01*
X114343323Y-77569668D01*
X114325674Y-77401744D01*
X114306069Y-77341406D01*
X114300000Y-77303088D01*
X114300000Y-74004000D01*
X114319685Y-73936961D01*
X114372489Y-73891206D01*
X114424000Y-73880000D01*
X126425447Y-73880000D01*
X126492486Y-73899685D01*
G37*
%TD.AperFunction*%
%TD*%
%TA.AperFunction,Conductor*%
%TO.N,/Power/SW*%
G36*
X132621811Y-75118977D02*
G01*
X132688641Y-75139359D01*
X132733844Y-75192636D01*
X132741508Y-75215809D01*
X133195617Y-77238658D01*
X133197848Y-77279701D01*
X133194435Y-77309995D01*
X133194435Y-77310003D01*
X133214630Y-77489249D01*
X133214631Y-77489254D01*
X133274212Y-77659525D01*
X133287596Y-77680826D01*
X133303591Y-77719636D01*
X133600000Y-79040000D01*
X137775052Y-79040000D01*
X137842091Y-79059685D01*
X137887846Y-79112489D01*
X137899048Y-79164945D01*
X137860934Y-84167291D01*
X137840740Y-84234178D01*
X137787589Y-84279530D01*
X137737288Y-84290346D01*
X130904620Y-84309647D01*
X130837525Y-84290151D01*
X130791622Y-84237477D01*
X130780270Y-84185380D01*
X130799728Y-75225024D01*
X130819558Y-75158029D01*
X130872462Y-75112389D01*
X130925018Y-75101302D01*
X132621811Y-75118977D01*
G37*
%TD.AperFunction*%
%TD*%
%TA.AperFunction,Conductor*%
%TO.N,/COREV*%
G36*
X138486145Y-85279855D02*
G01*
X138553161Y-85299618D01*
X138598855Y-85352475D01*
X138610000Y-85403855D01*
X138610000Y-102960000D01*
X138560463Y-107021970D01*
X138539962Y-107088765D01*
X138538294Y-107091228D01*
X134639999Y-112700000D01*
X134593801Y-114169112D01*
X134572019Y-114235500D01*
X134517803Y-114279573D01*
X134469055Y-114289212D01*
X130104077Y-114260807D01*
X130037167Y-114240687D01*
X129991757Y-114187586D01*
X129980887Y-114135924D01*
X130060000Y-103070000D01*
X130060000Y-85394145D01*
X130079685Y-85327106D01*
X130132489Y-85281351D01*
X130184144Y-85270145D01*
X138486145Y-85279855D01*
G37*
%TD.AperFunction*%
%TD*%
%TA.AperFunction,Conductor*%
%TO.N,GND*%
G36*
X134511721Y-118137572D02*
G01*
X134578684Y-118157511D01*
X134624237Y-118210489D01*
X134635248Y-118261481D01*
X134639909Y-124705128D01*
X134620273Y-124772182D01*
X134567502Y-124817975D01*
X134515131Y-124829216D01*
X129983776Y-124800776D01*
X129916861Y-124780671D01*
X129871439Y-124727581D01*
X129860555Y-124676225D01*
X129889443Y-118243911D01*
X129909429Y-118176963D01*
X129962438Y-118131445D01*
X130013912Y-118120471D01*
X134511721Y-118137572D01*
G37*
%TD.AperFunction*%
%TD*%
M02*
