M48
; DRILL file {KiCad 7.0.9} date Wednesday, December 20, 2023 at 09:11:10 PM
; FORMAT={-:-/ absolute / inch / decimal}
; #@! TF.CreationDate,2023-12-20T21:11:10-05:00
; #@! TF.GenerationSoftware,Kicad,Pcbnew,7.0.9
; #@! TF.FileFunction,Plated,1,4,PTH
FMAT,2
INCH
; #@! TA.AperFunction,Plated,PTH,ComponentDrill
T1C0.0118
; #@! TA.AperFunction,Plated,PTH,ViaDrill
T2C0.0157
; #@! TA.AperFunction,Plated,PTH,ComponentDrill
T3C0.0197
; #@! TA.AperFunction,Plated,PTH,ViaDrill
T4C0.0236
; #@! TA.AperFunction,Plated,PTH,ComponentDrill
T5C0.0236
; #@! TA.AperFunction,Plated,PTH,ViaDrill
T6C0.0315
; #@! TA.AperFunction,Plated,PTH,ComponentDrill
T7C0.0394
; #@! TA.AperFunction,Plated,PTH,ComponentDrill
T8C0.0420
; #@! TA.AperFunction,Plated,PTH,ComponentDrill
T9C0.1181
%
G90
G05
T1
X5.0169Y-2.9071
X5.0173Y-2.9841
X5.0174Y-2.9455
X5.0514Y-2.9071
X5.0518Y-2.9841
X5.0519Y-2.9455
X5.147Y-2.6998
X5.1817Y-2.6648
X5.1817Y-2.6998
X5.1817Y-2.7348
X5.2167Y-2.6998
X5.7469Y-4.0222
X5.7469Y-4.0616
X5.7862Y-4.0222
X5.7862Y-4.0616
T2
X4.1866Y-5.3642
X4.3478Y-3.1065
X4.3717Y-5.1843
X4.3965Y-3.0389
X4.4033Y-3.1006
X4.4051Y-5.0531
X4.4413Y-3.3071
X4.4512Y-2.8248
X4.4661Y-3.0547
X4.4783Y-3.513
X4.498Y-4.7508
X4.5064Y-4.808
X4.5071Y-4.6945
X4.5122Y-3.6469
X4.5185Y-4.8606
X4.5343Y-4.3976
X4.546Y-3.5481
X4.5701Y-3.326
X4.6004Y-4.5827
X4.6161Y-4.3976
X4.6189Y-5.3457
X4.6925Y-2.1807
X4.6961Y-4.398
X4.6992Y-5.3512
X4.7441Y-2.0748
X4.7776Y-4.398
X4.7933Y-4.5303
X4.8067Y-2.7992
X4.813Y-4.2697
X4.8921Y-4.2701
X4.9043Y-2.6445
X4.928Y-4.5917
X4.9319Y-4.5346
X4.9335Y-4.7146
X4.9339Y-4.7925
X4.9555Y-4.4035
X4.9657Y-2.4504
X4.9701Y-5.6551
X4.9705Y-2.0366
X4.9732Y-4.2693
X4.9756Y-1.9724
X4.9809Y-2.4923
X4.989Y-3.3122
X5.0213Y-4.7061
X5.0476Y-4.326
X5.0601Y-2.6479
X5.0606Y-2.7244
X5.0646Y-4.4028
X5.0709Y-2.5307
X5.078Y-2.7882
X5.0988Y-2.2866
X5.1524Y-2.5465
X5.1567Y-2.9602
X5.1827Y-2.3988
X5.2161Y-2.8858
X5.2409Y-2.5791
X5.2496Y-2.826
X5.3681Y-2.8685
X5.378Y-4.4969
X5.3957Y-2.061
X5.3957Y-4.55
X5.401Y-4.4644
X5.4029Y-4.4251
X5.4116Y-4.7226
X5.4232Y-4.3673
X5.4276Y-2.1646
X5.4366Y-4.5214
X5.4614Y-2.1972
X5.4795Y-2.4807
X5.4849Y-2.5244
X5.4953Y-4.8512
X5.5031Y-4.7626
X5.5354Y-2.1671
X5.5543Y-2.5433
X5.5661Y-2.8024
X5.5949Y-2.2323
X5.6183Y-4.1008
X5.6307Y-2.8764
X5.6583Y-2.435
X5.6673Y-4.1591
X5.6768Y-4.6661
X5.6794Y-3.9495
X5.6933Y-4.739
X5.6945Y-5.1894
X5.6953Y-2.6598
X5.7055Y-5.2976
X5.7209Y-2.8776
X5.7284Y-4.1929
X5.7311Y-5.0421
X5.7537Y-4.2615
X5.7626Y-4.8772
X5.7642Y-4.4165
X5.7754Y-3.9149
X5.7776Y-5.2976
X5.7822Y-4.233
X5.7854Y-4.1894
X5.8102Y-4.3441
X5.8126Y-2.4783
X5.8161Y-2.7209
X5.8161Y-2.7701
X5.8161Y-2.8209
X5.8201Y-3.9138
X5.8488Y-4.5953
X5.85Y-4.8598
X5.8602Y-3.4425
X5.8621Y-3.9162
X5.8626Y-2.4783
X5.8634Y-2.963
X5.8705Y-4.124
X5.8803Y-5.25
X5.9122Y-4.5937
X5.9287Y-1.9429
X5.9506Y-4.8016
X5.9637Y-4.3328
X5.987Y-4.5937
X5.9937Y-1.9909
X5.9965Y-4.8811
X6.0031Y-4.3319
X6.0039Y-4.8091
X6.0051Y-4.3791
X6.0094Y-3.237
X6.0094Y-3.6961
X6.0118Y-3.4583
X6.0598Y-3.698
X6.061Y-3.4831
X6.0614Y-3.2512
X6.0622Y-3.4378
X6.0783Y-4.798
X6.0898Y-4.4272
X6.0902Y-4.6232
X6.098Y-4.4963
X6.1098Y-3.4366
X6.111Y-3.252
X6.111Y-3.5142
X6.113Y-3.6965
X6.1689Y-4.702
X6.1748Y-4.4
T3
X4.1341Y-5.628
X4.1382Y-1.9754
X4.1601Y-5.5654
X4.1601Y-5.6906
X4.1641Y-1.9127
X4.1641Y-2.038
X4.2227Y-5.5394
X4.2227Y-5.7166
X4.2268Y-1.8868
X4.2268Y-2.0639
X4.2854Y-5.5654
X4.2854Y-5.6906
X4.2894Y-1.9127
X4.2894Y-2.038
X4.3113Y-5.628
X4.3154Y-1.9754
X6.0841Y-1.978
X6.0868Y-5.6239
X6.1101Y-1.9154
X6.1101Y-2.0406
X6.1127Y-5.5613
X6.1127Y-5.6866
X6.1727Y-1.8894
X6.1727Y-2.0666
X6.1754Y-5.5354
X6.1754Y-5.7125
X6.2354Y-1.9154
X6.2354Y-2.0406
X6.238Y-5.5613
X6.238Y-5.6866
X6.2613Y-1.978
X6.2639Y-5.6239
T4
X4.6913Y-2.95
X5.2445Y-2.9709
X5.9374Y-2.9811
X5.9874Y-2.926
X5.988Y-2.4563
T5
X4.6142Y-1.8689
X4.7736Y-1.8689
X5.5234Y-1.8693
X5.6829Y-1.8693
T6
X4.8Y-3.2189
X4.8Y-3.307
X4.8Y-3.3951
X4.8Y-3.4832
X4.8Y-3.5713
X4.8445Y-2.1823
X4.8909Y-2.4551
X4.8953Y-3.2201
X4.8953Y-3.3082
X4.8953Y-3.3963
X4.8953Y-3.4844
X4.8953Y-3.5724
X5.1531Y-4.0992
X5.1531Y-4.2051
X5.1531Y-4.311
X5.1571Y-4.7792
X5.1571Y-4.8673
X5.2402Y-4.1
X5.2402Y-4.2059
X5.2402Y-4.3118
X5.2524Y-4.7804
X5.2524Y-4.8685
X5.3236Y-4.1024
X5.3236Y-4.2083
X5.3236Y-4.3142
X5.4047Y-4.1012
X5.4047Y-4.2071
X5.8886Y-2.2193
T7
X6.2161Y-4.9201
X6.2161Y-5.0201
X6.2161Y-5.1201
T8
X4.5622Y-5.5835
X4.6622Y-5.5835
X4.7622Y-5.5835
X4.8622Y-5.5835
T9
X4.2227Y-5.628
X4.2268Y-1.9754
X6.1727Y-1.978
X6.1754Y-5.6239
T5
G00X4.1594Y-3.1984
M15
G01X4.1909Y-3.1984
M16
G05
G00X4.1594Y-3.5386
M15
G01X4.1909Y-3.5386
M16
G05
G00X4.3181Y-3.1984
M15
G01X4.3614Y-3.1984
M16
G05
G00X4.3181Y-3.5386
M15
G01X4.3614Y-3.5386
M16
G05
T7
G00X4.3878Y-2.5705
M15
G01X4.3878Y-2.4917
M16
G05
G00X4.5453Y-2.3461
M15
G01X4.4665Y-2.3461
M16
G05
G00X4.624Y-2.5803
M15
G01X4.624Y-2.4819
M16
G05
T0
M30
