M48
; DRILL file {KiCad 7.0.9} date Thursday, February 22, 2024 at 12:08:22 AM
; FORMAT={-:-/ absolute / inch / decimal}
; #@! TF.CreationDate,2024-02-22T00:08:22-05:00
; #@! TF.GenerationSoftware,Kicad,Pcbnew,7.0.9
; #@! TF.FileFunction,Plated,1,4,PTH
FMAT,2
INCH
; #@! TA.AperFunction,Plated,PTH,ComponentDrill
T1C0.0118
; #@! TA.AperFunction,Plated,PTH,ViaDrill
T2C0.0157
; #@! TA.AperFunction,Plated,PTH,ComponentDrill
T3C0.0197
; #@! TA.AperFunction,Plated,PTH,ViaDrill
T4C0.0236
; #@! TA.AperFunction,Plated,PTH,ComponentDrill
T5C0.0236
; #@! TA.AperFunction,Plated,PTH,ComponentDrill
T6C0.0299
; #@! TA.AperFunction,Plated,PTH,ViaDrill
T7C0.0315
; #@! TA.AperFunction,Plated,PTH,ComponentDrill
T8C0.0394
; #@! TA.AperFunction,Plated,PTH,ComponentDrill
T9C0.0420
; #@! TA.AperFunction,Plated,PTH,ComponentDrill
T10C0.1181
%
G90
G05
T1
X5.147Y-2.6998
X5.1817Y-2.6648
X5.1817Y-2.6998
X5.1817Y-2.7348
X5.2167Y-2.6998
T2
X4.1866Y-5.3642
X4.3478Y-3.1065
X4.3717Y-5.1843
X4.4033Y-3.1006
X4.4051Y-5.0531
X4.4081Y-3.051
X4.4413Y-3.3071
X4.4512Y-2.8248
X4.4661Y-3.0547
X4.5016Y-1.9429
X4.5122Y-3.6469
X4.5343Y-4.3976
X4.546Y-3.5481
X4.6161Y-4.3976
X4.6925Y-2.1807
X4.6961Y-4.398
X4.7441Y-2.0748
X4.7551Y-5.4528
X4.7776Y-4.398
X4.7933Y-4.5303
X4.813Y-4.2697
X4.8295Y-5.3598
X4.8512Y-2.7984
X4.8921Y-4.2701
X4.9043Y-2.6445
X4.9268Y-4.5346
X4.928Y-4.5917
X4.9465Y-3.3591
X4.9555Y-4.4035
X4.9701Y-5.6551
X4.9705Y-2.0366
X4.9732Y-4.2693
X4.9756Y-1.9724
X4.9844Y-2.4888
X4.9846Y-4.7925
X4.9866Y-4.7402
X4.9917Y-2.4331
X5.0213Y-4.7061
X5.0476Y-4.326
X5.0601Y-2.6479
X5.0606Y-2.7244
X5.0646Y-4.4028
X5.0709Y-2.5307
X5.078Y-2.7882
X5.0988Y-2.2866
X5.124Y-5.0571
X5.135Y-5.1654
X5.1524Y-2.5465
X5.1827Y-2.3988
X5.2071Y-5.1654
X5.2118Y-3.0492
X5.2161Y-2.8858
X5.2409Y-2.5791
X5.2496Y-2.826
X5.3098Y-5.1177
X5.3681Y-2.8685
X5.378Y-4.4969
X5.3957Y-2.061
X5.3957Y-4.55
X5.401Y-4.4644
X5.4029Y-4.4251
X5.4116Y-4.7226
X5.4232Y-4.3673
X5.4366Y-4.5214
X5.4622Y-2.0091
X5.4795Y-2.4807
X5.4849Y-2.5244
X5.4953Y-4.8512
X5.5031Y-4.7626
X5.5543Y-2.5433
X5.5661Y-2.8024
X5.5949Y-2.2323
X5.6307Y-2.8764
X5.6583Y-2.435
X5.676Y-3.9772
X5.6768Y-4.6661
X5.6933Y-4.739
X5.6953Y-2.6598
X5.6958Y-4.0149
X5.7136Y-4.054
X5.7209Y-2.8776
X5.728Y-3.8953
X5.7313Y-4.0911
X5.7496Y-4.1259
X5.7626Y-4.8772
X5.7642Y-4.4165
X5.8102Y-4.3441
X5.8126Y-2.4783
X5.8138Y-4.1929
X5.8161Y-2.7209
X5.8161Y-2.7701
X5.8161Y-2.8209
X5.8232Y-2.0441
X5.8488Y-4.5953
X5.85Y-4.8598
X5.8602Y-3.4425
X5.8626Y-2.4783
X5.8634Y-2.963
X5.9122Y-4.5937
X5.9187Y-2.178
X5.9256Y-2.1307
X5.9315Y-4.126
X5.9506Y-4.8016
X5.9637Y-4.3328
X5.987Y-4.5937
X5.9965Y-4.8811
X6.0031Y-4.3319
X6.0039Y-4.8091
X6.0094Y-3.237
X6.0094Y-3.6961
X6.0118Y-3.4583
X6.0598Y-2.2421
X6.0598Y-3.698
X6.061Y-3.4831
X6.0614Y-3.2512
X6.0622Y-3.4378
X6.0783Y-4.798
X6.0898Y-4.4272
X6.0902Y-4.6232
X6.098Y-4.4963
X6.1098Y-3.4366
X6.111Y-3.252
X6.111Y-3.5142
X6.113Y-3.6965
X6.1138Y-3.9189
X6.1309Y-4.1197
X6.1689Y-4.702
X6.1697Y-3.9961
X6.1748Y-4.4
T3
X4.1341Y-5.628
X4.1382Y-1.9754
X4.1601Y-5.5654
X4.1601Y-5.6906
X4.1641Y-1.9127
X4.1641Y-2.038
X4.2227Y-5.5394
X4.2227Y-5.7166
X4.2268Y-1.8868
X4.2268Y-2.0639
X4.2854Y-5.5654
X4.2854Y-5.6906
X4.2894Y-1.9127
X4.2894Y-2.038
X4.3113Y-5.628
X4.3154Y-1.9754
X6.0841Y-1.978
X6.0868Y-5.6239
X6.1101Y-1.9154
X6.1101Y-2.0406
X6.1127Y-5.5613
X6.1127Y-5.6866
X6.1727Y-1.8894
X6.1727Y-2.0666
X6.1754Y-5.5354
X6.1754Y-5.7125
X6.2354Y-1.9154
X6.2354Y-2.0406
X6.238Y-5.5613
X6.238Y-5.6866
X6.2613Y-1.978
X6.2639Y-5.6239
T4
X4.6913Y-2.95
X5.2756Y-3.0437
X5.8858Y-2.2421
X5.9374Y-2.9811
X5.9874Y-2.926
X5.988Y-2.4563
T7
X4.8Y-3.2189
X4.8Y-3.307
X4.8Y-3.3951
X4.8075Y-3.7446
X4.8075Y-3.8327
X4.8445Y-2.1823
X4.8787Y-3.2201
X4.8795Y-3.3071
X4.8799Y-3.3953
X4.8909Y-2.4551
X4.9028Y-3.7458
X4.9028Y-3.8339
X5.002Y-3.7458
X5.002Y-3.8339
X5.1531Y-4.0992
X5.1531Y-4.2051
X5.1531Y-4.311
X5.1571Y-4.7792
X5.1571Y-4.8673
X5.2402Y-4.1
X5.2402Y-4.2059
X5.2402Y-4.3118
X5.2524Y-4.7804
X5.2524Y-4.8685
X5.3236Y-4.1024
X5.3236Y-4.2083
X5.3236Y-4.3142
X5.4047Y-4.1012
X5.4047Y-4.2071
T8
X6.2161Y-4.9201
X6.2161Y-5.0201
X6.2161Y-5.1201
T9
X4.5622Y-5.5835
X4.6622Y-5.5835
X4.7622Y-5.5835
X4.8622Y-5.5835
T10
X4.2227Y-5.628
X4.2268Y-1.9754
X6.1727Y-1.978
X6.1754Y-5.6239
T5
G00X4.1594Y-3.1984
M15
G01X4.1909Y-3.1984
M16
G05
G00X4.1594Y-3.5386
M15
G01X4.1909Y-3.5386
M16
G05
G00X4.3181Y-3.1984
M15
G01X4.3614Y-3.1984
M16
G05
G00X4.3181Y-3.5386
M15
G01X4.3614Y-3.5386
M16
G05
T6
G00X4.3972Y-2.5707
M15
G01X4.3972Y-2.4805
M16
G05
G00X4.4439Y-2.3394
M15
G01X4.5341Y-2.3394
M16
G05
G00X4.6307Y-2.5707
M15
G01X4.6307Y-2.4805
M16
G05
T0
M30
