%TF.GenerationSoftware,KiCad,Pcbnew,7.0.9*%
%TF.CreationDate,2024-02-22T17:15:05-05:00*%
%TF.ProjectId,blockaxe1,626c6f63-6b61-4786-9531-2e6b69636164,rev?*%
%TF.SameCoordinates,Original*%
%TF.FileFunction,Soldermask,Top*%
%TF.FilePolarity,Negative*%
%FSLAX46Y46*%
G04 Gerber Fmt 4.6, Leading zero omitted, Abs format (unit mm)*
G04 Created by KiCad (PCBNEW 7.0.9) date 2024-02-22 17:15:05*
%MOMM*%
%LPD*%
G01*
G04 APERTURE LIST*
G04 Aperture macros list*
%AMRoundRect*
0 Rectangle with rounded corners*
0 $1 Rounding radius*
0 $2 $3 $4 $5 $6 $7 $8 $9 X,Y pos of 4 corners*
0 Add a 4 corners polygon primitive as box body*
4,1,4,$2,$3,$4,$5,$6,$7,$8,$9,$2,$3,0*
0 Add four circle primitives for the rounded corners*
1,1,$1+$1,$2,$3*
1,1,$1+$1,$4,$5*
1,1,$1+$1,$6,$7*
1,1,$1+$1,$8,$9*
0 Add four rect primitives between the rounded corners*
20,1,$1+$1,$2,$3,$4,$5,0*
20,1,$1+$1,$4,$5,$6,$7,0*
20,1,$1+$1,$6,$7,$8,$9,0*
20,1,$1+$1,$8,$9,$2,$3,0*%
G04 Aperture macros list end*
%ADD10C,3.500000*%
%ADD11C,0.650000*%
%ADD12O,2.100000X1.000000*%
%ADD13O,1.800000X1.000000*%
%ADD14RoundRect,0.102000X0.650000X0.550000X-0.650000X0.550000X-0.650000X-0.550000X0.650000X-0.550000X0*%
%ADD15RoundRect,0.140000X0.170000X-0.140000X0.170000X0.140000X-0.170000X0.140000X-0.170000X-0.140000X0*%
%ADD16RoundRect,0.135000X-0.135000X-0.185000X0.135000X-0.185000X0.135000X0.185000X-0.135000X0.185000X0*%
%ADD17RoundRect,0.150000X0.150000X-0.512500X0.150000X0.512500X-0.150000X0.512500X-0.150000X-0.512500X0*%
%ADD18RoundRect,0.250000X-0.475000X0.250000X-0.475000X-0.250000X0.475000X-0.250000X0.475000X0.250000X0*%
%ADD19RoundRect,0.140000X-0.140000X-0.170000X0.140000X-0.170000X0.140000X0.170000X-0.140000X0.170000X0*%
%ADD20RoundRect,0.250000X-0.250000X-0.475000X0.250000X-0.475000X0.250000X0.475000X-0.250000X0.475000X0*%
%ADD21C,1.000000*%
%ADD22RoundRect,0.140000X-0.170000X0.140000X-0.170000X-0.140000X0.170000X-0.140000X0.170000X0.140000X0*%
%ADD23C,0.800000*%
%ADD24C,6.000000*%
%ADD25RoundRect,0.100000X-0.100000X0.637500X-0.100000X-0.637500X0.100000X-0.637500X0.100000X0.637500X0*%
%ADD26RoundRect,0.135000X0.135000X0.185000X-0.135000X0.185000X-0.135000X-0.185000X0.135000X-0.185000X0*%
%ADD27RoundRect,0.250000X0.325000X1.100000X-0.325000X1.100000X-0.325000X-1.100000X0.325000X-1.100000X0*%
%ADD28R,0.609600X0.304800*%
%ADD29R,0.304800X0.609600*%
%ADD30C,0.500000*%
%ADD31R,2.590800X2.590800*%
%ADD32C,2.000000*%
%ADD33RoundRect,0.140000X0.140000X0.170000X-0.140000X0.170000X-0.140000X-0.170000X0.140000X-0.170000X0*%
%ADD34RoundRect,0.135000X0.185000X-0.135000X0.185000X0.135000X-0.185000X0.135000X-0.185000X-0.135000X0*%
%ADD35RoundRect,0.250000X-1.100000X0.325000X-1.100000X-0.325000X1.100000X-0.325000X1.100000X0.325000X0*%
%ADD36RoundRect,0.250000X-1.025000X0.875000X-1.025000X-0.875000X1.025000X-0.875000X1.025000X0.875000X0*%
%ADD37RoundRect,0.225000X0.250000X-0.225000X0.250000X0.225000X-0.250000X0.225000X-0.250000X-0.225000X0*%
%ADD38RoundRect,0.102000X0.650000X-0.550000X0.650000X0.550000X-0.650000X0.550000X-0.650000X-0.550000X0*%
%ADD39RoundRect,0.100000X-0.637500X-0.100000X0.637500X-0.100000X0.637500X0.100000X-0.637500X0.100000X0*%
%ADD40RoundRect,0.225000X-0.225000X-0.250000X0.225000X-0.250000X0.225000X0.250000X-0.225000X0.250000X0*%
%ADD41RoundRect,0.135000X-0.185000X0.135000X-0.185000X-0.135000X0.185000X-0.135000X0.185000X0.135000X0*%
%ADD42RoundRect,0.112500X0.112500X-0.187500X0.112500X0.187500X-0.112500X0.187500X-0.112500X-0.187500X0*%
%ADD43R,1.100000X0.400000*%
%ADD44R,0.304800X0.812800*%
%ADD45R,0.812800X0.304800*%
%ADD46R,5.689600X5.689600*%
%ADD47R,0.787400X0.711200*%
%ADD48R,4.500000X4.500000*%
%ADD49R,0.558800X0.952500*%
%ADD50R,0.400000X1.100000*%
%ADD51RoundRect,0.250000X0.250000X0.475000X-0.250000X0.475000X-0.250000X-0.475000X0.250000X-0.475000X0*%
%ADD52R,3.430000X2.790000*%
%ADD53RoundRect,0.250000X0.475000X-0.250000X0.475000X0.250000X-0.475000X0.250000X-0.475000X-0.250000X0*%
%ADD54R,1.168400X1.600200*%
%ADD55C,1.295400*%
%ADD56C,1.574800*%
%ADD57C,0.990600*%
%ADD58R,1.700000X1.700000*%
%ADD59O,1.700000X1.700000*%
%ADD60O,2.104000X4.004000*%
%ADD61O,4.004000X2.104000*%
G04 APERTURE END LIST*
%TO.C,Q5*%
G36*
X126025478Y-80547378D02*
G01*
X125234522Y-80547378D01*
X125234522Y-79832622D01*
X126025478Y-79832622D01*
X126025478Y-80547378D01*
G37*
G36*
X126025478Y-81817378D02*
G01*
X125234522Y-81817378D01*
X125234522Y-81102622D01*
X126025478Y-81102622D01*
X126025478Y-81817378D01*
G37*
G36*
X126025478Y-83087378D02*
G01*
X125234522Y-83087378D01*
X125234522Y-82372622D01*
X126025478Y-82372622D01*
X126025478Y-83087378D01*
G37*
G36*
X126025478Y-84357378D02*
G01*
X125234522Y-84357378D01*
X125234522Y-83642622D01*
X126025478Y-83642622D01*
X126025478Y-84357378D01*
G37*
G36*
X131613478Y-80547378D02*
G01*
X130822522Y-80547378D01*
X130822522Y-79832622D01*
X131613478Y-79832622D01*
X131613478Y-80547378D01*
G37*
G36*
X131613478Y-81817378D02*
G01*
X130822522Y-81817378D01*
X130822522Y-81102622D01*
X131613478Y-81102622D01*
X131613478Y-81817378D01*
G37*
G36*
X131613478Y-83087378D02*
G01*
X130822522Y-83087378D01*
X130822522Y-82372622D01*
X131613478Y-82372622D01*
X131613478Y-83087378D01*
G37*
G36*
X131613478Y-84357378D02*
G01*
X130822522Y-84357378D01*
X130822522Y-83642622D01*
X131613478Y-83642622D01*
X131613478Y-84357378D01*
G37*
%TO.C,Q1*%
G36*
X131589478Y-78392378D02*
G01*
X130798522Y-78392378D01*
X130798522Y-77677622D01*
X131589478Y-77677622D01*
X131589478Y-78392378D01*
G37*
G36*
X131589478Y-77122378D02*
G01*
X130798522Y-77122378D01*
X130798522Y-76407622D01*
X131589478Y-76407622D01*
X131589478Y-77122378D01*
G37*
G36*
X131589478Y-75852378D02*
G01*
X130798522Y-75852378D01*
X130798522Y-75137622D01*
X131589478Y-75137622D01*
X131589478Y-75852378D01*
G37*
G36*
X131589478Y-74582378D02*
G01*
X130798522Y-74582378D01*
X130798522Y-73867622D01*
X131589478Y-73867622D01*
X131589478Y-74582378D01*
G37*
G36*
X126001478Y-78392378D02*
G01*
X125210522Y-78392378D01*
X125210522Y-77677622D01*
X126001478Y-77677622D01*
X126001478Y-78392378D01*
G37*
G36*
X126001478Y-77122378D02*
G01*
X125210522Y-77122378D01*
X125210522Y-76407622D01*
X126001478Y-76407622D01*
X126001478Y-77122378D01*
G37*
G36*
X126001478Y-75852378D02*
G01*
X125210522Y-75852378D01*
X125210522Y-75137622D01*
X126001478Y-75137622D01*
X126001478Y-75852378D01*
G37*
G36*
X126001478Y-74582378D02*
G01*
X125210522Y-74582378D01*
X125210522Y-73867622D01*
X126001478Y-73867622D01*
X126001478Y-74582378D01*
G37*
%TD*%
D10*
%TO.C,H6*%
X152770000Y-137290000D03*
%TD*%
D11*
%TO.C,J4*%
X109730000Y-88450000D03*
X109730000Y-82670000D03*
D12*
X110230000Y-89880000D03*
D13*
X106050000Y-89880000D03*
D12*
X110230000Y-81240000D03*
D13*
X106050000Y-81240000D03*
%TD*%
D14*
%TO.C,Y3*%
X148800000Y-123390000D03*
X146500000Y-123390000D03*
X146500000Y-125190000D03*
X148800000Y-125190000D03*
%TD*%
D15*
%TO.C,C9*%
X150650000Y-124810000D03*
X150650000Y-123850000D03*
%TD*%
%TO.C,C8*%
X144910000Y-124770000D03*
X144910000Y-123810000D03*
%TD*%
D16*
%TO.C,R6*%
X129520000Y-62340000D03*
X130540000Y-62340000D03*
%TD*%
%TO.C,R13*%
X152400000Y-106970000D03*
X153420000Y-106970000D03*
%TD*%
D17*
%TO.C,U5*%
X131290000Y-129507500D03*
X132240000Y-129507500D03*
X133190000Y-129507500D03*
X133190000Y-127232500D03*
X131290000Y-127232500D03*
%TD*%
D18*
%TO.C,C58*%
X136780000Y-67750000D03*
X136780000Y-69650000D03*
%TD*%
D19*
%TO.C,C49*%
X136810000Y-109740000D03*
X137770000Y-109740000D03*
%TD*%
D20*
%TO.C,C18*%
X150310000Y-79020000D03*
X152210000Y-79020000D03*
%TD*%
D21*
%TO.C,TP18*%
X142650000Y-101390000D03*
%TD*%
D22*
%TO.C,C12*%
X129340000Y-126940000D03*
X129340000Y-127900000D03*
%TD*%
D19*
%TO.C,C15*%
X121390000Y-63770000D03*
X122350000Y-63770000D03*
%TD*%
D22*
%TO.C,C59*%
X138880000Y-76120000D03*
X138880000Y-77080000D03*
%TD*%
D23*
%TO.C,H1*%
X105109949Y-50173949D03*
X105768959Y-48582959D03*
X105768959Y-51764939D03*
X107359949Y-47923949D03*
D24*
X107359949Y-50173949D03*
D23*
X107359949Y-52423949D03*
X108950939Y-48582959D03*
X108950939Y-51764939D03*
X109609949Y-50173949D03*
%TD*%
D10*
%TO.C,H5*%
X111404000Y-95924000D03*
%TD*%
D25*
%TO.C,U9*%
X115850000Y-69835000D03*
X115200000Y-69835000D03*
X114550000Y-69835000D03*
X113900000Y-69835000D03*
X113250000Y-69835000D03*
X112600000Y-69835000D03*
X111950000Y-69835000D03*
X111300000Y-69835000D03*
X111300000Y-75560000D03*
X111950000Y-75560000D03*
X112600000Y-75560000D03*
X113250000Y-75560000D03*
X113900000Y-75560000D03*
X114550000Y-75560000D03*
X115200000Y-75560000D03*
X115850000Y-75560000D03*
%TD*%
D19*
%TO.C,C45*%
X138540000Y-120020000D03*
X139500000Y-120020000D03*
%TD*%
D26*
%TO.C,R9*%
X109090000Y-137290000D03*
X108070000Y-137290000D03*
%TD*%
D27*
%TO.C,C29*%
X130955000Y-90260000D03*
X128005000Y-90260000D03*
%TD*%
D22*
%TO.C,C26*%
X111220000Y-129570000D03*
X111220000Y-130530000D03*
%TD*%
D28*
%TO.C,U16*%
X133520001Y-69549999D03*
X133520001Y-68900001D03*
X133520001Y-68249999D03*
X133520001Y-67600001D03*
D29*
X132590000Y-66670000D03*
X131940002Y-66670000D03*
X131290000Y-66670000D03*
X130640002Y-66670000D03*
D28*
X129710001Y-67600001D03*
X129710001Y-68249999D03*
X129710001Y-68900001D03*
X129710001Y-69549999D03*
D29*
X130640002Y-70480000D03*
X131290000Y-70480000D03*
X131940002Y-70480000D03*
X132590000Y-70480000D03*
D30*
X132505001Y-68575000D03*
X131615001Y-69465000D03*
X131615001Y-68575000D03*
D31*
X131615001Y-68575000D03*
D30*
X131615001Y-67685000D03*
X130735001Y-68575000D03*
%TD*%
D32*
%TO.C,FID1*%
X107320000Y-55670000D03*
%TD*%
%TO.C,FID4*%
X151920000Y-142880000D03*
%TD*%
D18*
%TO.C,C57*%
X139220000Y-66500000D03*
X139220000Y-68400000D03*
%TD*%
D21*
%TO.C,TP38*%
X154410000Y-127610000D03*
%TD*%
D19*
%TO.C,C23*%
X145440000Y-55310000D03*
X146400000Y-55310000D03*
%TD*%
D21*
%TO.C,TP5*%
X141750000Y-107720000D03*
%TD*%
%TO.C,TP3*%
X149590000Y-94400000D03*
%TD*%
%TO.C,TP20*%
X124300000Y-106810000D03*
%TD*%
D26*
%TO.C,R29*%
X137400000Y-74520000D03*
X136380000Y-74520000D03*
%TD*%
D19*
%TO.C,C16*%
X123950000Y-50510000D03*
X124910000Y-50510000D03*
%TD*%
D33*
%TO.C,C13*%
X127660000Y-111890000D03*
X126700000Y-111890000D03*
%TD*%
D34*
%TO.C,R26*%
X137530000Y-79080000D03*
X137530000Y-78060000D03*
%TD*%
%TO.C,R4*%
X113680000Y-89610000D03*
X113680000Y-88590000D03*
%TD*%
D35*
%TO.C,C52*%
X122210000Y-76465000D03*
X122210000Y-79415000D03*
%TD*%
D36*
%TO.C,C51*%
X132290000Y-112980000D03*
X132290000Y-119380000D03*
%TD*%
D21*
%TO.C,TP22*%
X115200000Y-110100000D03*
%TD*%
%TO.C,TP37*%
X133270000Y-60950000D03*
%TD*%
D34*
%TO.C,R21*%
X121340000Y-73880000D03*
X121340000Y-72860000D03*
%TD*%
D15*
%TO.C,C28*%
X155290000Y-101360000D03*
X155290000Y-100400000D03*
%TD*%
D21*
%TO.C,TP21*%
X126310000Y-106750000D03*
%TD*%
D37*
%TO.C,C54*%
X125030000Y-69905000D03*
X125030000Y-68355000D03*
%TD*%
D21*
%TO.C,TP31*%
X155270000Y-106720000D03*
%TD*%
%TO.C,TP34*%
X151700000Y-108820000D03*
%TD*%
%TO.C,TP11*%
X116470000Y-55400000D03*
%TD*%
D38*
%TO.C,Y1*%
X122680000Y-121750000D03*
X124980000Y-121750000D03*
X124980000Y-119850000D03*
X122680000Y-119850000D03*
%TD*%
D27*
%TO.C,C30*%
X130945000Y-86900000D03*
X127995000Y-86900000D03*
%TD*%
D21*
%TO.C,TP33*%
X155850000Y-103340000D03*
%TD*%
%TO.C,TP10*%
X118770000Y-57720000D03*
%TD*%
D34*
%TO.C,R17*%
X134870000Y-128750000D03*
X134870000Y-127730000D03*
%TD*%
D39*
%TO.C,U12*%
X147675000Y-100890000D03*
X147675000Y-101540000D03*
X147675000Y-102190000D03*
X147675000Y-102840000D03*
X147675000Y-103490000D03*
X147675000Y-104140000D03*
X147675000Y-104790000D03*
X147675000Y-105440000D03*
X153400000Y-105440000D03*
X153400000Y-104790000D03*
X153400000Y-104140000D03*
X153400000Y-103490000D03*
X153400000Y-102840000D03*
X153400000Y-102190000D03*
X153400000Y-101540000D03*
X153400000Y-100890000D03*
%TD*%
D21*
%TO.C,TP15*%
X140900000Y-114120000D03*
%TD*%
%TO.C,TP39*%
X157790000Y-122060000D03*
%TD*%
D33*
%TO.C,C48*%
X129930000Y-109190000D03*
X128970000Y-109190000D03*
%TD*%
D21*
%TO.C,TP29*%
X145830000Y-107100000D03*
%TD*%
D15*
%TO.C,C4*%
X146710000Y-111310000D03*
X146710000Y-110350000D03*
%TD*%
D33*
%TO.C,C7*%
X124320000Y-123590000D03*
X123360000Y-123590000D03*
%TD*%
D40*
%TO.C,C62*%
X140205000Y-77500000D03*
X141755000Y-77500000D03*
%TD*%
D34*
%TO.C,R8*%
X112790000Y-130580000D03*
X112790000Y-129560000D03*
%TD*%
D21*
%TO.C,TP17*%
X138830000Y-112040000D03*
%TD*%
D41*
%TO.C,R5*%
X112950000Y-82090000D03*
X112950000Y-83110000D03*
%TD*%
D21*
%TO.C,TP6*%
X148140000Y-90890000D03*
%TD*%
D33*
%TO.C,C6*%
X145320000Y-121540000D03*
X144360000Y-121540000D03*
%TD*%
D21*
%TO.C,TP16*%
X140930000Y-112060000D03*
%TD*%
D33*
%TO.C,C17*%
X121310000Y-55430000D03*
X120350000Y-55430000D03*
%TD*%
D23*
%TO.C,H2*%
X154536959Y-50240939D03*
X155195969Y-48649949D03*
X155195969Y-51831929D03*
X156786959Y-47990939D03*
D24*
X156786959Y-50240939D03*
D23*
X156786959Y-52490939D03*
X158377949Y-48649949D03*
X158377949Y-51831929D03*
X159036959Y-50240939D03*
%TD*%
D42*
%TO.C,D2*%
X127120000Y-70477500D03*
X127120000Y-68377500D03*
%TD*%
D21*
%TO.C,TP7*%
X118820000Y-53460000D03*
%TD*%
D43*
%TO.C,U10*%
X147950000Y-58915000D03*
X147950000Y-58265000D03*
X147950000Y-57615000D03*
X147950000Y-56965000D03*
X143650000Y-56965000D03*
X143650000Y-57615000D03*
X143650000Y-58265000D03*
X143650000Y-58915000D03*
%TD*%
D26*
%TO.C,R3*%
X124950000Y-51750000D03*
X123930000Y-51750000D03*
%TD*%
D33*
%TO.C,C5*%
X144580000Y-119440000D03*
X143620000Y-119440000D03*
%TD*%
D22*
%TO.C,C56*%
X134850000Y-71350000D03*
X134850000Y-72310000D03*
%TD*%
D44*
%TO.C,U2*%
X147420000Y-120134400D03*
X147919999Y-120134400D03*
X148420001Y-120134400D03*
X148920000Y-120134400D03*
X149419999Y-120134400D03*
X149920000Y-120134400D03*
X150420000Y-120134400D03*
X150920001Y-120134400D03*
X151420000Y-120134400D03*
X151919999Y-120134400D03*
X152420001Y-120134400D03*
X152920000Y-120134400D03*
D45*
X153624400Y-119430000D03*
X153624400Y-118930001D03*
X153624400Y-118429999D03*
X153624400Y-117930000D03*
X153624400Y-117430001D03*
X153624400Y-116930000D03*
X153624400Y-116430000D03*
X153624400Y-115929999D03*
X153624400Y-115430000D03*
X153624400Y-114930001D03*
X153624400Y-114429999D03*
X153624400Y-113930000D03*
D44*
X152920000Y-113225600D03*
X152420001Y-113225600D03*
X151919999Y-113225600D03*
X151420000Y-113225600D03*
X150920001Y-113225600D03*
X150420000Y-113225600D03*
X149920000Y-113225600D03*
X149419999Y-113225600D03*
X148920000Y-113225600D03*
X148420001Y-113225600D03*
X147919999Y-113225600D03*
X147420000Y-113225600D03*
D45*
X146715600Y-113930000D03*
X146715600Y-114429999D03*
X146715600Y-114930001D03*
X146715600Y-115430000D03*
X146715600Y-115929999D03*
X146715600Y-116430000D03*
X146715600Y-116930000D03*
X146715600Y-117430001D03*
X146715600Y-117930000D03*
X146715600Y-118429999D03*
X146715600Y-118930001D03*
X146715600Y-119430000D03*
D46*
X150170000Y-116680000D03*
%TD*%
D21*
%TO.C,TP25*%
X121340000Y-110140000D03*
%TD*%
D20*
%TO.C,C53*%
X121340000Y-69670000D03*
X123240000Y-69670000D03*
%TD*%
D21*
%TO.C,TP13*%
X112030000Y-134940000D03*
%TD*%
%TO.C,TP26*%
X139280000Y-124840000D03*
%TD*%
D19*
%TO.C,C22*%
X113820000Y-79030000D03*
X114780000Y-79030000D03*
%TD*%
D15*
%TO.C,C10*%
X129350000Y-130000000D03*
X129350000Y-129040000D03*
%TD*%
D47*
%TO.C,Q5*%
X125630000Y-80190000D03*
X125630000Y-81460000D03*
X125630000Y-82730000D03*
X125630000Y-84000000D03*
D48*
X128604000Y-82085000D03*
D47*
X131218000Y-80190000D03*
X131218000Y-81460000D03*
X131218000Y-82730000D03*
X131218000Y-84000000D03*
%TD*%
D21*
%TO.C,TP9*%
X146260000Y-63500000D03*
%TD*%
%TO.C,TP2*%
X141200000Y-63060000D03*
%TD*%
%TO.C,TP24*%
X119280000Y-110120000D03*
%TD*%
D15*
%TO.C,C21*%
X143010000Y-68880000D03*
X143010000Y-67920000D03*
%TD*%
D21*
%TO.C,TP32*%
X148890000Y-109080000D03*
%TD*%
D41*
%TO.C,R24*%
X138740000Y-70000000D03*
X138740000Y-71020000D03*
%TD*%
D19*
%TO.C,C3*%
X155870000Y-113210000D03*
X156830000Y-113210000D03*
%TD*%
D15*
%TO.C,C19*%
X145950000Y-69120000D03*
X145950000Y-68160000D03*
%TD*%
D16*
%TO.C,R10*%
X129530000Y-60930000D03*
X130550000Y-60930000D03*
%TD*%
D21*
%TO.C,TP30*%
X155700000Y-110110000D03*
%TD*%
%TO.C,TP14*%
X111650000Y-138040000D03*
%TD*%
D49*
%TO.C,U7*%
X121040200Y-60347950D03*
X121980000Y-60347950D03*
X122919800Y-60347950D03*
X122919800Y-57592050D03*
X121040200Y-57592050D03*
%TD*%
D22*
%TO.C,C1*%
X154280000Y-123050000D03*
X154280000Y-124010000D03*
%TD*%
D50*
%TO.C,U11*%
X107665000Y-135330000D03*
X108315000Y-135330000D03*
X108965000Y-135330000D03*
X109615000Y-135330000D03*
X109615000Y-131030000D03*
X108965000Y-131030000D03*
X108315000Y-131030000D03*
X107665000Y-131030000D03*
%TD*%
D21*
%TO.C,TP35*%
X153890000Y-109010000D03*
%TD*%
D19*
%TO.C,C20*%
X150830000Y-77430000D03*
X151790000Y-77430000D03*
%TD*%
D21*
%TO.C,TP1*%
X137250000Y-123640000D03*
%TD*%
D51*
%TO.C,C60*%
X140840000Y-74530000D03*
X138940000Y-74530000D03*
%TD*%
D16*
%TO.C,R12*%
X129520000Y-59350000D03*
X130540000Y-59350000D03*
%TD*%
D21*
%TO.C,TP19*%
X122250000Y-106840000D03*
%TD*%
%TO.C,TP4*%
X157350000Y-95360000D03*
%TD*%
D15*
%TO.C,C27*%
X145490000Y-100730000D03*
X145490000Y-99770000D03*
%TD*%
D26*
%TO.C,R7*%
X143620000Y-55490000D03*
X142600000Y-55490000D03*
%TD*%
%TO.C,R27*%
X140910000Y-76110000D03*
X139890000Y-76110000D03*
%TD*%
D47*
%TO.C,Q1*%
X131194000Y-78035000D03*
X131194000Y-76765000D03*
X131194000Y-75495000D03*
X131194000Y-74225000D03*
D48*
X128220000Y-76140000D03*
D47*
X125606000Y-78035000D03*
X125606000Y-76765000D03*
X125606000Y-75495000D03*
X125606000Y-74225000D03*
%TD*%
D26*
%TO.C,R30*%
X138360000Y-72460000D03*
X137340000Y-72460000D03*
%TD*%
%TO.C,R20*%
X123900000Y-116210000D03*
X122880000Y-116210000D03*
%TD*%
D41*
%TO.C,R1*%
X153040000Y-123020000D03*
X153040000Y-124040000D03*
%TD*%
D19*
%TO.C,C50*%
X135650000Y-111390000D03*
X136610000Y-111390000D03*
%TD*%
D21*
%TO.C,TP23*%
X117240000Y-110090000D03*
%TD*%
%TO.C,TP36*%
X136950000Y-62370000D03*
%TD*%
D15*
%TO.C,C46*%
X127550000Y-117610000D03*
X127550000Y-116650000D03*
%TD*%
D52*
%TO.C,L2*%
X136160000Y-81925000D03*
X136160000Y-87055000D03*
%TD*%
D34*
%TO.C,R23*%
X134790000Y-67550000D03*
X134790000Y-66530000D03*
%TD*%
D53*
%TO.C,C55*%
X126890000Y-66570000D03*
X126890000Y-64670000D03*
%TD*%
D23*
%TO.C,H3*%
X105006959Y-142950939D03*
X105665969Y-141359949D03*
X105665969Y-144541929D03*
X107256959Y-140700939D03*
D24*
X107256959Y-142950939D03*
D23*
X107256959Y-145200939D03*
X108847949Y-141359949D03*
X108847949Y-144541929D03*
X109506959Y-142950939D03*
%TD*%
D33*
%TO.C,C47*%
X129930000Y-110700000D03*
X128970000Y-110700000D03*
%TD*%
D16*
%TO.C,R19*%
X122890000Y-115070000D03*
X123910000Y-115070000D03*
%TD*%
D34*
%TO.C,R25*%
X136330000Y-78050000D03*
X136330000Y-77030000D03*
%TD*%
D19*
%TO.C,C2*%
X155860000Y-114920000D03*
X156820000Y-114920000D03*
%TD*%
D21*
%TO.C,TP28*%
X144100000Y-105530000D03*
%TD*%
D41*
%TO.C,R18*%
X134870000Y-125510000D03*
X134870000Y-126530000D03*
%TD*%
D19*
%TO.C,C25*%
X121720000Y-137340000D03*
X122680000Y-137340000D03*
%TD*%
D54*
%TO.C,Y2*%
X145802400Y-70670000D03*
X142957600Y-70670000D03*
%TD*%
D26*
%TO.C,R28*%
X140830000Y-72470000D03*
X139810000Y-72470000D03*
%TD*%
D16*
%TO.C,R2*%
X143590000Y-117450000D03*
X144610000Y-117450000D03*
%TD*%
D21*
%TO.C,TP8*%
X149060000Y-64550000D03*
%TD*%
D32*
%TO.C,FID8*%
X112360000Y-142540000D03*
%TD*%
D21*
%TO.C,TP12*%
X135710000Y-51130000D03*
%TD*%
D32*
%TO.C,FID7*%
X156970000Y-55620000D03*
%TD*%
D23*
%TO.C,H4*%
X154603949Y-142847949D03*
X155262959Y-141256959D03*
X155262959Y-144438939D03*
X156853949Y-140597949D03*
D24*
X156853949Y-142847949D03*
D23*
X156853949Y-145097949D03*
X158444939Y-141256959D03*
X158444939Y-144438939D03*
X159103949Y-142847949D03*
%TD*%
D21*
%TO.C,TP27*%
X142770000Y-103640000D03*
%TD*%
D55*
%TO.C,J6*%
X120960000Y-143980001D03*
D56*
X115880000Y-141820000D03*
X118420000Y-141820000D03*
X120960000Y-141820000D03*
X123500000Y-141820000D03*
%TD*%
D57*
%TO.C,J1*%
X156450000Y-91620000D03*
X151370000Y-92636000D03*
X151370000Y-90604000D03*
%TD*%
D58*
%TO.C,J7*%
X157890000Y-124970000D03*
D59*
X157890000Y-127510000D03*
X157890000Y-130050000D03*
%TD*%
D57*
%TO.C,J2*%
X156490000Y-84496000D03*
X151410000Y-85512000D03*
X151410000Y-83480000D03*
%TD*%
D60*
%TO.C,J5*%
X117620000Y-64150000D03*
X111690000Y-64150000D03*
D61*
X114020000Y-59420000D03*
%TD*%
M02*
