%TF.GenerationSoftware,KiCad,Pcbnew,7.0.9*%
%TF.CreationDate,2023-12-20T21:11:06-05:00*%
%TF.ProjectId,blockaxe1,626c6f63-6b61-4786-9531-2e6b69636164,rev?*%
%TF.SameCoordinates,Original*%
%TF.FileFunction,Paste,Top*%
%TF.FilePolarity,Positive*%
%FSLAX46Y46*%
G04 Gerber Fmt 4.6, Leading zero omitted, Abs format (unit mm)*
G04 Created by KiCad (PCBNEW 7.0.9) date 2023-12-20 21:11:06*
%MOMM*%
%LPD*%
G01*
G04 APERTURE LIST*
G04 Aperture macros list*
%AMRoundRect*
0 Rectangle with rounded corners*
0 $1 Rounding radius*
0 $2 $3 $4 $5 $6 $7 $8 $9 X,Y pos of 4 corners*
0 Add a 4 corners polygon primitive as box body*
4,1,4,$2,$3,$4,$5,$6,$7,$8,$9,$2,$3,0*
0 Add four circle primitives for the rounded corners*
1,1,$1+$1,$2,$3*
1,1,$1+$1,$4,$5*
1,1,$1+$1,$6,$7*
1,1,$1+$1,$8,$9*
0 Add four rect primitives between the rounded corners*
20,1,$1+$1,$2,$3,$4,$5,0*
20,1,$1+$1,$4,$5,$6,$7,0*
20,1,$1+$1,$6,$7,$8,$9,0*
20,1,$1+$1,$8,$9,$2,$3,0*%
G04 Aperture macros list end*
%ADD10C,0.010000*%
%ADD11RoundRect,0.250000X0.475000X-0.250000X0.475000X0.250000X-0.475000X0.250000X-0.475000X-0.250000X0*%
%ADD12RoundRect,0.225000X-0.225000X-0.250000X0.225000X-0.250000X0.225000X0.250000X-0.225000X0.250000X0*%
%ADD13RoundRect,0.135000X-0.135000X-0.185000X0.135000X-0.185000X0.135000X0.185000X-0.135000X0.185000X0*%
%ADD14RoundRect,0.150000X0.150000X-0.512500X0.150000X0.512500X-0.150000X0.512500X-0.150000X-0.512500X0*%
%ADD15RoundRect,0.250000X-0.475000X0.250000X-0.475000X-0.250000X0.475000X-0.250000X0.475000X0.250000X0*%
%ADD16RoundRect,0.140000X-0.140000X-0.170000X0.140000X-0.170000X0.140000X0.170000X-0.140000X0.170000X0*%
%ADD17RoundRect,0.250000X-0.250000X-0.475000X0.250000X-0.475000X0.250000X0.475000X-0.250000X0.475000X0*%
%ADD18RoundRect,0.140000X-0.170000X0.140000X-0.170000X-0.140000X0.170000X-0.140000X0.170000X0.140000X0*%
%ADD19RoundRect,0.100000X-0.100000X0.637500X-0.100000X-0.637500X0.100000X-0.637500X0.100000X0.637500X0*%
%ADD20RoundRect,0.135000X0.135000X0.185000X-0.135000X0.185000X-0.135000X-0.185000X0.135000X-0.185000X0*%
%ADD21RoundRect,0.250000X0.325000X1.100000X-0.325000X1.100000X-0.325000X-1.100000X0.325000X-1.100000X0*%
%ADD22R,0.609600X0.304800*%
%ADD23R,0.304800X0.609600*%
%ADD24RoundRect,0.140000X0.140000X0.170000X-0.140000X0.170000X-0.140000X-0.170000X0.140000X-0.170000X0*%
%ADD25RoundRect,0.135000X0.185000X-0.135000X0.185000X0.135000X-0.185000X0.135000X-0.185000X-0.135000X0*%
%ADD26RoundRect,0.250000X-1.100000X0.325000X-1.100000X-0.325000X1.100000X-0.325000X1.100000X0.325000X0*%
%ADD27RoundRect,0.250000X-1.025000X0.875000X-1.025000X-0.875000X1.025000X-0.875000X1.025000X0.875000X0*%
%ADD28RoundRect,0.225000X0.250000X-0.225000X0.250000X0.225000X-0.250000X0.225000X-0.250000X-0.225000X0*%
%ADD29RoundRect,0.150000X-0.512500X-0.150000X0.512500X-0.150000X0.512500X0.150000X-0.512500X0.150000X0*%
%ADD30R,1.300000X1.100000*%
%ADD31RoundRect,0.140000X0.170000X-0.140000X0.170000X0.140000X-0.170000X0.140000X-0.170000X-0.140000X0*%
%ADD32RoundRect,0.135000X-0.185000X0.135000X-0.185000X-0.135000X0.185000X-0.135000X0.185000X0.135000X0*%
%ADD33RoundRect,0.112500X0.112500X-0.187500X0.112500X0.187500X-0.112500X0.187500X-0.112500X-0.187500X0*%
%ADD34R,0.750001X0.439999*%
%ADD35R,1.100000X0.400000*%
%ADD36R,0.304800X0.812800*%
%ADD37R,0.812800X0.304800*%
%ADD38RoundRect,0.250000X-0.650000X1.000000X-0.650000X-1.000000X0.650000X-1.000000X0.650000X1.000000X0*%
%ADD39R,0.558800X0.952500*%
%ADD40R,0.400000X1.100000*%
%ADD41RoundRect,0.250000X0.250000X0.475000X-0.250000X0.475000X-0.250000X-0.475000X0.250000X-0.475000X0*%
%ADD42R,3.430000X2.790000*%
%ADD43R,1.168400X1.600200*%
%ADD44RoundRect,0.007800X-0.442200X-0.122200X0.442200X-0.122200X0.442200X0.122200X-0.442200X0.122200X0*%
%ADD45RoundRect,0.007800X0.122200X-0.442200X0.122200X0.442200X-0.122200X0.442200X-0.122200X-0.442200X0*%
G04 APERTURE END LIST*
%TO.C,U16*%
G36*
X132807150Y-69767149D02*
G01*
X131714950Y-69767149D01*
X131714950Y-68674949D01*
X132807150Y-68674949D01*
X132807150Y-69767149D01*
G37*
G36*
X132807150Y-68475051D02*
G01*
X131714950Y-68475051D01*
X131714950Y-67382851D01*
X132807150Y-67382851D01*
X132807150Y-68475051D01*
G37*
G36*
X131515052Y-69767149D02*
G01*
X130422852Y-69767149D01*
X130422852Y-68674949D01*
X131515052Y-68674949D01*
X131515052Y-69767149D01*
G37*
G36*
X131515052Y-68475051D02*
G01*
X130422852Y-68475051D01*
X130422852Y-67382851D01*
X131515052Y-67382851D01*
X131515052Y-68475051D01*
G37*
%TO.C,Q4*%
G36*
X128614192Y-74915971D02*
G01*
X128623705Y-74918857D01*
X128632470Y-74923540D01*
X128640154Y-74929847D01*
X128646458Y-74937531D01*
X128651144Y-74946296D01*
X128654027Y-74955806D01*
X128655002Y-74965697D01*
X128655002Y-75989296D01*
X128654027Y-75999187D01*
X128651144Y-76008697D01*
X128646458Y-76017462D01*
X128640154Y-76025146D01*
X128632470Y-76031453D01*
X128623705Y-76036136D01*
X128614192Y-76039022D01*
X128604301Y-76039995D01*
X128029703Y-76039995D01*
X128019812Y-76039022D01*
X128010300Y-76036136D01*
X128001534Y-76031453D01*
X127993851Y-76025146D01*
X127987546Y-76017462D01*
X127982860Y-76008697D01*
X127979977Y-75999187D01*
X127979002Y-75989296D01*
X127979002Y-74965697D01*
X127979977Y-74955806D01*
X127982860Y-74946296D01*
X127987546Y-74937531D01*
X127993851Y-74929847D01*
X128001534Y-74923540D01*
X128010300Y-74918857D01*
X128019812Y-74915971D01*
X128029703Y-74914996D01*
X128604301Y-74914996D01*
X128614192Y-74915971D01*
G37*
G36*
X128614192Y-73590975D02*
G01*
X128623705Y-73593860D01*
X128632470Y-73598544D01*
X128640154Y-73604851D01*
X128646458Y-73612535D01*
X128651144Y-73621300D01*
X128654027Y-73630810D01*
X128655002Y-73640701D01*
X128655002Y-74664300D01*
X128654027Y-74674191D01*
X128651144Y-74683701D01*
X128646458Y-74692466D01*
X128640154Y-74700150D01*
X128632470Y-74706457D01*
X128623705Y-74711140D01*
X128614192Y-74714026D01*
X128604301Y-74715001D01*
X128029703Y-74715001D01*
X128019812Y-74714026D01*
X128010300Y-74711140D01*
X128001534Y-74706457D01*
X127993851Y-74700150D01*
X127987546Y-74692466D01*
X127982860Y-74683701D01*
X127979977Y-74674191D01*
X127979002Y-74664300D01*
X127979002Y-73640701D01*
X127979977Y-73630810D01*
X127982860Y-73621300D01*
X127987546Y-73612535D01*
X127993851Y-73604851D01*
X128001534Y-73598544D01*
X128010300Y-73593860D01*
X128019812Y-73590975D01*
X128029703Y-73590002D01*
X128604301Y-73590002D01*
X128614192Y-73590975D01*
G37*
G36*
X127738192Y-74915971D02*
G01*
X127747704Y-74918857D01*
X127756470Y-74923540D01*
X127764153Y-74929847D01*
X127770458Y-74937531D01*
X127775144Y-74946296D01*
X127778027Y-74955806D01*
X127779002Y-74965697D01*
X127779002Y-75989296D01*
X127778027Y-75999187D01*
X127775144Y-76008697D01*
X127770458Y-76017462D01*
X127764153Y-76025146D01*
X127756470Y-76031453D01*
X127747704Y-76036136D01*
X127738192Y-76039022D01*
X127728301Y-76039995D01*
X127153702Y-76039995D01*
X127143812Y-76039022D01*
X127134299Y-76036136D01*
X127125534Y-76031453D01*
X127117850Y-76025146D01*
X127111546Y-76017462D01*
X127106860Y-76008697D01*
X127103977Y-75999187D01*
X127103001Y-75989296D01*
X127103001Y-74965697D01*
X127103977Y-74955806D01*
X127106860Y-74946296D01*
X127111546Y-74937531D01*
X127117850Y-74929847D01*
X127125534Y-74923540D01*
X127134299Y-74918857D01*
X127143812Y-74915971D01*
X127153702Y-74914996D01*
X127728301Y-74914996D01*
X127738192Y-74915971D01*
G37*
G36*
X127738192Y-73590975D02*
G01*
X127747704Y-73593860D01*
X127756470Y-73598544D01*
X127764153Y-73604851D01*
X127770458Y-73612535D01*
X127775144Y-73621300D01*
X127778027Y-73630810D01*
X127779002Y-73640701D01*
X127779002Y-74664300D01*
X127778027Y-74674191D01*
X127775144Y-74683701D01*
X127770458Y-74692466D01*
X127764153Y-74700150D01*
X127756470Y-74706457D01*
X127747704Y-74711140D01*
X127738192Y-74714026D01*
X127728301Y-74715001D01*
X127153702Y-74715001D01*
X127143812Y-74714026D01*
X127134299Y-74711140D01*
X127125534Y-74706457D01*
X127117850Y-74700150D01*
X127111546Y-74692466D01*
X127106860Y-74683701D01*
X127103977Y-74674191D01*
X127103001Y-74664300D01*
X127103001Y-73640701D01*
X127103977Y-73630810D01*
X127106860Y-73621300D01*
X127111546Y-73612535D01*
X127117850Y-73604851D01*
X127125534Y-73598544D01*
X127134299Y-73593860D01*
X127143812Y-73590975D01*
X127153702Y-73590002D01*
X127728301Y-73590002D01*
X127738192Y-73590975D01*
G37*
%TO.C,U2*%
G36*
X148647600Y-119424800D02*
G01*
X147425200Y-119424800D01*
X147425200Y-118202400D01*
X148647600Y-118202400D01*
X148647600Y-119424800D01*
G37*
G36*
X150070000Y-119424800D02*
G01*
X148847600Y-119424800D01*
X148847600Y-118202400D01*
X150070000Y-118202400D01*
X150070000Y-119424800D01*
G37*
G36*
X151492400Y-119424800D02*
G01*
X150270000Y-119424800D01*
X150270000Y-118202400D01*
X151492400Y-118202400D01*
X151492400Y-119424800D01*
G37*
G36*
X152914800Y-119424800D02*
G01*
X151692400Y-119424800D01*
X151692400Y-118202400D01*
X152914800Y-118202400D01*
X152914800Y-119424800D01*
G37*
G36*
X148647600Y-118002400D02*
G01*
X147425200Y-118002400D01*
X147425200Y-116780000D01*
X148647600Y-116780000D01*
X148647600Y-118002400D01*
G37*
G36*
X150070000Y-118002400D02*
G01*
X148847600Y-118002400D01*
X148847600Y-116780000D01*
X150070000Y-116780000D01*
X150070000Y-118002400D01*
G37*
G36*
X151492400Y-118002400D02*
G01*
X150270000Y-118002400D01*
X150270000Y-116780000D01*
X151492400Y-116780000D01*
X151492400Y-118002400D01*
G37*
G36*
X152914800Y-118002400D02*
G01*
X151692400Y-118002400D01*
X151692400Y-116780000D01*
X152914800Y-116780000D01*
X152914800Y-118002400D01*
G37*
G36*
X148647600Y-116580000D02*
G01*
X147425200Y-116580000D01*
X147425200Y-115357600D01*
X148647600Y-115357600D01*
X148647600Y-116580000D01*
G37*
G36*
X150070000Y-116580000D02*
G01*
X148847600Y-116580000D01*
X148847600Y-115357600D01*
X150070000Y-115357600D01*
X150070000Y-116580000D01*
G37*
G36*
X151492400Y-116580000D02*
G01*
X150270000Y-116580000D01*
X150270000Y-115357600D01*
X151492400Y-115357600D01*
X151492400Y-116580000D01*
G37*
G36*
X152914800Y-116580000D02*
G01*
X151692400Y-116580000D01*
X151692400Y-115357600D01*
X152914800Y-115357600D01*
X152914800Y-116580000D01*
G37*
G36*
X148647600Y-115157600D02*
G01*
X147425200Y-115157600D01*
X147425200Y-113935200D01*
X148647600Y-113935200D01*
X148647600Y-115157600D01*
G37*
G36*
X150070000Y-115157600D02*
G01*
X148847600Y-115157600D01*
X148847600Y-113935200D01*
X150070000Y-113935200D01*
X150070000Y-115157600D01*
G37*
G36*
X151492400Y-115157600D02*
G01*
X150270000Y-115157600D01*
X150270000Y-113935200D01*
X151492400Y-113935200D01*
X151492400Y-115157600D01*
G37*
G36*
X152914800Y-115157600D02*
G01*
X151692400Y-115157600D01*
X151692400Y-113935200D01*
X152914800Y-113935200D01*
X152914800Y-115157600D01*
G37*
%TO.C,Q5*%
G36*
X127245065Y-79414965D02*
G01*
X126458935Y-79414965D01*
X126458935Y-78705035D01*
X127245065Y-78705035D01*
X127245065Y-79414965D01*
G37*
G36*
X127245065Y-80684965D02*
G01*
X126458935Y-80684965D01*
X126458935Y-79975035D01*
X127245065Y-79975035D01*
X127245065Y-80684965D01*
G37*
G36*
X127245065Y-81954965D02*
G01*
X126458935Y-81954965D01*
X126458935Y-81245035D01*
X127245065Y-81245035D01*
X127245065Y-81954965D01*
G37*
G36*
X127245065Y-83224965D02*
G01*
X126458935Y-83224965D01*
X126458935Y-82515035D01*
X127245065Y-82515035D01*
X127245065Y-83224965D01*
G37*
G36*
X129773000Y-80076000D02*
G01*
X127868000Y-80076000D01*
X127868000Y-78806000D01*
X129773000Y-78806000D01*
X129773000Y-80076000D01*
G37*
G36*
X129773000Y-81600000D02*
G01*
X127868000Y-81600000D01*
X127868000Y-80330000D01*
X129773000Y-80330000D01*
X129773000Y-81600000D01*
G37*
G36*
X129773000Y-83124000D02*
G01*
X127868000Y-83124000D01*
X127868000Y-81854000D01*
X129773000Y-81854000D01*
X129773000Y-83124000D01*
G37*
G36*
X131932000Y-80076000D02*
G01*
X130027000Y-80076000D01*
X130027000Y-78806000D01*
X131932000Y-78806000D01*
X131932000Y-80076000D01*
G37*
G36*
X131932000Y-81600000D02*
G01*
X130027000Y-81600000D01*
X130027000Y-80330000D01*
X131932000Y-80330000D01*
X131932000Y-81600000D01*
G37*
G36*
X131932000Y-83124000D02*
G01*
X130027000Y-83124000D01*
X130027000Y-81854000D01*
X131932000Y-81854000D01*
X131932000Y-83124000D01*
G37*
G36*
X132833065Y-79414965D02*
G01*
X132046935Y-79414965D01*
X132046935Y-78705035D01*
X132833065Y-78705035D01*
X132833065Y-79414965D01*
G37*
G36*
X132833065Y-80684965D02*
G01*
X132046935Y-80684965D01*
X132046935Y-79975035D01*
X132833065Y-79975035D01*
X132833065Y-80684965D01*
G37*
G36*
X132833065Y-81954965D02*
G01*
X132046935Y-81954965D01*
X132046935Y-81245035D01*
X132833065Y-81245035D01*
X132833065Y-81954965D01*
G37*
G36*
X132833065Y-83224965D02*
G01*
X132046935Y-83224965D01*
X132046935Y-82515035D01*
X132833065Y-82515035D01*
X132833065Y-83224965D01*
G37*
%TO.C,U4*%
D10*
X147120000Y-103315000D02*
X145820000Y-103315000D01*
X145820000Y-102015000D01*
X147120000Y-102015000D01*
X147120000Y-103315000D01*
G36*
X147120000Y-103315000D02*
G01*
X145820000Y-103315000D01*
X145820000Y-102015000D01*
X147120000Y-102015000D01*
X147120000Y-103315000D01*
G37*
%TD*%
D11*
%TO.C,C55*%
X126890000Y-66570000D03*
X126890000Y-64670000D03*
%TD*%
D12*
%TO.C,C62*%
X140205000Y-77500000D03*
X141755000Y-77500000D03*
%TD*%
D13*
%TO.C,R6*%
X129520000Y-62340000D03*
X130540000Y-62340000D03*
%TD*%
D14*
%TO.C,U5*%
X145780000Y-132867500D03*
X146730000Y-132867500D03*
X147680000Y-132867500D03*
X147680000Y-130592500D03*
X145780000Y-130592500D03*
%TD*%
D15*
%TO.C,C58*%
X136780000Y-67750000D03*
X136780000Y-69650000D03*
%TD*%
D16*
%TO.C,C49*%
X136810000Y-109740000D03*
X137770000Y-109740000D03*
%TD*%
D17*
%TO.C,C18*%
X150310000Y-79020000D03*
X152210000Y-79020000D03*
%TD*%
D18*
%TO.C,C12*%
X143830000Y-130300000D03*
X143830000Y-131260000D03*
%TD*%
D16*
%TO.C,C15*%
X121390000Y-63770000D03*
X122350000Y-63770000D03*
%TD*%
D18*
%TO.C,C59*%
X138880000Y-76120000D03*
X138880000Y-77080000D03*
%TD*%
%TO.C,C9*%
X150190000Y-102240000D03*
X150190000Y-103200000D03*
%TD*%
D19*
%TO.C,U9*%
X115850000Y-69835000D03*
X115200000Y-69835000D03*
X114550000Y-69835000D03*
X113900000Y-69835000D03*
X113250000Y-69835000D03*
X112600000Y-69835000D03*
X111950000Y-69835000D03*
X111300000Y-69835000D03*
X111300000Y-75560000D03*
X111950000Y-75560000D03*
X112600000Y-75560000D03*
X113250000Y-75560000D03*
X113900000Y-75560000D03*
X114550000Y-75560000D03*
X115200000Y-75560000D03*
X115850000Y-75560000D03*
%TD*%
D16*
%TO.C,C45*%
X138540000Y-120020000D03*
X139500000Y-120020000D03*
%TD*%
D20*
%TO.C,R9*%
X109090000Y-137290000D03*
X108070000Y-137290000D03*
%TD*%
D21*
%TO.C,C29*%
X130955000Y-90260000D03*
X128005000Y-90260000D03*
%TD*%
D18*
%TO.C,C26*%
X111220000Y-129570000D03*
X111220000Y-130530000D03*
%TD*%
D22*
%TO.C,U16*%
X133520001Y-69549999D03*
X133520001Y-68900001D03*
X133520001Y-68249999D03*
X133520001Y-67600001D03*
D23*
X132590000Y-66670000D03*
X131940002Y-66670000D03*
X131290000Y-66670000D03*
X130640002Y-66670000D03*
D22*
X129710001Y-67600001D03*
X129710001Y-68249999D03*
X129710001Y-68900001D03*
X129710001Y-69549999D03*
D23*
X130640002Y-70480000D03*
X131290000Y-70480000D03*
X131940002Y-70480000D03*
X132590000Y-70480000D03*
%TD*%
D15*
%TO.C,C57*%
X139220000Y-66500000D03*
X139220000Y-68400000D03*
%TD*%
D16*
%TO.C,C23*%
X145440000Y-55310000D03*
X146400000Y-55310000D03*
%TD*%
D20*
%TO.C,R29*%
X137400000Y-74520000D03*
X136380000Y-74520000D03*
%TD*%
D16*
%TO.C,C16*%
X123950000Y-50510000D03*
X124910000Y-50510000D03*
%TD*%
D24*
%TO.C,C13*%
X127660000Y-111890000D03*
X126700000Y-111890000D03*
%TD*%
D25*
%TO.C,R26*%
X138900000Y-79070000D03*
X138900000Y-78050000D03*
%TD*%
%TO.C,R4*%
X114600000Y-91550000D03*
X114600000Y-90530000D03*
%TD*%
D26*
%TO.C,C52*%
X123840000Y-75825000D03*
X123840000Y-78775000D03*
%TD*%
D27*
%TO.C,C51*%
X132290000Y-112980000D03*
X132290000Y-119380000D03*
%TD*%
D25*
%TO.C,R21*%
X119970000Y-73180000D03*
X119970000Y-72160000D03*
%TD*%
D28*
%TO.C,C54*%
X125030000Y-69905000D03*
X125030000Y-68355000D03*
%TD*%
D29*
%TO.C,U6*%
X116242500Y-119870000D03*
X116242500Y-120820000D03*
X116242500Y-121770000D03*
X118517500Y-121770000D03*
X118517500Y-119870000D03*
%TD*%
D30*
%TO.C,Y1*%
X121390000Y-121750000D03*
X123690000Y-121750000D03*
X123690000Y-119850000D03*
X121390000Y-119850000D03*
%TD*%
D21*
%TO.C,C30*%
X130945000Y-86900000D03*
X127995000Y-86900000D03*
%TD*%
D25*
%TO.C,R17*%
X149360000Y-132110000D03*
X149360000Y-131090000D03*
%TD*%
D24*
%TO.C,C48*%
X129930000Y-109190000D03*
X128970000Y-109190000D03*
%TD*%
D16*
%TO.C,C8*%
X115130000Y-117300000D03*
X116090000Y-117300000D03*
%TD*%
D24*
%TO.C,C11*%
X118640000Y-117300000D03*
X117680000Y-117300000D03*
%TD*%
D31*
%TO.C,C4*%
X146710000Y-111310000D03*
X146710000Y-110350000D03*
%TD*%
D24*
%TO.C,C7*%
X123030000Y-123590000D03*
X122070000Y-123590000D03*
%TD*%
D25*
%TO.C,R8*%
X112790000Y-130580000D03*
X112790000Y-129560000D03*
%TD*%
D32*
%TO.C,R5*%
X112950000Y-82090000D03*
X112950000Y-83110000D03*
%TD*%
D18*
%TO.C,C6*%
X147440000Y-122980000D03*
X147440000Y-123940000D03*
%TD*%
D24*
%TO.C,C17*%
X121310000Y-55430000D03*
X120350000Y-55430000D03*
%TD*%
D33*
%TO.C,D2*%
X127120000Y-70477500D03*
X127120000Y-68377500D03*
%TD*%
D34*
%TO.C,Q4*%
X129630002Y-75790003D03*
X129630002Y-75140002D03*
X129630002Y-74490003D03*
X129630002Y-73840002D03*
X126580000Y-75790000D03*
X126580000Y-75140002D03*
X126580000Y-74490000D03*
X126580000Y-73840002D03*
%TD*%
D35*
%TO.C,U10*%
X147950000Y-58915000D03*
X147950000Y-58265000D03*
X147950000Y-57615000D03*
X147950000Y-56965000D03*
X143650000Y-56965000D03*
X143650000Y-57615000D03*
X143650000Y-58265000D03*
X143650000Y-58915000D03*
%TD*%
D20*
%TO.C,R3*%
X124950000Y-51750000D03*
X123930000Y-51750000D03*
%TD*%
D24*
%TO.C,C5*%
X144580000Y-119440000D03*
X143620000Y-119440000D03*
%TD*%
D18*
%TO.C,C56*%
X134850000Y-71350000D03*
X134850000Y-72310000D03*
%TD*%
D36*
%TO.C,U2*%
X147420000Y-120134400D03*
X147919999Y-120134400D03*
X148420001Y-120134400D03*
X148920000Y-120134400D03*
X149419999Y-120134400D03*
X149920000Y-120134400D03*
X150420000Y-120134400D03*
X150920001Y-120134400D03*
X151420000Y-120134400D03*
X151919999Y-120134400D03*
X152420001Y-120134400D03*
X152920000Y-120134400D03*
D37*
X153624400Y-119430000D03*
X153624400Y-118930001D03*
X153624400Y-118429999D03*
X153624400Y-117930000D03*
X153624400Y-117430001D03*
X153624400Y-116930000D03*
X153624400Y-116430000D03*
X153624400Y-115929999D03*
X153624400Y-115430000D03*
X153624400Y-114930001D03*
X153624400Y-114429999D03*
X153624400Y-113930000D03*
D36*
X152920000Y-113225600D03*
X152420001Y-113225600D03*
X151919999Y-113225600D03*
X151420000Y-113225600D03*
X150920001Y-113225600D03*
X150420000Y-113225600D03*
X149920000Y-113225600D03*
X149419999Y-113225600D03*
X148920000Y-113225600D03*
X148420001Y-113225600D03*
X147919999Y-113225600D03*
X147420000Y-113225600D03*
D37*
X146715600Y-113930000D03*
X146715600Y-114429999D03*
X146715600Y-114930001D03*
X146715600Y-115430000D03*
X146715600Y-115929999D03*
X146715600Y-116430000D03*
X146715600Y-116930000D03*
X146715600Y-117430001D03*
X146715600Y-117930000D03*
X146715600Y-118429999D03*
X146715600Y-118930001D03*
X146715600Y-119430000D03*
%TD*%
D17*
%TO.C,C53*%
X119980000Y-69670000D03*
X121880000Y-69670000D03*
%TD*%
D38*
%TO.C,D1*%
X118110000Y-80472500D03*
X118110000Y-84472500D03*
%TD*%
D16*
%TO.C,C22*%
X113820000Y-79030000D03*
X114780000Y-79030000D03*
%TD*%
D31*
%TO.C,C10*%
X143840000Y-133360000D03*
X143840000Y-132400000D03*
%TD*%
D13*
%TO.C,R11*%
X116050000Y-123480000D03*
X117070000Y-123480000D03*
%TD*%
D31*
%TO.C,C21*%
X143010000Y-68880000D03*
X143010000Y-67920000D03*
%TD*%
D32*
%TO.C,R24*%
X138740000Y-70000000D03*
X138740000Y-71020000D03*
%TD*%
D16*
%TO.C,C3*%
X155870000Y-113210000D03*
X156830000Y-113210000D03*
%TD*%
D31*
%TO.C,C19*%
X145950000Y-69120000D03*
X145950000Y-68160000D03*
%TD*%
D13*
%TO.C,R10*%
X129530000Y-60930000D03*
X130550000Y-60930000D03*
%TD*%
D39*
%TO.C,U7*%
X121040200Y-60347950D03*
X121980000Y-60347950D03*
X122919800Y-60347950D03*
X122919800Y-57592050D03*
X121040200Y-57592050D03*
%TD*%
D18*
%TO.C,C1*%
X150950000Y-122970000D03*
X150950000Y-123930000D03*
%TD*%
D40*
%TO.C,U11*%
X107665000Y-135330000D03*
X108315000Y-135330000D03*
X108965000Y-135330000D03*
X109615000Y-135330000D03*
X109615000Y-131030000D03*
X108965000Y-131030000D03*
X108315000Y-131030000D03*
X107665000Y-131030000D03*
%TD*%
D18*
%TO.C,C14*%
X143330000Y-101830000D03*
X143330000Y-102790000D03*
%TD*%
D16*
%TO.C,C20*%
X150830000Y-77430000D03*
X151790000Y-77430000D03*
%TD*%
D41*
%TO.C,C60*%
X140840000Y-74530000D03*
X138940000Y-74530000D03*
%TD*%
D13*
%TO.C,R12*%
X129520000Y-59350000D03*
X130540000Y-59350000D03*
%TD*%
D20*
%TO.C,R7*%
X143620000Y-55490000D03*
X142600000Y-55490000D03*
%TD*%
%TO.C,R27*%
X140910000Y-76110000D03*
X139890000Y-76110000D03*
%TD*%
%TO.C,R30*%
X138360000Y-72460000D03*
X137340000Y-72460000D03*
%TD*%
%TO.C,R20*%
X123900000Y-116210000D03*
X122880000Y-116210000D03*
%TD*%
D32*
%TO.C,R1*%
X149710000Y-122940000D03*
X149710000Y-123960000D03*
%TD*%
D16*
%TO.C,C50*%
X135650000Y-111390000D03*
X136610000Y-111390000D03*
%TD*%
D31*
%TO.C,C46*%
X127550000Y-117610000D03*
X127550000Y-116650000D03*
%TD*%
D42*
%TO.C,L2*%
X137120000Y-81905000D03*
X137120000Y-87035000D03*
%TD*%
D25*
%TO.C,R23*%
X134790000Y-67550000D03*
X134790000Y-66530000D03*
%TD*%
D24*
%TO.C,C47*%
X129930000Y-110700000D03*
X128970000Y-110700000D03*
%TD*%
D13*
%TO.C,R19*%
X122890000Y-115070000D03*
X123910000Y-115070000D03*
%TD*%
D20*
%TO.C,R16*%
X119240000Y-123490000D03*
X118220000Y-123490000D03*
%TD*%
D25*
%TO.C,R25*%
X137580000Y-78040000D03*
X137580000Y-77020000D03*
%TD*%
D16*
%TO.C,C2*%
X155860000Y-114920000D03*
X156820000Y-114920000D03*
%TD*%
D32*
%TO.C,R18*%
X149360000Y-128870000D03*
X149360000Y-129890000D03*
%TD*%
D16*
%TO.C,C25*%
X118260000Y-134620000D03*
X119220000Y-134620000D03*
%TD*%
D43*
%TO.C,Y2*%
X145802400Y-70670000D03*
X142957600Y-70670000D03*
%TD*%
D20*
%TO.C,R28*%
X140830000Y-72470000D03*
X139810000Y-72470000D03*
%TD*%
D13*
%TO.C,R2*%
X143590000Y-117450000D03*
X144610000Y-117450000D03*
%TD*%
D44*
%TO.C,U4*%
X144785000Y-103415000D03*
D45*
X145470000Y-104350000D03*
X145970000Y-104350000D03*
X146470000Y-104350000D03*
X146970000Y-104350000D03*
X147470000Y-104350000D03*
D44*
X148155000Y-103415000D03*
X148155000Y-101915000D03*
D45*
X147470000Y-100980000D03*
X146970000Y-100980000D03*
X146470000Y-100980000D03*
X145970000Y-100980000D03*
X145470000Y-100980000D03*
D44*
X144785000Y-101915000D03*
%TD*%
M02*
