%TF.GenerationSoftware,KiCad,Pcbnew,7.0.9*%
%TF.CreationDate,2024-02-22T00:08:18-05:00*%
%TF.ProjectId,blockaxe1,626c6f63-6b61-4786-9531-2e6b69636164,rev?*%
%TF.SameCoordinates,Original*%
%TF.FileFunction,Paste,Top*%
%TF.FilePolarity,Positive*%
%FSLAX46Y46*%
G04 Gerber Fmt 4.6, Leading zero omitted, Abs format (unit mm)*
G04 Created by KiCad (PCBNEW 7.0.9) date 2024-02-22 00:08:18*
%MOMM*%
%LPD*%
G01*
G04 APERTURE LIST*
G04 Aperture macros list*
%AMRoundRect*
0 Rectangle with rounded corners*
0 $1 Rounding radius*
0 $2 $3 $4 $5 $6 $7 $8 $9 X,Y pos of 4 corners*
0 Add a 4 corners polygon primitive as box body*
4,1,4,$2,$3,$4,$5,$6,$7,$8,$9,$2,$3,0*
0 Add four circle primitives for the rounded corners*
1,1,$1+$1,$2,$3*
1,1,$1+$1,$4,$5*
1,1,$1+$1,$6,$7*
1,1,$1+$1,$8,$9*
0 Add four rect primitives between the rounded corners*
20,1,$1+$1,$2,$3,$4,$5,0*
20,1,$1+$1,$4,$5,$6,$7,0*
20,1,$1+$1,$6,$7,$8,$9,0*
20,1,$1+$1,$8,$9,$2,$3,0*%
G04 Aperture macros list end*
%ADD10RoundRect,0.100000X-0.637500X-0.100000X0.637500X-0.100000X0.637500X0.100000X-0.637500X0.100000X0*%
%ADD11RoundRect,0.135000X-0.135000X-0.185000X0.135000X-0.185000X0.135000X0.185000X-0.135000X0.185000X0*%
%ADD12RoundRect,0.140000X0.170000X-0.140000X0.170000X0.140000X-0.170000X0.140000X-0.170000X-0.140000X0*%
%ADD13RoundRect,0.150000X0.150000X-0.512500X0.150000X0.512500X-0.150000X0.512500X-0.150000X-0.512500X0*%
%ADD14RoundRect,0.250000X-0.475000X0.250000X-0.475000X-0.250000X0.475000X-0.250000X0.475000X0.250000X0*%
%ADD15RoundRect,0.140000X-0.140000X-0.170000X0.140000X-0.170000X0.140000X0.170000X-0.140000X0.170000X0*%
%ADD16RoundRect,0.250000X-0.250000X-0.475000X0.250000X-0.475000X0.250000X0.475000X-0.250000X0.475000X0*%
%ADD17RoundRect,0.140000X-0.170000X0.140000X-0.170000X-0.140000X0.170000X-0.140000X0.170000X0.140000X0*%
%ADD18RoundRect,0.100000X-0.100000X0.637500X-0.100000X-0.637500X0.100000X-0.637500X0.100000X0.637500X0*%
%ADD19RoundRect,0.135000X0.135000X0.185000X-0.135000X0.185000X-0.135000X-0.185000X0.135000X-0.185000X0*%
%ADD20RoundRect,0.250000X0.325000X1.100000X-0.325000X1.100000X-0.325000X-1.100000X0.325000X-1.100000X0*%
%ADD21R,0.609600X0.304800*%
%ADD22R,0.304800X0.609600*%
%ADD23RoundRect,0.140000X0.140000X0.170000X-0.140000X0.170000X-0.140000X-0.170000X0.140000X-0.170000X0*%
%ADD24RoundRect,0.135000X0.185000X-0.135000X0.185000X0.135000X-0.185000X0.135000X-0.185000X-0.135000X0*%
%ADD25RoundRect,0.250000X-1.100000X0.325000X-1.100000X-0.325000X1.100000X-0.325000X1.100000X0.325000X0*%
%ADD26RoundRect,0.250000X-1.025000X0.875000X-1.025000X-0.875000X1.025000X-0.875000X1.025000X0.875000X0*%
%ADD27RoundRect,0.225000X0.250000X-0.225000X0.250000X0.225000X-0.250000X0.225000X-0.250000X-0.225000X0*%
%ADD28R,1.300000X1.100000*%
%ADD29RoundRect,0.225000X-0.225000X-0.250000X0.225000X-0.250000X0.225000X0.250000X-0.225000X0.250000X0*%
%ADD30RoundRect,0.135000X-0.185000X0.135000X-0.185000X-0.135000X0.185000X-0.135000X0.185000X0.135000X0*%
%ADD31RoundRect,0.112500X0.112500X-0.187500X0.112500X0.187500X-0.112500X0.187500X-0.112500X-0.187500X0*%
%ADD32R,1.100000X0.400000*%
%ADD33R,0.304800X0.812800*%
%ADD34R,0.812800X0.304800*%
%ADD35R,0.558800X0.952500*%
%ADD36R,0.400000X1.100000*%
%ADD37RoundRect,0.250000X0.250000X0.475000X-0.250000X0.475000X-0.250000X-0.475000X0.250000X-0.475000X0*%
%ADD38R,3.430000X2.790000*%
%ADD39RoundRect,0.250000X0.475000X-0.250000X0.475000X0.250000X-0.475000X0.250000X-0.475000X-0.250000X0*%
%ADD40R,1.168400X1.600200*%
G04 APERTURE END LIST*
%TO.C,Q1*%
G36*
X131587065Y-78389965D02*
G01*
X130800935Y-78389965D01*
X130800935Y-77680035D01*
X131587065Y-77680035D01*
X131587065Y-78389965D01*
G37*
G36*
X131587065Y-77119965D02*
G01*
X130800935Y-77119965D01*
X130800935Y-76410035D01*
X131587065Y-76410035D01*
X131587065Y-77119965D01*
G37*
G36*
X131587065Y-75849965D02*
G01*
X130800935Y-75849965D01*
X130800935Y-75140035D01*
X131587065Y-75140035D01*
X131587065Y-75849965D01*
G37*
G36*
X131587065Y-74579965D02*
G01*
X130800935Y-74579965D01*
X130800935Y-73870035D01*
X131587065Y-73870035D01*
X131587065Y-74579965D01*
G37*
G36*
X130178000Y-78289000D02*
G01*
X128273000Y-78289000D01*
X128273000Y-77019000D01*
X130178000Y-77019000D01*
X130178000Y-78289000D01*
G37*
G36*
X130178000Y-76765000D02*
G01*
X128273000Y-76765000D01*
X128273000Y-75495000D01*
X130178000Y-75495000D01*
X130178000Y-76765000D01*
G37*
G36*
X130178000Y-75241000D02*
G01*
X128273000Y-75241000D01*
X128273000Y-73971000D01*
X130178000Y-73971000D01*
X130178000Y-75241000D01*
G37*
G36*
X128019000Y-78289000D02*
G01*
X126114000Y-78289000D01*
X126114000Y-77019000D01*
X128019000Y-77019000D01*
X128019000Y-78289000D01*
G37*
G36*
X128019000Y-76765000D02*
G01*
X126114000Y-76765000D01*
X126114000Y-75495000D01*
X128019000Y-75495000D01*
X128019000Y-76765000D01*
G37*
G36*
X128019000Y-75241000D02*
G01*
X126114000Y-75241000D01*
X126114000Y-73971000D01*
X128019000Y-73971000D01*
X128019000Y-75241000D01*
G37*
G36*
X125999065Y-78389965D02*
G01*
X125212935Y-78389965D01*
X125212935Y-77680035D01*
X125999065Y-77680035D01*
X125999065Y-78389965D01*
G37*
G36*
X125999065Y-77119965D02*
G01*
X125212935Y-77119965D01*
X125212935Y-76410035D01*
X125999065Y-76410035D01*
X125999065Y-77119965D01*
G37*
G36*
X125999065Y-75849965D02*
G01*
X125212935Y-75849965D01*
X125212935Y-75140035D01*
X125999065Y-75140035D01*
X125999065Y-75849965D01*
G37*
G36*
X125999065Y-74579965D02*
G01*
X125212935Y-74579965D01*
X125212935Y-73870035D01*
X125999065Y-73870035D01*
X125999065Y-74579965D01*
G37*
%TO.C,U16*%
G36*
X132807150Y-69767149D02*
G01*
X131714950Y-69767149D01*
X131714950Y-68674949D01*
X132807150Y-68674949D01*
X132807150Y-69767149D01*
G37*
G36*
X132807150Y-68475051D02*
G01*
X131714950Y-68475051D01*
X131714950Y-67382851D01*
X132807150Y-67382851D01*
X132807150Y-68475051D01*
G37*
G36*
X131515052Y-69767149D02*
G01*
X130422852Y-69767149D01*
X130422852Y-68674949D01*
X131515052Y-68674949D01*
X131515052Y-69767149D01*
G37*
G36*
X131515052Y-68475051D02*
G01*
X130422852Y-68475051D01*
X130422852Y-67382851D01*
X131515052Y-67382851D01*
X131515052Y-68475051D01*
G37*
%TO.C,U2*%
G36*
X148647600Y-119424800D02*
G01*
X147425200Y-119424800D01*
X147425200Y-118202400D01*
X148647600Y-118202400D01*
X148647600Y-119424800D01*
G37*
G36*
X150070000Y-119424800D02*
G01*
X148847600Y-119424800D01*
X148847600Y-118202400D01*
X150070000Y-118202400D01*
X150070000Y-119424800D01*
G37*
G36*
X151492400Y-119424800D02*
G01*
X150270000Y-119424800D01*
X150270000Y-118202400D01*
X151492400Y-118202400D01*
X151492400Y-119424800D01*
G37*
G36*
X152914800Y-119424800D02*
G01*
X151692400Y-119424800D01*
X151692400Y-118202400D01*
X152914800Y-118202400D01*
X152914800Y-119424800D01*
G37*
G36*
X148647600Y-118002400D02*
G01*
X147425200Y-118002400D01*
X147425200Y-116780000D01*
X148647600Y-116780000D01*
X148647600Y-118002400D01*
G37*
G36*
X150070000Y-118002400D02*
G01*
X148847600Y-118002400D01*
X148847600Y-116780000D01*
X150070000Y-116780000D01*
X150070000Y-118002400D01*
G37*
G36*
X151492400Y-118002400D02*
G01*
X150270000Y-118002400D01*
X150270000Y-116780000D01*
X151492400Y-116780000D01*
X151492400Y-118002400D01*
G37*
G36*
X152914800Y-118002400D02*
G01*
X151692400Y-118002400D01*
X151692400Y-116780000D01*
X152914800Y-116780000D01*
X152914800Y-118002400D01*
G37*
G36*
X148647600Y-116580000D02*
G01*
X147425200Y-116580000D01*
X147425200Y-115357600D01*
X148647600Y-115357600D01*
X148647600Y-116580000D01*
G37*
G36*
X150070000Y-116580000D02*
G01*
X148847600Y-116580000D01*
X148847600Y-115357600D01*
X150070000Y-115357600D01*
X150070000Y-116580000D01*
G37*
G36*
X151492400Y-116580000D02*
G01*
X150270000Y-116580000D01*
X150270000Y-115357600D01*
X151492400Y-115357600D01*
X151492400Y-116580000D01*
G37*
G36*
X152914800Y-116580000D02*
G01*
X151692400Y-116580000D01*
X151692400Y-115357600D01*
X152914800Y-115357600D01*
X152914800Y-116580000D01*
G37*
G36*
X148647600Y-115157600D02*
G01*
X147425200Y-115157600D01*
X147425200Y-113935200D01*
X148647600Y-113935200D01*
X148647600Y-115157600D01*
G37*
G36*
X150070000Y-115157600D02*
G01*
X148847600Y-115157600D01*
X148847600Y-113935200D01*
X150070000Y-113935200D01*
X150070000Y-115157600D01*
G37*
G36*
X151492400Y-115157600D02*
G01*
X150270000Y-115157600D01*
X150270000Y-113935200D01*
X151492400Y-113935200D01*
X151492400Y-115157600D01*
G37*
G36*
X152914800Y-115157600D02*
G01*
X151692400Y-115157600D01*
X151692400Y-113935200D01*
X152914800Y-113935200D01*
X152914800Y-115157600D01*
G37*
%TO.C,Q5*%
G36*
X126023065Y-80544965D02*
G01*
X125236935Y-80544965D01*
X125236935Y-79835035D01*
X126023065Y-79835035D01*
X126023065Y-80544965D01*
G37*
G36*
X126023065Y-81814965D02*
G01*
X125236935Y-81814965D01*
X125236935Y-81105035D01*
X126023065Y-81105035D01*
X126023065Y-81814965D01*
G37*
G36*
X126023065Y-83084965D02*
G01*
X125236935Y-83084965D01*
X125236935Y-82375035D01*
X126023065Y-82375035D01*
X126023065Y-83084965D01*
G37*
G36*
X126023065Y-84354965D02*
G01*
X125236935Y-84354965D01*
X125236935Y-83645035D01*
X126023065Y-83645035D01*
X126023065Y-84354965D01*
G37*
G36*
X128551000Y-81206000D02*
G01*
X126646000Y-81206000D01*
X126646000Y-79936000D01*
X128551000Y-79936000D01*
X128551000Y-81206000D01*
G37*
G36*
X128551000Y-82730000D02*
G01*
X126646000Y-82730000D01*
X126646000Y-81460000D01*
X128551000Y-81460000D01*
X128551000Y-82730000D01*
G37*
G36*
X128551000Y-84254000D02*
G01*
X126646000Y-84254000D01*
X126646000Y-82984000D01*
X128551000Y-82984000D01*
X128551000Y-84254000D01*
G37*
G36*
X130710000Y-81206000D02*
G01*
X128805000Y-81206000D01*
X128805000Y-79936000D01*
X130710000Y-79936000D01*
X130710000Y-81206000D01*
G37*
G36*
X130710000Y-82730000D02*
G01*
X128805000Y-82730000D01*
X128805000Y-81460000D01*
X130710000Y-81460000D01*
X130710000Y-82730000D01*
G37*
G36*
X130710000Y-84254000D02*
G01*
X128805000Y-84254000D01*
X128805000Y-82984000D01*
X130710000Y-82984000D01*
X130710000Y-84254000D01*
G37*
G36*
X131611065Y-80544965D02*
G01*
X130824935Y-80544965D01*
X130824935Y-79835035D01*
X131611065Y-79835035D01*
X131611065Y-80544965D01*
G37*
G36*
X131611065Y-81814965D02*
G01*
X130824935Y-81814965D01*
X130824935Y-81105035D01*
X131611065Y-81105035D01*
X131611065Y-81814965D01*
G37*
G36*
X131611065Y-83084965D02*
G01*
X130824935Y-83084965D01*
X130824935Y-82375035D01*
X131611065Y-82375035D01*
X131611065Y-83084965D01*
G37*
G36*
X131611065Y-84354965D02*
G01*
X130824935Y-84354965D01*
X130824935Y-83645035D01*
X131611065Y-83645035D01*
X131611065Y-84354965D01*
G37*
%TD*%
D10*
%TO.C,U12*%
X147675000Y-100890000D03*
X147675000Y-101540000D03*
X147675000Y-102190000D03*
X147675000Y-102840000D03*
X147675000Y-103490000D03*
X147675000Y-104140000D03*
X147675000Y-104790000D03*
X147675000Y-105440000D03*
X153400000Y-105440000D03*
X153400000Y-104790000D03*
X153400000Y-104140000D03*
X153400000Y-103490000D03*
X153400000Y-102840000D03*
X153400000Y-102190000D03*
X153400000Y-101540000D03*
X153400000Y-100890000D03*
%TD*%
D11*
%TO.C,R13*%
X152400000Y-106970000D03*
X153420000Y-106970000D03*
%TD*%
D12*
%TO.C,C28*%
X155290000Y-101360000D03*
X155290000Y-100400000D03*
%TD*%
%TO.C,C27*%
X145490000Y-100730000D03*
X145490000Y-99770000D03*
%TD*%
D11*
%TO.C,R6*%
X129520000Y-62340000D03*
X130540000Y-62340000D03*
%TD*%
D13*
%TO.C,U5*%
X131290000Y-129507500D03*
X132240000Y-129507500D03*
X133190000Y-129507500D03*
X133190000Y-127232500D03*
X131290000Y-127232500D03*
%TD*%
D14*
%TO.C,C58*%
X136780000Y-67750000D03*
X136780000Y-69650000D03*
%TD*%
D15*
%TO.C,C49*%
X136810000Y-109740000D03*
X137770000Y-109740000D03*
%TD*%
D16*
%TO.C,C18*%
X150310000Y-79020000D03*
X152210000Y-79020000D03*
%TD*%
D17*
%TO.C,C12*%
X129340000Y-126940000D03*
X129340000Y-127900000D03*
%TD*%
D15*
%TO.C,C15*%
X121390000Y-63770000D03*
X122350000Y-63770000D03*
%TD*%
D17*
%TO.C,C59*%
X138880000Y-76120000D03*
X138880000Y-77080000D03*
%TD*%
D18*
%TO.C,U9*%
X115850000Y-69835000D03*
X115200000Y-69835000D03*
X114550000Y-69835000D03*
X113900000Y-69835000D03*
X113250000Y-69835000D03*
X112600000Y-69835000D03*
X111950000Y-69835000D03*
X111300000Y-69835000D03*
X111300000Y-75560000D03*
X111950000Y-75560000D03*
X112600000Y-75560000D03*
X113250000Y-75560000D03*
X113900000Y-75560000D03*
X114550000Y-75560000D03*
X115200000Y-75560000D03*
X115850000Y-75560000D03*
%TD*%
D15*
%TO.C,C45*%
X138540000Y-120020000D03*
X139500000Y-120020000D03*
%TD*%
D19*
%TO.C,R9*%
X109090000Y-137290000D03*
X108070000Y-137290000D03*
%TD*%
D20*
%TO.C,C29*%
X130955000Y-90260000D03*
X128005000Y-90260000D03*
%TD*%
D17*
%TO.C,C26*%
X111220000Y-129570000D03*
X111220000Y-130530000D03*
%TD*%
D21*
%TO.C,U16*%
X133520001Y-69549999D03*
X133520001Y-68900001D03*
X133520001Y-68249999D03*
X133520001Y-67600001D03*
D22*
X132590000Y-66670000D03*
X131940002Y-66670000D03*
X131290000Y-66670000D03*
X130640002Y-66670000D03*
D21*
X129710001Y-67600001D03*
X129710001Y-68249999D03*
X129710001Y-68900001D03*
X129710001Y-69549999D03*
D22*
X130640002Y-70480000D03*
X131290000Y-70480000D03*
X131940002Y-70480000D03*
X132590000Y-70480000D03*
%TD*%
D14*
%TO.C,C57*%
X139220000Y-66500000D03*
X139220000Y-68400000D03*
%TD*%
D15*
%TO.C,C23*%
X145440000Y-55310000D03*
X146400000Y-55310000D03*
%TD*%
D19*
%TO.C,R29*%
X137400000Y-74520000D03*
X136380000Y-74520000D03*
%TD*%
D15*
%TO.C,C16*%
X123950000Y-50510000D03*
X124910000Y-50510000D03*
%TD*%
D23*
%TO.C,C13*%
X127660000Y-111890000D03*
X126700000Y-111890000D03*
%TD*%
D24*
%TO.C,R26*%
X137530000Y-79080000D03*
X137530000Y-78060000D03*
%TD*%
%TO.C,R4*%
X114600000Y-91550000D03*
X114600000Y-90530000D03*
%TD*%
D25*
%TO.C,C52*%
X122210000Y-76465000D03*
X122210000Y-79415000D03*
%TD*%
D26*
%TO.C,C51*%
X132290000Y-112980000D03*
X132290000Y-119380000D03*
%TD*%
D24*
%TO.C,R21*%
X121340000Y-73880000D03*
X121340000Y-72860000D03*
%TD*%
D27*
%TO.C,C54*%
X125030000Y-69905000D03*
X125030000Y-68355000D03*
%TD*%
D28*
%TO.C,Y1*%
X122680000Y-121750000D03*
X124980000Y-121750000D03*
X124980000Y-119850000D03*
X122680000Y-119850000D03*
%TD*%
D20*
%TO.C,C30*%
X130945000Y-86900000D03*
X127995000Y-86900000D03*
%TD*%
D24*
%TO.C,R17*%
X134870000Y-128750000D03*
X134870000Y-127730000D03*
%TD*%
D23*
%TO.C,C48*%
X129930000Y-109190000D03*
X128970000Y-109190000D03*
%TD*%
D12*
%TO.C,C4*%
X146710000Y-110350000D03*
X146710000Y-111310000D03*
%TD*%
D23*
%TO.C,C7*%
X124320000Y-123590000D03*
X123360000Y-123590000D03*
%TD*%
D29*
%TO.C,C62*%
X140205000Y-77500000D03*
X141755000Y-77500000D03*
%TD*%
D24*
%TO.C,R8*%
X112790000Y-130580000D03*
X112790000Y-129560000D03*
%TD*%
D30*
%TO.C,R5*%
X112950000Y-82090000D03*
X112950000Y-83110000D03*
%TD*%
D17*
%TO.C,C6*%
X147440000Y-122980000D03*
X147440000Y-123940000D03*
%TD*%
D23*
%TO.C,C17*%
X121310000Y-55430000D03*
X120350000Y-55430000D03*
%TD*%
D31*
%TO.C,D2*%
X127120000Y-70477500D03*
X127120000Y-68377500D03*
%TD*%
D32*
%TO.C,U10*%
X147950000Y-58915000D03*
X147950000Y-58265000D03*
X147950000Y-57615000D03*
X147950000Y-56965000D03*
X143650000Y-56965000D03*
X143650000Y-57615000D03*
X143650000Y-58265000D03*
X143650000Y-58915000D03*
%TD*%
D19*
%TO.C,R3*%
X124950000Y-51750000D03*
X123930000Y-51750000D03*
%TD*%
D23*
%TO.C,C5*%
X144580000Y-119440000D03*
X143620000Y-119440000D03*
%TD*%
D17*
%TO.C,C56*%
X134850000Y-71350000D03*
X134850000Y-72310000D03*
%TD*%
D33*
%TO.C,U2*%
X147420000Y-120134400D03*
X147919999Y-120134400D03*
X148420001Y-120134400D03*
X148920000Y-120134400D03*
X149419999Y-120134400D03*
X149920000Y-120134400D03*
X150420000Y-120134400D03*
X150920001Y-120134400D03*
X151420000Y-120134400D03*
X151919999Y-120134400D03*
X152420001Y-120134400D03*
X152920000Y-120134400D03*
D34*
X153624400Y-119430000D03*
X153624400Y-118930001D03*
X153624400Y-118429999D03*
X153624400Y-117930000D03*
X153624400Y-117430001D03*
X153624400Y-116930000D03*
X153624400Y-116430000D03*
X153624400Y-115929999D03*
X153624400Y-115430000D03*
X153624400Y-114930001D03*
X153624400Y-114429999D03*
X153624400Y-113930000D03*
D33*
X152920000Y-113225600D03*
X152420001Y-113225600D03*
X151919999Y-113225600D03*
X151420000Y-113225600D03*
X150920001Y-113225600D03*
X150420000Y-113225600D03*
X149920000Y-113225600D03*
X149419999Y-113225600D03*
X148920000Y-113225600D03*
X148420001Y-113225600D03*
X147919999Y-113225600D03*
X147420000Y-113225600D03*
D34*
X146715600Y-113930000D03*
X146715600Y-114429999D03*
X146715600Y-114930001D03*
X146715600Y-115430000D03*
X146715600Y-115929999D03*
X146715600Y-116430000D03*
X146715600Y-116930000D03*
X146715600Y-117430001D03*
X146715600Y-117930000D03*
X146715600Y-118429999D03*
X146715600Y-118930001D03*
X146715600Y-119430000D03*
%TD*%
D16*
%TO.C,C53*%
X121340000Y-69670000D03*
X123240000Y-69670000D03*
%TD*%
D15*
%TO.C,C22*%
X113820000Y-79030000D03*
X114780000Y-79030000D03*
%TD*%
D12*
%TO.C,C10*%
X129350000Y-130000000D03*
X129350000Y-129040000D03*
%TD*%
%TO.C,C21*%
X143010000Y-68880000D03*
X143010000Y-67920000D03*
%TD*%
D30*
%TO.C,R24*%
X138740000Y-70000000D03*
X138740000Y-71020000D03*
%TD*%
D15*
%TO.C,C3*%
X155870000Y-113210000D03*
X156830000Y-113210000D03*
%TD*%
D12*
%TO.C,C19*%
X145950000Y-69120000D03*
X145950000Y-68160000D03*
%TD*%
D11*
%TO.C,R10*%
X129530000Y-60930000D03*
X130550000Y-60930000D03*
%TD*%
D35*
%TO.C,U7*%
X121040200Y-60347950D03*
X121980000Y-60347950D03*
X122919800Y-60347950D03*
X122919800Y-57592050D03*
X121040200Y-57592050D03*
%TD*%
D17*
%TO.C,C1*%
X150950000Y-122970000D03*
X150950000Y-123930000D03*
%TD*%
D36*
%TO.C,U11*%
X107665000Y-135330000D03*
X108315000Y-135330000D03*
X108965000Y-135330000D03*
X109615000Y-135330000D03*
X109615000Y-131030000D03*
X108965000Y-131030000D03*
X108315000Y-131030000D03*
X107665000Y-131030000D03*
%TD*%
D15*
%TO.C,C20*%
X150830000Y-77430000D03*
X151790000Y-77430000D03*
%TD*%
D37*
%TO.C,C60*%
X140840000Y-74530000D03*
X138940000Y-74530000D03*
%TD*%
D11*
%TO.C,R12*%
X129520000Y-59350000D03*
X130540000Y-59350000D03*
%TD*%
D19*
%TO.C,R7*%
X143620000Y-55490000D03*
X142600000Y-55490000D03*
%TD*%
%TO.C,R27*%
X140910000Y-76110000D03*
X139890000Y-76110000D03*
%TD*%
%TO.C,R30*%
X138360000Y-72460000D03*
X137340000Y-72460000D03*
%TD*%
%TO.C,R20*%
X123900000Y-116210000D03*
X122880000Y-116210000D03*
%TD*%
D30*
%TO.C,R1*%
X149710000Y-122940000D03*
X149710000Y-123960000D03*
%TD*%
D15*
%TO.C,C50*%
X135650000Y-111390000D03*
X136610000Y-111390000D03*
%TD*%
D12*
%TO.C,C46*%
X127550000Y-117610000D03*
X127550000Y-116650000D03*
%TD*%
D38*
%TO.C,L2*%
X136160000Y-81925000D03*
X136160000Y-87055000D03*
%TD*%
D24*
%TO.C,R23*%
X134790000Y-67550000D03*
X134790000Y-66530000D03*
%TD*%
D39*
%TO.C,C55*%
X126890000Y-66570000D03*
X126890000Y-64670000D03*
%TD*%
D23*
%TO.C,C47*%
X129930000Y-110700000D03*
X128970000Y-110700000D03*
%TD*%
D11*
%TO.C,R19*%
X122890000Y-115070000D03*
X123910000Y-115070000D03*
%TD*%
D24*
%TO.C,R25*%
X136330000Y-78050000D03*
X136330000Y-77030000D03*
%TD*%
D15*
%TO.C,C2*%
X155860000Y-114920000D03*
X156820000Y-114920000D03*
%TD*%
D30*
%TO.C,R18*%
X134870000Y-125510000D03*
X134870000Y-126530000D03*
%TD*%
D15*
%TO.C,C25*%
X121720000Y-137340000D03*
X122680000Y-137340000D03*
%TD*%
D40*
%TO.C,Y2*%
X145802400Y-70670000D03*
X142957600Y-70670000D03*
%TD*%
D19*
%TO.C,R28*%
X140830000Y-72470000D03*
X139810000Y-72470000D03*
%TD*%
D11*
%TO.C,R2*%
X143590000Y-117450000D03*
X144610000Y-117450000D03*
%TD*%
M02*
