%TF.GenerationSoftware,KiCad,Pcbnew,7.0.9*%
%TF.CreationDate,2024-02-22T17:15:05-05:00*%
%TF.ProjectId,blockaxe1,626c6f63-6b61-4786-9531-2e6b69636164,rev?*%
%TF.SameCoordinates,Original*%
%TF.FileFunction,Paste,Bot*%
%TF.FilePolarity,Positive*%
%FSLAX46Y46*%
G04 Gerber Fmt 4.6, Leading zero omitted, Abs format (unit mm)*
G04 Created by KiCad (PCBNEW 7.0.9) date 2024-02-22 17:15:05*
%MOMM*%
%LPD*%
G01*
G04 APERTURE LIST*
G04 Aperture macros list*
%AMRoundRect*
0 Rectangle with rounded corners*
0 $1 Rounding radius*
0 $2 $3 $4 $5 $6 $7 $8 $9 X,Y pos of 4 corners*
0 Add a 4 corners polygon primitive as box body*
4,1,4,$2,$3,$4,$5,$6,$7,$8,$9,$2,$3,0*
0 Add four circle primitives for the rounded corners*
1,1,$1+$1,$2,$3*
1,1,$1+$1,$4,$5*
1,1,$1+$1,$6,$7*
1,1,$1+$1,$8,$9*
0 Add four rect primitives between the rounded corners*
20,1,$1+$1,$2,$3,$4,$5,0*
20,1,$1+$1,$4,$5,$6,$7,0*
20,1,$1+$1,$6,$7,$8,$9,0*
20,1,$1+$1,$8,$9,$2,$3,0*%
G04 Aperture macros list end*
%ADD10RoundRect,0.150000X0.425000X-0.150000X0.425000X0.150000X-0.425000X0.150000X-0.425000X-0.150000X0*%
%ADD11RoundRect,0.075000X0.500000X-0.075000X0.500000X0.075000X-0.500000X0.075000X-0.500000X-0.075000X0*%
%ADD12O,2.100000X1.000000*%
%ADD13O,1.800000X1.000000*%
%ADD14R,1.900000X1.000000*%
%ADD15RoundRect,0.250000X1.500000X0.550000X-1.500000X0.550000X-1.500000X-0.550000X1.500000X-0.550000X0*%
%ADD16R,0.889000X1.270000*%
%ADD17R,1.447800X0.812800*%
%ADD18R,0.305000X0.305000*%
%ADD19R,0.535000X0.305000*%
%ADD20R,0.805000X0.805000*%
%ADD21R,0.900000X1.500000*%
%ADD22R,1.500000X0.900000*%
%ADD23R,0.900000X0.900000*%
G04 APERTURE END LIST*
D10*
%TO.C,J4*%
X110805000Y-88760000D03*
X110805000Y-87960000D03*
D11*
X110805000Y-86810000D03*
X110805000Y-85810000D03*
X110805000Y-85310000D03*
X110805000Y-84310000D03*
D10*
X110805000Y-82360000D03*
X110805000Y-83160000D03*
D11*
X110805000Y-83810000D03*
X110805000Y-84810000D03*
X110805000Y-86310000D03*
X110805000Y-87310000D03*
D12*
X110230000Y-89880000D03*
D13*
X106050000Y-89880000D03*
D12*
X110230000Y-81240000D03*
D13*
X106050000Y-81240000D03*
%TD*%
D14*
%TO.C,J3*%
X151860000Y-56960000D03*
X148560000Y-54420000D03*
X151860000Y-51880000D03*
X148560000Y-49340000D03*
%TD*%
D15*
%TO.C,C24*%
X133610000Y-141670000D03*
X128210000Y-141670000D03*
%TD*%
D16*
%TO.C,SW1*%
X117115002Y-49353000D03*
X121314998Y-49353000D03*
D17*
X115840000Y-47448000D03*
X122590000Y-47448000D03*
%TD*%
D16*
%TO.C,SW2*%
X140220002Y-49353000D03*
X144419998Y-49353000D03*
D17*
X138945000Y-47448000D03*
X145695000Y-47448000D03*
%TD*%
D18*
%TO.C,U1*%
X130124500Y-112865000D03*
X130739500Y-112865000D03*
X131354500Y-112865000D03*
X131969500Y-112865000D03*
X132584500Y-112865000D03*
X133199500Y-112865000D03*
X133814500Y-112865000D03*
X134429500Y-112865000D03*
D19*
X135409500Y-112980500D03*
X135409500Y-113595500D03*
X135409500Y-114210500D03*
X135409500Y-114825500D03*
X135409500Y-115440500D03*
X135409500Y-116055500D03*
X135409500Y-116670500D03*
X135409500Y-117285500D03*
X135409500Y-117900500D03*
X135409500Y-118515500D03*
X135409500Y-119130500D03*
X135409500Y-119745500D03*
D18*
X134429500Y-119860000D03*
X133814500Y-119860000D03*
X133199500Y-119860000D03*
X132584500Y-119860000D03*
X131969500Y-119860000D03*
X131354500Y-119860000D03*
X130739500Y-119860000D03*
X130124500Y-119860000D03*
D19*
X129144500Y-119745500D03*
X129144500Y-119130500D03*
X129144500Y-118515500D03*
X129144500Y-117900500D03*
X129144500Y-117285500D03*
X129144500Y-116670500D03*
X129144500Y-116055500D03*
X129144500Y-115440500D03*
X129144500Y-114825500D03*
X129144500Y-114210500D03*
X129144500Y-113595500D03*
X129144500Y-112980500D03*
D20*
X130312000Y-113946500D03*
X130312000Y-115154500D03*
X130312000Y-116362500D03*
X130312000Y-117570500D03*
X130312000Y-118778500D03*
X131622000Y-118778500D03*
X131622000Y-117570500D03*
X131622000Y-116362500D03*
X131622000Y-115154500D03*
X131622000Y-113946500D03*
X132932000Y-113946500D03*
X132932000Y-115154500D03*
X132932000Y-116362500D03*
X132932000Y-117570500D03*
X132932000Y-118778500D03*
X134242000Y-118778500D03*
X134242000Y-117570500D03*
X134242000Y-116362500D03*
X134242000Y-115154500D03*
X134242000Y-113946500D03*
%TD*%
D21*
%TO.C,U8*%
X152720000Y-77610000D03*
X151450000Y-77610000D03*
X150180000Y-77610000D03*
X148910000Y-77610000D03*
X147640000Y-77610000D03*
X146370000Y-77610000D03*
X145100000Y-77610000D03*
X143830000Y-77610000D03*
X142560000Y-77610000D03*
X141290000Y-77610000D03*
X140020000Y-77610000D03*
X138750000Y-77610000D03*
X137480000Y-77610000D03*
X136210000Y-77610000D03*
D22*
X134960000Y-75845000D03*
X134960000Y-74575000D03*
X134960000Y-73305000D03*
X134960000Y-72035000D03*
X134960000Y-70765000D03*
X134960000Y-69495000D03*
X134960000Y-68225000D03*
X134960000Y-66955000D03*
X134960000Y-65685000D03*
X134960000Y-64415000D03*
X134960000Y-63145000D03*
X134960000Y-61875000D03*
D21*
X136210000Y-60110000D03*
X137480000Y-60110000D03*
X138750000Y-60110000D03*
X140020000Y-60110000D03*
X141290000Y-60110000D03*
X142560000Y-60110000D03*
X143830000Y-60110000D03*
X145100000Y-60110000D03*
X146370000Y-60110000D03*
X147640000Y-60110000D03*
X148910000Y-60110000D03*
X150180000Y-60110000D03*
X151450000Y-60110000D03*
X152720000Y-60110000D03*
D23*
X143600000Y-71760000D03*
X145000000Y-71760000D03*
X146400000Y-71760000D03*
X143600000Y-70360000D03*
X145000000Y-70360000D03*
X146400000Y-70360000D03*
X143600000Y-68960000D03*
X145000000Y-68960000D03*
X146400000Y-68960000D03*
%TD*%
M02*
